  0
SECTION
  2
HEADER
  9
$ACADVER
  1
AC1024
  9
$ACADMAINTVER
 70
6
  9
$DWGCODEPAGE
  3
ANSI_1252
  9
$LASTSAVEDBY
  1
ezdxf
  9
$INSBASE
 10
0.0
 20
0.0
 30
0.0
  9
$EXTMIN
 10
1e+20
 20
1e+20
 30
1e+20
  9
$EXTMAX
 10
-1e+20
 20
-1e+20
 30
-1e+20
  9
$LIMMIN
 10
0.0
 20
0.0
  9
$LIMMAX
 10
420.0
 20
297.0
  9
$ORTHOMODE
 70
0
  9
$REGENMODE
 70
1
  9
$FILLMODE
 70
1
  9
$QTEXTMODE
 70
0
  9
$MIRRTEXT
 70
1
  9
$LTSCALE
 40
1.0
  9
$ATTMODE
 70
1
  9
$TEXTSIZE
 40
2.5
  9
$TRACEWID
 40
1.0
  9
$TEXTSTYLE
  7
Standard
  9
$CLAYER
  8
0
  9
$CELTYPE
  6
ByLayer
  9
$CECOLOR
 62
256
  9
$CELTSCALE
 40
1.0
  9
$DISPSILH
 70
0
  9
$DIMSCALE
 40
1.0
  9
$DIMASZ
 40
2.5
  9
$DIMEXO
 40
0.625
  9
$DIMDLI
 40
3.75
  9
$DIMRND
 40
0.0
  9
$DIMDLE
 40
0.0
  9
$DIMEXE
 40
1.25
  9
$DIMTP
 40
0.0
  9
$DIMTM
 40
0.0
  9
$DIMTXT
 40
2.5
  9
$DIMCEN
 40
2.5
  9
$DIMTSZ
 40
0.0
  9
$DIMTOL
 70
0
  9
$DIMLIM
 70
0
  9
$DIMTIH
 70
0
  9
$DIMTOH
 70
0
  9
$DIMSE1
 70
0
  9
$DIMSE2
 70
0
  9
$DIMTAD
 70
1
  9
$DIMZIN
 70
8
  9
$DIMBLK
  1

  9
$DIMASO
 70
1
  9
$DIMSHO
 70
1
  9
$DIMPOST
  1

  9
$DIMAPOST
  1

  9
$DIMALT
 70
0
  9
$DIMALTD
 70
3
  9
$DIMALTF
 40
0.03937007874
  9
$DIMLFAC
 40
1.0
  9
$DIMTOFL
 70
1
  9
$DIMTVP
 40
0.0
  9
$DIMTIX
 70
0
  9
$DIMSOXD
 70
0
  9
$DIMSAH
 70
0
  9
$DIMBLK1
  1

  9
$DIMBLK2
  1

  9
$DIMSTYLE
  2
ISO-25
  9
$DIMCLRD
 70
0
  9
$DIMCLRE
 70
0
  9
$DIMCLRT
 70
0
  9
$DIMTFAC
 40
1.0
  9
$DIMGAP
 40
0.625
  9
$DIMJUST
 70
0
  9
$DIMSD1
 70
0
  9
$DIMSD2
 70
0
  9
$DIMTOLJ
 70
0
  9
$DIMTZIN
 70
8
  9
$DIMALTZ
 70
0
  9
$DIMALTTZ
 70
0
  9
$DIMUPT
 70
0
  9
$DIMDEC
 70
2
  9
$DIMTDEC
 70
2
  9
$DIMALTU
 70
2
  9
$DIMALTTD
 70
3
  9
$DIMTXSTY
  7
Standard
  9
$DIMAUNIT
 70
0
  9
$DIMADEC
 70
0
  9
$DIMALTRND
 40
0.0
  9
$DIMAZIN
 70
0
  9
$DIMDSEP
 70
44
  9
$DIMATFIT
 70
3
  9
$DIMFRAC
 70
0
  9
$DIMLDRBLK
  1

  9
$DIMLUNIT
 70
2
  9
$DIMLWD
 70
-2
  9
$DIMLWE
 70
-2
  9
$DIMTMOVE
 70
0
  9
$DIMFXL
 40
1.0
  9
$DIMFXLON
 70
0
  9
$DIMJOGANG
 40
0.785398163397
  9
$DIMTFILL
 70
0
  9
$DIMTFILLCLR
 70
0
  9
$DIMARCSYM
 70
0
  9
$DIMLTYPE
  6

  9
$DIMLTEX1
  6

  9
$DIMLTEX2
  6

  9
$DIMTXTDIRECTION
 70
0
  9
$LUNITS
 70
2
  9
$LUPREC
 70
4
  9
$SKETCHINC
 40
1.0
  9
$FILLETRAD
 40
10.0
  9
$AUNITS
 70
0
  9
$AUPREC
 70
2
  9
$MENU
  1
.
  9
$ELEVATION
 40
0.0
  9
$PELEVATION
 40
0.0
  9
$THICKNESS
 40
0.0
  9
$LIMCHECK
 70
0
  9
$CHAMFERA
 40
0.0
  9
$CHAMFERB
 40
0.0
  9
$CHAMFERC
 40
0.0
  9
$CHAMFERD
 40
0.0
  9
$SKPOLY
 70
0
  9
$TDCREATE
 40
2461294.987337963
  9
$TDUCREATE
 40
2458532.153996898
  9
$TDUPDATE
 40
2461294.987337963
  9
$TDUUPDATE
 40
2458532.1544311
  9
$TDINDWG
 40
0.0
  9
$TDUSRTIMER
 40
0.0
  9
$USRTIMER
 70
1
  9
$ANGBASE
 50
0.0
  9
$ANGDIR
 70
0
  9
$PDMODE
 70
0
  9
$PDSIZE
 40
0.0
  9
$PLINEWID
 40
0.0
  9
$SPLFRAME
 70
0
  9
$SPLINETYPE
 70
6
  9
$SPLINESEGS
 70
8
  9
$HANDSEED
  5
221
  9
$SURFTAB1
 70
6
  9
$SURFTAB2
 70
6
  9
$SURFTYPE
 70
6
  9
$SURFU
 70
6
  9
$SURFV
 70
6
  9
$UCSBASE
  2

  9
$UCSNAME
  2

  9
$UCSORG
 10
0.0
 20
0.0
 30
0.0
  9
$UCSXDIR
 10
1.0
 20
0.0
 30
0.0
  9
$UCSYDIR
 10
0.0
 20
1.0
 30
0.0
  9
$UCSORTHOREF
  2

  9
$UCSORTHOVIEW
 70
0
  9
$UCSORGTOP
 10
0.0
 20
0.0
 30
0.0
  9
$UCSORGBOTTOM
 10
0.0
 20
0.0
 30
0.0
  9
$UCSORGLEFT
 10
0.0
 20
0.0
 30
0.0
  9
$UCSORGRIGHT
 10
0.0
 20
0.0
 30
0.0
  9
$UCSORGFRONT
 10
0.0
 20
0.0
 30
0.0
  9
$UCSORGBACK
 10
0.0
 20
0.0
 30
0.0
  9
$PUCSBASE
  2

  9
$PUCSNAME
  2

  9
$PUCSORG
 10
0.0
 20
0.0
 30
0.0
  9
$PUCSXDIR
 10
1.0
 20
0.0
 30
0.0
  9
$PUCSYDIR
 10
0.0
 20
1.0
 30
0.0
  9
$PUCSORTHOREF
  2

  9
$PUCSORTHOVIEW
 70
0
  9
$PUCSORGTOP
 10
0.0
 20
0.0
 30
0.0
  9
$PUCSORGBOTTOM
 10
0.0
 20
0.0
 30
0.0
  9
$PUCSORGLEFT
 10
0.0
 20
0.0
 30
0.0
  9
$PUCSORGRIGHT
 10
0.0
 20
0.0
 30
0.0
  9
$PUCSORGFRONT
 10
0.0
 20
0.0
 30
0.0
  9
$PUCSORGBACK
 10
0.0
 20
0.0
 30
0.0
  9
$USERI1
 70
0
  9
$USERI2
 70
0
  9
$USERI3
 70
0
  9
$USERI4
 70
0
  9
$USERI5
 70
0
  9
$USERR1
 40
0.0
  9
$USERR2
 40
0.0
  9
$USERR3
 40
0.0
  9
$USERR4
 40
0.0
  9
$USERR5
 40
0.0
  9
$WORLDVIEW
 70
1
  9
$SHADEDGE
 70
3
  9
$SHADEDIF
 70
70
  9
$TILEMODE
 70
1
  9
$MAXACTVP
 70
64
  9
$PINSBASE
 10
0.0
 20
0.0
 30
0.0
  9
$PLIMCHECK
 70
0
  9
$PEXTMIN
 10
1e+20
 20
1e+20
 30
1e+20
  9
$PEXTMAX
 10
-1e+20
 20
-1e+20
 30
-1e+20
  9
$PLIMMIN
 10
0.0
 20
0.0
  9
$PLIMMAX
 10
420.0
 20
297.0
  9
$UNITMODE
 70
0
  9
$VISRETAIN
 70
1
  9
$PLINEGEN
 70
0
  9
$PSLTSCALE
 70
1
  9
$TREEDEPTH
 70
3020
  9
$CMLSTYLE
  2
Standard
  9
$CMLJUST
 70
0
  9
$CMLSCALE
 40
20.0
  9
$PROXYGRAPHICS
 70
1
  9
$MEASUREMENT
 70
1
  9
$CELWEIGHT
370
-1
  9
$ENDCAPS
280
0
  9
$JOINSTYLE
280
0
  9
$LWDISPLAY
290
0
  9
$INSUNITS
 70
6
  9
$HYPERLINKBASE
  1

  9
$STYLESHEET
  1

  9
$XEDIT
290
1
  9
$CEPSNTYPE
380
0
  9
$PSTYLEMODE
290
1
  9
$FINGERPRINTGUID
  2
{26228895-EFA9-4368-86FC-B4F07B572EB9}
  9
$VERSIONGUID
  2
{1F2833F0-1195-4E47-8662-36316A654884}
  9
$EXTNAMES
290
1
  9
$PSVPSCALE
 40
0.0
  9
$OLESTARTUP
290
0
  9
$SORTENTS
280
127
  9
$INDEXCTL
280
0
  9
$HIDETEXT
280
1
  9
$XCLIPFRAME
280
1
  9
$HALOGAP
280
0
  9
$OBSCOLOR
 70
257
  9
$OBSLTYPE
280
0
  9
$INTERSECTIONDISPLAY
280
0
  9
$INTERSECTIONCOLOR
 70
257
  9
$DIMASSOC
280
2
  9
$PROJECTNAME
  1

  9
$CAMERADISPLAY
290
0
  9
$LENSLENGTH
 40
50.0
  9
$CAMERAHEIGHT
 40
0.0
  9
$STEPSPERSEC
 40
24.0
  9
$STEPSIZE
 40
100.0
  9
$3DDWFPREC
 40
2.0
  9
$PSOLWIDTH
 40
0.005
  9
$PSOLHEIGHT
 40
0.08
  9
$LOFTANG1
 40
1.570796326795
  9
$LOFTANG2
 40
1.570796326795
  9
$LOFTMAG1
 40
0.0
  9
$LOFTMAG2
 40
0.0
  9
$LOFTPARAM
 70
7
  9
$LOFTNORMALS
280
1
  9
$LATITUDE
 40
37.795
  9
$LONGITUDE
 40
-122.394
  9
$NORTHDIRECTION
 40
0.0
  9
$TIMEZONE
 70
-8000
  9
$LIGHTGLYPHDISPLAY
280
1
  9
$TILEMODELIGHTSYNCH
280
1
  9
$CMATERIAL
347
20
  9
$SOLIDHIST
280
0
  9
$SHOWHIST
280
1
  9
$DWFFRAME
280
2
  9
$DGNFRAME
280
2
  9
$REALWORLDSCALE
290
1
  9
$INTERFERECOLOR
 62
256
  9
$CSHADOW
280
0
  9
$SHADOWPLANELOCATION
 40
0.0
  0
ENDSEC
  0
SECTION
  2
CLASSES
  0
CLASS
  1
ACDBDICTIONARYWDFLT
  2
AcDbDictionaryWithDefault
  3
ObjectDBX Classes
 90
0
 91
0
280
0
281
0
  0
CLASS
  1
SUN
  2
AcDbSun
  3
SCENEOE
 90
1153
 91
0
280
0
281
0
  0
CLASS
  1
VISUALSTYLE
  2
AcDbVisualStyle
  3
ObjectDBX Classes
 90
4095
 91
0
280
0
281
0
  0
CLASS
  1
MATERIAL
  2
AcDbMaterial
  3
ObjectDBX Classes
 90
1153
 91
0
280
0
281
0
  0
CLASS
  1
SCALE
  2
AcDbScale
  3
ObjectDBX Classes
 90
1153
 91
0
280
0
281
0
  0
CLASS
  1
TABLESTYLE
  2
AcDbTableStyle
  3
ObjectDBX Classes
 90
4095
 91
0
280
0
281
0
  0
CLASS
  1
MLEADERSTYLE
  2
AcDbMLeaderStyle
  3
ACDB_MLEADERSTYLE_CLASS
 90
4095
 91
0
280
0
281
0
  0
CLASS
  1
DICTIONARYVAR
  2
AcDbDictionaryVar
  3
ObjectDBX Classes
 90
0
 91
0
280
0
281
0
  0
CLASS
  1
CELLSTYLEMAP
  2
AcDbCellStyleMap
  3
ObjectDBX Classes
 90
1152
 91
0
280
0
281
0
  0
CLASS
  1
MENTALRAYRENDERSETTINGS
  2
AcDbMentalRayRenderSettings
  3
SCENEOE
 90
1024
 91
0
280
0
281
0
  0
CLASS
  1
ACDBDETAILVIEWSTYLE
  2
AcDbDetailViewStyle
  3
ObjectDBX Classes
 90
1025
 91
0
280
0
281
0
  0
CLASS
  1
ACDBSECTIONVIEWSTYLE
  2
AcDbSectionViewStyle
  3
ObjectDBX Classes
 90
1025
 91
0
280
0
281
0
  0
CLASS
  1
RASTERVARIABLES
  2
AcDbRasterVariables
  3
ISM
 90
0
 91
0
280
0
281
0
  0
CLASS
  1
LAYOUT
  2
AcDbLayout
  3
ObjectDBX Classes
 90
0
 91
0
280
0
281
0
  0
CLASS
  1
ACDBPLACEHOLDER
  2
AcDbPlaceHolder
  3
ObjectDBX Classes
 90
0
 91
0
280
0
281
0
  0
ENDSEC
  0
SECTION
  2
TABLES
  0
TABLE
  2
VPORT
  5
8
330
0
100
AcDbSymbolTable
 70
1
  0
VPORT
  5
23
330
8
100
AcDbSymbolTableRecord
100
AcDbViewportTableRecord
  2
*Active
 70
0
 10
0.0
 20
0.0
 11
1.0
 21
1.0
 12
0.0
 22
0.0
 13
0.0
 23
0.0
 14
0.5
 24
0.5
 15
0.5
 25
0.5
 16
0.0
 26
0.0
 36
1.0
 17
0.0
 27
0.0
 37
0.0
 40
1000.0
 41
1.34
 42
50.0
 43
0.0
 44
0.0
 50
0.0
 51
0.0
 71
0
 72
1000
 73
1
 74
3
 75
0
 76
0
 77
0
 78
0
281
0
 65
0
146
0.0
  0
ENDTAB
  0
TABLE
  2
LTYPE
  5
2
330
0
100
AcDbSymbolTable
 70
3
  0
LTYPE
  5
24
330
2
100
AcDbSymbolTableRecord
100
AcDbLinetypeTableRecord
  2
ByBlock
 70
0
  3

 72
65
 73
0
 40
0.0
  0
LTYPE
  5
25
330
2
100
AcDbSymbolTableRecord
100
AcDbLinetypeTableRecord
  2
ByLayer
 70
0
  3

 72
65
 73
0
 40
0.0
  0
LTYPE
  5
26
330
2
100
AcDbSymbolTableRecord
100
AcDbLinetypeTableRecord
  2
Continuous
 70
0
  3

 72
65
 73
0
 40
0.0
  0
ENDTAB
  0
TABLE
  2
LAYER
  5
1
330
0
100
AcDbSymbolTable
 70
8
  0
LAYER
  5
27
330
1
100
AcDbSymbolTableRecord
100
AcDbLayerTableRecord
  2
0
 70
0
 62
7
  6
Continuous
370
-3
390
13
347
21
  0
LAYER
  5
28
330
1
100
AcDbSymbolTableRecord
100
AcDbLayerTableRecord
  2
Defpoints
 70
0
 62
7
  6
Continuous
290
0
370
-3
390
13
347
21
  0
LAYER
  5
2F
330
1
100
AcDbSymbolTableRecord
100
AcDbLayerTableRecord
  2
CORTE
 70
0
 62
7
  6
Continuous
370
-3
390
13
347
21
  0
LAYER
  5
30
330
1
100
AcDbSymbolTableRecord
100
AcDbLayerTableRecord
  2
VISTA
 70
0
 62
8
  6
Continuous
370
-3
390
13
347
21
  0
LAYER
  5
31
330
1
100
AcDbSymbolTableRecord
100
AcDbLayerTableRecord
  2
COTAS
 70
0
 62
4
  6
Continuous
370
-3
390
13
347
21
  0
LAYER
  5
32
330
1
100
AcDbSymbolTableRecord
100
AcDbLayerTableRecord
  2
TEXTOS
 70
0
 62
7
  6
Continuous
370
-3
390
13
347
21
  0
LAYER
  5
33
330
1
100
AcDbSymbolTableRecord
100
AcDbLayerTableRecord
  2
EJES
 70
0
 62
3
  6
Continuous
370
-3
390
13
347
21
  0
LAYER
  5
34
330
1
100
AcDbSymbolTableRecord
100
AcDbLayerTableRecord
  2
SISTEMAS
 70
0
 62
5
  6
Continuous
370
-3
390
13
347
21
  0
ENDTAB
  0
TABLE
  2
STYLE
  5
5
330
0
100
AcDbSymbolTable
 70
1
  0
STYLE
  5
29
330
5
100
AcDbSymbolTableRecord
100
AcDbTextStyleTableRecord
  2
Standard
 70
0
 40
0.0
 41
1.0
 50
0.0
 71
0
 42
2.5
  3
txt
  4

  0
ENDTAB
  0
TABLE
  2
VIEW
  5
7
330
0
100
AcDbSymbolTable
 70
0
  0
ENDTAB
  0
TABLE
  2
UCS
  5
6
330
0
100
AcDbSymbolTable
 70
0
  0
ENDTAB
  0
TABLE
  2
APPID
  5
3
330
0
100
AcDbSymbolTable
 70
3
  0
APPID
  5
2A
330
3
100
AcDbSymbolTableRecord
100
AcDbRegAppTableRecord
  2
ACAD
 70
0
  0
APPID
  5
21E
330
3
100
AcDbSymbolTableRecord
100
AcDbRegAppTableRecord
  2
HATCHBACKGROUNDCOLOR
 70
0
  0
APPID
  5
21F
330
3
100
AcDbSymbolTableRecord
100
AcDbRegAppTableRecord
  2
EZDXF
 70
0
  0
ENDTAB
  0
TABLE
  2
DIMSTYLE
  5
4
330
0
100
AcDbSymbolTable
 70
1
100
AcDbDimStyleTable
  0
DIMSTYLE
105
2B
330
4
100
AcDbSymbolTableRecord
100
AcDbDimStyleTableRecord
  2
Standard
 70
0
 40
1.0
 41
2.5
 42
0.625
 43
3.75
 44
1.25
 45
0.0
 46
0.0
 47
0.0
 48
0.0
 49
2.5
140
2.5
141
2.5
142
0.0
143
0.03937007874
144
1.0
145
0.0
146
1.0
147
0.625
148
0.0
 69
0
 70
0
 71
0
 72
0
 73
0
 74
0
 75
0
 76
0
 77
1
 78
8
 79
3
170
0
171
3
172
1
173
0
174
0
175
0
176
0
177
0
178
0
179
2
271
2
272
2
273
2
274
3
275
0
276
0
277
2
278
44
279
0
280
0
281
0
282
0
283
0
284
8
285
0
286
0
288
0
289
3
290
0
371
-2
372
-2
  0
ENDTAB
  0
TABLE
  2
BLOCK_RECORD
  5
9
330
0
100
AcDbSymbolTable
 70
8
  0
BLOCK_RECORD
  5
17
330
9
100
AcDbSymbolTableRecord
100
AcDbBlockTableRecord
  2
*Model_Space
340
1A
 70
0
280
1
281
0
  0
BLOCK_RECORD
  5
1B
330
9
100
AcDbSymbolTableRecord
100
AcDbBlockTableRecord
  2
*Paper_Space
340
1E
 70
0
280
1
281
0
  0
BLOCK_RECORD
  5
BF
330
9
100
AcDbSymbolTableRecord
100
AcDbBlockTableRecord
  2
*D1
340
0
 70
0
280
1
281
0
  0
BLOCK_RECORD
  5
C4
330
9
100
AcDbSymbolTableRecord
100
AcDbBlockTableRecord
  2
_CLOSEDFILLED
340
0
 70
0
280
1
281
0
  0
BLOCK_RECORD
  5
D3
330
9
100
AcDbSymbolTableRecord
100
AcDbBlockTableRecord
  2
*D2
340
0
 70
0
280
1
281
0
  0
BLOCK_RECORD
  5
E3
330
9
100
AcDbSymbolTableRecord
100
AcDbBlockTableRecord
  2
*D3
340
0
 70
0
280
1
281
0
  0
BLOCK_RECORD
  5
159
330
9
100
AcDbSymbolTableRecord
100
AcDbBlockTableRecord
  2
*D4
340
0
 70
0
280
1
281
0
  0
BLOCK_RECORD
  5
169
330
9
100
AcDbSymbolTableRecord
100
AcDbBlockTableRecord
  2
*D5
340
0
 70
0
280
1
281
0
  0
ENDTAB
  0
ENDSEC
  0
SECTION
  2
BLOCKS
  0
BLOCK
  5
18
330
17
100
AcDbEntity
  8
0
100
AcDbBlockBegin
  2
*Model_Space
 70
0
 10
0.0
 20
0.0
 30
0.0
  3
*Model_Space
  1

  0
ENDBLK
  5
19
330
17
100
AcDbEntity
  8
0
100
AcDbBlockEnd
  0
BLOCK
  5
1C
330
1B
100
AcDbEntity
  8
0
100
AcDbBlockBegin
  2
*Paper_Space
 70
0
 10
0.0
 20
0.0
 30
0.0
  3
*Paper_Space
  1

  0
ENDBLK
  5
1D
330
1B
100
AcDbEntity
  8
0
100
AcDbBlockEnd
  0
BLOCK
  5
C0
330
BF
100
AcDbEntity
  8
0
100
AcDbBlockBegin
  2
*D1
 70
1
 10
0.0
 20
0.0
 30
0.0
  3
*D1
  1

  0
LINE
  5
C2
330
BF
100
AcDbEntity
  8
0
100
AcDbLine
 10
981.8
 20
-6.15
 30
0.0
 11
982.25
 21
-6.15
 31
0.0
  0
LINE
  5
C3
330
BF
100
AcDbEntity
  8
0
100
AcDbLine
 10
981.8
 20
-7.35
 30
0.0
 11
982.25
 21
-7.35
 31
0.0
  0
INSERT
  5
C8
330
BF
100
AcDbEntity
  8
COTAS
100
AcDbBlockReference
  2
_CLOSEDFILLED
 10
982.25
 20
-6.15
 30
0.0
 41
0.09
 42
0.09
 50
270.0
  0
INSERT
  5
CA
330
BF
100
AcDbEntity
  8
COTAS
100
AcDbBlockReference
  2
_CLOSEDFILLED
 10
982.25
 20
-7.35
 30
0.0
 41
0.09
 42
0.09
 50
90.0
  0
LINE
  5
CC
330
BF
100
AcDbEntity
  8
0
100
AcDbLine
 10
982.25
 20
-6.0600000000000005
 30
0.0
 11
982.25
 21
-6.555
 31
0.0
  0
LINE
  5
CD
330
BF
100
AcDbEntity
  8
0
100
AcDbLine
 10
982.25
 20
-6.945
 30
0.0
 11
982.25
 21
-7.4399999999999995
 31
0.0
  0
MTEXT
  5
CE
330
BF
100
AcDbEntity
  8
COTAS
100
AcDbMText
 10
982.25
 20
-6.75
 30
0.0
 40
0.13
 71
5
  1
1,2
 50
90.0
  0
POINT
  5
CF
330
BF
100
AcDbEntity
  8
Defpoints
100
AcDbPoint
 10
982.25
 20
-6.15
 30
0.0
  0
POINT
  5
D0
330
BF
100
AcDbEntity
  8
Defpoints
100
AcDbPoint
 10
981.8
 20
-6.15
 30
0.0
  0
POINT
  5
D1
330
BF
100
AcDbEntity
  8
Defpoints
100
AcDbPoint
 10
981.8
 20
-7.35
 30
0.0
  0
ENDBLK
  5
C1
330
BF
100
AcDbEntity
  8
0
100
AcDbBlockEnd
  0
BLOCK
  5
C5
330
C4
100
AcDbEntity
  8
0
100
AcDbBlockBegin
  2
_CLOSEDFILLED
 70
0
 10
0.0
 20
0.0
 30
0.0
  3
_CLOSEDFILLED
  1

  0
SOLID
  5
C7
330
C4
100
AcDbEntity
  8
0
  6
BYBLOCK
 62
0
100
AcDbTrace
 10
-1.0
 20
0.16439898372402537
 30
0.0
 11
0.0
 21
0.0
 31
0.0
 12
-1.0
 22
-0.16439898372402537
 32
0.0
 13
-1.0
 23
-0.16439898372402537
 33
0.0
  0
ENDBLK
  5
C6
330
C4
100
AcDbEntity
  8
0
100
AcDbBlockEnd
  0
BLOCK
  5
D4
330
D3
100
AcDbEntity
  8
0
100
AcDbBlockBegin
  2
*D2
 70
1
 10
0.0
 20
0.0
 30
0.0
  3
*D2
  1

  0
LINE
  5
D6
330
D3
100
AcDbEntity
  8
0
100
AcDbLine
 10
981.8
 20
-7.5
 30
0.0
 11
982.25
 21
-7.5
 31
0.0
  0
LINE
  5
D7
330
D3
100
AcDbEntity
  8
0
100
AcDbLine
 10
981.8
 20
-8.8
 30
0.0
 11
982.25
 21
-8.8
 31
0.0
  0
INSERT
  5
D8
330
D3
100
AcDbEntity
  8
COTAS
100
AcDbBlockReference
  2
_CLOSEDFILLED
 10
982.25
 20
-7.5
 30
0.0
 41
0.09
 42
0.09
 50
270.0
  0
INSERT
  5
DA
330
D3
100
AcDbEntity
  8
COTAS
100
AcDbBlockReference
  2
_CLOSEDFILLED
 10
982.25
 20
-8.8
 30
0.0
 41
0.09
 42
0.09
 50
90.0
  0
LINE
  5
DC
330
D3
100
AcDbEntity
  8
0
100
AcDbLine
 10
982.25
 20
-7.41
 30
0.0
 11
982.25
 21
-7.955
 31
0.0
  0
LINE
  5
DD
330
D3
100
AcDbEntity
  8
0
100
AcDbLine
 10
982.25
 20
-8.345
 30
0.0
 11
982.25
 21
-8.89
 31
0.0
  0
MTEXT
  5
DE
330
D3
100
AcDbEntity
  8
COTAS
100
AcDbMText
 10
982.25
 20
-8.15
 30
0.0
 40
0.13
 71
5
  1
1,3
 50
90.0
  0
POINT
  5
DF
330
D3
100
AcDbEntity
  8
Defpoints
100
AcDbPoint
 10
982.25
 20
-7.5
 30
0.0
  0
POINT
  5
E0
330
D3
100
AcDbEntity
  8
Defpoints
100
AcDbPoint
 10
981.8
 20
-7.5
 30
0.0
  0
POINT
  5
E1
330
D3
100
AcDbEntity
  8
Defpoints
100
AcDbPoint
 10
981.8
 20
-8.8
 30
0.0
  0
ENDBLK
  5
D5
330
D3
100
AcDbEntity
  8
0
100
AcDbBlockEnd
  0
BLOCK
  5
E4
330
E3
100
AcDbEntity
  8
0
100
AcDbBlockBegin
  2
*D3
 70
1
 10
0.0
 20
0.0
 30
0.0
  3
*D3
  1

  0
LINE
  5
E6
330
E3
100
AcDbEntity
  8
0
100
AcDbLine
 10
981.8
 20
-8.89
 30
0.0
 11
982.25
 21
-8.89
 31
0.0
  0
LINE
  5
E7
330
E3
100
AcDbEntity
  8
0
100
AcDbLine
 10
981.8
 20
-9.99
 30
0.0
 11
982.25
 21
-9.99
 31
0.0
  0
INSERT
  5
E8
330
E3
100
AcDbEntity
  8
COTAS
100
AcDbBlockReference
  2
_CLOSEDFILLED
 10
982.25
 20
-8.89
 30
0.0
 41
0.09
 42
0.09
 50
270.0
  0
INSERT
  5
EA
330
E3
100
AcDbEntity
  8
COTAS
100
AcDbBlockReference
  2
_CLOSEDFILLED
 10
982.25
 20
-9.99
 30
0.0
 41
0.09
 42
0.09
 50
90.0
  0
LINE
  5
EC
330
E3
100
AcDbEntity
  8
0
100
AcDbLine
 10
982.25
 20
-8.8
 30
0.0
 11
982.25
 21
-9.245000000000001
 31
0.0
  0
LINE
  5
ED
330
E3
100
AcDbEntity
  8
0
100
AcDbLine
 10
982.25
 20
-9.635000000000002
 30
0.0
 11
982.25
 21
-10.08
 31
0.0
  0
MTEXT
  5
EE
330
E3
100
AcDbEntity
  8
COTAS
100
AcDbMText
 10
982.25
 20
-9.440000000000001
 30
0.0
 40
0.13
 71
5
  1
1,1
 50
90.0
  0
POINT
  5
EF
330
E3
100
AcDbEntity
  8
Defpoints
100
AcDbPoint
 10
982.25
 20
-8.89
 30
0.0
  0
POINT
  5
F0
330
E3
100
AcDbEntity
  8
Defpoints
100
AcDbPoint
 10
981.8
 20
-8.89
 30
0.0
  0
POINT
  5
F1
330
E3
100
AcDbEntity
  8
Defpoints
100
AcDbPoint
 10
981.8
 20
-9.99
 30
0.0
  0
ENDBLK
  5
E5
330
E3
100
AcDbEntity
  8
0
100
AcDbBlockEnd
  0
BLOCK
  5
15A
330
159
100
AcDbEntity
  8
0
100
AcDbBlockBegin
  2
*D4
 70
1
 10
0.0
 20
0.0
 30
0.0
  3
*D4
  1

  0
LINE
  5
15C
330
159
100
AcDbEntity
  8
0
100
AcDbLine
 10
1015.960000038147
 20
-3.320000171661377
 30
0.0
 11
1015.960000038147
 21
-3.160000171661377
 31
0.0
  0
LINE
  5
15D
330
159
100
AcDbEntity
  8
0
100
AcDbLine
 10
1017.6800003051758
 20
-3.320000171661377
 30
0.0
 11
1017.6800003051758
 21
-3.160000171661377
 31
0.0
  0
INSERT
  5
15E
330
159
100
AcDbEntity
  8
COTAS
100
AcDbBlockReference
  2
_CLOSEDFILLED
 10
1015.960000038147
 20
-3.160000171661377
 30
0.0
 41
0.09
 42
0.09
 50
180.0
  0
INSERT
  5
160
330
159
100
AcDbEntity
  8
COTAS
100
AcDbBlockReference
  2
_CLOSEDFILLED
 10
1017.6800003051758
 20
-3.160000171661377
 30
0.0
 41
0.09
 42
0.09
  0
LINE
  5
162
330
159
100
AcDbEntity
  8
0
100
AcDbLine
 10
1016.050000038147
 20
-3.160000171661377
 30
0.0
 11
1016.5600001716614
 21
-3.160000171661377
 31
0.0
  0
LINE
  5
163
330
159
100
AcDbEntity
  8
0
100
AcDbLine
 10
1017.0800001716614
 20
-3.160000171661377
 30
0.0
 11
1017.5900003051757
 21
-3.160000171661377
 31
0.0
  0
MTEXT
  5
164
330
159
100
AcDbEntity
  8
COTAS
100
AcDbMText
 10
1016.8200001716614
 20
-3.160000171661377
 30
0.0
 40
0.13
 71
5
  1
1,72
  0
POINT
  5
165
330
159
100
AcDbEntity
  8
Defpoints
100
AcDbPoint
 10
1015.960000038147
 20
-3.160000171661377
 30
0.0
  0
POINT
  5
166
330
159
100
AcDbEntity
  8
Defpoints
100
AcDbPoint
 10
1015.960000038147
 20
-3.320000171661377
 30
0.0
  0
POINT
  5
167
330
159
100
AcDbEntity
  8
Defpoints
100
AcDbPoint
 10
1017.6800003051758
 20
-3.320000171661377
 30
0.0
  0
ENDBLK
  5
15B
330
159
100
AcDbEntity
  8
0
100
AcDbBlockEnd
  0
BLOCK
  5
16A
330
169
100
AcDbEntity
  8
0
100
AcDbBlockBegin
  2
*D5
 70
1
 10
0.0
 20
0.0
 30
0.0
  3
*D5
  1

  0
LINE
  5
16C
330
169
100
AcDbEntity
  8
0
100
AcDbLine
 10
1017.6800003051758
 20
-3.320000171661377
 30
0.0
 11
1017.8600003051757
 21
-3.320000171661377
 31
0.0
  0
LINE
  5
16D
330
169
100
AcDbEntity
  8
0
100
AcDbLine
 10
1017.6800003051758
 20
-4.0
 30
0.0
 11
1017.8600003051757
 21
-4.0
 31
0.0
  0
INSERT
  5
16E
330
169
100
AcDbEntity
  8
COTAS
100
AcDbBlockReference
  2
_CLOSEDFILLED
 10
1017.8600003051757
 20
-3.320000171661377
 30
0.0
 41
0.09
 42
0.09
 50
90.0
  0
INSERT
  5
170
330
169
100
AcDbEntity
  8
COTAS
100
AcDbBlockReference
  2
_CLOSEDFILLED
 10
1017.8600003051757
 20
-4.0
 30
0.0
 41
0.09
 42
0.09
 50
270.0
  0
LINE
  5
172
330
169
100
AcDbEntity
  8
0
100
AcDbLine
 10
1017.8600003051757
 20
-3.230000171661377
 30
0.0
 11
1017.8600003051757
 21
-3.140000171661377
 31
0.0
  0
LINE
  5
173
330
169
100
AcDbEntity
  8
0
100
AcDbLine
 10
1017.8600003051757
 20
-4.09
 30
0.0
 11
1017.8600003051757
 21
-4.18
 31
0.0
  0
LINE
  5
174
330
169
100
AcDbEntity
  8
0
100
AcDbLine
 10
1017.8600003051757
 20
-3.320000171661377
 30
0.0
 11
1017.8600003051757
 21
-4.0
 31
0.0
  0
MTEXT
  5
175
330
169
100
AcDbEntity
  8
COTAS
100
AcDbMText
 10
1018.5500003051758
 20
-3.6600000858306885
 30
0.0
 40
0.13
 71
5
  1
0,68
 50
90.0
  0
POINT
  5
176
330
169
100
AcDbEntity
  8
Defpoints
100
AcDbPoint
 10
1017.8600003051757
 20
-3.320000171661377
 30
0.0
  0
POINT
  5
177
330
169
100
AcDbEntity
  8
Defpoints
100
AcDbPoint
 10
1017.6800003051758
 20
-3.320000171661377
 30
0.0
  0
POINT
  5
178
330
169
100
AcDbEntity
  8
Defpoints
100
AcDbPoint
 10
1017.6800003051758
 20
-4.0
 30
0.0
  0
ENDBLK
  5
16B
330
169
100
AcDbEntity
  8
0
100
AcDbBlockEnd
  0
ENDSEC
  0
SECTION
  2
ENTITIES
  0
LWPOLYLINE
  5
35
330
17
100
AcDbEntity
  8
VISTA
100
AcDbPolyline
 90
5
 70
1
 10
981.955
 20
-9.879999
 10
981.955
 20
-10.15
 10
982.004999
 20
-10.15
 10
982.004999
 20
-9.879999
 10
981.955
 20
-9.879999
  0
LWPOLYLINE
  5
36
330
17
100
AcDbEntity
  8
VISTA
100
AcDbPolyline
 90
5
 70
1
 10
981.395
 20
-6.78
 10
981.395
 20
-10.15
 10
981.445
 20
-10.15
 10
981.445
 20
-6.78
 10
981.395
 20
-6.78
  0
LWPOLYLINE
  5
37
330
17
100
AcDbEntity
  8
VISTA
100
AcDbPolyline
 90
9
 70
1
 10
980.5
 20
-10.0
 10
980.700001
 20
-10.0
 10
980.700001
 20
-10.030001
 10
982.0
 20
-10.030001
 10
982.0
 20
-6.0
 10
977.7
 20
-6.0
 10
977.7
 20
-10.15
 10
980.5
 20
-10.15
 10
980.5
 20
-10.0
  0
LWPOLYLINE
  5
38
330
17
100
AcDbEntity
  8
VISTA
100
AcDbPolyline
 90
5
 70
1
 10
981.799999
 20
-5.8
 10
977.7
 20
-5.8
 10
977.7
 20
-5.9
 10
981.799999
 20
-5.9
 10
981.799999
 20
-5.8
  0
LWPOLYLINE
  5
39
330
17
100
AcDbEntity
  8
VISTA
100
AcDbPolyline
 90
5
 70
1
 10
981.799999
 20
-5.8
 10
977.7
 20
-5.8
 10
977.7
 20
-5.9
 10
981.799999
 20
-5.9
 10
981.799999
 20
-5.8
  0
LWPOLYLINE
  5
3A
330
17
100
AcDbEntity
  8
VISTA
100
AcDbPolyline
 90
9
 70
1
 10
977.9809
 20
-5.988
 10
977.985142
 20
-5.986242
 10
977.986898
 20
-5.982
 10
977.986898
 20
-5.814
 10
977.985142
 20
-5.809757
 10
977.9809
 20
-5.808
 10
977.7
 20
-5.808
 10
977.7
 20
-5.988
 10
977.9809
 20
-5.988
  0
LWPOLYLINE
  5
3B
330
17
100
AcDbEntity
  8
VISTA
100
AcDbPolyline
 90
13
 70
1
 10
978.013102
 20
-5.982
 10
978.014858
 20
-5.986242
 10
978.0191
 20
-5.988
 10
979.220901
 20
-5.988
 10
979.225143
 20
-5.986242
 10
979.2269
 20
-5.982
 10
979.2269
 20
-5.814
 10
979.225143
 20
-5.809757
 10
979.220901
 20
-5.808
 10
978.0191
 20
-5.808
 10
978.014858
 20
-5.809757
 10
978.013102
 20
-5.814
 10
978.013102
 20
-5.982
  0
LWPOLYLINE
  5
3C
330
17
100
AcDbEntity
  8
VISTA
100
AcDbPolyline
 90
5
 70
1
 10
978.831711
 20
-6.226501
 10
979.968292
 20
-6.226501
 10
979.968292
 20
-6.2135
 10
978.831711
 20
-6.2135
 10
978.831711
 20
-6.226501
  0
LWPOLYLINE
  5
3D
330
17
100
AcDbEntity
  8
VISTA
100
AcDbPolyline
 90
8
 70
1
 10
978.868
 20
-9.78
 10
978.869999
 20
-9.778
 10
978.869999
 20
-7.601999
 10
978.868
 20
-7.599999
 10
978.431999
 20
-7.599999
 10
978.43
 20
-7.601999
 10
978.430586
 20
-9.779414
 10
978.868
 20
-9.78
  0
LWPOLYLINE
  5
3E
330
17
100
AcDbEntity
  8
VISTA
100
AcDbPolyline
 90
5
 70
1
 10
978.830002
 20
-6.2025
 10
979.970001
 20
-6.2025
 10
979.970001
 20
-6.2005
 10
978.830002
 20
-6.2005
 10
978.830002
 20
-6.2025
  0
LWPOLYLINE
  5
3F
330
17
100
AcDbEntity
  8
VISTA
100
AcDbPolyline
 90
5
 70
1
 10
978.830002
 20
-6.2135
 10
979.970001
 20
-6.2135
 10
979.970001
 20
-6.2115
 10
978.830002
 20
-6.2115
 10
978.830002
 20
-6.2135
  0
LWPOLYLINE
  5
40
330
17
100
AcDbEntity
  8
VISTA
100
AcDbPolyline
 90
5
 70
1
 10
978.831711
 20
-6.2285
 10
979.968292
 20
-6.2285
 10
979.968292
 20
-6.226501
 10
978.831711
 20
-6.226501
 10
978.831711
 20
-6.2285
  0
LWPOLYLINE
  5
41
330
17
100
AcDbEntity
  8
VISTA
100
AcDbPolyline
 90
5
 70
1
 10
978.831711
 20
-6.2395
 10
979.968292
 20
-6.2395
 10
979.968292
 20
-6.2375
 10
978.831711
 20
-6.2375
 10
978.831711
 20
-6.2395
  0
LWPOLYLINE
  5
42
330
17
100
AcDbEntity
  8
VISTA
100
AcDbPolyline
 90
12
 70
1
 10
978.749172
 20
-6.281329
 10
978.752001
 20
-6.2825
 10
980.048002
 20
-6.2825
 10
980.050831
 20
-6.281329
 10
980.052002
 20
-6.2785
 10
980.052002
 20
-6.1615
 10
980.050831
 20
-6.158672
 10
980.048002
 20
-6.1575
 10
978.752001
 20
-6.1575
 10
978.749172
 20
-6.158672
 10
978.748001
 20
-6.1615
 10
978.749172
 20
-6.281329
  0
LWPOLYLINE
  5
43
330
17
100
AcDbEntity
  8
VISTA
100
AcDbPolyline
 90
4
 70
1
 10
978.749693
 20
-6.28081
 10
978.750206
 20
-6.281028
 10
978.749474
 20
-6.281028
 10
978.749693
 20
-6.28081
  0
LWPOLYLINE
  5
44
330
17
100
AcDbEntity
  8
VISTA
100
AcDbPolyline
 90
4
 70
1
 10
978.749693
 20
-6.159191
 10
978.749474
 20
-6.159706
 10
978.749474
 20
-6.158973
 10
978.749693
 20
-6.159191
  0
LWPOLYLINE
  5
45
330
17
100
AcDbEntity
  8
VISTA
100
AcDbPolyline
 90
4
 70
1
 10
980.05031
 20
-6.159191
 10
980.049797
 20
-6.158973
 10
980.050529
 20
-6.158973
 10
980.05031
 20
-6.159191
  0
LWPOLYLINE
  5
46
330
17
100
AcDbEntity
  8
VISTA
100
AcDbPolyline
 90
4
 70
1
 10
980.049797
 20
-6.281028
 10
980.050529
 20
-6.280295
 10
980.05031
 20
-6.28081
 10
980.049797
 20
-6.281028
  0
LWPOLYLINE
  5
47
330
17
100
AcDbEntity
  8
VISTA
100
AcDbPolyline
 90
6
 70
1
 10
980.681173
 20
-7.208828
 10
980.684
 20
-7.21
 10
981.558828
 20
-7.208828
 10
981.558828
 20
-6.291172
 10
980.681173
 20
-6.291172
 10
980.681173
 20
-7.208828
  0
LWPOLYLINE
  5
48
330
17
100
AcDbEntity
  8
VISTA
100
AcDbPolyline
 90
4
 70
1
 10
980.681692
 20
-7.208309
 10
980.682205
 20
-7.208528
 10
980.681473
 20
-7.208528
 10
980.681692
 20
-7.208309
  0
LWPOLYLINE
  5
49
330
17
100
AcDbEntity
  8
VISTA
100
AcDbPolyline
 90
4
 70
1
 10
980.681692
 20
-6.291691
 10
980.681473
 20
-6.292205
 10
980.681473
 20
-6.291472
 10
980.681692
 20
-6.291691
  0
LWPOLYLINE
  5
4A
330
17
100
AcDbEntity
  8
VISTA
100
AcDbPolyline
 90
4
 70
1
 10
981.55831
 20
-6.291691
 10
981.557796
 20
-6.291472
 10
981.558529
 20
-6.291472
 10
981.55831
 20
-6.291691
  0
LWPOLYLINE
  5
4B
330
17
100
AcDbEntity
  8
VISTA
100
AcDbPolyline
 90
4
 70
1
 10
981.558529
 20
-7.208528
 10
981.557796
 20
-7.208528
 10
981.55831
 20
-7.208309
 10
981.558529
 20
-7.208528
  0
LWPOLYLINE
  5
4C
330
17
100
AcDbEntity
  8
VISTA
100
AcDbPolyline
 90
8
 70
1
 10
980.450001
 20
-9.778299
 10
980.4517
 20
-9.78
 10
980.588301
 20
-9.78
 10
980.59
 20
-9.778299
 10
980.59
 20
-9.1017
 10
980.588301
 20
-9.099999
 10
980.450716
 20
-9.100313
 10
980.450001
 20
-9.778299
  0
LWPOLYLINE
  5
4D
330
17
100
AcDbEntity
  8
VISTA
100
AcDbPolyline
 90
5
 70
1
 10
981.011002
 20
-10.13
 10
980.979
 20
-10.13
 10
980.979
 20
-10.15
 10
981.011002
 20
-10.15
 10
981.011002
 20
-10.13
  0
LWPOLYLINE
  5
4E
330
17
100
AcDbEntity
  8
VISTA
100
AcDbPolyline
 90
9
 70
1
 10
980.400499
 20
-9.589999
 10
980.4195
 20
-9.589999
 10
980.422501
 20
-9.587
 10
980.422501
 20
-9.292999
 10
980.4195
 20
-9.29
 10
980.400499
 20
-9.29
 10
980.397499
 20
-9.292999
 10
980.397499
 20
-9.587
 10
980.400499
 20
-9.589999
  0
LWPOLYLINE
  5
4F
330
17
100
AcDbEntity
  8
VISTA
100
AcDbPolyline
 90
13
 70
1
 10
980.42
 20
-7.132
 10
980.422342
 20
-7.137657
 10
980.427999
 20
-7.14
 10
980.511999
 20
-7.14
 10
980.517656
 20
-7.137657
 10
980.519999
 20
-7.132
 10
980.519999
 20
-6.368
 10
980.517656
 20
-6.362343
 10
980.511999
 20
-6.36
 10
980.427999
 20
-6.36
 10
980.422342
 20
-6.362343
 10
980.42
 20
-6.368
 10
980.42
 20
-7.132
  0
LWPOLYLINE
  5
50
330
17
100
AcDbEntity
  8
VISTA
100
AcDbPolyline
 90
6
 70
1
 10
980.546318
 20
-7.348682
 10
981.693684
 20
-7.348682
 10
981.693684
 20
-6.151318
 10
980.549501
 20
-6.15
 10
980.545
 20
-6.1545
 10
980.546318
 20
-7.348682
  0
LWPOLYLINE
  5
51
330
17
100
AcDbEntity
  8
VISTA
100
AcDbPolyline
 90
12
 70
1
 10
980.441172
 20
-9.798828
 10
980.444
 20
-9.799999
 10
980.556
 20
-9.799999
 10
980.558828
 20
-9.798828
 10
980.559999
 20
-9.796
 10
980.559999
 20
-9.084
 10
980.558828
 20
-9.081171
 10
980.556
 20
-9.08
 10
980.444
 20
-9.08
 10
980.441172
 20
-9.081171
 10
980.440001
 20
-9.084
 10
980.441172
 20
-9.798828
  0
LWPOLYLINE
  5
52
330
17
100
AcDbEntity
  8
VISTA
100
AcDbPolyline
 90
4
 70
1
 10
980.44169
 20
-9.798309
 10
980.4422050000001
 20
-9.798528
 10
980.441473
 20
-9.798528
 10
980.44169
 20
-9.798309
  0
LWPOLYLINE
  5
53
330
17
100
AcDbEntity
  8
VISTA
100
AcDbPolyline
 90
4
 70
1
 10
980.44169
 20
-9.08169
 10
980.441473
 20
-9.082205
 10
980.441473
 20
-9.081471
 10
980.44169
 20
-9.08169
  0
LWPOLYLINE
  5
54
330
17
100
AcDbEntity
  8
VISTA
100
AcDbPolyline
 90
4
 70
1
 10
980.55831
 20
-9.08169
 10
980.5577949999999
 20
-9.081471
 10
980.558527
 20
-9.081471
 10
980.55831
 20
-9.08169
  0
LWPOLYLINE
  5
55
330
17
100
AcDbEntity
  8
VISTA
100
AcDbPolyline
 90
4
 70
1
 10
980.558527
 20
-9.798528
 10
980.5577949999999
 20
-9.798528
 10
980.55831
 20
-9.798309
 10
980.558527
 20
-9.798528
  0
LWPOLYLINE
  5
56
330
17
100
AcDbEntity
  8
VISTA
100
AcDbPolyline
 90
9
 70
1
 10
980.275
 20
-9.985499
 10
980.276894
 20
-9.989169
 10
981.820499
 20
-9.99
 10
981.824169
 20
-9.988105
 10
981.824999
 20
-8.8945
 10
981.823105
 20
-8.89083
 10
980.279499
 20
-8.889999
 10
980.275
 20
-8.8945
 10
980.275
 20
-9.985499
  0
LWPOLYLINE
  5
57
330
17
100
AcDbEntity
  8
VISTA
100
AcDbPolyline
 90
8
 70
1
 10
980.370001
 20
-9.778299
 10
980.3717
 20
-9.78
 10
980.4683
 20
-9.78
 10
980.469999
 20
-9.778299
 10
980.469999
 20
-9.1017
 10
980.4683
 20
-9.099999
 10
980.370716
 20
-9.100313
 10
980.370001
 20
-9.778299
  0
LWPOLYLINE
  5
58
330
17
100
AcDbEntity
  8
VISTA
100
AcDbPolyline
 90
9
 70
1
 10
980.275
 20
-8.7555
 10
980.276894
 20
-8.759169
 10
981.820499
 20
-8.759999
 10
981.824169
 20
-8.758104
 10
981.824999
 20
-7.544499
 10
981.823105
 20
-7.540831
 10
980.279499
 20
-7.539999
 10
980.275
 20
-7.544499
 10
980.275
 20
-8.7555
  0
LWPOLYLINE
  5
59
330
17
100
AcDbEntity
  8
VISTA
100
AcDbPolyline
 90
10
 70
1
 10
978.371107
 20
-9.867475
 10
978.375999
 20
-9.870001
 10
978.927473
 20
-9.868893
 10
978.93
 20
-9.864001
 10
978.928892
 20
-8.952527
 10
978.924
 20
-8.950001
 10
978.375999
 20
-8.950001
 10
978.371758
 20
-8.951758
 10
978.369999
 20
-8.956
 10
978.371107
 20
-9.867475
  0
LWPOLYLINE
  5
5A
330
17
100
AcDbEntity
  8
VISTA
100
AcDbPolyline
 90
10
 70
1
 10
978.371107
 20
-8.697474
 10
978.375999
 20
-8.700001
 10
978.927473
 20
-8.698893
 10
978.93
 20
-8.694
 10
978.928892
 20
-7.602527
 10
978.924
 20
-7.6
 10
978.375999
 20
-7.6
 10
978.371758
 20
-7.601758
 10
978.369999
 20
-7.606
 10
978.371107
 20
-8.697474
  0
LWPOLYLINE
  5
5B
330
17
100
AcDbEntity
  8
VISTA
100
AcDbPolyline
 90
9
 70
1
 10
980.09
 20
-8.7955
 10
980.091896
 20
-8.799169
 10
981.8055
 20
-8.799999
 10
981.80917
 20
-8.798105
 10
981.810001
 20
-7.504499
 10
981.808105
 20
-7.500831
 10
980.094501
 20
-7.5
 10
980.09
 20
-7.504499
 10
980.09
 20
-8.7955
  0
LWPOLYLINE
  5
5C
330
17
100
AcDbEntity
  8
VISTA
100
AcDbPolyline
 90
5
 70
1
 10
980.480001
 20
-8.21
 10
980.9
 20
-8.21
 10
980.9
 20
-8.63
 10
980.480001
 20
-8.63
 10
980.480001
 20
-8.21
  0
LWPOLYLINE
  5
5D
330
17
100
AcDbEntity
  8
VISTA
100
AcDbPolyline
 90
5
 70
1
 10
980.480001
 20
-8.09
 10
980.480001
 20
-7.67
 10
980.9
 20
-7.67
 10
980.9
 20
-8.09
 10
980.480001
 20
-8.09
  0
LWPOLYLINE
  5
5E
330
17
100
AcDbEntity
  8
VISTA
100
AcDbPolyline
 90
13
 70
1
 10
978.34
 20
-9.972
 10
978.342342
 20
-9.977657
 10
978.348
 20
-9.98
 10
978.952
 20
-9.98
 10
978.957657
 20
-9.977656
 10
978.959999
 20
-9.971999
 10
978.959999
 20
-7.408
 10
978.957657
 20
-7.402343
 10
978.952
 20
-7.4
 10
978.348
 20
-7.4
 10
978.342342
 20
-7.402343
 10
978.34
 20
-7.408
 10
978.34
 20
-9.972
  0
LWPOLYLINE
  5
5F
330
17
100
AcDbEntity
  8
VISTA
100
AcDbPolyline
 90
5
 70
1
 10
978.48
 20
-7.850001
 10
978.779999
 20
-7.850001
 10
978.779999
 20
-8.25
 10
978.48
 20
-8.25
 10
978.48
 20
-7.850001
  0
LWPOLYLINE
  5
60
330
17
100
AcDbEntity
  8
VISTA
100
AcDbPolyline
 90
47
 70
1
 10
980.469801
 20
-7.74439
 10
980.464344
 20
-7.770636
 10
980.461084
 20
-7.804948
 10
980.461084
 20
-7.955052
 10
980.464344
 20
-7.989364
 10
980.469801
 20
-8.01561
 10
980.477495
 20
-8.037095
 10
980.487495
 20
-8.055055
 10
980.499916
 20
-8.070084
 10
980.514946
 20
-8.082504
 10
980.532906
 20
-8.092505
 10
980.55439
 20
-8.1002
 10
980.580635
 20
-8.105656
 10
980.614948
 20
-8.108915
 10
980.690001
 20
-8.11
 10
980.765053
 20
-8.108915
 10
980.799364
 20
-8.105656
 10
980.825609
 20
-8.1002
 10
980.847095
 20
-8.092505
 10
980.865055
 20
-8.082504
 10
980.880083
 20
-8.070084
 10
980.892504
 20
-8.055055
 10
980.902506
 20
-8.037095
 10
980.9102
 20
-8.01561
 10
980.915655
 20
-7.989364
 10
980.918915
 20
-7.955052
 10
980.92
 20
-7.88
 10
980.918915
 20
-7.804948
 10
980.915655
 20
-7.770636
 10
980.9102
 20
-7.74439
 10
980.902506
 20
-7.722905
 10
980.892504
 20
-7.704945
 10
980.880083
 20
-7.689917
 10
980.865055
 20
-7.677495
 10
980.847095
 20
-7.667495
 10
980.825609
 20
-7.659801
 10
980.799364
 20
-7.654344
 10
980.765053
 20
-7.651084
 10
980.614948
 20
-7.651084
 10
980.580635
 20
-7.654344
 10
980.55439
 20
-7.659801
 10
980.532906
 20
-7.667495
 10
980.514946
 20
-7.677495
 10
980.499916
 20
-7.689917
 10
980.487495
 20
-7.704945
 10
980.477495
 20
-7.722905
 10
980.469801
 20
-7.74439
  0
LWPOLYLINE
  5
61
330
17
100
AcDbEntity
  8
VISTA
100
AcDbPolyline
 90
4
 70
1
 10
980.6361102727685
 20
-8.04436797341971
 10
980.636110272704
 20
-8.04436797361646
 10
980.6361102727365
 20
-8.04436797351755
 10
980.6361102727685
 20
-8.04436797341971
  0
LWPOLYLINE
  5
62
330
17
100
AcDbEntity
  8
VISTA
100
AcDbPolyline
 90
4
 70
1
 10
980.8331297412133
 20
-7.968146722646805
 10
980.8331297412133
 20
-7.968146722646804
 10
980.8331297412133
 20
-7.968146722646805
 10
980.8331297412133
 20
-7.968146722646805
  0
LWPOLYLINE
  5
63
330
17
100
AcDbEntity
  8
VISTA
100
AcDbPolyline
 90
47
 70
1
 10
980.469801
 20
-8.28439
 10
980.464344
 20
-8.310636
 10
980.461084
 20
-8.344948
 10
980.461084
 20
-8.495052
 10
980.464344
 20
-8.529365
 10
980.469801
 20
-8.55561
 10
980.477495
 20
-8.577095
 10
980.487495
 20
-8.595055
 10
980.499916
 20
-8.610084
 10
980.514946
 20
-8.622504
 10
980.532906
 20
-8.632505
 10
980.55439
 20
-8.6402
 10
980.580635
 20
-8.645656
 10
980.614948
 20
-8.648915
 10
980.690001
 20
-8.65
 10
980.765053
 20
-8.648915
 10
980.799364
 20
-8.645656
 10
980.825609
 20
-8.6402
 10
980.847095
 20
-8.632505
 10
980.865055
 20
-8.622504
 10
980.880083
 20
-8.610084
 10
980.892504
 20
-8.595055
 10
980.902506
 20
-8.577095
 10
980.9102
 20
-8.55561
 10
980.915655
 20
-8.529365
 10
980.918915
 20
-8.495052
 10
980.92
 20
-8.42
 10
980.918915
 20
-8.344948
 10
980.915655
 20
-8.310636
 10
980.9102
 20
-8.28439
 10
980.902506
 20
-8.262905
 10
980.892504
 20
-8.244946
 10
980.880083
 20
-8.229917
 10
980.865055
 20
-8.217496
 10
980.847095
 20
-8.207495
 10
980.825609
 20
-8.1998
 10
980.799364
 20
-8.194344
 10
980.765053
 20
-8.191084
 10
980.614948
 20
-8.191084
 10
980.580635
 20
-8.194344
 10
980.55439
 20
-8.1998
 10
980.532906
 20
-8.207495
 10
980.514946
 20
-8.217496
 10
980.499916
 20
-8.229917
 10
980.487495
 20
-8.244946
 10
980.477495
 20
-8.262905
 10
980.469801
 20
-8.28439
  0
LWPOLYLINE
  5
64
330
17
100
AcDbEntity
  8
VISTA
100
AcDbPolyline
 90
4
 70
1
 10
980.754545
 20
-8.616867
 10
980.754544999978
 20
-8.61686699993292
 10
980.7545449999607
 20
-8.616866999880044
 10
980.754545
 20
-8.616867
  0
LWPOLYLINE
  5
65
330
17
100
AcDbEntity
  8
VISTA
100
AcDbPolyline
 90
4
 70
1
 10
980.8649440867098
 20
-8.527738887136255
 10
980.864944086734
 20
-8.527738887151209
 10
980.8649440867479
 20
-8.527738887159764
 10
980.8649440867098
 20
-8.527738887136255
  0
LWPOLYLINE
  5
66
330
17
100
AcDbEntity
  8
VISTA
100
AcDbPolyline
 90
39
 70
1
 10
978.4608
 20
-7.978211
 10
978.4608
 20
-8.121789
 10
978.467243
 20
-8.179713
 10
978.472931
 20
-8.200265
 10
978.489502
 20
-8.23182
 10
978.50061
 20
-8.243701
 10
978.513885
 20
-8.253266
 10
978.529766
 20
-8.260627
 10
978.549166
 20
-8.265845
 10
978.574526
 20
-8.268964
 10
978.685472
 20
-8.268964
 10
978.710835
 20
-8.265845
 10
978.730232
 20
-8.260627
 10
978.746113
 20
-8.253266
 10
978.759388
 20
-8.243701
 10
978.770496
 20
-8.23182
 10
978.779676
 20
-8.217444
 10
978.787069
 20
-8.200265
 10
978.796789
 20
-8.154611
 10
978.799198
 20
-8.121789
 10
978.799198
 20
-7.978211
 10
978.796787
 20
-7.945392
 10
978.787067
 20
-7.899735
 10
978.770496
 20
-7.868182
 10
978.759388
 20
-7.856301
 10
978.746113
 20
-7.846734
 10
978.730232
 20
-7.839375
 10
978.710833
 20
-7.834155
 10
978.685472
 20
-7.831038
 10
978.629999
 20
-7.830001
 10
978.574526
 20
-7.831038
 10
978.549164
 20
-7.834155
 10
978.529766
 20
-7.839375
 10
978.513885
 20
-7.846734
 10
978.50061
 20
-7.856301
 10
978.489502
 20
-7.868182
 10
978.480322
 20
-7.882556
 10
978.467243
 20
-7.920287
 10
978.4608
 20
-7.978211
  0
LWPOLYLINE
  5
67
330
17
100
AcDbEntity
  8
VISTA
100
AcDbPolyline
 90
5
 70
1
 10
980.379999
 20
-9.084
 10
980.860001
 20
-9.084
 10
980.859999
 20
-9.076
 10
980.379997
 20
-9.076304
 10
980.379999
 20
-9.084
  0
LWPOLYLINE
  5
68
330
17
100
AcDbEntity
  8
VISTA
100
AcDbPolyline
 90
5
 70
1
 10
980.379999
 20
-9.122
 10
980.860001
 20
-9.122
 10
980.859999
 20
-9.114
 10
980.379997
 20
-9.114305
 10
980.379999
 20
-9.122
  0
LWPOLYLINE
  5
69
330
17
100
AcDbEntity
  8
VISTA
100
AcDbPolyline
 90
5
 70
1
 10
980.379999
 20
-9.16
 10
980.860001
 20
-9.16
 10
980.859999
 20
-9.152
 10
980.379997
 20
-9.152305
 10
980.379999
 20
-9.16
  0
LWPOLYLINE
  5
6A
330
17
100
AcDbEntity
  8
VISTA
100
AcDbPolyline
 90
5
 70
1
 10
980.379999
 20
-9.198
 10
980.860001
 20
-9.198
 10
980.859999
 20
-9.190001
 10
980.379997
 20
-9.190305
 10
980.379999
 20
-9.198
  0
LWPOLYLINE
  5
6B
330
17
100
AcDbEntity
  8
VISTA
100
AcDbPolyline
 90
5
 70
1
 10
980.379999
 20
-9.236
 10
980.860001
 20
-9.236
 10
980.859999
 20
-9.228001
 10
980.379997
 20
-9.228305
 10
980.379999
 20
-9.236
  0
LWPOLYLINE
  5
6C
330
17
100
AcDbEntity
  8
VISTA
100
AcDbPolyline
 90
5
 70
1
 10
980.379999
 20
-9.274
 10
980.860001
 20
-9.274
 10
980.859999
 20
-9.266001
 10
980.379997
 20
-9.266305
 10
980.379999
 20
-9.274
  0
LWPOLYLINE
  5
6D
330
17
100
AcDbEntity
  8
VISTA
100
AcDbPolyline
 90
5
 70
1
 10
980.379999
 20
-9.311999
 10
980.860001
 20
-9.311999
 10
980.859999
 20
-9.304
 10
980.379997
 20
-9.304304
 10
980.379999
 20
-9.311999
  0
LWPOLYLINE
  5
6E
330
17
100
AcDbEntity
  8
VISTA
100
AcDbPolyline
 90
5
 70
1
 10
980.379999
 20
-9.349999
 10
980.860001
 20
-9.349999
 10
980.859999
 20
-9.342
 10
980.379997
 20
-9.342304
 10
980.379999
 20
-9.349999
  0
LWPOLYLINE
  5
6F
330
17
100
AcDbEntity
  8
VISTA
100
AcDbPolyline
 90
5
 70
1
 10
980.379999
 20
-9.388
 10
980.860001
 20
-9.388
 10
980.859999
 20
-9.38
 10
980.379997
 20
-9.380304
 10
980.379999
 20
-9.388
  0
LWPOLYLINE
  5
70
330
17
100
AcDbEntity
  8
VISTA
100
AcDbPolyline
 90
5
 70
1
 10
980.379999
 20
-9.426
 10
980.860001
 20
-9.426
 10
980.859999
 20
-9.418
 10
980.379997
 20
-9.418304
 10
980.379999
 20
-9.426
  0
LWPOLYLINE
  5
71
330
17
100
AcDbEntity
  8
VISTA
100
AcDbPolyline
 90
5
 70
1
 10
980.379999
 20
-9.464
 10
980.860001
 20
-9.464
 10
980.859999
 20
-9.456
 10
980.379997
 20
-9.456305
 10
980.379999
 20
-9.464
  0
LWPOLYLINE
  5
72
330
17
100
AcDbEntity
  8
VISTA
100
AcDbPolyline
 90
5
 70
1
 10
980.379999
 20
-9.502
 10
980.860001
 20
-9.502
 10
980.859999
 20
-9.494
 10
980.379997
 20
-9.494305
 10
980.379999
 20
-9.502
  0
LWPOLYLINE
  5
73
330
17
100
AcDbEntity
  8
VISTA
100
AcDbPolyline
 90
5
 70
1
 10
980.379999
 20
-9.54
 10
980.860001
 20
-9.54
 10
980.859999
 20
-9.532001
 10
980.379997
 20
-9.532305
 10
980.379999
 20
-9.54
  0
LWPOLYLINE
  5
74
330
17
100
AcDbEntity
  8
VISTA
100
AcDbPolyline
 90
5
 70
1
 10
980.379999
 20
-9.578
 10
980.860001
 20
-9.578
 10
980.859999
 20
-9.570001
 10
980.379997
 20
-9.570305
 10
980.379999
 20
-9.578
  0
LWPOLYLINE
  5
75
330
17
100
AcDbEntity
  8
VISTA
100
AcDbPolyline
 90
5
 70
1
 10
980.379999
 20
-9.616
 10
980.860001
 20
-9.616
 10
980.859999
 20
-9.608001
 10
980.379997
 20
-9.608305
 10
980.379999
 20
-9.616
  0
LWPOLYLINE
  5
76
330
17
100
AcDbEntity
  8
VISTA
100
AcDbPolyline
 90
5
 70
1
 10
980.379999
 20
-9.653999
 10
980.860001
 20
-9.653999
 10
980.859999
 20
-9.646
 10
980.379997
 20
-9.646304
 10
980.379999
 20
-9.653999
  0
LWPOLYLINE
  5
77
330
17
100
AcDbEntity
  8
VISTA
100
AcDbPolyline
 90
5
 70
1
 10
980.379999
 20
-9.691999
 10
980.860001
 20
-9.691999
 10
980.859999
 20
-9.684
 10
980.379997
 20
-9.684304
 10
980.379999
 20
-9.691999
  0
LWPOLYLINE
  5
78
330
17
100
AcDbEntity
  8
VISTA
100
AcDbPolyline
 90
5
 70
1
 10
980.379999
 20
-9.73
 10
980.860001
 20
-9.73
 10
980.859999
 20
-9.722
 10
980.379997
 20
-9.722304
 10
980.379999
 20
-9.73
  0
LWPOLYLINE
  5
79
330
17
100
AcDbEntity
  8
VISTA
100
AcDbPolyline
 90
5
 70
1
 10
980.379999
 20
-9.768
 10
980.860001
 20
-9.768
 10
980.859999
 20
-9.76
 10
980.379997
 20
-9.760304
 10
980.379999
 20
-9.768
  0
LWPOLYLINE
  5
7A
330
17
100
AcDbEntity
  8
VISTA
100
AcDbPolyline
 90
5
 70
1
 10
980.379999
 20
-9.806
 10
980.860001
 20
-9.806
 10
980.859999
 20
-9.798
 10
980.379997
 20
-9.798305
 10
980.379999
 20
-9.806
  0
LWPOLYLINE
  5
7B
330
17
100
AcDbEntity
  8
VISTA
100
AcDbPolyline
 90
8
 70
1
 10
980.349998
 20
-9.818299
 10
980.3517
 20
-9.82
 10
980.428299
 20
-9.82
 10
980.43
 20
-9.818299
 10
980.43
 20
-9.0617
 10
980.428299
 20
-9.059999
 10
980.350716
 20
-9.060313
 10
980.349998
 20
-9.818299
  0
LWPOLYLINE
  5
7C
330
17
100
AcDbEntity
  8
VISTA
100
AcDbPolyline
 90
9
 70
1
 10
978.91
 20
-9.975499
 10
978.914501
 20
-9.98
 10
978.945499
 20
-9.98
 10
978.950001
 20
-9.975499
 10
978.950001
 20
-7.4045
 10
978.945499
 20
-7.4
 10
978.914501
 20
-7.4
 10
978.91
 20
-7.4045
 10
978.91
 20
-9.975499
  0
LINE
  5
7D
330
17
100
AcDbEntity
  8
CORTE
100
AcDbLine
 10
981.799999
 20
-7.202708205607555
 30
0.0
 11
981.799999
 21
-7.202708205607554
 31
0.0
  0
LINE
  5
7E
330
17
100
AcDbEntity
  8
CORTE
100
AcDbLine
 10
981.799999
 20
-7.202708205607554
 30
0.0
 11
981.799999
 21
-5.8
 31
0.0
  0
LINE
  5
7F
330
17
100
AcDbEntity
  8
CORTE
100
AcDbLine
 10
981.799999
 20
-7.202708205607555
 30
0.0
 11
981.799999
 21
-10.15
 31
0.0
  0
LINE
  5
80
330
17
100
AcDbEntity
  8
CORTE
100
AcDbLine
 10
982.0
 20
-5.8
 30
0.0
 11
982.0
 21
-7.202708724674022
 31
0.0
  0
LINE
  5
81
330
17
100
AcDbEntity
  8
CORTE
100
AcDbLine
 10
982.0
 20
-7.202708724674022
 30
0.0
 11
982.0
 21
-7.202708724674023
 31
0.0
  0
LINE
  5
82
330
17
100
AcDbEntity
  8
CORTE
100
AcDbLine
 10
982.0
 20
-10.15
 30
0.0
 11
982.0
 21
-7.202708724674023
 31
0.0
  0
LWPOLYLINE
  5
83
330
17
100
AcDbEntity
  8
VISTA
100
AcDbPolyline
 90
9
 70
1
 10
979.970001
 20
-6.2115
 10
979.970001
 20
-6.207860869565217
 10
979.970001
 20
-6.2025
 10
979.5090448826087
 20
-6.2025
 10
978.830002
 20
-6.2025
 10
978.830002
 20
-6.206139130434782
 10
978.830002
 20
-6.2115
 10
979.2909581173913
 20
-6.2115
 10
979.970001
 20
-6.2115
  0
LWPOLYLINE
  5
84
330
17
100
AcDbEntity
  8
VISTA
100
AcDbPolyline
 90
9
 70
1
 10
979.968292
 20
-6.2375
 10
979.968292
 20
-6.233863459945052
 10
979.968292
 20
-6.2285
 10
979.5090450742009
 20
-6.2285
 10
978.831711
 20
-6.2285
 10
978.831711
 20
-6.232136540054948
 10
978.831711
 20
-6.2375
 10
979.2909579257991
 20
-6.2375
 10
979.968292
 20
-6.2375
  0
LWPOLYLINE
  5
85
330
17
100
AcDbEntity
  8
VISTA
100
AcDbPolyline
 90
44
 70
1
 10
978.7899129380454
 20
-6.158977144851658
 10
978.7897379999999
 20
-6.159184
 10
978.7892981623037
 20
-6.160564303664922
 10
978.789
 20
-6.1615
 10
978.789
 20
-6.231230366492147
 10
978.789
 20
-6.2785
 10
978.7894398376964
 20
-6.279880303664921
 10
978.7897379999999
 20
-6.280816
 10
978.7899960619546
 20
-6.281121740837697
 10
978.790171
 20
-6.281329
 10
978.7904767408377
 20
-6.281587061954625
 10
978.790684
 20
-6.281762
 10
978.7920637076788
 20
-6.282201837696335
 10
978.792999
 20
-6.2825
 10
978.8371031588133
 20
-6.2825
 10
978.867001
 20
-6.2825
 10
978.8683807076789
 20
-6.282060162303664
 10
978.869316
 20
-6.281762
 10
978.8696217408377
 20
-6.281503938045375
 10
978.869829
 20
-6.281329
 10
978.8700039380453
 20
-6.281121740837697
 10
978.870262
 20
-6.280816
 10
978.8705601623037
 20
-6.279880303664921
 10
978.871
 20
-6.2785
 10
978.871
 20
-6.2395
 10
978.828001
 20
-6.2395
 10
978.828001
 20
-6.2005
 10
978.871
 20
-6.2005
 10
978.871
 20
-6.1615
 10
978.8707018376963
 20
-6.160564303664922
 10
978.870262
 20
-6.159184
 10
978.8700870619547
 20
-6.158977144851658
 10
978.869829
 20
-6.158672
 10
978.8696217408377
 20
-6.158497061954625
 10
978.869316
 20
-6.158239
 10
978.8683807076789
 20
-6.1579404336823735
 10
978.867001
 20
-6.1575
 10
978.8371031588133
 20
-6.1575
 10
978.792999
 20
-6.1575
 10
978.7920637076788
 20
-6.157798566317626
 10
978.790684
 20
-6.158239
 10
978.7904767408377
 20
-6.158413938045375
 10
978.790171
 20
-6.158672
 10
978.7899129380454
 20
-6.158977144851658
  0
LWPOLYLINE
  5
86
330
17
100
AcDbEntity
  8
VISTA
100
AcDbPolyline
 90
44
 70
1
 10
979.9299139380454
 20
-6.158977144851658
 10
979.929739
 20
-6.159184
 10
979.9292991623037
 20
-6.160564303664922
 10
979.929001
 20
-6.1615
 10
979.929001
 20
-6.2005
 10
979.972002
 20
-6.2005
 10
979.972002
 20
-6.2395
 10
979.929001
 20
-6.2395
 10
979.929001
 20
-6.2785
 10
979.9294408376963
 20
-6.279880303664921
 10
979.929739
 20
-6.280816
 10
979.9299970619546
 20
-6.281121740837697
 10
979.930172
 20
-6.281329
 10
979.9304777408377
 20
-6.281587061954625
 10
979.930685
 20
-6.281762
 10
979.9320653036649
 20
-6.282201837696335
 10
979.933001
 20
-6.2825
 10
979.9771045628272
 20
-6.2825
 10
980.007002
 20
-6.2825
 10
980.0083817076788
 20
-6.282060162303664
 10
980.009317
 20
-6.281762
 10
980.0096227408377
 20
-6.281503938045375
 10
980.00983
 20
-6.281329
 10
980.0100049380454
 20
-6.281121740837697
 10
980.010263
 20
-6.280816
 10
980.0105615663176
 20
-6.279880303664921
 10
980.011002
 20
-6.2785
 10
980.011002
 20
-6.231230366492147
 10
980.011002
 20
-6.1615
 10
980.0107034336824
 20
-6.160564303664922
 10
980.010263
 20
-6.159184
 10
980.0100880619547
 20
-6.158977144851658
 10
980.00983
 20
-6.158672
 10
980.0096227408377
 20
-6.158497061954625
 10
980.009317
 20
-6.158239
 10
980.0083817076788
 20
-6.1579404336823735
 10
980.007002
 20
-6.1575
 10
979.9771045628272
 20
-6.1575
 10
979.933001
 20
-6.1575
 10
979.9320653036649
 20
-6.157798566317626
 10
979.930685
 20
-6.158239
 10
979.9304777408377
 20
-6.158413938045375
 10
979.930172
 20
-6.158672
 10
979.9299139380454
 20
-6.158977144851658
  0
LWPOLYLINE
  5
87
330
17
100
AcDbEntity
  8
VISTA
100
AcDbPolyline
 90
57
 70
1
 10
980.615
 20
-8.15
 10
980.6148164181818
 20
-8.148371390909091
 10
980.614122
 20
-8.142211
 10
980.6135808727273
 20
-8.140664145454545
 10
980.611534
 20
-8.134813
 10
980.6106623
 20
-8.133425681818181
 10
980.607365
 20
-8.128178
 10
980.6062060090909
 20
-8.127019218181818
 10
980.601822
 20
-8.122636
 10
980.6004344727273
 20
-8.121763881818183
 10
980.595186
 20
-8.118465
 10
980.5936391454545
 20
-8.117923872727273
 10
980.587788
 20
-8.115877
 10
980.5861596
 20
-8.115693627272726
 10
980.58
 20
-8.115
 10
980.5783716
 20
-8.115183372727273
 10
980.572212
 20
-8.115877
 10
980.5706651454545
 20
-8.116418127272727
 10
980.564814
 20
-8.118465
 10
980.5634264727273
 20
-8.119337118181818
 10
980.558178
 20
-8.122636
 10
980.5570190090909
 20
-8.123794781818182
 10
980.552635
 20
-8.128178
 10
980.5517633
 20
-8.129565318181818
 10
980.548466
 20
-8.134813
 10
980.5479246636364
 20
-8.136359854545454
 10
980.545877
 20
-8.142211
 10
980.5456936272727
 20
-8.143839609090909
 10
980.545
 20
-8.15
 10
980.5451833727273
 20
-8.1516284
 10
980.545877
 20
-8.157788
 10
980.5464183363637
 20
-8.159334854545454
 10
980.548466
 20
-8.165186
 10
980.5493377
 20
-8.166573527272728
 10
980.552635
 20
-8.171822
 10
980.5537939909091
 20
-8.172980572727273
 10
980.558178
 20
-8.177363
 10
980.5595655272728
 20
-8.178235118181817
 10
980.564814
 20
-8.181534
 10
980.5663608545455
 20
-8.182075127272727
 10
980.572212
 20
-8.184122
 10
980.5738404
 20
-8.184305372727273
 10
980.58
 20
-8.184999
 10
980.5816284
 20
-8.184815627272727
 10
980.587788
 20
-8.184122
 10
980.5893348545454
 20
-8.183580872727273
 10
980.595186
 20
-8.181534
 10
980.5965735272728
 20
-8.180661881818182
 10
980.601822
 20
-8.177363
 10
980.6029809909091
 20
-8.176204427272728
 10
980.607365
 20
-8.171822
 10
980.6082367
 20
-8.170434472727273
 10
980.611534
 20
-8.165186
 10
980.6120751272728
 20
-8.163639145454546
 10
980.614122
 20
-8.157788
 10
980.6143055818181
 20
-8.1561596
 10
980.615
 20
-8.15
  0
LWPOLYLINE
  5
88
330
17
100
AcDbEntity
  8
CORTE
100
AcDbPolyline
 90
5
 70
1
 10
979.25
 20
-6.1
 10
982.0
 20
-6.1
 10
982.0
 20
-5.9
 10
979.25
 20
-5.9
 10
979.25
 20
-6.1
  0
LWPOLYLINE
  5
89
330
17
100
AcDbEntity
  8
VISTA
100
AcDbPolyline
 90
45
 70
1
 10
981.7370912238555
 20
-6.75
 10
981.7166781542927
 20
-6.608033424398465
 10
981.7120933775864
 20
-6.576145960677839
 10
981.6525129949443
 20
-6.445680633180414
 10
981.6391303528695
 20
-6.416376635427395
 10
981.5452047124801
 20
-6.307981578035765
 10
981.5241079986893
 20
-6.283634794026777
 10
981.4034501449303
 20
-6.206092600692819
 10
981.3763489371781
 20
-6.188675692163655
 10
981.2387330209718
 20
-6.148268120119839
 10
981.207822619324
 20
-6.139192003651344
 10
981.0643947163187
 20
-6.139192003651344
 10
981.032179380676
 20
-6.139192003651344
 10
980.8945634644696
 20
-6.17959957569516
 10
980.8636528755734
 20
-6.188675692163655
 10
980.7429942090628
 20
-6.266217885497612
 10
980.7158931885591
 20
-6.283634794026777
 10
980.6219683609213
 20
-6.392029851418407
 10
980.6008716471304
 20
-6.416376635427395
 10
980.5412912644883
 20
-6.54684196292482
 10
980.5279086224136
 20
-6.576145960677839
 10
980.5074955528509
 20
-6.718112536279374
 10
980.5029107761445
 20
-6.75
 10
980.5233238457073
 20
-6.891966575601535
 10
980.5279086224136
 20
-6.923854039322161
 10
980.5874890050557
 20
-7.054319366819586
 10
980.6008716471304
 20
-7.083623364572605
 10
980.6947964747683
 20
-7.192018421964235
 10
980.7158931885591
 20
-7.216365205973223
 10
980.8365518550697
 20
-7.293907399307181
 10
980.8636528755734
 20
-7.311324307836345
 10
981.0012687917798
 20
-7.351731879880161
 10
981.032179380676
 20
-7.360807996348656
 10
981.1756072836813
 20
-7.360807996348656
 10
981.207822619324
 20
-7.360807996348656
 10
981.3454385355304
 20
-7.32040042430484
 10
981.3763489371781
 20
-7.311324307836345
 10
981.4970067909371
 20
-7.233782114502388
 10
981.5241079986893
 20
-7.216365205973223
 10
981.6180336390787
 20
-7.107970148581593
 10
981.6391303528695
 20
-7.083623364572605
 10
981.6987107355117
 20
-6.95315803707518
 10
981.7120933775864
 20
-6.923854039322161
 10
981.7325064471491
 20
-6.781887463720626
 10
981.7370912238555
 20
-6.75
  0
LWPOLYLINE
  5
8A
330
17
100
AcDbEntity
  8
VISTA
100
AcDbPolyline
 90
41
 70
1
 10
980.4404151253902
 20
-6.440595657648283
 10
980.440313
 20
-6.440716
 10
980.4401723371489
 20
-6.441156803329865
 10
980.439999
 20
-6.4417
 10
980.439999
 20
-6.717918834547347
 10
980.439999
 20
-7.0583
 10
980.4401396628512
 20
-7.058740803329865
 10
980.440313
 20
-7.059284
 10
980.4403958746097
 20
-7.059381657648283
 10
980.440498
 20
-7.059502
 10
980.4405956576483
 20
-7.059584426638918
 10
980.440716
 20
-7.059686
 10
980.4411568033298
 20
-7.059826662851196
 10
980.4417
 20
-7.06
 10
980.4760141201873
 20
-7.06
 10
980.518299
 20
-7.06
 10
980.5187398033298
 20
-7.059859337148803
 10
980.519283
 20
-7.059686
 10
980.5193806576483
 20
-7.059603573361082
 10
980.519501
 20
-7.059502
 10
980.5196031253902
 20
-7.059381657648283
 10
980.519686
 20
-7.059284
 10
980.5198593371488
 20
-7.058740803329865
 10
980.52
 20
-7.0583
 10
980.52
 20
-6.717918834547347
 10
980.52
 20
-6.4417
 10
980.5198266628512
 20
-6.441156803329865
 10
980.519686
 20
-6.440716
 10
980.5195838746098
 20
-6.440595657648283
 10
980.519501
 20
-6.440498
 10
980.5193806576483
 20
-6.440396426638918
 10
980.519283
 20
-6.440314
 10
980.5187398033298
 20
-6.440140662851197
 10
980.518299
 20
-6.44
 10
980.4760141201873
 20
-6.44
 10
980.4417
 20
-6.44
 10
980.4411568033298
 20
-6.440173337148804
 10
980.440716
 20
-6.440314
 10
980.4405956576483
 20
-6.440415573361082
 10
980.440498
 20
-6.440498
 10
980.4404151253902
 20
-6.440595657648283
  0
LWPOLYLINE
  5
8B
330
17
100
AcDbEntity
  8
VISTA
100
AcDbPolyline
 90
41
 70
1
 10
980.4403485083043
 20
-9.010673157781945
 10
980.440313
 20
-9.010715
 10
980.440059268149
 20
-9.01151094227163
 10
980.439999
 20
-9.0117
 10
980.439999
 20
-9.703886146129118
 10
980.439999
 20
-9.868299
 10
980.440252731851
 20
-9.869094942271632
 10
980.440313
 20
-9.869284
 10
980.4404624916957
 20
-9.869460157781946
 10
980.440498
 20
-9.869502
 10
980.4406741577819
 20
-9.869650683632466
 10
980.440716
 20
-9.869686
 10
980.4415111342084
 20
-9.869939731851057
 10
980.4417
 20
-9.87
 10
980.5035968345834
 20
-9.87
 10
980.518299
 20
-9.87
 10
980.5190941342084
 20
-9.869746268148942
 10
980.519283
 20
-9.869686
 10
980.519459157782
 20
-9.869537316367534
 10
980.519501
 20
-9.869502
 10
980.5195365083043
 20
-9.869460157781946
 10
980.519686
 20
-9.869284
 10
980.519746268149
 20
-9.869094942271632
 10
980.52
 20
-9.868299
 10
980.52
 20
-9.703886146129118
 10
980.52
 20
-9.0117
 10
980.5199397318511
 20
-9.01151094227163
 10
980.519686
 20
-9.010715
 10
980.5196504916956
 20
-9.010673157781945
 10
980.519501
 20
-9.010497
 10
980.519459157782
 20
-9.010461683632467
 10
980.519283
 20
-9.010313
 10
980.5190941342084
 20
-9.010252731851057
 10
980.518299
 20
-9.009999
 10
980.5035968345834
 20
-9.009999
 10
980.4417
 20
-9.009999
 10
980.4415111342084
 20
-9.010059268148943
 10
980.440716
 20
-9.010313
 10
980.4406741577819
 20
-9.010348316367534
 10
980.440498
 20
-9.010497
 10
980.4403485083043
 20
-9.010673157781945
  0
LWPOLYLINE
  5
8C
330
17
100
AcDbEntity
  8
CORTE
100
AcDbPolyline
 90
22
 70
1
 10
980.5010562427634
 20
-10.001628769394056
 10
980.500832
 20
-10.001895
 10
980.500383888846
 20
-10.003298040331918
 10
980.5
 20
-10.0045
 10
980.5
 20
-10.15
 10
980.700001
 20
-10.15
 10
980.700001
 20
-10.0045
 10
980.699617111154
 20
-10.003298040331918
 10
980.699169
 20
-10.001895
 10
980.6989447572366
 20
-10.001628769394056
 10
980.698683
 20
-10.001318
 10
980.6984163079892
 20
-10.001093295831724
 10
980.698105
 20
-10.000831
 10
980.6969035017368
 20
-10.000447572558857
 10
980.695501
 20
-10.0
 10
980.6073717483597
 20
-10.0
 10
980.504499
 20
-10.0
 10
980.5032979631417
 20
-10.000383427441143
 10
980.501896
 20
-10.000831
 10
980.5016293079892
 20
-10.001055704168275
 10
980.501318
 20
-10.001318
 10
980.5010562427634
 20
-10.001628769394056
  0
LINE
  5
8D
330
17
100
AcDbEntity
  8
VISTA
100
AcDbLine
 10
980.3667961626592
 20
-6.4504492906930695
 30
0.0
 11
980.3676379999999
 21
-6.447836158140911
 31
0.0
  0
LINE
  5
8E
330
17
100
AcDbEntity
  8
VISTA
100
AcDbLine
 10
980.3667961626592
 20
-6.4504492906930695
 30
0.0
 11
980.366663
 21
-6.450862963543592
 31
0.0
  0
LINE
  5
8F
330
17
100
AcDbEntity
  8
VISTA
100
AcDbLine
 10
980.365081810123
 20
-6.46386943272314
 30
0.0
 11
980.366663
 21
-6.450862963543592
 31
0.0
  0
LINE
  5
90
330
17
100
AcDbEntity
  8
VISTA
100
AcDbLine
 10
980.365081810123
 20
-6.46386943272314
 30
0.0
 11
980.365
 21
-6.464542273391137
 31
0.0
  0
LINE
  5
91
330
17
100
AcDbEntity
  8
VISTA
100
AcDbLine
 10
980.3676379999999
 20
-6.478307715355805
 30
0.0
 11
980.3666917838055
 21
-6.477097263768271
 31
0.0
  0
LINE
  5
92
330
17
100
AcDbEntity
  8
VISTA
100
AcDbLine
 10
980.366663
 20
-6.477060424639152
 30
0.0
 11
980.3650272739156
 21
-6.4715170714271215
 31
0.0
  0
LINE
  5
93
330
17
100
AcDbEntity
  8
VISTA
100
AcDbLine
 10
980.3650272739156
 20
-6.4715170714271215
 30
0.0
 11
980.365
 21
-6.471424658352583
 31
0.0
  0
LINE
  5
94
330
17
100
AcDbEntity
  8
VISTA
100
AcDbLine
 10
980.365
 20
-6.471424658352583
 30
0.0
 11
980.365
 21
-6.464542273391137
 31
0.0
  0
LINE
  5
95
330
17
100
AcDbEntity
  8
VISTA
100
AcDbLine
 10
980.442364
 20
-6.447836158140911
 30
0.0
 11
980.443204973918
 21
-6.4504492906930695
 31
0.0
  0
LINE
  5
96
330
17
100
AcDbEntity
  8
VISTA
100
AcDbLine
 10
980.443338
 20
-6.450862963543592
 30
0.0
 11
980.443204973918
 21
-6.4504492906930695
 31
0.0
  0
LINE
  5
97
330
17
100
AcDbEntity
  8
VISTA
100
AcDbLine
 10
980.443338
 20
-6.450862963543592
 30
0.0
 11
980.4449201406827
 21
-6.46386943272314
 31
0.0
  0
LINE
  5
98
330
17
100
AcDbEntity
  8
VISTA
100
AcDbLine
 10
980.445002
 20
-6.464542273391137
 30
0.0
 11
980.4449201406827
 21
-6.46386943272314
 31
0.0
  0
LINE
  5
99
330
17
100
AcDbEntity
  8
VISTA
100
AcDbLine
 10
980.4433092457164
 20
-6.477097263768271
 30
0.0
 11
980.442364
 21
-6.478307715355805
 31
0.0
  0
LINE
  5
9A
330
17
100
AcDbEntity
  8
VISTA
100
AcDbLine
 10
980.444974709684
 20
-6.4715170714271215
 30
0.0
 11
980.443338
 21
-6.477060424639152
 31
0.0
  0
LINE
  5
9B
330
17
100
AcDbEntity
  8
VISTA
100
AcDbLine
 10
980.445002
 20
-6.471424658352583
 30
0.0
 11
980.444974709684
 21
-6.4715170714271215
 31
0.0
  0
LINE
  5
9C
330
17
100
AcDbEntity
  8
VISTA
100
AcDbLine
 10
980.445002
 20
-6.464542273391137
 30
0.0
 11
980.445002
 21
-6.471424658352583
 31
0.0
  0
LINE
  5
9D
330
17
100
AcDbEntity
  8
VISTA
100
AcDbLine
 10
980.3687499525832
 20
-6.479324926530721
 30
0.0
 11
980.3676379999999
 21
-6.478307715355805
 31
0.0
  0
LINE
  5
9E
330
17
100
AcDbEntity
  8
VISTA
100
AcDbLine
 10
980.3687499525832
 20
-6.479324926530721
 30
0.0
 11
980.36879
 21
-6.4793615761553145
 31
0.0
  0
LINE
  5
9F
330
17
100
AcDbEntity
  8
VISTA
100
AcDbLine
 10
980.3737982331753
 20
-6.481089410121062
 30
0.0
 11
980.36879
 21
-6.4793615761553145
 31
0.0
  0
LINE
  5
A0
330
17
100
AcDbEntity
  8
VISTA
100
AcDbLine
 10
980.3737982331753
 20
-6.481089410121062
 30
0.0
 11
980.374001
 21
-6.48115936441323
 31
0.0
  0
LINE
  5
A1
330
17
100
AcDbEntity
  8
VISTA
100
AcDbLine
 10
980.4335783036198
 20
-6.48115936441323
 30
0.0
 11
980.374001
 21
-6.48115936441323
 31
0.0
  0
LINE
  5
A2
330
17
100
AcDbEntity
  8
VISTA
100
AcDbLine
 10
980.4335783036198
 20
-6.48115936441323
 30
0.0
 11
980.436001
 21
-6.48115936441323
 31
0.0
  0
LINE
  5
A3
330
17
100
AcDbEntity
  8
VISTA
100
AcDbLine
 10
980.4410296274027
 20
-6.479424494465414
 30
0.0
 11
980.436001
 21
-6.48115936441323
 31
0.0
  0
LINE
  5
A4
330
17
100
AcDbEntity
  8
VISTA
100
AcDbLine
 10
980.4410296274027
 20
-6.479424494465414
 30
0.0
 11
980.441212
 21
-6.4793615761553145
 31
0.0
  0
LINE
  5
A5
330
17
100
AcDbEntity
  8
VISTA
100
AcDbLine
 10
980.4423266138741
 20
-6.478341929451528
 30
0.0
 11
980.441212
 21
-6.4793615761553145
 31
0.0
  0
LINE
  5
A6
330
17
100
AcDbEntity
  8
VISTA
100
AcDbLine
 10
980.4423266138741
 20
-6.478341929451528
 30
0.0
 11
980.442364
 21
-6.478307715355805
 31
0.0
  0
LINE
  5
A7
330
17
100
AcDbEntity
  8
VISTA
100
AcDbLine
 10
980.3676379999999
 20
-6.447836158140911
 30
0.0
 11
980.3685970852488
 21
-6.445706539951265
 31
0.0
  0
LINE
  5
A8
330
17
100
AcDbEntity
  8
VISTA
100
AcDbLine
 10
980.3685970852488
 20
-6.445706539951265
 30
0.0
 11
980.36879
 21
-6.44527817890222
 31
0.0
  0
LINE
  5
A9
330
17
100
AcDbEntity
  8
VISTA
100
AcDbLine
 10
980.36879
 20
-6.44527817890222
 30
0.0
 11
980.3729943593514
 21
-6.441757417811175
 31
0.0
  0
LINE
  5
AA
330
17
100
AcDbEntity
  8
VISTA
100
AcDbLine
 10
980.3729943593514
 20
-6.441757417811175
 30
0.0
 11
980.374001
 21
-6.44091444961269
 31
0.0
  0
LINE
  5
AB
330
17
100
AcDbEntity
  8
VISTA
100
AcDbLine
 10
980.374001
 20
-6.44091444961269
 30
0.0
 11
980.4236837568357
 21
-6.44091444961269
 31
0.0
  0
LINE
  5
AC
330
17
100
AcDbEntity
  8
VISTA
100
AcDbLine
 10
980.4236837568357
 20
-6.44091444961269
 30
0.0
 11
980.436001
 21
-6.44091444961269
 31
0.0
  0
LINE
  5
AD
330
17
100
AcDbEntity
  8
VISTA
100
AcDbLine
 10
980.436001
 20
-6.44091444961269
 30
0.0
 11
980.4402988801804
 21
-6.444513525725919
 31
0.0
  0
LINE
  5
AE
330
17
100
AcDbEntity
  8
VISTA
100
AcDbLine
 10
980.4402988801804
 20
-6.444513525725919
 30
0.0
 11
980.441212
 21
-6.44527817890222
 31
0.0
  0
LINE
  5
AF
330
17
100
AcDbEntity
  8
VISTA
100
AcDbLine
 10
980.441212
 20
-6.44527817890222
 30
0.0
 11
980.442184063621
 21
-6.447436615153225
 31
0.0
  0
LINE
  5
B0
330
17
100
AcDbEntity
  8
VISTA
100
AcDbLine
 10
980.442184063621
 20
-6.447436615153225
 30
0.0
 11
980.442364
 21
-6.447836158140911
 31
0.0
  0
LWPOLYLINE
  5
B1
330
17
100
AcDbEntity
  8
VISTA
100
AcDbPolyline
 90
41
 70
1
 10
980.3676065289164
 20
-7.021732563158175
 10
980.366663
 20
-7.022939575360848
 10
980.3666146892753
 20
-7.023103267738896
 10
980.365
 20
-7.028575341647417
 10
980.365
 20
-7.030401320472638
 10
980.365
 20
-7.035457726608863
 10
980.3664585584715
 20
-7.047455650392979
 10
980.366663
 20
-7.049137036456408
 10
980.3674911436963
 20
-7.051707622176293
 10
980.3676379999999
 20
-7.052163841859089
 10
980.3685970852488
 20
-7.054293460048735
 10
980.36879
 20
-7.05472182109778
 10
980.3729943593514
 20
-7.058242582188825
 10
980.374001
 20
-7.05908555038731
 10
980.4236837568357
 20
-7.05908555038731
 10
980.436001
 20
-7.05908555038731
 10
980.4402988801804
 20
-7.055486474274081
 10
980.441212
 20
-7.05472182109778
 10
980.442184063621
 20
-7.052563384846775
 10
980.442364
 20
-7.052163841859089
 10
980.4425107056819
 20
-7.051707622176293
 10
980.443338
 20
-7.049137036456408
 10
980.4435425644639
 20
-7.047455650392979
 10
980.445002
 20
-7.035457726608863
 10
980.445002
 20
-7.030401320472638
 10
980.445002
 20
-7.028575341647417
 10
980.4433863397751
 20
-7.023103267738896
 10
980.443338
 20
-7.022939575360848
 10
980.4423954388055
 20
-7.021732563158175
 10
980.442364
 20
-7.021692284644195
 10
980.4412520474167
 20
-7.020675073469279
 10
980.441212
 20
-7.0206384238446855
 10
980.4362037668246
 20
-7.018910589878938
 10
980.436001
 20
-7.01884063558677
 10
980.3764236963801
 20
-7.01884063558677
 10
980.374001
 20
-7.01884063558677
 10
980.3689723725972
 20
-7.020575505534586
 10
980.36879
 20
-7.0206384238446855
 10
980.3676753861259
 20
-7.021658070548472
 10
980.3676379999999
 20
-7.021692284644195
 10
980.3676065289164
 20
-7.021732563158175
  0
LWPOLYLINE
  5
B2
330
17
100
AcDbEntity
  8
VISTA
100
AcDbPolyline
 90
24
 70
1
 10
980.5010562427634
 20
-10.031629769394057
 10
980.500832
 20
-10.031896
 10
980.500383888846
 20
-10.03329850173678
 10
980.5
 20
-10.0345
 10
980.5
 20
-10.105056501543805
 10
980.5
 20
-10.15
 10
982.0
 20
-10.15
 10
982.0
 20
-10.105056501543805
 10
982.0
 20
-10.0345
 10
981.999616111154
 20
-10.03329850173678
 10
981.999168
 20
-10.031896
 10
981.9989437572366
 20
-10.031629769394057
 10
981.998682
 20
-10.031319
 10
981.998416230799
 20
-10.031093834426862
 10
981.998106
 20
-10.030831
 10
981.996904040332
 20
-10.03044803396372
 10
981.995501
 20
-10.030001
 10
981.3075454264763
 20
-10.030001
 10
980.504499
 20
-10.030001
 10
980.503297040332
 20
-10.030383966036279
 10
980.501894
 20
-10.030831
 10
980.5016282307989
 20
-10.031056165573137
 10
980.501318
 20
-10.031319
 10
980.5010562427634
 20
-10.031629769394057
  0
LWPOLYLINE
  5
B3
330
17
100
AcDbEntity
  8
VISTA
100
AcDbPolyline
 90
13
 70
1
 10
978.642002
 20
-8.260002
 10
978.6380637861987
 20
-8.253249276068788
 10
978.636002
 20
-8.249677918741522
 10
978.6281255723975
 20
-8.249677918741522
 10
978.624002
 20
-8.249677918741522
 10
978.6200889565217
 20
-8.256387043478261
 10
978.618002
 20
-8.260002
 10
978.6218901928544
 20
-8.266667658616669
 10
978.624002
 20
-8.27032495662505
 10
978.6317783857087
 20
-8.27032495662505
 10
978.636002
 20
-8.27032495662505
 10
978.6399150434783
 20
-8.263616260869565
 10
978.642002
 20
-8.260002
  0
LWPOLYLINE
  5
B4
330
17
100
AcDbEntity
  8
VISTA
100
AcDbPolyline
 90
5
 70
1
 10
978.830002
 20
-6.2005
 10
978.830002
 20
-6.2025
 10
978.842001
 20
-6.2025
 10
978.842001
 20
-6.2005
 10
978.830002
 20
-6.2005
  0
LWPOLYLINE
  5
B5
330
17
100
AcDbEntity
  8
VISTA
100
AcDbPolyline
 90
5
 70
1
 10
979.958002
 20
-6.2005
 10
979.958002
 20
-6.2025
 10
979.970001
 20
-6.2025
 10
979.970001
 20
-6.2005
 10
979.958002
 20
-6.2005
  0
LWPOLYLINE
  5
B6
330
17
100
AcDbEntity
  8
VISTA
100
AcDbPolyline
 90
5
 70
1
 10
978.830002
 20
-6.2115
 10
978.830002
 20
-6.2135
 10
978.842001
 20
-6.2135
 10
978.842001
 20
-6.2115
 10
978.830002
 20
-6.2115
  0
LWPOLYLINE
  5
B7
330
17
100
AcDbEntity
  8
VISTA
100
AcDbPolyline
 90
5
 70
1
 10
979.958002
 20
-6.2115
 10
979.958002
 20
-6.2135
 10
979.970001
 20
-6.2135
 10
979.970001
 20
-6.2115
 10
979.958002
 20
-6.2115
  0
LWPOLYLINE
  5
B8
330
17
100
AcDbEntity
  8
VISTA
100
AcDbPolyline
 90
5
 70
1
 10
978.831711
 20
-6.226501
 10
978.831711
 20
-6.2285
 10
978.84371
 20
-6.2285
 10
978.84371
 20
-6.226501
 10
978.831711
 20
-6.226501
  0
LWPOLYLINE
  5
B9
330
17
100
AcDbEntity
  8
VISTA
100
AcDbPolyline
 90
5
 70
1
 10
979.956293
 20
-6.226501
 10
979.956293
 20
-6.2285
 10
979.968292
 20
-6.2285
 10
979.968292
 20
-6.226501
 10
979.956293
 20
-6.226501
  0
LWPOLYLINE
  5
BA
330
17
100
AcDbEntity
  8
VISTA
100
AcDbPolyline
 90
5
 70
1
 10
978.831711
 20
-6.2375
 10
978.831711
 20
-6.2395
 10
978.84371
 20
-6.2395
 10
978.84371
 20
-6.2375
 10
978.831711
 20
-6.2375
  0
LWPOLYLINE
  5
BB
330
17
100
AcDbEntity
  8
VISTA
100
AcDbPolyline
 90
5
 70
1
 10
979.956293
 20
-6.2375
 10
979.956293
 20
-6.2395
 10
979.968292
 20
-6.2395
 10
979.968292
 20
-6.2375
 10
979.956293
 20
-6.2375
  0
LWPOLYLINE
  5
BC
330
17
100
AcDbEntity
  8
VISTA
100
AcDbPolyline
 90
5
 70
1
 10
978.831711
 20
-6.2135
 10
978.831711
 20
-6.226501
 10
978.837711
 20
-6.226501
 10
978.837711
 20
-6.2135
 10
978.831711
 20
-6.2135
  0
LWPOLYLINE
  5
BD
330
17
100
AcDbEntity
  8
VISTA
100
AcDbPolyline
 90
5
 70
1
 10
979.962292
 20
-6.2135
 10
979.962292
 20
-6.226501
 10
979.968292
 20
-6.226501
 10
979.968292
 20
-6.2135
 10
979.962292
 20
-6.2135
  0
DIMENSION
  5
BE
330
17
100
AcDbEntity
  8
COTAS
100
AcDbDimension
280
0
  2
*D1
  3
Standard
 10
982.25
 20
-6.15
 30
0.0
 11
982.25
 21
-6.75
 31
0.0
 70
32
 71
5
  1
<>
100
AcDbAlignedDimension
 13
981.8
 23
-6.15
 33
0.0
 14
981.8
 24
-7.35
 34
0.0
 50
90.0
100
AcDbRotatedDimension
1001
ACAD
1000
DSTYLE
1002
{
1070
140
1040
0.13
1070
41
1040
0.09
1002
}
  0
DIMENSION
  5
D2
330
17
100
AcDbEntity
  8
COTAS
100
AcDbDimension
280
0
  2
*D2
  3
Standard
 10
982.25
 20
-7.5
 30
0.0
 11
982.25
 21
-8.15
 31
0.0
 70
32
 71
5
  1
<>
100
AcDbAlignedDimension
 13
981.8
 23
-7.5
 33
0.0
 14
981.8
 24
-8.8
 34
0.0
 50
90.0
100
AcDbRotatedDimension
1001
ACAD
1000
DSTYLE
1002
{
1070
140
1040
0.13
1070
41
1040
0.09
1002
}
  0
DIMENSION
  5
E2
330
17
100
AcDbEntity
  8
COTAS
100
AcDbDimension
280
0
  2
*D3
  3
Standard
 10
982.25
 20
-8.89
 30
0.0
 11
982.25
 21
-9.440000000000001
 31
0.0
 70
32
 71
5
  1
<>
100
AcDbAlignedDimension
 13
981.8
 23
-8.89
 33
0.0
 14
981.8
 24
-9.99
 34
0.0
 50
90.0
100
AcDbRotatedDimension
1001
ACAD
1000
DSTYLE
1002
{
1070
140
1040
0.13
1070
41
1040
0.09
1002
}
  0
TEXT
  5
F2
330
17
100
AcDbEntity
  8
TEXTOS
100
AcDbText
 10
979.3
 20
-6.4
 30
0.0
 40
0.06999999999999999
  1
HORNO
100
AcDbText
  0
TEXT
  5
F3
330
17
100
AcDbEntity
  8
TEXTOS
100
AcDbText
 10
979.3
 20
-8.4
 30
0.0
 40
0.06999999999999999
  1
BACHA
100
AcDbText
  0
TEXT
  5
F4
330
17
100
AcDbEntity
  8
TEXTOS
100
AcDbText
 10
979.3
 20
-9.45
 30
0.0
 40
0.06999999999999999
  1
PARRILLA
100
AcDbText
  0
LWPOLYLINE
  5
F5
330
17
100
AcDbEntity
  8
VISTA
100
AcDbPolyline
 90
5
 70
1
 10
1014.0
 20
-6.1
 10
1018.1
 20
-6.1
 10
1018.1
 20
-6.0
 10
1014.0
 20
-6.0
 10
1014.0
 20
-6.1
  0
LWPOLYLINE
  5
F6
330
17
100
AcDbEntity
  8
VISTA
100
AcDbPolyline
 90
5
 70
1
 10
1014.2
 20
-5.9
 10
1018.1
 20
-5.9
 10
1018.1
 20
-2.95
 10
1014.2
 20
-2.95
 10
1014.2
 20
-5.9
  0
LWPOLYLINE
  5
F7
330
17
100
AcDbEntity
  8
VISTA
100
AcDbPolyline
 90
5
 70
1
 10
1014.2
 20
-5.9
 10
1018.1
 20
-5.9
 10
1018.1
 20
-2.95
 10
1014.2
 20
-2.95
 10
1014.2
 20
-5.9
  0
LWPOLYLINE
  5
F8
330
17
100
AcDbEntity
  8
VISTA
100
AcDbPolyline
 90
13
 70
1
 10
1016.7731
 20
-5.982
 10
1016.774857
 20
-5.986242
 10
1016.779099
 20
-5.988
 10
1017.9809
 20
-5.988
 10
1017.985142
 20
-5.986242
 10
1017.986898
 20
-5.982
 10
1017.986898
 20
-5.814
 10
1017.985142
 20
-5.809757
 10
1017.9809
 20
-5.808
 10
1016.779099
 20
-5.808
 10
1016.774857
 20
-5.809757
 10
1016.7731
 20
-5.814
 10
1016.7731
 20
-5.982
  0
LWPOLYLINE
  5
F9
330
17
100
AcDbEntity
  8
VISTA
100
AcDbPolyline
 90
9
 70
1
 10
1018.013102
 20
-5.982
 10
1018.014858
 20
-5.986242
 10
1018.0191
 20
-5.988
 10
1018.1
 20
-5.988
 10
1018.1
 20
-5.808
 10
1018.0191
 20
-5.808
 10
1018.014858
 20
-5.809757
 10
1018.013102
 20
-5.814
 10
1018.013102
 20
-5.982
  0
LWPOLYLINE
  5
FA
330
17
100
AcDbEntity
  8
VISTA
100
AcDbPolyline
 90
5
 70
1
 10
1015.854501
 20
-5.122
 10
1016.526001
 20
-5.1215
 10
1016.525501
 20
-5.115
 10
1015.854501
 20
-5.115147
 10
1015.854501
 20
-5.122
  0
LWPOLYLINE
  5
FB
330
17
100
AcDbEntity
  8
VISTA
100
AcDbPolyline
 90
8
 70
1
 10
1014.758
 20
-5.74
 10
1014.76
 20
-5.738
 10
1014.76
 20
-3.282
 10
1014.758
 20
-3.28
 10
1014.262
 20
-3.28
 10
1014.26
 20
-3.282
 10
1014.260586
 20
-5.739415
 10
1014.758
 20
-5.74
  0
LWPOLYLINE
  5
FC
330
17
100
AcDbEntity
  8
VISTA
100
AcDbPolyline
 90
5
 70
1
 10
1015.699414
 20
-5.749414
 10
1015.699414
 20
-5.300586
 10
1014.900586
 20
-5.300586
 10
1014.900586
 20
-5.749414
 10
1015.699414
 20
-5.749414
  0
LWPOLYLINE
  5
FD
330
17
100
AcDbEntity
  8
VISTA
100
AcDbPolyline
 90
8
 70
1
 10
1017.577999
 20
-3.9
 10
1017.58
 20
-3.898
 10
1017.58
 20
-3.632
 10
1017.577999
 20
-3.63
 10
1016.062
 20
-3.63
 10
1016.059999
 20
-3.632
 10
1016.060585
 20
-3.899414
 10
1017.577999
 20
-3.9
  0
LWPOLYLINE
  5
FE
330
17
100
AcDbEntity
  8
VISTA
100
AcDbPolyline
 90
5
 70
1
 10
1016.186499
 20
-3.22
 10
1016.455
 20
-3.2185
 10
1016.453501
 20
-3.185
 10
1016.185114
 20
-3.1865
 10
1016.186499
 20
-3.22
  0
LWPOLYLINE
  5
FF
330
17
100
AcDbEntity
  8
VISTA
100
AcDbPolyline
 90
5
 70
1
 10
1016.15
 20
-3.1835
 10
1016.1835
 20
-3.185
 10
1016.1848119739292
 20
-2.95
 10
1016.1500996966292
 20
-2.95
 10
1016.15
 20
-3.1835
  0
LWPOLYLINE
  5
100
330
17
100
AcDbEntity
  8
VISTA
100
AcDbPolyline
 90
5
 70
1
 10
1016.455
 20
-3.1835
 10
1016.488501
 20
-3.185
 10
1016.4898129739292
 20
-2.95
 10
1016.4550996966292
 20
-2.95
 10
1016.455
 20
-3.1835
  0
LWPOLYLINE
  5
101
330
17
100
AcDbEntity
  8
VISTA
100
AcDbPolyline
 90
5
 70
1
 10
1017.246498
 20
-3.22
 10
1017.514999
 20
-3.2185
 10
1017.5135
 20
-3.185
 10
1017.245113
 20
-3.1865
 10
1017.246498
 20
-3.22
  0
LWPOLYLINE
  5
102
330
17
100
AcDbEntity
  8
VISTA
100
AcDbPolyline
 90
5
 70
1
 10
1017.209999
 20
-3.1835
 10
1017.2435
 20
-3.185
 10
1017.2448119739292
 20
-2.95
 10
1017.2100995711611
 20
-2.95
 10
1017.209999
 20
-3.1835
  0
LWPOLYLINE
  5
103
330
17
100
AcDbEntity
  8
VISTA
100
AcDbPolyline
 90
5
 70
1
 10
1017.514999
 20
-3.1835
 10
1017.5485
 20
-3.185
 10
1017.5498119739292
 20
-2.95
 10
1017.515099571161
 20
-2.95
 10
1017.514999
 20
-3.1835
  0
LWPOLYLINE
  5
104
330
17
100
AcDbEntity
  8
VISTA
100
AcDbPolyline
 90
8
 70
1
 10
1016.522001
 20
-5.12
 10
1016.525
 20
-5.117
 10
1016.525
 20
-5.101
 10
1016.522001
 20
-5.098
 10
1015.858001
 20
-5.098
 10
1015.855
 20
-5.101
 10
1015.855879
 20
-5.119122
 10
1016.522001
 20
-5.12
  0
LWPOLYLINE
  5
105
330
17
100
AcDbEntity
  8
VISTA
100
AcDbPolyline
 90
5
 70
1
 10
1015.854501
 20
-5.122
 10
1016.526001
 20
-5.1215
 10
1016.525501
 20
-5.115
 10
1015.854501
 20
-5.115147
 10
1015.854501
 20
-5.122
  0
LWPOLYLINE
  5
106
330
17
100
AcDbEntity
  8
VISTA
100
AcDbPolyline
 90
5
 70
1
 10
1016.185999
 20
-3.2115
 10
1016.455
 20
-3.2105
 10
1016.454
 20
-3.1935
 10
1016.185343
 20
-3.194127
 10
1016.185999
 20
-3.2115
  0
LWPOLYLINE
  5
107
330
17
100
AcDbEntity
  8
VISTA
100
AcDbPolyline
 90
5
 70
1
 10
1016.158499
 20
-3.184
 10
1016.175499
 20
-3.185
 10
1016.176373479554
 20
-2.95
 10
1016.1587998126749
 20
-2.95
 10
1016.158499
 20
-3.184
  0
LWPOLYLINE
  5
108
330
17
100
AcDbEntity
  8
VISTA
100
AcDbPolyline
 90
5
 70
1
 10
1016.463499
 20
-3.184
 10
1016.480499
 20
-3.185
 10
1016.4813743531598
 20
-2.95
 10
1016.4637998126749
 20
-2.95
 10
1016.463499
 20
-3.184
  0
LWPOLYLINE
  5
109
330
17
100
AcDbEntity
  8
VISTA
100
AcDbPolyline
 90
5
 70
1
 10
1017.245998
 20
-3.2115
 10
1017.514999
 20
-3.2105
 10
1017.514
 20
-3.1935
 10
1017.245342
 20
-3.194127
 10
1017.245998
 20
-3.2115
  0
LWPOLYLINE
  5
10A
330
17
100
AcDbEntity
  8
VISTA
100
AcDbPolyline
 90
5
 70
1
 10
1017.218498
 20
-3.184
 10
1017.235498
 20
-3.185
 10
1017.2363733531598
 20
-2.95
 10
1017.2187988126749
 20
-2.95
 10
1017.218498
 20
-3.184
  0
LWPOLYLINE
  5
10B
330
17
100
AcDbEntity
  8
VISTA
100
AcDbPolyline
 90
5
 70
1
 10
1017.523499
 20
-3.184
 10
1017.540499
 20
-3.185
 10
1017.541373479554
 20
-2.95
 10
1017.523799812675
 20
-2.95
 10
1017.523499
 20
-3.184
  0
LWPOLYLINE
  5
10C
330
17
100
AcDbEntity
  8
VISTA
100
AcDbPolyline
 90
9
 70
1
 10
1016.136
 20
-3.24
 10
1016.504
 20
-3.24
 10
1016.508244
 20
-3.238242
 10
1016.51
 20
-3.234
 10
1016.51
 20
-2.95
 10
1016.129999
 20
-2.95
 10
1016.129999
 20
-3.234
 10
1016.131756
 20
-3.238242
 10
1016.136
 20
-3.24
  0
LWPOLYLINE
  5
10D
330
17
100
AcDbEntity
  8
VISTA
100
AcDbPolyline
 90
9
 70
1
 10
1017.195999
 20
-3.24
 10
1017.563999
 20
-3.24
 10
1017.568243
 20
-3.238242
 10
1017.57
 20
-3.234
 10
1017.57
 20
-2.95
 10
1017.189999
 20
-2.95
 10
1017.189999
 20
-3.234
 10
1017.1917550000001
 20
-3.238242
 10
1017.195999
 20
-3.24
  0
LWPOLYLINE
  5
10E
330
17
100
AcDbEntity
  8
VISTA
100
AcDbPolyline
 90
5
 70
1
 10
1015.196
 20
-5.211
 10
1015.196
 20
-5.203
 10
1014.976
 20
-5.203
 10
1014.976
 20
-5.210464
 10
1015.196
 20
-5.211
  0
LWPOLYLINE
  5
10F
330
17
100
AcDbEntity
  8
VISTA
100
AcDbPolyline
 90
5
 70
1
 10
1015.644
 20
-5.211
 10
1015.644
 20
-5.203
 10
1015.424
 20
-5.203
 10
1015.424
 20
-5.210464
 10
1015.644
 20
-5.211
  0
LWPOLYLINE
  5
110
330
17
100
AcDbEntity
  8
VISTA
100
AcDbPolyline
 90
5
 70
1
 10
1016.306499
 20
-3.988
 10
1016.306499
 20
-3.98
 10
1016.106501
 20
-3.98
 10
1016.106501
 20
-3.987464
 10
1016.306499
 20
-3.988
  0
LWPOLYLINE
  5
111
330
17
100
AcDbEntity
  8
VISTA
100
AcDbPolyline
 90
5
 70
1
 10
1016.713499
 20
-3.988
 10
1016.713499
 20
-3.98
 10
1016.5135
 20
-3.98
 10
1016.5135
 20
-3.987464
 10
1016.713499
 20
-3.988
  0
LWPOLYLINE
  5
112
330
17
100
AcDbEntity
  8
VISTA
100
AcDbPolyline
 90
5
 70
1
 10
1017.120501
 20
-3.988
 10
1017.120501
 20
-3.98
 10
1016.9205
 20
-3.98
 10
1016.9205
 20
-3.987464
 10
1017.120501
 20
-3.988
  0
LWPOLYLINE
  5
113
330
17
100
AcDbEntity
  8
VISTA
100
AcDbPolyline
 90
5
 70
1
 10
1017.5275
 20
-3.988
 10
1017.5275
 20
-3.98
 10
1017.327499
 20
-3.98
 10
1017.327499
 20
-3.987464
 10
1017.5275
 20
-3.988
  0
LWPOLYLINE
  5
114
330
17
100
AcDbEntity
  8
VISTA
100
AcDbPolyline
 90
8
 70
1
 10
1014.832
 20
-3.805
 10
1014.834
 20
-3.803
 10
1014.834
 20
-3.232
 10
1014.832
 20
-3.23
 10
1014.818
 20
-3.23
 10
1014.816
 20
-3.232
 10
1014.816586
 20
-3.804414
 10
1014.832
 20
-3.805
  0
LWPOLYLINE
  5
115
330
17
100
AcDbEntity
  8
VISTA
100
AcDbPolyline
 90
8
 70
1
 10
1014.832
 20
-4.435
 10
1014.834
 20
-4.433
 10
1014.834
 20
-3.837
 10
1014.832
 20
-3.835
 10
1014.818
 20
-3.835
 10
1014.816
 20
-3.837
 10
1014.816586
 20
-4.434414
 10
1014.832
 20
-4.435
  0
LWPOLYLINE
  5
116
330
17
100
AcDbEntity
  8
VISTA
100
AcDbPolyline
 90
8
 70
1
 10
1014.832
 20
-5.18
 10
1014.834
 20
-5.178
 10
1014.834
 20
-4.467
 10
1014.832
 20
-4.465
 10
1014.818
 20
-4.465
 10
1014.816
 20
-4.467
 10
1014.816586
 20
-5.179414
 10
1014.832
 20
-5.18
  0
LWPOLYLINE
  5
117
330
17
100
AcDbEntity
  8
VISTA
100
AcDbPolyline
 90
8
 70
1
 10
1015.3
 20
-5.241
 10
1015.302
 20
-5.239
 10
1015.302
 20
-5.225
 10
1015.3
 20
-5.223
 10
1014.872001
 20
-5.223
 10
1014.870001
 20
-5.225
 10
1014.870586
 20
-5.240414
 10
1015.3
 20
-5.241
  0
LWPOLYLINE
  5
118
330
17
100
AcDbEntity
  8
VISTA
100
AcDbPolyline
 90
8
 70
1
 10
1015.748
 20
-5.241
 10
1015.75
 20
-5.239
 10
1015.75
 20
-5.225
 10
1015.748
 20
-5.223
 10
1015.320001
 20
-5.223
 10
1015.318001
 20
-5.225
 10
1015.318586
 20
-5.240414
 10
1015.748
 20
-5.241
  0
LWPOLYLINE
  5
119
330
17
100
AcDbEntity
  8
VISTA
100
AcDbPolyline
 90
8
 70
1
 10
1016.403
 20
-3.975
 10
1016.404999
 20
-3.973
 10
1016.404999
 20
-3.959
 10
1016.403
 20
-3.957
 10
1016.009998
 20
-3.957
 10
1016.007999
 20
-3.959
 10
1016.008585
 20
-3.974414
 10
1016.403
 20
-3.975
  0
LWPOLYLINE
  5
11A
330
17
100
AcDbEntity
  8
VISTA
100
AcDbPolyline
 90
8
 70
1
 10
1016.810001
 20
-3.975
 10
1016.812
 20
-3.973
 10
1016.812
 20
-3.959
 10
1016.810001
 20
-3.957
 10
1016.417
 20
-3.957
 10
1016.415001
 20
-3.959
 10
1016.415586
 20
-3.974414
 10
1016.810001
 20
-3.975
  0
LWPOLYLINE
  5
11B
330
17
100
AcDbEntity
  8
VISTA
100
AcDbPolyline
 90
8
 70
1
 10
1017.217001
 20
-3.975
 10
1017.219
 20
-3.973
 10
1017.219
 20
-3.959
 10
1017.217001
 20
-3.957
 10
1016.823999
 20
-3.957
 10
1016.822001
 20
-3.959
 10
1016.822586
 20
-3.974414
 10
1017.217001
 20
-3.975
  0
LWPOLYLINE
  5
11C
330
17
100
AcDbEntity
  8
VISTA
100
AcDbPolyline
 90
8
 70
1
 10
1017.624001
 20
-3.975
 10
1017.625999
 20
-3.973
 10
1017.625999
 20
-3.959
 10
1017.624001
 20
-3.957
 10
1017.230999
 20
-3.957
 10
1017.229
 20
-3.959
 10
1017.229586
 20
-3.974414
 10
1017.624001
 20
-3.975
  0
LWPOLYLINE
  5
11D
330
17
100
AcDbEntity
  8
VISTA
100
AcDbPolyline
 90
8
 70
1
 10
1014.818
 20
-3.262
 10
1014.82
 20
-3.26
 10
1014.82
 20
-3.22
 10
1014.818
 20
-3.218
 10
1014.262
 20
-3.218
 10
1014.26
 20
-3.22
 10
1014.260586
 20
-3.261414
 10
1014.818
 20
-3.262
  0
LWPOLYLINE
  5
11E
330
17
100
AcDbEntity
  8
VISTA
100
AcDbPolyline
 90
8
 70
1
 10
1014.818
 20
-3.812
 10
1014.82
 20
-3.81
 10
1014.82
 20
-3.77
 10
1014.818
 20
-3.768
 10
1014.262
 20
-3.768
 10
1014.26
 20
-3.77
 10
1014.260586
 20
-3.811414
 10
1014.818
 20
-3.812
  0
LWPOLYLINE
  5
11F
330
17
100
AcDbEntity
  8
VISTA
100
AcDbPolyline
 90
8
 70
1
 10
1014.818
 20
-4.502
 10
1014.82
 20
-4.5
 10
1014.82
 20
-4.46
 10
1014.818
 20
-4.458
 10
1014.262
 20
-4.458
 10
1014.26
 20
-4.46
 10
1014.260586
 20
-4.501414
 10
1014.818
 20
-4.502
  0
LWPOLYLINE
  5
120
330
17
100
AcDbEntity
  8
VISTA
100
AcDbPolyline
 90
8
 70
1
 10
1014.818
 20
-5.192
 10
1014.82
 20
-5.19
 10
1014.82
 20
-5.15
 10
1014.818
 20
-5.148
 10
1014.262
 20
-5.148
 10
1014.26
 20
-5.15
 10
1014.260586
 20
-5.191414
 10
1014.818
 20
-5.192
  0
LWPOLYLINE
  5
121
330
17
100
AcDbEntity
  8
VISTA
100
AcDbPolyline
 90
8
 70
1
 10
1014.818
 20
-5.792
 10
1014.82
 20
-5.79
 10
1014.82
 20
-5.75
 10
1014.818
 20
-5.748
 10
1014.262
 20
-5.748
 10
1014.26
 20
-5.75
 10
1014.260586
 20
-5.791414
 10
1014.818
 20
-5.792
  0
LWPOLYLINE
  5
122
330
17
100
AcDbEntity
  8
VISTA
100
AcDbPolyline
 90
8
 70
1
 10
1015.758
 20
-5.28
 10
1015.76
 20
-5.278
 10
1015.76
 20
-5.242
 10
1015.758
 20
-5.24
 10
1014.862
 20
-5.24
 10
1014.860001
 20
-5.242
 10
1014.860586
 20
-5.279415
 10
1015.758
 20
-5.28
  0
LWPOLYLINE
  5
123
330
17
100
AcDbEntity
  8
VISTA
100
AcDbPolyline
 90
8
 70
1
 10
1015.758
 20
-5.79
 10
1015.76
 20
-5.788
 10
1015.76
 20
-5.752
 10
1015.758
 20
-5.75
 10
1014.862
 20
-5.75
 10
1014.860001
 20
-5.752
 10
1014.860586
 20
-5.789414
 10
1015.758
 20
-5.79
  0
LWPOLYLINE
  5
124
330
17
100
AcDbEntity
  8
VISTA
100
AcDbPolyline
 90
8
 70
1
 10
1017.638
 20
-3.615
 10
1017.639999
 20
-3.613
 10
1017.639999
 20
-3.577
 10
1017.638
 20
-3.575
 10
1016.001999
 20
-3.575
 10
1016.0
 20
-3.577
 10
1016.000586
 20
-3.614414
 10
1017.638
 20
-3.615
  0
LWPOLYLINE
  5
125
330
17
100
AcDbEntity
  8
VISTA
100
AcDbPolyline
 90
8
 70
1
 10
1017.638
 20
-3.95
 10
1017.639999
 20
-3.948
 10
1017.639999
 20
-3.912
 10
1017.638
 20
-3.91
 10
1016.001999
 20
-3.91
 10
1016.0
 20
-3.912
 10
1016.000586
 20
-3.949414
 10
1017.638
 20
-3.95
  0
LWPOLYLINE
  5
126
330
17
100
AcDbEntity
  8
VISTA
100
AcDbPolyline
 90
8
 70
1
 10
1014.276
 20
-5.8
 10
1014.278
 20
-5.798
 10
1014.278
 20
-3.222
 10
1014.276
 20
-3.22
 10
1014.262
 20
-3.22
 10
1014.26
 20
-3.222
 10
1014.260586
 20
-5.799415
 10
1014.276
 20
-5.8
  0
LWPOLYLINE
  5
127
330
17
100
AcDbEntity
  8
VISTA
100
AcDbPolyline
 90
8
 70
1
 10
1014.818
 20
-3.238
 10
1014.82
 20
-3.236
 10
1014.82
 20
-3.222
 10
1014.818
 20
-3.22
 10
1014.262
 20
-3.22
 10
1014.26
 20
-3.222
 10
1014.260586
 20
-3.237414
 10
1014.818
 20
-3.238
  0
LWPOLYLINE
  5
128
330
17
100
AcDbEntity
  8
VISTA
100
AcDbPolyline
 90
8
 70
1
 10
1014.818
 20
-3.829
 10
1014.82
 20
-3.827
 10
1014.82
 20
-3.813
 10
1014.818
 20
-3.811
 10
1014.262
 20
-3.811
 10
1014.26
 20
-3.813
 10
1014.260586
 20
-3.828414
 10
1014.818
 20
-3.829
  0
LWPOLYLINE
  5
129
330
17
100
AcDbEntity
  8
VISTA
100
AcDbPolyline
 90
8
 70
1
 10
1014.818
 20
-4.459
 10
1014.82
 20
-4.457
 10
1014.82
 20
-4.443
 10
1014.818
 20
-4.441
 10
1014.262
 20
-4.441
 10
1014.26
 20
-4.443
 10
1014.260586
 20
-4.458414
 10
1014.818
 20
-4.459
  0
LWPOLYLINE
  5
12A
330
17
100
AcDbEntity
  8
VISTA
100
AcDbPolyline
 90
8
 70
1
 10
1014.818
 20
-5.199
 10
1014.82
 20
-5.197
 10
1014.82
 20
-5.183
 10
1014.818
 20
-5.181
 10
1014.262
 20
-5.181
 10
1014.26
 20
-5.183
 10
1014.260586
 20
-5.198414
 10
1014.818
 20
-5.199
  0
LWPOLYLINE
  5
12B
330
17
100
AcDbEntity
  8
VISTA
100
AcDbPolyline
 90
8
 70
1
 10
1014.818
 20
-5.8
 10
1014.82
 20
-5.798
 10
1014.82
 20
-5.784
 10
1014.818
 20
-5.782
 10
1014.262
 20
-5.782
 10
1014.26
 20
-5.784
 10
1014.260586
 20
-5.799414
 10
1014.818
 20
-5.8
  0
LWPOLYLINE
  5
12C
330
17
100
AcDbEntity
  8
VISTA
100
AcDbPolyline
 90
8
 70
1
 10
1015.758
 20
-5.8
 10
1015.76
 20
-5.798
 10
1015.76
 20
-5.784
 10
1015.758
 20
-5.782
 10
1014.862
 20
-5.782
 10
1014.860001
 20
-5.784
 10
1014.860586
 20
-5.799414
 10
1015.758
 20
-5.8
  0
LWPOLYLINE
  5
12D
330
17
100
AcDbEntity
  8
VISTA
100
AcDbPolyline
 90
8
 70
1
 10
1014.876
 20
-5.8
 10
1014.878
 20
-5.798
 10
1014.878
 20
-5.242
 10
1014.876
 20
-5.24
 10
1014.862
 20
-5.24
 10
1014.860001
 20
-5.242
 10
1014.860586
 20
-5.799414
 10
1014.876
 20
-5.8
  0
LWPOLYLINE
  5
12E
330
17
100
AcDbEntity
  8
VISTA
100
AcDbPolyline
 90
8
 70
1
 10
1015.758
 20
-5.8
 10
1015.76
 20
-5.798
 10
1015.76
 20
-5.242
 10
1015.758
 20
-5.24
 10
1015.744
 20
-5.24
 10
1015.742001
 20
-5.242
 10
1015.742586
 20
-5.799414
 10
1015.758
 20
-5.8
  0
LWPOLYLINE
  5
12F
330
17
100
AcDbEntity
  8
VISTA
100
AcDbPolyline
 90
8
 70
1
 10
1017.638
 20
-3.588
 10
1017.639999
 20
-3.586
 10
1017.639999
 20
-3.572
 10
1017.638
 20
-3.57
 10
1016.001999
 20
-3.57
 10
1016.0
 20
-3.572
 10
1016.000586
 20
-3.587414
 10
1017.638
 20
-3.588
  0
LWPOLYLINE
  5
130
330
17
100
AcDbEntity
  8
VISTA
100
AcDbPolyline
 90
8
 70
1
 10
1016.016001
 20
-3.96
 10
1016.018002
 20
-3.958
 10
1016.018002
 20
-3.59
 10
1016.016001
 20
-3.588
 10
1016.002001
 20
-3.588
 10
1016.0
 20
-3.59
 10
1016.000587
 20
-3.959414
 10
1016.016001
 20
-3.96
  0
LWPOLYLINE
  5
131
330
17
100
AcDbEntity
  8
VISTA
100
AcDbPolyline
 90
8
 70
1
 10
1016.827
 20
-3.96
 10
1016.829
 20
-3.958
 10
1016.829
 20
-3.59
 10
1016.827
 20
-3.588
 10
1016.813
 20
-3.588
 10
1016.810999
 20
-3.59
 10
1016.811586
 20
-3.959414
 10
1016.827
 20
-3.96
  0
LWPOLYLINE
  5
132
330
17
100
AcDbEntity
  8
VISTA
100
AcDbPolyline
 90
8
 70
1
 10
1017.638
 20
-3.96
 10
1017.640001
 20
-3.958
 10
1017.640001
 20
-3.59
 10
1017.638
 20
-3.588
 10
1017.624001
 20
-3.588
 10
1017.622
 20
-3.59
 10
1017.622587
 20
-3.959414
 10
1017.638
 20
-3.96
  0
LWPOLYLINE
  5
133
330
17
100
AcDbEntity
  8
VISTA
100
AcDbPolyline
 90
8
 70
1
 10
1017.677
 20
-4.0
 10
1017.68
 20
-3.997
 10
1017.68
 20
-3.323
 10
1017.677
 20
-3.32
 10
1015.962999
 20
-3.32
 10
1015.96
 20
-3.323
 10
1015.960878
 20
-3.999121
 10
1017.677
 20
-4.0
  0
LWPOLYLINE
  5
134
330
17
100
AcDbEntity
  8
VISTA
100
AcDbPolyline
 90
8
 70
1
 10
1014.240295
 20
-5.818982
 10
1014.242
 20
-5.82
 10
1015.778998
 20
-5.819734
 10
1015.778998
 20
-5.200267
 10
1014.8602980000001
 20
-5.198982
 10
1014.859702
 20
-3.201019
 10
1014.240337
 20
-3.201189
 10
1014.240295
 20
-5.818982
  0
LWPOLYLINE
  5
135
330
17
100
AcDbEntity
  8
VISTA
100
AcDbPolyline
 90
4
 70
1
 10
1014.8602978931001
 20
-5.198982893100097
 10
1014.8602978931001
 20
-5.198982893100096
 10
1014.8602980000001
 20
-5.198982
 10
1014.8602978931001
 20
-5.198982893100097
  0
LWPOLYLINE
  5
136
330
17
100
AcDbEntity
  8
VISTA
100
AcDbPolyline
 90
13
 70
1
 10
1014.355
 20
-4.39
 10
1014.355
 20
-3.88
 10
1014.362201
 20
-3.863156
 10
1014.38
 20
-3.855
 10
1014.740001
 20
-3.855
 10
1014.756845
 20
-3.862202
 10
1014.765
 20
-3.88
 10
1014.765
 20
-4.39
 10
1014.757799
 20
-4.406844
 10
1014.740001
 20
-4.415
 10
1014.38
 20
-4.415
 10
1014.36417
 20
-4.408443
 10
1014.355
 20
-4.39
  0
LWPOLYLINE
  5
137
330
17
100
AcDbEntity
  8
VISTA
100
AcDbPolyline
 90
4
 70
1
 10
1014.2404981381382
 20
-5.818957
 10
1014.2405467151899
 20
-5.819025715189872
 10
1014.24052
 20
-5.818999
 10
1014.2404981381382
 20
-5.818957
  0
LWPOLYLINE
  5
138
330
17
100
AcDbEntity
  8
VISTA
100
AcDbPolyline
 90
4
 70
1
 10
1014.7586093432836
 20
-3.8620121716417883
 10
1014.7586093432836
 20
-3.8620121716417906
 10
1014.7586093432836
 20
-3.8620121716417835
 10
1014.7586093432836
 20
-3.8620121716417883
  0
LWPOLYLINE
  5
139
330
17
100
AcDbEntity
  8
VISTA
100
AcDbPolyline
 90
45
 70
1
 10
1014.349375
 20
-3.958119
 10
1014.344155
 20
-3.992351
 10
1014.341037
 20
-4.037107
 10
1014.341037
 20
-4.232894
 10
1014.344155
 20
-4.27765
 10
1014.349375
 20
-4.311882
 10
1014.356734
 20
-4.339907
 10
1014.3663
 20
-4.363333
 10
1014.378181
 20
-4.382936
 10
1014.392557
 20
-4.399137
 10
1014.409736
 20
-4.412181
 10
1014.430286
 20
-4.422217
 10
1014.455391
 20
-4.429335
 10
1014.488212
 20
-4.433586
 10
1014.631789
 20
-4.433586
 10
1014.66461
 20
-4.429335
 10
1014.689713
 20
-4.422217
 10
1014.710265
 20
-4.412181
 10
1014.727444
 20
-4.399137
 10
1014.741819
 20
-4.382936
 10
1014.753699
 20
-4.363333
 10
1014.763266
 20
-4.339907
 10
1014.770625
 20
-4.311882
 10
1014.775846
 20
-4.27765
 10
1014.778963
 20
-4.232894
 10
1014.778963
 20
-4.037107
 10
1014.775846
 20
-3.992351
 10
1014.770625
 20
-3.958119
 10
1014.763266
 20
-3.930094
 10
1014.753699
 20
-3.906668
 10
1014.741819
 20
-3.887065
 10
1014.727444
 20
-3.870864
 10
1014.710265
 20
-3.857819
 10
1014.689713
 20
-3.847784
 10
1014.66461
 20
-3.840667
 10
1014.631789
 20
-3.836415
 10
1014.488212
 20
-3.836415
 10
1014.455391
 20
-3.840667
 10
1014.430286
 20
-3.847784
 10
1014.409736
 20
-3.857819
 10
1014.392557
 20
-3.870864
 10
1014.378181
 20
-3.887065
 10
1014.3663
 20
-3.906668
 10
1014.356734
 20
-3.930094
 10
1014.349375
 20
-3.958119
  0
LWPOLYLINE
  5
13A
330
17
100
AcDbEntity
  8
VISTA
100
AcDbPolyline
 90
17
 70
1
 10
1014.54268
 20
-4.145
 10
1014.540001
 20
-4.135
 10
1014.427999
 20
-4.135
 10
1014.428622
 20
-4.076264
 10
1014.541891
 20
-4.126904
 10
1014.55
 20
-4.11768
 10
1014.56
 20
-4.115
 10
1014.570001
 20
-4.11768
 10
1014.57811
 20
-4.126904
 10
1014.691378
 20
-4.076264
 10
1014.692
 20
-4.135
 10
1014.58
 20
-4.135
 10
1014.577321
 20
-4.145
 10
1014.570001
 20
-4.152321
 10
1014.56
 20
-4.155
 10
1014.55
 20
-4.152321
 10
1014.54268
 20
-4.145
  0
LWPOLYLINE
  5
13B
330
17
100
AcDbEntity
  8
VISTA
100
AcDbPolyline
 90
4
 70
1
 10
1014.4308982764022
 20
-4.338653512169282
 10
1014.4308982764385
 20
-4.3386535121120655
 10
1014.4308982764152
 20
-4.338653512148814
 10
1014.4308982764022
 20
-4.338653512169282
  0
LWPOLYLINE
  5
13C
330
17
100
AcDbEntity
  8
VISTA
100
AcDbPolyline
 90
5
 70
1
 10
1015.639415
 20
-5.699414
 10
1015.639415
 20
-5.240586
 10
1015.0605860000001
 20
-5.240586
 10
1015.0605860000001
 20
-5.699414
 10
1015.639415
 20
-5.699414
  0
LINE
  5
13D
330
17
100
AcDbEntity
  8
CORTE
100
AcDbLine
 10
1014.0
 20
-3.6009027081243725
 30
0.0
 11
1014.0
 21
-2.95
 31
0.0
  0
LINE
  5
13E
330
17
100
AcDbEntity
  8
CORTE
100
AcDbLine
 10
1014.0
 20
-3.6009027081243734
 30
0.0
 11
1014.0
 21
-5.9955
 31
0.0
  0
LINE
  5
13F
330
17
100
AcDbEntity
  8
CORTE
100
AcDbLine
 10
1014.0004994503511
 20
-5.997063783851554
 30
0.0
 11
1014.0
 21
-5.9955
 31
0.0
  0
LINE
  5
140
330
17
100
AcDbEntity
  8
CORTE
100
AcDbLine
 10
1014.0004994503511
 20
-5.997063783851554
 30
0.0
 11
1014.000832
 21
-5.998105
 31
0.0
  0
LINE
  5
141
330
17
100
AcDbEntity
  8
CORTE
100
AcDbLine
 10
1014.0011237462387
 20
-5.9984513736208624
 30
0.0
 11
1014.000832
 21
-5.998105
 31
0.0
  0
LINE
  5
142
330
17
100
AcDbEntity
  8
CORTE
100
AcDbLine
 10
1014.0011237462387
 20
-5.9984513736208624
 30
0.0
 11
1014.001318
 21
-5.998682
 31
0.0
  0
LINE
  5
143
330
17
100
AcDbEntity
  8
CORTE
100
AcDbLine
 10
1014.200001
 20
-2.95
 30
0.0
 11
1014.200001
 21
-3.6009027081243725
 31
0.0
  0
LINE
  5
144
330
17
100
AcDbEntity
  8
CORTE
100
AcDbLine
 10
1014.200001
 20
-3.6009027081243725
 30
0.0
 11
1014.200001
 21
-3.6009027081243734
 31
0.0
  0
LINE
  5
145
330
17
100
AcDbEntity
  8
CORTE
100
AcDbLine
 10
1014.200001
 20
-5.9955
 30
0.0
 11
1014.200001
 21
-3.6009027081243734
 31
0.0
  0
LINE
  5
146
330
17
100
AcDbEntity
  8
CORTE
100
AcDbLine
 10
1014.200001
 20
-5.9955
 30
0.0
 11
1014.199501549649
 21
-5.997063783851554
 31
0.0
  0
LINE
  5
147
330
17
100
AcDbEntity
  8
CORTE
100
AcDbLine
 10
1014.199169
 20
-5.998105
 30
0.0
 11
1014.199501549649
 21
-5.997063783851554
 31
0.0
  0
LINE
  5
148
330
17
100
AcDbEntity
  8
CORTE
100
AcDbLine
 10
1014.199169
 20
-5.998105
 30
0.0
 11
1014.1988772537613
 21
-5.9984513736208624
 31
0.0
  0
LINE
  5
149
330
17
100
AcDbEntity
  8
CORTE
100
AcDbLine
 10
1014.198683
 20
-5.998682
 30
0.0
 11
1014.1988772537613
 21
-5.9984513736208624
 31
0.0
  0
LINE
  5
14A
330
17
100
AcDbEntity
  8
CORTE
100
AcDbLine
 10
1014.0016643736209
 20
-5.998974346539619
 30
0.0
 11
1014.001318
 21
-5.998682
 31
0.0
  0
LINE
  5
14B
330
17
100
AcDbEntity
  8
CORTE
100
AcDbLine
 10
1014.001895
 20
-5.999169
 30
0.0
 11
1014.0016643736209
 21
-5.998974346539619
 31
0.0
  0
LINE
  5
14C
330
17
100
AcDbEntity
  8
CORTE
100
AcDbLine
 10
1014.0034587838516
 20
-5.999667850050151
 30
0.0
 11
1014.001895
 21
-5.999169
 31
0.0
  0
LINE
  5
14D
330
17
100
AcDbEntity
  8
CORTE
100
AcDbLine
 10
1014.0045
 20
-6.0
 30
0.0
 11
1014.0034587838516
 21
-5.999667850050151
 31
0.0
  0
LINE
  5
14E
330
17
100
AcDbEntity
  8
CORTE
100
AcDbLine
 10
1014.1191574724172
 20
-6.0
 30
0.0
 11
1014.0045
 21
-6.0
 31
0.0
  0
LINE
  5
14F
330
17
100
AcDbEntity
  8
CORTE
100
AcDbLine
 10
1014.1955
 20
-6.0
 30
0.0
 11
1014.1191574724172
 21
-6.0
 31
0.0
  0
LINE
  5
150
330
17
100
AcDbEntity
  8
CORTE
100
AcDbLine
 10
1014.1970643841524
 20
-5.999501149949849
 30
0.0
 11
1014.1955
 21
-6.0
 31
0.0
  0
LINE
  5
151
330
17
100
AcDbEntity
  8
CORTE
100
AcDbLine
 10
1014.198106
 20
-5.999169
 30
0.0
 11
1014.1970643841524
 21
-5.999501149949849
 31
0.0
  0
LINE
  5
152
330
17
100
AcDbEntity
  8
CORTE
100
AcDbLine
 10
1014.1984523736209
 20
-5.998876653460381
 30
0.0
 11
1014.198106
 21
-5.999169
 31
0.0
  0
LINE
  5
153
330
17
100
AcDbEntity
  8
CORTE
100
AcDbLine
 10
1014.198683
 20
-5.998682
 30
0.0
 11
1014.1984523736209
 21
-5.998876653460381
 31
0.0
  0
LWPOLYLINE
  5
154
330
17
100
AcDbEntity
  8
VISTA
100
AcDbPolyline
 90
13
 70
1
 10
1015.844001
 20
-5.82
 10
1016.5360009999999
 20
-5.82
 10
1016.53883
 20
-5.818828
 10
1016.540001
 20
-5.816
 10
1016.540001
 20
-5.124
 10
1016.53883
 20
-5.121171
 10
1016.5360009999999
 20
-5.12
 10
1015.844001
 20
-5.12
 10
1015.841172
 20
-5.121171
 10
1015.84
 20
-5.124
 10
1015.84
 20
-5.816
 10
1015.841172
 20
-5.818828
 10
1015.844001
 20
-5.82
  0
LWPOLYLINE
  5
155
330
17
100
AcDbEntity
  8
VISTA
100
AcDbPolyline
 90
13
 70
1
 10
1015.858001
 20
-5.12
 10
1016.522001
 20
-5.12
 10
1016.524122
 20
-5.119122
 10
1016.525
 20
-5.117
 10
1016.525
 20
-5.101
 10
1016.524122
 20
-5.098879
 10
1016.522001
 20
-5.098
 10
1015.858001
 20
-5.098
 10
1015.855879
 20
-5.098879
 10
1015.855
 20
-5.101
 10
1015.855
 20
-5.117
 10
1015.855879
 20
-5.119122
 10
1015.858001
 20
-5.12
  0
LWPOLYLINE
  5
156
330
17
100
AcDbEntity
  8
CORTE
100
AcDbPolyline
 90
41
 70
1
 10
1014.0010256534604
 20
-5.9016643736208625
 10
1014.000831
 20
-5.901895
 10
1014.0003321499498
 20
-5.903458783851554
 10
1014.0
 20
-5.9045
 10
1014.0
 20
-6.019157472417252
 10
1014.0
 20
-6.0955
 10
1014.0004988500501
 20
-6.097063783851555
 10
1014.000831
 20
-6.098105
 10
1014.0011233465397
 20
-6.098451373620863
 10
1014.001318
 20
-6.098682
 10
1014.0016643736209
 20
-6.0989743465396185
 10
1014.001895
 20
-6.099169
 10
1014.0034587838516
 20
-6.09966785005015
 10
1014.0045
 20
-6.1
 10
1015.6499253746239
 20
-6.1
 10
1016.745501
 20
-6.1
 10
1016.7470647838516
 20
-6.099501149949849
 10
1016.748106
 20
-6.099169
 10
1016.74845177332
 20
-6.0988766534603815
 10
1016.748682
 20
-6.098682
 10
1016.7488762537613
 20
-6.098451373620863
 10
1016.749168
 20
-6.098105
 10
1016.7495005496489
 20
-6.097063783851555
 10
1016.75
 20
-6.0955
 10
1016.75
 20
-6.019157472417252
 10
1016.75
 20
-5.9045
 10
1016.749667450351
 20
-5.903458783851554
 10
1016.749168
 20
-5.901895
 10
1016.7489737462387
 20
-5.9016643736208625
 10
1016.748682
 20
-5.901318
 10
1016.74845177332
 20
-5.9011233465396185
 10
1016.748106
 20
-5.900831
 10
1016.7470647838516
 20
-5.900498850050151
 10
1016.745501
 20
-5.9
 10
1015.6499253746239
 20
-5.9
 10
1014.0045
 20
-5.9
 10
1014.0034587838516
 20
-5.90033214994985
 10
1014.001895
 20
-5.900831
 10
1014.0016643736209
 20
-5.9010256534603815
 10
1014.001318
 20
-5.901318
 10
1014.0010256534604
 20
-5.9016643736208625
  0
LWPOLYLINE
  5
157
330
17
100
AcDbEntity
  8
CORTE
100
AcDbPolyline
 90
22
 70
1
 10
1014.0010256534604
 20
-6.001664373620863
 10
1014.000831
 20
-6.001895
 10
1014.0003321499498
 20
-6.0034587838515545
 10
1014.0
 20
-6.0045
 10
1014.0
 20
-6.1
 10
1014.299999
 20
-6.1
 10
1014.299999
 20
-6.0045
 10
1014.2996672497493
 20
-6.0034587838515545
 10
1014.299169
 20
-6.001895
 10
1014.2989739468405
 20
-6.001664373620863
 10
1014.298681
 20
-6.001318
 10
1014.2984507733199
 20
-6.001123346539619
 10
1014.298105
 20
-6.000831
 10
1014.2970637838515
 20
-6.000498850050151
 10
1014.2955
 20
-6.0
 10
1014.1791871629889
 20
-6.0
 10
1014.004499
 20
-6.0
 10
1014.0034577838516
 20
-6.000332149949849
 10
1014.001894
 20
-6.000831
 10
1014.0016637733199
 20
-6.001025653460381
 10
1014.001318
 20
-6.001318
 10
1014.0010256534604
 20
-6.001664373620863
  0
DIMENSION
  5
158
330
17
100
AcDbEntity
  8
COTAS
100
AcDbDimension
280
0
  2
*D4
  3
Standard
 10
1015.960000038147
 20
-3.160000171661377
 30
0.0
 11
1016.8200001716614
 21
-3.160000171661377
 31
0.0
 70
32
 71
5
  1
<>
100
AcDbAlignedDimension
 13
1015.960000038147
 23
-3.320000171661377
 33
0.0
 14
1017.6800003051758
 24
-3.320000171661377
 34
0.0
 50
0.0
100
AcDbRotatedDimension
1001
ACAD
1000
DSTYLE
1002
{
1070
140
1040
0.13
1070
41
1040
0.09
1002
}
  0
DIMENSION
  5
168
330
17
100
AcDbEntity
  8
COTAS
100
AcDbDimension
280
0
  2
*D5
  3
Standard
 10
1017.8600003051757
 20
-3.320000171661377
 30
0.0
 11
1018.5500003051758
 21
-3.6600000858306885
 31
0.0
 70
32
 71
5
  1
<>
100
AcDbAlignedDimension
 13
1017.6800003051758
 23
-3.320000171661377
 33
0.0
 14
1017.6800003051758
 24
-4.0
 34
0.0
 50
90.0
100
AcDbRotatedDimension
1001
ACAD
1000
DSTYLE
1002
{
1070
140
1040
0.13
1070
41
1040
0.09
1002
}
  0
TEXT
  5
179
330
17
100
AcDbEntity
  8
TEXTOS
100
AcDbText
 10
1016.0
 20
-5.95
 30
0.0
 40
0.135
  1
G mesada +1.110
100
AcDbText
  0
LWPOLYLINE
  5
17A
330
17
100
AcDbEntity
  8
VISTA
100
AcDbPolyline
 90
15
 70
1
 10
1062.0
 20
-12.0045
 10
1061.995501
 20
-12.0
 10
1058.4
 20
-12.0
 10
1058.4
 20
-12.2
 10
1061.712808509081
 20
-12.2
 10
1061.716087
 20
-12.193564
 10
1061.733566
 20
-12.176087
 10
1061.755589
 20
-12.164866
 10
1061.780001
 20
-12.160999
 10
1061.804413
 20
-12.164866
 10
1061.826435
 20
-12.176087
 10
1061.843914
 20
-12.193564
 10
1061.847192490919
 20
-12.2
 10
1062.0
 20
-12.2
 10
1062.0
 20
-12.0045
  0
LWPOLYLINE
  5
17B
330
17
100
AcDbEntity
  8
VISTA
100
AcDbPolyline
 90
5
 70
1
 10
1059.52
 20
-11.9755
 10
1061.195
 20
-11.9755
 10
1061.195
 20
-11.9215
 10
1059.52
 20
-11.9215
 10
1059.52
 20
-11.9755
  0
LWPOLYLINE
  5
17C
330
17
100
AcDbEntity
  8
VISTA
100
AcDbPolyline
 90
5
 70
1
 10
1059.52
 20
-12.0305
 10
1061.195
 20
-12.0305
 10
1061.195
 20
-12.0105
 10
1059.52
 20
-12.0105
 10
1059.52
 20
-12.0305
  0
LWPOLYLINE
  5
17D
330
17
100
AcDbEntity
  8
VISTA
100
AcDbPolyline
 90
5
 70
1
 10
1059.522512
 20
-12.0015
 10
1061.192488
 20
-12.0015
 10
1061.192488
 20
-11.9215
 10
1059.522512
 20
-11.9215
 10
1059.522512
 20
-12.0015
  0
LWPOLYLINE
  5
17E
330
17
100
AcDbEntity
  8
VISTA
100
AcDbPolyline
 90
5
 70
1
 10
1059.522512
 20
-12.0565
 10
1061.192488
 20
-12.0565
 10
1061.192488
 20
-12.0105
 10
1059.522512
 20
-12.0105
 10
1059.522512
 20
-12.0565
  0
LWPOLYLINE
  5
17F
330
17
100
AcDbEntity
  8
VISTA
100
AcDbPolyline
 90
5
 70
1
 10
1059.522512
 20
-11.990499
 10
1061.192488
 20
-11.990499
 10
1061.192488
 20
-11.9735
 10
1059.522512
 20
-11.9735
 10
1059.522512
 20
-11.990499
  0
LWPOLYLINE
  5
180
330
17
100
AcDbEntity
  8
VISTA
100
AcDbPolyline
 90
5
 70
1
 10
1059.522512
 20
-12.0455
 10
1061.192488
 20
-12.0455
 10
1061.192488
 20
-12.028501
 10
1059.522512
 20
-12.028501
 10
1059.522512
 20
-12.0455
  0
LWPOLYLINE
  5
181
330
17
100
AcDbEntity
  8
VISTA
100
AcDbPolyline
 90
5
 70
1
 10
1059.549999
 20
-8.86
 10
1060.52
 20
-8.86
 10
1060.52
 20
-8.71
 10
1059.549999
 20
-8.71
 10
1059.549999
 20
-8.86
  0
LWPOLYLINE
  5
182
330
17
100
AcDbEntity
  8
VISTA
100
AcDbPolyline
 90
5
 70
1
 10
1059.52
 20
-11.964499
 10
1061.195
 20
-11.964499
 10
1061.195
 20
-11.9625
 10
1059.52
 20
-11.9625
 10
1059.52
 20
-11.964499
  0
LWPOLYLINE
  5
183
330
17
100
AcDbEntity
  8
VISTA
100
AcDbPolyline
 90
5
 70
1
 10
1059.52
 20
-11.9755
 10
1061.195
 20
-11.9755
 10
1061.195
 20
-11.9735
 10
1059.52
 20
-11.9735
 10
1059.52
 20
-11.9755
  0
LWPOLYLINE
  5
184
330
17
100
AcDbEntity
  8
VISTA
100
AcDbPolyline
 90
5
 70
1
 10
1059.518
 20
-11.9625
 10
1061.197001
 20
-11.9625
 10
1061.197001
 20
-11.9565
 10
1059.518
 20
-11.9565
 10
1059.518
 20
-11.9625
  0
LWPOLYLINE
  5
185
330
17
100
AcDbEntity
  8
VISTA
100
AcDbPolyline
 90
5
 70
1
 10
1059.518
 20
-12.007501
 10
1061.197001
 20
-12.007501
 10
1061.197001
 20
-12.0015
 10
1059.518
 20
-12.0015
 10
1059.518
 20
-12.007501
  0
LWPOLYLINE
  5
186
330
17
100
AcDbEntity
  8
VISTA
100
AcDbPolyline
 90
5
 70
1
 10
1059.518
 20
-12.0175
 10
1061.197001
 20
-12.0175
 10
1061.197001
 20
-12.011499
 10
1059.518
 20
-12.011499
 10
1059.518
 20
-12.0175
  0
LWPOLYLINE
  5
187
330
17
100
AcDbEntity
  8
VISTA
100
AcDbPolyline
 90
5
 70
1
 10
1059.518
 20
-12.062501
 10
1061.197001
 20
-12.062501
 10
1061.197001
 20
-12.0565
 10
1059.518
 20
-12.0565
 10
1059.518
 20
-12.062501
  0
LWPOLYLINE
  5
188
330
17
100
AcDbEntity
  8
VISTA
100
AcDbPolyline
 90
5
 70
1
 10
1059.52
 20
-12.0195
 10
1061.195
 20
-12.0195
 10
1061.195
 20
-12.0175
 10
1059.52
 20
-12.0175
 10
1059.52
 20
-12.0195
  0
LWPOLYLINE
  5
189
330
17
100
AcDbEntity
  8
VISTA
100
AcDbPolyline
 90
5
 70
1
 10
1059.52
 20
-12.0305
 10
1061.195
 20
-12.0305
 10
1061.195
 20
-12.028501
 10
1059.52
 20
-12.028501
 10
1059.52
 20
-12.0305
  0
LWPOLYLINE
  5
18A
330
17
100
AcDbEntity
  8
VISTA
100
AcDbPolyline
 90
5
 70
1
 10
1059.522512
 20
-11.990499
 10
1061.192488
 20
-11.990499
 10
1061.192488
 20
-11.9885
 10
1059.522512
 20
-11.9885
 10
1059.522512
 20
-11.990499
  0
LWPOLYLINE
  5
18B
330
17
100
AcDbEntity
  8
VISTA
100
AcDbPolyline
 90
5
 70
1
 10
1059.522512
 20
-12.0015
 10
1061.192488
 20
-12.0015
 10
1061.192488
 20
-11.9995
 10
1059.522512
 20
-11.9995
 10
1059.522512
 20
-12.0015
  0
LWPOLYLINE
  5
18C
330
17
100
AcDbEntity
  8
VISTA
100
AcDbPolyline
 90
5
 70
1
 10
1059.522512
 20
-12.0455
 10
1061.192488
 20
-12.0455
 10
1061.192488
 20
-12.0435
 10
1059.522512
 20
-12.0435
 10
1059.522512
 20
-12.0455
  0
LWPOLYLINE
  5
18D
330
17
100
AcDbEntity
  8
VISTA
100
AcDbPolyline
 90
5
 70
1
 10
1059.522512
 20
-12.0565
 10
1061.192488
 20
-12.0565
 10
1061.192488
 20
-12.054501
 10
1059.522512
 20
-12.054501
 10
1059.522512
 20
-12.0565
  0
LWPOLYLINE
  5
18E
330
17
100
AcDbEntity
  8
VISTA
100
AcDbPolyline
 90
5
 70
1
 10
1061.218
 20
-11.9115
 10
1061.218
 20
-11.8735
 10
1058.4
 20
-11.8735
 10
1058.4
 20
-11.9115
 10
1061.218
 20
-11.9115
  0
LWPOLYLINE
  5
18F
330
17
100
AcDbEntity
  8
VISTA
100
AcDbPolyline
 90
5
 70
1
 10
1061.218
 20
-12.0105
 10
1061.218
 20
-12.007501
 10
1058.4
 20
-12.007501
 10
1058.4
 20
-12.0105
 10
1061.218
 20
-12.0105
  0
LWPOLYLINE
  5
190
330
17
100
AcDbEntity
  8
VISTA
100
AcDbPolyline
 90
9
 70
1
 10
1061.193001
 20
-11.9565
 10
1061.195
 20
-11.9545
 10
1061.195
 20
-11.9135
 10
1061.193001
 20
-11.9115
 10
1059.521999
 20
-11.9115
 10
1059.52
 20
-11.9135
 10
1059.52
 20
-11.9545
 10
1059.521999
 20
-11.9565
 10
1061.193001
 20
-11.9565
  0
LWPOLYLINE
  5
191
330
17
100
AcDbEntity
  8
VISTA
100
AcDbPolyline
 90
5
 70
1
 10
1062.0
 20
-12.1135
 10
1061.9995
 20
-12.102
 10
1058.4
 20
-12.102065699087385
 10
1058.4
 20
-12.113724564035252
 10
1062.0
 20
-12.1135
  0
LWPOLYLINE
  5
192
330
17
100
AcDbEntity
  8
VISTA
100
AcDbPolyline
 90
11
 70
1
 10
1061.221001
 20
-11.8695
 10
1061.221001
 20
-11.9185
 10
1061.278
 20
-11.9185
 10
1061.278
 20
-12.045501
 10
1058.4
 20
-12.045501
 10
1058.4
 20
-12.099999
 10
1061.4
 20
-12.099999
 10
1061.4
 20
-11.86
 10
1058.4
 20
-11.86
 10
1058.4
 20
-11.8695
 10
1061.221001
 20
-11.8695
  0
LWPOLYLINE
  5
193
330
17
100
AcDbEntity
  8
VISTA
100
AcDbPolyline
 90
14
 70
1
 10
1062.0
 20
-12.116
 10
1058.4
 20
-12.115549943742968
 10
1058.4
 20
-12.2
 10
1061.7128093401743
 20
-12.2
 10
1061.716089
 20
-12.193564
 10
1061.733566
 20
-12.176087
 10
1061.755589
 20
-12.164866
 10
1061.780001
 20
-12.160999
 10
1061.804413
 20
-12.164866
 10
1061.826435
 20
-12.176087
 10
1061.843912
 20
-12.193564
 10
1061.8471916598257
 20
-12.2
 10
1062.0
 20
-12.2
 10
1062.0
 20
-12.116
  0
LWPOLYLINE
  5
194
330
17
100
AcDbEntity
  8
VISTA
100
AcDbPolyline
 90
11
 70
1
 10
1061.221001
 20
-11.8695
 10
1061.221001
 20
-11.9185
 10
1061.278
 20
-11.9185
 10
1061.278
 20
-12.009999
 10
1061.994999
 20
-12.009999
 10
1062.0
 20
-12.004999
 10
1062.0
 20
-11.795
 10
1061.994999
 20
-11.79
 10
1058.4
 20
-11.79
 10
1058.4
 20
-11.8695
 10
1061.221001
 20
-11.8695
  0
LWPOLYLINE
  5
195
330
17
100
AcDbEntity
  8
VISTA
100
AcDbPolyline
 90
5
 70
1
 10
1059.549999
 20
-8.7125
 10
1060.52
 20
-8.7125
 10
1060.52
 20
-8.7075
 10
1059.549999
 20
-8.7075
 10
1059.549999
 20
-8.7125
  0
LWPOLYLINE
  5
196
330
17
100
AcDbEntity
  8
VISTA
100
AcDbPolyline
 90
5
 70
1
 10
1059.379482
 20
-11.558821
 10
1059.37882
 20
-9.420517
 10
1058.4
 20
-9.420780587865288
 10
1058.4
 20
-11.559084766136234
 10
1059.379482
 20
-11.558821
  0
LWPOLYLINE
  5
197
330
17
100
AcDbEntity
  8
VISTA
100
AcDbPolyline
 90
9
 70
1
 10
1061.273001
 20
-12.0445
 10
1061.275829
 20
-12.043329
 10
1061.277
 20
-12.040501
 10
1061.277
 20
-11.9235
 10
1061.275829
 20
-11.920671
 10
1061.273001
 20
-11.9195
 10
1058.4
 20
-11.9195
 10
1058.4
 20
-12.043541194606235
 10
1061.273001
 20
-12.0445
  0
LWPOLYLINE
  5
198
330
17
100
AcDbEntity
  8
VISTA
100
AcDbPolyline
 90
9
 70
1
 10
1060.93956
 20
-12.005745
 10
1060.933556
 20
-12.004457
 10
1060.9302032302892
 20
-11.999387539610511
 10
1060.931072
 20
-11.993501
 10
1060.935928
 20
-11.989773
 10
1060.941999
 20
-11.990572
 10
1060.945726
 20
-11.99543
 10
1060.944651
 20
-12.002162
 10
1060.93956
 20
-12.005745
  0
LWPOLYLINE
  5
199
330
17
100
AcDbEntity
  8
VISTA
100
AcDbPolyline
 90
4
 70
1
 10
1061.275528
 20
-11.920973
 10
1061.275528
 20
-11.921705
 10
1061.275311
 20
-11.921191
 10
1061.275528
 20
-11.920973
  0
LWPOLYLINE
  5
19A
330
17
100
AcDbEntity
  8
VISTA
100
AcDbPolyline
 90
4
 70
1
 10
1061.275311
 20
-12.042809
 10
1061.275528
 20
-12.042295
 10
1061.275528
 20
-12.043028
 10
1061.275311
 20
-12.042809
  0
LWPOLYLINE
  5
19B
330
17
100
AcDbEntity
  8
VISTA
100
AcDbPolyline
 90
5
 70
1
 10
1061.218
 20
-11.8735
 10
1061.218
 20
-11.870501
 10
1058.4
 20
-11.870501
 10
1058.4
 20
-11.8735
 10
1061.218
 20
-11.8735
  0
LWPOLYLINE
  5
19C
330
17
100
AcDbEntity
  8
VISTA
100
AcDbPolyline
 90
5
 70
1
 10
1061.218
 20
-12.0135
 10
1061.218
 20
-12.0105
 10
1058.4
 20
-12.0105
 10
1058.4
 20
-12.0135
 10
1061.218
 20
-12.0135
  0
LWPOLYLINE
  5
19D
330
17
100
AcDbEntity
  8
VISTA
100
AcDbPolyline
 90
5
 70
1
 10
1061.218
 20
-12.0135
 10
1061.221001
 20
-12.0135
 10
1061.221001
 20
-11.870501
 10
1061.218
 20
-11.870501
 10
1061.218
 20
-12.0135
  0
LWPOLYLINE
  5
19E
330
17
100
AcDbEntity
  8
VISTA
100
AcDbPolyline
 90
5
 70
1
 10
1061.112501
 20
-11.499599
 10
1061.115101
 20
-11.5
 10
1061.115499
 20
-10.9804
 10
1061.1129
 20
-10.9804
 10
1061.112501
 20
-11.499599
  0
LWPOLYLINE
  5
19F
330
17
100
AcDbEntity
  8
VISTA
100
AcDbPolyline
 90
19
 70
1
 10
1061.834448
 20
-12.185553
 10
1061.818501
 20
-12.173316
 10
1061.799931
 20
-12.165624
 10
1061.780001
 20
-12.163
 10
1061.760071
 20
-12.165624
 10
1061.741501
 20
-12.173316
 10
1061.725554
 20
-12.185553
 10
1061.7144671256035
 20
-12.2
 10
1061.7207172060087
 20
-12.2
 10
1061.72909
 20
-12.189088
 10
1061.744001
 20
-12.177646
 10
1061.761366
 20
-12.170453
 10
1061.780001
 20
-12.168
 10
1061.798635
 20
-12.170453
 10
1061.816
 20
-12.177646
 10
1061.830912
 20
-12.189088
 10
1061.8392847939915
 20
-12.2
 10
1061.845533968458
 20
-12.2
 10
1061.834448
 20
-12.185553
  0
LWPOLYLINE
  5
1A0
330
17
100
AcDbEntity
  8
VISTA
100
AcDbPolyline
 90
5
 70
1
 10
1061.112501
 20
-11.499599
 10
1061.115101
 20
-11.5
 10
1061.115499
 20
-10.9804
 10
1061.1129
 20
-10.9804
 10
1061.112501
 20
-11.499599
  0
LWPOLYLINE
  5
1A1
330
17
100
AcDbEntity
  8
VISTA
100
AcDbPolyline
 90
5
 70
1
 10
1061.112501
 20
-11.499599
 10
1061.115101
 20
-11.5
 10
1061.115499
 20
-10.9804
 10
1061.1129
 20
-10.9804
 10
1061.112501
 20
-11.499599
  0
LWPOLYLINE
  5
1A2
330
17
100
AcDbEntity
  8
VISTA
100
AcDbPolyline
 90
5
 70
1
 10
1061.109999
 20
-11.5745
 10
1061.1145
 20
-11.575
 10
1061.115
 20
-10.905499
 10
1061.110498
 20
-10.905147
 10
1061.109999
 20
-11.5745
  0
LWPOLYLINE
  5
1A3
330
17
100
AcDbEntity
  8
VISTA
100
AcDbPolyline
 90
5
 70
1
 10
1058.4
 20
-12.089999
 10
1058.4
 20
-12.12
 10
1061.4
 20
-12.12
 10
1061.4
 20
-12.089999
 10
1058.4
 20
-12.089999
  0
LWPOLYLINE
  5
1A4
330
17
100
AcDbEntity
  8
VISTA
100
AcDbPolyline
 90
5
 70
1
 10
1061.134413
 20
-9.414414
 10
1061.134413
 20
-8.925586
 10
1060.805586
 20
-8.925586
 10
1060.805586
 20
-9.414414
 10
1061.134413
 20
-9.414414
  0
LWPOLYLINE
  5
1A5
330
17
100
AcDbEntity
  8
VISTA
100
AcDbPolyline
 90
5
 70
1
 10
1059.344002
 20
-8.935
 10
1059.345001
 20
-8.916
 10
1058.986
 20
-8.915
 10
1058.985294
 20
-8.934708
 10
1059.344002
 20
-8.935
  0
LWPOLYLINE
  5
1A6
330
17
100
AcDbEntity
  8
VISTA
100
AcDbPolyline
 90
5
 70
1
 10
1058.98
 20
-8.932
 10
1058.98
 20
-8.93
 10
1058.4
 20
-8.93
 10
1058.4
 20
-8.932
 10
1058.98
 20
-8.932
  0
LWPOLYLINE
  5
1A7
330
17
100
AcDbEntity
  8
VISTA
100
AcDbPolyline
 90
5
 70
1
 10
1058.98
 20
-9.07
 10
1058.98
 20
-9.068
 10
1058.4
 20
-9.068
 10
1058.4
 20
-9.07
 10
1058.98
 20
-9.07
  0
LWPOLYLINE
  5
1A8
330
17
100
AcDbEntity
  8
VISTA
100
AcDbPolyline
 90
7
 70
1
 10
1061.735001
 20
-8.885
 10
1061.377047198238
 20
-10.088803538802345
 10
1061.032652
 20
-8.885
 10
1061.005001
 20
-8.885
 10
1061.005001
 20
-11.34
 10
1061.735001
 20
-11.34
 10
1061.735001
 20
-8.885
  0
LWPOLYLINE
  5
1A9
330
17
100
AcDbEntity
  8
VISTA
100
AcDbPolyline
 90
7
 70
1
 10
1059.480001
 20
-8.754999
 10
1059.49
 20
-8.754999
 10
1059.49
 20
-8.734
 10
1059.549999
 20
-8.734
 10
1059.549999
 20
-8.705
 10
1059.480001
 20
-8.705
 10
1059.480001
 20
-8.754999
  0
LWPOLYLINE
  5
1AA
330
17
100
AcDbEntity
  8
VISTA
100
AcDbPolyline
 90
7
 70
1
 10
1060.52
 20
-8.734
 10
1061.609999
 20
-8.734
 10
1061.609999
 20
-8.754999
 10
1061.92
 20
-8.754999
 10
1061.92
 20
-8.705
 10
1060.52
 20
-8.705
 10
1060.52
 20
-8.734
  0
LWPOLYLINE
  5
1AB
330
17
100
AcDbEntity
  8
VISTA
100
AcDbPolyline
 90
8
 70
1
 10
1060.980001
 20
-10.7833
 10
1060.981701
 20
-10.785001
 10
1061.418301
 20
-10.785001
 10
1061.42
 20
-10.7833
 10
1061.42
 20
-8.8367
 10
1061.418301
 20
-8.835
 10
1060.980717
 20
-8.835314
 10
1060.980001
 20
-10.7833
  0
LWPOLYLINE
  5
1AC
330
17
100
AcDbEntity
  8
VISTA
100
AcDbPolyline
 90
5
 70
1
 10
1061.791
 20
-12.184
 10
1061.790001
 20
-11.995
 10
1061.769001
 20
-11.996
 10
1061.769293
 20
-12.184708
 10
1061.791
 20
-12.184
  0
LWPOLYLINE
  5
1AD
330
17
100
AcDbEntity
  8
VISTA
100
AcDbPolyline
 90
5
 70
1
 10
1061.7225
 20
-12.179999
 10
1061.7145
 20
-12.181
 10
1061.7145467373175
 20
-12.2
 10
1061.7226679061437
 20
-12.2
 10
1061.7225
 20
-12.179999
  0
LWPOLYLINE
  5
1AE
330
17
100
AcDbEntity
  8
VISTA
100
AcDbPolyline
 90
5
 70
1
 10
1061.8445
 20
-12.179999
 10
1061.8365
 20
-12.181
 10
1061.8365467373173
 20
-12.2
 10
1061.8446679061437
 20
-12.2
 10
1061.8445
 20
-12.179999
  0
LWPOLYLINE
  5
1AF
330
17
100
AcDbEntity
  8
VISTA
100
AcDbPolyline
 90
5
 70
1
 10
1061.102499
 20
-10.5796
 10
1061.1336000000001
 20
-10.580001
 10
1061.134001
 20
-10.040401
 10
1061.1029
 20
-10.040401
 10
1061.102499
 20
-10.5796
  0
LWPOLYLINE
  5
1B0
330
17
100
AcDbEntity
  8
VISTA
100
AcDbPolyline
 90
5
 70
1
 10
1061.071001
 20
-10.5735
 10
1061.0725
 20
-10.573999
 10
1061.073
 20
-10.0665
 10
1061.071501
 20
-10.066146
 10
1061.071001
 20
-10.5735
  0
LWPOLYLINE
  5
1B1
330
17
100
AcDbEntity
  8
VISTA
100
AcDbPolyline
 90
5
 70
1
 10
1061.07
 20
-10.529699
 10
1061.071699
 20
-10.53
 10
1061.071999
 20
-10.1103
 10
1061.070299
 20
-10.1103
 10
1061.07
 20
-10.529699
  0
LWPOLYLINE
  5
1B2
330
17
100
AcDbEntity
  8
VISTA
100
AcDbPolyline
 90
5
 70
1
 10
1061.07
 20
-10.529699
 10
1061.071699
 20
-10.53
 10
1061.071999
 20
-10.1103
 10
1061.070299
 20
-10.1103
 10
1061.07
 20
-10.529699
  0
LWPOLYLINE
  5
1B3
330
17
100
AcDbEntity
  8
VISTA
100
AcDbPolyline
 90
5
 70
1
 10
1061.07
 20
-10.529699
 10
1061.071699
 20
-10.53
 10
1061.071999
 20
-10.1103
 10
1061.070299
 20
-10.1103
 10
1061.07
 20
-10.529699
  0
LWPOLYLINE
  5
1B4
330
17
100
AcDbEntity
  8
VISTA
100
AcDbPolyline
 90
7
 70
1
 10
1058.91617
 20
-8.773829
 10
1058.918999
 20
-8.775
 10
1059.343315
 20
-8.774261
 10
1059.344999
 20
-8.771
 10
1059.3443314301314
 20
-8.55
 10
1058.9150994459053
 20
-8.55
 10
1058.91617
 20
-8.773829
  0
LWPOLYLINE
  5
1B5
330
17
100
AcDbEntity
  8
VISTA
100
AcDbPolyline
 90
4
 70
1
 10
1058.916689
 20
-8.773309
 10
1058.917204
 20
-8.773527
 10
1058.916471
 20
-8.773527
 10
1058.916689
 20
-8.773309
  0
LWPOLYLINE
  5
1B6
330
17
100
AcDbEntity
  8
VISTA
100
AcDbPolyline
 90
4
 70
1
 10
1059.343527
 20
-8.773527
 10
1059.342794
 20
-8.773527
 10
1059.343309
 20
-8.773309
 10
1059.343527
 20
-8.773527
  0
LWPOLYLINE
  5
1B7
330
17
100
AcDbEntity
  8
VISTA
100
AcDbPolyline
 90
20
 70
1
 10
1058.507139
 20
-10.45371
 10
1058.539515
 20
-10.449796
 10
1058.561417
 20
-10.443141
 10
1058.577641
 20
-10.433501
 10
1058.589872
 20
-10.420434
 10
1058.598898
 20
-10.403104
 10
1058.605127
 20
-10.379708
 10
1058.608791
 20
-10.345126
 10
1058.610001
 20
-10.22
 10
1058.608789
 20
-10.094874
 10
1058.605127
 20
-10.060292
 10
1058.598896
 20
-10.036897
 10
1058.589872
 20
-10.019567
 10
1058.577641
 20
-10.006499
 10
1058.561415
 20
-9.99686
 10
1058.539513
 20
-9.990205
 10
1058.507139
 20
-9.986291
 10
1058.4
 20
-9.985110221026122
 10
1058.4
 20
-10.454890799134354
 10
1058.507139
 20
-10.45371
  0
LWPOLYLINE
  5
1B8
330
17
100
AcDbEntity
  8
VISTA
100
AcDbPolyline
 90
4
 70
1
 10
1058.5036937327777
 20
-10.11332385738986
 10
1058.5036937327777
 20
-10.113323857389862
 10
1058.5036937327777
 20
-10.113323857389863
 10
1058.5036937327777
 20
-10.11332385738986
  0
LWPOLYLINE
  5
1B9
330
17
100
AcDbEntity
  8
VISTA
100
AcDbPolyline
 90
20
 70
1
 10
1058.507139
 20
-11.433709
 10
1058.539515
 20
-11.429795
 10
1058.561417
 20
-11.423141
 10
1058.577641
 20
-11.413501
 10
1058.589872
 20
-11.400434
 10
1058.598898
 20
-11.383103
 10
1058.605127
 20
-11.359708
 10
1058.608791
 20
-11.325126
 10
1058.610001
 20
-11.2
 10
1058.608789
 20
-11.074874
 10
1058.605127
 20
-11.040292
 10
1058.598896
 20
-11.016896
 10
1058.589872
 20
-10.999566
 10
1058.577641
 20
-10.986499
 10
1058.561415
 20
-10.976859
 10
1058.539513
 20
-10.970204
 10
1058.507139
 20
-10.96629
 10
1058.4
 20
-10.965109221026124
 10
1058.4
 20
-11.434889799134355
 10
1058.507139
 20
-11.433709
  0
LWPOLYLINE
  5
1BA
330
17
100
AcDbEntity
  8
VISTA
100
AcDbPolyline
 90
4
 70
1
 10
1058.497779509821
 20
-11.084871318574573
 10
1058.497779509821
 20
-11.084871318574569
 10
1058.497779509821
 20
-11.08487131857457
 10
1058.497779509821
 20
-11.084871318574573
  0
LWPOLYLINE
  5
1BB
330
17
100
AcDbEntity
  8
VISTA
100
AcDbPolyline
 90
5
 70
1
 10
1061.074999
 20
-10.533999
 10
1061.073999
 20
-10.105
 10
1061.066999
 20
-10.106
 10
1061.067293
 20
-10.534707
 10
1061.074999
 20
-10.533999
  0
LWPOLYLINE
  5
1BC
330
17
100
AcDbEntity
  8
VISTA
100
AcDbPolyline
 90
6
 70
1
 10
1061.087
 20
-11.443
 10
1061.087
 20
-11.037
 10
1061.084999
 20
-11.035
 10
1061.082998
 20
-11.037
 10
1061.083586
 20
-11.444414
 10
1061.087
 20
-11.443
  0
LWPOLYLINE
  5
1BD
330
17
100
AcDbEntity
  8
VISTA
100
AcDbPolyline
 90
8
 70
1
 10
1061.108002
 20
-11.575
 10
1061.111
 20
-11.572
 10
1061.111
 20
-10.908
 10
1061.108002
 20
-10.905
 10
1061.09
 20
-10.905
 10
1061.087002
 20
-10.908
 10
1061.087879
 20
-11.574121
 10
1061.108002
 20
-11.575
  0
LWPOLYLINE
  5
1BE
330
17
100
AcDbEntity
  8
VISTA
100
AcDbPolyline
 90
5
 70
1
 10
1061.072001
 20
-10.561999
 10
1061.071001
 20
-10.077
 10
1061.064001
 20
-10.078
 10
1061.064293
 20
-10.562707
 10
1061.072001
 20
-10.561999
  0
LWPOLYLINE
  5
1BF
330
17
100
AcDbEntity
  8
VISTA
100
AcDbPolyline
 90
5
 70
1
 10
1061.109999
 20
-11.5745
 10
1061.1145
 20
-11.575
 10
1061.115
 20
-10.905499
 10
1061.110498
 20
-10.905147
 10
1061.109999
 20
-11.5745
  0
LWPOLYLINE
  5
1C0
330
17
100
AcDbEntity
  8
VISTA
100
AcDbPolyline
 90
8
 70
1
 10
1061.032499
 20
-10.5083
 10
1061.034201
 20
-10.509999
 10
1061.055799
 20
-10.509999
 10
1061.057501
 20
-10.5083
 10
1061.057501
 20
-10.1317
 10
1061.055799
 20
-10.13
 10
1061.033216
 20
-10.130314
 10
1061.032499
 20
-10.5083
  0
LWPOLYLINE
  5
1C1
330
17
100
AcDbEntity
  8
VISTA
100
AcDbPolyline
 90
8
 70
1
 10
1061.076
 20
-9.3183
 10
1061.0777
 20
-9.32
 10
1061.098299
 20
-9.32
 10
1061.099998
 20
-9.3183
 10
1061.099998
 20
-9.0217
 10
1061.098299
 20
-9.02
 10
1061.076715
 20
-9.020314
 10
1061.076
 20
-9.3183
  0
LWPOLYLINE
  5
1C2
330
17
100
AcDbEntity
  8
VISTA
100
AcDbPolyline
 90
8
 70
1
 10
1061.076
 20
-9.8883
 10
1061.0777
 20
-9.889999
 10
1061.098299
 20
-9.889999
 10
1061.099998
 20
-9.8883
 10
1061.099998
 20
-9.5917
 10
1061.098299
 20
-9.59
 10
1061.076715
 20
-9.590314
 10
1061.076
 20
-9.8883
  0
LWPOLYLINE
  5
1C3
330
17
100
AcDbEntity
  8
VISTA
100
AcDbPolyline
 90
5
 70
1
 10
1061.679415
 20
-10.573414
 10
1061.679415
 20
-10.066586
 10
1061.091585
 20
-10.066586
 10
1061.091585
 20
-10.573414
 10
1061.679415
 20
-10.573414
  0
LWPOLYLINE
  5
1C4
330
17
100
AcDbEntity
  8
VISTA
100
AcDbPolyline
 90
5
 70
1
 10
1061.071001
 20
-10.5735
 10
1061.0725
 20
-10.573999
 10
1061.073
 20
-10.0665
 10
1061.071501
 20
-10.066146
 10
1061.071001
 20
-10.5735
  0
LWPOLYLINE
  5
1C5
330
17
100
AcDbEntity
  8
VISTA
100
AcDbPolyline
 90
8
 70
1
 10
1061.073
 20
-10.5783
 10
1061.074701
 20
-10.58
 10
1061.0893
 20
-10.58
 10
1061.091002
 20
-10.5783
 10
1061.091002
 20
-10.0617
 10
1061.0893
 20
-10.059999
 10
1061.073717
 20
-10.060313
 10
1061.073
 20
-10.5783
  0
LWPOLYLINE
  5
1C6
330
17
100
AcDbEntity
  8
VISTA
100
AcDbPolyline
 90
8
 70
1
 10
1061.047001
 20
-9.488
 10
1061.050001
 20
-9.485
 10
1061.050001
 20
-9.474999
 10
1061.047001
 20
-9.471999
 10
1060.833
 20
-9.471999
 10
1060.83
 20
-9.474999
 10
1060.830879
 20
-9.487121
 10
1061.047001
 20
-9.488
  0
LWPOLYLINE
  5
1C7
330
17
100
AcDbEntity
  8
VISTA
100
AcDbPolyline
 90
5
 70
1
 10
1061.102499
 20
-10.5796
 10
1061.1336000000001
 20
-10.580001
 10
1061.134001
 20
-10.040401
 10
1061.1029
 20
-10.040401
 10
1061.102499
 20
-10.5796
  0
LWPOLYLINE
  5
1C8
330
17
100
AcDbEntity
  8
VISTA
100
AcDbPolyline
 90
12
 70
1
 10
1061.102501
 20
-9.437
 10
1061.10338
 20
-9.439121
 10
1061.105501
 20
-9.440001
 10
1061.134501
 20
-9.440001
 10
1061.136621
 20
-9.439121
 10
1061.137501
 20
-9.437
 10
1061.137501
 20
-8.903
 10
1061.136621
 20
-8.900879
 10
1061.134501
 20
-8.9
 10
1061.105501
 20
-8.9
 10
1061.10338
 20
-8.900879
 10
1061.102501
 20
-9.437
  0
LWPOLYLINE
  5
1C9
330
17
100
AcDbEntity
  8
VISTA
100
AcDbPolyline
 90
4
 70
1
 10
1061.103998
 20
-9.438503
 10
1061.103998
 20
-9.439117
 10
1061.10338
 20
-9.439121
 10
1061.103998
 20
-9.438503
  0
LWPOLYLINE
  5
1CA
330
17
100
AcDbEntity
  8
VISTA
100
AcDbPolyline
 90
4
 70
1
 10
1061.136003
 20
-9.438503
 10
1061.136618
 20
-9.438503
 10
1061.136621
 20
-9.439121
 10
1061.136003
 20
-9.438503
  0
LWPOLYLINE
  5
1CB
330
17
100
AcDbEntity
  8
VISTA
100
AcDbPolyline
 90
4
 70
1
 10
1061.136003
 20
-8.901497
 10
1061.136003
 20
-8.900883
 10
1061.136621
 20
-8.900879
 10
1061.136003
 20
-8.901497
  0
LWPOLYLINE
  5
1CC
330
17
100
AcDbEntity
  8
VISTA
100
AcDbPolyline
 90
4
 70
1
 10
1061.103998
 20
-8.901497
 10
1061.103384
 20
-8.901497
 10
1061.10338
 20
-8.900879
 10
1061.103998
 20
-8.901497
  0
LWPOLYLINE
  5
1CD
330
17
100
AcDbEntity
  8
VISTA
100
AcDbPolyline
 90
12
 70
1
 10
1061.102501
 20
-10.007
 10
1061.10338
 20
-10.009121
 10
1061.105501
 20
-10.01
 10
1061.134501
 20
-10.01
 10
1061.136621
 20
-10.009121
 10
1061.137501
 20
-10.007
 10
1061.137501
 20
-9.473
 10
1061.136621
 20
-9.470879
 10
1061.134501
 20
-9.469999
 10
1061.105501
 20
-9.469999
 10
1061.10338
 20
-9.470879
 10
1061.102501
 20
-10.007
  0
LWPOLYLINE
  5
1CE
330
17
100
AcDbEntity
  8
VISTA
100
AcDbPolyline
 90
4
 70
1
 10
1061.103998
 20
-10.008503
 10
1061.103998
 20
-10.009117
 10
1061.10338
 20
-10.009121
 10
1061.103998
 20
-10.008503
  0
LWPOLYLINE
  5
1CF
330
17
100
AcDbEntity
  8
VISTA
100
AcDbPolyline
 90
4
 70
1
 10
1061.136003
 20
-10.008503
 10
1061.136618
 20
-10.008503
 10
1061.136621
 20
-10.009121
 10
1061.136003
 20
-10.008503
  0
LWPOLYLINE
  5
1D0
330
17
100
AcDbEntity
  8
VISTA
100
AcDbPolyline
 90
4
 70
1
 10
1061.136003
 20
-9.471497
 10
1061.136003
 20
-9.470882
 10
1061.136621
 20
-9.470879
 10
1061.136003
 20
-9.471497
  0
LWPOLYLINE
  5
1D1
330
17
100
AcDbEntity
  8
VISTA
100
AcDbPolyline
 90
4
 70
1
 10
1061.103998
 20
-9.471497
 10
1061.103384
 20
-9.471497
 10
1061.10338
 20
-9.470879
 10
1061.103998
 20
-9.471497
  0
LWPOLYLINE
  5
1D2
330
17
100
AcDbEntity
  8
VISTA
100
AcDbPolyline
 90
8
 70
1
 10
1061.122
 20
-9.469
 10
1061.125
 20
-9.466
 10
1061.125
 20
-9.452
 10
1061.122
 20
-9.448999
 10
1060.76
 20
-9.448999
 10
1060.757
 20
-9.452
 10
1060.757879
 20
-9.468121
 10
1061.122
 20
-9.469
  0
LWPOLYLINE
  5
1D3
330
17
100
AcDbEntity
  8
VISTA
100
AcDbPolyline
 90
5
 70
1
 10
1061.134123
 20
-9.454122
 10
1061.134123
 20
-8.885879
 10
1060.765879
 20
-8.885879
 10
1060.765879
 20
-9.454122
 10
1061.134123
 20
-9.454122
  0
LWPOLYLINE
  5
1D4
330
17
100
AcDbEntity
  8
VISTA
100
AcDbPolyline
 90
10
 70
1
 10
1061.136106
 20
-10.802474
 10
1061.140999
 20
-10.805
 10
1061.782473
 20
-10.803893
 10
1061.785
 20
-10.799001
 10
1061.783892
 20
-8.817527
 10
1061.778999
 20
-8.815001
 10
1061.140999
 20
-8.815001
 10
1061.136757
 20
-8.816758
 10
1061.134998
 20
-8.821
 10
1061.136106
 20
-10.802474
  0
LWPOLYLINE
  5
1D5
330
17
100
AcDbEntity
  8
VISTA
100
AcDbPolyline
 90
21
 70
1
 10
1058.525167
 20
-10.363685
 10
1058.527439
 20
-10.400325
 10
1058.530817
 20
-10.417562
 10
1058.538486
 20
-10.436765
 10
1058.547499
 20
-10.442939
 10
1058.580181
 20
-10.444999
 10
1058.612513
 20
-10.442939
 10
1058.620983
 20
-10.436765
 10
1058.629633
 20
-10.417562
 10
1058.634991
 20
-10.363685
 10
1058.635023
 20
-10.076312
 10
1058.63039
 20
-10.027915
 10
1058.621536
 20
-10.003232
 10
1058.612396
 20
-9.997058
 10
1058.579782
 20
-9.994998
 10
1058.547457
 20
-9.997058
 10
1058.538988
 20
-10.003232
 10
1058.533297
 20
-10.013515
 10
1058.529341
 20
-10.027915
 10
1058.525177
 20
-10.076312
 10
1058.525167
 20
-10.363685
  0
LWPOLYLINE
  5
1D6
330
17
100
AcDbEntity
  8
VISTA
100
AcDbPolyline
 90
21
 70
1
 10
1058.525167
 20
-11.343686
 10
1058.527439
 20
-11.380326
 10
1058.530817
 20
-11.397563
 10
1058.538486
 20
-11.416766
 10
1058.547499
 20
-11.42294
 10
1058.580181
 20
-11.425
 10
1058.612513
 20
-11.42294
 10
1058.620983
 20
-11.416766
 10
1058.629633
 20
-11.397563
 10
1058.634991
 20
-11.343686
 10
1058.635023
 20
-11.056314
 10
1058.63039
 20
-11.007916
 10
1058.621536
 20
-10.983233
 10
1058.612396
 20
-10.977059
 10
1058.579782
 20
-10.974999
 10
1058.547457
 20
-10.977059
 10
1058.538988
 20
-10.983233
 10
1058.53039
 20
-11.002437
 10
1058.52746
 20
-11.019673
 10
1058.524343
 20
-11.087426
 10
1058.525167
 20
-11.343686
  0
LWPOLYLINE
  5
1D7
330
17
100
AcDbEntity
  8
VISTA
100
AcDbPolyline
 90
4
 70
1
 10
1058.5801939832393
 20
-11.424996115963864
 10
1058.5801939832393
 20
-11.424996115963864
 10
1058.580181
 20
-11.425
 10
1058.5801939832393
 20
-11.424996115963864
  0
LWPOLYLINE
  5
1D8
330
17
100
AcDbEntity
  8
VISTA
100
AcDbPolyline
 90
14
 70
1
 10
1061.07
 20
-9.48
 10
1061.071108
 20
-10.817474
 10
1061.076
 20
-10.820001
 10
1061.787474
 20
-10.818892
 10
1061.790001
 20
-10.814
 10
1061.788893
 20
-8.802526
 10
1061.784
 20
-8.8
 10
1061.076
 20
-8.8
 10
1061.071758
 20
-8.801758
 10
1061.07
 20
-8.806001
 10
1061.07
 20
-8.86
 10
1060.74
 20
-8.86
 10
1060.74
 20
-9.48
 10
1061.07
 20
-9.48
  0
LWPOLYLINE
  5
1D9
330
17
100
AcDbEntity
  8
VISTA
100
AcDbPolyline
 90
7
 70
1
 10
1061.205
 20
-9.48
 10
1061.300001
 20
-9.48
 10
1061.300001
 20
-9.219999
 10
1061.635
 20
-9.219999
 10
1061.635
 20
-9.58
 10
1061.205
 20
-9.58
 10
1061.205
 20
-9.48
  0
LWPOLYLINE
  5
1DA
330
17
100
AcDbEntity
  8
VISTA
100
AcDbPolyline
 90
5
 70
1
 10
1061.66456
 20
-10.55956
 10
1061.66456
 20
-10.08044
 10
1061.135439
 20
-10.08044
 10
1061.135439
 20
-10.55956
 10
1061.66456
 20
-10.55956
  0
LWPOLYLINE
  5
1DB
330
17
100
AcDbEntity
  8
VISTA
100
AcDbPolyline
 90
44
 70
1
 10
1061.195013
 20
-9.282079
 10
1061.189438
 20
-9.3049
 10
1061.186108
 20
-9.334738
 10
1061.186108
 20
-9.465262
 10
1061.189438
 20
-9.495099
 10
1061.195013
 20
-9.517921
 10
1061.202875
 20
-9.536604
 10
1061.213093
 20
-9.552221
 10
1061.225784
 20
-9.56529
 10
1061.24114
 20
-9.576091
 10
1061.259491
 20
-9.584787
 10
1061.281443
 20
-9.591477
 10
1061.308258
 20
-9.596223
 10
1061.343317
 20
-9.599057
 10
1061.496683
 20
-9.599057
 10
1061.531742
 20
-9.596223
 10
1061.558558
 20
-9.591477
 10
1061.580509
 20
-9.584787
 10
1061.59886
 20
-9.576091
 10
1061.614216
 20
-9.56529
 10
1061.626907
 20
-9.552221
 10
1061.637125
 20
-9.536604
 10
1061.644987
 20
-9.517921
 10
1061.650562
 20
-9.495099
 10
1061.653893
 20
-9.465262
 10
1061.653893
 20
-9.334738
 10
1061.650562
 20
-9.3049
 10
1061.644987
 20
-9.282079
 10
1061.637125
 20
-9.263396
 10
1061.626907
 20
-9.247779
 10
1061.614216
 20
-9.23471
 10
1061.59886
 20
-9.223909
 10
1061.580509
 20
-9.215213
 10
1061.558558
 20
-9.208522
 10
1061.496683
 20
-9.200943
 10
1061.343317
 20
-9.200943
 10
1061.308258
 20
-9.203777
 10
1061.281443
 20
-9.208522
 10
1061.259491
 20
-9.215213
 10
1061.24114
 20
-9.223909
 10
1061.225784
 20
-9.23471
 10
1061.213093
 20
-9.247779
 10
1061.202875
 20
-9.263396
 10
1061.195013
 20
-9.282079
  0
LWPOLYLINE
  5
1DC
330
17
100
AcDbEntity
  8
VISTA
100
AcDbPolyline
 90
4
 70
1
 10
1061.4791708852792
 20
-9.24640350497776
 10
1061.479170885268
 20
-9.246403505006555
 10
1061.4791708852747
 20
-9.246403504989662
 10
1061.4791708852792
 20
-9.24640350497776
  0
LWPOLYLINE
  5
1DD
330
17
100
AcDbEntity
  8
VISTA
100
AcDbPolyline
 90
4
 70
1
 10
1061.2658887366456
 20
-9.33643315781366
 10
1061.2658887366044
 20
-9.336433157796717
 10
1061.265888736647
 20
-9.336433157814211
 10
1061.2658887366456
 20
-9.33643315781366
  0
LWPOLYLINE
  5
1DE
330
17
100
AcDbEntity
  8
VISTA
100
AcDbPolyline
 90
9
 70
1
 10
1061.66
 20
-9.415
 10
1061.672991
 20
-9.4075
 10
1061.672991
 20
-9.3925
 10
1061.66
 20
-9.385
 10
1061.440001
 20
-9.385
 10
1061.429607
 20
-9.3925
 10
1061.429607
 20
-9.4075
 10
1061.440001
 20
-9.415
 10
1061.66
 20
-9.415
  0
LWPOLYLINE
  5
1DF
330
17
100
AcDbEntity
  8
CORTE
100
AcDbPolyline
 90
24
 70
1
 10
1061.799999
 20
-9.563240957536824
 10
1061.799999
 20
-11.995501
 10
1061.8004932199938
 20
-11.997047813538076
 10
1061.800831
 20
-11.998105
 10
1061.8011196910059
 20
-11.998447746317769
 10
1061.801317
 20
-11.998682
 10
1061.801660340332
 20
-11.998971285020371
 10
1061.801895
 20
-11.999169
 10
1061.803441813538
 20
-11.999662625979317
 10
1061.804499
 20
-12.0
 10
1061.9179569413977
 20
-12.0
 10
1061.995501
 20
-12.0
 10
1061.9970472195237
 20
-11.999506374020683
 10
1061.998104
 20
-11.999169
 10
1061.9984473403322
 20
-11.99887971497963
 10
1061.998682
 20
-11.998682
 10
1061.998879308994
 20
-11.998447746317769
 10
1061.999168
 20
-11.998105
 10
1061.9995057800063
 20
-11.997047813538076
 10
1062.0
 20
-11.995501
 10
1062.0
 20
-9.563240957536824
 10
1062.0
 20
-8.55
 10
1061.799999
 20
-8.55
 10
1061.799999
 20
-9.563240957536824
  0
LWPOLYLINE
  5
1E0
330
17
100
AcDbEntity
  8
CORTE
100
AcDbPolyline
 90
41
 70
1
 10
1061.4010295269509
 20
-11.80165974631777
 10
1061.400831
 20
-11.801894
 10
1061.4003385620495
 20
-11.803442001566907
 10
1061.400002
 20
-11.8045
 10
1061.400002
 20
-11.91795675336885
 10
1061.400002
 20
-11.9955
 10
1061.4004944379506
 20
-11.997047407552492
 10
1061.400831
 20
-11.998105
 10
1061.4011214730492
 20
-11.998447746317769
 10
1061.40132
 20
-11.998682
 10
1061.4016621523033
 20
-11.998970691005955
 10
1061.401896
 20
-11.999168
 10
1061.4034434075525
 20
-11.999662219993732
 10
1061.404501
 20
-12.0
 10
1061.7555635195863
 20
-12.0
 10
1061.995501
 20
-12.0
 10
1061.9970484075525
 20
-11.999505780006267
 10
1061.998106
 20
-11.999168
 10
1061.9984481523034
 20
-11.998879308994045
 10
1061.998682
 20
-11.998682
 10
1061.9988801209652
 20
-11.998447746317769
 10
1061.99917
 20
-11.998105
 10
1061.9995069680351
 20
-11.997047407552492
 10
1062.0
 20
-11.9955
 10
1062.0
 20
-11.91795675336885
 10
1062.0
 20
-11.8045
 10
1061.999663031965
 20
-11.803442001566907
 10
1061.99917
 20
-11.801894
 10
1061.9989718790348
 20
-11.80165974631777
 10
1061.998682
 20
-11.801317
 10
1061.9984481523034
 20
-11.801119691005955
 10
1061.998106
 20
-11.800831
 10
1061.9970484075525
 20
-11.800493219993733
 10
1061.995501
 20
-11.799999
 10
1061.7555635195863
 20
-11.799999
 10
1061.404501
 20
-11.799999
 10
1061.4034434075525
 20
-11.800336780006267
 10
1061.401896
 20
-11.800831
 10
1061.4016621523033
 20
-11.801028308994045
 10
1061.40132
 20
-11.801317
 10
1061.4010295269509
 20
-11.80165974631777
  0
LWPOLYLINE
  5
1E1
330
17
100
AcDbEntity
  8
VISTA
100
AcDbPolyline
 90
9
 70
1
 10
1061.195
 20
-11.9735
 10
1061.195
 20
-11.968964062992125
 10
1061.195
 20
-11.964499
 10
1060.350905511811
 20
-11.964499
 10
1059.52
 20
-11.964499
 10
1059.52
 20
-11.969034937007875
 10
1059.52
 20
-11.9735
 10
1060.364094488189
 20
-11.9735
 10
1061.195
 20
-11.9735
  0
LWPOLYLINE
  5
1E2
330
17
100
AcDbEntity
  8
VISTA
100
AcDbPolyline
 90
9
 70
1
 10
1061.192488
 20
-11.9995
 10
1061.192488
 20
-11.99496395636121
 10
1061.192488
 20
-11.990499
 10
1060.350905507862
 20
-11.990499
 10
1059.522512
 20
-11.990499
 10
1059.522512
 20
-11.99503504363879
 10
1059.522512
 20
-11.9995
 10
1060.3640944921378
 20
-11.9995
 10
1061.192488
 20
-11.9995
  0
LWPOLYLINE
  5
1E3
330
17
100
AcDbEntity
  8
VISTA
100
AcDbPolyline
 90
36
 70
1
 10
1061.153999
 20
-12.040501
 10
1061.154365085308
 20
-12.041649357030016
 10
1061.154737
 20
-12.042816
 10
1061.1549517898893
 20
-12.04307047393365
 10
1061.15517
 20
-12.043329
 10
1061.155375
 20
-12.0435
 10
1061.194489
 20
-12.0435
 10
1061.194489
 20
-12.0445
 10
1061.1947079011134
 20
-12.0445
 10
1061.232
 20
-12.0445
 10
1061.2331488530806
 20
-12.044133914691942
 10
1061.234316
 20
-12.043762
 10
1061.2345704739337
 20
-12.043547210110583
 10
1061.234829
 20
-12.043329
 10
1061.2350472101107
 20
-12.04307047393365
 10
1061.235262
 20
-12.042816
 10
1061.235633914692
 20
-12.041649357030016
 10
1061.236
 20
-12.040501
 10
1061.236
 20
-11.981538410742496
 10
1061.236
 20
-11.9235
 10
1061.235628085308
 20
-11.922333357030016
 10
1061.235262
 20
-11.921185
 10
1061.2350437898895
 20
-11.920925969984202
 10
1061.234829
 20
-11.920671
 10
1061.2345704739337
 20
-11.920452789889415
 10
1061.234316
 20
-11.920238
 10
1061.2331488530806
 20
-11.919866085308056
 10
1061.232
 20
-11.9195
 10
1061.218
 20
-11.9195
 10
1061.218
 20
-12.0105
 10
1061.153999
 20
-12.0105
 10
1061.153999
 20
-12.0175
 10
1061.197001
 20
-12.0175
 10
1061.197001
 20
-12.0305
 10
1061.153999
 20
-12.0305
 10
1061.153999
 20
-12.040501
  0
LWPOLYLINE
  5
1E4
330
17
100
AcDbEntity
  8
CORTE
100
AcDbPolyline
 90
22
 70
1
 10
1059.420832
 20
-8.571896
 10
1059.4203917168916
 20
-8.573274001459321
 10
1059.42
 20
-8.5745
 10
1059.42
 20
-8.643823951295149
 10
1059.42
 20
-8.705501
 10
1059.4204402831083
 20
-8.70687900145932
 10
1059.420832
 20
-8.708105
 10
1059.4210891846042
 20
-8.708410340569134
 10
1059.421318
 20
-8.708682
 10
1059.4216238697556
 20
-8.708939713790587
 10
1059.421896
 20
-8.709169
 10
1059.4232745306458
 20
-8.709608753921927
 10
1059.424501
 20
-8.71
 10
1059.549999
 20
-8.71
 10
1059.549999
 20
-8.570001
 10
1059.424501
 20
-8.570001
 10
1059.4232745306458
 20
-8.570391775264502
 10
1059.421896
 20
-8.570831
 10
1059.4216238697556
 20
-8.571060757022984
 10
1059.421318
 20
-8.571319
 10
1059.4210608153958
 20
-8.571624340569135
 10
1059.420832
 20
-8.571896
  0
LWPOLYLINE
  5
1E5
330
17
100
AcDbEntity
  8
CORTE
100
AcDbPolyline
 90
24
 70
1
 10
1061.9784113405692
 20
-8.571089242977017
 10
1061.978106
 20
-8.570831
 10
1061.976879059832
 20
-8.570440224735497
 10
1061.9755
 20
-8.570001
 10
1060.7744549570402
 20
-8.570001
 10
1060.52
 20
-8.570001
 10
1060.52
 20
-8.71
 10
1060.7744549570402
 20
-8.71
 10
1061.9755
 20
-8.71
 10
1061.976879059832
 20
-8.709560246078073
 10
1061.978106
 20
-8.709169
 10
1061.9784113405692
 20
-8.708911286209412
 10
1061.978683
 20
-8.708682
 10
1061.9789122862094
 20
-8.708410340569134
 10
1061.97917
 20
-8.708105
 10
1061.979561246078
 20
-8.70687900145932
 10
1061.980001
 20
-8.705501
 10
1061.980001
 20
-8.643823951295149
 10
1061.980001
 20
-8.5745
 10
1061.979609753922
 20
-8.573274001459321
 10
1061.97917
 20
-8.571896
 10
1061.9789407137905
 20
-8.571624340569135
 10
1061.978683
 20
-8.571319
 10
1061.9784113405692
 20
-8.571089242977017
  0
LWPOLYLINE
  5
1E6
330
17
100
AcDbEntity
  8
CORTE
100
AcDbPolyline
 90
22
 70
1
 10
1059.35
 20
-8.6355
 10
1059.3504377106894
 20
-8.63687377873039
 10
1059.35083
 20
-8.638105
 10
1059.351087352791
 20
-8.638408760671288
 10
1059.351318
 20
-8.638681
 10
1059.3516217606714
 20
-8.638938352790953
 10
1059.351894
 20
-8.639169
 10
1059.3532683060926
 20
-8.63960671068953
 10
1059.3545
 20
-8.639999
 10
1059.423584458227
 20
-8.639999
 10
1059.4855
 20
-8.639999
 10
1059.4868743060927
 20
-8.639561289310471
 10
1059.488106
 20
-8.639169
 10
1059.4884097606714
 20
-8.638911647209047
 10
1059.488682
 20
-8.638681
 10
1059.488912647209
 20
-8.638408760671288
 10
1059.48917
 20
-8.638105
 10
1059.4895622893105
 20
-8.63687377873039
 10
1059.49
 20
-8.6355
 10
1059.49
 20
-8.55
 10
1059.35
 20
-8.55
 10
1059.35
 20
-8.6355
  0
LWPOLYLINE
  5
1E7
330
17
100
AcDbEntity
  8
CORTE
100
AcDbPolyline
 90
41
 70
1
 10
1058.9810616472091
 20
-8.931622288033564
 10
1058.980831
 20
-8.931895
 10
1058.9803932893105
 20
-8.93326877873039
 10
1058.980001
 20
-8.9345
 10
1058.980001
 20
-9.003584458226925
 10
1058.980001
 20
-9.0655
 10
1058.9804387106894
 20
-9.06687377873039
 10
1058.980831
 20
-9.068105
 10
1058.981088352791
 20
-9.068409288033564
 10
1058.981319
 20
-9.068682
 10
1058.9816227606714
 20
-9.068938825428676
 10
1058.981895
 20
-9.069169
 10
1058.9832693060928
 20
-9.069607238051807
 10
1058.984501
 20
-9.07
 10
1059.2487089731849
 20
-9.07
 10
1059.4855
 20
-9.07
 10
1059.4868743060927
 20
-9.069561761948194
 10
1059.488106
 20
-9.069169
 10
1059.4884097606714
 20
-9.068912174571325
 10
1059.488682
 20
-9.068682
 10
1059.488912647209
 20
-9.068409288033564
 10
1059.48917
 20
-9.068105
 10
1059.4895622893105
 20
-9.06687377873039
 10
1059.49
 20
-9.0655
 10
1059.49
 20
-9.003584458226925
 10
1059.49
 20
-8.9345
 10
1059.4896077106896
 20
-8.93326877873039
 10
1059.48917
 20
-8.931895
 10
1059.488939352791
 20
-8.931622288033564
 10
1059.488682
 20
-8.931318
 10
1059.4884097606714
 20
-8.931087825428675
 10
1059.488106
 20
-8.930831
 10
1059.4868743060927
 20
-8.930438238051806
 10
1059.4855
 20
-8.93
 10
1059.2487089731849
 20
-8.93
 10
1058.984501
 20
-8.93
 10
1058.9832693060928
 20
-8.930392761948193
 10
1058.981895
 20
-8.930831
 10
1058.9816227606714
 20
-8.931061174571324
 10
1058.981319
 20
-8.931318
 10
1058.9810616472091
 20
-8.931622288033564
  0
LWPOLYLINE
  5
1E8
330
17
100
AcDbEntity
  8
VISTA
100
AcDbPolyline
 90
9
 70
1
 10
1061.195
 20
-12.028501
 10
1061.195
 20
-12.023965062992126
 10
1061.195
 20
-12.0195
 10
1060.350905511811
 20
-12.0195
 10
1059.52
 20
-12.0195
 10
1059.52
 20
-12.024035937007875
 10
1059.52
 20
-12.028501
 10
1060.364094488189
 20
-12.028501
 10
1061.195
 20
-12.028501
  0
LWPOLYLINE
  5
1E9
330
17
100
AcDbEntity
  8
VISTA
100
AcDbPolyline
 90
9
 70
1
 10
1061.192488
 20
-12.054501
 10
1061.192488
 20
-12.04996495636121
 10
1061.192488
 20
-12.0455
 10
1060.350905507862
 20
-12.0455
 10
1059.522512
 20
-12.0455
 10
1059.522512
 20
-12.05003604363879
 10
1059.522512
 20
-12.054501
 10
1060.3640944921378
 20
-12.054501
 10
1061.192488
 20
-12.054501
  0
LWPOLYLINE
  5
1EA
330
17
100
AcDbEntity
  8
VISTA
100
AcDbPolyline
 90
57
 70
1
 10
1059.531
 20
-11.8715
 10
1059.530849404762
 20
-11.868819404761904
 10
1059.530725
 20
-11.866605
 10
1059.5302792380953
 20
-11.864058571428572
 10
1059.529911
 20
-11.861955
 10
1059.5291936190476
 20
-11.859670333333334
 10
1059.528601
 20
-11.857783
 10
1059.527647047619
 20
-11.855875642857143
 10
1059.526859
 20
-11.8543
 10
1059.5257166666668
 20
-11.85286469047619
 10
1059.524773
 20
-11.851679
 10
1059.5234997857142
 20
-11.850788023809525
 10
1059.522448
 20
-11.850052
 10
1059.5211074285714
 20
-11.849749714285714
 10
1059.52
 20
-11.8495
 10
1059.5186599761905
 20
-11.849802285714286
 10
1059.517553
 20
-11.850052
 10
1059.5162797857142
 20
-11.850942976190476
 10
1059.515228
 20
-11.851679
 10
1059.5140856666667
 20
-11.85311430952381
 10
1059.513142
 20
-11.8543
 10
1059.512188047619
 20
-11.856207357142857
 10
1059.5114
 20
-11.857783
 10
1059.5106826190477
 20
-11.860067666666666
 10
1059.51009
 20
-11.861955
 10
1059.5096436904762
 20
-11.864501428571428
 10
1059.509275
 20
-11.866605
 10
1059.509124952381
 20
-11.869285595238095
 10
1059.509001
 20
-11.8715
 10
1059.509151047619
 20
-11.874180595238094
 10
1059.509275
 20
-11.876395
 10
1059.509721309524
 20
-11.878941428571428
 10
1059.51009
 20
-11.881045
 10
1059.5108073809524
 20
-11.883329666666667
 10
1059.5114
 20
-11.885217
 10
1059.5123539523809
 20
-11.887124357142858
 10
1059.513142
 20
-11.8887
 10
1059.5142843333333
 20
-11.89013530952381
 10
1059.515228
 20
-11.891321
 10
1059.5165012142857
 20
-11.892211976190476
 10
1059.517553
 20
-11.892948
 10
1059.5188930238096
 20
-11.893250285714286
 10
1059.52
 20
-11.8935
 10
1059.5213405714285
 20
-11.893197714285714
 10
1059.522448
 20
-11.892948
 10
1059.5237212142856
 20
-11.892057023809524
 10
1059.524773
 20
-11.891321
 10
1059.5259153333334
 20
-11.88988569047619
 10
1059.526859
 20
-11.8887
 10
1059.527812952381
 20
-11.886792642857143
 10
1059.528601
 20
-11.885217
 10
1059.5293183809524
 20
-11.882932333333335
 10
1059.529911
 20
-11.881045
 10
1059.5303567619048
 20
-11.878498571428572
 10
1059.530725
 20
-11.876395
 10
1059.530875595238
 20
-11.873714404761905
 10
1059.531
 20
-11.8715
  0
LWPOLYLINE
  5
1EB
330
17
100
AcDbEntity
  8
VISTA
100
AcDbPolyline
 90
41
 70
1
 10
1061.7685011237786
 20
-8.826694209011944
 10
1061.768332
 20
-8.826895
 10
1061.7677895287732
 20
-8.828593482627578
 10
1061.7675
 20
-8.8295
 10
1061.7675
 20
-10.147209554831704
 10
1061.7675
 20
-10.8505
 10
1061.7680424712269
 20
-10.852199134636265
 10
1061.768332
 20
-10.853106
 10
1061.7686488762215
 20
-10.853482209011943
 10
1061.768818
 20
-10.853683
 10
1061.7691948610207
 20
-10.854000528230184
 10
1061.769396
 20
-10.85417
 10
1061.7710944826276
 20
-10.854711167209555
 10
1061.772001
 20
-10.855
 10
1061.7824324869707
 20
-10.855
 10
1061.788
 20
-10.855
 10
1061.7896991346363
 20
-10.854458832790446
 10
1061.790606
 20
-10.85417
 10
1061.7909822090119
 20
-10.853852471769816
 10
1061.791183
 20
-10.853683
 10
1061.7913524717699
 20
-10.853482209011943
 10
1061.79167
 20
-10.853106
 10
1061.7919591807818
 20
-10.852199134636265
 10
1061.792501
 20
-10.8505
 10
1061.792501
 20
-10.147209554831704
 10
1061.792501
 20
-8.8295
 10
1061.7922118192182
 20
-8.828593482627578
 10
1061.79167
 20
-8.826895
 10
1061.7915005282302
 20
-8.826694209011944
 10
1061.791183
 20
-8.826318
 10
1061.7909822090119
 20
-8.82614818023887
 10
1061.790606
 20
-8.82583
 10
1061.7896991346363
 20
-8.825541167209554
 10
1061.788
 20
-8.825
 10
1061.7824324869707
 20
-8.825
 10
1061.772001
 20
-8.825
 10
1061.7710944826276
 20
-8.825288832790445
 10
1061.769396
 20
-8.82583
 10
1061.7691948610207
 20
-8.82599981976113
 10
1061.768818
 20
-8.826318
 10
1061.7685011237786
 20
-8.826694209011944
  0
LWPOLYLINE
  5
1EC
330
17
100
AcDbEntity
  8
VISTA
100
AcDbPolyline
 90
41
 70
1
 10
1061.053923211963
 20
-10.969585497289973
 10
1061.053814
 20
-10.969715
 10
1061.053686987805
 20
-10.970111761904763
 10
1061.053499
 20
-10.970699
 10
1061.053499
 20
-10.978199170925281
 10
1061.053499
 20
-10.9893
 10
1061.053626012195
 20
-10.989696761904762
 10
1061.053814
 20
-10.990284
 10
1061.0538877880372
 20
-10.990371497289974
 10
1061.053997
 20
-10.990501
 10
1061.0540853037166
 20
-10.990575191250484
 10
1061.054216
 20
-10.990685
 10
1061.054613165118
 20
-10.990811608981804
 10
1061.055201
 20
-10.990999
 10
1061.063909601239
 20
-10.990999
 10
1061.076799
 20
-10.990999
 10
1061.077196165118
 20
-10.990872391018195
 10
1061.077784
 20
-10.990685
 10
1061.0778723037165
 20
-10.990610808749516
 10
1061.078003
 20
-10.990501
 10
1061.078112211963
 20
-10.990371497289974
 10
1061.078186
 20
-10.990284
 10
1061.078373987805
 20
-10.989696761904762
 10
1061.078501
 20
-10.9893
 10
1061.078501
 20
-10.978199170925281
 10
1061.078501
 20
-10.970699
 10
1061.0783130121952
 20
-10.970111761904763
 10
1061.078186
 20
-10.969715
 10
1061.0780767880372
 20
-10.969585497289973
 10
1061.078003
 20
-10.969498
 10
1061.0778723037165
 20
-10.969388191250484
 10
1061.077784
 20
-10.969314
 10
1061.077196165118
 20
-10.969126608981805
 10
1061.076799
 20
-10.969
 10
1061.063909601239
 20
-10.969
 10
1061.055201
 20
-10.969
 10
1061.054613165118
 20
-10.969187391018195
 10
1061.054216
 20
-10.969314
 10
1061.0540853037166
 20
-10.969423808749516
 10
1061.053997
 20
-10.969498
 10
1061.053923211963
 20
-10.969585497289973
  0
LWPOLYLINE
  5
1ED
330
17
100
AcDbEntity
  8
VISTA
100
AcDbPolyline
 90
9
 70
1
 10
1061.400002
 20
-12.12
 10
1061.400002
 20
-12.105479515999999
 10
1061.400002
 20
-12.089999
 10
1061.370961032
 20
-12.089999
 10
1061.34
 20
-12.089999
 10
1061.34
 20
-12.104519484
 10
1061.34
 20
-12.12
 10
1061.369040968
 20
-12.12
 10
1061.400002
 20
-12.12
  0
LWPOLYLINE
  5
1EE
330
17
100
AcDbEntity
  8
VISTA
100
AcDbPolyline
 90
9
 70
1
 10
1059.620001
 20
-12.12
 10
1059.620001
 20
-12.105479515999999
 10
1059.620001
 20
-12.089999
 10
1059.600640516
 20
-12.089999
 10
1059.58
 20
-12.089999
 10
1059.58
 20
-12.104519484
 10
1059.58
 20
-12.12
 10
1059.599360484
 20
-12.12
 10
1059.620001
 20
-12.12
  0
LWPOLYLINE
  5
1EF
330
17
100
AcDbEntity
  8
VISTA
100
AcDbPolyline
 90
13
 70
1
 10
1061.110498
 20
-10.905001
 10
1061.1145
 20
-10.905001
 10
1061.114853
 20
-10.904854
 10
1061.115
 20
-10.9045
 10
1061.115
 20
-10.899501
 10
1061.114853
 20
-10.899147
 10
1061.1145
 20
-10.899
 10
1061.110498
 20
-10.899
 10
1061.110146
 20
-10.899147
 10
1061.109999
 20
-10.899501
 10
1061.109999
 20
-10.9045
 10
1061.110146
 20
-10.904854
 10
1061.110498
 20
-10.905001
  0
LWPOLYLINE
  5
1F0
330
17
100
AcDbEntity
  8
VISTA
100
AcDbPolyline
 90
13
 70
1
 10
1061.110498
 20
-11.581
 10
1061.1145
 20
-11.581
 10
1061.114853
 20
-11.580853
 10
1061.115
 20
-11.5805
 10
1061.115
 20
-11.5755
 10
1061.114853
 20
-11.575147
 10
1061.1145
 20
-11.575
 10
1061.110498
 20
-11.575
 10
1061.110146
 20
-11.575147
 10
1061.109999
 20
-11.5755
 10
1061.109999
 20
-11.5805
 10
1061.110146
 20
-11.580853
 10
1061.110498
 20
-11.581
  0
LWPOLYLINE
  5
1F1
330
17
100
AcDbEntity
  8
VISTA
100
AcDbPolyline
 90
13
 70
1
 10
1061.089502
 20
-11.575
 10
1061.1085
 20
-11.575
 10
1061.110268
 20
-11.574267
 10
1061.111
 20
-11.5725
 10
1061.111
 20
-10.907499
 10
1061.110268
 20
-10.905732
 10
1061.1085
 20
-10.905
 10
1061.089502
 20
-10.905
 10
1061.087734
 20
-10.905732
 10
1061.087002
 20
-10.907499
 10
1061.087002
 20
-11.5725
 10
1061.087734
 20
-11.574267
 10
1061.089502
 20
-11.575
  0
LWPOLYLINE
  5
1F2
330
17
100
AcDbEntity
  8
VISTA
100
AcDbPolyline
 90
13
 70
1
 10
1061.118002
 20
-11.594999
 10
1061.782
 20
-11.594999
 10
1061.784121
 20
-11.594121
 10
1061.785
 20
-11.591999
 10
1061.785
 20
-10.888
 10
1061.784121
 20
-10.885879
 10
1061.782
 20
-10.885
 10
1061.118002
 20
-10.885
 10
1061.115881
 20
-10.885879
 10
1061.115002
 20
-10.888
 10
1061.115002
 20
-11.591999
 10
1061.115881
 20
-11.594121
 10
1061.118002
 20
-11.594999
  0
LWPOLYLINE
  5
1F3
330
17
100
AcDbEntity
  8
VISTA
100
AcDbPolyline
 90
13
 70
1
 10
1059.500586
 20
-11.912086
 10
1059.5
 20
-11.9135
 10
1059.5
 20
-11.9545
 10
1059.500586
 20
-11.955914
 10
1059.502001
 20
-11.9565
 10
1059.538
 20
-11.9565
 10
1059.539415
 20
-11.955914
 10
1059.540001
 20
-11.9545
 10
1059.540001
 20
-11.9135
 10
1059.539415
 20
-11.912086
 10
1059.538
 20
-11.9115
 10
1059.502001
 20
-11.9115
 10
1059.500586
 20
-11.912086
  0
LWPOLYLINE
  5
1F4
330
17
100
AcDbEntity
  8
VISTA
100
AcDbPolyline
 90
13
 70
1
 10
1061.175585
 20
-11.912086
 10
1061.174999
 20
-11.9135
 10
1061.174999
 20
-11.9545
 10
1061.175585
 20
-11.955914
 10
1061.177
 20
-11.9565
 10
1061.212999
 20
-11.9565
 10
1061.214415
 20
-11.955914
 10
1061.215
 20
-11.9545
 10
1061.215
 20
-11.9135
 10
1061.214415
 20
-11.912086
 10
1061.212999
 20
-11.9115
 10
1061.177
 20
-11.9115
 10
1061.175585
 20
-11.912086
  0
LWPOLYLINE
  5
1F5
330
17
100
AcDbEntity
  8
VISTA
100
AcDbPolyline
 90
13
 70
1
 10
1061.083378
 20
-11.877378
 10
1061.082499
 20
-11.8795
 10
1061.082499
 20
-11.898499
 10
1061.083378
 20
-11.900621
 10
1061.085499
 20
-11.9015
 10
1061.1045
 20
-11.9015
 10
1061.106621
 20
-11.900621
 10
1061.1075
 20
-11.898499
 10
1061.1075
 20
-11.8795
 10
1061.106621
 20
-11.877378
 10
1061.1045
 20
-11.8765
 10
1061.085499
 20
-11.8765
 10
1061.083378
 20
-11.877378
  0
LWPOLYLINE
  5
1F6
330
17
100
AcDbEntity
  8
VISTA
100
AcDbPolyline
 90
13
 70
1
 10
1059.552
 20
-8.73
 10
1059.582998
 20
-8.73
 10
1059.584414
 20
-8.729415
 10
1059.584999
 20
-8.728001
 10
1059.584999
 20
-8.552
 10
1059.584414
 20
-8.550586
 10
1059.582998
 20
-8.55
 10
1059.552
 20
-8.55
 10
1059.550585
 20
-8.550586
 10
1059.549999
 20
-8.552
 10
1059.549999
 20
-8.728001
 10
1059.550585
 20
-8.729415
 10
1059.552
 20
-8.73
  0
LWPOLYLINE
  5
1F7
330
17
100
AcDbEntity
  8
VISTA
100
AcDbPolyline
 90
13
 70
1
 10
1060.487001
 20
-8.73
 10
1060.518
 20
-8.73
 10
1060.519415
 20
-8.729415
 10
1060.52
 20
-8.728001
 10
1060.52
 20
-8.552
 10
1060.519415
 20
-8.550586
 10
1060.518
 20
-8.55
 10
1060.487001
 20
-8.55
 10
1060.485586
 20
-8.550586
 10
1060.485001
 20
-8.552
 10
1060.485001
 20
-8.728001
 10
1060.485586
 20
-8.729415
 10
1060.487001
 20
-8.73
  0
LWPOLYLINE
  5
1F8
330
17
100
AcDbEntity
  8
VISTA
100
AcDbPolyline
 90
15
 70
1
 10
1060.533001
 20
-8.785001
 10
1060.5710925603375
 20
-8.785001
 10
1061.577
 20
-8.785001
 10
1061.579121
 20
-8.784122
 10
1061.58
 20
-8.782001
 10
1061.58
 20
-8.748
 10
1061.579121
 20
-8.745879
 10
1061.577
 20
-8.745
 10
1060.5710925603375
 20
-8.745
 10
1060.533001
 20
-8.745
 10
1060.53088
 20
-8.745879
 10
1060.530001
 20
-8.748
 10
1060.530001
 20
-8.782001
 10
1060.53088
 20
-8.784122
 10
1060.533001
 20
-8.785001
  0
LWPOLYLINE
  5
1F9
330
17
100
AcDbEntity
  8
VISTA
100
AcDbPolyline
 90
8
 70
1
 10
1061.807501
 20
-12.192369
 10
1061.794235
 20
-12.186873
 10
1061.780001
 20
-12.184999
 10
1061.765766
 20
-12.186873
 10
1061.752501
 20
-12.192369
 10
1061.7425553797482
 20
-12.2
 10
1061.8174466202518
 20
-12.2
 10
1061.807501
 20
-12.192369
  0
LWPOLYLINE
  5
1FA
330
17
100
AcDbEntity
  8
VISTA
100
AcDbPolyline
 90
5
 70
1
 10
1061.221001
 20
-11.870501
 10
1061.221001
 20
-12.0135
 10
1061.236
 20
-12.0135
 10
1061.236
 20
-11.870501
 10
1061.221001
 20
-11.870501
  0
LWPOLYLINE
  5
1FB
330
17
100
AcDbEntity
  8
VISTA
100
AcDbPolyline
 90
5
 70
1
 10
1059.52
 20
-11.9625
 10
1059.52
 20
-11.964499
 10
1059.530001
 20
-11.964499
 10
1059.530001
 20
-11.9625
 10
1059.52
 20
-11.9625
  0
LWPOLYLINE
  5
1FC
330
17
100
AcDbEntity
  8
VISTA
100
AcDbPolyline
 90
5
 70
1
 10
1061.184999
 20
-11.9625
 10
1061.184999
 20
-11.964499
 10
1061.195
 20
-11.964499
 10
1061.195
 20
-11.9625
 10
1061.184999
 20
-11.9625
  0
LWPOLYLINE
  5
1FD
330
17
100
AcDbEntity
  8
VISTA
100
AcDbPolyline
 90
5
 70
1
 10
1059.52
 20
-11.9735
 10
1059.52
 20
-11.9755
 10
1059.530001
 20
-11.9755
 10
1059.530001
 20
-11.9735
 10
1059.52
 20
-11.9735
  0
LWPOLYLINE
  5
1FE
330
17
100
AcDbEntity
  8
VISTA
100
AcDbPolyline
 90
5
 70
1
 10
1061.184999
 20
-11.9735
 10
1061.184999
 20
-11.9755
 10
1061.195
 20
-11.9755
 10
1061.195
 20
-11.9735
 10
1061.184999
 20
-11.9735
  0
LWPOLYLINE
  5
1FF
330
17
100
AcDbEntity
  8
VISTA
100
AcDbPolyline
 90
5
 70
1
 10
1059.522512
 20
-11.9885
 10
1059.522512
 20
-11.990499
 10
1059.532513
 20
-11.990499
 10
1059.532513
 20
-11.9885
 10
1059.522512
 20
-11.9885
  0
LWPOLYLINE
  5
200
330
17
100
AcDbEntity
  8
VISTA
100
AcDbPolyline
 90
5
 70
1
 10
1061.182487
 20
-11.9885
 10
1061.182487
 20
-11.990499
 10
1061.192488
 20
-11.990499
 10
1061.192488
 20
-11.9885
 10
1061.182487
 20
-11.9885
  0
LWPOLYLINE
  5
201
330
17
100
AcDbEntity
  8
VISTA
100
AcDbPolyline
 90
5
 70
1
 10
1059.522512
 20
-11.9995
 10
1059.522512
 20
-12.0015
 10
1059.532513
 20
-12.0015
 10
1059.532513
 20
-11.9995
 10
1059.522512
 20
-11.9995
  0
LWPOLYLINE
  5
202
330
17
100
AcDbEntity
  8
VISTA
100
AcDbPolyline
 90
5
 70
1
 10
1061.182487
 20
-11.9995
 10
1061.182487
 20
-12.0015
 10
1061.192488
 20
-12.0015
 10
1061.192488
 20
-11.9995
 10
1061.182487
 20
-11.9995
  0
LWPOLYLINE
  5
203
330
17
100
AcDbEntity
  8
VISTA
100
AcDbPolyline
 90
5
 70
1
 10
1059.518
 20
-11.9565
 10
1059.518
 20
-11.9625
 10
1059.530001
 20
-11.9625
 10
1059.530001
 20
-11.9565
 10
1059.518
 20
-11.9565
  0
LWPOLYLINE
  5
204
330
17
100
AcDbEntity
  8
VISTA
100
AcDbPolyline
 90
5
 70
1
 10
1061.184999
 20
-11.9565
 10
1061.184999
 20
-11.9625
 10
1061.197001
 20
-11.9625
 10
1061.197001
 20
-11.9565
 10
1061.184999
 20
-11.9565
  0
LWPOLYLINE
  5
205
330
17
100
AcDbEntity
  8
VISTA
100
AcDbPolyline
 90
5
 70
1
 10
1059.518
 20
-12.0015
 10
1059.518
 20
-12.007501
 10
1059.530001
 20
-12.007501
 10
1059.530001
 20
-12.0015
 10
1059.518
 20
-12.0015
  0
LWPOLYLINE
  5
206
330
17
100
AcDbEntity
  8
VISTA
100
AcDbPolyline
 90
5
 70
1
 10
1061.184999
 20
-12.0015
 10
1061.184999
 20
-12.007501
 10
1061.197001
 20
-12.007501
 10
1061.197001
 20
-12.0015
 10
1061.184999
 20
-12.0015
  0
LWPOLYLINE
  5
207
330
17
100
AcDbEntity
  8
VISTA
100
AcDbPolyline
 90
5
 70
1
 10
1059.5
 20
-11.9215
 10
1059.5
 20
-12.007501
 10
1059.518
 20
-12.007501
 10
1059.518
 20
-11.9215
 10
1059.5
 20
-11.9215
  0
LWPOLYLINE
  5
208
330
17
100
AcDbEntity
  8
VISTA
100
AcDbPolyline
 90
5
 70
1
 10
1061.197001
 20
-11.9215
 10
1061.197001
 20
-12.007501
 10
1061.215
 20
-12.007501
 10
1061.215
 20
-11.9215
 10
1061.197001
 20
-11.9215
  0
LWPOLYLINE
  5
209
330
17
100
AcDbEntity
  8
VISTA
100
AcDbPolyline
 90
5
 70
1
 10
1059.518
 20
-12.011499
 10
1059.518
 20
-12.0175
 10
1059.530001
 20
-12.0175
 10
1059.530001
 20
-12.011499
 10
1059.518
 20
-12.011499
  0
LWPOLYLINE
  5
20A
330
17
100
AcDbEntity
  8
VISTA
100
AcDbPolyline
 90
5
 70
1
 10
1061.184999
 20
-12.011499
 10
1061.184999
 20
-12.0175
 10
1061.197001
 20
-12.0175
 10
1061.197001
 20
-12.011499
 10
1061.184999
 20
-12.011499
  0
LWPOLYLINE
  5
20B
330
17
100
AcDbEntity
  8
VISTA
100
AcDbPolyline
 90
5
 70
1
 10
1059.518
 20
-12.0565
 10
1059.518
 20
-12.062501
 10
1059.530001
 20
-12.062501
 10
1059.530001
 20
-12.0565
 10
1059.518
 20
-12.0565
  0
LWPOLYLINE
  5
20C
330
17
100
AcDbEntity
  8
VISTA
100
AcDbPolyline
 90
5
 70
1
 10
1061.184999
 20
-12.0565
 10
1061.184999
 20
-12.062501
 10
1061.197001
 20
-12.062501
 10
1061.197001
 20
-12.0565
 10
1061.184999
 20
-12.0565
  0
LWPOLYLINE
  5
20D
330
17
100
AcDbEntity
  8
VISTA
100
AcDbPolyline
 90
5
 70
1
 10
1059.5
 20
-12.0105
 10
1059.5
 20
-12.062501
 10
1059.518
 20
-12.062501
 10
1059.518
 20
-12.0105
 10
1059.5
 20
-12.0105
  0
LWPOLYLINE
  5
20E
330
17
100
AcDbEntity
  8
VISTA
100
AcDbPolyline
 90
5
 70
1
 10
1061.197001
 20
-12.0105
 10
1061.197001
 20
-12.062501
 10
1061.215
 20
-12.062501
 10
1061.215
 20
-12.0105
 10
1061.197001
 20
-12.0105
  0
LWPOLYLINE
  5
20F
330
17
100
AcDbEntity
  8
VISTA
100
AcDbPolyline
 90
5
 70
1
 10
1059.52
 20
-12.0175
 10
1059.52
 20
-12.0195
 10
1059.530001
 20
-12.0195
 10
1059.530001
 20
-12.0175
 10
1059.52
 20
-12.0175
  0
LWPOLYLINE
  5
210
330
17
100
AcDbEntity
  8
VISTA
100
AcDbPolyline
 90
5
 70
1
 10
1061.184999
 20
-12.0175
 10
1061.184999
 20
-12.0195
 10
1061.195
 20
-12.0195
 10
1061.195
 20
-12.0175
 10
1061.184999
 20
-12.0175
  0
LWPOLYLINE
  5
211
330
17
100
AcDbEntity
  8
VISTA
100
AcDbPolyline
 90
5
 70
1
 10
1059.52
 20
-12.028501
 10
1059.52
 20
-12.0305
 10
1059.530001
 20
-12.0305
 10
1059.530001
 20
-12.028501
 10
1059.52
 20
-12.028501
  0
LWPOLYLINE
  5
212
330
17
100
AcDbEntity
  8
VISTA
100
AcDbPolyline
 90
5
 70
1
 10
1061.184999
 20
-12.028501
 10
1061.184999
 20
-12.0305
 10
1061.195
 20
-12.0305
 10
1061.195
 20
-12.028501
 10
1061.184999
 20
-12.028501
  0
LWPOLYLINE
  5
213
330
17
100
AcDbEntity
  8
VISTA
100
AcDbPolyline
 90
5
 70
1
 10
1059.522512
 20
-12.0435
 10
1059.522512
 20
-12.0455
 10
1059.532513
 20
-12.0455
 10
1059.532513
 20
-12.0435
 10
1059.522512
 20
-12.0435
  0
LWPOLYLINE
  5
214
330
17
100
AcDbEntity
  8
VISTA
100
AcDbPolyline
 90
5
 70
1
 10
1061.182487
 20
-12.0435
 10
1061.182487
 20
-12.0455
 10
1061.192488
 20
-12.0455
 10
1061.192488
 20
-12.0435
 10
1061.182487
 20
-12.0435
  0
LWPOLYLINE
  5
215
330
17
100
AcDbEntity
  8
VISTA
100
AcDbPolyline
 90
5
 70
1
 10
1059.522512
 20
-12.054501
 10
1059.522512
 20
-12.0565
 10
1059.532513
 20
-12.0565
 10
1059.532513
 20
-12.054501
 10
1059.522512
 20
-12.054501
  0
LWPOLYLINE
  5
216
330
17
100
AcDbEntity
  8
VISTA
100
AcDbPolyline
 90
5
 70
1
 10
1061.182487
 20
-12.054501
 10
1061.182487
 20
-12.0565
 10
1061.192488
 20
-12.0565
 10
1061.192488
 20
-12.054501
 10
1061.182487
 20
-12.054501
  0
LWPOLYLINE
  5
217
330
17
100
AcDbEntity
  8
VISTA
100
AcDbPolyline
 90
5
 70
1
 10
1059.518
 20
-12.007501
 10
1059.518
 20
-12.011499
 10
1059.530001
 20
-12.011499
 10
1059.530001
 20
-12.007501
 10
1059.518
 20
-12.007501
  0
LWPOLYLINE
  5
218
330
17
100
AcDbEntity
  8
VISTA
100
AcDbPolyline
 90
5
 70
1
 10
1059.522512
 20
-11.9735
 10
1059.522512
 20
-11.990499
 10
1059.528513
 20
-11.990499
 10
1059.528513
 20
-11.9735
 10
1059.522512
 20
-11.9735
  0
LWPOLYLINE
  5
219
330
17
100
AcDbEntity
  8
VISTA
100
AcDbPolyline
 90
5
 70
1
 10
1061.186487
 20
-11.9735
 10
1061.186487
 20
-11.990499
 10
1061.192488
 20
-11.990499
 10
1061.192488
 20
-11.9735
 10
1061.186487
 20
-11.9735
  0
LWPOLYLINE
  5
21A
330
17
100
AcDbEntity
  8
VISTA
100
AcDbPolyline
 90
5
 70
1
 10
1059.522512
 20
-12.028501
 10
1059.522512
 20
-12.0455
 10
1059.528513
 20
-12.0455
 10
1059.528513
 20
-12.028501
 10
1059.522512
 20
-12.028501
  0
LWPOLYLINE
  5
21B
330
17
100
AcDbEntity
  8
VISTA
100
AcDbPolyline
 90
5
 70
1
 10
1061.186487
 20
-12.028501
 10
1061.186487
 20
-12.0455
 10
1061.192488
 20
-12.0455
 10
1061.192488
 20
-12.028501
 10
1061.186487
 20
-12.028501
  0
LWPOLYLINE
  5
21C
330
17
100
AcDbEntity
  8
CORTE
100
AcDbPolyline
 90
5
 70
1
 10
1058.4
 20
-8.93
 10
1058.4
 20
-9.07
 10
1058.98
 20
-9.07
 10
1058.98
 20
-8.93
 10
1058.4
 20
-8.93
  0
TEXT
  5
21D
330
17
100
AcDbEntity
  8
TEXTOS
100
AcDbText
 10
1060.2
 20
-12.0
 30
0.0
 40
0.0675
  1
NPT +3,25
100
AcDbText
  0
ENDSEC
  0
SECTION
  2
OBJECTS
  0
DICTIONARY
  5
A
330
0
100
AcDbDictionary
281
1
  3
ACAD_COLOR
350
B
  3
ACAD_GROUP
350
C
  3
ACAD_LAYOUT
350
D
  3
ACAD_MATERIAL
350
E
  3
ACAD_MLEADERSTYLE
350
F
  3
ACAD_MLINESTYLE
350
10
  3
ACAD_PLOTSETTINGS
350
11
  3
ACAD_PLOTSTYLENAME
350
12
  3
ACAD_SCALELIST
350
14
  3
ACAD_TABLESTYLE
350
15
  3
ACAD_VISUALSTYLE
350
16
  3
EZDXF_META
350
2D
  0
DICTIONARY
  5
B
330
A
100
AcDbDictionary
281
1
  0
DICTIONARY
  5
C
330
A
100
AcDbDictionary
281
1
  0
DICTIONARY
  5
D
330
A
100
AcDbDictionary
281
1
  3
Model
350
1A
  3
Layout1
350
1E
  0
DICTIONARY
  5
E
330
A
100
AcDbDictionary
281
1
  3
ByBlock
350
1F
  3
ByLayer
350
20
  3
Global
350
21
  0
DICTIONARY
  5
F
330
A
100
AcDbDictionary
281
1
  3
Standard
350
2C
  0
DICTIONARY
  5
10
330
A
100
AcDbDictionary
281
1
  3
Standard
350
22
  0
DICTIONARY
  5
11
330
A
100
AcDbDictionary
281
1
  0
ACDBDICTIONARYWDFLT
  5
12
330
A
100
AcDbDictionary
281
1
  3
Normal
350
13
100
AcDbDictionaryWithDefault
340
13
  0
ACDBPLACEHOLDER
  5
13
330
12
  0
DICTIONARY
  5
14
330
A
100
AcDbDictionary
281
1
  0
DICTIONARY
  5
15
330
A
100
AcDbDictionary
281
1
  0
DICTIONARY
  5
16
330
A
100
AcDbDictionary
281
1
  0
LAYOUT
  5
1A
330
D
100
AcDbPlotSettings
  1

  4
A3
  6

 40
7.5
 41
20.0
 42
7.5
 43
20.0
 44
420.0
 45
297.0
 46
0.0
 47
0.0
 48
0.0
 49
0.0
140
0.0
141
0.0
142
1.0
143
1.0
 70
1024
 72
1
 73
0
 74
5
  7

 75
16
 76
0
 77
2
 78
300
147
1.0
148
0.0
149
0.0
100
AcDbLayout
  1
Model
 70
1
 71
0
 10
0.0
 20
0.0
 11
420.0
 21
297.0
 12
0.0
 22
0.0
 32
0.0
 14
1e+20
 24
1e+20
 34
1e+20
 15
-1e+20
 25
-1e+20
 35
-1e+20
146
0.0
 13
0.0
 23
0.0
 33
0.0
 16
1.0
 26
0.0
 36
0.0
 17
0.0
 27
1.0
 37
0.0
 76
1
330
17
  0
LAYOUT
  5
1E
330
D
100
AcDbPlotSettings
  1

  4
A3
  6

 40
7.5
 41
20.0
 42
7.5
 43
20.0
 44
420.0
 45
297.0
 46
0.0
 47
0.0
 48
0.0
 49
0.0
140
0.0
141
0.0
142
1.0
143
1.0
 70
0
 72
1
 73
0
 74
5
  7

 75
16
 76
0
 77
2
 78
300
147
1.0
148
0.0
149
0.0
100
AcDbLayout
  1
Layout1
 70
1
 71
1
 10
0.0
 20
0.0
 11
420.0
 21
297.0
 12
0.0
 22
0.0
 32
0.0
 14
1e+20
 24
1e+20
 34
1e+20
 15
-1e+20
 25
-1e+20
 35
-1e+20
146
0.0
 13
0.0
 23
0.0
 33
0.0
 16
1.0
 26
0.0
 36
0.0
 17
0.0
 27
1.0
 37
0.0
 76
1
330
1B
  0
MATERIAL
  5
1F
102
{ACAD_REACTORS
330
E
102
}
330
E
100
AcDbMaterial
  1
ByBlock
  2

 70
0
 40
1.0
 71
1
 41
1.0
 91
-1023410177
 42
1.0
 72
1
  3

 73
1
 74
1
 75
1
 44
0.5
 73
0
 45
1.0
 46
1.0
 77
1
  4

 78
1
 79
1
170
1
 48
1.0
171
1
  6

172
1
173
1
174
1
140
1.0
141
1.0
175
1
  7

176
1
177
1
178
1
143
1.0
179
1
  8

270
1
271
1
272
1
145
1.0
146
1.0
273
1
  9

274
1
275
1
276
1
 42
1.0
 72
1
  3

 73
1
 74
1
 75
1
 94
63
  0
MATERIAL
  5
20
102
{ACAD_REACTORS
330
E
102
}
330
E
100
AcDbMaterial
  1
ByLayer
  2

 70
0
 40
1.0
 71
1
 41
1.0
 91
-1023410177
 42
1.0
 72
1
  3

 73
1
 74
1
 75
1
 44
0.5
 73
0
 45
1.0
 46
1.0
 77
1
  4

 78
1
 79
1
170
1
 48
1.0
171
1
  6

172
1
173
1
174
1
140
1.0
141
1.0
175
1
  7

176
1
177
1
178
1
143
1.0
179
1
  8

270
1
271
1
272
1
145
1.0
146
1.0
273
1
  9

274
1
275
1
276
1
 42
1.0
 72
1
  3

 73
1
 74
1
 75
1
 94
63
  0
MATERIAL
  5
21
102
{ACAD_REACTORS
330
E
102
}
330
E
100
AcDbMaterial
  1
Global
  2

 70
0
 40
1.0
 71
1
 41
1.0
 91
-1023410177
 42
1.0
 72
1
  3

 73
1
 74
1
 75
1
 44
0.5
 73
0
 45
1.0
 46
1.0
 77
1
  4

 78
1
 79
1
170
1
 48
1.0
171
1
  6

172
1
173
1
174
1
140
1.0
141
1.0
175
1
  7

176
1
177
1
178
1
143
1.0
179
1
  8

270
1
271
1
272
1
145
1.0
146
1.0
273
1
  9

274
1
275
1
276
1
 42
1.0
 72
1
  3

 73
1
 74
1
 75
1
 94
63
  0
MLINESTYLE
  5
22
102
{ACAD_REACTORS
330
10
102
}
330
10
100
AcDbMlineStyle
  2
Standard
 70
0
  3

 62
256
 51
90.0
 52
90.0
 71
2
 49
0.5
 62
256
  6
BYLAYER
 49
-0.5
 62
256
  6
BYLAYER
  0
MLEADERSTYLE
  5
2C
102
{ACAD_REACTORS
330
F
102
}
330
F
100
AcDbMLeaderStyle
179
2
170
2
171
1
172
0
 90
2
 40
0.0
 41
0.0
173
1
 91
-1056964608
 92
-2
290
1
 42
2.0
291
1
 43
8.0
  3
Standard
 44
4.0
300

342
29
174
1
175
1
176
0
178
1
 93
-1056964608
 45
4.0
292
0
297
0
 46
4.0
 94
-1056964608
 47
1.0
 49
1.0
140
1.0
294
1
141
0.0
177
0
142
1.0
295
0
296
0
143
3.75
271
0
272
9
273
9
  0
DICTIONARY
  5
2D
330
A
100
AcDbDictionary
280
1
281
1
  3
CREATED_BY_EZDXF
350
2E
  3
WRITTEN_BY_EZDXF
350
220
  0
DICTIONARYVAR
  5
2E
330
2D
100
DictionaryVariables
280
0
  1
1.4.4 @ 2026-09-11T02:41:46.027857+00:00
  0
DICTIONARYVAR
  5
220
330
2D
100
DictionaryVariables
280
0
  1
1.4.4 @ 2026-09-11T02:41:46.252947+00:00
  0
ENDSEC
  0
EOF
