  0
SECTION
  2
HEADER
  9
$ACADVER
  1
AC1024
  9
$ACADMAINTVER
 70
6
  9
$DWGCODEPAGE
  3
ANSI_1252
  9
$LASTSAVEDBY
  1
ezdxf
  9
$INSBASE
 10
0.0
 20
0.0
 30
0.0
  9
$EXTMIN
 10
1e+20
 20
1e+20
 30
1e+20
  9
$EXTMAX
 10
-1e+20
 20
-1e+20
 30
-1e+20
  9
$LIMMIN
 10
0.0
 20
0.0
  9
$LIMMAX
 10
420.0
 20
297.0
  9
$ORTHOMODE
 70
0
  9
$REGENMODE
 70
1
  9
$FILLMODE
 70
1
  9
$QTEXTMODE
 70
0
  9
$MIRRTEXT
 70
1
  9
$LTSCALE
 40
1.0
  9
$ATTMODE
 70
1
  9
$TEXTSIZE
 40
2.5
  9
$TRACEWID
 40
1.0
  9
$TEXTSTYLE
  7
Standard
  9
$CLAYER
  8
0
  9
$CELTYPE
  6
ByLayer
  9
$CECOLOR
 62
256
  9
$CELTSCALE
 40
1.0
  9
$DISPSILH
 70
0
  9
$DIMSCALE
 40
1.0
  9
$DIMASZ
 40
2.5
  9
$DIMEXO
 40
0.625
  9
$DIMDLI
 40
3.75
  9
$DIMRND
 40
0.0
  9
$DIMDLE
 40
0.0
  9
$DIMEXE
 40
1.25
  9
$DIMTP
 40
0.0
  9
$DIMTM
 40
0.0
  9
$DIMTXT
 40
2.5
  9
$DIMCEN
 40
2.5
  9
$DIMTSZ
 40
0.0
  9
$DIMTOL
 70
0
  9
$DIMLIM
 70
0
  9
$DIMTIH
 70
0
  9
$DIMTOH
 70
0
  9
$DIMSE1
 70
0
  9
$DIMSE2
 70
0
  9
$DIMTAD
 70
1
  9
$DIMZIN
 70
8
  9
$DIMBLK
  1

  9
$DIMASO
 70
1
  9
$DIMSHO
 70
1
  9
$DIMPOST
  1

  9
$DIMAPOST
  1

  9
$DIMALT
 70
0
  9
$DIMALTD
 70
3
  9
$DIMALTF
 40
0.03937007874
  9
$DIMLFAC
 40
1.0
  9
$DIMTOFL
 70
1
  9
$DIMTVP
 40
0.0
  9
$DIMTIX
 70
0
  9
$DIMSOXD
 70
0
  9
$DIMSAH
 70
0
  9
$DIMBLK1
  1

  9
$DIMBLK2
  1

  9
$DIMSTYLE
  2
ISO-25
  9
$DIMCLRD
 70
0
  9
$DIMCLRE
 70
0
  9
$DIMCLRT
 70
0
  9
$DIMTFAC
 40
1.0
  9
$DIMGAP
 40
0.625
  9
$DIMJUST
 70
0
  9
$DIMSD1
 70
0
  9
$DIMSD2
 70
0
  9
$DIMTOLJ
 70
0
  9
$DIMTZIN
 70
8
  9
$DIMALTZ
 70
0
  9
$DIMALTTZ
 70
0
  9
$DIMUPT
 70
0
  9
$DIMDEC
 70
2
  9
$DIMTDEC
 70
2
  9
$DIMALTU
 70
2
  9
$DIMALTTD
 70
3
  9
$DIMTXSTY
  7
Standard
  9
$DIMAUNIT
 70
0
  9
$DIMADEC
 70
0
  9
$DIMALTRND
 40
0.0
  9
$DIMAZIN
 70
0
  9
$DIMDSEP
 70
44
  9
$DIMATFIT
 70
3
  9
$DIMFRAC
 70
0
  9
$DIMLDRBLK
  1

  9
$DIMLUNIT
 70
2
  9
$DIMLWD
 70
-2
  9
$DIMLWE
 70
-2
  9
$DIMTMOVE
 70
0
  9
$DIMFXL
 40
1.0
  9
$DIMFXLON
 70
0
  9
$DIMJOGANG
 40
0.785398163397
  9
$DIMTFILL
 70
0
  9
$DIMTFILLCLR
 70
0
  9
$DIMARCSYM
 70
0
  9
$DIMLTYPE
  6

  9
$DIMLTEX1
  6

  9
$DIMLTEX2
  6

  9
$DIMTXTDIRECTION
 70
0
  9
$LUNITS
 70
2
  9
$LUPREC
 70
4
  9
$SKETCHINC
 40
1.0
  9
$FILLETRAD
 40
10.0
  9
$AUNITS
 70
0
  9
$AUPREC
 70
2
  9
$MENU
  1
.
  9
$ELEVATION
 40
0.0
  9
$PELEVATION
 40
0.0
  9
$THICKNESS
 40
0.0
  9
$LIMCHECK
 70
0
  9
$CHAMFERA
 40
0.0
  9
$CHAMFERB
 40
0.0
  9
$CHAMFERC
 40
0.0
  9
$CHAMFERD
 40
0.0
  9
$SKPOLY
 70
0
  9
$TDCREATE
 40
2461294.987349537
  9
$TDUCREATE
 40
2458532.153996898
  9
$TDUPDATE
 40
2461294.987349537
  9
$TDUUPDATE
 40
2458532.1544311
  9
$TDINDWG
 40
0.0
  9
$TDUSRTIMER
 40
0.0
  9
$USRTIMER
 70
1
  9
$ANGBASE
 50
0.0
  9
$ANGDIR
 70
0
  9
$PDMODE
 70
0
  9
$PDSIZE
 40
0.0
  9
$PLINEWID
 40
0.0
  9
$SPLFRAME
 70
0
  9
$SPLINETYPE
 70
6
  9
$SPLINESEGS
 70
8
  9
$HANDSEED
  5
98
  9
$SURFTAB1
 70
6
  9
$SURFTAB2
 70
6
  9
$SURFTYPE
 70
6
  9
$SURFU
 70
6
  9
$SURFV
 70
6
  9
$UCSBASE
  2

  9
$UCSNAME
  2

  9
$UCSORG
 10
0.0
 20
0.0
 30
0.0
  9
$UCSXDIR
 10
1.0
 20
0.0
 30
0.0
  9
$UCSYDIR
 10
0.0
 20
1.0
 30
0.0
  9
$UCSORTHOREF
  2

  9
$UCSORTHOVIEW
 70
0
  9
$UCSORGTOP
 10
0.0
 20
0.0
 30
0.0
  9
$UCSORGBOTTOM
 10
0.0
 20
0.0
 30
0.0
  9
$UCSORGLEFT
 10
0.0
 20
0.0
 30
0.0
  9
$UCSORGRIGHT
 10
0.0
 20
0.0
 30
0.0
  9
$UCSORGFRONT
 10
0.0
 20
0.0
 30
0.0
  9
$UCSORGBACK
 10
0.0
 20
0.0
 30
0.0
  9
$PUCSBASE
  2

  9
$PUCSNAME
  2

  9
$PUCSORG
 10
0.0
 20
0.0
 30
0.0
  9
$PUCSXDIR
 10
1.0
 20
0.0
 30
0.0
  9
$PUCSYDIR
 10
0.0
 20
1.0
 30
0.0
  9
$PUCSORTHOREF
  2

  9
$PUCSORTHOVIEW
 70
0
  9
$PUCSORGTOP
 10
0.0
 20
0.0
 30
0.0
  9
$PUCSORGBOTTOM
 10
0.0
 20
0.0
 30
0.0
  9
$PUCSORGLEFT
 10
0.0
 20
0.0
 30
0.0
  9
$PUCSORGRIGHT
 10
0.0
 20
0.0
 30
0.0
  9
$PUCSORGFRONT
 10
0.0
 20
0.0
 30
0.0
  9
$PUCSORGBACK
 10
0.0
 20
0.0
 30
0.0
  9
$USERI1
 70
0
  9
$USERI2
 70
0
  9
$USERI3
 70
0
  9
$USERI4
 70
0
  9
$USERI5
 70
0
  9
$USERR1
 40
0.0
  9
$USERR2
 40
0.0
  9
$USERR3
 40
0.0
  9
$USERR4
 40
0.0
  9
$USERR5
 40
0.0
  9
$WORLDVIEW
 70
1
  9
$SHADEDGE
 70
3
  9
$SHADEDIF
 70
70
  9
$TILEMODE
 70
1
  9
$MAXACTVP
 70
64
  9
$PINSBASE
 10
0.0
 20
0.0
 30
0.0
  9
$PLIMCHECK
 70
0
  9
$PEXTMIN
 10
1e+20
 20
1e+20
 30
1e+20
  9
$PEXTMAX
 10
-1e+20
 20
-1e+20
 30
-1e+20
  9
$PLIMMIN
 10
0.0
 20
0.0
  9
$PLIMMAX
 10
420.0
 20
297.0
  9
$UNITMODE
 70
0
  9
$VISRETAIN
 70
1
  9
$PLINEGEN
 70
0
  9
$PSLTSCALE
 70
1
  9
$TREEDEPTH
 70
3020
  9
$CMLSTYLE
  2
Standard
  9
$CMLJUST
 70
0
  9
$CMLSCALE
 40
20.0
  9
$PROXYGRAPHICS
 70
1
  9
$MEASUREMENT
 70
1
  9
$CELWEIGHT
370
-1
  9
$ENDCAPS
280
0
  9
$JOINSTYLE
280
0
  9
$LWDISPLAY
290
0
  9
$INSUNITS
 70
6
  9
$HYPERLINKBASE
  1

  9
$STYLESHEET
  1

  9
$XEDIT
290
1
  9
$CEPSNTYPE
380
0
  9
$PSTYLEMODE
290
1
  9
$FINGERPRINTGUID
  2
{80A1C286-09A2-48EE-8033-2D6AD8FE1530}
  9
$VERSIONGUID
  2
{E7A363BF-BFDA-4456-B2F3-11CAB9D622D7}
  9
$EXTNAMES
290
1
  9
$PSVPSCALE
 40
0.0
  9
$OLESTARTUP
290
0
  9
$SORTENTS
280
127
  9
$INDEXCTL
280
0
  9
$HIDETEXT
280
1
  9
$XCLIPFRAME
280
1
  9
$HALOGAP
280
0
  9
$OBSCOLOR
 70
257
  9
$OBSLTYPE
280
0
  9
$INTERSECTIONDISPLAY
280
0
  9
$INTERSECTIONCOLOR
 70
257
  9
$DIMASSOC
280
2
  9
$PROJECTNAME
  1

  9
$CAMERADISPLAY
290
0
  9
$LENSLENGTH
 40
50.0
  9
$CAMERAHEIGHT
 40
0.0
  9
$STEPSPERSEC
 40
24.0
  9
$STEPSIZE
 40
100.0
  9
$3DDWFPREC
 40
2.0
  9
$PSOLWIDTH
 40
0.005
  9
$PSOLHEIGHT
 40
0.08
  9
$LOFTANG1
 40
1.570796326795
  9
$LOFTANG2
 40
1.570796326795
  9
$LOFTMAG1
 40
0.0
  9
$LOFTMAG2
 40
0.0
  9
$LOFTPARAM
 70
7
  9
$LOFTNORMALS
280
1
  9
$LATITUDE
 40
37.795
  9
$LONGITUDE
 40
-122.394
  9
$NORTHDIRECTION
 40
0.0
  9
$TIMEZONE
 70
-8000
  9
$LIGHTGLYPHDISPLAY
280
1
  9
$TILEMODELIGHTSYNCH
280
1
  9
$CMATERIAL
347
20
  9
$SOLIDHIST
280
0
  9
$SHOWHIST
280
1
  9
$DWFFRAME
280
2
  9
$DGNFRAME
280
2
  9
$REALWORLDSCALE
290
1
  9
$INTERFERECOLOR
 62
256
  9
$CSHADOW
280
0
  9
$SHADOWPLANELOCATION
 40
0.0
  0
ENDSEC
  0
SECTION
  2
CLASSES
  0
CLASS
  1
ACDBDICTIONARYWDFLT
  2
AcDbDictionaryWithDefault
  3
ObjectDBX Classes
 90
0
 91
0
280
0
281
0
  0
CLASS
  1
SUN
  2
AcDbSun
  3
SCENEOE
 90
1153
 91
0
280
0
281
0
  0
CLASS
  1
VISUALSTYLE
  2
AcDbVisualStyle
  3
ObjectDBX Classes
 90
4095
 91
0
280
0
281
0
  0
CLASS
  1
MATERIAL
  2
AcDbMaterial
  3
ObjectDBX Classes
 90
1153
 91
0
280
0
281
0
  0
CLASS
  1
SCALE
  2
AcDbScale
  3
ObjectDBX Classes
 90
1153
 91
0
280
0
281
0
  0
CLASS
  1
TABLESTYLE
  2
AcDbTableStyle
  3
ObjectDBX Classes
 90
4095
 91
0
280
0
281
0
  0
CLASS
  1
MLEADERSTYLE
  2
AcDbMLeaderStyle
  3
ACDB_MLEADERSTYLE_CLASS
 90
4095
 91
0
280
0
281
0
  0
CLASS
  1
DICTIONARYVAR
  2
AcDbDictionaryVar
  3
ObjectDBX Classes
 90
0
 91
0
280
0
281
0
  0
CLASS
  1
CELLSTYLEMAP
  2
AcDbCellStyleMap
  3
ObjectDBX Classes
 90
1152
 91
0
280
0
281
0
  0
CLASS
  1
MENTALRAYRENDERSETTINGS
  2
AcDbMentalRayRenderSettings
  3
SCENEOE
 90
1024
 91
0
280
0
281
0
  0
CLASS
  1
ACDBDETAILVIEWSTYLE
  2
AcDbDetailViewStyle
  3
ObjectDBX Classes
 90
1025
 91
0
280
0
281
0
  0
CLASS
  1
ACDBSECTIONVIEWSTYLE
  2
AcDbSectionViewStyle
  3
ObjectDBX Classes
 90
1025
 91
0
280
0
281
0
  0
CLASS
  1
RASTERVARIABLES
  2
AcDbRasterVariables
  3
ISM
 90
0
 91
0
280
0
281
0
  0
CLASS
  1
LAYOUT
  2
AcDbLayout
  3
ObjectDBX Classes
 90
0
 91
0
280
0
281
0
  0
CLASS
  1
ACDBPLACEHOLDER
  2
AcDbPlaceHolder
  3
ObjectDBX Classes
 90
0
 91
0
280
0
281
0
  0
ENDSEC
  0
SECTION
  2
TABLES
  0
TABLE
  2
VPORT
  5
8
330
0
100
AcDbSymbolTable
 70
1
  0
VPORT
  5
23
330
8
100
AcDbSymbolTableRecord
100
AcDbViewportTableRecord
  2
*Active
 70
0
 10
0.0
 20
0.0
 11
1.0
 21
1.0
 12
0.0
 22
0.0
 13
0.0
 23
0.0
 14
0.5
 24
0.5
 15
0.5
 25
0.5
 16
0.0
 26
0.0
 36
1.0
 17
0.0
 27
0.0
 37
0.0
 40
1000.0
 41
1.34
 42
50.0
 43
0.0
 44
0.0
 50
0.0
 51
0.0
 71
0
 72
1000
 73
1
 74
3
 75
0
 76
0
 77
0
 78
0
281
0
 65
0
146
0.0
  0
ENDTAB
  0
TABLE
  2
LTYPE
  5
2
330
0
100
AcDbSymbolTable
 70
3
  0
LTYPE
  5
24
330
2
100
AcDbSymbolTableRecord
100
AcDbLinetypeTableRecord
  2
ByBlock
 70
0
  3

 72
65
 73
0
 40
0.0
  0
LTYPE
  5
25
330
2
100
AcDbSymbolTableRecord
100
AcDbLinetypeTableRecord
  2
ByLayer
 70
0
  3

 72
65
 73
0
 40
0.0
  0
LTYPE
  5
26
330
2
100
AcDbSymbolTableRecord
100
AcDbLinetypeTableRecord
  2
Continuous
 70
0
  3

 72
65
 73
0
 40
0.0
  0
ENDTAB
  0
TABLE
  2
LAYER
  5
1
330
0
100
AcDbSymbolTable
 70
8
  0
LAYER
  5
27
330
1
100
AcDbSymbolTableRecord
100
AcDbLayerTableRecord
  2
0
 70
0
 62
7
  6
Continuous
370
-3
390
13
347
21
  0
LAYER
  5
28
330
1
100
AcDbSymbolTableRecord
100
AcDbLayerTableRecord
  2
Defpoints
 70
0
 62
7
  6
Continuous
290
0
370
-3
390
13
347
21
  0
LAYER
  5
2F
330
1
100
AcDbSymbolTableRecord
100
AcDbLayerTableRecord
  2
CORTE
 70
0
 62
7
  6
Continuous
370
-3
390
13
347
21
  0
LAYER
  5
30
330
1
100
AcDbSymbolTableRecord
100
AcDbLayerTableRecord
  2
VISTA
 70
0
 62
8
  6
Continuous
370
-3
390
13
347
21
  0
LAYER
  5
31
330
1
100
AcDbSymbolTableRecord
100
AcDbLayerTableRecord
  2
COTAS
 70
0
 62
4
  6
Continuous
370
-3
390
13
347
21
  0
LAYER
  5
32
330
1
100
AcDbSymbolTableRecord
100
AcDbLayerTableRecord
  2
TEXTOS
 70
0
 62
7
  6
Continuous
370
-3
390
13
347
21
  0
LAYER
  5
33
330
1
100
AcDbSymbolTableRecord
100
AcDbLayerTableRecord
  2
EJES
 70
0
 62
3
  6
Continuous
370
-3
390
13
347
21
  0
LAYER
  5
34
330
1
100
AcDbSymbolTableRecord
100
AcDbLayerTableRecord
  2
SISTEMAS
 70
0
 62
5
  6
Continuous
370
-3
390
13
347
21
  0
ENDTAB
  0
TABLE
  2
STYLE
  5
5
330
0
100
AcDbSymbolTable
 70
1
  0
STYLE
  5
29
330
5
100
AcDbSymbolTableRecord
100
AcDbTextStyleTableRecord
  2
Standard
 70
0
 40
0.0
 41
1.0
 50
0.0
 71
0
 42
2.5
  3
txt
  4

  0
ENDTAB
  0
TABLE
  2
VIEW
  5
7
330
0
100
AcDbSymbolTable
 70
0
  0
ENDTAB
  0
TABLE
  2
UCS
  5
6
330
0
100
AcDbSymbolTable
 70
0
  0
ENDTAB
  0
TABLE
  2
APPID
  5
3
330
0
100
AcDbSymbolTable
 70
3
  0
APPID
  5
2A
330
3
100
AcDbSymbolTableRecord
100
AcDbRegAppTableRecord
  2
ACAD
 70
0
  0
APPID
  5
95
330
3
100
AcDbSymbolTableRecord
100
AcDbRegAppTableRecord
  2
HATCHBACKGROUNDCOLOR
 70
0
  0
APPID
  5
96
330
3
100
AcDbSymbolTableRecord
100
AcDbRegAppTableRecord
  2
EZDXF
 70
0
  0
ENDTAB
  0
TABLE
  2
DIMSTYLE
  5
4
330
0
100
AcDbSymbolTable
 70
1
100
AcDbDimStyleTable
  0
DIMSTYLE
105
2B
330
4
100
AcDbSymbolTableRecord
100
AcDbDimStyleTableRecord
  2
Standard
 70
0
 40
1.0
 41
2.5
 42
0.625
 43
3.75
 44
1.25
 45
0.0
 46
0.0
 47
0.0
 48
0.0
 49
2.5
140
2.5
141
2.5
142
0.0
143
0.03937007874
144
1.0
145
0.0
146
1.0
147
0.625
148
0.0
 69
0
 70
0
 71
0
 72
0
 73
0
 74
0
 75
0
 76
0
 77
1
 78
8
 79
3
170
0
171
3
172
1
173
0
174
0
175
0
176
0
177
0
178
0
179
2
271
2
272
2
273
2
274
3
275
0
276
0
277
2
278
44
279
0
280
0
281
0
282
0
283
0
284
8
285
0
286
0
288
0
289
3
290
0
371
-2
372
-2
  0
ENDTAB
  0
TABLE
  2
BLOCK_RECORD
  5
9
330
0
100
AcDbSymbolTable
 70
6
  0
BLOCK_RECORD
  5
17
330
9
100
AcDbSymbolTableRecord
100
AcDbBlockTableRecord
  2
*Model_Space
340
1A
 70
0
280
1
281
0
  0
BLOCK_RECORD
  5
1B
330
9
100
AcDbSymbolTableRecord
100
AcDbBlockTableRecord
  2
*Paper_Space
340
1E
 70
0
280
1
281
0
  0
BLOCK_RECORD
  5
5B
330
9
100
AcDbSymbolTableRecord
100
AcDbBlockTableRecord
  2
*D1
340
0
 70
0
280
1
281
0
  0
BLOCK_RECORD
  5
60
330
9
100
AcDbSymbolTableRecord
100
AcDbBlockTableRecord
  2
_CLOSEDFILLED
340
0
 70
0
280
1
281
0
  0
BLOCK_RECORD
  5
6F
330
9
100
AcDbSymbolTableRecord
100
AcDbBlockTableRecord
  2
*D2
340
0
 70
0
280
1
281
0
  0
BLOCK_RECORD
  5
84
330
9
100
AcDbSymbolTableRecord
100
AcDbBlockTableRecord
  2
*D3
340
0
 70
0
280
1
281
0
  0
ENDTAB
  0
ENDSEC
  0
SECTION
  2
BLOCKS
  0
BLOCK
  5
18
330
17
100
AcDbEntity
  8
0
100
AcDbBlockBegin
  2
*Model_Space
 70
0
 10
0.0
 20
0.0
 30
0.0
  3
*Model_Space
  1

  0
ENDBLK
  5
19
330
17
100
AcDbEntity
  8
0
100
AcDbBlockEnd
  0
BLOCK
  5
1C
330
1B
100
AcDbEntity
  8
0
100
AcDbBlockBegin
  2
*Paper_Space
 70
0
 10
0.0
 20
0.0
 30
0.0
  3
*Paper_Space
  1

  0
ENDBLK
  5
1D
330
1B
100
AcDbEntity
  8
0
100
AcDbBlockEnd
  0
BLOCK
  5
5C
330
5B
100
AcDbEntity
  8
0
100
AcDbBlockBegin
  2
*D1
 70
1
 10
0.0
 20
0.0
 30
0.0
  3
*D1
  1

  0
LINE
  5
5E
330
5B
100
AcDbEntity
  8
0
100
AcDbLine
 10
1256.582
 20
-9.25
 30
0.0
 11
1256.582
 21
-9.25
 31
0.0
  0
LINE
  5
5F
330
5B
100
AcDbEntity
  8
0
100
AcDbLine
 10
1257.505
 20
-9.25
 30
0.0
 11
1257.505
 21
-9.25
 31
0.0
  0
INSERT
  5
64
330
5B
100
AcDbEntity
  8
COTAS
100
AcDbBlockReference
  2
_CLOSEDFILLED
 10
1256.582
 20
-9.25
 30
0.0
 41
0.09
 42
0.09
 50
180.0
  0
INSERT
  5
66
330
5B
100
AcDbEntity
  8
COTAS
100
AcDbBlockReference
  2
_CLOSEDFILLED
 10
1257.505
 20
-9.25
 30
0.0
 41
0.09
 42
0.09
  0
LINE
  5
68
330
5B
100
AcDbEntity
  8
0
100
AcDbLine
 10
1256.672
 20
-9.25
 30
0.0
 11
1256.7835000000002
 21
-9.25
 31
0.0
  0
LINE
  5
69
330
5B
100
AcDbEntity
  8
0
100
AcDbLine
 10
1257.3035000000002
 20
-9.25
 30
0.0
 11
1257.4150000000002
 21
-9.25
 31
0.0
  0
MTEXT
  5
6A
330
5B
100
AcDbEntity
  8
COTAS
100
AcDbMText
 10
1257.0435000000002
 20
-9.25
 30
0.0
 40
0.13
 71
5
  1
0,92
  0
POINT
  5
6B
330
5B
100
AcDbEntity
  8
Defpoints
100
AcDbPoint
 10
1256.582
 20
-9.25
 30
0.0
  0
POINT
  5
6C
330
5B
100
AcDbEntity
  8
Defpoints
100
AcDbPoint
 10
1256.582
 20
-9.25
 30
0.0
  0
POINT
  5
6D
330
5B
100
AcDbEntity
  8
Defpoints
100
AcDbPoint
 10
1257.505
 20
-9.25
 30
0.0
  0
ENDBLK
  5
5D
330
5B
100
AcDbEntity
  8
0
100
AcDbBlockEnd
  0
BLOCK
  5
61
330
60
100
AcDbEntity
  8
0
100
AcDbBlockBegin
  2
_CLOSEDFILLED
 70
0
 10
0.0
 20
0.0
 30
0.0
  3
_CLOSEDFILLED
  1

  0
SOLID
  5
63
330
60
100
AcDbEntity
  8
0
  6
BYBLOCK
 62
0
100
AcDbTrace
 10
-1.0
 20
0.16439898372402537
 30
0.0
 11
0.0
 21
0.0
 31
0.0
 12
-1.0
 22
-0.16439898372402537
 32
0.0
 13
-1.0
 23
-0.16439898372402537
 33
0.0
  0
ENDBLK
  5
62
330
60
100
AcDbEntity
  8
0
100
AcDbBlockEnd
  0
BLOCK
  5
70
330
6F
100
AcDbEntity
  8
0
100
AcDbBlockBegin
  2
*D2
 70
1
 10
0.0
 20
0.0
 30
0.0
  3
*D2
  1

  0
LINE
  5
72
330
6F
100
AcDbEntity
  8
0
100
AcDbLine
 10
1256.6045036315918
 20
-9.34
 30
0.0
 11
1256.6045036315918
 21
-9.34
 31
0.0
  0
LINE
  5
73
330
6F
100
AcDbEntity
  8
0
100
AcDbLine
 10
1257.4105014801025
 20
-9.34
 30
0.0
 11
1257.4105014801025
 21
-9.34
 31
0.0
  0
INSERT
  5
74
330
6F
100
AcDbEntity
  8
COTAS
100
AcDbBlockReference
  2
_CLOSEDFILLED
 10
1256.6045036315918
 20
-9.34
 30
0.0
 41
0.09
 42
0.09
 50
180.0
  0
INSERT
  5
76
330
6F
100
AcDbEntity
  8
COTAS
100
AcDbBlockReference
  2
_CLOSEDFILLED
 10
1257.4105014801025
 20
-9.34
 30
0.0
 41
0.09
 42
0.09
  0
LINE
  5
78
330
6F
100
AcDbEntity
  8
0
100
AcDbLine
 10
1256.6945036315917
 20
-9.34
 30
0.0
 11
1256.7475025558472
 21
-9.34
 31
0.0
  0
LINE
  5
79
330
6F
100
AcDbEntity
  8
0
100
AcDbLine
 10
1257.2675025558472
 20
-9.34
 30
0.0
 11
1257.3205014801026
 21
-9.34
 31
0.0
  0
MTEXT
  5
7A
330
6F
100
AcDbEntity
  8
COTAS
100
AcDbMText
 10
1257.0075025558472
 20
-9.34
 30
0.0
 40
0.13
 71
5
  1
0,81
  0
POINT
  5
7B
330
6F
100
AcDbEntity
  8
Defpoints
100
AcDbPoint
 10
1256.6045036315918
 20
-9.34
 30
0.0
  0
POINT
  5
7C
330
6F
100
AcDbEntity
  8
Defpoints
100
AcDbPoint
 10
1256.6045036315918
 20
-9.34
 30
0.0
  0
POINT
  5
7D
330
6F
100
AcDbEntity
  8
Defpoints
100
AcDbPoint
 10
1257.4105014801025
 20
-9.34
 30
0.0
  0
ENDBLK
  5
71
330
6F
100
AcDbEntity
  8
0
100
AcDbBlockEnd
  0
BLOCK
  5
85
330
84
100
AcDbEntity
  8
0
100
AcDbBlockBegin
  2
*D3
 70
1
 10
0.0
 20
0.0
 30
0.0
  3
*D3
  1

  0
LINE
  5
87
330
84
100
AcDbEntity
  8
0
100
AcDbLine
 10
1299.44
 20
-8.93
 30
0.0
 11
1299.44
 21
-8.93
 31
0.0
  0
LINE
  5
88
330
84
100
AcDbEntity
  8
0
100
AcDbLine
 10
1299.44
 20
-9.07
 30
0.0
 11
1299.44
 21
-9.07
 31
0.0
  0
INSERT
  5
89
330
84
100
AcDbEntity
  8
COTAS
100
AcDbBlockReference
  2
_CLOSEDFILLED
 10
1299.44
 20
-8.93
 30
0.0
 41
0.09
 42
0.09
 50
90.0
  0
INSERT
  5
8B
330
84
100
AcDbEntity
  8
COTAS
100
AcDbBlockReference
  2
_CLOSEDFILLED
 10
1299.44
 20
-9.07
 30
0.0
 41
0.09
 42
0.09
 50
270.0
  0
LINE
  5
8D
330
84
100
AcDbEntity
  8
0
100
AcDbLine
 10
1299.44
 20
-8.84
 30
0.0
 11
1299.44
 21
-8.75
 31
0.0
  0
LINE
  5
8E
330
84
100
AcDbEntity
  8
0
100
AcDbLine
 10
1299.44
 20
-9.16
 30
0.0
 11
1299.44
 21
-9.25
 31
0.0
  0
LINE
  5
8F
330
84
100
AcDbEntity
  8
0
100
AcDbLine
 10
1299.44
 20
-8.93
 30
0.0
 11
1299.44
 21
-9.07
 31
0.0
  0
MTEXT
  5
90
330
84
100
AcDbEntity
  8
COTAS
100
AcDbMText
 10
1300.13
 20
-9.0
 30
0.0
 40
0.13
 71
5
  1
0,14
 50
90.0
  0
POINT
  5
91
330
84
100
AcDbEntity
  8
Defpoints
100
AcDbPoint
 10
1299.44
 20
-8.93
 30
0.0
  0
POINT
  5
92
330
84
100
AcDbEntity
  8
Defpoints
100
AcDbPoint
 10
1299.44
 20
-8.93
 30
0.0
  0
POINT
  5
93
330
84
100
AcDbEntity
  8
Defpoints
100
AcDbPoint
 10
1299.44
 20
-9.07
 30
0.0
  0
ENDBLK
  5
86
330
84
100
AcDbEntity
  8
0
100
AcDbBlockEnd
  0
ENDSEC
  0
SECTION
  2
ENTITIES
  0
LINE
  5
35
330
17
100
AcDbEntity
  8
CORTE
100
AcDbLine
 10
1257.548683
 20
-8.931318
 30
0.0
 11
1257.5489753599052
 21
-8.931664389456403
 31
0.0
  0
LINE
  5
36
330
17
100
AcDbEntity
  8
CORTE
100
AcDbLine
 10
1257.54917
 20
-8.931895
 30
0.0
 11
1257.5489753599052
 21
-8.931664389456403
 31
0.0
  0
LINE
  5
37
330
17
100
AcDbEntity
  8
CORTE
100
AcDbLine
 10
1257.54917
 20
-8.931895
 30
0.0
 11
1257.5496688728567
 21
-8.933458855344766
 31
0.0
  0
LINE
  5
38
330
17
100
AcDbEntity
  8
CORTE
100
AcDbLine
 10
1257.550001
 20
-8.9345
 30
0.0
 11
1257.5496688728567
 21
-8.933458855344766
 31
0.0
  0
LINE
  5
39
330
17
100
AcDbEntity
  8
CORTE
100
AcDbLine
 10
1257.550001
 20
-8.9345
 30
0.0
 11
1257.550001
 21
-9.013143013498723
 31
0.0
  0
LINE
  5
3A
330
17
100
AcDbEntity
  8
CORTE
100
AcDbLine
 10
1257.550001
 20
-9.0655
 30
0.0
 11
1257.550001
 21
-9.013143013498723
 31
0.0
  0
LINE
  5
3B
330
17
100
AcDbEntity
  8
CORTE
100
AcDbLine
 10
1257.550001
 20
-9.0655
 30
0.0
 11
1257.5495021271433
 21
-9.067063855344765
 31
0.0
  0
LINE
  5
3C
330
17
100
AcDbEntity
  8
CORTE
100
AcDbLine
 10
1257.54917
 20
-9.068105
 30
0.0
 11
1257.5495021271433
 21
-9.067063855344765
 31
0.0
  0
LINE
  5
3D
330
17
100
AcDbEntity
  8
CORTE
100
AcDbLine
 10
1257.54917
 20
-9.068105
 30
0.0
 11
1257.5488776400948
 21
-9.068451389456403
 31
0.0
  0
LINE
  5
3E
330
17
100
AcDbEntity
  8
CORTE
100
AcDbLine
 10
1257.548683
 20
-9.068682
 30
0.0
 11
1257.5488776400948
 21
-9.068451389456403
 31
0.0
  0
LINE
  5
3F
330
17
100
AcDbEntity
  8
CORTE
100
AcDbLine
 10
1257.5455
 20
-8.93
 30
0.0
 11
1257.5470638553447
 21
-8.93049887285662
 31
0.0
  0
LINE
  5
40
330
17
100
AcDbEntity
  8
CORTE
100
AcDbLine
 10
1257.5470638553447
 20
-8.93049887285662
 30
0.0
 11
1257.548105
 21
-8.930831
 31
0.0
  0
LINE
  5
41
330
17
100
AcDbEntity
  8
CORTE
100
AcDbLine
 10
1257.548105
 20
-8.930831
 30
0.0
 11
1257.5484519897848
 21
-8.931123359905143
 31
0.0
  0
LINE
  5
42
330
17
100
AcDbEntity
  8
CORTE
100
AcDbLine
 10
1257.5484519897848
 20
-8.931123359905143
 30
0.0
 11
1257.548683
 21
-8.931318
 31
0.0
  0
LINE
  5
43
330
17
100
AcDbEntity
  8
CORTE
100
AcDbLine
 10
1257.5470638553447
 20
-9.06950112714338
 30
0.0
 11
1257.5455
 21
-9.07
 31
0.0
  0
LINE
  5
44
330
17
100
AcDbEntity
  8
CORTE
100
AcDbLine
 10
1257.548105
 20
-9.069169
 30
0.0
 11
1257.5470638553447
 21
-9.06950112714338
 31
0.0
  0
LINE
  5
45
330
17
100
AcDbEntity
  8
CORTE
100
AcDbLine
 10
1257.5484519897848
 20
-9.068876640094857
 30
0.0
 11
1257.548105
 21
-9.069169
 31
0.0
  0
LINE
  5
46
330
17
100
AcDbEntity
  8
CORTE
100
AcDbLine
 10
1257.548683
 20
-9.068682
 30
0.0
 11
1257.5484519897848
 21
-9.068876640094857
 31
0.0
  0
LINE
  5
47
330
17
100
AcDbEntity
  8
CORTE
100
AcDbLine
 10
1257.540001
 20
-9.07
 30
0.0
 11
1257.540001
 21
-8.93
 31
0.0
  0
LINE
  5
48
330
17
100
AcDbEntity
  8
CORTE
100
AcDbLine
 10
1256.540001
 20
-8.93
 30
0.0
 11
1256.540001
 21
-9.07
 31
0.0
  0
LWPOLYLINE
  5
49
330
17
100
AcDbEntity
  8
VISTA
100
AcDbPolyline
 90
5
 70
1
 10
1257.540003
 20
-9.069999
 10
1257.540003
 20
-8.929999
 10
1257.505003
 20
-8.929999
 10
1257.505003
 20
-9.069999
 10
1257.540003
 20
-9.069999
  0
LWPOLYLINE
  5
4A
330
17
100
AcDbEntity
  8
VISTA
100
AcDbPolyline
 90
5
 70
1
 10
1256.582005
 20
-9.069999
 10
1256.582005
 20
-8.929999
 10
1256.540003
 20
-8.929999
 10
1256.540003
 20
-9.069999
 10
1256.582005
 20
-9.069999
  0
LWPOLYLINE
  5
4B
330
17
100
AcDbEntity
  8
VISTA
100
AcDbPolyline
 90
5
 70
1
 10
1257.505003
 20
-9.069999
 10
1257.505003
 20
-9.056998
 10
1257.482504
 20
-9.056998
 10
1257.482504
 20
-9.069999
 10
1257.505003
 20
-9.069999
  0
LWPOLYLINE
  5
4C
330
17
100
AcDbEntity
  8
VISTA
100
AcDbPolyline
 90
5
 70
1
 10
1257.505003
 20
-9.056998
 10
1257.505003
 20
-9.054998
 10
1257.482504
 20
-9.054998
 10
1257.482504
 20
-9.056998
 10
1257.505003
 20
-9.056998
  0
LWPOLYLINE
  5
4D
330
17
100
AcDbEntity
  8
VISTA
100
AcDbPolyline
 90
5
 70
1
 10
1256.604504
 20
-9.069999
 10
1256.604504
 20
-9.056998
 10
1256.582005
 20
-9.056998
 10
1256.582005
 20
-9.069999
 10
1256.604504
 20
-9.069999
  0
LWPOLYLINE
  5
4E
330
17
100
AcDbEntity
  8
VISTA
100
AcDbPolyline
 90
5
 70
1
 10
1256.604504
 20
-9.056998
 10
1256.604504
 20
-9.054998
 10
1256.582005
 20
-9.054998
 10
1256.582005
 20
-9.056998
 10
1256.604504
 20
-9.056998
  0
LWPOLYLINE
  5
4F
330
17
100
AcDbEntity
  8
VISTA
100
AcDbPolyline
 90
5
 70
1
 10
1257.532503
 20
-9.009998
 10
1257.532503
 20
-9.007499
 10
1257.505505
 20
-9.007499
 10
1257.505505
 20
-9.009998
 10
1257.532503
 20
-9.009998
  0
LWPOLYLINE
  5
50
330
17
100
AcDbEntity
  8
VISTA
100
AcDbPolyline
 90
5
 70
1
 10
1257.497501
 20
-9.004002
 10
1257.499502
 20
-9.004002
 10
1257.499502
 20
-8.974001
 10
1257.497501
 20
-8.974001
 10
1257.497501
 20
-9.004002
  0
LWPOLYLINE
  5
51
330
17
100
AcDbEntity
  8
VISTA
100
AcDbPolyline
 90
25
 70
1
 10
1257.497501
 20
-9.0075
 10
1257.496855
 20
-9.007585
 10
1257.496252
 20
-9.007834
 10
1257.495733
 20
-9.008231
 10
1257.495337
 20
-9.008749
 10
1257.495087
 20
-9.009353
 10
1257.495001
 20
-9.009999
 10
1257.495087
 20
-9.010646
 10
1257.495337
 20
-9.01125
 10
1257.495733
 20
-9.011767
 10
1257.496252
 20
-9.012164
 10
1257.496855
 20
-9.012414
 10
1257.497501
 20
-9.012499
 10
1257.498148
 20
-9.012414
 10
1257.498751
 20
-9.012164
 10
1257.499269
 20
-9.011767
 10
1257.499666
 20
-9.01125
 10
1257.499916
 20
-9.010646
 10
1257.500002
 20
-9.009999
 10
1257.499916
 20
-9.009353
 10
1257.499666
 20
-9.008749
 10
1257.499269
 20
-9.008231
 10
1257.498751
 20
-9.007834
 10
1257.498148
 20
-9.007585
 10
1257.497501
 20
-9.0075
  0
LWPOLYLINE
  5
52
330
17
100
AcDbEntity
  8
VISTA
100
AcDbPolyline
 90
25
 70
1
 10
1257.503298
 20
-9.008447
 10
1257.502697
 20
-9.006999
 10
1257.501743
 20
-9.005756
 10
1257.500502
 20
-9.004803
 10
1257.499054
 20
-9.004204
 10
1257.497501
 20
-9.004
 10
1257.495949
 20
-9.004204
 10
1257.494501
 20
-9.004803
 10
1257.493259
 20
-9.005756
 10
1257.492306
 20
-9.006999
 10
1257.491705
 20
-9.008447
 10
1257.491501
 20
-9.009999
 10
1257.491705
 20
-9.011552
 10
1257.492306
 20
-9.013
 10
1257.493259
 20
-9.014242
 10
1257.494501
 20
-9.015196
 10
1257.495949
 20
-9.015795
 10
1257.497501
 20
-9.015999
 10
1257.499054
 20
-9.015795
 10
1257.500502
 20
-9.015196
 10
1257.501743
 20
-9.014242
 10
1257.502697
 20
-9.013
 10
1257.503298
 20
-9.011552
 10
1257.503502
 20
-9.009999
 10
1257.503298
 20
-9.008447
  0
LINE
  5
53
330
17
100
AcDbEntity
  8
VISTA
100
AcDbLine
 10
1257.497501
 20
-9.002001
 30
0.0
 11
1257.497501
 21
-9.0072
 31
0.0
  0
LINE
  5
54
330
17
100
AcDbEntity
  8
VISTA
100
AcDbLine
 10
1257.499502
 20
-9.002001
 30
0.0
 11
1257.499502
 21
-9.008047
 31
0.0
  0
LINE
  5
55
330
17
100
AcDbEntity
  8
VISTA
100
AcDbLine
 10
1257.497501
 20
-9.002001
 30
0.0
 11
1257.499502
 21
-9.002001
 31
0.0
  0
LINE
  5
56
330
17
100
AcDbEntity
  8
VISTA
100
AcDbLine
 10
1257.498226
 20
-9.007296
 30
0.0
 11
1257.497501
 21
-9.0072
 31
0.0
  0
LINE
  5
57
330
17
100
AcDbEntity
  8
VISTA
100
AcDbLine
 10
1257.498901
 20
-9.007576
 30
0.0
 11
1257.498226
 21
-9.007296
 31
0.0
  0
LINE
  5
58
330
17
100
AcDbEntity
  8
VISTA
100
AcDbLine
 10
1257.499481
 20
-9.00802
 30
0.0
 11
1257.498901
 21
-9.007576
 31
0.0
  0
LWPOLYLINE
  5
59
330
17
100
AcDbEntity
  8
VISTA
100
AcDbPolyline
 90
4
 70
1
 10
1256.5895042419434
 20
-9.009998321533203
 10
1257.4975032806396
 20
-9.009998321533203
 10
1257.4975032806396
 20
-9.054998397827148
 10
1256.5895042419434
 20
-9.054998397827148
  0
DIMENSION
  5
5A
330
17
100
AcDbEntity
  8
COTAS
100
AcDbDimension
280
0
  2
*D1
  3
Standard
 10
1256.582
 20
-9.25
 30
0.0
 11
1257.0435000000002
 21
-9.25
 31
0.0
 70
32
 71
5
  1
<>
100
AcDbAlignedDimension
 13
1256.582
 23
-9.25
 33
0.0
 14
1257.505
 24
-9.25
 34
0.0
 50
0.0
100
AcDbRotatedDimension
1001
ACAD
1000
DSTYLE
1002
{
1070
140
1040
0.13
1070
41
1040
0.09
1002
}
  0
DIMENSION
  5
6E
330
17
100
AcDbEntity
  8
COTAS
100
AcDbDimension
280
0
  2
*D2
  3
Standard
 10
1256.6045036315918
 20
-9.34
 30
0.0
 11
1257.0075025558472
 21
-9.34
 31
0.0
 70
32
 71
5
  1
<>
100
AcDbAlignedDimension
 13
1256.6045036315918
 23
-9.34
 33
0.0
 14
1257.4105014801025
 24
-9.34
 34
0.0
 50
0.0
100
AcDbRotatedDimension
1001
ACAD
1000
DSTYLE
1002
{
1070
140
1040
0.13
1070
41
1040
0.09
1002
}
  0
TEXT
  5
7E
330
17
100
AcDbEntity
  8
TEXTOS
100
AcDbText
 10
1257.04
 20
-8.86
 30
0.0
 40
0.025
  1
Hoja908 x45 G; apertura en A03
100
AcDbText
  0
LWPOLYLINE
  5
7F
330
17
100
AcDbEntity
  8
CORTE
100
AcDbPolyline
 90
14
 70
1
 10
1297.6331440134986
 20
-9.0
 10
1297.685501
 20
-9.0
 10
1297.687065455673
 20
-8.99950052681503
 10
1297.688107
 20
-8.999168
 10
1297.688452789128
 20
-8.998876240423202
 10
1297.688683
 20
-8.998682
 10
1297.6888780397665
 20
-8.998451389456404
 10
1297.689171
 20
-8.998105
 10
1297.6895027274718
 20
-8.997063855344765
 10
1297.690001
 20
-8.9955
 10
1297.690001
 20
-8.88
 10
1297.62
 20
-8.88
 10
1297.62
 20
-9.0
 10
1297.6331440134986
 20
-9.0
  0
LWPOLYLINE
  5
80
330
17
100
AcDbEntity
  8
CORTE
100
AcDbPolyline
 90
24
 70
1
 10
1297.8552649016783
 20
-9.07
 10
1298.0555
 20
-9.07
 10
1298.0570638553447
 20
-9.06950112714338
 10
1298.058105
 20
-9.069169
 10
1298.058450789128
 20
-9.068876640094857
 10
1298.058681
 20
-9.068682
 10
1298.058876439438
 20
-9.068451389456403
 10
1298.05917
 20
-9.068105
 10
1298.0595013278
 20
-9.067063855344765
 10
1298.059999
 20
-9.0655
 10
1298.059999
 20
-9.013143013498723
 10
1298.059999
 20
-8.9345
 10
1298.0596676722
 20
-8.933458855344766
 10
1298.05917
 20
-8.931895
 10
1298.0589745605619
 20
-8.931664389456403
 10
1298.058681
 20
-8.931318
 10
1298.058450789128
 20
-8.931123359905143
 10
1298.058105
 20
-8.930831
 10
1298.0570638553447
 20
-8.93049887285662
 10
1298.0555
 20
-8.93
 10
1297.8552649016783
 20
-8.93
 10
1297.62
 20
-8.93
 10
1297.62
 20
-9.07
 10
1297.8552649016783
 20
-9.07
  0
LWPOLYLINE
  5
81
330
17
100
AcDbEntity
  8
CORTE
100
AcDbPolyline
 90
24
 70
1
 10
1298.9810260397664
 20
-8.931664389456403
 10
1298.980831
 20
-8.931895
 10
1298.9803327274717
 20
-8.933458855344766
 10
1298.980001
 20
-8.9345
 10
1298.980001
 20
-9.013143013498723
 10
1298.980001
 20
-9.0655
 10
1298.9804992725283
 20
-9.067063855344765
 10
1298.980831
 20
-9.068105
 10
1298.9811239602334
 20
-9.068451389456403
 10
1298.981319
 20
-9.068682
 10
1298.981664789128
 20
-9.068974359905145
 10
1298.981895
 20
-9.069169
 10
1298.983459455673
 20
-9.069667872856622
 10
1298.984501
 20
-9.07
 10
1299.2852649016781
 20
-9.07
 10
1299.42
 20
-9.07
 10
1299.42
 20
-8.93
 10
1299.2852649016781
 20
-8.93
 10
1298.984501
 20
-8.93
 10
1298.983459455673
 20
-8.930332127143378
 10
1298.981895
 20
-8.930831
 10
1298.981664789128
 20
-8.931025640094855
 10
1298.981319
 20
-8.931318
 10
1298.9810260397664
 20
-8.931664389456403
  0
LWPOLYLINE
  5
82
330
17
100
AcDbEntity
  8
CORTE
100
AcDbPolyline
 90
5
 70
1
 10
1298.059999
 20
-8.93
 10
1298.059999
 20
-9.07
 10
1298.98
 20
-9.07
 10
1298.98
 20
-8.93
 10
1298.059999
 20
-8.93
  0
DIMENSION
  5
83
330
17
100
AcDbEntity
  8
COTAS
100
AcDbDimension
280
0
  2
*D3
  3
Standard
 10
1299.44
 20
-8.93
 30
0.0
 11
1300.13
 21
-9.0
 31
0.0
 70
32
 71
5
  1
<>
100
AcDbAlignedDimension
 13
1299.44
 23
-8.93
 33
0.0
 14
1299.44
 24
-9.07
 34
0.0
 50
90.0
100
AcDbRotatedDimension
1001
ACAD
1000
DSTYLE
1002
{
1070
140
1040
0.13
1070
41
1040
0.09
1002
}
  0
TEXT
  5
94
330
17
100
AcDbEntity
  8
TEXTOS
100
AcDbText
 10
1298.52
 20
-9.27
 30
0.0
 40
0.025
  1
Sin puerta ni paso al estar
100
AcDbText
  0
ENDSEC
  0
SECTION
  2
OBJECTS
  0
DICTIONARY
  5
A
330
0
100
AcDbDictionary
281
1
  3
ACAD_COLOR
350
B
  3
ACAD_GROUP
350
C
  3
ACAD_LAYOUT
350
D
  3
ACAD_MATERIAL
350
E
  3
ACAD_MLEADERSTYLE
350
F
  3
ACAD_MLINESTYLE
350
10
  3
ACAD_PLOTSETTINGS
350
11
  3
ACAD_PLOTSTYLENAME
350
12
  3
ACAD_SCALELIST
350
14
  3
ACAD_TABLESTYLE
350
15
  3
ACAD_VISUALSTYLE
350
16
  3
EZDXF_META
350
2D
  0
DICTIONARY
  5
B
330
A
100
AcDbDictionary
281
1
  0
DICTIONARY
  5
C
330
A
100
AcDbDictionary
281
1
  0
DICTIONARY
  5
D
330
A
100
AcDbDictionary
281
1
  3
Model
350
1A
  3
Layout1
350
1E
  0
DICTIONARY
  5
E
330
A
100
AcDbDictionary
281
1
  3
ByBlock
350
1F
  3
ByLayer
350
20
  3
Global
350
21
  0
DICTIONARY
  5
F
330
A
100
AcDbDictionary
281
1
  3
Standard
350
2C
  0
DICTIONARY
  5
10
330
A
100
AcDbDictionary
281
1
  3
Standard
350
22
  0
DICTIONARY
  5
11
330
A
100
AcDbDictionary
281
1
  0
ACDBDICTIONARYWDFLT
  5
12
330
A
100
AcDbDictionary
281
1
  3
Normal
350
13
100
AcDbDictionaryWithDefault
340
13
  0
ACDBPLACEHOLDER
  5
13
330
12
  0
DICTIONARY
  5
14
330
A
100
AcDbDictionary
281
1
  0
DICTIONARY
  5
15
330
A
100
AcDbDictionary
281
1
  0
DICTIONARY
  5
16
330
A
100
AcDbDictionary
281
1
  0
LAYOUT
  5
1A
330
D
100
AcDbPlotSettings
  1

  4
A3
  6

 40
7.5
 41
20.0
 42
7.5
 43
20.0
 44
420.0
 45
297.0
 46
0.0
 47
0.0
 48
0.0
 49
0.0
140
0.0
141
0.0
142
1.0
143
1.0
 70
1024
 72
1
 73
0
 74
5
  7

 75
16
 76
0
 77
2
 78
300
147
1.0
148
0.0
149
0.0
100
AcDbLayout
  1
Model
 70
1
 71
0
 10
0.0
 20
0.0
 11
420.0
 21
297.0
 12
0.0
 22
0.0
 32
0.0
 14
1e+20
 24
1e+20
 34
1e+20
 15
-1e+20
 25
-1e+20
 35
-1e+20
146
0.0
 13
0.0
 23
0.0
 33
0.0
 16
1.0
 26
0.0
 36
0.0
 17
0.0
 27
1.0
 37
0.0
 76
1
330
17
  0
LAYOUT
  5
1E
330
D
100
AcDbPlotSettings
  1

  4
A3
  6

 40
7.5
 41
20.0
 42
7.5
 43
20.0
 44
420.0
 45
297.0
 46
0.0
 47
0.0
 48
0.0
 49
0.0
140
0.0
141
0.0
142
1.0
143
1.0
 70
0
 72
1
 73
0
 74
5
  7

 75
16
 76
0
 77
2
 78
300
147
1.0
148
0.0
149
0.0
100
AcDbLayout
  1
Layout1
 70
1
 71
1
 10
0.0
 20
0.0
 11
420.0
 21
297.0
 12
0.0
 22
0.0
 32
0.0
 14
1e+20
 24
1e+20
 34
1e+20
 15
-1e+20
 25
-1e+20
 35
-1e+20
146
0.0
 13
0.0
 23
0.0
 33
0.0
 16
1.0
 26
0.0
 36
0.0
 17
0.0
 27
1.0
 37
0.0
 76
1
330
1B
  0
MATERIAL
  5
1F
102
{ACAD_REACTORS
330
E
102
}
330
E
100
AcDbMaterial
  1
ByBlock
  2

 70
0
 40
1.0
 71
1
 41
1.0
 91
-1023410177
 42
1.0
 72
1
  3

 73
1
 74
1
 75
1
 44
0.5
 73
0
 45
1.0
 46
1.0
 77
1
  4

 78
1
 79
1
170
1
 48
1.0
171
1
  6

172
1
173
1
174
1
140
1.0
141
1.0
175
1
  7

176
1
177
1
178
1
143
1.0
179
1
  8

270
1
271
1
272
1
145
1.0
146
1.0
273
1
  9

274
1
275
1
276
1
 42
1.0
 72
1
  3

 73
1
 74
1
 75
1
 94
63
  0
MATERIAL
  5
20
102
{ACAD_REACTORS
330
E
102
}
330
E
100
AcDbMaterial
  1
ByLayer
  2

 70
0
 40
1.0
 71
1
 41
1.0
 91
-1023410177
 42
1.0
 72
1
  3

 73
1
 74
1
 75
1
 44
0.5
 73
0
 45
1.0
 46
1.0
 77
1
  4

 78
1
 79
1
170
1
 48
1.0
171
1
  6

172
1
173
1
174
1
140
1.0
141
1.0
175
1
  7

176
1
177
1
178
1
143
1.0
179
1
  8

270
1
271
1
272
1
145
1.0
146
1.0
273
1
  9

274
1
275
1
276
1
 42
1.0
 72
1
  3

 73
1
 74
1
 75
1
 94
63
  0
MATERIAL
  5
21
102
{ACAD_REACTORS
330
E
102
}
330
E
100
AcDbMaterial
  1
Global
  2

 70
0
 40
1.0
 71
1
 41
1.0
 91
-1023410177
 42
1.0
 72
1
  3

 73
1
 74
1
 75
1
 44
0.5
 73
0
 45
1.0
 46
1.0
 77
1
  4

 78
1
 79
1
170
1
 48
1.0
171
1
  6

172
1
173
1
174
1
140
1.0
141
1.0
175
1
  7

176
1
177
1
178
1
143
1.0
179
1
  8

270
1
271
1
272
1
145
1.0
146
1.0
273
1
  9

274
1
275
1
276
1
 42
1.0
 72
1
  3

 73
1
 74
1
 75
1
 94
63
  0
MLINESTYLE
  5
22
102
{ACAD_REACTORS
330
10
102
}
330
10
100
AcDbMlineStyle
  2
Standard
 70
0
  3

 62
256
 51
90.0
 52
90.0
 71
2
 49
0.5
 62
256
  6
BYLAYER
 49
-0.5
 62
256
  6
BYLAYER
  0
MLEADERSTYLE
  5
2C
102
{ACAD_REACTORS
330
F
102
}
330
F
100
AcDbMLeaderStyle
179
2
170
2
171
1
172
0
 90
2
 40
0.0
 41
0.0
173
1
 91
-1056964608
 92
-2
290
1
 42
2.0
291
1
 43
8.0
  3
Standard
 44
4.0
300

342
29
174
1
175
1
176
0
178
1
 93
-1056964608
 45
4.0
292
0
297
0
 46
4.0
 94
-1056964608
 47
1.0
 49
1.0
140
1.0
294
1
141
0.0
177
0
142
1.0
295
0
296
0
143
3.75
271
0
272
9
273
9
  0
DICTIONARY
  5
2D
330
A
100
AcDbDictionary
280
1
281
1
  3
CREATED_BY_EZDXF
350
2E
  3
WRITTEN_BY_EZDXF
350
97
  0
DICTIONARYVAR
  5
2E
330
2D
100
DictionaryVariables
280
0
  1
1.4.4 @ 2026-09-11T02:41:47.460561+00:00
  0
DICTIONARYVAR
  5
97
330
2D
100
DictionaryVariables
280
0
  1
1.4.4 @ 2026-09-11T02:41:47.499758+00:00
  0
ENDSEC
  0
EOF
