  0
SECTION
  2
HEADER
  9
$ACADVER
  1
AC1024
  9
$ACADMAINTVER
 70
6
  9
$DWGCODEPAGE
  3
ANSI_1252
  9
$LASTSAVEDBY
  1
ezdxf
  9
$INSBASE
 10
0.0
 20
0.0
 30
0.0
  9
$EXTMIN
 10
1e+20
 20
1e+20
 30
1e+20
  9
$EXTMAX
 10
-1e+20
 20
-1e+20
 30
-1e+20
  9
$LIMMIN
 10
0.0
 20
0.0
  9
$LIMMAX
 10
420.0
 20
297.0
  9
$ORTHOMODE
 70
0
  9
$REGENMODE
 70
1
  9
$FILLMODE
 70
1
  9
$QTEXTMODE
 70
0
  9
$MIRRTEXT
 70
1
  9
$LTSCALE
 40
1.0
  9
$ATTMODE
 70
1
  9
$TEXTSIZE
 40
2.5
  9
$TRACEWID
 40
1.0
  9
$TEXTSTYLE
  7
Standard
  9
$CLAYER
  8
0
  9
$CELTYPE
  6
ByLayer
  9
$CECOLOR
 62
256
  9
$CELTSCALE
 40
1.0
  9
$DISPSILH
 70
0
  9
$DIMSCALE
 40
1.0
  9
$DIMASZ
 40
2.5
  9
$DIMEXO
 40
0.625
  9
$DIMDLI
 40
3.75
  9
$DIMRND
 40
0.0
  9
$DIMDLE
 40
0.0
  9
$DIMEXE
 40
1.25
  9
$DIMTP
 40
0.0
  9
$DIMTM
 40
0.0
  9
$DIMTXT
 40
2.5
  9
$DIMCEN
 40
2.5
  9
$DIMTSZ
 40
0.0
  9
$DIMTOL
 70
0
  9
$DIMLIM
 70
0
  9
$DIMTIH
 70
0
  9
$DIMTOH
 70
0
  9
$DIMSE1
 70
0
  9
$DIMSE2
 70
0
  9
$DIMTAD
 70
1
  9
$DIMZIN
 70
8
  9
$DIMBLK
  1

  9
$DIMASO
 70
1
  9
$DIMSHO
 70
1
  9
$DIMPOST
  1

  9
$DIMAPOST
  1

  9
$DIMALT
 70
0
  9
$DIMALTD
 70
3
  9
$DIMALTF
 40
0.03937007874
  9
$DIMLFAC
 40
1.0
  9
$DIMTOFL
 70
1
  9
$DIMTVP
 40
0.0
  9
$DIMTIX
 70
0
  9
$DIMSOXD
 70
0
  9
$DIMSAH
 70
0
  9
$DIMBLK1
  1

  9
$DIMBLK2
  1

  9
$DIMSTYLE
  2
ISO-25
  9
$DIMCLRD
 70
0
  9
$DIMCLRE
 70
0
  9
$DIMCLRT
 70
0
  9
$DIMTFAC
 40
1.0
  9
$DIMGAP
 40
0.625
  9
$DIMJUST
 70
0
  9
$DIMSD1
 70
0
  9
$DIMSD2
 70
0
  9
$DIMTOLJ
 70
0
  9
$DIMTZIN
 70
8
  9
$DIMALTZ
 70
0
  9
$DIMALTTZ
 70
0
  9
$DIMUPT
 70
0
  9
$DIMDEC
 70
2
  9
$DIMTDEC
 70
2
  9
$DIMALTU
 70
2
  9
$DIMALTTD
 70
3
  9
$DIMTXSTY
  7
Standard
  9
$DIMAUNIT
 70
0
  9
$DIMADEC
 70
0
  9
$DIMALTRND
 40
0.0
  9
$DIMAZIN
 70
0
  9
$DIMDSEP
 70
44
  9
$DIMATFIT
 70
3
  9
$DIMFRAC
 70
0
  9
$DIMLDRBLK
  1

  9
$DIMLUNIT
 70
2
  9
$DIMLWD
 70
-2
  9
$DIMLWE
 70
-2
  9
$DIMTMOVE
 70
0
  9
$DIMFXL
 40
1.0
  9
$DIMFXLON
 70
0
  9
$DIMJOGANG
 40
0.785398163397
  9
$DIMTFILL
 70
0
  9
$DIMTFILLCLR
 70
0
  9
$DIMARCSYM
 70
0
  9
$DIMLTYPE
  6

  9
$DIMLTEX1
  6

  9
$DIMLTEX2
  6

  9
$DIMTXTDIRECTION
 70
0
  9
$LUNITS
 70
2
  9
$LUPREC
 70
4
  9
$SKETCHINC
 40
1.0
  9
$FILLETRAD
 40
10.0
  9
$AUNITS
 70
0
  9
$AUPREC
 70
2
  9
$MENU
  1
.
  9
$ELEVATION
 40
0.0
  9
$PELEVATION
 40
0.0
  9
$THICKNESS
 40
0.0
  9
$LIMCHECK
 70
0
  9
$CHAMFERA
 40
0.0
  9
$CHAMFERB
 40
0.0
  9
$CHAMFERC
 40
0.0
  9
$CHAMFERD
 40
0.0
  9
$SKPOLY
 70
0
  9
$TDCREATE
 40
2461294.983796296
  9
$TDUCREATE
 40
2458532.153996898
  9
$TDUPDATE
 40
2461294.983796296
  9
$TDUUPDATE
 40
2458532.1544311
  9
$TDINDWG
 40
0.0
  9
$TDUSRTIMER
 40
0.0
  9
$USRTIMER
 70
1
  9
$ANGBASE
 50
0.0
  9
$ANGDIR
 70
0
  9
$PDMODE
 70
0
  9
$PDSIZE
 40
0.0
  9
$PLINEWID
 40
0.0
  9
$SPLFRAME
 70
0
  9
$SPLINETYPE
 70
6
  9
$SPLINESEGS
 70
8
  9
$HANDSEED
  5
12E
  9
$SURFTAB1
 70
6
  9
$SURFTAB2
 70
6
  9
$SURFTYPE
 70
6
  9
$SURFU
 70
6
  9
$SURFV
 70
6
  9
$UCSBASE
  2

  9
$UCSNAME
  2

  9
$UCSORG
 10
0.0
 20
0.0
 30
0.0
  9
$UCSXDIR
 10
1.0
 20
0.0
 30
0.0
  9
$UCSYDIR
 10
0.0
 20
1.0
 30
0.0
  9
$UCSORTHOREF
  2

  9
$UCSORTHOVIEW
 70
0
  9
$UCSORGTOP
 10
0.0
 20
0.0
 30
0.0
  9
$UCSORGBOTTOM
 10
0.0
 20
0.0
 30
0.0
  9
$UCSORGLEFT
 10
0.0
 20
0.0
 30
0.0
  9
$UCSORGRIGHT
 10
0.0
 20
0.0
 30
0.0
  9
$UCSORGFRONT
 10
0.0
 20
0.0
 30
0.0
  9
$UCSORGBACK
 10
0.0
 20
0.0
 30
0.0
  9
$PUCSBASE
  2

  9
$PUCSNAME
  2

  9
$PUCSORG
 10
0.0
 20
0.0
 30
0.0
  9
$PUCSXDIR
 10
1.0
 20
0.0
 30
0.0
  9
$PUCSYDIR
 10
0.0
 20
1.0
 30
0.0
  9
$PUCSORTHOREF
  2

  9
$PUCSORTHOVIEW
 70
0
  9
$PUCSORGTOP
 10
0.0
 20
0.0
 30
0.0
  9
$PUCSORGBOTTOM
 10
0.0
 20
0.0
 30
0.0
  9
$PUCSORGLEFT
 10
0.0
 20
0.0
 30
0.0
  9
$PUCSORGRIGHT
 10
0.0
 20
0.0
 30
0.0
  9
$PUCSORGFRONT
 10
0.0
 20
0.0
 30
0.0
  9
$PUCSORGBACK
 10
0.0
 20
0.0
 30
0.0
  9
$USERI1
 70
0
  9
$USERI2
 70
0
  9
$USERI3
 70
0
  9
$USERI4
 70
0
  9
$USERI5
 70
0
  9
$USERR1
 40
0.0
  9
$USERR2
 40
0.0
  9
$USERR3
 40
0.0
  9
$USERR4
 40
0.0
  9
$USERR5
 40
0.0
  9
$WORLDVIEW
 70
1
  9
$SHADEDGE
 70
3
  9
$SHADEDIF
 70
70
  9
$TILEMODE
 70
1
  9
$MAXACTVP
 70
64
  9
$PINSBASE
 10
0.0
 20
0.0
 30
0.0
  9
$PLIMCHECK
 70
0
  9
$PEXTMIN
 10
1e+20
 20
1e+20
 30
1e+20
  9
$PEXTMAX
 10
-1e+20
 20
-1e+20
 30
-1e+20
  9
$PLIMMIN
 10
0.0
 20
0.0
  9
$PLIMMAX
 10
420.0
 20
297.0
  9
$UNITMODE
 70
0
  9
$VISRETAIN
 70
1
  9
$PLINEGEN
 70
0
  9
$PSLTSCALE
 70
1
  9
$TREEDEPTH
 70
3020
  9
$CMLSTYLE
  2
Standard
  9
$CMLJUST
 70
0
  9
$CMLSCALE
 40
20.0
  9
$PROXYGRAPHICS
 70
1
  9
$MEASUREMENT
 70
1
  9
$CELWEIGHT
370
-1
  9
$ENDCAPS
280
0
  9
$JOINSTYLE
280
0
  9
$LWDISPLAY
290
0
  9
$INSUNITS
 70
6
  9
$HYPERLINKBASE
  1

  9
$STYLESHEET
  1

  9
$XEDIT
290
1
  9
$CEPSNTYPE
380
0
  9
$PSTYLEMODE
290
1
  9
$FINGERPRINTGUID
  2
{686D6050-27FB-4C66-8570-20D7DAB805E8}
  9
$VERSIONGUID
  2
{DE58A3EC-D479-4549-8455-74022EDDBA46}
  9
$EXTNAMES
290
1
  9
$PSVPSCALE
 40
0.0
  9
$OLESTARTUP
290
0
  9
$SORTENTS
280
127
  9
$INDEXCTL
280
0
  9
$HIDETEXT
280
1
  9
$XCLIPFRAME
280
1
  9
$HALOGAP
280
0
  9
$OBSCOLOR
 70
257
  9
$OBSLTYPE
280
0
  9
$INTERSECTIONDISPLAY
280
0
  9
$INTERSECTIONCOLOR
 70
257
  9
$DIMASSOC
280
2
  9
$PROJECTNAME
  1

  9
$CAMERADISPLAY
290
0
  9
$LENSLENGTH
 40
50.0
  9
$CAMERAHEIGHT
 40
0.0
  9
$STEPSPERSEC
 40
24.0
  9
$STEPSIZE
 40
100.0
  9
$3DDWFPREC
 40
2.0
  9
$PSOLWIDTH
 40
0.005
  9
$PSOLHEIGHT
 40
0.08
  9
$LOFTANG1
 40
1.570796326795
  9
$LOFTANG2
 40
1.570796326795
  9
$LOFTMAG1
 40
0.0
  9
$LOFTMAG2
 40
0.0
  9
$LOFTPARAM
 70
7
  9
$LOFTNORMALS
280
1
  9
$LATITUDE
 40
37.795
  9
$LONGITUDE
 40
-122.394
  9
$NORTHDIRECTION
 40
0.0
  9
$TIMEZONE
 70
-8000
  9
$LIGHTGLYPHDISPLAY
280
1
  9
$TILEMODELIGHTSYNCH
280
1
  9
$CMATERIAL
347
20
  9
$SOLIDHIST
280
0
  9
$SHOWHIST
280
1
  9
$DWFFRAME
280
2
  9
$DGNFRAME
280
2
  9
$REALWORLDSCALE
290
1
  9
$INTERFERECOLOR
 62
256
  9
$CSHADOW
280
0
  9
$SHADOWPLANELOCATION
 40
0.0
  0
ENDSEC
  0
SECTION
  2
CLASSES
  0
CLASS
  1
ACDBDICTIONARYWDFLT
  2
AcDbDictionaryWithDefault
  3
ObjectDBX Classes
 90
0
 91
0
280
0
281
0
  0
CLASS
  1
SUN
  2
AcDbSun
  3
SCENEOE
 90
1153
 91
0
280
0
281
0
  0
CLASS
  1
VISUALSTYLE
  2
AcDbVisualStyle
  3
ObjectDBX Classes
 90
4095
 91
0
280
0
281
0
  0
CLASS
  1
MATERIAL
  2
AcDbMaterial
  3
ObjectDBX Classes
 90
1153
 91
0
280
0
281
0
  0
CLASS
  1
SCALE
  2
AcDbScale
  3
ObjectDBX Classes
 90
1153
 91
0
280
0
281
0
  0
CLASS
  1
TABLESTYLE
  2
AcDbTableStyle
  3
ObjectDBX Classes
 90
4095
 91
0
280
0
281
0
  0
CLASS
  1
MLEADERSTYLE
  2
AcDbMLeaderStyle
  3
ACDB_MLEADERSTYLE_CLASS
 90
4095
 91
0
280
0
281
0
  0
CLASS
  1
DICTIONARYVAR
  2
AcDbDictionaryVar
  3
ObjectDBX Classes
 90
0
 91
0
280
0
281
0
  0
CLASS
  1
CELLSTYLEMAP
  2
AcDbCellStyleMap
  3
ObjectDBX Classes
 90
1152
 91
0
280
0
281
0
  0
CLASS
  1
MENTALRAYRENDERSETTINGS
  2
AcDbMentalRayRenderSettings
  3
SCENEOE
 90
1024
 91
0
280
0
281
0
  0
CLASS
  1
ACDBDETAILVIEWSTYLE
  2
AcDbDetailViewStyle
  3
ObjectDBX Classes
 90
1025
 91
0
280
0
281
0
  0
CLASS
  1
ACDBSECTIONVIEWSTYLE
  2
AcDbSectionViewStyle
  3
ObjectDBX Classes
 90
1025
 91
0
280
0
281
0
  0
CLASS
  1
RASTERVARIABLES
  2
AcDbRasterVariables
  3
ISM
 90
0
 91
0
280
0
281
0
  0
CLASS
  1
LAYOUT
  2
AcDbLayout
  3
ObjectDBX Classes
 90
0
 91
0
280
0
281
0
  0
CLASS
  1
ACDBPLACEHOLDER
  2
AcDbPlaceHolder
  3
ObjectDBX Classes
 90
0
 91
0
280
0
281
0
  0
ENDSEC
  0
SECTION
  2
TABLES
  0
TABLE
  2
VPORT
  5
8
330
0
100
AcDbSymbolTable
 70
1
  0
VPORT
  5
23
330
8
100
AcDbSymbolTableRecord
100
AcDbViewportTableRecord
  2
*Active
 70
0
 10
0.0
 20
0.0
 11
1.0
 21
1.0
 12
0.0
 22
0.0
 13
0.0
 23
0.0
 14
0.5
 24
0.5
 15
0.5
 25
0.5
 16
0.0
 26
0.0
 36
1.0
 17
0.0
 27
0.0
 37
0.0
 40
1000.0
 41
1.34
 42
50.0
 43
0.0
 44
0.0
 50
0.0
 51
0.0
 71
0
 72
1000
 73
1
 74
3
 75
0
 76
0
 77
0
 78
0
281
0
 65
0
146
0.0
  0
ENDTAB
  0
TABLE
  2
LTYPE
  5
2
330
0
100
AcDbSymbolTable
 70
3
  0
LTYPE
  5
24
330
2
100
AcDbSymbolTableRecord
100
AcDbLinetypeTableRecord
  2
ByBlock
 70
0
  3

 72
65
 73
0
 40
0.0
  0
LTYPE
  5
25
330
2
100
AcDbSymbolTableRecord
100
AcDbLinetypeTableRecord
  2
ByLayer
 70
0
  3

 72
65
 73
0
 40
0.0
  0
LTYPE
  5
26
330
2
100
AcDbSymbolTableRecord
100
AcDbLinetypeTableRecord
  2
Continuous
 70
0
  3

 72
65
 73
0
 40
0.0
  0
ENDTAB
  0
TABLE
  2
LAYER
  5
1
330
0
100
AcDbSymbolTable
 70
7
  0
LAYER
  5
27
330
1
100
AcDbSymbolTableRecord
100
AcDbLayerTableRecord
  2
0
 70
0
 62
7
  6
Continuous
370
-3
390
13
347
21
  0
LAYER
  5
28
330
1
100
AcDbSymbolTableRecord
100
AcDbLayerTableRecord
  2
Defpoints
 70
0
 62
7
  6
Continuous
290
0
370
-3
390
13
347
21
  0
LAYER
  5
2F
330
1
100
AcDbSymbolTableRecord
100
AcDbLayerTableRecord
  2
G_MEDIDO
 70
0
 62
8
  6
Continuous
370
-3
390
13
347
21
  0
LAYER
  5
30
330
1
100
AcDbSymbolTableRecord
100
AcDbLayerTableRecord
  2
P_PROPUESTO
 70
0
 62
5
  6
Continuous
370
-3
390
13
347
21
  0
LAYER
  5
31
330
1
100
AcDbSymbolTableRecord
100
AcDbLayerTableRecord
  2
COTAS
 70
0
 62
4
  6
Continuous
370
-3
390
13
347
21
  0
LAYER
  5
32
330
1
100
AcDbSymbolTableRecord
100
AcDbLayerTableRecord
  2
TEXTOS
 70
0
 62
7
  6
Continuous
370
-3
390
13
347
21
  0
LAYER
  5
33
330
1
100
AcDbSymbolTableRecord
100
AcDbLayerTableRecord
  2
REVISAR
 70
0
 62
30
  6
Continuous
370
-3
390
13
347
21
  0
ENDTAB
  0
TABLE
  2
STYLE
  5
5
330
0
100
AcDbSymbolTable
 70
1
  0
STYLE
  5
29
330
5
100
AcDbSymbolTableRecord
100
AcDbTextStyleTableRecord
  2
Standard
 70
0
 40
0.0
 41
1.0
 50
0.0
 71
0
 42
2.5
  3
txt
  4

  0
ENDTAB
  0
TABLE
  2
VIEW
  5
7
330
0
100
AcDbSymbolTable
 70
0
  0
ENDTAB
  0
TABLE
  2
UCS
  5
6
330
0
100
AcDbSymbolTable
 70
0
  0
ENDTAB
  0
TABLE
  2
APPID
  5
3
330
0
100
AcDbSymbolTable
 70
3
  0
APPID
  5
2A
330
3
100
AcDbSymbolTableRecord
100
AcDbRegAppTableRecord
  2
ACAD
 70
0
  0
APPID
  5
12B
330
3
100
AcDbSymbolTableRecord
100
AcDbRegAppTableRecord
  2
HATCHBACKGROUNDCOLOR
 70
0
  0
APPID
  5
12C
330
3
100
AcDbSymbolTableRecord
100
AcDbRegAppTableRecord
  2
EZDXF
 70
0
  0
ENDTAB
  0
TABLE
  2
DIMSTYLE
  5
4
330
0
100
AcDbSymbolTable
 70
1
100
AcDbDimStyleTable
  0
DIMSTYLE
105
2B
330
4
100
AcDbSymbolTableRecord
100
AcDbDimStyleTableRecord
  2
Standard
 70
0
 40
1.0
 41
2.5
 42
0.625
 43
3.75
 44
1.25
 45
0.0
 46
0.0
 47
0.0
 48
0.0
 49
2.5
140
2.5
141
2.5
142
0.0
143
0.03937007874
144
1.0
145
0.0
146
1.0
147
0.625
148
0.0
 69
0
 70
0
 71
0
 72
0
 73
0
 74
0
 75
0
 76
0
 77
1
 78
8
 79
3
170
0
171
3
172
1
173
0
174
0
175
0
176
0
177
0
178
0
179
2
271
2
272
2
273
2
274
3
275
0
276
0
277
2
278
44
279
0
280
0
281
0
282
0
283
0
284
8
285
0
286
0
288
0
289
3
290
0
371
-2
372
-2
  0
ENDTAB
  0
TABLE
  2
BLOCK_RECORD
  5
9
330
0
100
AcDbSymbolTable
 70
13
  0
BLOCK_RECORD
  5
17
330
9
100
AcDbSymbolTableRecord
100
AcDbBlockTableRecord
  2
*Model_Space
340
1A
 70
0
280
1
281
0
  0
BLOCK_RECORD
  5
1B
330
9
100
AcDbSymbolTableRecord
100
AcDbBlockTableRecord
  2
*Paper_Space
340
1E
 70
0
280
1
281
0
  0
BLOCK_RECORD
  5
45
330
9
100
AcDbSymbolTableRecord
100
AcDbBlockTableRecord
  2
*D1
340
0
 70
0
280
1
281
0
  0
BLOCK_RECORD
  5
4A
330
9
100
AcDbSymbolTableRecord
100
AcDbBlockTableRecord
  2
_CLOSEDFILLED
340
0
 70
0
280
1
281
0
  0
BLOCK_RECORD
  5
5B
330
9
100
AcDbSymbolTableRecord
100
AcDbBlockTableRecord
  2
*D2
340
0
 70
0
280
1
281
0
  0
BLOCK_RECORD
  5
6D
330
9
100
AcDbSymbolTableRecord
100
AcDbBlockTableRecord
  2
*D3
340
0
 70
0
280
1
281
0
  0
BLOCK_RECORD
  5
7F
330
9
100
AcDbSymbolTableRecord
100
AcDbBlockTableRecord
  2
*D4
340
0
 70
0
280
1
281
0
  0
BLOCK_RECORD
  5
91
330
9
100
AcDbSymbolTableRecord
100
AcDbBlockTableRecord
  2
*D5
340
0
 70
0
280
1
281
0
  0
BLOCK_RECORD
  5
A3
330
9
100
AcDbSymbolTableRecord
100
AcDbBlockTableRecord
  2
*D6
340
0
 70
0
280
1
281
0
  0
BLOCK_RECORD
  5
E5
330
9
100
AcDbSymbolTableRecord
100
AcDbBlockTableRecord
  2
*D7
340
0
 70
0
280
1
281
0
  0
BLOCK_RECORD
  5
F7
330
9
100
AcDbSymbolTableRecord
100
AcDbBlockTableRecord
  2
*D8
340
0
 70
0
280
1
281
0
  0
BLOCK_RECORD
  5
109
330
9
100
AcDbSymbolTableRecord
100
AcDbBlockTableRecord
  2
*D9
340
0
 70
0
280
1
281
0
  0
BLOCK_RECORD
  5
11A
330
9
100
AcDbSymbolTableRecord
100
AcDbBlockTableRecord
  2
*D10
340
0
 70
0
280
1
281
0
  0
ENDTAB
  0
ENDSEC
  0
SECTION
  2
BLOCKS
  0
BLOCK
  5
18
330
17
100
AcDbEntity
  8
0
100
AcDbBlockBegin
  2
*Model_Space
 70
0
 10
0.0
 20
0.0
 30
0.0
  3
*Model_Space
  1

  0
ENDBLK
  5
19
330
17
100
AcDbEntity
  8
0
100
AcDbBlockEnd
  0
BLOCK
  5
1C
330
1B
100
AcDbEntity
  8
0
100
AcDbBlockBegin
  2
*Paper_Space
 70
0
 10
0.0
 20
0.0
 30
0.0
  3
*Paper_Space
  1

  0
ENDBLK
  5
1D
330
1B
100
AcDbEntity
  8
0
100
AcDbBlockEnd
  0
BLOCK
  5
46
330
45
100
AcDbEntity
  8
0
100
AcDbBlockBegin
  2
*D1
 70
1
 10
0.0
 20
0.0
 30
0.0
  3
*D1
  1

  0
LINE
  5
48
330
45
100
AcDbEntity
  8
0
100
AcDbLine
 10
0.35
 20
0.735
 30
0.0
 11
0.35
 21
0.735
 31
0.0
  0
LINE
  5
49
330
45
100
AcDbEntity
  8
0
100
AcDbLine
 10
0.56
 20
0.735
 30
0.0
 11
0.56
 21
0.735
 31
0.0
  0
INSERT
  5
4E
330
45
100
AcDbEntity
  8
COTAS
100
AcDbBlockReference
  2
_CLOSEDFILLED
 10
0.35
 20
0.735
 30
0.0
 41
0.007
 42
0.007
  0
INSERT
  5
50
330
45
100
AcDbEntity
  8
COTAS
100
AcDbBlockReference
  2
_CLOSEDFILLED
 10
0.56
 20
0.735
 30
0.0
 41
0.007
 42
0.007
 50
180.0
  0
LINE
  5
52
330
45
100
AcDbEntity
  8
0
100
AcDbLine
 10
0.34299999999999997
 20
0.735
 30
0.0
 11
0.33599999999999997
 21
0.735
 31
0.0
  0
LINE
  5
53
330
45
100
AcDbEntity
  8
0
100
AcDbLine
 10
0.5670000000000001
 20
0.735
 30
0.0
 11
0.5740000000000001
 21
0.735
 31
0.0
  0
LINE
  5
54
330
45
100
AcDbEntity
  8
0
100
AcDbLine
 10
0.35
 20
0.735
 30
0.0
 11
0.429
 21
0.735
 31
0.0
  0
LINE
  5
55
330
45
100
AcDbEntity
  8
0
100
AcDbLine
 10
0.48100000000000004
 20
0.735
 30
0.0
 11
0.56
 21
0.735
 31
0.0
  0
MTEXT
  5
56
330
45
100
AcDbEntity
  8
COTAS
100
AcDbMText
 10
0.455
 20
0.735
 30
0.0
 40
0.013
 71
5
  1
0,21
  0
POINT
  5
57
330
45
100
AcDbEntity
  8
Defpoints
100
AcDbPoint
 10
0.35
 20
0.735
 30
0.0
  0
POINT
  5
58
330
45
100
AcDbEntity
  8
Defpoints
100
AcDbPoint
 10
0.35
 20
0.735
 30
0.0
  0
POINT
  5
59
330
45
100
AcDbEntity
  8
Defpoints
100
AcDbPoint
 10
0.56
 20
0.735
 30
0.0
  0
ENDBLK
  5
47
330
45
100
AcDbEntity
  8
0
100
AcDbBlockEnd
  0
BLOCK
  5
4B
330
4A
100
AcDbEntity
  8
0
100
AcDbBlockBegin
  2
_CLOSEDFILLED
 70
0
 10
0.0
 20
0.0
 30
0.0
  3
_CLOSEDFILLED
  1

  0
SOLID
  5
4D
330
4A
100
AcDbEntity
  8
0
  6
BYBLOCK
 62
0
100
AcDbTrace
 10
-1.0
 20
0.16439898372402537
 30
0.0
 11
0.0
 21
0.0
 31
0.0
 12
-1.0
 22
-0.16439898372402537
 32
0.0
 13
-1.0
 23
-0.16439898372402537
 33
0.0
  0
ENDBLK
  5
4C
330
4A
100
AcDbEntity
  8
0
100
AcDbBlockEnd
  0
BLOCK
  5
5C
330
5B
100
AcDbEntity
  8
0
100
AcDbBlockBegin
  2
*D2
 70
1
 10
0.0
 20
0.0
 30
0.0
  3
*D2
  1

  0
LINE
  5
5E
330
5B
100
AcDbEntity
  8
0
100
AcDbLine
 10
0.35
 20
0.66
 30
0.0
 11
0.35
 21
0.66
 31
0.0
  0
LINE
  5
5F
330
5B
100
AcDbEntity
  8
0
100
AcDbLine
 10
0.44
 20
0.66
 30
0.0
 11
0.44
 21
0.66
 31
0.0
  0
INSERT
  5
60
330
5B
100
AcDbEntity
  8
COTAS
100
AcDbBlockReference
  2
_CLOSEDFILLED
 10
0.35
 20
0.66
 30
0.0
 41
0.007
 42
0.007
  0
INSERT
  5
62
330
5B
100
AcDbEntity
  8
COTAS
100
AcDbBlockReference
  2
_CLOSEDFILLED
 10
0.44
 20
0.66
 30
0.0
 41
0.007
 42
0.007
 50
180.0
  0
LINE
  5
64
330
5B
100
AcDbEntity
  8
0
100
AcDbLine
 10
0.34299999999999997
 20
0.66
 30
0.0
 11
0.33599999999999997
 21
0.66
 31
0.0
  0
LINE
  5
65
330
5B
100
AcDbEntity
  8
0
100
AcDbLine
 10
0.447
 20
0.66
 30
0.0
 11
0.454
 21
0.66
 31
0.0
  0
LINE
  5
66
330
5B
100
AcDbEntity
  8
0
100
AcDbLine
 10
0.35
 20
0.66
 30
0.0
 11
0.369
 21
0.66
 31
0.0
  0
LINE
  5
67
330
5B
100
AcDbEntity
  8
0
100
AcDbLine
 10
0.42100000000000004
 20
0.66
 30
0.0
 11
0.44
 21
0.66
 31
0.0
  0
MTEXT
  5
68
330
5B
100
AcDbEntity
  8
COTAS
100
AcDbMText
 10
0.395
 20
0.66
 30
0.0
 40
0.013
 71
5
  1
0,09
  0
POINT
  5
69
330
5B
100
AcDbEntity
  8
Defpoints
100
AcDbPoint
 10
0.35
 20
0.66
 30
0.0
  0
POINT
  5
6A
330
5B
100
AcDbEntity
  8
Defpoints
100
AcDbPoint
 10
0.35
 20
0.66
 30
0.0
  0
POINT
  5
6B
330
5B
100
AcDbEntity
  8
Defpoints
100
AcDbPoint
 10
0.44
 20
0.66
 30
0.0
  0
ENDBLK
  5
5D
330
5B
100
AcDbEntity
  8
0
100
AcDbBlockEnd
  0
BLOCK
  5
6E
330
6D
100
AcDbEntity
  8
0
100
AcDbBlockBegin
  2
*D3
 70
1
 10
0.0
 20
0.0
 30
0.0
  3
*D3
  1

  0
LINE
  5
70
330
6D
100
AcDbEntity
  8
0
100
AcDbLine
 10
0.44
 20
0.66
 30
0.0
 11
0.44
 21
0.66
 31
0.0
  0
LINE
  5
71
330
6D
100
AcDbEntity
  8
0
100
AcDbLine
 10
0.52
 20
0.66
 30
0.0
 11
0.52
 21
0.66
 31
0.0
  0
INSERT
  5
72
330
6D
100
AcDbEntity
  8
COTAS
100
AcDbBlockReference
  2
_CLOSEDFILLED
 10
0.44
 20
0.66
 30
0.0
 41
0.007
 42
0.007
  0
INSERT
  5
74
330
6D
100
AcDbEntity
  8
COTAS
100
AcDbBlockReference
  2
_CLOSEDFILLED
 10
0.52
 20
0.66
 30
0.0
 41
0.007
 42
0.007
 50
180.0
  0
LINE
  5
76
330
6D
100
AcDbEntity
  8
0
100
AcDbLine
 10
0.433
 20
0.66
 30
0.0
 11
0.426
 21
0.66
 31
0.0
  0
LINE
  5
77
330
6D
100
AcDbEntity
  8
0
100
AcDbLine
 10
0.527
 20
0.66
 30
0.0
 11
0.534
 21
0.66
 31
0.0
  0
LINE
  5
78
330
6D
100
AcDbEntity
  8
0
100
AcDbLine
 10
0.44
 20
0.66
 30
0.0
 11
0.45399999999999996
 21
0.66
 31
0.0
  0
LINE
  5
79
330
6D
100
AcDbEntity
  8
0
100
AcDbLine
 10
0.506
 20
0.66
 30
0.0
 11
0.52
 21
0.66
 31
0.0
  0
MTEXT
  5
7A
330
6D
100
AcDbEntity
  8
COTAS
100
AcDbMText
 10
0.48
 20
0.66
 30
0.0
 40
0.013
 71
5
  1
0,08
  0
POINT
  5
7B
330
6D
100
AcDbEntity
  8
Defpoints
100
AcDbPoint
 10
0.44
 20
0.66
 30
0.0
  0
POINT
  5
7C
330
6D
100
AcDbEntity
  8
Defpoints
100
AcDbPoint
 10
0.44
 20
0.66
 30
0.0
  0
POINT
  5
7D
330
6D
100
AcDbEntity
  8
Defpoints
100
AcDbPoint
 10
0.52
 20
0.66
 30
0.0
  0
ENDBLK
  5
6F
330
6D
100
AcDbEntity
  8
0
100
AcDbBlockEnd
  0
BLOCK
  5
80
330
7F
100
AcDbEntity
  8
0
100
AcDbBlockBegin
  2
*D4
 70
1
 10
0.0
 20
0.0
 30
0.0
  3
*D4
  1

  0
LINE
  5
82
330
7F
100
AcDbEntity
  8
0
100
AcDbLine
 10
0.35
 20
0.58
 30
0.0
 11
0.35
 21
0.58
 31
0.0
  0
LINE
  5
83
330
7F
100
AcDbEntity
  8
0
100
AcDbLine
 10
0.52
 20
0.58
 30
0.0
 11
0.52
 21
0.58
 31
0.0
  0
INSERT
  5
84
330
7F
100
AcDbEntity
  8
COTAS
100
AcDbBlockReference
  2
_CLOSEDFILLED
 10
0.35
 20
0.58
 30
0.0
 41
0.007
 42
0.007
  0
INSERT
  5
86
330
7F
100
AcDbEntity
  8
COTAS
100
AcDbBlockReference
  2
_CLOSEDFILLED
 10
0.52
 20
0.58
 30
0.0
 41
0.007
 42
0.007
 50
180.0
  0
LINE
  5
88
330
7F
100
AcDbEntity
  8
0
100
AcDbLine
 10
0.34299999999999997
 20
0.58
 30
0.0
 11
0.33599999999999997
 21
0.58
 31
0.0
  0
LINE
  5
89
330
7F
100
AcDbEntity
  8
0
100
AcDbLine
 10
0.527
 20
0.58
 30
0.0
 11
0.534
 21
0.58
 31
0.0
  0
LINE
  5
8A
330
7F
100
AcDbEntity
  8
0
100
AcDbLine
 10
0.35
 20
0.58
 30
0.0
 11
0.409
 21
0.58
 31
0.0
  0
LINE
  5
8B
330
7F
100
AcDbEntity
  8
0
100
AcDbLine
 10
0.461
 20
0.58
 30
0.0
 11
0.52
 21
0.58
 31
0.0
  0
MTEXT
  5
8C
330
7F
100
AcDbEntity
  8
COTAS
100
AcDbMText
 10
0.435
 20
0.58
 30
0.0
 40
0.013
 71
5
  1
0,17
  0
POINT
  5
8D
330
7F
100
AcDbEntity
  8
Defpoints
100
AcDbPoint
 10
0.35
 20
0.58
 30
0.0
  0
POINT
  5
8E
330
7F
100
AcDbEntity
  8
Defpoints
100
AcDbPoint
 10
0.35
 20
0.58
 30
0.0
  0
POINT
  5
8F
330
7F
100
AcDbEntity
  8
Defpoints
100
AcDbPoint
 10
0.52
 20
0.58
 30
0.0
  0
ENDBLK
  5
81
330
7F
100
AcDbEntity
  8
0
100
AcDbBlockEnd
  0
BLOCK
  5
92
330
91
100
AcDbEntity
  8
0
100
AcDbBlockBegin
  2
*D5
 70
1
 10
0.0
 20
0.0
 30
0.0
  3
*D5
  1

  0
LINE
  5
94
330
91
100
AcDbEntity
  8
0
100
AcDbLine
 10
0.77
 20
0.4
 30
0.0
 11
0.77
 21
0.4
 31
0.0
  0
LINE
  5
95
330
91
100
AcDbEntity
  8
0
100
AcDbLine
 10
0.77
 20
0.51
 30
0.0
 11
0.77
 21
0.51
 31
0.0
  0
INSERT
  5
96
330
91
100
AcDbEntity
  8
COTAS
100
AcDbBlockReference
  2
_CLOSEDFILLED
 10
0.77
 20
0.4
 30
0.0
 41
0.007
 42
0.007
 50
90.0
  0
INSERT
  5
98
330
91
100
AcDbEntity
  8
COTAS
100
AcDbBlockReference
  2
_CLOSEDFILLED
 10
0.77
 20
0.51
 30
0.0
 41
0.007
 42
0.007
 50
270.0
  0
LINE
  5
9A
330
91
100
AcDbEntity
  8
0
100
AcDbLine
 10
0.77
 20
0.393
 30
0.0
 11
0.77
 21
0.386
 31
0.0
  0
LINE
  5
9B
330
91
100
AcDbEntity
  8
0
100
AcDbLine
 10
0.77
 20
0.517
 30
0.0
 11
0.77
 21
0.524
 31
0.0
  0
LINE
  5
9C
330
91
100
AcDbEntity
  8
0
100
AcDbLine
 10
0.77
 20
0.4
 30
0.0
 11
0.77
 21
0.429
 31
0.0
  0
LINE
  5
9D
330
91
100
AcDbEntity
  8
0
100
AcDbLine
 10
0.77
 20
0.48100000000000004
 30
0.0
 11
0.77
 21
0.51
 31
0.0
  0
MTEXT
  5
9E
330
91
100
AcDbEntity
  8
COTAS
100
AcDbMText
 10
0.77
 20
0.455
 30
0.0
 40
0.013
 71
5
  1
0,11
 50
90.0
  0
POINT
  5
9F
330
91
100
AcDbEntity
  8
Defpoints
100
AcDbPoint
 10
0.77
 20
0.4
 30
0.0
  0
POINT
  5
A0
330
91
100
AcDbEntity
  8
Defpoints
100
AcDbPoint
 10
0.77
 20
0.4
 30
0.0
  0
POINT
  5
A1
330
91
100
AcDbEntity
  8
Defpoints
100
AcDbPoint
 10
0.77
 20
0.51
 30
0.0
  0
ENDBLK
  5
93
330
91
100
AcDbEntity
  8
0
100
AcDbBlockEnd
  0
BLOCK
  5
A4
330
A3
100
AcDbEntity
  8
0
100
AcDbBlockBegin
  2
*D6
 70
1
 10
0.0
 20
0.0
 30
0.0
  3
*D6
  1

  0
LINE
  5
A6
330
A3
100
AcDbEntity
  8
0
100
AcDbLine
 10
0.655
 20
0.422
 30
0.0
 11
0.655
 21
0.422
 31
0.0
  0
LINE
  5
A7
330
A3
100
AcDbEntity
  8
0
100
AcDbLine
 10
0.655
 20
0.488
 30
0.0
 11
0.655
 21
0.488
 31
0.0
  0
INSERT
  5
A8
330
A3
100
AcDbEntity
  8
COTAS
100
AcDbBlockReference
  2
_CLOSEDFILLED
 10
0.655
 20
0.422
 30
0.0
 41
0.007
 42
0.007
 50
90.0
  0
INSERT
  5
AA
330
A3
100
AcDbEntity
  8
COTAS
100
AcDbBlockReference
  2
_CLOSEDFILLED
 10
0.655
 20
0.488
 30
0.0
 41
0.007
 42
0.007
 50
270.0
  0
LINE
  5
AC
330
A3
100
AcDbEntity
  8
0
100
AcDbLine
 10
0.655
 20
0.415
 30
0.0
 11
0.655
 21
0.408
 31
0.0
  0
LINE
  5
AD
330
A3
100
AcDbEntity
  8
0
100
AcDbLine
 10
0.655
 20
0.495
 30
0.0
 11
0.655
 21
0.502
 31
0.0
  0
LINE
  5
AE
330
A3
100
AcDbEntity
  8
0
100
AcDbLine
 10
0.655
 20
0.422
 30
0.0
 11
0.655
 21
0.42899999999999994
 31
0.0
  0
LINE
  5
AF
330
A3
100
AcDbEntity
  8
0
100
AcDbLine
 10
0.655
 20
0.481
 30
0.0
 11
0.655
 21
0.488
 31
0.0
  0
MTEXT
  5
B0
330
A3
100
AcDbEntity
  8
COTAS
100
AcDbMText
 10
0.655
 20
0.45499999999999996
 30
0.0
 40
0.013
 71
5
  1
0,07
 50
90.0
  0
POINT
  5
B1
330
A3
100
AcDbEntity
  8
Defpoints
100
AcDbPoint
 10
0.655
 20
0.422
 30
0.0
  0
POINT
  5
B2
330
A3
100
AcDbEntity
  8
Defpoints
100
AcDbPoint
 10
0.655
 20
0.422
 30
0.0
  0
POINT
  5
B3
330
A3
100
AcDbEntity
  8
Defpoints
100
AcDbPoint
 10
0.655
 20
0.488
 30
0.0
  0
ENDBLK
  5
A5
330
A3
100
AcDbEntity
  8
0
100
AcDbBlockEnd
  0
BLOCK
  5
E6
330
E5
100
AcDbEntity
  8
0
100
AcDbBlockBegin
  2
*D7
 70
1
 10
0.0
 20
0.0
 30
0.0
  3
*D7
  1

  0
LINE
  5
E8
330
E5
100
AcDbEntity
  8
0
100
AcDbLine
 10
10.35
 20
0.755
 30
0.0
 11
10.35
 21
0.755
 31
0.0
  0
LINE
  5
E9
330
E5
100
AcDbEntity
  8
0
100
AcDbLine
 10
10.56
 20
0.755
 30
0.0
 11
10.56
 21
0.755
 31
0.0
  0
INSERT
  5
EA
330
E5
100
AcDbEntity
  8
COTAS
100
AcDbBlockReference
  2
_CLOSEDFILLED
 10
10.35
 20
0.755
 30
0.0
 41
0.007
 42
0.007
  0
INSERT
  5
EC
330
E5
100
AcDbEntity
  8
COTAS
100
AcDbBlockReference
  2
_CLOSEDFILLED
 10
10.56
 20
0.755
 30
0.0
 41
0.007
 42
0.007
 50
180.0
  0
LINE
  5
EE
330
E5
100
AcDbEntity
  8
0
100
AcDbLine
 10
10.343
 20
0.755
 30
0.0
 11
10.336
 21
0.755
 31
0.0
  0
LINE
  5
EF
330
E5
100
AcDbEntity
  8
0
100
AcDbLine
 10
10.567
 20
0.755
 30
0.0
 11
10.574
 21
0.755
 31
0.0
  0
LINE
  5
F0
330
E5
100
AcDbEntity
  8
0
100
AcDbLine
 10
10.35
 20
0.755
 30
0.0
 11
10.429
 21
0.755
 31
0.0
  0
LINE
  5
F1
330
E5
100
AcDbEntity
  8
0
100
AcDbLine
 10
10.481
 20
0.755
 30
0.0
 11
10.56
 21
0.755
 31
0.0
  0
MTEXT
  5
F2
330
E5
100
AcDbEntity
  8
COTAS
100
AcDbMText
 10
10.455
 20
0.755
 30
0.0
 40
0.013
 71
5
  1
0,21
  0
POINT
  5
F3
330
E5
100
AcDbEntity
  8
Defpoints
100
AcDbPoint
 10
10.35
 20
0.755
 30
0.0
  0
POINT
  5
F4
330
E5
100
AcDbEntity
  8
Defpoints
100
AcDbPoint
 10
10.35
 20
0.755
 30
0.0
  0
POINT
  5
F5
330
E5
100
AcDbEntity
  8
Defpoints
100
AcDbPoint
 10
10.56
 20
0.755
 30
0.0
  0
ENDBLK
  5
E7
330
E5
100
AcDbEntity
  8
0
100
AcDbBlockEnd
  0
BLOCK
  5
F8
330
F7
100
AcDbEntity
  8
0
100
AcDbBlockBegin
  2
*D8
 70
1
 10
0.0
 20
0.0
 30
0.0
  3
*D8
  1

  0
LINE
  5
FA
330
F7
100
AcDbEntity
  8
0
100
AcDbLine
 10
10.71
 20
0.1
 30
0.0
 11
10.71
 21
0.1
 31
0.0
  0
LINE
  5
FB
330
F7
100
AcDbEntity
  8
0
100
AcDbLine
 10
10.71
 20
0.2
 30
0.0
 11
10.71
 21
0.2
 31
0.0
  0
INSERT
  5
FC
330
F7
100
AcDbEntity
  8
COTAS
100
AcDbBlockReference
  2
_CLOSEDFILLED
 10
10.71
 20
0.1
 30
0.0
 41
0.007
 42
0.007
 50
90.0
  0
INSERT
  5
FE
330
F7
100
AcDbEntity
  8
COTAS
100
AcDbBlockReference
  2
_CLOSEDFILLED
 10
10.71
 20
0.2
 30
0.0
 41
0.007
 42
0.007
 50
270.0
  0
LINE
  5
100
330
F7
100
AcDbEntity
  8
0
100
AcDbLine
 10
10.71
 20
0.093
 30
0.0
 11
10.71
 21
0.08600000000000001
 31
0.0
  0
LINE
  5
101
330
F7
100
AcDbEntity
  8
0
100
AcDbLine
 10
10.71
 20
0.20700000000000002
 30
0.0
 11
10.71
 21
0.21400000000000002
 31
0.0
  0
LINE
  5
102
330
F7
100
AcDbEntity
  8
0
100
AcDbLine
 10
10.71
 20
0.1
 30
0.0
 11
10.71
 21
0.13050000000000003
 31
0.0
  0
LINE
  5
103
330
F7
100
AcDbEntity
  8
0
100
AcDbLine
 10
10.71
 20
0.1695
 30
0.0
 11
10.71
 21
0.2
 31
0.0
  0
MTEXT
  5
104
330
F7
100
AcDbEntity
  8
COTAS
100
AcDbMText
 10
10.71
 20
0.15000000000000002
 30
0.0
 40
0.013
 71
5
  1
0,1
 50
90.0
  0
POINT
  5
105
330
F7
100
AcDbEntity
  8
Defpoints
100
AcDbPoint
 10
10.71
 20
0.1
 30
0.0
  0
POINT
  5
106
330
F7
100
AcDbEntity
  8
Defpoints
100
AcDbPoint
 10
10.71
 20
0.1
 30
0.0
  0
POINT
  5
107
330
F7
100
AcDbEntity
  8
Defpoints
100
AcDbPoint
 10
10.71
 20
0.2
 30
0.0
  0
ENDBLK
  5
F9
330
F7
100
AcDbEntity
  8
0
100
AcDbBlockEnd
  0
BLOCK
  5
10A
330
109
100
AcDbEntity
  8
0
100
AcDbBlockBegin
  2
*D9
 70
1
 10
0.0
 20
0.0
 30
0.0
  3
*D9
  1

  0
LINE
  5
10C
330
109
100
AcDbEntity
  8
0
100
AcDbLine
 10
10.85
 20
0.254
 30
0.0
 11
10.85
 21
0.254
 31
0.0
  0
LINE
  5
10D
330
109
100
AcDbEntity
  8
0
100
AcDbLine
 10
10.85
 20
0.266
 30
0.0
 11
10.85
 21
0.266
 31
0.0
  0
INSERT
  5
10E
330
109
100
AcDbEntity
  8
COTAS
100
AcDbBlockReference
  2
_CLOSEDFILLED
 10
10.85
 20
0.254
 30
0.0
 41
0.007
 42
0.007
 50
90.0
  0
INSERT
  5
110
330
109
100
AcDbEntity
  8
COTAS
100
AcDbBlockReference
  2
_CLOSEDFILLED
 10
10.85
 20
0.266
 30
0.0
 41
0.007
 42
0.007
 50
270.0
  0
LINE
  5
112
330
109
100
AcDbEntity
  8
0
100
AcDbLine
 10
10.85
 20
0.247
 30
0.0
 11
10.85
 21
0.24
 31
0.0
  0
LINE
  5
113
330
109
100
AcDbEntity
  8
0
100
AcDbLine
 10
10.85
 20
0.273
 30
0.0
 11
10.85
 21
0.28
 31
0.0
  0
LINE
  5
114
330
109
100
AcDbEntity
  8
0
100
AcDbLine
 10
10.85
 20
0.254
 30
0.0
 11
10.85
 21
0.266
 31
0.0
  0
MTEXT
  5
115
330
109
100
AcDbEntity
  8
COTAS
100
AcDbMText
 10
10.218499999999999
 20
0.26
 30
0.0
 40
0.013
 71
5
  1
0,01
 50
90.0
  0
POINT
  5
116
330
109
100
AcDbEntity
  8
Defpoints
100
AcDbPoint
 10
10.85
 20
0.254
 30
0.0
  0
POINT
  5
117
330
109
100
AcDbEntity
  8
Defpoints
100
AcDbPoint
 10
10.85
 20
0.254
 30
0.0
  0
POINT
  5
118
330
109
100
AcDbEntity
  8
Defpoints
100
AcDbPoint
 10
10.85
 20
0.266
 30
0.0
  0
ENDBLK
  5
10B
330
109
100
AcDbEntity
  8
0
100
AcDbBlockEnd
  0
BLOCK
  5
11B
330
11A
100
AcDbEntity
  8
0
100
AcDbBlockBegin
  2
*D10
 70
1
 10
0.0
 20
0.0
 30
0.0
  3
*D10
  1

  0
LINE
  5
11D
330
11A
100
AcDbEntity
  8
0
100
AcDbLine
 10
11.04
 20
0.1
 30
0.0
 11
11.04
 21
0.1
 31
0.0
  0
LINE
  5
11E
330
11A
100
AcDbEntity
  8
0
100
AcDbLine
 10
11.04
 20
0.284
 30
0.0
 11
11.04
 21
0.284
 31
0.0
  0
INSERT
  5
11F
330
11A
100
AcDbEntity
  8
COTAS
100
AcDbBlockReference
  2
_CLOSEDFILLED
 10
11.04
 20
0.1
 30
0.0
 41
0.007
 42
0.007
 50
90.0
  0
INSERT
  5
121
330
11A
100
AcDbEntity
  8
COTAS
100
AcDbBlockReference
  2
_CLOSEDFILLED
 10
11.04
 20
0.284
 30
0.0
 41
0.007
 42
0.007
 50
270.0
  0
LINE
  5
123
330
11A
100
AcDbEntity
  8
0
100
AcDbLine
 10
11.04
 20
0.093
 30
0.0
 11
11.04
 21
0.08600000000000001
 31
0.0
  0
LINE
  5
124
330
11A
100
AcDbEntity
  8
0
100
AcDbLine
 10
11.04
 20
0.291
 30
0.0
 11
11.04
 21
0.298
 31
0.0
  0
LINE
  5
125
330
11A
100
AcDbEntity
  8
0
100
AcDbLine
 10
11.04
 20
0.1
 30
0.0
 11
11.04
 21
0.16599999999999998
 31
0.0
  0
LINE
  5
126
330
11A
100
AcDbEntity
  8
0
100
AcDbLine
 10
11.04
 20
0.218
 30
0.0
 11
11.04
 21
0.284
 31
0.0
  0
MTEXT
  5
127
330
11A
100
AcDbEntity
  8
COTAS
100
AcDbMText
 10
11.04
 20
0.192
 30
0.0
 40
0.013
 71
5
  1
0,18
 50
90.0
  0
POINT
  5
128
330
11A
100
AcDbEntity
  8
Defpoints
100
AcDbPoint
 10
11.04
 20
0.1
 30
0.0
  0
POINT
  5
129
330
11A
100
AcDbEntity
  8
Defpoints
100
AcDbPoint
 10
11.04
 20
0.1
 30
0.0
  0
POINT
  5
12A
330
11A
100
AcDbEntity
  8
Defpoints
100
AcDbPoint
 10
11.04
 20
0.284
 30
0.0
  0
ENDBLK
  5
11C
330
11A
100
AcDbEntity
  8
0
100
AcDbBlockEnd
  0
ENDSEC
  0
SECTION
  2
ENTITIES
  0
LWPOLYLINE
  5
34
330
17
100
AcDbEntity
  8
G_MEDIDO
100
AcDbPolyline
 90
4
 70
1
 10
0.35
 20
0.1
 10
1.1
 20
0.1
 10
1.1
 20
0.75
 10
0.35
 20
0.75
  0
LINE
  5
35
330
17
100
AcDbEntity
  8
G_MEDIDO
100
AcDbLine
 10
0.35
 20
0.08
 30
0.0
 11
0.35
 21
0.85
 31
0.0
  0
LWPOLYLINE
  5
36
330
17
100
AcDbEntity
  8
G_MEDIDO
100
AcDbPolyline
 90
4
 70
1
 10
0.35
 20
0.4
 10
0.56
 20
0.4
 10
0.56
 20
0.51
 10
0.35
 20
0.51
  0
LWPOLYLINE
  5
37
330
17
100
AcDbEntity
  8
G_MEDIDO
100
AcDbPolyline
 90
4
 70
1
 10
0.3525
 20
0.4375
 10
0.3875
 20
0.4375
 10
0.3875
 20
0.4725
 10
0.3525
 20
0.4725
  0
LWPOLYLINE
  5
38
330
17
100
AcDbEntity
  8
G_MEDIDO
100
AcDbPolyline
 90
40
 70
1
 10
0.451
 20
0.422
 10
0.450857552889017
 20
0.4237645240894354
 10
0.4504339008614186
 20
0.4254833479318162
 10
0.4497400162821853
 20
0.42711195489248144
 10
0.4487938703974385
 20
0.4286081649066178
 10
0.4476199678886056
 20
0.42993322692078195
 10
0.4462487122140427
 20
0.43105282252483024
 10
0.4447156181754336
 20
0.43193795478071423
 10
0.44306039210308096
 20
0.43256569922794513
 10
0.44132590348280853
 20
0.4329197976150786
 10
0.4395570746587964
 20
0.43299107897988726
 10
0.4377997173684635
 20
0.43277769717246495
 10
0.43609934624253216
 20
0.4322851786695396
 10
0.4345
 20
0.43152627944162886
 10
0.4330431008684508
 20
0.4305206545801042
 10
0.4317663817701179
 20
0.42929434924064874
 10
0.43070290905901826
 20
0.4278791240874058
 10
0.4298802261197529
 20
0.42631163270846084
 10
0.42931964000831346
 20
0.42463247230716317
 10
0.4290356696105237
 20
0.422885132255884
 10
0.4290356696105237
 20
0.421114867744116
 10
0.4293196400083134
 20
0.41936752769283686
 10
0.4298802261197529
 20
0.4176883672915392
 10
0.43070290905901826
 20
0.4161208759125942
 10
0.4317663817701179
 20
0.4147056507593513
 10
0.4330431008684508
 20
0.41347934541989584
 10
0.4345
 20
0.41247372055837117
 10
0.4360993462425321
 20
0.41171482133046045
 10
0.4377997173684635
 20
0.411222302827535
 10
0.4395570746587964
 20
0.4110089210201127
 10
0.44132590348280853
 20
0.4110802023849214
 10
0.44306039210308096
 20
0.4114343007720549
 10
0.4447156181754336
 20
0.4120620452192858
 10
0.4462487122140427
 20
0.4129471774751698
 10
0.4476199678886056
 20
0.414066773079218
 10
0.4487938703974385
 20
0.41539183509338223
 10
0.4497400162821853
 20
0.4168880451075186
 10
0.4504339008614186
 20
0.41851665206818384
 10
0.450857552889017
 20
0.4202354759105646
 10
0.451
 20
0.422
  0
LWPOLYLINE
  5
39
330
17
100
AcDbEntity
  8
G_MEDIDO
100
AcDbPolyline
 90
4
 70
1
 10
0.4315
 20
0.4135
 10
0.4485
 20
0.4135
 10
0.4485
 20
0.4305
 10
0.4315
 20
0.4305
  0
LWPOLYLINE
  5
3A
330
17
100
AcDbEntity
  8
G_MEDIDO
100
AcDbPolyline
 90
40
 70
1
 10
0.445
 20
0.422
 10
0.44493525131318956
 20
0.4228020564042888
 10
0.44474268220973573
 20
0.4235833399690073
 10
0.44442728012826604
 20
0.4243236158602189
 10
0.4439972138170175
 20
0.42500371132118986
 10
0.443463621767548
 20
0.4256060122367191
 10
0.4428403237336558
 20
0.4261149193294683
 10
0.4421434628070153
 20
0.4265172521730519
 10
0.44139108731958226
 20
0.42680259055815684
 10
0.4406026834012766
 20
0.4269635443704903
 10
0.4397986702994529
 20
0.4269959449908578
 10
0.43899987153111975
 20
0.4268989532602113
 10
0.43822697556478735
 20
0.42667508121342707
 10
0.4375
 20
0.4263301270189222
 10
0.4368377731220231
 20
0.42587302480913825
 10
0.4362574462591445
 20
0.425315613291204
 10
0.435774049572281
 20
0.424672329130639
 10
0.4354001027817059
 20
0.42395983304930035
 10
0.43514529091286974
 20
0.4231965783214378
 10
0.43501621345932895
 20
0.42240233284358364
 10
0.43501621345932895
 20
0.4215976671564164
 10
0.4351452909128697
 20
0.42080342167856216
 10
0.4354001027817059
 20
0.4200401669506996
 10
0.435774049572281
 20
0.419327670869361
 10
0.4362574462591445
 20
0.418684386708796
 10
0.4368377731220231
 20
0.4181269751908617
 10
0.4375
 20
0.41766987298107777
 10
0.43822697556478735
 20
0.41732491878657296
 10
0.43899987153111975
 20
0.41710104673978865
 10
0.4397986702994529
 20
0.41700405500914217
 10
0.4406026834012766
 20
0.4170364556295097
 10
0.44139108731958226
 20
0.41719740944184314
 10
0.4421434628070153
 20
0.41748274782694805
 10
0.4428403237336558
 20
0.4178850806705317
 10
0.443463621767548
 20
0.4183939877632809
 10
0.4439972138170175
 20
0.4189962886788101
 10
0.44442728012826604
 20
0.41967638413978114
 10
0.44474268220973573
 20
0.42041666003099265
 10
0.44493525131318956
 20
0.4211979435957112
 10
0.445
 20
0.422
  0
LWPOLYLINE
  5
3B
330
17
100
AcDbEntity
  8
G_MEDIDO
100
AcDbPolyline
 90
40
 70
1
 10
0.451
 20
0.488
 10
0.450857552889017
 20
0.4897645240894354
 10
0.4504339008614186
 20
0.4914833479318162
 10
0.4497400162821853
 20
0.49311195489248144
 10
0.4487938703974385
 20
0.4946081649066178
 10
0.4476199678886056
 20
0.49593322692078196
 10
0.4462487122140427
 20
0.49705282252483024
 10
0.4447156181754336
 20
0.49793795478071423
 10
0.44306039210308096
 20
0.49856569922794514
 10
0.44132590348280853
 20
0.4989197976150786
 10
0.4395570746587964
 20
0.49899107897988726
 10
0.4377997173684635
 20
0.49877769717246495
 10
0.43609934624253216
 20
0.4982851786695396
 10
0.4345
 20
0.49752627944162886
 10
0.4330431008684508
 20
0.4965206545801042
 10
0.4317663817701179
 20
0.49529434924064875
 10
0.43070290905901826
 20
0.4938791240874058
 10
0.4298802261197529
 20
0.49231163270846084
 10
0.42931964000831346
 20
0.4906324723071631
 10
0.4290356696105237
 20
0.488885132255884
 10
0.4290356696105237
 20
0.487114867744116
 10
0.4293196400083134
 20
0.48536752769283686
 10
0.4298802261197529
 20
0.4836883672915392
 10
0.43070290905901826
 20
0.4821208759125942
 10
0.4317663817701179
 20
0.4807056507593513
 10
0.4330431008684508
 20
0.47947934541989584
 10
0.4345
 20
0.4784737205583712
 10
0.4360993462425321
 20
0.47771482133046045
 10
0.4377997173684635
 20
0.477222302827535
 10
0.4395570746587964
 20
0.4770089210201127
 10
0.44132590348280853
 20
0.4770802023849214
 10
0.44306039210308096
 20
0.4774343007720549
 10
0.4447156181754336
 20
0.4780620452192858
 10
0.4462487122140427
 20
0.4789471774751698
 10
0.4476199678886056
 20
0.480066773079218
 10
0.4487938703974385
 20
0.48139183509338224
 10
0.4497400162821853
 20
0.48288804510751854
 10
0.4504339008614186
 20
0.48451665206818384
 10
0.450857552889017
 20
0.4862354759105646
 10
0.451
 20
0.488
  0
LWPOLYLINE
  5
3C
330
17
100
AcDbEntity
  8
G_MEDIDO
100
AcDbPolyline
 90
4
 70
1
 10
0.4315
 20
0.4795
 10
0.4485
 20
0.4795
 10
0.4485
 20
0.4965
 10
0.4315
 20
0.4965
  0
LWPOLYLINE
  5
3D
330
17
100
AcDbEntity
  8
G_MEDIDO
100
AcDbPolyline
 90
40
 70
1
 10
0.445
 20
0.488
 10
0.44493525131318956
 20
0.4888020564042888
 10
0.44474268220973573
 20
0.4895833399690073
 10
0.44442728012826604
 20
0.4903236158602189
 10
0.4439972138170175
 20
0.49100371132118986
 10
0.443463621767548
 20
0.49160601223671907
 10
0.4428403237336558
 20
0.4921149193294683
 10
0.4421434628070153
 20
0.4925172521730519
 10
0.44139108731958226
 20
0.49280259055815684
 10
0.4406026834012766
 20
0.4929635443704903
 10
0.4397986702994529
 20
0.4929959449908578
 10
0.43899987153111975
 20
0.4928989532602113
 10
0.43822697556478735
 20
0.49267508121342707
 10
0.4375
 20
0.4923301270189222
 10
0.4368377731220231
 20
0.49187302480913825
 10
0.4362574462591445
 20
0.491315613291204
 10
0.435774049572281
 20
0.490672329130639
 10
0.4354001027817059
 20
0.48995983304930035
 10
0.43514529091286974
 20
0.4891965783214378
 10
0.43501621345932895
 20
0.48840233284358364
 10
0.43501621345932895
 20
0.4875976671564164
 10
0.4351452909128697
 20
0.48680342167856216
 10
0.4354001027817059
 20
0.4860401669506996
 10
0.435774049572281
 20
0.48532767086936096
 10
0.4362574462591445
 20
0.484684386708796
 10
0.4368377731220231
 20
0.48412697519086173
 10
0.4375
 20
0.4836698729810778
 10
0.43822697556478735
 20
0.4833249187865729
 10
0.43899987153111975
 20
0.48310104673978865
 10
0.4397986702994529
 20
0.4830040550091422
 10
0.4406026834012766
 20
0.4830364556295097
 10
0.44139108731958226
 20
0.48319740944184314
 10
0.4421434628070153
 20
0.48348274782694806
 10
0.4428403237336558
 20
0.4838850806705317
 10
0.443463621767548
 20
0.4843939877632809
 10
0.4439972138170175
 20
0.4849962886788101
 10
0.44442728012826604
 20
0.48567638413978115
 10
0.44474268220973573
 20
0.48641666003099265
 10
0.44493525131318956
 20
0.48719794359571117
 10
0.445
 20
0.488
  0
LWPOLYLINE
  5
3E
330
17
100
AcDbEntity
  8
G_MEDIDO
100
AcDbPolyline
 90
40
 70
1
 10
0.531
 20
0.422
 10
0.530857552889017
 20
0.4237645240894354
 10
0.5304339008614186
 20
0.4254833479318162
 10
0.5297400162821853
 20
0.42711195489248144
 10
0.5287938703974384
 20
0.4286081649066178
 10
0.5276199678886057
 20
0.42993322692078195
 10
0.5262487122140427
 20
0.43105282252483024
 10
0.5247156181754337
 20
0.43193795478071423
 10
0.523060392103081
 20
0.43256569922794513
 10
0.5213259034828086
 20
0.4329197976150786
 10
0.5195570746587964
 20
0.43299107897988726
 10
0.5177997173684634
 20
0.43277769717246495
 10
0.5160993462425321
 20
0.4322851786695396
 10
0.5145
 20
0.43152627944162886
 10
0.5130431008684508
 20
0.4305206545801042
 10
0.5117663817701179
 20
0.42929434924064874
 10
0.5107029090590183
 20
0.4278791240874058
 10
0.5098802261197529
 20
0.42631163270846084
 10
0.5093196400083134
 20
0.42463247230716317
 10
0.5090356696105237
 20
0.422885132255884
 10
0.5090356696105237
 20
0.421114867744116
 10
0.5093196400083134
 20
0.41936752769283686
 10
0.5098802261197529
 20
0.4176883672915392
 10
0.5107029090590183
 20
0.4161208759125942
 10
0.5117663817701179
 20
0.4147056507593513
 10
0.5130431008684508
 20
0.41347934541989584
 10
0.5145
 20
0.41247372055837117
 10
0.5160993462425321
 20
0.41171482133046045
 10
0.5177997173684634
 20
0.411222302827535
 10
0.5195570746587964
 20
0.4110089210201127
 10
0.5213259034828086
 20
0.4110802023849214
 10
0.523060392103081
 20
0.4114343007720549
 10
0.5247156181754337
 20
0.4120620452192858
 10
0.5262487122140427
 20
0.4129471774751698
 10
0.5276199678886057
 20
0.414066773079218
 10
0.5287938703974384
 20
0.41539183509338223
 10
0.5297400162821853
 20
0.4168880451075186
 10
0.5304339008614186
 20
0.41851665206818384
 10
0.530857552889017
 20
0.4202354759105646
 10
0.531
 20
0.422
  0
LWPOLYLINE
  5
3F
330
17
100
AcDbEntity
  8
G_MEDIDO
100
AcDbPolyline
 90
4
 70
1
 10
0.5115
 20
0.4135
 10
0.5285
 20
0.4135
 10
0.5285
 20
0.4305
 10
0.5115
 20
0.4305
  0
LWPOLYLINE
  5
40
330
17
100
AcDbEntity
  8
G_MEDIDO
100
AcDbPolyline
 90
40
 70
1
 10
0.525
 20
0.422
 10
0.5249352513131896
 20
0.4228020564042888
 10
0.5247426822097356
 20
0.4235833399690073
 10
0.524427280128266
 20
0.4243236158602189
 10
0.5239972138170175
 20
0.42500371132118986
 10
0.523463621767548
 20
0.4256060122367191
 10
0.5228403237336557
 20
0.4261149193294683
 10
0.5221434628070152
 20
0.4265172521730519
 10
0.5213910873195823
 20
0.42680259055815684
 10
0.5206026834012767
 20
0.4269635443704903
 10
0.5197986702994529
 20
0.4269959449908578
 10
0.5189998715311198
 20
0.4268989532602113
 10
0.5182269755647873
 20
0.42667508121342707
 10
0.5175
 20
0.4263301270189222
 10
0.5168377731220232
 20
0.42587302480913825
 10
0.5162574462591445
 20
0.425315613291204
 10
0.515774049572281
 20
0.424672329130639
 10
0.5154001027817059
 20
0.42395983304930035
 10
0.5151452909128698
 20
0.4231965783214378
 10
0.5150162134593289
 20
0.42240233284358364
 10
0.5150162134593289
 20
0.4215976671564164
 10
0.5151452909128698
 20
0.42080342167856216
 10
0.5154001027817059
 20
0.4200401669506996
 10
0.515774049572281
 20
0.419327670869361
 10
0.5162574462591445
 20
0.418684386708796
 10
0.5168377731220232
 20
0.4181269751908617
 10
0.5175
 20
0.41766987298107777
 10
0.5182269755647873
 20
0.41732491878657296
 10
0.5189998715311198
 20
0.41710104673978865
 10
0.5197986702994529
 20
0.41700405500914217
 10
0.5206026834012767
 20
0.4170364556295097
 10
0.5213910873195823
 20
0.41719740944184314
 10
0.5221434628070152
 20
0.41748274782694805
 10
0.5228403237336557
 20
0.4178850806705317
 10
0.523463621767548
 20
0.4183939877632809
 10
0.5239972138170175
 20
0.4189962886788101
 10
0.524427280128266
 20
0.41967638413978114
 10
0.5247426822097356
 20
0.42041666003099265
 10
0.5249352513131896
 20
0.4211979435957112
 10
0.525
 20
0.422
  0
LWPOLYLINE
  5
41
330
17
100
AcDbEntity
  8
G_MEDIDO
100
AcDbPolyline
 90
40
 70
1
 10
0.531
 20
0.488
 10
0.530857552889017
 20
0.4897645240894354
 10
0.5304339008614186
 20
0.4914833479318162
 10
0.5297400162821853
 20
0.49311195489248144
 10
0.5287938703974384
 20
0.4946081649066178
 10
0.5276199678886057
 20
0.49593322692078196
 10
0.5262487122140427
 20
0.49705282252483024
 10
0.5247156181754337
 20
0.49793795478071423
 10
0.523060392103081
 20
0.49856569922794514
 10
0.5213259034828086
 20
0.4989197976150786
 10
0.5195570746587964
 20
0.49899107897988726
 10
0.5177997173684634
 20
0.49877769717246495
 10
0.5160993462425321
 20
0.4982851786695396
 10
0.5145
 20
0.49752627944162886
 10
0.5130431008684508
 20
0.4965206545801042
 10
0.5117663817701179
 20
0.49529434924064875
 10
0.5107029090590183
 20
0.4938791240874058
 10
0.5098802261197529
 20
0.49231163270846084
 10
0.5093196400083134
 20
0.4906324723071631
 10
0.5090356696105237
 20
0.488885132255884
 10
0.5090356696105237
 20
0.487114867744116
 10
0.5093196400083134
 20
0.48536752769283686
 10
0.5098802261197529
 20
0.4836883672915392
 10
0.5107029090590183
 20
0.4821208759125942
 10
0.5117663817701179
 20
0.4807056507593513
 10
0.5130431008684508
 20
0.47947934541989584
 10
0.5145
 20
0.4784737205583712
 10
0.5160993462425321
 20
0.47771482133046045
 10
0.5177997173684634
 20
0.477222302827535
 10
0.5195570746587964
 20
0.4770089210201127
 10
0.5213259034828086
 20
0.4770802023849214
 10
0.523060392103081
 20
0.4774343007720549
 10
0.5247156181754337
 20
0.4780620452192858
 10
0.5262487122140427
 20
0.4789471774751698
 10
0.5276199678886057
 20
0.480066773079218
 10
0.5287938703974384
 20
0.48139183509338224
 10
0.5297400162821853
 20
0.48288804510751854
 10
0.5304339008614186
 20
0.48451665206818384
 10
0.530857552889017
 20
0.4862354759105646
 10
0.531
 20
0.488
  0
LWPOLYLINE
  5
42
330
17
100
AcDbEntity
  8
G_MEDIDO
100
AcDbPolyline
 90
4
 70
1
 10
0.5115
 20
0.4795
 10
0.5285
 20
0.4795
 10
0.5285
 20
0.4965
 10
0.5115
 20
0.4965
  0
LWPOLYLINE
  5
43
330
17
100
AcDbEntity
  8
G_MEDIDO
100
AcDbPolyline
 90
40
 70
1
 10
0.525
 20
0.488
 10
0.5249352513131896
 20
0.4888020564042888
 10
0.5247426822097356
 20
0.4895833399690073
 10
0.524427280128266
 20
0.4903236158602189
 10
0.5239972138170175
 20
0.49100371132118986
 10
0.523463621767548
 20
0.49160601223671907
 10
0.5228403237336557
 20
0.4921149193294683
 10
0.5221434628070152
 20
0.4925172521730519
 10
0.5213910873195823
 20
0.49280259055815684
 10
0.5206026834012767
 20
0.4929635443704903
 10
0.5197986702994529
 20
0.4929959449908578
 10
0.5189998715311198
 20
0.4928989532602113
 10
0.5182269755647873
 20
0.49267508121342707
 10
0.5175
 20
0.4923301270189222
 10
0.5168377731220232
 20
0.49187302480913825
 10
0.5162574462591445
 20
0.491315613291204
 10
0.515774049572281
 20
0.490672329130639
 10
0.5154001027817059
 20
0.48995983304930035
 10
0.5151452909128698
 20
0.4891965783214378
 10
0.5150162134593289
 20
0.48840233284358364
 10
0.5150162134593289
 20
0.4875976671564164
 10
0.5151452909128698
 20
0.48680342167856216
 10
0.5154001027817059
 20
0.4860401669506996
 10
0.515774049572281
 20
0.48532767086936096
 10
0.5162574462591445
 20
0.484684386708796
 10
0.5168377731220232
 20
0.48412697519086173
 10
0.5175
 20
0.4836698729810778
 10
0.5182269755647873
 20
0.4833249187865729
 10
0.5189998715311198
 20
0.48310104673978865
 10
0.5197986702994529
 20
0.4830040550091422
 10
0.5206026834012767
 20
0.4830364556295097
 10
0.5213910873195823
 20
0.48319740944184314
 10
0.5221434628070152
 20
0.48348274782694806
 10
0.5228403237336557
 20
0.4838850806705317
 10
0.523463621767548
 20
0.4843939877632809
 10
0.5239972138170175
 20
0.4849962886788101
 10
0.524427280128266
 20
0.48567638413978115
 10
0.5247426822097356
 20
0.48641666003099265
 10
0.5249352513131896
 20
0.48719794359571117
 10
0.525
 20
0.488
  0
DIMENSION
  5
44
330
17
100
AcDbEntity
  8
COTAS
100
AcDbDimension
280
0
  2
*D1
  3
Standard
 10
0.35
 20
0.735
 30
0.0
 11
0.455
 21
0.735
 31
0.0
 70
32
 71
5
  1
<>
100
AcDbAlignedDimension
 13
0.35
 23
0.735
 33
0.0
 14
0.56
 24
0.735
 34
0.0
 50
0.0
100
AcDbRotatedDimension
1001
ACAD
1000
DSTYLE
1002
{
1070
140
1040
0.013
1070
41
1040
0.007
1002
}
  0
DIMENSION
  5
5A
330
17
100
AcDbEntity
  8
COTAS
100
AcDbDimension
280
0
  2
*D2
  3
Standard
 10
0.35
 20
0.66
 30
0.0
 11
0.395
 21
0.66
 31
0.0
 70
32
 71
5
  1
<>
100
AcDbAlignedDimension
 13
0.35
 23
0.66
 33
0.0
 14
0.44
 24
0.66
 34
0.0
 50
0.0
100
AcDbRotatedDimension
1001
ACAD
1000
DSTYLE
1002
{
1070
140
1040
0.013
1070
41
1040
0.007
1002
}
  0
DIMENSION
  5
6C
330
17
100
AcDbEntity
  8
COTAS
100
AcDbDimension
280
0
  2
*D3
  3
Standard
 10
0.44
 20
0.66
 30
0.0
 11
0.48
 21
0.66
 31
0.0
 70
32
 71
5
  1
<>
100
AcDbAlignedDimension
 13
0.44
 23
0.66
 33
0.0
 14
0.52
 24
0.66
 34
0.0
 50
0.0
100
AcDbRotatedDimension
1001
ACAD
1000
DSTYLE
1002
{
1070
140
1040
0.013
1070
41
1040
0.007
1002
}
  0
DIMENSION
  5
7E
330
17
100
AcDbEntity
  8
COTAS
100
AcDbDimension
280
0
  2
*D4
  3
Standard
 10
0.35
 20
0.58
 30
0.0
 11
0.435
 21
0.58
 31
0.0
 70
32
 71
5
  1
<>
100
AcDbAlignedDimension
 13
0.35
 23
0.58
 33
0.0
 14
0.52
 24
0.58
 34
0.0
 50
0.0
100
AcDbRotatedDimension
1001
ACAD
1000
DSTYLE
1002
{
1070
140
1040
0.013
1070
41
1040
0.007
1002
}
  0
DIMENSION
  5
90
330
17
100
AcDbEntity
  8
COTAS
100
AcDbDimension
280
0
  2
*D5
  3
Standard
 10
0.77
 20
0.4
 30
0.0
 11
0.77
 21
0.455
 31
0.0
 70
32
 71
5
  1
<>
100
AcDbAlignedDimension
 13
0.77
 23
0.4
 33
0.0
 14
0.77
 24
0.51
 34
0.0
 50
90.0
100
AcDbRotatedDimension
1001
ACAD
1000
DSTYLE
1002
{
1070
140
1040
0.013
1070
41
1040
0.007
1002
}
  0
DIMENSION
  5
A2
330
17
100
AcDbEntity
  8
COTAS
100
AcDbDimension
280
0
  2
*D6
  3
Standard
 10
0.655
 20
0.422
 30
0.0
 11
0.655
 21
0.45499999999999996
 31
0.0
 70
32
 71
5
  1
<>
100
AcDbAlignedDimension
 13
0.655
 23
0.422
 33
0.0
 14
0.655
 24
0.488
 34
0.0
 50
90.0
100
AcDbRotatedDimension
1001
ACAD
1000
DSTYLE
1002
{
1070
140
1040
0.013
1070
41
1040
0.007
1002
}
  0
LWPOLYLINE
  5
B4
330
17
100
AcDbEntity
  8
G_MEDIDO
100
AcDbPolyline
 90
4
 70
1
 10
10.35
 20
0.04
 10
11.15
 20
0.04
 10
11.15
 20
0.2
 10
10.35
 20
0.2
  0
LINE
  5
B5
330
17
100
AcDbEntity
  8
G_MEDIDO
100
AcDbLine
 10
10.35
 20
0.2
 30
0.0
 11
10.35
 21
0.2
 31
0.0
  0
LINE
  5
B6
330
17
100
AcDbEntity
  8
G_MEDIDO
100
AcDbLine
 10
10.35
 20
0.16
 30
0.0
 11
10.39
 21
0.2
 31
0.0
  0
LINE
  5
B7
330
17
100
AcDbEntity
  8
G_MEDIDO
100
AcDbLine
 10
10.35
 20
0.12
 30
0.0
 11
10.43
 21
0.2
 31
0.0
  0
LINE
  5
B8
330
17
100
AcDbEntity
  8
G_MEDIDO
100
AcDbLine
 10
10.35
 20
0.08
 30
0.0
 11
10.47
 21
0.2
 31
0.0
  0
LINE
  5
B9
330
17
100
AcDbEntity
  8
G_MEDIDO
100
AcDbLine
 10
10.35
 20
0.04
 30
0.0
 11
10.51
 21
0.2
 31
0.0
  0
LINE
  5
BA
330
17
100
AcDbEntity
  8
G_MEDIDO
100
AcDbLine
 10
10.39
 20
0.04
 30
0.0
 11
10.55
 21
0.2
 31
0.0
  0
LINE
  5
BB
330
17
100
AcDbEntity
  8
G_MEDIDO
100
AcDbLine
 10
10.43
 20
0.04
 30
0.0
 11
10.59
 21
0.2
 31
0.0
  0
LINE
  5
BC
330
17
100
AcDbEntity
  8
G_MEDIDO
100
AcDbLine
 10
10.47
 20
0.04
 30
0.0
 11
10.63
 21
0.2
 31
0.0
  0
LINE
  5
BD
330
17
100
AcDbEntity
  8
G_MEDIDO
100
AcDbLine
 10
10.51
 20
0.04
 30
0.0
 11
10.67
 21
0.2
 31
0.0
  0
LINE
  5
BE
330
17
100
AcDbEntity
  8
G_MEDIDO
100
AcDbLine
 10
10.55
 20
0.04
 30
0.0
 11
10.71
 21
0.2
 31
0.0
  0
LINE
  5
BF
330
17
100
AcDbEntity
  8
G_MEDIDO
100
AcDbLine
 10
10.59
 20
0.04
 30
0.0
 11
10.75
 21
0.2
 31
0.0
  0
LINE
  5
C0
330
17
100
AcDbEntity
  8
G_MEDIDO
100
AcDbLine
 10
10.63
 20
0.04
 30
0.0
 11
10.79
 21
0.2
 31
0.0
  0
LINE
  5
C1
330
17
100
AcDbEntity
  8
G_MEDIDO
100
AcDbLine
 10
10.67
 20
0.04
 30
0.0
 11
10.83
 21
0.2
 31
0.0
  0
LINE
  5
C2
330
17
100
AcDbEntity
  8
G_MEDIDO
100
AcDbLine
 10
10.71
 20
0.04
 30
0.0
 11
10.87
 21
0.2
 31
0.0
  0
LINE
  5
C3
330
17
100
AcDbEntity
  8
G_MEDIDO
100
AcDbLine
 10
10.75
 20
0.04
 30
0.0
 11
10.91
 21
0.2
 31
0.0
  0
LINE
  5
C4
330
17
100
AcDbEntity
  8
G_MEDIDO
100
AcDbLine
 10
10.79
 20
0.04
 30
0.0
 11
10.95
 21
0.2
 31
0.0
  0
LINE
  5
C5
330
17
100
AcDbEntity
  8
G_MEDIDO
100
AcDbLine
 10
10.83
 20
0.04
 30
0.0
 11
10.99
 21
0.2
 31
0.0
  0
LINE
  5
C6
330
17
100
AcDbEntity
  8
G_MEDIDO
100
AcDbLine
 10
10.87
 20
0.04
 30
0.0
 11
11.03
 21
0.2
 31
0.0
  0
LINE
  5
C7
330
17
100
AcDbEntity
  8
G_MEDIDO
100
AcDbLine
 10
10.91
 20
0.04
 30
0.0
 11
11.07
 21
0.2
 31
0.0
  0
LINE
  5
C8
330
17
100
AcDbEntity
  8
G_MEDIDO
100
AcDbLine
 10
10.95
 20
0.04
 30
0.0
 11
11.11
 21
0.2
 31
0.0
  0
LINE
  5
C9
330
17
100
AcDbEntity
  8
G_MEDIDO
100
AcDbLine
 10
10.99
 20
0.04
 30
0.0
 11
11.15
 21
0.2
 31
0.0
  0
LINE
  5
CA
330
17
100
AcDbEntity
  8
G_MEDIDO
100
AcDbLine
 10
11.03
 20
0.04
 30
0.0
 11
11.15
 21
0.16
 31
0.0
  0
LINE
  5
CB
330
17
100
AcDbEntity
  8
G_MEDIDO
100
AcDbLine
 10
11.07
 20
0.04
 30
0.0
 11
11.15
 21
0.12
 31
0.0
  0
LINE
  5
CC
330
17
100
AcDbEntity
  8
G_MEDIDO
100
AcDbLine
 10
11.11
 20
0.04
 30
0.0
 11
11.15
 21
0.08
 31
0.0
  0
LWPOLYLINE
  5
CD
330
17
100
AcDbEntity
  8
G_MEDIDO
100
AcDbPolyline
 90
4
 70
1
 10
10.562
 20
0.2
 10
11.15
 20
0.2
 10
11.15
 20
0.24655000000000002
 10
10.562
 20
0.23795
  0
LWPOLYLINE
  5
CE
330
17
100
AcDbEntity
  8
G_MEDIDO
100
AcDbPolyline
 90
4
 70
1
 10
10.35
 20
0.254
 10
10.56
 20
0.254
 10
10.56
 20
0.266
 10
10.35
 20
0.266
  0
LWPOLYLINE
  5
CF
330
17
100
AcDbEntity
  8
G_MEDIDO
100
AcDbPolyline
 90
4
 70
1
 10
10.3525
 20
0.266
 10
10.3875
 20
0.266
 10
10.3875
 20
0.686
 10
10.3525
 20
0.686
  0
LWPOLYLINE
  5
D0
330
17
100
AcDbEntity
  8
G_MEDIDO
100
AcDbPolyline
 90
4
 70
1
 10
10.352
 20
0.2
 10
10.558
 20
0.2
 10
10.558
 20
0.254
 10
10.352
 20
0.254
  0
LINE
  5
D1
330
17
100
AcDbEntity
  8
G_MEDIDO
100
AcDbLine
 10
10.352
 20
0.254
 30
0.0
 11
10.352
 21
0.254
 31
0.0
  0
LINE
  5
D2
330
17
100
AcDbEntity
  8
G_MEDIDO
100
AcDbLine
 10
10.352
 20
0.23
 30
0.0
 11
10.376
 21
0.254
 31
0.0
  0
LINE
  5
D3
330
17
100
AcDbEntity
  8
G_MEDIDO
100
AcDbLine
 10
10.352
 20
0.206
 30
0.0
 11
10.4
 21
0.254
 31
0.0
  0
LINE
  5
D4
330
17
100
AcDbEntity
  8
G_MEDIDO
100
AcDbLine
 10
10.37
 20
0.2
 30
0.0
 11
10.424
 21
0.254
 31
0.0
  0
LINE
  5
D5
330
17
100
AcDbEntity
  8
G_MEDIDO
100
AcDbLine
 10
10.394
 20
0.2
 30
0.0
 11
10.448
 21
0.254
 31
0.0
  0
LINE
  5
D6
330
17
100
AcDbEntity
  8
G_MEDIDO
100
AcDbLine
 10
10.418
 20
0.2
 30
0.0
 11
10.472
 21
0.254
 31
0.0
  0
LINE
  5
D7
330
17
100
AcDbEntity
  8
G_MEDIDO
100
AcDbLine
 10
10.442
 20
0.2
 30
0.0
 11
10.496
 21
0.254
 31
0.0
  0
LINE
  5
D8
330
17
100
AcDbEntity
  8
G_MEDIDO
100
AcDbLine
 10
10.466
 20
0.2
 30
0.0
 11
10.52
 21
0.254
 31
0.0
  0
LINE
  5
D9
330
17
100
AcDbEntity
  8
G_MEDIDO
100
AcDbLine
 10
10.49
 20
0.2
 30
0.0
 11
10.544
 21
0.254
 31
0.0
  0
LINE
  5
DA
330
17
100
AcDbEntity
  8
G_MEDIDO
100
AcDbLine
 10
10.514
 20
0.2
 30
0.0
 11
10.558
 21
0.244
 31
0.0
  0
LINE
  5
DB
330
17
100
AcDbEntity
  8
G_MEDIDO
100
AcDbLine
 10
10.538
 20
0.2
 30
0.0
 11
10.558
 21
0.22
 31
0.0
  0
LWPOLYLINE
  5
DC
330
17
100
AcDbEntity
  8
G_MEDIDO
100
AcDbPolyline
 90
4
 70
1
 10
10.435
 20
0.1
 10
10.445
 20
0.1
 10
10.445
 20
0.284
 10
10.435
 20
0.284
  0
LWPOLYLINE
  5
DD
330
17
100
AcDbEntity
  8
G_MEDIDO
100
AcDbPolyline
 90
4
 70
1
 10
10.429
 20
0.266
 10
10.451
 20
0.266
 10
10.451
 20
0.269
 10
10.429
 20
0.269
  0
LWPOLYLINE
  5
DE
330
17
100
AcDbEntity
  8
G_MEDIDO
100
AcDbPolyline
 90
4
 70
1
 10
10.4315
 20
0.269
 10
10.4485
 20
0.269
 10
10.4485
 20
0.278
 10
10.4315
 20
0.278
  0
LINE
  5
DF
330
17
100
AcDbEntity
  8
G_MEDIDO
100
AcDbLine
 10
10.434
 20
0.1
 30
0.0
 11
10.446
 21
0.1
 31
0.0
  0
LWPOLYLINE
  5
E0
330
17
100
AcDbEntity
  8
G_MEDIDO
100
AcDbPolyline
 90
4
 70
1
 10
10.515
 20
0.1
 10
10.525
 20
0.1
 10
10.525
 20
0.284
 10
10.515
 20
0.284
  0
LWPOLYLINE
  5
E1
330
17
100
AcDbEntity
  8
G_MEDIDO
100
AcDbPolyline
 90
4
 70
1
 10
10.509
 20
0.266
 10
10.531
 20
0.266
 10
10.531
 20
0.269
 10
10.509
 20
0.269
  0
LWPOLYLINE
  5
E2
330
17
100
AcDbEntity
  8
G_MEDIDO
100
AcDbPolyline
 90
4
 70
1
 10
10.5115
 20
0.269
 10
10.5285
 20
0.269
 10
10.5285
 20
0.278
 10
10.5115
 20
0.278
  0
LINE
  5
E3
330
17
100
AcDbEntity
  8
G_MEDIDO
100
AcDbLine
 10
10.514
 20
0.1
 30
0.0
 11
10.526
 21
0.1
 31
0.0
  0
DIMENSION
  5
E4
330
17
100
AcDbEntity
  8
COTAS
100
AcDbDimension
280
0
  2
*D7
  3
Standard
 10
10.35
 20
0.755
 30
0.0
 11
10.455
 21
0.755
 31
0.0
 70
32
 71
5
  1
<>
100
AcDbAlignedDimension
 13
10.35
 23
0.755
 33
0.0
 14
10.56
 24
0.755
 34
0.0
 50
0.0
100
AcDbRotatedDimension
1001
ACAD
1000
DSTYLE
1002
{
1070
140
1040
0.013
1070
41
1040
0.007
1002
}
  0
DIMENSION
  5
F6
330
17
100
AcDbEntity
  8
COTAS
100
AcDbDimension
280
0
  2
*D8
  3
Standard
 10
10.71
 20
0.1
 30
0.0
 11
10.71
 21
0.15000000000000002
 31
0.0
 70
32
 71
5
  1
<>
100
AcDbAlignedDimension
 13
10.71
 23
0.1
 33
0.0
 14
10.71
 24
0.2
 34
0.0
 50
90.0
100
AcDbRotatedDimension
1001
ACAD
1000
DSTYLE
1002
{
1070
140
1040
0.013
1070
41
1040
0.007
1002
}
  0
DIMENSION
  5
108
330
17
100
AcDbEntity
  8
COTAS
100
AcDbDimension
280
0
  2
*D9
  3
Standard
 10
10.85
 20
0.254
 30
0.0
 11
10.218499999999999
 21
0.26
 31
0.0
 70
32
 71
5
  1
<>
100
AcDbAlignedDimension
 13
10.85
 23
0.254
 33
0.0
 14
10.85
 24
0.266
 34
0.0
 50
90.0
100
AcDbRotatedDimension
1001
ACAD
1000
DSTYLE
1002
{
1070
140
1040
0.013
1070
41
1040
0.007
1002
}
  0
DIMENSION
  5
119
330
17
100
AcDbEntity
  8
COTAS
100
AcDbDimension
280
0
  2
*D10
  3
Standard
 10
11.04
 20
0.1
 30
0.0
 11
11.04
 21
0.192
 31
0.0
 70
32
 71
5
  1
<>
100
AcDbAlignedDimension
 13
11.04
 23
0.1
 33
0.0
 14
11.04
 24
0.284
 34
0.0
 50
90.0
100
AcDbRotatedDimension
1001
ACAD
1000
DSTYLE
1002
{
1070
140
1040
0.013
1070
41
1040
0.007
1002
}
  0
ENDSEC
  0
SECTION
  2
OBJECTS
  0
DICTIONARY
  5
A
330
0
100
AcDbDictionary
281
1
  3
ACAD_COLOR
350
B
  3
ACAD_GROUP
350
C
  3
ACAD_LAYOUT
350
D
  3
ACAD_MATERIAL
350
E
  3
ACAD_MLEADERSTYLE
350
F
  3
ACAD_MLINESTYLE
350
10
  3
ACAD_PLOTSETTINGS
350
11
  3
ACAD_PLOTSTYLENAME
350
12
  3
ACAD_SCALELIST
350
14
  3
ACAD_TABLESTYLE
350
15
  3
ACAD_VISUALSTYLE
350
16
  3
EZDXF_META
350
2D
  0
DICTIONARY
  5
B
330
A
100
AcDbDictionary
281
1
  0
DICTIONARY
  5
C
330
A
100
AcDbDictionary
281
1
  0
DICTIONARY
  5
D
330
A
100
AcDbDictionary
281
1
  3
Model
350
1A
  3
Layout1
350
1E
  0
DICTIONARY
  5
E
330
A
100
AcDbDictionary
281
1
  3
ByBlock
350
1F
  3
ByLayer
350
20
  3
Global
350
21
  0
DICTIONARY
  5
F
330
A
100
AcDbDictionary
281
1
  3
Standard
350
2C
  0
DICTIONARY
  5
10
330
A
100
AcDbDictionary
281
1
  3
Standard
350
22
  0
DICTIONARY
  5
11
330
A
100
AcDbDictionary
281
1
  0
ACDBDICTIONARYWDFLT
  5
12
330
A
100
AcDbDictionary
281
1
  3
Normal
350
13
100
AcDbDictionaryWithDefault
340
13
  0
ACDBPLACEHOLDER
  5
13
330
12
  0
DICTIONARY
  5
14
330
A
100
AcDbDictionary
281
1
  0
DICTIONARY
  5
15
330
A
100
AcDbDictionary
281
1
  0
DICTIONARY
  5
16
330
A
100
AcDbDictionary
281
1
  0
LAYOUT
  5
1A
330
D
100
AcDbPlotSettings
  1

  4
A3
  6

 40
7.5
 41
20.0
 42
7.5
 43
20.0
 44
420.0
 45
297.0
 46
0.0
 47
0.0
 48
0.0
 49
0.0
140
0.0
141
0.0
142
1.0
143
1.0
 70
1024
 72
1
 73
0
 74
5
  7

 75
16
 76
0
 77
2
 78
300
147
1.0
148
0.0
149
0.0
100
AcDbLayout
  1
Model
 70
1
 71
0
 10
0.0
 20
0.0
 11
420.0
 21
297.0
 12
0.0
 22
0.0
 32
0.0
 14
1e+20
 24
1e+20
 34
1e+20
 15
-1e+20
 25
-1e+20
 35
-1e+20
146
0.0
 13
0.0
 23
0.0
 33
0.0
 16
1.0
 26
0.0
 36
0.0
 17
0.0
 27
1.0
 37
0.0
 76
1
330
17
  0
LAYOUT
  5
1E
330
D
100
AcDbPlotSettings
  1

  4
A3
  6

 40
7.5
 41
20.0
 42
7.5
 43
20.0
 44
420.0
 45
297.0
 46
0.0
 47
0.0
 48
0.0
 49
0.0
140
0.0
141
0.0
142
1.0
143
1.0
 70
0
 72
1
 73
0
 74
5
  7

 75
16
 76
0
 77
2
 78
300
147
1.0
148
0.0
149
0.0
100
AcDbLayout
  1
Layout1
 70
1
 71
1
 10
0.0
 20
0.0
 11
420.0
 21
297.0
 12
0.0
 22
0.0
 32
0.0
 14
1e+20
 24
1e+20
 34
1e+20
 15
-1e+20
 25
-1e+20
 35
-1e+20
146
0.0
 13
0.0
 23
0.0
 33
0.0
 16
1.0
 26
0.0
 36
0.0
 17
0.0
 27
1.0
 37
0.0
 76
1
330
1B
  0
MATERIAL
  5
1F
102
{ACAD_REACTORS
330
E
102
}
330
E
100
AcDbMaterial
  1
ByBlock
  2

 70
0
 40
1.0
 71
1
 41
1.0
 91
-1023410177
 42
1.0
 72
1
  3

 73
1
 74
1
 75
1
 44
0.5
 73
0
 45
1.0
 46
1.0
 77
1
  4

 78
1
 79
1
170
1
 48
1.0
171
1
  6

172
1
173
1
174
1
140
1.0
141
1.0
175
1
  7

176
1
177
1
178
1
143
1.0
179
1
  8

270
1
271
1
272
1
145
1.0
146
1.0
273
1
  9

274
1
275
1
276
1
 42
1.0
 72
1
  3

 73
1
 74
1
 75
1
 94
63
  0
MATERIAL
  5
20
102
{ACAD_REACTORS
330
E
102
}
330
E
100
AcDbMaterial
  1
ByLayer
  2

 70
0
 40
1.0
 71
1
 41
1.0
 91
-1023410177
 42
1.0
 72
1
  3

 73
1
 74
1
 75
1
 44
0.5
 73
0
 45
1.0
 46
1.0
 77
1
  4

 78
1
 79
1
170
1
 48
1.0
171
1
  6

172
1
173
1
174
1
140
1.0
141
1.0
175
1
  7

176
1
177
1
178
1
143
1.0
179
1
  8

270
1
271
1
272
1
145
1.0
146
1.0
273
1
  9

274
1
275
1
276
1
 42
1.0
 72
1
  3

 73
1
 74
1
 75
1
 94
63
  0
MATERIAL
  5
21
102
{ACAD_REACTORS
330
E
102
}
330
E
100
AcDbMaterial
  1
Global
  2

 70
0
 40
1.0
 71
1
 41
1.0
 91
-1023410177
 42
1.0
 72
1
  3

 73
1
 74
1
 75
1
 44
0.5
 73
0
 45
1.0
 46
1.0
 77
1
  4

 78
1
 79
1
170
1
 48
1.0
171
1
  6

172
1
173
1
174
1
140
1.0
141
1.0
175
1
  7

176
1
177
1
178
1
143
1.0
179
1
  8

270
1
271
1
272
1
145
1.0
146
1.0
273
1
  9

274
1
275
1
276
1
 42
1.0
 72
1
  3

 73
1
 74
1
 75
1
 94
63
  0
MLINESTYLE
  5
22
102
{ACAD_REACTORS
330
10
102
}
330
10
100
AcDbMlineStyle
  2
Standard
 70
0
  3

 62
256
 51
90.0
 52
90.0
 71
2
 49
0.5
 62
256
  6
BYLAYER
 49
-0.5
 62
256
  6
BYLAYER
  0
MLEADERSTYLE
  5
2C
102
{ACAD_REACTORS
330
F
102
}
330
F
100
AcDbMLeaderStyle
179
2
170
2
171
1
172
0
 90
2
 40
0.0
 41
0.0
173
1
 91
-1056964608
 92
-2
290
1
 42
2.0
291
1
 43
8.0
  3
Standard
 44
4.0
300

342
29
174
1
175
1
176
0
178
1
 93
-1056964608
 45
4.0
292
0
297
0
 46
4.0
 94
-1056964608
 47
1.0
 49
1.0
140
1.0
294
1
141
0.0
177
0
142
1.0
295
0
296
0
143
3.75
271
0
272
9
273
9
  0
DICTIONARY
  5
2D
330
A
100
AcDbDictionary
280
1
281
1
  3
CREATED_BY_EZDXF
350
2E
  3
WRITTEN_BY_EZDXF
350
12D
  0
DICTIONARYVAR
  5
2E
330
2D
100
DictionaryVariables
280
0
  1
1.4.4 @ 2026-09-11T02:36:40.784601+00:00
  0
DICTIONARYVAR
  5
12D
330
2D
100
DictionaryVariables
280
0
  1
1.4.4 @ 2026-09-11T02:36:40.802427+00:00
  0
ENDSEC
  0
EOF
