  0
SECTION
  2
HEADER
  9
$ACADVER
  1
AC1024
  9
$ACADMAINTVER
 70
6
  9
$DWGCODEPAGE
  3
ANSI_1252
  9
$LASTSAVEDBY
  1
ezdxf
  9
$INSBASE
 10
0.0
 20
0.0
 30
0.0
  9
$EXTMIN
 10
1e+20
 20
1e+20
 30
1e+20
  9
$EXTMAX
 10
-1e+20
 20
-1e+20
 30
-1e+20
  9
$LIMMIN
 10
0.0
 20
0.0
  9
$LIMMAX
 10
420.0
 20
297.0
  9
$ORTHOMODE
 70
0
  9
$REGENMODE
 70
1
  9
$FILLMODE
 70
1
  9
$QTEXTMODE
 70
0
  9
$MIRRTEXT
 70
1
  9
$LTSCALE
 40
1.0
  9
$ATTMODE
 70
1
  9
$TEXTSIZE
 40
2.5
  9
$TRACEWID
 40
1.0
  9
$TEXTSTYLE
  7
Standard
  9
$CLAYER
  8
0
  9
$CELTYPE
  6
ByLayer
  9
$CECOLOR
 62
256
  9
$CELTSCALE
 40
1.0
  9
$DISPSILH
 70
0
  9
$DIMSCALE
 40
1.0
  9
$DIMASZ
 40
2.5
  9
$DIMEXO
 40
0.625
  9
$DIMDLI
 40
3.75
  9
$DIMRND
 40
0.0
  9
$DIMDLE
 40
0.0
  9
$DIMEXE
 40
1.25
  9
$DIMTP
 40
0.0
  9
$DIMTM
 40
0.0
  9
$DIMTXT
 40
2.5
  9
$DIMCEN
 40
2.5
  9
$DIMTSZ
 40
0.0
  9
$DIMTOL
 70
0
  9
$DIMLIM
 70
0
  9
$DIMTIH
 70
0
  9
$DIMTOH
 70
0
  9
$DIMSE1
 70
0
  9
$DIMSE2
 70
0
  9
$DIMTAD
 70
1
  9
$DIMZIN
 70
8
  9
$DIMBLK
  1

  9
$DIMASO
 70
1
  9
$DIMSHO
 70
1
  9
$DIMPOST
  1

  9
$DIMAPOST
  1

  9
$DIMALT
 70
0
  9
$DIMALTD
 70
3
  9
$DIMALTF
 40
0.03937007874
  9
$DIMLFAC
 40
1.0
  9
$DIMTOFL
 70
1
  9
$DIMTVP
 40
0.0
  9
$DIMTIX
 70
0
  9
$DIMSOXD
 70
0
  9
$DIMSAH
 70
0
  9
$DIMBLK1
  1

  9
$DIMBLK2
  1

  9
$DIMSTYLE
  2
ISO-25
  9
$DIMCLRD
 70
0
  9
$DIMCLRE
 70
0
  9
$DIMCLRT
 70
0
  9
$DIMTFAC
 40
1.0
  9
$DIMGAP
 40
0.625
  9
$DIMJUST
 70
0
  9
$DIMSD1
 70
0
  9
$DIMSD2
 70
0
  9
$DIMTOLJ
 70
0
  9
$DIMTZIN
 70
8
  9
$DIMALTZ
 70
0
  9
$DIMALTTZ
 70
0
  9
$DIMUPT
 70
0
  9
$DIMDEC
 70
2
  9
$DIMTDEC
 70
2
  9
$DIMALTU
 70
2
  9
$DIMALTTD
 70
3
  9
$DIMTXSTY
  7
Standard
  9
$DIMAUNIT
 70
0
  9
$DIMADEC
 70
0
  9
$DIMALTRND
 40
0.0
  9
$DIMAZIN
 70
0
  9
$DIMDSEP
 70
44
  9
$DIMATFIT
 70
3
  9
$DIMFRAC
 70
0
  9
$DIMLDRBLK
  1

  9
$DIMLUNIT
 70
2
  9
$DIMLWD
 70
-2
  9
$DIMLWE
 70
-2
  9
$DIMTMOVE
 70
0
  9
$DIMFXL
 40
1.0
  9
$DIMFXLON
 70
0
  9
$DIMJOGANG
 40
0.785398163397
  9
$DIMTFILL
 70
0
  9
$DIMTFILLCLR
 70
0
  9
$DIMARCSYM
 70
0
  9
$DIMLTYPE
  6

  9
$DIMLTEX1
  6

  9
$DIMLTEX2
  6

  9
$DIMTXTDIRECTION
 70
0
  9
$LUNITS
 70
2
  9
$LUPREC
 70
4
  9
$SKETCHINC
 40
1.0
  9
$FILLETRAD
 40
10.0
  9
$AUNITS
 70
0
  9
$AUPREC
 70
2
  9
$MENU
  1
.
  9
$ELEVATION
 40
0.0
  9
$PELEVATION
 40
0.0
  9
$THICKNESS
 40
0.0
  9
$LIMCHECK
 70
0
  9
$CHAMFERA
 40
0.0
  9
$CHAMFERB
 40
0.0
  9
$CHAMFERC
 40
0.0
  9
$CHAMFERD
 40
0.0
  9
$SKPOLY
 70
0
  9
$TDCREATE
 40
2461295.073564815
  9
$TDUCREATE
 40
2458532.153996898
  9
$TDUPDATE
 40
2461295.073564815
  9
$TDUUPDATE
 40
2458532.1544311
  9
$TDINDWG
 40
0.0
  9
$TDUSRTIMER
 40
0.0
  9
$USRTIMER
 70
1
  9
$ANGBASE
 50
0.0
  9
$ANGDIR
 70
0
  9
$PDMODE
 70
0
  9
$PDSIZE
 40
0.0
  9
$PLINEWID
 40
0.0
  9
$SPLFRAME
 70
0
  9
$SPLINETYPE
 70
6
  9
$SPLINESEGS
 70
8
  9
$HANDSEED
  5
EC
  9
$SURFTAB1
 70
6
  9
$SURFTAB2
 70
6
  9
$SURFTYPE
 70
6
  9
$SURFU
 70
6
  9
$SURFV
 70
6
  9
$UCSBASE
  2

  9
$UCSNAME
  2

  9
$UCSORG
 10
0.0
 20
0.0
 30
0.0
  9
$UCSXDIR
 10
1.0
 20
0.0
 30
0.0
  9
$UCSYDIR
 10
0.0
 20
1.0
 30
0.0
  9
$UCSORTHOREF
  2

  9
$UCSORTHOVIEW
 70
0
  9
$UCSORGTOP
 10
0.0
 20
0.0
 30
0.0
  9
$UCSORGBOTTOM
 10
0.0
 20
0.0
 30
0.0
  9
$UCSORGLEFT
 10
0.0
 20
0.0
 30
0.0
  9
$UCSORGRIGHT
 10
0.0
 20
0.0
 30
0.0
  9
$UCSORGFRONT
 10
0.0
 20
0.0
 30
0.0
  9
$UCSORGBACK
 10
0.0
 20
0.0
 30
0.0
  9
$PUCSBASE
  2

  9
$PUCSNAME
  2

  9
$PUCSORG
 10
0.0
 20
0.0
 30
0.0
  9
$PUCSXDIR
 10
1.0
 20
0.0
 30
0.0
  9
$PUCSYDIR
 10
0.0
 20
1.0
 30
0.0
  9
$PUCSORTHOREF
  2

  9
$PUCSORTHOVIEW
 70
0
  9
$PUCSORGTOP
 10
0.0
 20
0.0
 30
0.0
  9
$PUCSORGBOTTOM
 10
0.0
 20
0.0
 30
0.0
  9
$PUCSORGLEFT
 10
0.0
 20
0.0
 30
0.0
  9
$PUCSORGRIGHT
 10
0.0
 20
0.0
 30
0.0
  9
$PUCSORGFRONT
 10
0.0
 20
0.0
 30
0.0
  9
$PUCSORGBACK
 10
0.0
 20
0.0
 30
0.0
  9
$USERI1
 70
0
  9
$USERI2
 70
0
  9
$USERI3
 70
0
  9
$USERI4
 70
0
  9
$USERI5
 70
0
  9
$USERR1
 40
0.0
  9
$USERR2
 40
0.0
  9
$USERR3
 40
0.0
  9
$USERR4
 40
0.0
  9
$USERR5
 40
0.0
  9
$WORLDVIEW
 70
1
  9
$SHADEDGE
 70
3
  9
$SHADEDIF
 70
70
  9
$TILEMODE
 70
1
  9
$MAXACTVP
 70
64
  9
$PINSBASE
 10
0.0
 20
0.0
 30
0.0
  9
$PLIMCHECK
 70
0
  9
$PEXTMIN
 10
1e+20
 20
1e+20
 30
1e+20
  9
$PEXTMAX
 10
-1e+20
 20
-1e+20
 30
-1e+20
  9
$PLIMMIN
 10
0.0
 20
0.0
  9
$PLIMMAX
 10
420.0
 20
297.0
  9
$UNITMODE
 70
0
  9
$VISRETAIN
 70
1
  9
$PLINEGEN
 70
0
  9
$PSLTSCALE
 70
1
  9
$TREEDEPTH
 70
3020
  9
$CMLSTYLE
  2
Standard
  9
$CMLJUST
 70
0
  9
$CMLSCALE
 40
20.0
  9
$PROXYGRAPHICS
 70
1
  9
$MEASUREMENT
 70
1
  9
$CELWEIGHT
370
-1
  9
$ENDCAPS
280
0
  9
$JOINSTYLE
280
0
  9
$LWDISPLAY
290
0
  9
$INSUNITS
 70
6
  9
$HYPERLINKBASE
  1

  9
$STYLESHEET
  1

  9
$XEDIT
290
1
  9
$CEPSNTYPE
380
0
  9
$PSTYLEMODE
290
1
  9
$FINGERPRINTGUID
  2
{5963D1B2-90FA-455B-BCE9-C2C293FAF98A}
  9
$VERSIONGUID
  2
{29AAB3F1-7E54-4839-A43B-299CB262CCE0}
  9
$EXTNAMES
290
1
  9
$PSVPSCALE
 40
0.0
  9
$OLESTARTUP
290
0
  9
$SORTENTS
280
127
  9
$INDEXCTL
280
0
  9
$HIDETEXT
280
1
  9
$XCLIPFRAME
280
1
  9
$HALOGAP
280
0
  9
$OBSCOLOR
 70
257
  9
$OBSLTYPE
280
0
  9
$INTERSECTIONDISPLAY
280
0
  9
$INTERSECTIONCOLOR
 70
257
  9
$DIMASSOC
280
2
  9
$PROJECTNAME
  1

  9
$CAMERADISPLAY
290
0
  9
$LENSLENGTH
 40
50.0
  9
$CAMERAHEIGHT
 40
0.0
  9
$STEPSPERSEC
 40
24.0
  9
$STEPSIZE
 40
100.0
  9
$3DDWFPREC
 40
2.0
  9
$PSOLWIDTH
 40
0.005
  9
$PSOLHEIGHT
 40
0.08
  9
$LOFTANG1
 40
1.570796326795
  9
$LOFTANG2
 40
1.570796326795
  9
$LOFTMAG1
 40
0.0
  9
$LOFTMAG2
 40
0.0
  9
$LOFTPARAM
 70
7
  9
$LOFTNORMALS
280
1
  9
$LATITUDE
 40
37.795
  9
$LONGITUDE
 40
-122.394
  9
$NORTHDIRECTION
 40
0.0
  9
$TIMEZONE
 70
-8000
  9
$LIGHTGLYPHDISPLAY
280
1
  9
$TILEMODELIGHTSYNCH
280
1
  9
$CMATERIAL
347
20
  9
$SOLIDHIST
280
0
  9
$SHOWHIST
280
1
  9
$DWFFRAME
280
2
  9
$DGNFRAME
280
2
  9
$REALWORLDSCALE
290
1
  9
$INTERFERECOLOR
 62
256
  9
$CSHADOW
280
0
  9
$SHADOWPLANELOCATION
 40
0.0
  0
ENDSEC
  0
SECTION
  2
CLASSES
  0
CLASS
  1
ACDBDICTIONARYWDFLT
  2
AcDbDictionaryWithDefault
  3
ObjectDBX Classes
 90
0
 91
0
280
0
281
0
  0
CLASS
  1
SUN
  2
AcDbSun
  3
SCENEOE
 90
1153
 91
0
280
0
281
0
  0
CLASS
  1
VISUALSTYLE
  2
AcDbVisualStyle
  3
ObjectDBX Classes
 90
4095
 91
0
280
0
281
0
  0
CLASS
  1
MATERIAL
  2
AcDbMaterial
  3
ObjectDBX Classes
 90
1153
 91
0
280
0
281
0
  0
CLASS
  1
SCALE
  2
AcDbScale
  3
ObjectDBX Classes
 90
1153
 91
0
280
0
281
0
  0
CLASS
  1
TABLESTYLE
  2
AcDbTableStyle
  3
ObjectDBX Classes
 90
4095
 91
0
280
0
281
0
  0
CLASS
  1
MLEADERSTYLE
  2
AcDbMLeaderStyle
  3
ACDB_MLEADERSTYLE_CLASS
 90
4095
 91
0
280
0
281
0
  0
CLASS
  1
DICTIONARYVAR
  2
AcDbDictionaryVar
  3
ObjectDBX Classes
 90
0
 91
0
280
0
281
0
  0
CLASS
  1
CELLSTYLEMAP
  2
AcDbCellStyleMap
  3
ObjectDBX Classes
 90
1152
 91
0
280
0
281
0
  0
CLASS
  1
MENTALRAYRENDERSETTINGS
  2
AcDbMentalRayRenderSettings
  3
SCENEOE
 90
1024
 91
0
280
0
281
0
  0
CLASS
  1
ACDBDETAILVIEWSTYLE
  2
AcDbDetailViewStyle
  3
ObjectDBX Classes
 90
1025
 91
0
280
0
281
0
  0
CLASS
  1
ACDBSECTIONVIEWSTYLE
  2
AcDbSectionViewStyle
  3
ObjectDBX Classes
 90
1025
 91
0
280
0
281
0
  0
CLASS
  1
RASTERVARIABLES
  2
AcDbRasterVariables
  3
ISM
 90
0
 91
0
280
0
281
0
  0
CLASS
  1
LAYOUT
  2
AcDbLayout
  3
ObjectDBX Classes
 90
0
 91
0
280
0
281
0
  0
CLASS
  1
ACDBPLACEHOLDER
  2
AcDbPlaceHolder
  3
ObjectDBX Classes
 90
0
 91
0
280
0
281
0
  0
ENDSEC
  0
SECTION
  2
TABLES
  0
TABLE
  2
VPORT
  5
8
330
0
100
AcDbSymbolTable
 70
1
  0
VPORT
  5
23
330
8
100
AcDbSymbolTableRecord
100
AcDbViewportTableRecord
  2
*Active
 70
0
 10
0.0
 20
0.0
 11
1.0
 21
1.0
 12
0.0
 22
0.0
 13
0.0
 23
0.0
 14
0.5
 24
0.5
 15
0.5
 25
0.5
 16
0.0
 26
0.0
 36
1.0
 17
0.0
 27
0.0
 37
0.0
 40
1000.0
 41
1.34
 42
50.0
 43
0.0
 44
0.0
 50
0.0
 51
0.0
 71
0
 72
1000
 73
1
 74
3
 75
0
 76
0
 77
0
 78
0
281
0
 65
0
146
0.0
  0
ENDTAB
  0
TABLE
  2
LTYPE
  5
2
330
0
100
AcDbSymbolTable
 70
3
  0
LTYPE
  5
24
330
2
100
AcDbSymbolTableRecord
100
AcDbLinetypeTableRecord
  2
ByBlock
 70
0
  3

 72
65
 73
0
 40
0.0
  0
LTYPE
  5
25
330
2
100
AcDbSymbolTableRecord
100
AcDbLinetypeTableRecord
  2
ByLayer
 70
0
  3

 72
65
 73
0
 40
0.0
  0
LTYPE
  5
26
330
2
100
AcDbSymbolTableRecord
100
AcDbLinetypeTableRecord
  2
Continuous
 70
0
  3

 72
65
 73
0
 40
0.0
  0
ENDTAB
  0
TABLE
  2
LAYER
  5
1
330
0
100
AcDbSymbolTable
 70
8
  0
LAYER
  5
27
330
1
100
AcDbSymbolTableRecord
100
AcDbLayerTableRecord
  2
0
 70
0
 62
7
  6
Continuous
370
-3
390
13
347
21
  0
LAYER
  5
28
330
1
100
AcDbSymbolTableRecord
100
AcDbLayerTableRecord
  2
Defpoints
 70
0
 62
7
  6
Continuous
290
0
370
-3
390
13
347
21
  0
LAYER
  5
2F
330
1
100
AcDbSymbolTableRecord
100
AcDbLayerTableRecord
  2
CORTE
 70
0
 62
7
  6
Continuous
370
-3
390
13
347
21
  0
LAYER
  5
30
330
1
100
AcDbSymbolTableRecord
100
AcDbLayerTableRecord
  2
VISTA
 70
0
 62
8
  6
Continuous
370
-3
390
13
347
21
  0
LAYER
  5
31
330
1
100
AcDbSymbolTableRecord
100
AcDbLayerTableRecord
  2
COTAS
 70
0
 62
4
  6
Continuous
370
-3
390
13
347
21
  0
LAYER
  5
32
330
1
100
AcDbSymbolTableRecord
100
AcDbLayerTableRecord
  2
TEXTOS
 70
0
 62
7
  6
Continuous
370
-3
390
13
347
21
  0
LAYER
  5
33
330
1
100
AcDbSymbolTableRecord
100
AcDbLayerTableRecord
  2
EJES
 70
0
 62
3
  6
Continuous
370
-3
390
13
347
21
  0
LAYER
  5
34
330
1
100
AcDbSymbolTableRecord
100
AcDbLayerTableRecord
  2
SISTEMAS
 70
0
 62
5
  6
Continuous
370
-3
390
13
347
21
  0
ENDTAB
  0
TABLE
  2
STYLE
  5
5
330
0
100
AcDbSymbolTable
 70
1
  0
STYLE
  5
29
330
5
100
AcDbSymbolTableRecord
100
AcDbTextStyleTableRecord
  2
Standard
 70
0
 40
0.0
 41
1.0
 50
0.0
 71
0
 42
2.5
  3
txt
  4

  0
ENDTAB
  0
TABLE
  2
VIEW
  5
7
330
0
100
AcDbSymbolTable
 70
0
  0
ENDTAB
  0
TABLE
  2
UCS
  5
6
330
0
100
AcDbSymbolTable
 70
0
  0
ENDTAB
  0
TABLE
  2
APPID
  5
3
330
0
100
AcDbSymbolTable
 70
3
  0
APPID
  5
2A
330
3
100
AcDbSymbolTableRecord
100
AcDbRegAppTableRecord
  2
ACAD
 70
0
  0
APPID
  5
E9
330
3
100
AcDbSymbolTableRecord
100
AcDbRegAppTableRecord
  2
HATCHBACKGROUNDCOLOR
 70
0
  0
APPID
  5
EA
330
3
100
AcDbSymbolTableRecord
100
AcDbRegAppTableRecord
  2
EZDXF
 70
0
  0
ENDTAB
  0
TABLE
  2
DIMSTYLE
  5
4
330
0
100
AcDbSymbolTable
 70
1
100
AcDbDimStyleTable
  0
DIMSTYLE
105
2B
330
4
100
AcDbSymbolTableRecord
100
AcDbDimStyleTableRecord
  2
Standard
 70
0
 40
1.0
 41
2.5
 42
0.625
 43
3.75
 44
1.25
 45
0.0
 46
0.0
 47
0.0
 48
0.0
 49
2.5
140
2.5
141
2.5
142
0.0
143
0.03937007874
144
1.0
145
0.0
146
1.0
147
0.625
148
0.0
 69
0
 70
0
 71
0
 72
0
 73
0
 74
0
 75
0
 76
0
 77
1
 78
8
 79
3
170
0
171
3
172
1
173
0
174
0
175
0
176
0
177
0
178
0
179
2
271
2
272
2
273
2
274
3
275
0
276
0
277
2
278
44
279
0
280
0
281
0
282
0
283
0
284
8
285
0
286
0
288
0
289
3
290
0
371
-2
372
-2
  0
ENDTAB
  0
TABLE
  2
BLOCK_RECORD
  5
9
330
0
100
AcDbSymbolTable
 70
9
  0
BLOCK_RECORD
  5
17
330
9
100
AcDbSymbolTableRecord
100
AcDbBlockTableRecord
  2
*Model_Space
340
1A
 70
0
280
1
281
0
  0
BLOCK_RECORD
  5
1B
330
9
100
AcDbSymbolTableRecord
100
AcDbBlockTableRecord
  2
*Paper_Space
340
1E
 70
0
280
1
281
0
  0
BLOCK_RECORD
  5
48
330
9
100
AcDbSymbolTableRecord
100
AcDbBlockTableRecord
  2
*D1
340
0
 70
0
280
1
281
0
  0
BLOCK_RECORD
  5
4D
330
9
100
AcDbSymbolTableRecord
100
AcDbBlockTableRecord
  2
_CLOSEDFILLED
340
0
 70
0
280
1
281
0
  0
BLOCK_RECORD
  5
5C
330
9
100
AcDbSymbolTableRecord
100
AcDbBlockTableRecord
  2
*D2
340
0
 70
0
280
1
281
0
  0
BLOCK_RECORD
  5
6C
330
9
100
AcDbSymbolTableRecord
100
AcDbBlockTableRecord
  2
*D3
340
0
 70
0
280
1
281
0
  0
BLOCK_RECORD
  5
7C
330
9
100
AcDbSymbolTableRecord
100
AcDbBlockTableRecord
  2
*D4
340
0
 70
0
280
1
281
0
  0
BLOCK_RECORD
  5
8C
330
9
100
AcDbSymbolTableRecord
100
AcDbBlockTableRecord
  2
*D5
340
0
 70
0
280
1
281
0
  0
BLOCK_RECORD
  5
9C
330
9
100
AcDbSymbolTableRecord
100
AcDbBlockTableRecord
  2
*D6
340
0
 70
0
280
1
281
0
  0
ENDTAB
  0
ENDSEC
  0
SECTION
  2
BLOCKS
  0
BLOCK
  5
18
330
17
100
AcDbEntity
  8
0
100
AcDbBlockBegin
  2
*Model_Space
 70
0
 10
0.0
 20
0.0
 30
0.0
  3
*Model_Space
  1

  0
ENDBLK
  5
19
330
17
100
AcDbEntity
  8
0
100
AcDbBlockEnd
  0
BLOCK
  5
1C
330
1B
100
AcDbEntity
  8
0
100
AcDbBlockBegin
  2
*Paper_Space
 70
0
 10
0.0
 20
0.0
 30
0.0
  3
*Paper_Space
  1

  0
ENDBLK
  5
1D
330
1B
100
AcDbEntity
  8
0
100
AcDbBlockEnd
  0
BLOCK
  5
49
330
48
100
AcDbEntity
  8
0
100
AcDbBlockBegin
  2
*D1
 70
1
 10
0.0
 20
0.0
 30
0.0
  3
*D1
  1

  0
LINE
  5
4B
330
48
100
AcDbEntity
  8
0
100
AcDbLine
 10
653.0
 20
-15.0
 30
0.0
 11
653.0
 21
-14.55
 31
0.0
  0
LINE
  5
4C
330
48
100
AcDbEntity
  8
0
100
AcDbLine
 10
660.0
 20
-15.0
 30
0.0
 11
660.0
 21
-14.55
 31
0.0
  0
INSERT
  5
51
330
48
100
AcDbEntity
  8
COTAS
100
AcDbBlockReference
  2
_CLOSEDFILLED
 10
653.0
 20
-14.55
 30
0.0
 41
0.09
 42
0.09
 50
180.0
  0
INSERT
  5
53
330
48
100
AcDbEntity
  8
COTAS
100
AcDbBlockReference
  2
_CLOSEDFILLED
 10
660.0
 20
-14.55
 30
0.0
 41
0.09
 42
0.09
  0
LINE
  5
55
330
48
100
AcDbEntity
  8
0
100
AcDbLine
 10
653.09
 20
-14.55
 30
0.0
 11
656.435
 21
-14.55
 31
0.0
  0
LINE
  5
56
330
48
100
AcDbEntity
  8
0
100
AcDbLine
 10
656.565
 20
-14.55
 30
0.0
 11
659.91
 21
-14.55
 31
0.0
  0
MTEXT
  5
57
330
48
100
AcDbEntity
  8
COTAS
100
AcDbMText
 10
656.5
 20
-14.55
 30
0.0
 40
0.13
 71
5
  1
7
  0
POINT
  5
58
330
48
100
AcDbEntity
  8
Defpoints
100
AcDbPoint
 10
653.0
 20
-14.55
 30
0.0
  0
POINT
  5
59
330
48
100
AcDbEntity
  8
Defpoints
100
AcDbPoint
 10
653.0
 20
-15.0
 30
0.0
  0
POINT
  5
5A
330
48
100
AcDbEntity
  8
Defpoints
100
AcDbPoint
 10
660.0
 20
-15.0
 30
0.0
  0
ENDBLK
  5
4A
330
48
100
AcDbEntity
  8
0
100
AcDbBlockEnd
  0
BLOCK
  5
4E
330
4D
100
AcDbEntity
  8
0
100
AcDbBlockBegin
  2
_CLOSEDFILLED
 70
0
 10
0.0
 20
0.0
 30
0.0
  3
_CLOSEDFILLED
  1

  0
SOLID
  5
50
330
4D
100
AcDbEntity
  8
0
  6
BYBLOCK
 62
0
100
AcDbTrace
 10
-1.0
 20
0.16439898372402537
 30
0.0
 11
0.0
 21
0.0
 31
0.0
 12
-1.0
 22
-0.16439898372402537
 32
0.0
 13
-1.0
 23
-0.16439898372402537
 33
0.0
  0
ENDBLK
  5
4F
330
4D
100
AcDbEntity
  8
0
100
AcDbBlockEnd
  0
BLOCK
  5
5D
330
5C
100
AcDbEntity
  8
0
100
AcDbBlockBegin
  2
*D2
 70
1
 10
0.0
 20
0.0
 30
0.0
  3
*D2
  1

  0
LINE
  5
5F
330
5C
100
AcDbEntity
  8
0
100
AcDbLine
 10
652.0
 20
-14.0
 30
0.0
 11
652.0
 21
-13.8
 31
0.0
  0
LINE
  5
60
330
5C
100
AcDbEntity
  8
0
100
AcDbLine
 10
653.0
 20
-14.0
 30
0.0
 11
653.0
 21
-13.8
 31
0.0
  0
INSERT
  5
61
330
5C
100
AcDbEntity
  8
COTAS
100
AcDbBlockReference
  2
_CLOSEDFILLED
 10
652.0
 20
-13.8
 30
0.0
 41
0.09
 42
0.09
 50
180.0
  0
INSERT
  5
63
330
5C
100
AcDbEntity
  8
COTAS
100
AcDbBlockReference
  2
_CLOSEDFILLED
 10
653.0
 20
-13.8
 30
0.0
 41
0.09
 42
0.09
  0
LINE
  5
65
330
5C
100
AcDbEntity
  8
0
100
AcDbLine
 10
652.09
 20
-13.8
 30
0.0
 11
652.435
 21
-13.8
 31
0.0
  0
LINE
  5
66
330
5C
100
AcDbEntity
  8
0
100
AcDbLine
 10
652.565
 20
-13.8
 30
0.0
 11
652.91
 21
-13.8
 31
0.0
  0
MTEXT
  5
67
330
5C
100
AcDbEntity
  8
COTAS
100
AcDbMText
 10
652.5
 20
-13.8
 30
0.0
 40
0.13
 71
5
  1
1
  0
POINT
  5
68
330
5C
100
AcDbEntity
  8
Defpoints
100
AcDbPoint
 10
652.0
 20
-13.8
 30
0.0
  0
POINT
  5
69
330
5C
100
AcDbEntity
  8
Defpoints
100
AcDbPoint
 10
652.0
 20
-14.0
 30
0.0
  0
POINT
  5
6A
330
5C
100
AcDbEntity
  8
Defpoints
100
AcDbPoint
 10
653.0
 20
-14.0
 30
0.0
  0
ENDBLK
  5
5E
330
5C
100
AcDbEntity
  8
0
100
AcDbBlockEnd
  0
BLOCK
  5
6D
330
6C
100
AcDbEntity
  8
0
100
AcDbBlockBegin
  2
*D3
 70
1
 10
0.0
 20
0.0
 30
0.0
  3
*D3
  1

  0
LINE
  5
6F
330
6C
100
AcDbEntity
  8
0
100
AcDbLine
 10
660.0
 20
-14.0
 30
0.0
 11
660.0
 21
-13.8
 31
0.0
  0
LINE
  5
70
330
6C
100
AcDbEntity
  8
0
100
AcDbLine
 10
661.0
 20
-14.0
 30
0.0
 11
661.0
 21
-13.8
 31
0.0
  0
INSERT
  5
71
330
6C
100
AcDbEntity
  8
COTAS
100
AcDbBlockReference
  2
_CLOSEDFILLED
 10
660.0
 20
-13.8
 30
0.0
 41
0.09
 42
0.09
 50
180.0
  0
INSERT
  5
73
330
6C
100
AcDbEntity
  8
COTAS
100
AcDbBlockReference
  2
_CLOSEDFILLED
 10
661.0
 20
-13.8
 30
0.0
 41
0.09
 42
0.09
  0
LINE
  5
75
330
6C
100
AcDbEntity
  8
0
100
AcDbLine
 10
660.09
 20
-13.8
 30
0.0
 11
660.435
 21
-13.8
 31
0.0
  0
LINE
  5
76
330
6C
100
AcDbEntity
  8
0
100
AcDbLine
 10
660.565
 20
-13.8
 30
0.0
 11
660.91
 21
-13.8
 31
0.0
  0
MTEXT
  5
77
330
6C
100
AcDbEntity
  8
COTAS
100
AcDbMText
 10
660.5
 20
-13.8
 30
0.0
 40
0.13
 71
5
  1
1
  0
POINT
  5
78
330
6C
100
AcDbEntity
  8
Defpoints
100
AcDbPoint
 10
660.0
 20
-13.8
 30
0.0
  0
POINT
  5
79
330
6C
100
AcDbEntity
  8
Defpoints
100
AcDbPoint
 10
660.0
 20
-14.0
 30
0.0
  0
POINT
  5
7A
330
6C
100
AcDbEntity
  8
Defpoints
100
AcDbPoint
 10
661.0
 20
-14.0
 30
0.0
  0
ENDBLK
  5
6E
330
6C
100
AcDbEntity
  8
0
100
AcDbBlockEnd
  0
BLOCK
  5
7D
330
7C
100
AcDbEntity
  8
0
100
AcDbBlockBegin
  2
*D4
 70
1
 10
0.0
 20
0.0
 30
0.0
  3
*D4
  1

  0
LINE
  5
7F
330
7C
100
AcDbEntity
  8
0
100
AcDbLine
 10
660.0
 20
-15.0
 30
0.0
 11
661.35
 21
-15.0
 31
0.0
  0
LINE
  5
80
330
7C
100
AcDbEntity
  8
0
100
AcDbLine
 10
660.0
 20
-18.0
 30
0.0
 11
661.35
 21
-18.0
 31
0.0
  0
INSERT
  5
81
330
7C
100
AcDbEntity
  8
COTAS
100
AcDbBlockReference
  2
_CLOSEDFILLED
 10
661.35
 20
-15.0
 30
0.0
 41
0.09
 42
0.09
 50
270.0
  0
INSERT
  5
83
330
7C
100
AcDbEntity
  8
COTAS
100
AcDbBlockReference
  2
_CLOSEDFILLED
 10
661.35
 20
-18.0
 30
0.0
 41
0.09
 42
0.09
 50
90.0
  0
LINE
  5
85
330
7C
100
AcDbEntity
  8
0
100
AcDbLine
 10
661.35
 20
-14.91
 30
0.0
 11
661.35
 21
-16.435
 31
0.0
  0
LINE
  5
86
330
7C
100
AcDbEntity
  8
0
100
AcDbLine
 10
661.35
 20
-16.565
 30
0.0
 11
661.35
 21
-18.09
 31
0.0
  0
MTEXT
  5
87
330
7C
100
AcDbEntity
  8
COTAS
100
AcDbMText
 10
661.35
 20
-16.5
 30
0.0
 40
0.13
 71
5
  1
3
 50
90.0
  0
POINT
  5
88
330
7C
100
AcDbEntity
  8
Defpoints
100
AcDbPoint
 10
661.35
 20
-15.0
 30
0.0
  0
POINT
  5
89
330
7C
100
AcDbEntity
  8
Defpoints
100
AcDbPoint
 10
660.0
 20
-15.0
 30
0.0
  0
POINT
  5
8A
330
7C
100
AcDbEntity
  8
Defpoints
100
AcDbPoint
 10
660.0
 20
-18.0
 30
0.0
  0
ENDBLK
  5
7E
330
7C
100
AcDbEntity
  8
0
100
AcDbBlockEnd
  0
BLOCK
  5
8D
330
8C
100
AcDbEntity
  8
0
100
AcDbBlockBegin
  2
*D5
 70
1
 10
0.0
 20
0.0
 30
0.0
  3
*D5
  1

  0
LINE
  5
8F
330
8C
100
AcDbEntity
  8
0
100
AcDbLine
 10
661.0
 20
-14.0
 30
0.0
 11
661.35
 21
-14.0
 31
0.0
  0
LINE
  5
90
330
8C
100
AcDbEntity
  8
0
100
AcDbLine
 10
661.0
 20
-15.0
 30
0.0
 11
661.35
 21
-15.0
 31
0.0
  0
INSERT
  5
91
330
8C
100
AcDbEntity
  8
COTAS
100
AcDbBlockReference
  2
_CLOSEDFILLED
 10
661.35
 20
-14.0
 30
0.0
 41
0.09
 42
0.09
 50
270.0
  0
INSERT
  5
93
330
8C
100
AcDbEntity
  8
COTAS
100
AcDbBlockReference
  2
_CLOSEDFILLED
 10
661.35
 20
-15.0
 30
0.0
 41
0.09
 42
0.09
 50
90.0
  0
LINE
  5
95
330
8C
100
AcDbEntity
  8
0
100
AcDbLine
 10
661.35
 20
-13.91
 30
0.0
 11
661.35
 21
-14.435
 31
0.0
  0
LINE
  5
96
330
8C
100
AcDbEntity
  8
0
100
AcDbLine
 10
661.35
 20
-14.565
 30
0.0
 11
661.35
 21
-15.09
 31
0.0
  0
MTEXT
  5
97
330
8C
100
AcDbEntity
  8
COTAS
100
AcDbMText
 10
661.35
 20
-14.5
 30
0.0
 40
0.13
 71
5
  1
1
 50
90.0
  0
POINT
  5
98
330
8C
100
AcDbEntity
  8
Defpoints
100
AcDbPoint
 10
661.35
 20
-14.0
 30
0.0
  0
POINT
  5
99
330
8C
100
AcDbEntity
  8
Defpoints
100
AcDbPoint
 10
661.0
 20
-14.0
 30
0.0
  0
POINT
  5
9A
330
8C
100
AcDbEntity
  8
Defpoints
100
AcDbPoint
 10
661.0
 20
-15.0
 30
0.0
  0
ENDBLK
  5
8E
330
8C
100
AcDbEntity
  8
0
100
AcDbBlockEnd
  0
BLOCK
  5
9D
330
9C
100
AcDbEntity
  8
0
100
AcDbBlockBegin
  2
*D6
 70
1
 10
0.0
 20
0.0
 30
0.0
  3
*D6
  1

  0
LINE
  5
9F
330
9C
100
AcDbEntity
  8
0
100
AcDbLine
 10
661.0
 20
-18.0
 30
0.0
 11
661.35
 21
-18.0
 31
0.0
  0
LINE
  5
A0
330
9C
100
AcDbEntity
  8
0
100
AcDbLine
 10
661.0
 20
-19.0
 30
0.0
 11
661.35
 21
-19.0
 31
0.0
  0
INSERT
  5
A1
330
9C
100
AcDbEntity
  8
COTAS
100
AcDbBlockReference
  2
_CLOSEDFILLED
 10
661.35
 20
-18.0
 30
0.0
 41
0.09
 42
0.09
 50
270.0
  0
INSERT
  5
A3
330
9C
100
AcDbEntity
  8
COTAS
100
AcDbBlockReference
  2
_CLOSEDFILLED
 10
661.35
 20
-19.0
 30
0.0
 41
0.09
 42
0.09
 50
90.0
  0
LINE
  5
A5
330
9C
100
AcDbEntity
  8
0
100
AcDbLine
 10
661.35
 20
-17.91
 30
0.0
 11
661.35
 21
-18.435
 31
0.0
  0
LINE
  5
A6
330
9C
100
AcDbEntity
  8
0
100
AcDbLine
 10
661.35
 20
-18.565
 30
0.0
 11
661.35
 21
-19.09
 31
0.0
  0
MTEXT
  5
A7
330
9C
100
AcDbEntity
  8
COTAS
100
AcDbMText
 10
661.35
 20
-18.5
 30
0.0
 40
0.13
 71
5
  1
1
 50
90.0
  0
POINT
  5
A8
330
9C
100
AcDbEntity
  8
Defpoints
100
AcDbPoint
 10
661.35
 20
-18.0
 30
0.0
  0
POINT
  5
A9
330
9C
100
AcDbEntity
  8
Defpoints
100
AcDbPoint
 10
661.0
 20
-18.0
 30
0.0
  0
POINT
  5
AA
330
9C
100
AcDbEntity
  8
Defpoints
100
AcDbPoint
 10
661.0
 20
-19.0
 30
0.0
  0
ENDBLK
  5
9E
330
9C
100
AcDbEntity
  8
0
100
AcDbBlockEnd
  0
ENDSEC
  0
SECTION
  2
ENTITIES
  0
LWPOLYLINE
  5
35
330
17
100
AcDbEntity
  8
VISTA
100
AcDbPolyline
 90
9
 70
1
 10
653.0
 20
-17.995501
 10
653.001895
 20
-17.999168
 10
659.995501
 20
-18.0
 10
659.999168
 20
-17.998104
 10
660.0
 20
-15.0045
 10
659.998104
 20
-15.000831
 10
653.0045
 20
-15.0
 10
653.0
 20
-15.0045
 10
653.0
 20
-17.995501
  0
LWPOLYLINE
  5
36
330
17
100
AcDbEntity
  8
VISTA
100
AcDbPolyline
 90
9
 70
1
 10
653.095
 20
-17.139044
 10
653.0995
 20
-17.145
 10
654.1405
 20
-17.145
 10
654.144169
 20
-17.142492
 10
654.145
 20
-16.700956
 10
654.1405
 20
-16.695
 10
653.0995
 20
-16.695
 10
653.095
 20
-16.700956
 10
653.095
 20
-17.139044
  0
LWPOLYLINE
  5
37
330
17
100
AcDbEntity
  8
VISTA
100
AcDbPolyline
 90
9
 70
1
 10
653.095
 20
-17.479044
 10
653.0995
 20
-17.485001
 10
654.1405
 20
-17.485001
 10
654.144169
 20
-17.482492
 10
654.145
 20
-17.040956
 10
654.1405
 20
-17.035
 10
653.0995
 20
-17.035
 10
653.095
 20
-17.040956
 10
653.095
 20
-17.479044
  0
LWPOLYLINE
  5
38
330
17
100
AcDbEntity
  8
VISTA
100
AcDbPolyline
 90
9
 70
1
 10
658.014999
 20
-17.865499
 10
658.019499
 20
-17.870001
 10
658.4405
 20
-17.870001
 10
658.445
 20
-17.865499
 10
658.445
 20
-15.134501
 10
658.4405
 20
-15.13
 10
658.019499
 20
-15.13
 10
658.014999
 20
-15.134501
 10
658.014999
 20
-17.865499
  0
LWPOLYLINE
  5
39
330
17
100
AcDbEntity
  8
VISTA
100
AcDbPolyline
 90
5
 70
1
 10
658.610001
 20
-15.45
 10
658.610001
 20
-17.51
 10
658.709999
 20
-17.51
 10
658.709999
 20
-15.45
 10
658.610001
 20
-15.45
  0
LWPOLYLINE
  5
3A
330
17
100
AcDbEntity
  8
VISTA
100
AcDbPolyline
 90
9
 70
1
 10
653.095
 20
-17.819044
 10
653.0995
 20
-17.825001
 10
654.1405
 20
-17.825001
 10
654.144169
 20
-17.822493
 10
654.145
 20
-17.380957
 10
654.1405
 20
-17.375
 10
653.0995
 20
-17.375
 10
653.095
 20
-17.380957
 10
653.095
 20
-17.819044
  0
LWPOLYLINE
  5
3B
330
17
100
AcDbEntity
  8
VISTA
100
AcDbPolyline
 90
5
 70
1
 10
658.605001
 20
-15.41
 10
658.605001
 20
-17.549999
 10
658.635
 20
-17.549999
 10
658.635
 20
-15.41
 10
658.605001
 20
-15.41
  0
LWPOLYLINE
  5
3C
330
17
100
AcDbEntity
  8
VISTA
100
AcDbPolyline
 90
9
 70
1
 10
658.44083
 20
-17.873106
 10
658.4445
 20
-17.875
 10
659.878105
 20
-17.874168
 10
659.879999
 20
-17.870501
 10
659.879169
 20
-15.126895
 10
659.8755
 20
-15.125
 10
658.4445
 20
-15.125
 10
658.440001
 20
-15.1295
 10
658.44083
 20
-17.873106
  0
LWPOLYLINE
  5
3D
330
17
100
AcDbEntity
  8
VISTA
100
AcDbPolyline
 90
5
 70
1
 10
653.09
 20
-15.0625
 10
653.09
 20
-15.0975
 10
659.91
 20
-15.0975
 10
659.91
 20
-15.0625
 10
653.09
 20
-15.0625
  0
LWPOLYLINE
  5
3E
330
17
100
AcDbEntity
  8
VISTA
100
AcDbPolyline
 90
5
 70
1
 10
653.09
 20
-17.9025
 10
653.09
 20
-17.9375
 10
659.91
 20
-17.9375
 10
659.91
 20
-17.9025
 10
653.09
 20
-17.9025
  0
LWPOLYLINE
  5
3F
330
17
100
AcDbEntity
  8
VISTA
100
AcDbPolyline
 90
9
 70
1
 10
653.0
 20
-15.1155
 10
653.0045
 20
-15.120001
 10
659.995501
 20
-15.120001
 10
660.0
 20
-15.1155
 10
660.0
 20
-15.0045
 10
659.995501
 20
-15.0
 10
653.0045
 20
-15.0
 10
653.0
 20
-15.0045
 10
653.0
 20
-15.1155
  0
LWPOLYLINE
  5
40
330
17
100
AcDbEntity
  8
VISTA
100
AcDbPolyline
 90
9
 70
1
 10
653.0
 20
-17.995501
 10
653.0045
 20
-18.0
 10
659.995501
 20
-18.0
 10
660.0
 20
-17.995501
 10
660.0
 20
-17.884501
 10
659.995501
 20
-17.880001
 10
653.0045
 20
-17.880001
 10
653.0
 20
-17.884501
 10
653.0
 20
-17.995501
  0
LWPOLYLINE
  5
41
330
17
100
AcDbEntity
  8
VISTA
100
AcDbPolyline
 90
9
 70
1
 10
653.0
 20
-17.995501
 10
653.0045
 20
-18.0
 10
653.1155
 20
-18.0
 10
653.120001
 20
-17.995501
 10
653.120001
 20
-15.0045
 10
653.1155
 20
-15.0
 10
653.0045
 20
-15.0
 10
653.0
 20
-15.0045
 10
653.0
 20
-17.995501
  0
LWPOLYLINE
  5
42
330
17
100
AcDbEntity
  8
VISTA
100
AcDbPolyline
 90
9
 70
1
 10
659.880001
 20
-17.995501
 10
659.884501
 20
-18.0
 10
659.995501
 20
-18.0
 10
660.0
 20
-17.995501
 10
660.0
 20
-15.0045
 10
659.995501
 20
-15.0
 10
659.884501
 20
-15.0
 10
659.880001
 20
-15.0045
 10
659.880001
 20
-17.995501
  0
LWPOLYLINE
  5
43
330
17
100
AcDbEntity
  8
VISTA
100
AcDbPolyline
 90
9
 70
1
 10
652.0
 20
-14.9955
 10
652.004499
 20
-15.0
 10
660.995501
 20
-15.0
 10
661.0
 20
-14.9955
 10
661.0
 20
-14.0045
 10
660.995501
 20
-14.0
 10
652.004499
 20
-14.0
 10
652.0
 20
-14.0045
 10
652.0
 20
-14.9955
  0
LWPOLYLINE
  5
44
330
17
100
AcDbEntity
  8
VISTA
100
AcDbPolyline
 90
9
 70
1
 10
652.0
 20
-18.995501
 10
652.004499
 20
-19.0
 10
660.995501
 20
-19.0
 10
661.0
 20
-18.995501
 10
661.0
 20
-18.004499
 10
660.995501
 20
-18.0
 10
652.004499
 20
-18.0
 10
652.0
 20
-18.004499
 10
652.0
 20
-18.995501
  0
LWPOLYLINE
  5
45
330
17
100
AcDbEntity
  8
VISTA
100
AcDbPolyline
 90
9
 70
1
 10
652.000831
 20
-17.998104
 10
652.0045
 20
-18.0
 10
652.998105
 20
-17.999168
 10
653.0
 20
-17.995501
 10
652.999169
 20
-15.001895
 10
652.9955
 20
-15.0
 10
652.0045
 20
-15.0
 10
652.0
 20
-15.0045
 10
652.000831
 20
-17.998104
  0
LWPOLYLINE
  5
46
330
17
100
AcDbEntity
  8
VISTA
100
AcDbPolyline
 90
9
 70
1
 10
660.000832
 20
-17.998104
 10
660.004499
 20
-18.0
 10
660.998106
 20
-17.999168
 10
661.0
 20
-17.995501
 10
660.999168
 20
-15.001895
 10
660.995501
 20
-15.0
 10
660.004499
 20
-15.0
 10
660.0
 20
-15.0045
 10
660.000832
 20
-17.998104
  0
DIMENSION
  5
47
330
17
100
AcDbEntity
  8
COTAS
100
AcDbDimension
280
0
  2
*D1
  3
Standard
 10
653.0
 20
-14.55
 30
0.0
 11
656.5
 21
-14.55
 31
0.0
 70
32
 71
5
  1
<>
100
AcDbAlignedDimension
 13
653.0
 23
-15.0
 33
0.0
 14
660.0
 24
-15.0
 34
0.0
 50
0.0
100
AcDbRotatedDimension
1001
ACAD
1000
DSTYLE
1002
{
1070
140
1040
0.13
1070
41
1040
0.09
1002
}
  0
DIMENSION
  5
5B
330
17
100
AcDbEntity
  8
COTAS
100
AcDbDimension
280
0
  2
*D2
  3
Standard
 10
652.0
 20
-13.8
 30
0.0
 11
652.5
 21
-13.8
 31
0.0
 70
32
 71
5
  1
<>
100
AcDbAlignedDimension
 13
652.0
 23
-14.0
 33
0.0
 14
653.0
 24
-14.0
 34
0.0
 50
0.0
100
AcDbRotatedDimension
1001
ACAD
1000
DSTYLE
1002
{
1070
140
1040
0.13
1070
41
1040
0.09
1002
}
  0
DIMENSION
  5
6B
330
17
100
AcDbEntity
  8
COTAS
100
AcDbDimension
280
0
  2
*D3
  3
Standard
 10
660.0
 20
-13.8
 30
0.0
 11
660.5
 21
-13.8
 31
0.0
 70
32
 71
5
  1
<>
100
AcDbAlignedDimension
 13
660.0
 23
-14.0
 33
0.0
 14
661.0
 24
-14.0
 34
0.0
 50
0.0
100
AcDbRotatedDimension
1001
ACAD
1000
DSTYLE
1002
{
1070
140
1040
0.13
1070
41
1040
0.09
1002
}
  0
DIMENSION
  5
7B
330
17
100
AcDbEntity
  8
COTAS
100
AcDbDimension
280
0
  2
*D4
  3
Standard
 10
661.35
 20
-15.0
 30
0.0
 11
661.35
 21
-16.5
 31
0.0
 70
32
 71
5
  1
<>
100
AcDbAlignedDimension
 13
660.0
 23
-15.0
 33
0.0
 14
660.0
 24
-18.0
 34
0.0
 50
90.0
100
AcDbRotatedDimension
1001
ACAD
1000
DSTYLE
1002
{
1070
140
1040
0.13
1070
41
1040
0.09
1002
}
  0
DIMENSION
  5
8B
330
17
100
AcDbEntity
  8
COTAS
100
AcDbDimension
280
0
  2
*D5
  3
Standard
 10
661.35
 20
-14.0
 30
0.0
 11
661.35
 21
-14.5
 31
0.0
 70
32
 71
5
  1
<>
100
AcDbAlignedDimension
 13
661.0
 23
-14.0
 33
0.0
 14
661.0
 24
-15.0
 34
0.0
 50
90.0
100
AcDbRotatedDimension
1001
ACAD
1000
DSTYLE
1002
{
1070
140
1040
0.13
1070
41
1040
0.09
1002
}
  0
DIMENSION
  5
9B
330
17
100
AcDbEntity
  8
COTAS
100
AcDbDimension
280
0
  2
*D6
  3
Standard
 10
661.35
 20
-18.0
 30
0.0
 11
661.35
 21
-18.5
 31
0.0
 70
32
 71
5
  1
<>
100
AcDbAlignedDimension
 13
661.0
 23
-18.0
 33
0.0
 14
661.0
 24
-19.0
 34
0.0
 50
90.0
100
AcDbRotatedDimension
1001
ACAD
1000
DSTYLE
1002
{
1070
140
1040
0.13
1070
41
1040
0.09
1002
}
  0
TEXT
  5
AB
330
17
100
AcDbEntity
  8
TEXTOS
100
AcDbText
 10
656.8
 20
-16.5
 30
0.0
 40
0.08
  1
VASO NOMINAL 7,00 x 3,00
100
AcDbText
  0
TEXT
  5
AC
330
17
100
AcDbEntity
  8
TEXTOS
100
AcDbText
 10
659.15
 20
-16.5
 30
0.0
 40
0.06999999999999999
  1
PLAYA
100
AcDbText
  0
TEXT
  5
AD
330
17
100
AcDbEntity
  8
TEXTOS
100
AcDbText
 10
653.6
 20
-18.5
 30
0.0
 40
0.065
  1
ESCALONES
100
AcDbText
  0
LINE
  5
AE
330
17
100
AcDbEntity
  8
VISTA
100
AcDbLine
 10
692.9989255000814
 20
0.0016065000964560025
 30
0.0
 11
692.998682
 21
0.001318
 31
0.0
  0
LINE
  5
AF
330
17
100
AcDbEntity
  8
VISTA
100
AcDbLine
 10
692.999169
 20
0.001895
 30
0.0
 11
692.9989255000814
 21
0.0016065000964560025
 31
0.0
  0
LINE
  5
B0
330
17
100
AcDbEntity
  8
VISTA
100
AcDbLine
 10
692.9995845001389
 20
0.0031975004354729405
 30
0.0
 11
692.999169
 21
0.001895
 31
0.0
  0
LINE
  5
B1
330
17
100
AcDbEntity
  8
VISTA
100
AcDbLine
 10
693.0
 20
0.0045
 30
0.0
 11
692.9995845001389
 21
0.0031975004354729405
 31
0.0
  0
LINE
  5
B2
330
17
100
AcDbEntity
  8
VISTA
100
AcDbLine
 10
693.0
 20
0.045000013540617355
 30
0.0
 11
693.0
 21
0.04500001354061735
 31
0.0
  0
LINE
  5
B3
330
17
100
AcDbEntity
  8
VISTA
100
AcDbLine
 10
693.0
 20
0.04500001354061735
 30
0.0
 11
693.0
 21
0.0045
 31
0.0
  0
LINE
  5
B4
330
17
100
AcDbEntity
  8
VISTA
100
AcDbLine
 10
693.0
 20
0.0855
 30
0.0
 11
693.0
 21
0.045000013540617355
 31
0.0
  0
LINE
  5
B5
330
17
100
AcDbEntity
  8
VISTA
100
AcDbLine
 10
692.999584499861
 20
0.08680250043547294
 30
0.0
 11
693.0
 21
0.0855
 31
0.0
  0
LINE
  5
B6
330
17
100
AcDbEntity
  8
VISTA
100
AcDbLine
 10
692.999169
 20
0.088105
 30
0.0
 11
692.999584499861
 21
0.08680250043547294
 31
0.0
  0
LINE
  5
B7
330
17
100
AcDbEntity
  8
VISTA
100
AcDbLine
 10
692.9989254999186
 20
0.088393500096456
 30
0.0
 11
692.999169
 21
0.088105
 31
0.0
  0
LINE
  5
B8
330
17
100
AcDbEntity
  8
VISTA
100
AcDbLine
 10
692.998682
 20
0.088682
 30
0.0
 11
692.9989254999186
 21
0.088393500096456
 31
0.0
  0
LINE
  5
B9
330
17
100
AcDbEntity
  8
VISTA
100
AcDbLine
 10
692.5000001656636
 20
0.0
 30
0.0
 11
692.5
 21
0.0
 31
0.0
  0
LINE
  5
BA
330
17
100
AcDbEntity
  8
VISTA
100
AcDbLine
 10
692.5000001656636
 20
0.0
 30
0.0
 11
692.9955
 21
0.0
 31
0.0
  0
LINE
  5
BB
330
17
100
AcDbEntity
  8
VISTA
100
AcDbLine
 10
692.9968025004355
 20
0.00041550013891670395
 30
0.0
 11
692.9955
 21
0.0
 31
0.0
  0
LINE
  5
BC
330
17
100
AcDbEntity
  8
VISTA
100
AcDbLine
 10
692.9968025004355
 20
0.00041550013891670395
 30
0.0
 11
692.998105
 21
0.000831
 31
0.0
  0
LINE
  5
BD
330
17
100
AcDbEntity
  8
VISTA
100
AcDbLine
 10
692.9983935000964
 20
0.0010745000814108723
 30
0.0
 11
692.998105
 21
0.000831
 31
0.0
  0
LINE
  5
BE
330
17
100
AcDbEntity
  8
VISTA
100
AcDbLine
 10
692.9983935000964
 20
0.0010745000814108723
 30
0.0
 11
692.998682
 21
0.001318
 31
0.0
  0
LINE
  5
BF
330
17
100
AcDbEntity
  8
VISTA
100
AcDbLine
 10
692.5
 20
0.09
 30
0.0
 11
692.5000001656636
 21
0.09
 31
0.0
  0
LINE
  5
C0
330
17
100
AcDbEntity
  8
VISTA
100
AcDbLine
 10
692.9955
 20
0.09
 30
0.0
 11
692.5000001656636
 21
0.09
 31
0.0
  0
LINE
  5
C1
330
17
100
AcDbEntity
  8
VISTA
100
AcDbLine
 10
692.9955
 20
0.09
 30
0.0
 11
692.9968025004355
 21
0.0895844998610833
 31
0.0
  0
LINE
  5
C2
330
17
100
AcDbEntity
  8
VISTA
100
AcDbLine
 10
692.998105
 20
0.089169
 30
0.0
 11
692.9968025004355
 21
0.0895844998610833
 31
0.0
  0
LINE
  5
C3
330
17
100
AcDbEntity
  8
VISTA
100
AcDbLine
 10
692.998105
 20
0.089169
 30
0.0
 11
692.9983935000964
 21
0.08892549991858913
 31
0.0
  0
LINE
  5
C4
330
17
100
AcDbEntity
  8
VISTA
100
AcDbLine
 10
692.998682
 20
0.088682
 30
0.0
 11
692.9983935000964
 21
0.08892549991858913
 31
0.0
  0
LINE
  5
C5
330
17
100
AcDbEntity
  8
VISTA
100
AcDbLine
 10
700.001318
 20
0.001318
 30
0.0
 11
700.0010749999187
 21
0.0016065000964560025
 31
0.0
  0
LINE
  5
C6
330
17
100
AcDbEntity
  8
VISTA
100
AcDbLine
 10
700.0010749999187
 20
0.0016065000964560025
 30
0.0
 11
700.000832
 21
0.001895
 31
0.0
  0
LINE
  5
C7
330
17
100
AcDbEntity
  8
VISTA
100
AcDbLine
 10
700.000832
 20
0.001895
 30
0.0
 11
700.0004159998609
 21
0.0031975004354729405
 31
0.0
  0
LINE
  5
C8
330
17
100
AcDbEntity
  8
VISTA
100
AcDbLine
 10
700.0004159998609
 20
0.0031975004354729405
 30
0.0
 11
700.0
 21
0.0045
 31
0.0
  0
LINE
  5
C9
330
17
100
AcDbEntity
  8
VISTA
100
AcDbLine
 10
700.0
 20
0.0045
 30
0.0
 11
700.0
 21
0.04500001354061735
 31
0.0
  0
LINE
  5
CA
330
17
100
AcDbEntity
  8
VISTA
100
AcDbLine
 10
700.0
 20
0.045000013540617355
 30
0.0
 11
700.0
 21
0.0855
 31
0.0
  0
LINE
  5
CB
330
17
100
AcDbEntity
  8
VISTA
100
AcDbLine
 10
700.0
 20
0.0855
 30
0.0
 11
700.0004160001391
 21
0.08680250043547294
 31
0.0
  0
LINE
  5
CC
330
17
100
AcDbEntity
  8
VISTA
100
AcDbLine
 10
700.0004160001391
 20
0.08680250043547294
 30
0.0
 11
700.000832
 21
0.088105
 31
0.0
  0
LINE
  5
CD
330
17
100
AcDbEntity
  8
VISTA
100
AcDbLine
 10
700.000832
 20
0.088105
 30
0.0
 11
700.0010750000813
 21
0.088393500096456
 31
0.0
  0
LINE
  5
CE
330
17
100
AcDbEntity
  8
VISTA
100
AcDbLine
 10
700.0010750000813
 20
0.088393500096456
 30
0.0
 11
700.001318
 21
0.088682
 31
0.0
  0
LINE
  5
CF
330
17
100
AcDbEntity
  8
VISTA
100
AcDbLine
 10
700.0016060000963
 20
0.0010744999185891278
 30
0.0
 11
700.001318
 21
0.001318
 31
0.0
  0
LINE
  5
D0
330
17
100
AcDbEntity
  8
VISTA
100
AcDbLine
 10
700.0016060000963
 20
0.0010744999185891278
 30
0.0
 11
700.001894
 21
0.000831
 31
0.0
  0
LINE
  5
D1
330
17
100
AcDbEntity
  8
VISTA
100
AcDbLine
 10
700.0031965004355
 20
0.0004154998610832961
 30
0.0
 11
700.001894
 21
0.000831
 31
0.0
  0
LINE
  5
D2
330
17
100
AcDbEntity
  8
VISTA
100
AcDbLine
 10
700.0031965004355
 20
0.0004154998610832961
 30
0.0
 11
700.004499
 21
0.0
 31
0.0
  0
LINE
  5
D3
330
17
100
AcDbEntity
  8
VISTA
100
AcDbLine
 10
700.5
 20
0.0
 30
0.0
 11
700.004499
 21
0.0
 31
0.0
  0
LINE
  5
D4
330
17
100
AcDbEntity
  8
VISTA
100
AcDbLine
 10
700.001318
 20
0.088682
 30
0.0
 11
700.0016060000963
 21
0.08892550008141087
 31
0.0
  0
LINE
  5
D5
330
17
100
AcDbEntity
  8
VISTA
100
AcDbLine
 10
700.001894
 20
0.089169
 30
0.0
 11
700.0016060000963
 21
0.08892550008141087
 31
0.0
  0
LINE
  5
D6
330
17
100
AcDbEntity
  8
VISTA
100
AcDbLine
 10
700.001894
 20
0.089169
 30
0.0
 11
700.0031965004355
 21
0.0895845001389167
 31
0.0
  0
LINE
  5
D7
330
17
100
AcDbEntity
  8
VISTA
100
AcDbLine
 10
700.004499
 20
0.09
 30
0.0
 11
700.0031965004355
 21
0.0895845001389167
 31
0.0
  0
LINE
  5
D8
330
17
100
AcDbEntity
  8
VISTA
100
AcDbLine
 10
700.004499
 20
0.09
 30
0.0
 11
700.5
 21
0.09
 31
0.0
  0
LWPOLYLINE
  5
D9
330
17
100
AcDbEntity
  8
VISTA
100
AcDbPolyline
 90
41
 70
1
 10
693.0010744999186
 20
-1.569871499992143
 10
693.000831
 20
-1.569848
 10
693.0004154998611
 20
-1.569743999965229
 10
693.0
 20
-1.56964
 10
693.0
 20
-1.4799999700301003
 10
693.0
 20
-1.39036
 10
693.000415500139
 20
-1.390255999965229
 10
693.000831
 20
-1.390152
 10
693.0010745000814
 20
-1.390128499992143
 10
693.001318
 20
-1.390105
 10
693.0016065000965
 20
-1.3900859999936475
 10
693.001895
 20
-1.390067
 10
693.0031975004355
 20
-1.3900334999887995
 10
693.0045
 20
-1.39
 10
696.5000016686724
 20
-1.39
 10
699.995501
 20
-1.39
 10
699.9968025004351
 20
-1.3900335000112003
 10
699.998104
 20
-1.390067
 10
699.9983930000966
 20
-1.3900860000063524
 10
699.998682
 20
-1.390105
 10
699.9989249999187
 20
-1.390128499992143
 10
699.999168
 20
-1.390152
 10
699.9995839998609
 20
-1.390255999965229
 10
700.0
 20
-1.39036
 10
700.0
 20
-1.4799999700301003
 10
700.0
 20
-1.56964
 10
699.9995840001391
 20
-1.569743999965229
 10
699.999168
 20
-1.569848
 10
699.9989250000813
 20
-1.569871499992143
 10
699.998682
 20
-1.569895
 10
699.9983930000966
 20
-1.5699144999934804
 10
699.998104
 20
-1.569934
 10
699.9968025004351
 20
-1.569966999988967
 10
699.995501
 20
-1.57
 10
696.5000016686724
 20
-1.57
 10
693.0045
 20
-1.57
 10
693.0031975004355
 20
-1.569967000011033
 10
693.001895
 20
-1.569934
 10
693.0016065000965
 20
-1.5699145000065196
 10
693.001318
 20
-1.569895
 10
693.0010744999186
 20
-1.569871499992143
  0
LWPOLYLINE
  5
DA
330
17
100
AcDbEntity
  8
VISTA
100
AcDbPolyline
 90
41
 70
1
 10
693.0010749999187
 20
-1.3876064998564026
 10
693.000832
 20
-1.387177
 10
693.0004159998609
 20
-1.3852364993512207
 10
693.0
 20
-1.383296
 10
693.0
 20
-0.6599997581759416
 10
693.0
 20
0.063296
 10
693.0004160001391
 20
0.06523650064877946
 10
693.000832
 20
0.067177
 10
693.0010750000813
 20
0.06760650014359741
 10
693.001318
 20
0.068036
 10
693.0016065000965
 20
0.06839900012136406
 10
693.001895
 20
0.068762
 10
693.0031975004355
 20
0.06938100020695413
 10
693.0045
 20
0.07
 10
693.0600000185557
 20
0.07
 10
693.1155
 20
0.07
 10
693.1168030004357
 20
0.06938099979304588
 10
693.118106
 20
0.068762
 10
693.1183945000964
 20
0.06839899987863594
 10
693.118683
 20
0.068036
 10
693.1189259999187
 20
0.06760650014359741
 10
693.119169
 20
0.067177
 10
693.1195849998609
 20
0.06523650064877946
 10
693.120001
 20
0.063296
 10
693.120001
 20
-0.6599997581759416
 10
693.120001
 20
-1.383296
 10
693.1195850001391
 20
-1.3852364993512207
 10
693.119169
 20
-1.387177
 10
693.1189260000813
 20
-1.3876064998564026
 10
693.118683
 20
-1.388036
 10
693.1183945000964
 20
-1.388398999878636
 10
693.118106
 20
-1.388762
 10
693.1168030004357
 20
-1.3893809997930457
 10
693.1155
 20
-1.39
 10
693.0600000185557
 20
-1.39
 10
693.0045
 20
-1.39
 10
693.0031975004355
 20
-1.3893810002069542
 10
693.001895
 20
-1.388762
 10
693.0016065000965
 20
-1.3883990001213642
 10
693.001318
 20
-1.388036
 10
693.0010749999187
 20
-1.3876064998564026
  0
LWPOLYLINE
  5
DB
330
17
100
AcDbEntity
  8
VISTA
100
AcDbPolyline
 90
41
 70
1
 10
699.8810749999184
 20
-1.3876064998564026
 10
699.880831
 20
-1.387177
 10
699.8804159998613
 20
-1.3852364993512207
 10
699.880001
 20
-1.383296
 10
699.880001
 20
-0.6599997581759416
 10
699.880001
 20
0.063296
 10
699.8804160001388
 20
0.06523650064877946
 10
699.880831
 20
0.067177
 10
699.8810750000816
 20
0.06760650014359741
 10
699.881319
 20
0.068036
 10
699.8816070000963
 20
0.06839900012136406
 10
699.881895
 20
0.068762
 10
699.8831980004356
 20
0.06938100020695413
 10
699.884501
 20
0.07
 10
699.9400010185557
 20
0.07
 10
699.995501
 20
0.07
 10
699.9968035004355
 20
0.06938099979304588
 10
699.998106
 20
0.068762
 10
699.9983940000963
 20
0.06839899987863594
 10
699.998682
 20
0.068036
 10
699.9989259999185
 20
0.06760650014359741
 10
699.99917
 20
0.067177
 10
699.9995849998612
 20
0.06523650064877946
 10
700.0
 20
0.063296
 10
700.0
 20
-0.6599997581759416
 10
700.0
 20
-1.383296
 10
699.9995850001387
 20
-1.3852364993512207
 10
699.99917
 20
-1.387177
 10
699.9989260000816
 20
-1.3876064998564026
 10
699.998682
 20
-1.388036
 10
699.9983940000963
 20
-1.388398999878636
 10
699.998106
 20
-1.388762
 10
699.9968035004355
 20
-1.3893809997930457
 10
699.995501
 20
-1.39
 10
699.9400010185557
 20
-1.39
 10
699.884501
 20
-1.39
 10
699.8831980004356
 20
-1.3893810002069542
 10
699.881895
 20
-1.388762
 10
699.8816070000963
 20
-1.3883990001213642
 10
699.881319
 20
-1.388036
 10
699.8810749999184
 20
-1.3876064998564026
  0
LWPOLYLINE
  5
DC
330
17
100
AcDbEntity
  8
VISTA
100
AcDbPolyline
 90
9
 70
1
 10
698.709999
 20
-0.165
 10
698.709999
 20
-0.19048543689320388
 10
698.709999
 20
-0.215
 10
698.6609708543689
 20
-0.215
 10
698.610001
 20
-0.215
 10
698.610001
 20
-0.18951456310679612
 10
698.610001
 20
-0.165
 10
698.659029145631
 20
-0.165
 10
698.709999
 20
-0.165
  0
LINE
  5
DD
330
17
100
AcDbEntity
  8
CORTE
100
AcDbLine
 10
698.635
 20
-0.105
 30
0.0
 11
698.6197201283738
 21
-0.105
 31
0.0
  0
LINE
  5
DE
330
17
100
AcDbEntity
  8
CORTE
100
AcDbLine
 10
698.6197201283738
 20
-0.105
 30
0.0
 11
698.605001
 21
-0.105
 31
0.0
  0
LINE
  5
DF
330
17
100
AcDbEntity
  8
CORTE
100
AcDbLine
 10
698.635
 20
-0.135
 30
0.0
 11
698.6202808716262
 21
-0.135
 31
0.0
  0
LINE
  5
E0
330
17
100
AcDbEntity
  8
CORTE
100
AcDbLine
 10
698.6202808716262
 20
-0.135
 30
0.0
 11
698.605001
 21
-0.135
 31
0.0
  0
LINE
  5
E1
330
17
100
AcDbEntity
  8
CORTE
100
AcDbLine
 10
698.635
 20
-0.135
 30
0.0
 11
698.635
 21
-0.12028038097214065
 31
0.0
  0
LINE
  5
E2
330
17
100
AcDbEntity
  8
CORTE
100
AcDbLine
 10
698.635
 20
-0.12028038097214064
 30
0.0
 11
698.635
 21
-0.105
 31
0.0
  0
LINE
  5
E3
330
17
100
AcDbEntity
  8
CORTE
100
AcDbLine
 10
698.605001
 20
-0.135
 30
0.0
 11
698.605001
 21
-0.11971961902785935
 31
0.0
  0
LINE
  5
E4
330
17
100
AcDbEntity
  8
CORTE
100
AcDbLine
 10
698.605001
 20
-0.11971961902785935
 30
0.0
 11
698.605001
 21
-0.105
 31
0.0
  0
LWPOLYLINE
  5
E5
330
17
100
AcDbEntity
  8
VISTA
100
AcDbPolyline
 90
41
 70
1
 10
698.4410744999108
 20
-0.3983934998947465
 10
698.44083
 20
-0.398105
 10
698.4404154998488
 20
-0.3968024995248086
 10
698.440001
 20
-0.3955
 10
698.440001
 20
-0.23999994326890062
 10
698.440001
 20
-0.0845
 10
698.4404155001512
 20
-0.08319749952480864
 10
698.44083
 20
-0.081895
 10
698.4410745000891
 20
-0.08160649989474648
 10
698.441319
 20
-0.081318
 10
698.441607000105
 20
-0.08107449991116385
 10
698.441895
 20
-0.080831
 10
698.4431975004752
 20
-0.08041549984841305
 10
698.4445
 20
-0.08
 10
699.160000261036
 20
-0.08
 10
699.8755
 20
-0.08
 10
699.8768025004752
 20
-0.08041550015158695
 10
699.878105
 20
-0.080831
 10
699.8783930001051
 20
-0.08107450008883615
 10
699.878681
 20
-0.081318
 10
699.878924999911
 20
-0.08160649989474648
 10
699.879169
 20
-0.081895
 10
699.8795839998486
 20
-0.08319749952480864
 10
699.879999
 20
-0.0845
 10
699.879999
 20
-0.23999994326890062
 10
699.879999
 20
-0.3955
 10
699.8795840001515
 20
-0.3968024995248086
 10
699.879169
 20
-0.398105
 10
699.878925000089
 20
-0.3983934998947465
 10
699.878681
 20
-0.398682
 10
699.8783930001051
 20
-0.39892549991116383
 10
699.878105
 20
-0.399169
 10
699.8768025004752
 20
-0.39958449984841304
 10
699.8755
 20
-0.4
 10
699.160000261036
 20
-0.4
 10
698.4445
 20
-0.4
 10
698.4431975004752
 20
-0.399584500151587
 10
698.441895
 20
-0.399169
 10
698.441607000105
 20
-0.39892550008883615
 10
698.441319
 20
-0.398682
 10
698.4410744999108
 20
-0.3983934998947465
  0
LWPOLYLINE
  5
E6
330
17
100
AcDbEntity
  8
VISTA
100
AcDbPolyline
 90
41
 70
1
 10
698.016074
 20
-0.5483935
 10
698.015831
 20
-0.548105
 10
698.015415
 20
-0.5468025
 10
698.014999
 20
-0.5455
 10
698.014999
 20
-0.43
 10
698.014999
 20
-0.3145
 10
698.015415
 20
-0.3131975
 10
698.015831
 20
-0.311895
 10
698.016074
 20
-0.3116065
 10
698.016317
 20
-0.311318
 10
698.016606
 20
-0.31107450000000003
 10
698.016895
 20
-0.310831
 10
698.018197
 20
-0.3104155
 10
698.019499
 20
-0.31
 10
698.2299995
 20
-0.31
 10
698.4405
 20
-0.31
 10
698.441802
 20
-0.3104155
 10
698.443104
 20
-0.310831
 10
698.443393
 20
-0.31107450000000003
 10
698.443682
 20
-0.311318
 10
698.443925
 20
-0.3116065
 10
698.444168
 20
-0.311895
 10
698.444584
 20
-0.3131975
 10
698.445
 20
-0.3145
 10
698.445
 20
-0.43
 10
698.445
 20
-0.5455
 10
698.444584
 20
-0.5468025
 10
698.444168
 20
-0.548105
 10
698.443925
 20
-0.5483935
 10
698.443682
 20
-0.548682
 10
698.443393
 20
-0.5489255
 10
698.443104
 20
-0.549169
 10
698.441802
 20
-0.5495845
 10
698.4405
 20
-0.55
 10
698.2299995
 20
-0.55
 10
698.019499
 20
-0.55
 10
698.018197
 20
-0.5495845
 10
698.016895
 20
-0.549169
 10
698.016606
 20
-0.5489255
 10
698.016317
 20
-0.548682
 10
698.016074
 20
-0.5483935
  0
TEXT
  5
E7
330
17
100
AcDbEntity
  8
TEXTOS
100
AcDbText
 10
693.3
 20
-1.2899999999999998
 30
0.0
 40
0.13
  1
Fondo -1,39
100
AcDbText
  0
TEXT
  5
E8
330
17
100
AcDbEntity
  8
TEXTOS
100
AcDbText
 10
698.8
 20
0.020000000000000004
 30
0.0
 40
0.13
  1
Playa -0,08
100
AcDbText
  0
ENDSEC
  0
SECTION
  2
OBJECTS
  0
DICTIONARY
  5
A
330
0
100
AcDbDictionary
281
1
  3
ACAD_COLOR
350
B
  3
ACAD_GROUP
350
C
  3
ACAD_LAYOUT
350
D
  3
ACAD_MATERIAL
350
E
  3
ACAD_MLEADERSTYLE
350
F
  3
ACAD_MLINESTYLE
350
10
  3
ACAD_PLOTSETTINGS
350
11
  3
ACAD_PLOTSTYLENAME
350
12
  3
ACAD_SCALELIST
350
14
  3
ACAD_TABLESTYLE
350
15
  3
ACAD_VISUALSTYLE
350
16
  3
EZDXF_META
350
2D
  0
DICTIONARY
  5
B
330
A
100
AcDbDictionary
281
1
  0
DICTIONARY
  5
C
330
A
100
AcDbDictionary
281
1
  0
DICTIONARY
  5
D
330
A
100
AcDbDictionary
281
1
  3
Model
350
1A
  3
Layout1
350
1E
  0
DICTIONARY
  5
E
330
A
100
AcDbDictionary
281
1
  3
ByBlock
350
1F
  3
ByLayer
350
20
  3
Global
350
21
  0
DICTIONARY
  5
F
330
A
100
AcDbDictionary
281
1
  3
Standard
350
2C
  0
DICTIONARY
  5
10
330
A
100
AcDbDictionary
281
1
  3
Standard
350
22
  0
DICTIONARY
  5
11
330
A
100
AcDbDictionary
281
1
  0
ACDBDICTIONARYWDFLT
  5
12
330
A
100
AcDbDictionary
281
1
  3
Normal
350
13
100
AcDbDictionaryWithDefault
340
13
  0
ACDBPLACEHOLDER
  5
13
330
12
  0
DICTIONARY
  5
14
330
A
100
AcDbDictionary
281
1
  0
DICTIONARY
  5
15
330
A
100
AcDbDictionary
281
1
  0
DICTIONARY
  5
16
330
A
100
AcDbDictionary
281
1
  0
LAYOUT
  5
1A
330
D
100
AcDbPlotSettings
  1

  4
A3
  6

 40
7.5
 41
20.0
 42
7.5
 43
20.0
 44
420.0
 45
297.0
 46
0.0
 47
0.0
 48
0.0
 49
0.0
140
0.0
141
0.0
142
1.0
143
1.0
 70
1024
 72
1
 73
0
 74
5
  7

 75
16
 76
0
 77
2
 78
300
147
1.0
148
0.0
149
0.0
100
AcDbLayout
  1
Model
 70
1
 71
0
 10
0.0
 20
0.0
 11
420.0
 21
297.0
 12
0.0
 22
0.0
 32
0.0
 14
1e+20
 24
1e+20
 34
1e+20
 15
-1e+20
 25
-1e+20
 35
-1e+20
146
0.0
 13
0.0
 23
0.0
 33
0.0
 16
1.0
 26
0.0
 36
0.0
 17
0.0
 27
1.0
 37
0.0
 76
1
330
17
  0
LAYOUT
  5
1E
330
D
100
AcDbPlotSettings
  1

  4
A3
  6

 40
7.5
 41
20.0
 42
7.5
 43
20.0
 44
420.0
 45
297.0
 46
0.0
 47
0.0
 48
0.0
 49
0.0
140
0.0
141
0.0
142
1.0
143
1.0
 70
0
 72
1
 73
0
 74
5
  7

 75
16
 76
0
 77
2
 78
300
147
1.0
148
0.0
149
0.0
100
AcDbLayout
  1
Layout1
 70
1
 71
1
 10
0.0
 20
0.0
 11
420.0
 21
297.0
 12
0.0
 22
0.0
 32
0.0
 14
1e+20
 24
1e+20
 34
1e+20
 15
-1e+20
 25
-1e+20
 35
-1e+20
146
0.0
 13
0.0
 23
0.0
 33
0.0
 16
1.0
 26
0.0
 36
0.0
 17
0.0
 27
1.0
 37
0.0
 76
1
330
1B
  0
MATERIAL
  5
1F
102
{ACAD_REACTORS
330
E
102
}
330
E
100
AcDbMaterial
  1
ByBlock
  2

 70
0
 40
1.0
 71
1
 41
1.0
 91
-1023410177
 42
1.0
 72
1
  3

 73
1
 74
1
 75
1
 44
0.5
 73
0
 45
1.0
 46
1.0
 77
1
  4

 78
1
 79
1
170
1
 48
1.0
171
1
  6

172
1
173
1
174
1
140
1.0
141
1.0
175
1
  7

176
1
177
1
178
1
143
1.0
179
1
  8

270
1
271
1
272
1
145
1.0
146
1.0
273
1
  9

274
1
275
1
276
1
 42
1.0
 72
1
  3

 73
1
 74
1
 75
1
 94
63
  0
MATERIAL
  5
20
102
{ACAD_REACTORS
330
E
102
}
330
E
100
AcDbMaterial
  1
ByLayer
  2

 70
0
 40
1.0
 71
1
 41
1.0
 91
-1023410177
 42
1.0
 72
1
  3

 73
1
 74
1
 75
1
 44
0.5
 73
0
 45
1.0
 46
1.0
 77
1
  4

 78
1
 79
1
170
1
 48
1.0
171
1
  6

172
1
173
1
174
1
140
1.0
141
1.0
175
1
  7

176
1
177
1
178
1
143
1.0
179
1
  8

270
1
271
1
272
1
145
1.0
146
1.0
273
1
  9

274
1
275
1
276
1
 42
1.0
 72
1
  3

 73
1
 74
1
 75
1
 94
63
  0
MATERIAL
  5
21
102
{ACAD_REACTORS
330
E
102
}
330
E
100
AcDbMaterial
  1
Global
  2

 70
0
 40
1.0
 71
1
 41
1.0
 91
-1023410177
 42
1.0
 72
1
  3

 73
1
 74
1
 75
1
 44
0.5
 73
0
 45
1.0
 46
1.0
 77
1
  4

 78
1
 79
1
170
1
 48
1.0
171
1
  6

172
1
173
1
174
1
140
1.0
141
1.0
175
1
  7

176
1
177
1
178
1
143
1.0
179
1
  8

270
1
271
1
272
1
145
1.0
146
1.0
273
1
  9

274
1
275
1
276
1
 42
1.0
 72
1
  3

 73
1
 74
1
 75
1
 94
63
  0
MLINESTYLE
  5
22
102
{ACAD_REACTORS
330
10
102
}
330
10
100
AcDbMlineStyle
  2
Standard
 70
0
  3

 62
256
 51
90.0
 52
90.0
 71
2
 49
0.5
 62
256
  6
BYLAYER
 49
-0.5
 62
256
  6
BYLAYER
  0
MLEADERSTYLE
  5
2C
102
{ACAD_REACTORS
330
F
102
}
330
F
100
AcDbMLeaderStyle
179
2
170
2
171
1
172
0
 90
2
 40
0.0
 41
0.0
173
1
 91
-1056964608
 92
-2
290
1
 42
2.0
291
1
 43
8.0
  3
Standard
 44
4.0
300

342
29
174
1
175
1
176
0
178
1
 93
-1056964608
 45
4.0
292
0
297
0
 46
4.0
 94
-1056964608
 47
1.0
 49
1.0
140
1.0
294
1
141
0.0
177
0
142
1.0
295
0
296
0
143
3.75
271
0
272
9
273
9
  0
DICTIONARY
  5
2D
330
A
100
AcDbDictionary
280
1
281
1
  3
CREATED_BY_EZDXF
350
2E
  3
WRITTEN_BY_EZDXF
350
EB
  0
DICTIONARYVAR
  5
2E
330
2D
100
DictionaryVariables
280
0
  1
1.4.4 @ 2026-09-11T04:45:56.632571+00:00
  0
DICTIONARYVAR
  5
EB
330
2D
100
DictionaryVariables
280
0
  1
1.4.4 @ 2026-09-11T04:45:56.960322+00:00
  0
ENDSEC
  0
EOF
