  0
SECTION
  2
HEADER
  9
$ACADVER
  1
AC1024
  9
$ACADMAINTVER
 70
6
  9
$DWGCODEPAGE
  3
ANSI_1252
  9
$LASTSAVEDBY
  1
ezdxf
  9
$INSBASE
 10
0.0
 20
0.0
 30
0.0
  9
$EXTMIN
 10
1e+20
 20
1e+20
 30
1e+20
  9
$EXTMAX
 10
-1e+20
 20
-1e+20
 30
-1e+20
  9
$LIMMIN
 10
0.0
 20
0.0
  9
$LIMMAX
 10
420.0
 20
297.0
  9
$ORTHOMODE
 70
0
  9
$REGENMODE
 70
1
  9
$FILLMODE
 70
1
  9
$QTEXTMODE
 70
0
  9
$MIRRTEXT
 70
1
  9
$LTSCALE
 40
1.0
  9
$ATTMODE
 70
1
  9
$TEXTSIZE
 40
2.5
  9
$TRACEWID
 40
1.0
  9
$TEXTSTYLE
  7
Standard
  9
$CLAYER
  8
0
  9
$CELTYPE
  6
ByLayer
  9
$CECOLOR
 62
256
  9
$CELTSCALE
 40
1.0
  9
$DISPSILH
 70
0
  9
$DIMSCALE
 40
1.0
  9
$DIMASZ
 40
2.5
  9
$DIMEXO
 40
0.625
  9
$DIMDLI
 40
3.75
  9
$DIMRND
 40
0.0
  9
$DIMDLE
 40
0.0
  9
$DIMEXE
 40
1.25
  9
$DIMTP
 40
0.0
  9
$DIMTM
 40
0.0
  9
$DIMTXT
 40
2.5
  9
$DIMCEN
 40
2.5
  9
$DIMTSZ
 40
0.0
  9
$DIMTOL
 70
0
  9
$DIMLIM
 70
0
  9
$DIMTIH
 70
0
  9
$DIMTOH
 70
0
  9
$DIMSE1
 70
0
  9
$DIMSE2
 70
0
  9
$DIMTAD
 70
1
  9
$DIMZIN
 70
8
  9
$DIMBLK
  1

  9
$DIMASO
 70
1
  9
$DIMSHO
 70
1
  9
$DIMPOST
  1

  9
$DIMAPOST
  1

  9
$DIMALT
 70
0
  9
$DIMALTD
 70
3
  9
$DIMALTF
 40
0.03937007874
  9
$DIMLFAC
 40
1.0
  9
$DIMTOFL
 70
1
  9
$DIMTVP
 40
0.0
  9
$DIMTIX
 70
0
  9
$DIMSOXD
 70
0
  9
$DIMSAH
 70
0
  9
$DIMBLK1
  1

  9
$DIMBLK2
  1

  9
$DIMSTYLE
  2
ISO-25
  9
$DIMCLRD
 70
0
  9
$DIMCLRE
 70
0
  9
$DIMCLRT
 70
0
  9
$DIMTFAC
 40
1.0
  9
$DIMGAP
 40
0.625
  9
$DIMJUST
 70
0
  9
$DIMSD1
 70
0
  9
$DIMSD2
 70
0
  9
$DIMTOLJ
 70
0
  9
$DIMTZIN
 70
8
  9
$DIMALTZ
 70
0
  9
$DIMALTTZ
 70
0
  9
$DIMUPT
 70
0
  9
$DIMDEC
 70
2
  9
$DIMTDEC
 70
2
  9
$DIMALTU
 70
2
  9
$DIMALTTD
 70
3
  9
$DIMTXSTY
  7
Standard
  9
$DIMAUNIT
 70
0
  9
$DIMADEC
 70
0
  9
$DIMALTRND
 40
0.0
  9
$DIMAZIN
 70
0
  9
$DIMDSEP
 70
44
  9
$DIMATFIT
 70
3
  9
$DIMFRAC
 70
0
  9
$DIMLDRBLK
  1

  9
$DIMLUNIT
 70
2
  9
$DIMLWD
 70
-2
  9
$DIMLWE
 70
-2
  9
$DIMTMOVE
 70
0
  9
$DIMFXL
 40
1.0
  9
$DIMFXLON
 70
0
  9
$DIMJOGANG
 40
0.785398163397
  9
$DIMTFILL
 70
0
  9
$DIMTFILLCLR
 70
0
  9
$DIMARCSYM
 70
0
  9
$DIMLTYPE
  6

  9
$DIMLTEX1
  6

  9
$DIMLTEX2
  6

  9
$DIMTXTDIRECTION
 70
0
  9
$LUNITS
 70
2
  9
$LUPREC
 70
4
  9
$SKETCHINC
 40
1.0
  9
$FILLETRAD
 40
10.0
  9
$AUNITS
 70
0
  9
$AUPREC
 70
2
  9
$MENU
  1
.
  9
$ELEVATION
 40
0.0
  9
$PELEVATION
 40
0.0
  9
$THICKNESS
 40
0.0
  9
$LIMCHECK
 70
0
  9
$CHAMFERA
 40
0.0
  9
$CHAMFERB
 40
0.0
  9
$CHAMFERC
 40
0.0
  9
$CHAMFERD
 40
0.0
  9
$SKPOLY
 70
0
  9
$TDCREATE
 40
2461295.0736574074
  9
$TDUCREATE
 40
2458532.153996898
  9
$TDUPDATE
 40
2461295.0736574074
  9
$TDUUPDATE
 40
2458532.1544311
  9
$TDINDWG
 40
0.0
  9
$TDUSRTIMER
 40
0.0
  9
$USRTIMER
 70
1
  9
$ANGBASE
 50
0.0
  9
$ANGDIR
 70
0
  9
$PDMODE
 70
0
  9
$PDSIZE
 40
0.0
  9
$PLINEWID
 40
0.0
  9
$SPLFRAME
 70
0
  9
$SPLINETYPE
 70
6
  9
$SPLINESEGS
 70
8
  9
$HANDSEED
  5
88
  9
$SURFTAB1
 70
6
  9
$SURFTAB2
 70
6
  9
$SURFTYPE
 70
6
  9
$SURFU
 70
6
  9
$SURFV
 70
6
  9
$UCSBASE
  2

  9
$UCSNAME
  2

  9
$UCSORG
 10
0.0
 20
0.0
 30
0.0
  9
$UCSXDIR
 10
1.0
 20
0.0
 30
0.0
  9
$UCSYDIR
 10
0.0
 20
1.0
 30
0.0
  9
$UCSORTHOREF
  2

  9
$UCSORTHOVIEW
 70
0
  9
$UCSORGTOP
 10
0.0
 20
0.0
 30
0.0
  9
$UCSORGBOTTOM
 10
0.0
 20
0.0
 30
0.0
  9
$UCSORGLEFT
 10
0.0
 20
0.0
 30
0.0
  9
$UCSORGRIGHT
 10
0.0
 20
0.0
 30
0.0
  9
$UCSORGFRONT
 10
0.0
 20
0.0
 30
0.0
  9
$UCSORGBACK
 10
0.0
 20
0.0
 30
0.0
  9
$PUCSBASE
  2

  9
$PUCSNAME
  2

  9
$PUCSORG
 10
0.0
 20
0.0
 30
0.0
  9
$PUCSXDIR
 10
1.0
 20
0.0
 30
0.0
  9
$PUCSYDIR
 10
0.0
 20
1.0
 30
0.0
  9
$PUCSORTHOREF
  2

  9
$PUCSORTHOVIEW
 70
0
  9
$PUCSORGTOP
 10
0.0
 20
0.0
 30
0.0
  9
$PUCSORGBOTTOM
 10
0.0
 20
0.0
 30
0.0
  9
$PUCSORGLEFT
 10
0.0
 20
0.0
 30
0.0
  9
$PUCSORGRIGHT
 10
0.0
 20
0.0
 30
0.0
  9
$PUCSORGFRONT
 10
0.0
 20
0.0
 30
0.0
  9
$PUCSORGBACK
 10
0.0
 20
0.0
 30
0.0
  9
$USERI1
 70
0
  9
$USERI2
 70
0
  9
$USERI3
 70
0
  9
$USERI4
 70
0
  9
$USERI5
 70
0
  9
$USERR1
 40
0.0
  9
$USERR2
 40
0.0
  9
$USERR3
 40
0.0
  9
$USERR4
 40
0.0
  9
$USERR5
 40
0.0
  9
$WORLDVIEW
 70
1
  9
$SHADEDGE
 70
3
  9
$SHADEDIF
 70
70
  9
$TILEMODE
 70
1
  9
$MAXACTVP
 70
64
  9
$PINSBASE
 10
0.0
 20
0.0
 30
0.0
  9
$PLIMCHECK
 70
0
  9
$PEXTMIN
 10
1e+20
 20
1e+20
 30
1e+20
  9
$PEXTMAX
 10
-1e+20
 20
-1e+20
 30
-1e+20
  9
$PLIMMIN
 10
0.0
 20
0.0
  9
$PLIMMAX
 10
420.0
 20
297.0
  9
$UNITMODE
 70
0
  9
$VISRETAIN
 70
1
  9
$PLINEGEN
 70
0
  9
$PSLTSCALE
 70
1
  9
$TREEDEPTH
 70
3020
  9
$CMLSTYLE
  2
Standard
  9
$CMLJUST
 70
0
  9
$CMLSCALE
 40
20.0
  9
$PROXYGRAPHICS
 70
1
  9
$MEASUREMENT
 70
1
  9
$CELWEIGHT
370
-1
  9
$ENDCAPS
280
0
  9
$JOINSTYLE
280
0
  9
$LWDISPLAY
290
0
  9
$INSUNITS
 70
6
  9
$HYPERLINKBASE
  1

  9
$STYLESHEET
  1

  9
$XEDIT
290
1
  9
$CEPSNTYPE
380
0
  9
$PSTYLEMODE
290
1
  9
$FINGERPRINTGUID
  2
{8BE2536C-9197-4C20-A772-802652BAD9BA}
  9
$VERSIONGUID
  2
{2BFC38B0-47D4-4E69-ACF9-C78066CA32B0}
  9
$EXTNAMES
290
1
  9
$PSVPSCALE
 40
0.0
  9
$OLESTARTUP
290
0
  9
$SORTENTS
280
127
  9
$INDEXCTL
280
0
  9
$HIDETEXT
280
1
  9
$XCLIPFRAME
280
1
  9
$HALOGAP
280
0
  9
$OBSCOLOR
 70
257
  9
$OBSLTYPE
280
0
  9
$INTERSECTIONDISPLAY
280
0
  9
$INTERSECTIONCOLOR
 70
257
  9
$DIMASSOC
280
2
  9
$PROJECTNAME
  1

  9
$CAMERADISPLAY
290
0
  9
$LENSLENGTH
 40
50.0
  9
$CAMERAHEIGHT
 40
0.0
  9
$STEPSPERSEC
 40
24.0
  9
$STEPSIZE
 40
100.0
  9
$3DDWFPREC
 40
2.0
  9
$PSOLWIDTH
 40
0.005
  9
$PSOLHEIGHT
 40
0.08
  9
$LOFTANG1
 40
1.570796326795
  9
$LOFTANG2
 40
1.570796326795
  9
$LOFTMAG1
 40
0.0
  9
$LOFTMAG2
 40
0.0
  9
$LOFTPARAM
 70
7
  9
$LOFTNORMALS
280
1
  9
$LATITUDE
 40
37.795
  9
$LONGITUDE
 40
-122.394
  9
$NORTHDIRECTION
 40
0.0
  9
$TIMEZONE
 70
-8000
  9
$LIGHTGLYPHDISPLAY
280
1
  9
$TILEMODELIGHTSYNCH
280
1
  9
$CMATERIAL
347
20
  9
$SOLIDHIST
280
0
  9
$SHOWHIST
280
1
  9
$DWFFRAME
280
2
  9
$DGNFRAME
280
2
  9
$REALWORLDSCALE
290
1
  9
$INTERFERECOLOR
 62
256
  9
$CSHADOW
280
0
  9
$SHADOWPLANELOCATION
 40
0.0
  0
ENDSEC
  0
SECTION
  2
CLASSES
  0
CLASS
  1
ACDBDICTIONARYWDFLT
  2
AcDbDictionaryWithDefault
  3
ObjectDBX Classes
 90
0
 91
0
280
0
281
0
  0
CLASS
  1
SUN
  2
AcDbSun
  3
SCENEOE
 90
1153
 91
0
280
0
281
0
  0
CLASS
  1
VISUALSTYLE
  2
AcDbVisualStyle
  3
ObjectDBX Classes
 90
4095
 91
0
280
0
281
0
  0
CLASS
  1
MATERIAL
  2
AcDbMaterial
  3
ObjectDBX Classes
 90
1153
 91
0
280
0
281
0
  0
CLASS
  1
SCALE
  2
AcDbScale
  3
ObjectDBX Classes
 90
1153
 91
0
280
0
281
0
  0
CLASS
  1
TABLESTYLE
  2
AcDbTableStyle
  3
ObjectDBX Classes
 90
4095
 91
0
280
0
281
0
  0
CLASS
  1
MLEADERSTYLE
  2
AcDbMLeaderStyle
  3
ACDB_MLEADERSTYLE_CLASS
 90
4095
 91
0
280
0
281
0
  0
CLASS
  1
DICTIONARYVAR
  2
AcDbDictionaryVar
  3
ObjectDBX Classes
 90
0
 91
0
280
0
281
0
  0
CLASS
  1
CELLSTYLEMAP
  2
AcDbCellStyleMap
  3
ObjectDBX Classes
 90
1152
 91
0
280
0
281
0
  0
CLASS
  1
MENTALRAYRENDERSETTINGS
  2
AcDbMentalRayRenderSettings
  3
SCENEOE
 90
1024
 91
0
280
0
281
0
  0
CLASS
  1
ACDBDETAILVIEWSTYLE
  2
AcDbDetailViewStyle
  3
ObjectDBX Classes
 90
1025
 91
0
280
0
281
0
  0
CLASS
  1
ACDBSECTIONVIEWSTYLE
  2
AcDbSectionViewStyle
  3
ObjectDBX Classes
 90
1025
 91
0
280
0
281
0
  0
CLASS
  1
RASTERVARIABLES
  2
AcDbRasterVariables
  3
ISM
 90
0
 91
0
280
0
281
0
  0
CLASS
  1
LAYOUT
  2
AcDbLayout
  3
ObjectDBX Classes
 90
0
 91
0
280
0
281
0
  0
CLASS
  1
ACDBPLACEHOLDER
  2
AcDbPlaceHolder
  3
ObjectDBX Classes
 90
0
 91
0
280
0
281
0
  0
ENDSEC
  0
SECTION
  2
TABLES
  0
TABLE
  2
VPORT
  5
8
330
0
100
AcDbSymbolTable
 70
1
  0
VPORT
  5
23
330
8
100
AcDbSymbolTableRecord
100
AcDbViewportTableRecord
  2
*Active
 70
0
 10
0.0
 20
0.0
 11
1.0
 21
1.0
 12
0.0
 22
0.0
 13
0.0
 23
0.0
 14
0.5
 24
0.5
 15
0.5
 25
0.5
 16
0.0
 26
0.0
 36
1.0
 17
0.0
 27
0.0
 37
0.0
 40
1000.0
 41
1.34
 42
50.0
 43
0.0
 44
0.0
 50
0.0
 51
0.0
 71
0
 72
1000
 73
1
 74
3
 75
0
 76
0
 77
0
 78
0
281
0
 65
0
146
0.0
  0
ENDTAB
  0
TABLE
  2
LTYPE
  5
2
330
0
100
AcDbSymbolTable
 70
3
  0
LTYPE
  5
24
330
2
100
AcDbSymbolTableRecord
100
AcDbLinetypeTableRecord
  2
ByBlock
 70
0
  3

 72
65
 73
0
 40
0.0
  0
LTYPE
  5
25
330
2
100
AcDbSymbolTableRecord
100
AcDbLinetypeTableRecord
  2
ByLayer
 70
0
  3

 72
65
 73
0
 40
0.0
  0
LTYPE
  5
26
330
2
100
AcDbSymbolTableRecord
100
AcDbLinetypeTableRecord
  2
Continuous
 70
0
  3

 72
65
 73
0
 40
0.0
  0
ENDTAB
  0
TABLE
  2
LAYER
  5
1
330
0
100
AcDbSymbolTable
 70
8
  0
LAYER
  5
27
330
1
100
AcDbSymbolTableRecord
100
AcDbLayerTableRecord
  2
0
 70
0
 62
7
  6
Continuous
370
-3
390
13
347
21
  0
LAYER
  5
28
330
1
100
AcDbSymbolTableRecord
100
AcDbLayerTableRecord
  2
Defpoints
 70
0
 62
7
  6
Continuous
290
0
370
-3
390
13
347
21
  0
LAYER
  5
2F
330
1
100
AcDbSymbolTableRecord
100
AcDbLayerTableRecord
  2
CORTE
 70
0
 62
7
  6
Continuous
370
-3
390
13
347
21
  0
LAYER
  5
30
330
1
100
AcDbSymbolTableRecord
100
AcDbLayerTableRecord
  2
VISTA
 70
0
 62
8
  6
Continuous
370
-3
390
13
347
21
  0
LAYER
  5
31
330
1
100
AcDbSymbolTableRecord
100
AcDbLayerTableRecord
  2
COTAS
 70
0
 62
4
  6
Continuous
370
-3
390
13
347
21
  0
LAYER
  5
32
330
1
100
AcDbSymbolTableRecord
100
AcDbLayerTableRecord
  2
TEXTOS
 70
0
 62
7
  6
Continuous
370
-3
390
13
347
21
  0
LAYER
  5
33
330
1
100
AcDbSymbolTableRecord
100
AcDbLayerTableRecord
  2
EJES
 70
0
 62
3
  6
Continuous
370
-3
390
13
347
21
  0
LAYER
  5
34
330
1
100
AcDbSymbolTableRecord
100
AcDbLayerTableRecord
  2
SISTEMAS
 70
0
 62
5
  6
Continuous
370
-3
390
13
347
21
  0
ENDTAB
  0
TABLE
  2
STYLE
  5
5
330
0
100
AcDbSymbolTable
 70
1
  0
STYLE
  5
29
330
5
100
AcDbSymbolTableRecord
100
AcDbTextStyleTableRecord
  2
Standard
 70
0
 40
0.0
 41
1.0
 50
0.0
 71
0
 42
2.5
  3
txt
  4

  0
ENDTAB
  0
TABLE
  2
VIEW
  5
7
330
0
100
AcDbSymbolTable
 70
0
  0
ENDTAB
  0
TABLE
  2
UCS
  5
6
330
0
100
AcDbSymbolTable
 70
0
  0
ENDTAB
  0
TABLE
  2
APPID
  5
3
330
0
100
AcDbSymbolTable
 70
3
  0
APPID
  5
2A
330
3
100
AcDbSymbolTableRecord
100
AcDbRegAppTableRecord
  2
ACAD
 70
0
  0
APPID
  5
85
330
3
100
AcDbSymbolTableRecord
100
AcDbRegAppTableRecord
  2
HATCHBACKGROUNDCOLOR
 70
0
  0
APPID
  5
86
330
3
100
AcDbSymbolTableRecord
100
AcDbRegAppTableRecord
  2
EZDXF
 70
0
  0
ENDTAB
  0
TABLE
  2
DIMSTYLE
  5
4
330
0
100
AcDbSymbolTable
 70
1
100
AcDbDimStyleTable
  0
DIMSTYLE
105
2B
330
4
100
AcDbSymbolTableRecord
100
AcDbDimStyleTableRecord
  2
Standard
 70
0
 40
1.0
 41
2.5
 42
0.625
 43
3.75
 44
1.25
 45
0.0
 46
0.0
 47
0.0
 48
0.0
 49
2.5
140
2.5
141
2.5
142
0.0
143
0.03937007874
144
1.0
145
0.0
146
1.0
147
0.625
148
0.0
 69
0
 70
0
 71
0
 72
0
 73
0
 74
0
 75
0
 76
0
 77
1
 78
8
 79
3
170
0
171
3
172
1
173
0
174
0
175
0
176
0
177
0
178
0
179
2
271
2
272
2
273
2
274
3
275
0
276
0
277
2
278
44
279
0
280
0
281
0
282
0
283
0
284
8
285
0
286
0
288
0
289
3
290
0
371
-2
372
-2
  0
ENDTAB
  0
TABLE
  2
BLOCK_RECORD
  5
9
330
0
100
AcDbSymbolTable
 70
5
  0
BLOCK_RECORD
  5
17
330
9
100
AcDbSymbolTableRecord
100
AcDbBlockTableRecord
  2
*Model_Space
340
1A
 70
0
280
1
281
0
  0
BLOCK_RECORD
  5
1B
330
9
100
AcDbSymbolTableRecord
100
AcDbBlockTableRecord
  2
*Paper_Space
340
1E
 70
0
280
1
281
0
  0
BLOCK_RECORD
  5
4E
330
9
100
AcDbSymbolTableRecord
100
AcDbBlockTableRecord
  2
*D1
340
0
 70
0
280
1
281
0
  0
BLOCK_RECORD
  5
53
330
9
100
AcDbSymbolTableRecord
100
AcDbBlockTableRecord
  2
_CLOSEDFILLED
340
0
 70
0
280
1
281
0
  0
BLOCK_RECORD
  5
74
330
9
100
AcDbSymbolTableRecord
100
AcDbBlockTableRecord
  2
*D2
340
0
 70
0
280
1
281
0
  0
ENDTAB
  0
ENDSEC
  0
SECTION
  2
BLOCKS
  0
BLOCK
  5
18
330
17
100
AcDbEntity
  8
0
100
AcDbBlockBegin
  2
*Model_Space
 70
0
 10
0.0
 20
0.0
 30
0.0
  3
*Model_Space
  1

  0
ENDBLK
  5
19
330
17
100
AcDbEntity
  8
0
100
AcDbBlockEnd
  0
BLOCK
  5
1C
330
1B
100
AcDbEntity
  8
0
100
AcDbBlockBegin
  2
*Paper_Space
 70
0
 10
0.0
 20
0.0
 30
0.0
  3
*Paper_Space
  1

  0
ENDBLK
  5
1D
330
1B
100
AcDbEntity
  8
0
100
AcDbBlockEnd
  0
BLOCK
  5
4F
330
4E
100
AcDbEntity
  8
0
100
AcDbBlockBegin
  2
*D1
 70
1
 10
0.0
 20
0.0
 30
0.0
  3
*D1
  1

  0
LINE
  5
51
330
4E
100
AcDbEntity
  8
0
100
AcDbLine
 10
1321.17
 20
6.95
 30
0.0
 11
1321.17
 21
6.95
 31
0.0
  0
LINE
  5
52
330
4E
100
AcDbEntity
  8
0
100
AcDbLine
 10
1321.17
 20
7.03
 30
0.0
 11
1321.17
 21
7.03
 31
0.0
  0
INSERT
  5
57
330
4E
100
AcDbEntity
  8
COTAS
100
AcDbBlockReference
  2
_CLOSEDFILLED
 10
1321.17
 20
6.95
 30
0.0
 41
0.09
 42
0.09
 50
90.0
  0
INSERT
  5
59
330
4E
100
AcDbEntity
  8
COTAS
100
AcDbBlockReference
  2
_CLOSEDFILLED
 10
1321.17
 20
7.03
 30
0.0
 41
0.09
 42
0.09
 50
270.0
  0
LINE
  5
5B
330
4E
100
AcDbEntity
  8
0
100
AcDbLine
 10
1321.17
 20
6.86
 30
0.0
 11
1321.17
 21
6.7700000000000005
 31
0.0
  0
LINE
  5
5C
330
4E
100
AcDbEntity
  8
0
100
AcDbLine
 10
1321.17
 20
7.12
 30
0.0
 11
1321.17
 21
7.21
 31
0.0
  0
LINE
  5
5D
330
4E
100
AcDbEntity
  8
0
100
AcDbLine
 10
1321.17
 20
6.95
 30
0.0
 11
1321.17
 21
7.03
 31
0.0
  0
MTEXT
  5
5E
330
4E
100
AcDbEntity
  8
COTAS
100
AcDbMText
 10
1320.48
 20
6.99
 30
0.0
 40
0.13
 71
5
  1
0,08
 50
90.0
  0
POINT
  5
5F
330
4E
100
AcDbEntity
  8
Defpoints
100
AcDbPoint
 10
1321.17
 20
6.95
 30
0.0
  0
POINT
  5
60
330
4E
100
AcDbEntity
  8
Defpoints
100
AcDbPoint
 10
1321.17
 20
6.95
 30
0.0
  0
POINT
  5
61
330
4E
100
AcDbEntity
  8
Defpoints
100
AcDbPoint
 10
1321.17
 20
7.03
 30
0.0
  0
ENDBLK
  5
50
330
4E
100
AcDbEntity
  8
0
100
AcDbBlockEnd
  0
BLOCK
  5
54
330
53
100
AcDbEntity
  8
0
100
AcDbBlockBegin
  2
_CLOSEDFILLED
 70
0
 10
0.0
 20
0.0
 30
0.0
  3
_CLOSEDFILLED
  1

  0
SOLID
  5
56
330
53
100
AcDbEntity
  8
0
  6
BYBLOCK
 62
0
100
AcDbTrace
 10
-1.0
 20
0.16439898372402537
 30
0.0
 11
0.0
 21
0.0
 31
0.0
 12
-1.0
 22
-0.16439898372402537
 32
0.0
 13
-1.0
 23
-0.16439898372402537
 33
0.0
  0
ENDBLK
  5
55
330
53
100
AcDbEntity
  8
0
100
AcDbBlockEnd
  0
BLOCK
  5
75
330
74
100
AcDbEntity
  8
0
100
AcDbBlockBegin
  2
*D2
 70
1
 10
0.0
 20
0.0
 30
0.0
  3
*D2
  1

  0
LINE
  5
77
330
74
100
AcDbEntity
  8
0
100
AcDbLine
 10
1366.65
 20
7.5
 30
0.0
 11
1366.65
 21
7.5
 31
0.0
  0
LINE
  5
78
330
74
100
AcDbEntity
  8
0
100
AcDbLine
 10
1366.65
 20
8.1
 30
0.0
 11
1366.65
 21
8.1
 31
0.0
  0
INSERT
  5
79
330
74
100
AcDbEntity
  8
COTAS
100
AcDbBlockReference
  2
_CLOSEDFILLED
 10
1366.65
 20
7.5
 30
0.0
 41
0.09
 42
0.09
 50
90.0
  0
INSERT
  5
7B
330
74
100
AcDbEntity
  8
COTAS
100
AcDbBlockReference
  2
_CLOSEDFILLED
 10
1366.65
 20
8.1
 30
0.0
 41
0.09
 42
0.09
 50
270.0
  0
LINE
  5
7D
330
74
100
AcDbEntity
  8
0
100
AcDbLine
 10
1366.65
 20
7.41
 30
0.0
 11
1366.65
 21
7.32
 31
0.0
  0
LINE
  5
7E
330
74
100
AcDbEntity
  8
0
100
AcDbLine
 10
1366.65
 20
8.19
 30
0.0
 11
1366.65
 21
8.28
 31
0.0
  0
LINE
  5
7F
330
74
100
AcDbEntity
  8
0
100
AcDbLine
 10
1366.65
 20
7.5
 30
0.0
 11
1366.65
 21
7.6049999999999995
 31
0.0
  0
LINE
  5
80
330
74
100
AcDbEntity
  8
0
100
AcDbLine
 10
1366.65
 20
7.995
 30
0.0
 11
1366.65
 21
8.1
 31
0.0
  0
MTEXT
  5
81
330
74
100
AcDbEntity
  8
COTAS
100
AcDbMText
 10
1366.65
 20
7.8
 30
0.0
 40
0.13
 71
5
  1
0,6
 50
90.0
  0
POINT
  5
82
330
74
100
AcDbEntity
  8
Defpoints
100
AcDbPoint
 10
1366.65
 20
7.5
 30
0.0
  0
POINT
  5
83
330
74
100
AcDbEntity
  8
Defpoints
100
AcDbPoint
 10
1366.65
 20
7.5
 30
0.0
  0
POINT
  5
84
330
74
100
AcDbEntity
  8
Defpoints
100
AcDbPoint
 10
1366.65
 20
8.1
 30
0.0
  0
ENDBLK
  5
76
330
74
100
AcDbEntity
  8
0
100
AcDbBlockEnd
  0
ENDSEC
  0
SECTION
  2
ENTITIES
  0
LWPOLYLINE
  5
35
330
17
100
AcDbEntity
  8
CORTE
100
AcDbPolyline
 90
5
 70
1
 10
1319.901701
 20
7.037082
 10
1319.901557
 20
7.037868
 10
1321.13
 20
7.263082516854647
 10
1321.13
 20
7.262269918009729
 10
1319.901701
 20
7.037082
  0
LWPOLYLINE
  5
36
330
17
100
AcDbEntity
  8
VISTA
100
AcDbPolyline
 90
9
 70
1
 10
1319.917946
 20
7.039453
 10
1319.917115
 20
7.040738
 10
1319.915672
 20
7.048607
 10
1319.9159937667334
 20
7.050103766733334
 10
1319.917279
 20
7.050935
 10
1321.13
 20
7.273267124303658
 10
1321.13
 20
7.2610663910756585
 10
1319.919443
 20
7.039131
 10
1319.917946
 20
7.039453
  0
LINE
  5
37
330
17
100
AcDbEntity
  8
CORTE
100
AcDbLine
 10
1320.002
 20
7.0
 30
0.0
 11
1320.0005793499872
 21
6.999993624738019
 31
0.0
  0
LINE
  5
38
330
17
100
AcDbEntity
  8
CORTE
100
AcDbLine
 10
1320.0005793499872
 20
6.999993624738019
 30
0.0
 11
1320.0
 21
6.999456075394404
 31
0.0
  0
LINE
  5
39
330
17
100
AcDbEntity
  8
CORTE
100
AcDbLine
 10
1320.2
 20
6.999687181702009
 30
0.0
 11
1320.1994223748218
 21
6.999906151640443
 31
0.0
  0
LINE
  5
3A
330
17
100
AcDbEntity
  8
CORTE
100
AcDbLine
 10
1320.1994223748218
 20
6.999906151640443
 30
0.0
 11
1320.198
 21
7.0
 31
0.0
  0
LINE
  5
3B
330
17
100
AcDbEntity
  8
CORTE
100
AcDbLine
 10
1320.002
 20
7.0
 30
0.0
 11
1320.198
 21
7.0
 31
0.0
  0
LINE
  5
3C
330
17
100
AcDbEntity
  8
CORTE
100
AcDbLine
 10
1320.0
 20
6.65
 30
0.0
 11
1320.0
 21
6.999456075394404
 31
0.0
  0
LWPOLYLINE
  5
3D
330
17
100
AcDbEntity
  8
CORTE
100
AcDbPolyline
 90
9
 70
1
 10
1319.98588
 20
6.676174
 10
1319.985049
 20
6.677459
 10
1319.946098
 20
6.889918
 10
1319.9464195000132
 20
6.891415
 10
1319.947705
 20
6.892246
 10
1321.13
 20
7.109000154811326
 10
1321.13
 20
6.8853337640141214
 10
1319.987377
 20
6.675853
 10
1319.98588
 20
6.676174
  0
LWPOLYLINE
  5
3E
330
17
100
AcDbEntity
  8
CORTE
100
AcDbPolyline
 90
13
 70
1
 10
1320.128086
 20
6.933586
 10
1320.1275
 20
6.935
 10
1320.1275
 20
6.986
 10
1320.128086
 20
6.987414
 10
1320.1295
 20
6.988
 10
1320.1705
 20
6.988
 10
1320.171914
 20
6.987414
 10
1320.1725
 20
6.986
 10
1320.1725
 20
6.935
 10
1320.171914
 20
6.933586
 10
1320.1705
 20
6.933
 10
1320.1295
 20
6.933
 10
1320.128086
 20
6.933586
  0
LWPOLYLINE
  5
3F
330
17
100
AcDbEntity
  8
CORTE
100
AcDbPolyline
 90
13
 70
1
 10
1320.942371
 20
7.082871
 10
1320.941786
 20
7.084286
 10
1320.941786
 20
7.135285
 10
1320.942371
 20
7.1367
 10
1320.943786
 20
7.137286
 10
1320.984786
 20
7.137286
 10
1320.9862
 20
7.1367
 10
1320.986786
 20
7.135285
 10
1320.986786
 20
7.084286
 10
1320.9862
 20
7.082871
 10
1320.984786
 20
7.082285
 10
1320.943786
 20
7.082285
 10
1320.942371
 20
7.082871
  0
LWPOLYLINE
  5
40
330
17
100
AcDbEntity
  8
CORTE
100
AcDbPolyline
 90
13
 70
1
 10
1320.030586
 20
6.698919
 10
1320.03
 20
6.700334
 10
1320.03
 20
6.916333
 10
1320.030586
 20
6.917747
 10
1320.032
 20
6.918334
 10
1320.168
 20
6.918334
 10
1320.169414
 20
6.917747
 10
1320.17
 20
6.916333
 10
1320.17
 20
6.700334
 10
1320.169414
 20
6.698919
 10
1320.168
 20
6.698333
 10
1320.032
 20
6.698333
 10
1320.030586
 20
6.698919
  0
LWPOLYLINE
  5
41
330
17
100
AcDbEntity
  8
CORTE
100
AcDbPolyline
 90
5
 70
1
 10
1319.915983
 20
6.95118
 10
1319.901557
 20
7.029869
 10
1321.13
 20
7.255083516854647
 10
1321.13
 20
7.173749750577217
 10
1319.915983
 20
6.95118
  0
LWPOLYLINE
  5
42
330
17
100
AcDbEntity
  8
VISTA
100
AcDbPolyline
 90
9
 70
1
 10
1319.84
 20
6.9149999976539585
 10
1319.84
 20
7.054999997653959
 10
1319.8412
 20
7.054999997653959
 10
1319.8412
 20
6.916199997653959
 10
1319.9988
 20
6.916199997653959
 10
1319.9988
 20
7.054999997653959
 10
1320.0
 20
7.054999997653959
 10
1320.0
 20
6.9149999976539585
 10
1319.84
 20
6.9149999976539585
  0
LWPOLYLINE
  5
43
330
17
100
AcDbEntity
  8
VISTA
100
AcDbPolyline
 90
5
 70
1
 10
1319.94
 20
6.651
 10
1319.94
 20
6.654
 10
1319.997
 20
6.654
 10
1319.997
 20
6.651
 10
1319.94
 20
6.651
  0
LWPOLYLINE
  5
44
330
17
100
AcDbEntity
  8
VISTA
100
AcDbPolyline
 90
5
 70
1
 10
1319.997
 20
6.654
 10
1320.0
 20
6.654
 10
1320.0
 20
6.65
 10
1319.997
 20
6.65
 10
1319.997
 20
6.654
  0
LWPOLYLINE
  5
45
330
17
100
AcDbEntity
  8
VISTA
100
AcDbPolyline
 90
5
 70
1
 10
1320.63
 20
6.742334
 10
1320.63
 20
6.767334
 10
1320.67
 20
6.767334
 10
1320.67
 20
6.742334
 10
1320.63
 20
6.742334
  0
LWPOLYLINE
  5
46
330
17
100
AcDbEntity
  8
VISTA
100
AcDbPolyline
 90
5
 70
1
 10
1320.625
 20
6.789751
 10
1320.625
 20
6.79275
 10
1320.675
 20
6.801917
 10
1320.675
 20
6.798917
 10
1320.625
 20
6.789751
  0
LINE
  5
47
330
17
100
AcDbEntity
  8
CORTE
100
AcDbLine
 10
1320.6529999010238
 20
6.767334
 30
0.0
 11
1320.6529999010238
 21
6.794334
 31
0.0
  0
LINE
  5
48
330
17
100
AcDbEntity
  8
CORTE
100
AcDbLine
 10
1320.6470000989762
 20
6.767334
 30
0.0
 11
1320.6470000989762
 21
6.794334
 31
0.0
  0
LINE
  5
49
330
17
100
AcDbEntity
  8
CORTE
100
AcDbLine
 10
1320.650005020478
 20
6.767334
 30
0.0
 11
1320.6529999010238
 21
6.767334
 31
0.0
  0
LINE
  5
4A
330
17
100
AcDbEntity
  8
CORTE
100
AcDbLine
 10
1320.6529999010238
 20
6.794334
 30
0.0
 11
1320.650005020478
 21
6.794334
 31
0.0
  0
LINE
  5
4B
330
17
100
AcDbEntity
  8
CORTE
100
AcDbLine
 10
1320.6470000989762
 20
6.767334
 30
0.0
 11
1320.6499949795223
 21
6.767334
 31
0.0
  0
LINE
  5
4C
330
17
100
AcDbEntity
  8
CORTE
100
AcDbLine
 10
1320.6499949795223
 20
6.794334
 30
0.0
 11
1320.6470000989762
 21
6.794334
 31
0.0
  0
DIMENSION
  5
4D
330
17
100
AcDbEntity
  8
COTAS
100
AcDbDimension
280
0
  2
*D1
  3
Standard
 10
1321.17
 20
6.95
 30
0.0
 11
1320.48
 21
6.99
 31
0.0
 70
32
 71
5
  1
<>
100
AcDbAlignedDimension
 13
1321.17
 23
6.95
 33
0.0
 14
1321.17
 24
7.03
 34
0.0
 50
90.0
100
AcDbRotatedDimension
1001
ACAD
1000
DSTYLE
1002
{
1070
140
1040
0.13
1070
41
1040
0.09
1002
}
  0
LWPOLYLINE
  5
62
330
17
100
AcDbEntity
  8
CORTE
100
AcDbPolyline
 90
5
 70
1
 10
1366.078751
 20
8.16954
 10
1365.75
 20
8.10926904542492
 10
1365.75
 20
8.110082392199676
 10
1366.078607
 20
8.170327
 10
1366.078751
 20
8.16954
  0
LWPOLYLINE
  5
63
330
17
100
AcDbEntity
  8
CORTE
100
AcDbPolyline
 90
5
 70
1
 10
1365.921249
 20
7.569541
 10
1365.921393
 20
7.570328
 10
1366.6
 20
7.445916734976566
 10
1366.6
 20
7.445103334980452
 10
1365.921249
 20
7.569541
  0
LWPOLYLINE
  5
64
330
17
100
AcDbEntity
  8
VISTA
100
AcDbPolyline
 90
41
 70
1
 10
1365.910498
 20
8.100497
 10
1365.9104017781804
 20
8.100611524883043
 10
1365.910314
 20
8.100716
 10
1365.9101497953732
 20
8.101230577556683
 10
1365.91
 20
8.1017
 10
1365.91
 20
8.157445901973922
 10
1365.91
 20
8.2083
 10
1365.9101642046269
 20
8.208814577556682
 10
1365.910314
 20
8.209284
 10
1365.9104102218196
 20
8.209398001938371
 10
1365.910498
 20
8.209502
 10
1365.9106120019383
 20
8.209598221819542
 10
1365.910716
 20
8.209686
 10
1365.9112305775566
 20
8.209850204626827
 10
1365.9117
 20
8.21
 10
1366.0040520289738
 20
8.21
 10
1366.0883
 20
8.21
 10
1366.0888145775566
 20
8.209835795373174
 10
1366.089284
 20
8.209686
 10
1366.0893980019384
 20
8.209589778180458
 10
1366.089502
 20
8.209502
 10
1366.0895897781804
 20
8.209398001938371
 10
1366.089686
 20
8.209284
 10
1366.0898357953731
 20
8.208814577556682
 10
1366.09
 20
8.2083
 10
1366.09
 20
8.157445901973922
 10
1366.09
 20
8.1017
 10
1366.0898502046268
 20
8.101230577556683
 10
1366.089686
 20
8.100716
 10
1366.0895982218196
 20
8.100611524883043
 10
1366.089502
 20
8.100497
 10
1366.0893980019384
 20
8.100409221819543
 10
1366.089284
 20
8.100313
 10
1366.0888145775566
 20
8.100163204626828
 10
1366.0883
 20
8.099999
 10
1366.0040520289738
 20
8.099999
 10
1365.9117
 20
8.099999
 10
1365.9112305775566
 20
8.100148795373173
 10
1365.910716
 20
8.100313
 10
1365.9106120019383
 20
8.100400778180457
 10
1365.910498
 20
8.100497
  0
LWPOLYLINE
  5
65
330
17
100
AcDbEntity
  8
CORTE
100
AcDbPolyline
 90
5
 70
1
 10
1365.909888
 20
7.442574
 10
1365.913062
 20
7.459885
 10
1366.6
 20
7.33394638520135
 10
1366.6
 20
7.316053373565051
 10
1365.909888
 20
7.442574
  0
LWPOLYLINE
  5
66
330
17
100
AcDbEntity
  8
VISTA
100
AcDbPolyline
 90
9
 70
1
 10
1366.080557
 20
8.180869
 10
1366.082054
 20
8.180548
 10
1366.082885
 20
8.179262
 10
1366.084328
 20
8.171393
 10
1366.0840067667334
 20
8.169897
 10
1366.082721
 20
8.169065
 10
1365.75
 20
8.108066166195327
 10
1365.75
 20
8.120266899423326
 10
1366.080557
 20
8.180869
  0
LWPOLYLINE
  5
67
330
17
100
AcDbEntity
  8
VISTA
100
AcDbPolyline
 90
9
 70
1
 10
1365.915993
 20
7.569897
 10
1365.915672
 20
7.571393
 10
1365.917115
 20
7.579262
 10
1365.917946
 20
7.580548
 10
1365.919443
 20
7.580869
 10
1366.6
 20
7.45610027003694
 10
1366.6
 20
7.4439004057926645
 10
1365.917279
 20
7.569066
 10
1365.915993
 20
7.569897
  0
LWPOLYLINE
  5
68
330
17
100
AcDbEntity
  8
CORTE
100
AcDbPolyline
 90
9
 70
1
 10
1365.92
 20
8.078
 10
1365.920586
 20
8.079414
 10
1365.922
 20
8.08
 10
1366.078
 20
8.08
 10
1366.079414
 20
8.079414
 10
1366.08
 20
8.078
 10
1366.08
 20
7.3
 10
1365.92
 20
7.3
 10
1365.92
 20
8.078
  0
LWPOLYLINE
  5
69
330
17
100
AcDbEntity
  8
CORTE
100
AcDbPolyline
 90
13
 70
1
 10
1366.094586
 20
7.485586
 10
1366.094
 20
7.487
 10
1366.094
 20
8.163
 10
1366.094586
 20
8.164414
 10
1366.096
 20
8.165
 10
1366.114
 20
8.165
 10
1366.115414
 20
8.164414
 10
1366.116
 20
8.163
 10
1366.116
 20
7.487
 10
1366.115414
 20
7.485586
 10
1366.114
 20
7.485
 10
1366.096
 20
7.485
 10
1366.094586
 20
7.485586
  0
LWPOLYLINE
  5
6A
330
17
100
AcDbEntity
  8
CORTE
100
AcDbPolyline
 90
13
 70
1
 10
1366.000586
 20
7.523086
 10
1366.0
 20
7.5245
 10
1366.0
 20
7.5455
 10
1366.000586
 20
7.546914
 10
1366.002
 20
7.5475
 10
1366.318
 20
7.5475
 10
1366.319414
 20
7.546914
 10
1366.32
 20
7.5455
 10
1366.32
 20
7.5245
 10
1366.319414
 20
7.523086
 10
1366.318
 20
7.5225
 10
1366.002
 20
7.5225
 10
1366.000586
 20
7.523086
  0
LWPOLYLINE
  5
6B
330
17
100
AcDbEntity
  8
CORTE
100
AcDbPolyline
 90
9
 70
1
 10
1366.012623
 20
8.004148
 10
1366.01412
 20
8.003826
 10
1366.014951
 20
8.002542
 10
1366.053902
 20
7.790082
 10
1366.0535804999868
 20
7.788586
 10
1366.052295
 20
7.787754
 10
1365.75
 20
7.732333281567368
 10
1365.75
 20
7.956000434122606
 10
1366.012623
 20
8.004148
  0
LWPOLYLINE
  5
6C
330
17
100
AcDbEntity
  8
CORTE
100
AcDbPolyline
 90
13
 70
1
 10
1365.828086
 20
7.978586
 10
1365.8275
 20
7.98
 10
1365.8275
 20
8.031
 10
1365.828086
 20
8.032414
 10
1365.8295
 20
8.033
 10
1365.8705
 20
8.033
 10
1365.871914
 20
8.032414
 10
1365.8725
 20
8.031
 10
1365.8725
 20
7.98
 10
1365.871914
 20
7.978586
 10
1365.8705
 20
7.978
 10
1365.8295
 20
7.978
 10
1365.828086
 20
7.978586
  0
LWPOLYLINE
  5
6D
330
17
100
AcDbEntity
  8
CORTE
100
AcDbPolyline
 90
13
 70
1
 10
1365.830586
 20
7.762252
 10
1365.83
 20
7.763667
 10
1365.83
 20
7.979666
 10
1365.830586
 20
7.981081
 10
1365.832
 20
7.981667
 10
1365.968
 20
7.981667
 10
1365.969414
 20
7.981081
 10
1365.97
 20
7.979666
 10
1365.97
 20
7.763667
 10
1365.969414
 20
7.762252
 10
1365.968
 20
7.761666
 10
1365.832
 20
7.761666
 10
1365.830586
 20
7.762252
  0
LWPOLYLINE
  5
6E
330
17
100
AcDbEntity
  8
CORTE
100
AcDbPolyline
 90
5
 70
1
 10
1366.093033
 20
8.083639
 10
1365.75
 20
8.020749625922244
 10
1365.75
 20
8.102083392199676
 10
1366.078607
 20
8.162328
 10
1366.093033
 20
8.083639
  0
LWPOLYLINE
  5
6F
330
17
100
AcDbEntity
  8
CORTE
100
AcDbPolyline
 90
6
 70
1
 10
1365.985049
 20
7.402541
 10
1365.98588
 20
7.403826
 10
1365.987377
 20
7.404147
 10
1366.555451869027
 20
7.3
 10
1365.966249728183
 20
7.3
 10
1365.985049
 20
7.402541
  0
LWPOLYLINE
  5
70
330
17
100
AcDbEntity
  8
CORTE
100
AcDbPolyline
 90
13
 70
1
 10
1366.128086
 20
7.378586
 10
1366.1275
 20
7.38
 10
1366.1275
 20
7.431
 10
1366.128086
 20
7.432414
 10
1366.1295
 20
7.433
 10
1366.1705
 20
7.433
 10
1366.171914
 20
7.432414
 10
1366.1725
 20
7.431
 10
1366.1725
 20
7.38
 10
1366.171914
 20
7.378586
 10
1366.1705
 20
7.378
 10
1366.1295
 20
7.378
 10
1366.128086
 20
7.378586
  0
LWPOLYLINE
  5
71
330
17
100
AcDbEntity
  8
CORTE
100
AcDbPolyline
 90
9
 70
1
 10
1366.03
 20
7.379666
 10
1366.030586
 20
7.381081
 10
1366.032
 20
7.381667
 10
1366.168
 20
7.381667
 10
1366.169414
 20
7.381081
 10
1366.17
 20
7.379666
 10
1366.17
 20
7.3
 10
1366.03
 20
7.3
 10
1366.03
 20
7.379666
  0
LWPOLYLINE
  5
72
330
17
100
AcDbEntity
  8
CORTE
100
AcDbPolyline
 90
5
 70
1
 10
1365.906967
 20
7.483639
 10
1365.921393
 20
7.562328
 10
1366.6
 20
7.437916734976566
 10
1366.6
 20
7.356582968699136
 10
1365.906967
 20
7.483639
  0
DIMENSION
  5
73
330
17
100
AcDbEntity
  8
COTAS
100
AcDbDimension
280
0
  2
*D2
  3
Standard
 10
1366.65
 20
7.5
 30
0.0
 11
1366.65
 21
7.8
 31
0.0
 70
32
 71
5
  1
<>
100
AcDbAlignedDimension
 13
1366.65
 23
7.5
 33
0.0
 14
1366.65
 24
8.1
 34
0.0
 50
90.0
100
AcDbRotatedDimension
1001
ACAD
1000
DSTYLE
1002
{
1070
140
1040
0.13
1070
41
1040
0.09
1002
}
  0
ENDSEC
  0
SECTION
  2
OBJECTS
  0
DICTIONARY
  5
A
330
0
100
AcDbDictionary
281
1
  3
ACAD_COLOR
350
B
  3
ACAD_GROUP
350
C
  3
ACAD_LAYOUT
350
D
  3
ACAD_MATERIAL
350
E
  3
ACAD_MLEADERSTYLE
350
F
  3
ACAD_MLINESTYLE
350
10
  3
ACAD_PLOTSETTINGS
350
11
  3
ACAD_PLOTSTYLENAME
350
12
  3
ACAD_SCALELIST
350
14
  3
ACAD_TABLESTYLE
350
15
  3
ACAD_VISUALSTYLE
350
16
  3
EZDXF_META
350
2D
  0
DICTIONARY
  5
B
330
A
100
AcDbDictionary
281
1
  0
DICTIONARY
  5
C
330
A
100
AcDbDictionary
281
1
  0
DICTIONARY
  5
D
330
A
100
AcDbDictionary
281
1
  3
Model
350
1A
  3
Layout1
350
1E
  0
DICTIONARY
  5
E
330
A
100
AcDbDictionary
281
1
  3
ByBlock
350
1F
  3
ByLayer
350
20
  3
Global
350
21
  0
DICTIONARY
  5
F
330
A
100
AcDbDictionary
281
1
  3
Standard
350
2C
  0
DICTIONARY
  5
10
330
A
100
AcDbDictionary
281
1
  3
Standard
350
22
  0
DICTIONARY
  5
11
330
A
100
AcDbDictionary
281
1
  0
ACDBDICTIONARYWDFLT
  5
12
330
A
100
AcDbDictionary
281
1
  3
Normal
350
13
100
AcDbDictionaryWithDefault
340
13
  0
ACDBPLACEHOLDER
  5
13
330
12
  0
DICTIONARY
  5
14
330
A
100
AcDbDictionary
281
1
  0
DICTIONARY
  5
15
330
A
100
AcDbDictionary
281
1
  0
DICTIONARY
  5
16
330
A
100
AcDbDictionary
281
1
  0
LAYOUT
  5
1A
330
D
100
AcDbPlotSettings
  1

  4
A3
  6

 40
7.5
 41
20.0
 42
7.5
 43
20.0
 44
420.0
 45
297.0
 46
0.0
 47
0.0
 48
0.0
 49
0.0
140
0.0
141
0.0
142
1.0
143
1.0
 70
1024
 72
1
 73
0
 74
5
  7

 75
16
 76
0
 77
2
 78
300
147
1.0
148
0.0
149
0.0
100
AcDbLayout
  1
Model
 70
1
 71
0
 10
0.0
 20
0.0
 11
420.0
 21
297.0
 12
0.0
 22
0.0
 32
0.0
 14
1e+20
 24
1e+20
 34
1e+20
 15
-1e+20
 25
-1e+20
 35
-1e+20
146
0.0
 13
0.0
 23
0.0
 33
0.0
 16
1.0
 26
0.0
 36
0.0
 17
0.0
 27
1.0
 37
0.0
 76
1
330
17
  0
LAYOUT
  5
1E
330
D
100
AcDbPlotSettings
  1

  4
A3
  6

 40
7.5
 41
20.0
 42
7.5
 43
20.0
 44
420.0
 45
297.0
 46
0.0
 47
0.0
 48
0.0
 49
0.0
140
0.0
141
0.0
142
1.0
143
1.0
 70
0
 72
1
 73
0
 74
5
  7

 75
16
 76
0
 77
2
 78
300
147
1.0
148
0.0
149
0.0
100
AcDbLayout
  1
Layout1
 70
1
 71
1
 10
0.0
 20
0.0
 11
420.0
 21
297.0
 12
0.0
 22
0.0
 32
0.0
 14
1e+20
 24
1e+20
 34
1e+20
 15
-1e+20
 25
-1e+20
 35
-1e+20
146
0.0
 13
0.0
 23
0.0
 33
0.0
 16
1.0
 26
0.0
 36
0.0
 17
0.0
 27
1.0
 37
0.0
 76
1
330
1B
  0
MATERIAL
  5
1F
102
{ACAD_REACTORS
330
E
102
}
330
E
100
AcDbMaterial
  1
ByBlock
  2

 70
0
 40
1.0
 71
1
 41
1.0
 91
-1023410177
 42
1.0
 72
1
  3

 73
1
 74
1
 75
1
 44
0.5
 73
0
 45
1.0
 46
1.0
 77
1
  4

 78
1
 79
1
170
1
 48
1.0
171
1
  6

172
1
173
1
174
1
140
1.0
141
1.0
175
1
  7

176
1
177
1
178
1
143
1.0
179
1
  8

270
1
271
1
272
1
145
1.0
146
1.0
273
1
  9

274
1
275
1
276
1
 42
1.0
 72
1
  3

 73
1
 74
1
 75
1
 94
63
  0
MATERIAL
  5
20
102
{ACAD_REACTORS
330
E
102
}
330
E
100
AcDbMaterial
  1
ByLayer
  2

 70
0
 40
1.0
 71
1
 41
1.0
 91
-1023410177
 42
1.0
 72
1
  3

 73
1
 74
1
 75
1
 44
0.5
 73
0
 45
1.0
 46
1.0
 77
1
  4

 78
1
 79
1
170
1
 48
1.0
171
1
  6

172
1
173
1
174
1
140
1.0
141
1.0
175
1
  7

176
1
177
1
178
1
143
1.0
179
1
  8

270
1
271
1
272
1
145
1.0
146
1.0
273
1
  9

274
1
275
1
276
1
 42
1.0
 72
1
  3

 73
1
 74
1
 75
1
 94
63
  0
MATERIAL
  5
21
102
{ACAD_REACTORS
330
E
102
}
330
E
100
AcDbMaterial
  1
Global
  2

 70
0
 40
1.0
 71
1
 41
1.0
 91
-1023410177
 42
1.0
 72
1
  3

 73
1
 74
1
 75
1
 44
0.5
 73
0
 45
1.0
 46
1.0
 77
1
  4

 78
1
 79
1
170
1
 48
1.0
171
1
  6

172
1
173
1
174
1
140
1.0
141
1.0
175
1
  7

176
1
177
1
178
1
143
1.0
179
1
  8

270
1
271
1
272
1
145
1.0
146
1.0
273
1
  9

274
1
275
1
276
1
 42
1.0
 72
1
  3

 73
1
 74
1
 75
1
 94
63
  0
MLINESTYLE
  5
22
102
{ACAD_REACTORS
330
10
102
}
330
10
100
AcDbMlineStyle
  2
Standard
 70
0
  3

 62
256
 51
90.0
 52
90.0
 71
2
 49
0.5
 62
256
  6
BYLAYER
 49
-0.5
 62
256
  6
BYLAYER
  0
MLEADERSTYLE
  5
2C
102
{ACAD_REACTORS
330
F
102
}
330
F
100
AcDbMLeaderStyle
179
2
170
2
171
1
172
0
 90
2
 40
0.0
 41
0.0
173
1
 91
-1056964608
 92
-2
290
1
 42
2.0
291
1
 43
8.0
  3
Standard
 44
4.0
300

342
29
174
1
175
1
176
0
178
1
 93
-1056964608
 45
4.0
292
0
297
0
 46
4.0
 94
-1056964608
 47
1.0
 49
1.0
140
1.0
294
1
141
0.0
177
0
142
1.0
295
0
296
0
143
3.75
271
0
272
9
273
9
  0
DICTIONARY
  5
2D
330
A
100
AcDbDictionary
280
1
281
1
  3
CREATED_BY_EZDXF
350
2E
  3
WRITTEN_BY_EZDXF
350
87
  0
DICTIONARYVAR
  5
2E
330
2D
100
DictionaryVariables
280
0
  1
1.4.4 @ 2026-09-11T04:46:04.288626+00:00
  0
DICTIONARYVAR
  5
87
330
2D
100
DictionaryVariables
280
0
  1
1.4.4 @ 2026-09-11T04:46:04.351191+00:00
  0
ENDSEC
  0
EOF
