  0
SECTION
  2
HEADER
  9
$ACADVER
  1
AC1024
  9
$ACADMAINTVER
 70
6
  9
$DWGCODEPAGE
  3
ANSI_1252
  9
$LASTSAVEDBY
  1
ezdxf
  9
$INSBASE
 10
0.0
 20
0.0
 30
0.0
  9
$EXTMIN
 10
1e+20
 20
1e+20
 30
1e+20
  9
$EXTMAX
 10
-1e+20
 20
-1e+20
 30
-1e+20
  9
$LIMMIN
 10
0.0
 20
0.0
  9
$LIMMAX
 10
420.0
 20
297.0
  9
$ORTHOMODE
 70
0
  9
$REGENMODE
 70
1
  9
$FILLMODE
 70
1
  9
$QTEXTMODE
 70
0
  9
$MIRRTEXT
 70
1
  9
$LTSCALE
 40
1.0
  9
$ATTMODE
 70
1
  9
$TEXTSIZE
 40
2.5
  9
$TRACEWID
 40
1.0
  9
$TEXTSTYLE
  7
Standard
  9
$CLAYER
  8
0
  9
$CELTYPE
  6
ByLayer
  9
$CECOLOR
 62
256
  9
$CELTSCALE
 40
1.0
  9
$DISPSILH
 70
0
  9
$DIMSCALE
 40
1.0
  9
$DIMASZ
 40
2.5
  9
$DIMEXO
 40
0.625
  9
$DIMDLI
 40
3.75
  9
$DIMRND
 40
0.0
  9
$DIMDLE
 40
0.0
  9
$DIMEXE
 40
1.25
  9
$DIMTP
 40
0.0
  9
$DIMTM
 40
0.0
  9
$DIMTXT
 40
2.5
  9
$DIMCEN
 40
2.5
  9
$DIMTSZ
 40
0.0
  9
$DIMTOL
 70
0
  9
$DIMLIM
 70
0
  9
$DIMTIH
 70
0
  9
$DIMTOH
 70
0
  9
$DIMSE1
 70
0
  9
$DIMSE2
 70
0
  9
$DIMTAD
 70
1
  9
$DIMZIN
 70
8
  9
$DIMBLK
  1

  9
$DIMASO
 70
1
  9
$DIMSHO
 70
1
  9
$DIMPOST
  1

  9
$DIMAPOST
  1

  9
$DIMALT
 70
0
  9
$DIMALTD
 70
3
  9
$DIMALTF
 40
0.03937007874
  9
$DIMLFAC
 40
1.0
  9
$DIMTOFL
 70
1
  9
$DIMTVP
 40
0.0
  9
$DIMTIX
 70
0
  9
$DIMSOXD
 70
0
  9
$DIMSAH
 70
0
  9
$DIMBLK1
  1

  9
$DIMBLK2
  1

  9
$DIMSTYLE
  2
ISO-25
  9
$DIMCLRD
 70
0
  9
$DIMCLRE
 70
0
  9
$DIMCLRT
 70
0
  9
$DIMTFAC
 40
1.0
  9
$DIMGAP
 40
0.625
  9
$DIMJUST
 70
0
  9
$DIMSD1
 70
0
  9
$DIMSD2
 70
0
  9
$DIMTOLJ
 70
0
  9
$DIMTZIN
 70
8
  9
$DIMALTZ
 70
0
  9
$DIMALTTZ
 70
0
  9
$DIMUPT
 70
0
  9
$DIMDEC
 70
2
  9
$DIMTDEC
 70
2
  9
$DIMALTU
 70
2
  9
$DIMALTTD
 70
3
  9
$DIMTXSTY
  7
Standard
  9
$DIMAUNIT
 70
0
  9
$DIMADEC
 70
0
  9
$DIMALTRND
 40
0.0
  9
$DIMAZIN
 70
0
  9
$DIMDSEP
 70
44
  9
$DIMATFIT
 70
3
  9
$DIMFRAC
 70
0
  9
$DIMLDRBLK
  1

  9
$DIMLUNIT
 70
2
  9
$DIMLWD
 70
-2
  9
$DIMLWE
 70
-2
  9
$DIMTMOVE
 70
0
  9
$DIMFXL
 40
1.0
  9
$DIMFXLON
 70
0
  9
$DIMJOGANG
 40
0.785398163397
  9
$DIMTFILL
 70
0
  9
$DIMTFILLCLR
 70
0
  9
$DIMARCSYM
 70
0
  9
$DIMLTYPE
  6

  9
$DIMLTEX1
  6

  9
$DIMLTEX2
  6

  9
$DIMTXTDIRECTION
 70
0
  9
$LUNITS
 70
2
  9
$LUPREC
 70
4
  9
$SKETCHINC
 40
1.0
  9
$FILLETRAD
 40
10.0
  9
$AUNITS
 70
0
  9
$AUPREC
 70
2
  9
$MENU
  1
.
  9
$ELEVATION
 40
0.0
  9
$PELEVATION
 40
0.0
  9
$THICKNESS
 40
0.0
  9
$LIMCHECK
 70
0
  9
$CHAMFERA
 40
0.0
  9
$CHAMFERB
 40
0.0
  9
$CHAMFERC
 40
0.0
  9
$CHAMFERD
 40
0.0
  9
$SKPOLY
 70
0
  9
$TDCREATE
 40
2461295.0738310185
  9
$TDUCREATE
 40
2458532.153996898
  9
$TDUPDATE
 40
2461295.0738310185
  9
$TDUUPDATE
 40
2458532.1544311
  9
$TDINDWG
 40
0.0
  9
$TDUSRTIMER
 40
0.0
  9
$USRTIMER
 70
1
  9
$ANGBASE
 50
0.0
  9
$ANGDIR
 70
0
  9
$PDMODE
 70
0
  9
$PDSIZE
 40
0.0
  9
$PLINEWID
 40
0.0
  9
$SPLFRAME
 70
0
  9
$SPLINETYPE
 70
6
  9
$SPLINESEGS
 70
8
  9
$HANDSEED
  5
14F
  9
$SURFTAB1
 70
6
  9
$SURFTAB2
 70
6
  9
$SURFTYPE
 70
6
  9
$SURFU
 70
6
  9
$SURFV
 70
6
  9
$UCSBASE
  2

  9
$UCSNAME
  2

  9
$UCSORG
 10
0.0
 20
0.0
 30
0.0
  9
$UCSXDIR
 10
1.0
 20
0.0
 30
0.0
  9
$UCSYDIR
 10
0.0
 20
1.0
 30
0.0
  9
$UCSORTHOREF
  2

  9
$UCSORTHOVIEW
 70
0
  9
$UCSORGTOP
 10
0.0
 20
0.0
 30
0.0
  9
$UCSORGBOTTOM
 10
0.0
 20
0.0
 30
0.0
  9
$UCSORGLEFT
 10
0.0
 20
0.0
 30
0.0
  9
$UCSORGRIGHT
 10
0.0
 20
0.0
 30
0.0
  9
$UCSORGFRONT
 10
0.0
 20
0.0
 30
0.0
  9
$UCSORGBACK
 10
0.0
 20
0.0
 30
0.0
  9
$PUCSBASE
  2

  9
$PUCSNAME
  2

  9
$PUCSORG
 10
0.0
 20
0.0
 30
0.0
  9
$PUCSXDIR
 10
1.0
 20
0.0
 30
0.0
  9
$PUCSYDIR
 10
0.0
 20
1.0
 30
0.0
  9
$PUCSORTHOREF
  2

  9
$PUCSORTHOVIEW
 70
0
  9
$PUCSORGTOP
 10
0.0
 20
0.0
 30
0.0
  9
$PUCSORGBOTTOM
 10
0.0
 20
0.0
 30
0.0
  9
$PUCSORGLEFT
 10
0.0
 20
0.0
 30
0.0
  9
$PUCSORGRIGHT
 10
0.0
 20
0.0
 30
0.0
  9
$PUCSORGFRONT
 10
0.0
 20
0.0
 30
0.0
  9
$PUCSORGBACK
 10
0.0
 20
0.0
 30
0.0
  9
$USERI1
 70
0
  9
$USERI2
 70
0
  9
$USERI3
 70
0
  9
$USERI4
 70
0
  9
$USERI5
 70
0
  9
$USERR1
 40
0.0
  9
$USERR2
 40
0.0
  9
$USERR3
 40
0.0
  9
$USERR4
 40
0.0
  9
$USERR5
 40
0.0
  9
$WORLDVIEW
 70
1
  9
$SHADEDGE
 70
3
  9
$SHADEDIF
 70
70
  9
$TILEMODE
 70
1
  9
$MAXACTVP
 70
64
  9
$PINSBASE
 10
0.0
 20
0.0
 30
0.0
  9
$PLIMCHECK
 70
0
  9
$PEXTMIN
 10
1e+20
 20
1e+20
 30
1e+20
  9
$PEXTMAX
 10
-1e+20
 20
-1e+20
 30
-1e+20
  9
$PLIMMIN
 10
0.0
 20
0.0
  9
$PLIMMAX
 10
420.0
 20
297.0
  9
$UNITMODE
 70
0
  9
$VISRETAIN
 70
1
  9
$PLINEGEN
 70
0
  9
$PSLTSCALE
 70
1
  9
$TREEDEPTH
 70
3020
  9
$CMLSTYLE
  2
Standard
  9
$CMLJUST
 70
0
  9
$CMLSCALE
 40
20.0
  9
$PROXYGRAPHICS
 70
1
  9
$MEASUREMENT
 70
1
  9
$CELWEIGHT
370
-1
  9
$ENDCAPS
280
0
  9
$JOINSTYLE
280
0
  9
$LWDISPLAY
290
0
  9
$INSUNITS
 70
6
  9
$HYPERLINKBASE
  1

  9
$STYLESHEET
  1

  9
$XEDIT
290
1
  9
$CEPSNTYPE
380
0
  9
$PSTYLEMODE
290
1
  9
$FINGERPRINTGUID
  2
{7866763C-BBE7-4F4E-A880-B53B6F50D192}
  9
$VERSIONGUID
  2
{9EED34B2-266B-42E7-B16B-3F0CC63F3E9E}
  9
$EXTNAMES
290
1
  9
$PSVPSCALE
 40
0.0
  9
$OLESTARTUP
290
0
  9
$SORTENTS
280
127
  9
$INDEXCTL
280
0
  9
$HIDETEXT
280
1
  9
$XCLIPFRAME
280
1
  9
$HALOGAP
280
0
  9
$OBSCOLOR
 70
257
  9
$OBSLTYPE
280
0
  9
$INTERSECTIONDISPLAY
280
0
  9
$INTERSECTIONCOLOR
 70
257
  9
$DIMASSOC
280
2
  9
$PROJECTNAME
  1

  9
$CAMERADISPLAY
290
0
  9
$LENSLENGTH
 40
50.0
  9
$CAMERAHEIGHT
 40
0.0
  9
$STEPSPERSEC
 40
24.0
  9
$STEPSIZE
 40
100.0
  9
$3DDWFPREC
 40
2.0
  9
$PSOLWIDTH
 40
0.005
  9
$PSOLHEIGHT
 40
0.08
  9
$LOFTANG1
 40
1.570796326795
  9
$LOFTANG2
 40
1.570796326795
  9
$LOFTMAG1
 40
0.0
  9
$LOFTMAG2
 40
0.0
  9
$LOFTPARAM
 70
7
  9
$LOFTNORMALS
280
1
  9
$LATITUDE
 40
37.795
  9
$LONGITUDE
 40
-122.394
  9
$NORTHDIRECTION
 40
0.0
  9
$TIMEZONE
 70
-8000
  9
$LIGHTGLYPHDISPLAY
280
1
  9
$TILEMODELIGHTSYNCH
280
1
  9
$CMATERIAL
347
20
  9
$SOLIDHIST
280
0
  9
$SHOWHIST
280
1
  9
$DWFFRAME
280
2
  9
$DGNFRAME
280
2
  9
$REALWORLDSCALE
290
1
  9
$INTERFERECOLOR
 62
256
  9
$CSHADOW
280
0
  9
$SHADOWPLANELOCATION
 40
0.0
  0
ENDSEC
  0
SECTION
  2
CLASSES
  0
CLASS
  1
ACDBDICTIONARYWDFLT
  2
AcDbDictionaryWithDefault
  3
ObjectDBX Classes
 90
0
 91
0
280
0
281
0
  0
CLASS
  1
SUN
  2
AcDbSun
  3
SCENEOE
 90
1153
 91
0
280
0
281
0
  0
CLASS
  1
VISUALSTYLE
  2
AcDbVisualStyle
  3
ObjectDBX Classes
 90
4095
 91
0
280
0
281
0
  0
CLASS
  1
MATERIAL
  2
AcDbMaterial
  3
ObjectDBX Classes
 90
1153
 91
0
280
0
281
0
  0
CLASS
  1
SCALE
  2
AcDbScale
  3
ObjectDBX Classes
 90
1153
 91
0
280
0
281
0
  0
CLASS
  1
TABLESTYLE
  2
AcDbTableStyle
  3
ObjectDBX Classes
 90
4095
 91
0
280
0
281
0
  0
CLASS
  1
MLEADERSTYLE
  2
AcDbMLeaderStyle
  3
ACDB_MLEADERSTYLE_CLASS
 90
4095
 91
0
280
0
281
0
  0
CLASS
  1
DICTIONARYVAR
  2
AcDbDictionaryVar
  3
ObjectDBX Classes
 90
0
 91
0
280
0
281
0
  0
CLASS
  1
CELLSTYLEMAP
  2
AcDbCellStyleMap
  3
ObjectDBX Classes
 90
1152
 91
0
280
0
281
0
  0
CLASS
  1
MENTALRAYRENDERSETTINGS
  2
AcDbMentalRayRenderSettings
  3
SCENEOE
 90
1024
 91
0
280
0
281
0
  0
CLASS
  1
ACDBDETAILVIEWSTYLE
  2
AcDbDetailViewStyle
  3
ObjectDBX Classes
 90
1025
 91
0
280
0
281
0
  0
CLASS
  1
ACDBSECTIONVIEWSTYLE
  2
AcDbSectionViewStyle
  3
ObjectDBX Classes
 90
1025
 91
0
280
0
281
0
  0
CLASS
  1
RASTERVARIABLES
  2
AcDbRasterVariables
  3
ISM
 90
0
 91
0
280
0
281
0
  0
CLASS
  1
ACDBPLACEHOLDER
  2
AcDbPlaceHolder
  3
ObjectDBX Classes
 90
0
 91
0
280
0
281
0
  0
CLASS
  1
LAYOUT
  2
AcDbLayout
  3
ObjectDBX Classes
 90
0
 91
0
280
0
281
0
  0
ENDSEC
  0
SECTION
  2
TABLES
  0
TABLE
  2
VPORT
  5
8
330
0
100
AcDbSymbolTable
 70
1
  0
VPORT
  5
23
330
8
100
AcDbSymbolTableRecord
100
AcDbViewportTableRecord
  2
*Active
 70
0
 10
0.0
 20
0.0
 11
1.0
 21
1.0
 12
0.0
 22
0.0
 13
0.0
 23
0.0
 14
0.5
 24
0.5
 15
0.5
 25
0.5
 16
0.0
 26
0.0
 36
1.0
 17
0.0
 27
0.0
 37
0.0
 40
1000.0
 41
1.34
 42
50.0
 43
0.0
 44
0.0
 50
0.0
 51
0.0
 71
0
 72
1000
 73
1
 74
3
 75
0
 76
0
 77
0
 78
0
281
0
 65
0
146
0.0
  0
ENDTAB
  0
TABLE
  2
LTYPE
  5
2
330
0
100
AcDbSymbolTable
 70
3
  0
LTYPE
  5
24
330
2
100
AcDbSymbolTableRecord
100
AcDbLinetypeTableRecord
  2
ByBlock
 70
0
  3

 72
65
 73
0
 40
0.0
  0
LTYPE
  5
25
330
2
100
AcDbSymbolTableRecord
100
AcDbLinetypeTableRecord
  2
ByLayer
 70
0
  3

 72
65
 73
0
 40
0.0
  0
LTYPE
  5
26
330
2
100
AcDbSymbolTableRecord
100
AcDbLinetypeTableRecord
  2
Continuous
 70
0
  3

 72
65
 73
0
 40
0.0
  0
ENDTAB
  0
TABLE
  2
LAYER
  5
1
330
0
100
AcDbSymbolTable
 70
7
  0
LAYER
  5
27
330
1
100
AcDbSymbolTableRecord
100
AcDbLayerTableRecord
  2
0
 70
0
 62
7
  6
Continuous
370
-3
390
13
347
21
  0
LAYER
  5
28
330
1
100
AcDbSymbolTableRecord
100
AcDbLayerTableRecord
  2
Defpoints
 70
0
 62
7
  6
Continuous
290
0
370
-3
390
13
347
21
  0
LAYER
  5
2F
330
1
100
AcDbSymbolTableRecord
100
AcDbLayerTableRecord
  2
G_MEDIDO
 70
0
 62
8
  6
Continuous
370
-3
390
13
347
21
  0
LAYER
  5
30
330
1
100
AcDbSymbolTableRecord
100
AcDbLayerTableRecord
  2
P_PROPUESTO
 70
0
 62
5
  6
Continuous
370
-3
390
13
347
21
  0
LAYER
  5
31
330
1
100
AcDbSymbolTableRecord
100
AcDbLayerTableRecord
  2
COTAS
 70
0
 62
4
  6
Continuous
370
-3
390
13
347
21
  0
LAYER
  5
32
330
1
100
AcDbSymbolTableRecord
100
AcDbLayerTableRecord
  2
TEXTOS
 70
0
 62
7
  6
Continuous
370
-3
390
13
347
21
  0
LAYER
  5
33
330
1
100
AcDbSymbolTableRecord
100
AcDbLayerTableRecord
  2
REVISAR
 70
0
 62
30
  6
Continuous
370
-3
390
13
347
21
  0
ENDTAB
  0
TABLE
  2
STYLE
  5
5
330
0
100
AcDbSymbolTable
 70
1
  0
STYLE
  5
29
330
5
100
AcDbSymbolTableRecord
100
AcDbTextStyleTableRecord
  2
Standard
 70
0
 40
0.0
 41
1.0
 50
0.0
 71
0
 42
2.5
  3
txt
  4

  0
ENDTAB
  0
TABLE
  2
VIEW
  5
7
330
0
100
AcDbSymbolTable
 70
0
  0
ENDTAB
  0
TABLE
  2
UCS
  5
6
330
0
100
AcDbSymbolTable
 70
0
  0
ENDTAB
  0
TABLE
  2
APPID
  5
3
330
0
100
AcDbSymbolTable
 70
3
  0
APPID
  5
2A
330
3
100
AcDbSymbolTableRecord
100
AcDbRegAppTableRecord
  2
ACAD
 70
0
  0
APPID
  5
14C
330
3
100
AcDbSymbolTableRecord
100
AcDbRegAppTableRecord
  2
HATCHBACKGROUNDCOLOR
 70
0
  0
APPID
  5
14D
330
3
100
AcDbSymbolTableRecord
100
AcDbRegAppTableRecord
  2
EZDXF
 70
0
  0
ENDTAB
  0
TABLE
  2
DIMSTYLE
  5
4
330
0
100
AcDbSymbolTable
 70
1
100
AcDbDimStyleTable
  0
DIMSTYLE
105
2B
330
4
100
AcDbSymbolTableRecord
100
AcDbDimStyleTableRecord
  2
Standard
 70
0
 40
1.0
 41
2.5
 42
0.625
 43
3.75
 44
1.25
 45
0.0
 46
0.0
 47
0.0
 48
0.0
 49
2.5
140
2.5
141
2.5
142
0.0
143
0.03937007874
144
1.0
145
0.0
146
1.0
147
0.625
148
0.0
 69
0
 70
0
 71
0
 72
0
 73
0
 74
0
 75
0
 76
0
 77
1
 78
8
 79
3
170
0
171
3
172
1
173
0
174
0
175
0
176
0
177
0
178
0
179
2
271
2
272
2
273
2
274
3
275
0
276
0
277
2
278
44
279
0
280
0
281
0
282
0
283
0
284
8
285
0
286
0
288
0
289
3
290
0
371
-2
372
-2
  0
ENDTAB
  0
TABLE
  2
BLOCK_RECORD
  5
9
330
0
100
AcDbSymbolTable
 70
13
  0
BLOCK_RECORD
  5
17
330
9
100
AcDbSymbolTableRecord
100
AcDbBlockTableRecord
  2
*Model_Space
340
1A
 70
0
280
1
281
0
  0
BLOCK_RECORD
  5
1B
330
9
100
AcDbSymbolTableRecord
100
AcDbBlockTableRecord
  2
*Paper_Space
340
1E
 70
0
280
1
281
0
  0
BLOCK_RECORD
  5
88
330
9
100
AcDbSymbolTableRecord
100
AcDbBlockTableRecord
  2
*D1
340
0
 70
0
280
1
281
0
  0
BLOCK_RECORD
  5
8D
330
9
100
AcDbSymbolTableRecord
100
AcDbBlockTableRecord
  2
_CLOSEDFILLED
340
0
 70
0
280
1
281
0
  0
BLOCK_RECORD
  5
9E
330
9
100
AcDbSymbolTableRecord
100
AcDbBlockTableRecord
  2
*D2
340
0
 70
0
280
1
281
0
  0
BLOCK_RECORD
  5
AF
330
9
100
AcDbSymbolTableRecord
100
AcDbBlockTableRecord
  2
*D3
340
0
 70
0
280
1
281
0
  0
BLOCK_RECORD
  5
C0
330
9
100
AcDbSymbolTableRecord
100
AcDbBlockTableRecord
  2
*D4
340
0
 70
0
280
1
281
0
  0
BLOCK_RECORD
  5
E1
330
9
100
AcDbSymbolTableRecord
100
AcDbBlockTableRecord
  2
*D5
340
0
 70
0
280
1
281
0
  0
BLOCK_RECORD
  5
F2
330
9
100
AcDbSymbolTableRecord
100
AcDbBlockTableRecord
  2
*D6
340
0
 70
0
280
1
281
0
  0
BLOCK_RECORD
  5
102
330
9
100
AcDbSymbolTableRecord
100
AcDbBlockTableRecord
  2
*D7
340
0
 70
0
280
1
281
0
  0
BLOCK_RECORD
  5
112
330
9
100
AcDbSymbolTableRecord
100
AcDbBlockTableRecord
  2
*D8
340
0
 70
0
280
1
281
0
  0
BLOCK_RECORD
  5
12A
330
9
100
AcDbSymbolTableRecord
100
AcDbBlockTableRecord
  2
*D9
340
0
 70
0
280
1
281
0
  0
BLOCK_RECORD
  5
13B
330
9
100
AcDbSymbolTableRecord
100
AcDbBlockTableRecord
  2
*D10
340
0
 70
0
280
1
281
0
  0
ENDTAB
  0
ENDSEC
  0
SECTION
  2
BLOCKS
  0
BLOCK
  5
18
330
17
100
AcDbEntity
  8
0
100
AcDbBlockBegin
  2
*Model_Space
 70
0
 10
0.0
 20
0.0
 30
0.0
  3
*Model_Space
  1

  0
ENDBLK
  5
19
330
17
100
AcDbEntity
  8
0
100
AcDbBlockEnd
  0
BLOCK
  5
1C
330
1B
100
AcDbEntity
  8
0
100
AcDbBlockBegin
  2
*Paper_Space
 70
0
 10
0.0
 20
0.0
 30
0.0
  3
*Paper_Space
  1

  0
ENDBLK
  5
1D
330
1B
100
AcDbEntity
  8
0
100
AcDbBlockEnd
  0
BLOCK
  5
89
330
88
100
AcDbEntity
  8
0
100
AcDbBlockBegin
  2
*D1
 70
1
 10
0.0
 20
0.0
 30
0.0
  3
*D1
  1

  0
LINE
  5
8B
330
88
100
AcDbEntity
  8
0
100
AcDbLine
 10
0.61
 20
0.475
 30
0.0
 11
0.61
 21
0.475
 31
0.0
  0
LINE
  5
8C
330
88
100
AcDbEntity
  8
0
100
AcDbLine
 10
0.76
 20
0.475
 30
0.0
 11
0.76
 21
0.475
 31
0.0
  0
INSERT
  5
91
330
88
100
AcDbEntity
  8
COTAS
100
AcDbBlockReference
  2
_CLOSEDFILLED
 10
0.61
 20
0.475
 30
0.0
 41
0.007
 42
0.007
  0
INSERT
  5
93
330
88
100
AcDbEntity
  8
COTAS
100
AcDbBlockReference
  2
_CLOSEDFILLED
 10
0.76
 20
0.475
 30
0.0
 41
0.007
 42
0.007
 50
180.0
  0
LINE
  5
95
330
88
100
AcDbEntity
  8
0
100
AcDbLine
 10
0.603
 20
0.475
 30
0.0
 11
0.596
 21
0.475
 31
0.0
  0
LINE
  5
96
330
88
100
AcDbEntity
  8
0
100
AcDbLine
 10
0.767
 20
0.475
 30
0.0
 11
0.774
 21
0.475
 31
0.0
  0
LINE
  5
97
330
88
100
AcDbEntity
  8
0
100
AcDbLine
 10
0.61
 20
0.475
 30
0.0
 11
0.659
 21
0.475
 31
0.0
  0
LINE
  5
98
330
88
100
AcDbEntity
  8
0
100
AcDbLine
 10
0.7110000000000001
 20
0.475
 30
0.0
 11
0.76
 21
0.475
 31
0.0
  0
MTEXT
  5
99
330
88
100
AcDbEntity
  8
COTAS
100
AcDbMText
 10
0.685
 20
0.475
 30
0.0
 40
0.013
 71
5
  1
0,15
  0
POINT
  5
9A
330
88
100
AcDbEntity
  8
Defpoints
100
AcDbPoint
 10
0.61
 20
0.475
 30
0.0
  0
POINT
  5
9B
330
88
100
AcDbEntity
  8
Defpoints
100
AcDbPoint
 10
0.61
 20
0.475
 30
0.0
  0
POINT
  5
9C
330
88
100
AcDbEntity
  8
Defpoints
100
AcDbPoint
 10
0.76
 20
0.475
 30
0.0
  0
ENDBLK
  5
8A
330
88
100
AcDbEntity
  8
0
100
AcDbBlockEnd
  0
BLOCK
  5
8E
330
8D
100
AcDbEntity
  8
0
100
AcDbBlockBegin
  2
_CLOSEDFILLED
 70
0
 10
0.0
 20
0.0
 30
0.0
  3
_CLOSEDFILLED
  1

  0
SOLID
  5
90
330
8D
100
AcDbEntity
  8
0
  6
BYBLOCK
 62
0
100
AcDbTrace
 10
-1.0
 20
0.16439898372402537
 30
0.0
 11
0.0
 21
0.0
 31
0.0
 12
-1.0
 22
-0.16439898372402537
 32
0.0
 13
-1.0
 23
-0.16439898372402537
 33
0.0
  0
ENDBLK
  5
8F
330
8D
100
AcDbEntity
  8
0
100
AcDbBlockEnd
  0
BLOCK
  5
9F
330
9E
100
AcDbEntity
  8
0
100
AcDbBlockBegin
  2
*D2
 70
1
 10
0.0
 20
0.0
 30
0.0
  3
*D2
  1

  0
LINE
  5
A1
330
9E
100
AcDbEntity
  8
0
100
AcDbLine
 10
1.1
 20
0.3
 30
0.0
 11
1.1
 21
0.3
 31
0.0
  0
LINE
  5
A2
330
9E
100
AcDbEntity
  8
0
100
AcDbLine
 10
1.1
 20
0.35
 30
0.0
 11
1.1
 21
0.35
 31
0.0
  0
INSERT
  5
A3
330
9E
100
AcDbEntity
  8
COTAS
100
AcDbBlockReference
  2
_CLOSEDFILLED
 10
1.1
 20
0.3
 30
0.0
 41
0.007
 42
0.007
 50
90.0
  0
INSERT
  5
A5
330
9E
100
AcDbEntity
  8
COTAS
100
AcDbBlockReference
  2
_CLOSEDFILLED
 10
1.1
 20
0.35
 30
0.0
 41
0.007
 42
0.007
 50
270.0
  0
LINE
  5
A7
330
9E
100
AcDbEntity
  8
0
100
AcDbLine
 10
1.1
 20
0.293
 30
0.0
 11
1.1
 21
0.286
 31
0.0
  0
LINE
  5
A8
330
9E
100
AcDbEntity
  8
0
100
AcDbLine
 10
1.1
 20
0.357
 30
0.0
 11
1.1
 21
0.364
 31
0.0
  0
LINE
  5
A9
330
9E
100
AcDbEntity
  8
0
100
AcDbLine
 10
1.1
 20
0.3
 30
0.0
 11
1.1
 21
0.35
 31
0.0
  0
MTEXT
  5
AA
330
9E
100
AcDbEntity
  8
COTAS
100
AcDbMText
 10
0.46850000000000014
 20
0.32499999999999996
 30
0.0
 40
0.013
 71
5
  1
0,05
 50
90.0
  0
POINT
  5
AB
330
9E
100
AcDbEntity
  8
Defpoints
100
AcDbPoint
 10
1.1
 20
0.3
 30
0.0
  0
POINT
  5
AC
330
9E
100
AcDbEntity
  8
Defpoints
100
AcDbPoint
 10
1.1
 20
0.3
 30
0.0
  0
POINT
  5
AD
330
9E
100
AcDbEntity
  8
Defpoints
100
AcDbPoint
 10
1.1
 20
0.35
 30
0.0
  0
ENDBLK
  5
A0
330
9E
100
AcDbEntity
  8
0
100
AcDbBlockEnd
  0
BLOCK
  5
B0
330
AF
100
AcDbEntity
  8
0
100
AcDbBlockBegin
  2
*D3
 70
1
 10
0.0
 20
0.0
 30
0.0
  3
*D3
  1

  0
LINE
  5
B2
330
AF
100
AcDbEntity
  8
0
100
AcDbLine
 10
0.875
 20
0.35
 30
0.0
 11
0.875
 21
0.35
 31
0.0
  0
LINE
  5
B3
330
AF
100
AcDbEntity
  8
0
100
AcDbLine
 10
0.875
 20
0.36
 30
0.0
 11
0.875
 21
0.36
 31
0.0
  0
INSERT
  5
B4
330
AF
100
AcDbEntity
  8
COTAS
100
AcDbBlockReference
  2
_CLOSEDFILLED
 10
0.875
 20
0.35
 30
0.0
 41
0.007
 42
0.007
 50
90.0
  0
INSERT
  5
B6
330
AF
100
AcDbEntity
  8
COTAS
100
AcDbBlockReference
  2
_CLOSEDFILLED
 10
0.875
 20
0.36
 30
0.0
 41
0.007
 42
0.007
 50
270.0
  0
LINE
  5
B8
330
AF
100
AcDbEntity
  8
0
100
AcDbLine
 10
0.875
 20
0.34299999999999997
 30
0.0
 11
0.875
 21
0.33599999999999997
 31
0.0
  0
LINE
  5
B9
330
AF
100
AcDbEntity
  8
0
100
AcDbLine
 10
0.875
 20
0.367
 30
0.0
 11
0.875
 21
0.374
 31
0.0
  0
LINE
  5
BA
330
AF
100
AcDbEntity
  8
0
100
AcDbLine
 10
0.875
 20
0.35
 30
0.0
 11
0.875
 21
0.36
 31
0.0
  0
MTEXT
  5
BB
330
AF
100
AcDbEntity
  8
COTAS
100
AcDbMText
 10
0.24350000000000005
 20
0.355
 30
0.0
 40
0.013
 71
5
  1
0,01
 50
90.0
  0
POINT
  5
BC
330
AF
100
AcDbEntity
  8
Defpoints
100
AcDbPoint
 10
0.875
 20
0.35
 30
0.0
  0
POINT
  5
BD
330
AF
100
AcDbEntity
  8
Defpoints
100
AcDbPoint
 10
0.875
 20
0.35
 30
0.0
  0
POINT
  5
BE
330
AF
100
AcDbEntity
  8
Defpoints
100
AcDbPoint
 10
0.875
 20
0.36
 30
0.0
  0
ENDBLK
  5
B1
330
AF
100
AcDbEntity
  8
0
100
AcDbBlockEnd
  0
BLOCK
  5
C1
330
C0
100
AcDbEntity
  8
0
100
AcDbBlockBegin
  2
*D4
 70
1
 10
0.0
 20
0.0
 30
0.0
  3
*D4
  1

  0
LINE
  5
C3
330
C0
100
AcDbEntity
  8
0
100
AcDbLine
 10
0.645
 20
0.865
 30
0.0
 11
0.645
 21
0.865
 31
0.0
  0
LINE
  5
C4
330
C0
100
AcDbEntity
  8
0
100
AcDbLine
 10
0.685
 20
0.865
 30
0.0
 11
0.685
 21
0.865
 31
0.0
  0
INSERT
  5
C5
330
C0
100
AcDbEntity
  8
COTAS
100
AcDbBlockReference
  2
_CLOSEDFILLED
 10
0.645
 20
0.865
 30
0.0
 41
0.007
 42
0.007
  0
INSERT
  5
C7
330
C0
100
AcDbEntity
  8
COTAS
100
AcDbBlockReference
  2
_CLOSEDFILLED
 10
0.685
 20
0.865
 30
0.0
 41
0.007
 42
0.007
 50
180.0
  0
LINE
  5
C9
330
C0
100
AcDbEntity
  8
0
100
AcDbLine
 10
0.638
 20
0.865
 30
0.0
 11
0.631
 21
0.865
 31
0.0
  0
LINE
  5
CA
330
C0
100
AcDbEntity
  8
0
100
AcDbLine
 10
0.6920000000000001
 20
0.865
 30
0.0
 11
0.6990000000000001
 21
0.865
 31
0.0
  0
LINE
  5
CB
330
C0
100
AcDbEntity
  8
0
100
AcDbLine
 10
0.645
 20
0.865
 30
0.0
 11
0.685
 21
0.865
 31
0.0
  0
MTEXT
  5
CC
330
C0
100
AcDbEntity
  8
COTAS
100
AcDbMText
 10
0.665
 20
1.4965
 30
0.0
 40
0.013
 71
5
  1
0,04
  0
POINT
  5
CD
330
C0
100
AcDbEntity
  8
Defpoints
100
AcDbPoint
 10
0.645
 20
0.865
 30
0.0
  0
POINT
  5
CE
330
C0
100
AcDbEntity
  8
Defpoints
100
AcDbPoint
 10
0.645
 20
0.865
 30
0.0
  0
POINT
  5
CF
330
C0
100
AcDbEntity
  8
Defpoints
100
AcDbPoint
 10
0.685
 20
0.865
 30
0.0
  0
ENDBLK
  5
C2
330
C0
100
AcDbEntity
  8
0
100
AcDbBlockEnd
  0
BLOCK
  5
E2
330
E1
100
AcDbEntity
  8
0
100
AcDbBlockBegin
  2
*D5
 70
1
 10
0.0
 20
0.0
 30
0.0
  3
*D5
  1

  0
LINE
  5
E4
330
E1
100
AcDbEntity
  8
0
100
AcDbLine
 10
10.43
 20
2.47
 30
0.0
 11
10.43
 21
2.47
 31
0.0
  0
LINE
  5
E5
330
E1
100
AcDbEntity
  8
0
100
AcDbLine
 10
10.43
 20
2.5
 30
0.0
 11
10.43
 21
2.5
 31
0.0
  0
INSERT
  5
E6
330
E1
100
AcDbEntity
  8
COTAS
100
AcDbBlockReference
  2
_CLOSEDFILLED
 10
10.43
 20
2.47
 30
0.0
 41
0.007
 42
0.007
 50
90.0
  0
INSERT
  5
E8
330
E1
100
AcDbEntity
  8
COTAS
100
AcDbBlockReference
  2
_CLOSEDFILLED
 10
10.43
 20
2.5
 30
0.0
 41
0.007
 42
0.007
 50
270.0
  0
LINE
  5
EA
330
E1
100
AcDbEntity
  8
0
100
AcDbLine
 10
10.43
 20
2.463
 30
0.0
 11
10.43
 21
2.4560000000000004
 31
0.0
  0
LINE
  5
EB
330
E1
100
AcDbEntity
  8
0
100
AcDbLine
 10
10.43
 20
2.507
 30
0.0
 11
10.43
 21
2.514
 31
0.0
  0
LINE
  5
EC
330
E1
100
AcDbEntity
  8
0
100
AcDbLine
 10
10.43
 20
2.47
 30
0.0
 11
10.43
 21
2.5
 31
0.0
  0
MTEXT
  5
ED
330
E1
100
AcDbEntity
  8
COTAS
100
AcDbMText
 10
9.792
 20
2.4850000000000003
 30
0.0
 40
0.026
 71
5
  1
0,03
 50
90.0
  0
POINT
  5
EE
330
E1
100
AcDbEntity
  8
Defpoints
100
AcDbPoint
 10
10.43
 20
2.47
 30
0.0
  0
POINT
  5
EF
330
E1
100
AcDbEntity
  8
Defpoints
100
AcDbPoint
 10
10.43
 20
2.47
 30
0.0
  0
POINT
  5
F0
330
E1
100
AcDbEntity
  8
Defpoints
100
AcDbPoint
 10
10.43
 20
2.5
 30
0.0
  0
ENDBLK
  5
E3
330
E1
100
AcDbEntity
  8
0
100
AcDbBlockEnd
  0
BLOCK
  5
F3
330
F2
100
AcDbEntity
  8
0
100
AcDbBlockBegin
  2
*D6
 70
1
 10
0.0
 20
0.0
 30
0.0
  3
*D6
  1

  0
LINE
  5
F5
330
F2
100
AcDbEntity
  8
0
100
AcDbLine
 10
10.11
 20
0.25
 30
0.0
 11
9.42
 21
0.25
 31
0.0
  0
LINE
  5
F6
330
F2
100
AcDbEntity
  8
0
100
AcDbLine
 10
10.11
 20
2.47
 30
0.0
 11
9.42
 21
2.47
 31
0.0
  0
INSERT
  5
F7
330
F2
100
AcDbEntity
  8
COTAS
100
AcDbBlockReference
  2
_CLOSEDFILLED
 10
9.42
 20
0.25
 30
0.0
 41
0.007
 42
0.007
 50
270.0
  0
INSERT
  5
F9
330
F2
100
AcDbEntity
  8
COTAS
100
AcDbBlockReference
  2
_CLOSEDFILLED
 10
9.42
 20
2.47
 30
0.0
 41
0.007
 42
0.007
 50
90.0
  0
LINE
  5
FB
330
F2
100
AcDbEntity
  8
0
100
AcDbLine
 10
9.42
 20
0.257
 30
0.0
 11
9.42
 21
1.3080000000000003
 31
0.0
  0
LINE
  5
FC
330
F2
100
AcDbEntity
  8
0
100
AcDbLine
 10
9.42
 20
1.412
 30
0.0
 11
9.42
 21
2.463
 31
0.0
  0
MTEXT
  5
FD
330
F2
100
AcDbEntity
  8
COTAS
100
AcDbMText
 10
9.42
 20
1.36
 30
0.0
 40
0.026
 71
5
  1
2,22
 50
90.0
  0
POINT
  5
FE
330
F2
100
AcDbEntity
  8
Defpoints
100
AcDbPoint
 10
9.42
 20
0.25
 30
0.0
  0
POINT
  5
FF
330
F2
100
AcDbEntity
  8
Defpoints
100
AcDbPoint
 10
10.11
 20
0.25
 30
0.0
  0
POINT
  5
100
330
F2
100
AcDbEntity
  8
Defpoints
100
AcDbPoint
 10
10.11
 20
2.47
 30
0.0
  0
ENDBLK
  5
F4
330
F2
100
AcDbEntity
  8
0
100
AcDbBlockEnd
  0
BLOCK
  5
103
330
102
100
AcDbEntity
  8
0
100
AcDbBlockBegin
  2
*D7
 70
1
 10
0.0
 20
0.0
 30
0.0
  3
*D7
  1

  0
LINE
  5
105
330
102
100
AcDbEntity
  8
0
100
AcDbLine
 10
10.145
 20
0.26
 30
0.0
 11
9.82
 21
0.26
 31
0.0
  0
LINE
  5
106
330
102
100
AcDbEntity
  8
0
100
AcDbLine
 10
10.145
 20
2.5
 30
0.0
 11
9.82
 21
2.5
 31
0.0
  0
INSERT
  5
107
330
102
100
AcDbEntity
  8
COTAS
100
AcDbBlockReference
  2
_CLOSEDFILLED
 10
9.82
 20
0.26
 30
0.0
 41
0.007
 42
0.007
 50
270.0
  0
INSERT
  5
109
330
102
100
AcDbEntity
  8
COTAS
100
AcDbBlockReference
  2
_CLOSEDFILLED
 10
9.82
 20
2.5
 30
0.0
 41
0.007
 42
0.007
 50
90.0
  0
LINE
  5
10B
330
102
100
AcDbEntity
  8
0
100
AcDbLine
 10
9.82
 20
0.267
 30
0.0
 11
9.82
 21
1.3280000000000003
 31
0.0
  0
LINE
  5
10C
330
102
100
AcDbEntity
  8
0
100
AcDbLine
 10
9.82
 20
1.4320000000000004
 30
0.0
 11
9.82
 21
2.493
 31
0.0
  0
MTEXT
  5
10D
330
102
100
AcDbEntity
  8
COTAS
100
AcDbMText
 10
9.82
 20
1.3800000000000001
 30
0.0
 40
0.026
 71
5
  1
2,24
 50
90.0
  0
POINT
  5
10E
330
102
100
AcDbEntity
  8
Defpoints
100
AcDbPoint
 10
9.82
 20
0.26
 30
0.0
  0
POINT
  5
10F
330
102
100
AcDbEntity
  8
Defpoints
100
AcDbPoint
 10
10.145
 20
0.26
 30
0.0
  0
POINT
  5
110
330
102
100
AcDbEntity
  8
Defpoints
100
AcDbPoint
 10
10.145
 20
2.5
 30
0.0
  0
ENDBLK
  5
104
330
102
100
AcDbEntity
  8
0
100
AcDbBlockEnd
  0
BLOCK
  5
113
330
112
100
AcDbEntity
  8
0
100
AcDbBlockBegin
  2
*D8
 70
1
 10
0.0
 20
0.0
 30
0.0
  3
*D8
  1

  0
LINE
  5
115
330
112
100
AcDbEntity
  8
0
100
AcDbLine
 10
10.145
 20
1.85
 30
0.0
 11
10.145
 21
1.85
 31
0.0
  0
LINE
  5
116
330
112
100
AcDbEntity
  8
0
100
AcDbLine
 10
10.185
 20
1.85
 30
0.0
 11
10.185
 21
1.85
 31
0.0
  0
INSERT
  5
117
330
112
100
AcDbEntity
  8
COTAS
100
AcDbBlockReference
  2
_CLOSEDFILLED
 10
10.145
 20
1.85
 30
0.0
 41
0.007
 42
0.007
  0
INSERT
  5
119
330
112
100
AcDbEntity
  8
COTAS
100
AcDbBlockReference
  2
_CLOSEDFILLED
 10
10.185
 20
1.85
 30
0.0
 41
0.007
 42
0.007
 50
180.0
  0
LINE
  5
11B
330
112
100
AcDbEntity
  8
0
100
AcDbLine
 10
10.138
 20
1.85
 30
0.0
 11
10.131
 21
1.85
 31
0.0
  0
LINE
  5
11C
330
112
100
AcDbEntity
  8
0
100
AcDbLine
 10
10.192
 20
1.85
 30
0.0
 11
10.199
 21
1.85
 31
0.0
  0
LINE
  5
11D
330
112
100
AcDbEntity
  8
0
100
AcDbLine
 10
10.145
 20
1.85
 30
0.0
 11
10.185
 21
1.85
 31
0.0
  0
MTEXT
  5
11E
330
112
100
AcDbEntity
  8
COTAS
100
AcDbMText
 10
10.165
 20
2.488
 30
0.0
 40
0.026
 71
5
  1
0,04
  0
POINT
  5
11F
330
112
100
AcDbEntity
  8
Defpoints
100
AcDbPoint
 10
10.145
 20
1.85
 30
0.0
  0
POINT
  5
120
330
112
100
AcDbEntity
  8
Defpoints
100
AcDbPoint
 10
10.145
 20
1.85
 30
0.0
  0
POINT
  5
121
330
112
100
AcDbEntity
  8
Defpoints
100
AcDbPoint
 10
10.185
 20
1.85
 30
0.0
  0
ENDBLK
  5
114
330
112
100
AcDbEntity
  8
0
100
AcDbBlockEnd
  0
BLOCK
  5
12B
330
12A
100
AcDbEntity
  8
0
100
AcDbBlockBegin
  2
*D9
 70
1
 10
0.0
 20
0.0
 30
0.0
  3
*D9
  1

  0
LINE
  5
12D
330
12A
100
AcDbEntity
  8
0
100
AcDbLine
 10
20.056
 20
0.175
 30
0.0
 11
20.056
 21
0.175
 31
0.0
  0
LINE
  5
12E
330
12A
100
AcDbEntity
  8
0
100
AcDbLine
 10
20.09
 20
0.175
 30
0.0
 11
20.09
 21
0.175
 31
0.0
  0
INSERT
  5
12F
330
12A
100
AcDbEntity
  8
COTAS
100
AcDbBlockReference
  2
_CLOSEDFILLED
 10
20.056
 20
0.175
 30
0.0
 41
0.007
 42
0.007
  0
INSERT
  5
131
330
12A
100
AcDbEntity
  8
COTAS
100
AcDbBlockReference
  2
_CLOSEDFILLED
 10
20.09
 20
0.175
 30
0.0
 41
0.007
 42
0.007
 50
180.0
  0
LINE
  5
133
330
12A
100
AcDbEntity
  8
0
100
AcDbLine
 10
20.049
 20
0.175
 30
0.0
 11
20.042
 21
0.175
 31
0.0
  0
LINE
  5
134
330
12A
100
AcDbEntity
  8
0
100
AcDbLine
 10
20.097
 20
0.175
 30
0.0
 11
20.104
 21
0.175
 31
0.0
  0
LINE
  5
135
330
12A
100
AcDbEntity
  8
0
100
AcDbLine
 10
20.056
 20
0.175
 30
0.0
 11
20.09
 21
0.175
 31
0.0
  0
MTEXT
  5
136
330
12A
100
AcDbEntity
  8
COTAS
100
AcDbMText
 10
20.073
 20
0.8026
 30
0.0
 40
0.0052
 71
5
  1
0,03
  0
POINT
  5
137
330
12A
100
AcDbEntity
  8
Defpoints
100
AcDbPoint
 10
20.056
 20
0.175
 30
0.0
  0
POINT
  5
138
330
12A
100
AcDbEntity
  8
Defpoints
100
AcDbPoint
 10
20.056
 20
0.175
 30
0.0
  0
POINT
  5
139
330
12A
100
AcDbEntity
  8
Defpoints
100
AcDbPoint
 10
20.09
 20
0.175
 30
0.0
  0
ENDBLK
  5
12C
330
12A
100
AcDbEntity
  8
0
100
AcDbBlockEnd
  0
BLOCK
  5
13C
330
13B
100
AcDbEntity
  8
0
100
AcDbBlockBegin
  2
*D10
 70
1
 10
0.0
 20
0.0
 30
0.0
  3
*D10
  1

  0
LINE
  5
13E
330
13B
100
AcDbEntity
  8
0
100
AcDbLine
 10
20.16
 20
0.055
 30
0.0
 11
20.16
 21
0.055
 31
0.0
  0
LINE
  5
13F
330
13B
100
AcDbEntity
  8
0
100
AcDbLine
 10
20.16
 20
0.09
 30
0.0
 11
20.16
 21
0.09
 31
0.0
  0
INSERT
  5
140
330
13B
100
AcDbEntity
  8
COTAS
100
AcDbBlockReference
  2
_CLOSEDFILLED
 10
20.16
 20
0.055
 30
0.0
 41
0.007
 42
0.007
 50
90.0
  0
INSERT
  5
142
330
13B
100
AcDbEntity
  8
COTAS
100
AcDbBlockReference
  2
_CLOSEDFILLED
 10
20.16
 20
0.09
 30
0.0
 41
0.007
 42
0.007
 50
270.0
  0
LINE
  5
144
330
13B
100
AcDbEntity
  8
0
100
AcDbLine
 10
20.16
 20
0.048
 30
0.0
 11
20.16
 21
0.041
 31
0.0
  0
LINE
  5
145
330
13B
100
AcDbEntity
  8
0
100
AcDbLine
 10
20.16
 20
0.097
 30
0.0
 11
20.16
 21
0.104
 31
0.0
  0
LINE
  5
146
330
13B
100
AcDbEntity
  8
0
100
AcDbLine
 10
20.16
 20
0.055
 30
0.0
 11
20.16
 21
0.062099999999999995
 31
0.0
  0
LINE
  5
147
330
13B
100
AcDbEntity
  8
0
100
AcDbLine
 10
20.16
 20
0.0829
 30
0.0
 11
20.16
 21
0.09
 31
0.0
  0
MTEXT
  5
148
330
13B
100
AcDbEntity
  8
COTAS
100
AcDbMText
 10
20.16
 20
0.0725
 30
0.0
 40
0.0052
 71
5
  1
0,03
 50
90.0
  0
POINT
  5
149
330
13B
100
AcDbEntity
  8
Defpoints
100
AcDbPoint
 10
20.16
 20
0.055
 30
0.0
  0
POINT
  5
14A
330
13B
100
AcDbEntity
  8
Defpoints
100
AcDbPoint
 10
20.16
 20
0.055
 30
0.0
  0
POINT
  5
14B
330
13B
100
AcDbEntity
  8
Defpoints
100
AcDbPoint
 10
20.16
 20
0.09
 30
0.0
  0
ENDBLK
  5
13D
330
13B
100
AcDbEntity
  8
0
100
AcDbBlockEnd
  0
ENDSEC
  0
SECTION
  2
ENTITIES
  0
LWPOLYLINE
  5
34
330
17
100
AcDbEntity
  8
G_MEDIDO
100
AcDbPolyline
 90
4
 70
1
 10
0.0
 20
0.1
 10
1.2
 20
0.1
 10
1.2
 20
0.3
 10
0.0
 20
0.3
  0
LINE
  5
35
330
17
100
AcDbEntity
  8
G_MEDIDO
100
AcDbLine
 10
0.0
 20
0.3
 30
0.0
 11
0.0
 21
0.3
 31
0.0
  0
LINE
  5
36
330
17
100
AcDbEntity
  8
G_MEDIDO
100
AcDbLine
 10
0.0
 20
0.255
 30
0.0
 11
0.045
 21
0.3
 31
0.0
  0
LINE
  5
37
330
17
100
AcDbEntity
  8
G_MEDIDO
100
AcDbLine
 10
0.0
 20
0.21
 30
0.0
 11
0.09
 21
0.3
 31
0.0
  0
LINE
  5
38
330
17
100
AcDbEntity
  8
G_MEDIDO
100
AcDbLine
 10
0.0
 20
0.165
 30
0.0
 11
0.135
 21
0.3
 31
0.0
  0
LINE
  5
39
330
17
100
AcDbEntity
  8
G_MEDIDO
100
AcDbLine
 10
0.0
 20
0.12
 30
0.0
 11
0.18
 21
0.3
 31
0.0
  0
LINE
  5
3A
330
17
100
AcDbEntity
  8
G_MEDIDO
100
AcDbLine
 10
0.025
 20
0.1
 30
0.0
 11
0.225
 21
0.3
 31
0.0
  0
LINE
  5
3B
330
17
100
AcDbEntity
  8
G_MEDIDO
100
AcDbLine
 10
0.07
 20
0.1
 30
0.0
 11
0.27
 21
0.3
 31
0.0
  0
LINE
  5
3C
330
17
100
AcDbEntity
  8
G_MEDIDO
100
AcDbLine
 10
0.115
 20
0.1
 30
0.0
 11
0.315
 21
0.3
 31
0.0
  0
LINE
  5
3D
330
17
100
AcDbEntity
  8
G_MEDIDO
100
AcDbLine
 10
0.16
 20
0.1
 30
0.0
 11
0.36
 21
0.3
 31
0.0
  0
LINE
  5
3E
330
17
100
AcDbEntity
  8
G_MEDIDO
100
AcDbLine
 10
0.205
 20
0.1
 30
0.0
 11
0.405
 21
0.3
 31
0.0
  0
LINE
  5
3F
330
17
100
AcDbEntity
  8
G_MEDIDO
100
AcDbLine
 10
0.25
 20
0.1
 30
0.0
 11
0.45
 21
0.3
 31
0.0
  0
LINE
  5
40
330
17
100
AcDbEntity
  8
G_MEDIDO
100
AcDbLine
 10
0.295
 20
0.1
 30
0.0
 11
0.495
 21
0.3
 31
0.0
  0
LINE
  5
41
330
17
100
AcDbEntity
  8
G_MEDIDO
100
AcDbLine
 10
0.34
 20
0.1
 30
0.0
 11
0.54
 21
0.3
 31
0.0
  0
LINE
  5
42
330
17
100
AcDbEntity
  8
G_MEDIDO
100
AcDbLine
 10
0.385
 20
0.1
 30
0.0
 11
0.585
 21
0.3
 31
0.0
  0
LINE
  5
43
330
17
100
AcDbEntity
  8
G_MEDIDO
100
AcDbLine
 10
0.43
 20
0.1
 30
0.0
 11
0.63
 21
0.3
 31
0.0
  0
LINE
  5
44
330
17
100
AcDbEntity
  8
G_MEDIDO
100
AcDbLine
 10
0.475
 20
0.1
 30
0.0
 11
0.675
 21
0.3
 31
0.0
  0
LINE
  5
45
330
17
100
AcDbEntity
  8
G_MEDIDO
100
AcDbLine
 10
0.52
 20
0.1
 30
0.0
 11
0.72
 21
0.3
 31
0.0
  0
LINE
  5
46
330
17
100
AcDbEntity
  8
G_MEDIDO
100
AcDbLine
 10
0.565
 20
0.1
 30
0.0
 11
0.765
 21
0.3
 31
0.0
  0
LINE
  5
47
330
17
100
AcDbEntity
  8
G_MEDIDO
100
AcDbLine
 10
0.61
 20
0.1
 30
0.0
 11
0.81
 21
0.3
 31
0.0
  0
LINE
  5
48
330
17
100
AcDbEntity
  8
G_MEDIDO
100
AcDbLine
 10
0.655
 20
0.1
 30
0.0
 11
0.855
 21
0.3
 31
0.0
  0
LINE
  5
49
330
17
100
AcDbEntity
  8
G_MEDIDO
100
AcDbLine
 10
0.7
 20
0.1
 30
0.0
 11
0.9
 21
0.3
 31
0.0
  0
LINE
  5
4A
330
17
100
AcDbEntity
  8
G_MEDIDO
100
AcDbLine
 10
0.745
 20
0.1
 30
0.0
 11
0.945
 21
0.3
 31
0.0
  0
LINE
  5
4B
330
17
100
AcDbEntity
  8
G_MEDIDO
100
AcDbLine
 10
0.79
 20
0.1
 30
0.0
 11
0.99
 21
0.3
 31
0.0
  0
LINE
  5
4C
330
17
100
AcDbEntity
  8
G_MEDIDO
100
AcDbLine
 10
0.835
 20
0.1
 30
0.0
 11
1.035
 21
0.3
 31
0.0
  0
LINE
  5
4D
330
17
100
AcDbEntity
  8
G_MEDIDO
100
AcDbLine
 10
0.88
 20
0.1
 30
0.0
 11
1.08
 21
0.3
 31
0.0
  0
LINE
  5
4E
330
17
100
AcDbEntity
  8
G_MEDIDO
100
AcDbLine
 10
0.925
 20
0.1
 30
0.0
 11
1.125
 21
0.3
 31
0.0
  0
LINE
  5
4F
330
17
100
AcDbEntity
  8
G_MEDIDO
100
AcDbLine
 10
0.97
 20
0.1
 30
0.0
 11
1.17
 21
0.3
 31
0.0
  0
LINE
  5
50
330
17
100
AcDbEntity
  8
G_MEDIDO
100
AcDbLine
 10
1.015
 20
0.1
 30
0.0
 11
1.2
 21
0.285
 31
0.0
  0
LINE
  5
51
330
17
100
AcDbEntity
  8
G_MEDIDO
100
AcDbLine
 10
1.06
 20
0.1
 30
0.0
 11
1.2
 21
0.24
 31
0.0
  0
LINE
  5
52
330
17
100
AcDbEntity
  8
G_MEDIDO
100
AcDbLine
 10
1.105
 20
0.1
 30
0.0
 11
1.2
 21
0.195
 31
0.0
  0
LINE
  5
53
330
17
100
AcDbEntity
  8
G_MEDIDO
100
AcDbLine
 10
1.15
 20
0.1
 30
0.0
 11
1.2
 21
0.15
 31
0.0
  0
LINE
  5
54
330
17
100
AcDbEntity
  8
G_MEDIDO
100
AcDbLine
 10
1.195
 20
0.1
 30
0.0
 11
1.2
 21
0.105
 31
0.0
  0
LWPOLYLINE
  5
55
330
17
100
AcDbEntity
  8
G_MEDIDO
100
AcDbPolyline
 90
4
 70
1
 10
0.0
 20
0.3
 10
1.2
 20
0.3
 10
1.2
 20
0.35
 10
0.0
 20
0.35
  0
LWPOLYLINE
  5
56
330
17
100
AcDbEntity
  8
G_MEDIDO
100
AcDbPolyline
 90
4
 70
1
 10
0.0
 20
0.3
 10
1.2
 20
0.3
 10
1.2
 20
0.33
 10
0.0
 20
0.33
  0
LINE
  5
57
330
17
100
AcDbEntity
  8
G_MEDIDO
100
AcDbLine
 10
0.0
 20
0.33
 30
0.0
 11
0.0
 21
0.33
 31
0.0
  0
LINE
  5
58
330
17
100
AcDbEntity
  8
G_MEDIDO
100
AcDbLine
 10
0.0
 20
0.3
 30
0.0
 11
0.03
 21
0.33
 31
0.0
  0
LINE
  5
59
330
17
100
AcDbEntity
  8
G_MEDIDO
100
AcDbLine
 10
0.03
 20
0.3
 30
0.0
 11
0.06
 21
0.33
 31
0.0
  0
LINE
  5
5A
330
17
100
AcDbEntity
  8
G_MEDIDO
100
AcDbLine
 10
0.06
 20
0.3
 30
0.0
 11
0.09
 21
0.33
 31
0.0
  0
LINE
  5
5B
330
17
100
AcDbEntity
  8
G_MEDIDO
100
AcDbLine
 10
0.09
 20
0.3
 30
0.0
 11
0.12
 21
0.33
 31
0.0
  0
LINE
  5
5C
330
17
100
AcDbEntity
  8
G_MEDIDO
100
AcDbLine
 10
0.12
 20
0.3
 30
0.0
 11
0.15
 21
0.33
 31
0.0
  0
LINE
  5
5D
330
17
100
AcDbEntity
  8
G_MEDIDO
100
AcDbLine
 10
0.15
 20
0.3
 30
0.0
 11
0.18
 21
0.33
 31
0.0
  0
LINE
  5
5E
330
17
100
AcDbEntity
  8
G_MEDIDO
100
AcDbLine
 10
0.18
 20
0.3
 30
0.0
 11
0.21
 21
0.33
 31
0.0
  0
LINE
  5
5F
330
17
100
AcDbEntity
  8
G_MEDIDO
100
AcDbLine
 10
0.21
 20
0.3
 30
0.0
 11
0.24
 21
0.33
 31
0.0
  0
LINE
  5
60
330
17
100
AcDbEntity
  8
G_MEDIDO
100
AcDbLine
 10
0.24
 20
0.3
 30
0.0
 11
0.27
 21
0.33
 31
0.0
  0
LINE
  5
61
330
17
100
AcDbEntity
  8
G_MEDIDO
100
AcDbLine
 10
0.27
 20
0.3
 30
0.0
 11
0.3
 21
0.33
 31
0.0
  0
LINE
  5
62
330
17
100
AcDbEntity
  8
G_MEDIDO
100
AcDbLine
 10
0.3
 20
0.3
 30
0.0
 11
0.33
 21
0.33
 31
0.0
  0
LINE
  5
63
330
17
100
AcDbEntity
  8
G_MEDIDO
100
AcDbLine
 10
0.33
 20
0.3
 30
0.0
 11
0.36
 21
0.33
 31
0.0
  0
LINE
  5
64
330
17
100
AcDbEntity
  8
G_MEDIDO
100
AcDbLine
 10
0.36
 20
0.3
 30
0.0
 11
0.39
 21
0.33
 31
0.0
  0
LINE
  5
65
330
17
100
AcDbEntity
  8
G_MEDIDO
100
AcDbLine
 10
0.39
 20
0.3
 30
0.0
 11
0.42
 21
0.33
 31
0.0
  0
LINE
  5
66
330
17
100
AcDbEntity
  8
G_MEDIDO
100
AcDbLine
 10
0.42
 20
0.3
 30
0.0
 11
0.45
 21
0.33
 31
0.0
  0
LINE
  5
67
330
17
100
AcDbEntity
  8
G_MEDIDO
100
AcDbLine
 10
0.45
 20
0.3
 30
0.0
 11
0.48
 21
0.33
 31
0.0
  0
LINE
  5
68
330
17
100
AcDbEntity
  8
G_MEDIDO
100
AcDbLine
 10
0.48
 20
0.3
 30
0.0
 11
0.51
 21
0.33
 31
0.0
  0
LINE
  5
69
330
17
100
AcDbEntity
  8
G_MEDIDO
100
AcDbLine
 10
0.51
 20
0.3
 30
0.0
 11
0.54
 21
0.33
 31
0.0
  0
LINE
  5
6A
330
17
100
AcDbEntity
  8
G_MEDIDO
100
AcDbLine
 10
0.54
 20
0.3
 30
0.0
 11
0.57
 21
0.33
 31
0.0
  0
LINE
  5
6B
330
17
100
AcDbEntity
  8
G_MEDIDO
100
AcDbLine
 10
0.57
 20
0.3
 30
0.0
 11
0.6
 21
0.33
 31
0.0
  0
LINE
  5
6C
330
17
100
AcDbEntity
  8
G_MEDIDO
100
AcDbLine
 10
0.6
 20
0.3
 30
0.0
 11
0.63
 21
0.33
 31
0.0
  0
LINE
  5
6D
330
17
100
AcDbEntity
  8
G_MEDIDO
100
AcDbLine
 10
0.63
 20
0.3
 30
0.0
 11
0.66
 21
0.33
 31
0.0
  0
LINE
  5
6E
330
17
100
AcDbEntity
  8
G_MEDIDO
100
AcDbLine
 10
0.66
 20
0.3
 30
0.0
 11
0.69
 21
0.33
 31
0.0
  0
LINE
  5
6F
330
17
100
AcDbEntity
  8
G_MEDIDO
100
AcDbLine
 10
0.69
 20
0.3
 30
0.0
 11
0.72
 21
0.33
 31
0.0
  0
LINE
  5
70
330
17
100
AcDbEntity
  8
G_MEDIDO
100
AcDbLine
 10
0.72
 20
0.3
 30
0.0
 11
0.75
 21
0.33
 31
0.0
  0
LINE
  5
71
330
17
100
AcDbEntity
  8
G_MEDIDO
100
AcDbLine
 10
0.75
 20
0.3
 30
0.0
 11
0.78
 21
0.33
 31
0.0
  0
LINE
  5
72
330
17
100
AcDbEntity
  8
G_MEDIDO
100
AcDbLine
 10
0.78
 20
0.3
 30
0.0
 11
0.81
 21
0.33
 31
0.0
  0
LINE
  5
73
330
17
100
AcDbEntity
  8
G_MEDIDO
100
AcDbLine
 10
0.81
 20
0.3
 30
0.0
 11
0.84
 21
0.33
 31
0.0
  0
LINE
  5
74
330
17
100
AcDbEntity
  8
G_MEDIDO
100
AcDbLine
 10
0.84
 20
0.3
 30
0.0
 11
0.87
 21
0.33
 31
0.0
  0
LINE
  5
75
330
17
100
AcDbEntity
  8
G_MEDIDO
100
AcDbLine
 10
0.87
 20
0.3
 30
0.0
 11
0.9
 21
0.33
 31
0.0
  0
LINE
  5
76
330
17
100
AcDbEntity
  8
G_MEDIDO
100
AcDbLine
 10
0.9
 20
0.3
 30
0.0
 11
0.93
 21
0.33
 31
0.0
  0
LINE
  5
77
330
17
100
AcDbEntity
  8
G_MEDIDO
100
AcDbLine
 10
0.93
 20
0.3
 30
0.0
 11
0.96
 21
0.33
 31
0.0
  0
LINE
  5
78
330
17
100
AcDbEntity
  8
G_MEDIDO
100
AcDbLine
 10
0.96
 20
0.3
 30
0.0
 11
0.99
 21
0.33
 31
0.0
  0
LINE
  5
79
330
17
100
AcDbEntity
  8
G_MEDIDO
100
AcDbLine
 10
0.99
 20
0.3
 30
0.0
 11
1.02
 21
0.33
 31
0.0
  0
LINE
  5
7A
330
17
100
AcDbEntity
  8
G_MEDIDO
100
AcDbLine
 10
1.02
 20
0.3
 30
0.0
 11
1.05
 21
0.33
 31
0.0
  0
LINE
  5
7B
330
17
100
AcDbEntity
  8
G_MEDIDO
100
AcDbLine
 10
1.05
 20
0.3
 30
0.0
 11
1.08
 21
0.33
 31
0.0
  0
LINE
  5
7C
330
17
100
AcDbEntity
  8
G_MEDIDO
100
AcDbLine
 10
1.08
 20
0.3
 30
0.0
 11
1.11
 21
0.33
 31
0.0
  0
LINE
  5
7D
330
17
100
AcDbEntity
  8
G_MEDIDO
100
AcDbLine
 10
1.11
 20
0.3
 30
0.0
 11
1.14
 21
0.33
 31
0.0
  0
LINE
  5
7E
330
17
100
AcDbEntity
  8
G_MEDIDO
100
AcDbLine
 10
1.14
 20
0.3
 30
0.0
 11
1.17
 21
0.33
 31
0.0
  0
LINE
  5
7F
330
17
100
AcDbEntity
  8
G_MEDIDO
100
AcDbLine
 10
1.17
 20
0.3
 30
0.0
 11
1.2
 21
0.33
 31
0.0
  0
LWPOLYLINE
  5
80
330
17
100
AcDbEntity
  8
G_MEDIDO
100
AcDbPolyline
 90
4
 70
1
 10
0.0
 20
0.33
 10
1.2
 20
0.33
 10
1.2
 20
0.332
 10
0.0
 20
0.332
  0
LWPOLYLINE
  5
81
330
17
100
AcDbEntity
  8
G_MEDIDO
100
AcDbPolyline
 90
4
 70
1
 10
0.0
 20
0.332
 10
1.2
 20
0.332
 10
1.2
 20
0.34
 10
0.0
 20
0.34
  0
LWPOLYLINE
  5
82
330
17
100
AcDbEntity
  8
G_MEDIDO
100
AcDbPolyline
 90
4
 70
1
 10
0.0
 20
0.34
 10
0.61
 20
0.34
 10
0.61
 20
0.35
 10
0.0
 20
0.35
  0
LWPOLYLINE
  5
83
330
17
100
AcDbEntity
  8
G_MEDIDO
100
AcDbPolyline
 90
4
 70
1
 10
0.615
 20
0.34
 10
1.2
 20
0.34
 10
1.2
 20
0.35
 10
0.615
 20
0.35
  0
LWPOLYLINE
  5
84
330
17
100
AcDbEntity
  8
G_MEDIDO
100
AcDbPolyline
 90
4
 70
1
 10
0.61
 20
0.332
 10
0.615
 20
0.332
 10
0.615
 20
0.35
 10
0.61
 20
0.35
  0
LINE
  5
85
330
17
100
AcDbEntity
  8
G_MEDIDO
100
AcDbLine
 10
0.46
 20
0.331
 30
0.0
 11
0.76
 21
0.331
 31
0.0
  0
LWPOLYLINE
  5
86
330
17
100
AcDbEntity
  8
G_MEDIDO
100
AcDbPolyline
 90
4
 70
1
 10
0.645
 20
0.36
 10
0.685
 20
0.36
 10
0.685
 20
0.81
 10
0.645
 20
0.81
  0
DIMENSION
  5
87
330
17
100
AcDbEntity
  8
COTAS
100
AcDbDimension
280
0
  2
*D1
  3
Standard
 10
0.61
 20
0.475
 30
0.0
 11
0.685
 21
0.475
 31
0.0
 70
32
 71
5
  1
<>
100
AcDbAlignedDimension
 13
0.61
 23
0.475
 33
0.0
 14
0.76
 24
0.475
 34
0.0
 50
0.0
100
AcDbRotatedDimension
1001
ACAD
1000
DSTYLE
1002
{
1070
140
1040
0.013
1070
41
1040
0.007
1002
}
  0
DIMENSION
  5
9D
330
17
100
AcDbEntity
  8
COTAS
100
AcDbDimension
280
0
  2
*D2
  3
Standard
 10
1.1
 20
0.3
 30
0.0
 11
0.46850000000000014
 21
0.32499999999999996
 31
0.0
 70
32
 71
5
  1
<>
100
AcDbAlignedDimension
 13
1.1
 23
0.3
 33
0.0
 14
1.1
 24
0.35
 34
0.0
 50
90.0
100
AcDbRotatedDimension
1001
ACAD
1000
DSTYLE
1002
{
1070
140
1040
0.013
1070
41
1040
0.007
1002
}
  0
DIMENSION
  5
AE
330
17
100
AcDbEntity
  8
COTAS
100
AcDbDimension
280
0
  2
*D3
  3
Standard
 10
0.875
 20
0.35
 30
0.0
 11
0.24350000000000005
 21
0.355
 31
0.0
 70
32
 71
5
  1
<>
100
AcDbAlignedDimension
 13
0.875
 23
0.35
 33
0.0
 14
0.875
 24
0.36
 34
0.0
 50
90.0
100
AcDbRotatedDimension
1001
ACAD
1000
DSTYLE
1002
{
1070
140
1040
0.013
1070
41
1040
0.007
1002
}
  0
DIMENSION
  5
BF
330
17
100
AcDbEntity
  8
COTAS
100
AcDbDimension
280
0
  2
*D4
  3
Standard
 10
0.645
 20
0.865
 30
0.0
 11
0.665
 21
1.4965
 31
0.0
 70
32
 71
5
  1
<>
100
AcDbAlignedDimension
 13
0.645
 23
0.865
 33
0.0
 14
0.685
 24
0.865
 34
0.0
 50
0.0
100
AcDbRotatedDimension
1001
ACAD
1000
DSTYLE
1002
{
1070
140
1040
0.013
1070
41
1040
0.007
1002
}
  0
TEXT
  5
D0
330
17
100
AcDbEntity
  8
TEXTOS
100
AcDbText
 10
0.26
 20
0.41
 30
0.0
 40
0.014
  1
BAÑO +3,25 G
100
AcDbText
  0
TEXT
  5
D1
330
17
100
AcDbEntity
  8
TEXTOS
100
AcDbText
 10
0.97
 20
0.41
 30
0.0
 40
0.014
  1
COMEDOR +3,25 G
100
AcDbText
  0
LWPOLYLINE
  5
D2
330
17
100
AcDbEntity
  8
G_MEDIDO
100
AcDbPolyline
 90
4
 70
1
 10
9.97
 20
0.1
 10
10.11
 20
0.1
 10
10.11
 20
0.25
 10
9.97
 20
0.25
  0
LWPOLYLINE
  5
D3
330
17
100
AcDbEntity
  8
G_MEDIDO
100
AcDbPolyline
 90
4
 70
1
 10
9.97
 20
2.51
 10
10.11
 20
2.51
 10
10.11
 20
2.74
 10
9.97
 20
2.74
  0
LINE
  5
D4
330
17
100
AcDbEntity
  8
G_MEDIDO
100
AcDbLine
 10
9.97
 20
0.25
 30
0.0
 11
11.7
 21
0.25
 31
0.0
  0
LWPOLYLINE
  5
D5
330
17
100
AcDbEntity
  8
G_MEDIDO
100
AcDbPolyline
 90
4
 70
1
 10
10.145
 20
0.26
 10
10.185
 20
0.26
 10
10.185
 20
2.5
 10
10.145
 20
2.5
  0
LWPOLYLINE
  5
D6
330
17
100
AcDbEntity
  8
G_MEDIDO
100
AcDbPolyline
 90
4
 70
1
 10
10.156
 20
2.555
 10
10.19
 20
2.555
 10
10.19
 20
2.59
 10
10.156
 20
2.59
  0
LWPOLYLINE
  5
D7
330
17
100
AcDbEntity
  8
G_MEDIDO
100
AcDbPolyline
 90
40
 70
1
 10
10.201
 20
2.611
 10
10.200728055515397
 20
2.614368636898013
 10
10.19991926528089
 20
2.6176500278698307
 10
10.198594576538717
 20
2.620759186612919
 10
10.196788298031473
 20
2.6236155875489975
 10
10.194547211423702
 20
2.62614525139422
 10
10.191929359681355
 20
2.628282661183767
 10
10.189002543789464
 20
2.6299724591268183
 10
10.185842566742245
 20
2.631170880344259
 10
10.182531270285361
 20
2.631846886356059
 10
10.179154415257702
 20
2.631982968961603
 10
10.175799460430703
 20
2.6315756036928875
 10
10.172553297372106
 20
2.630635341096394
 10
10.1695
 20
2.6291865334794733
 10
10.166718647112496
 20
2.627266704198381
 10
10.164281274288406
 20
2.6249255758230565
 10
10.16225100820358
 20
2.622223782348684
 10
10.160680431683165
 20
2.619231298807062
 10
10.159610221834052
 20
2.6160256289500388
 10
10.159068096529182
 20
2.6126897979430512
 10
10.159068096529182
 20
2.6093102020569487
 10
10.159610221834052
 20
2.6059743710499617
 10
10.160680431683165
 20
2.6027687011929386
 10
10.16225100820358
 20
2.599776217651316
 10
10.164281274288406
 20
2.5970744241769435
 10
10.166718647112496
 20
2.594733295801619
 10
10.1695
 20
2.5928134665205267
 10
10.172553297372106
 20
2.5913646589036063
 10
10.175799460430703
 20
2.5904243963071125
 10
10.179154415257702
 20
2.5900170310383968
 10
10.182531270285361
 20
2.590153113643941
 10
10.185842566742245
 20
2.590829119655741
 10
10.189002543789464
 20
2.5920275408731817
 10
10.191929359681355
 20
2.593717338816233
 10
10.194547211423702
 20
2.59585474860578
 10
10.196788298031473
 20
2.5983844124510025
 10
10.198594576538717
 20
2.601240813387081
 10
10.19991926528089
 20
2.6043499721301693
 10
10.200728055515397
 20
2.607631363101987
 10
10.201
 20
2.611
  0
LWPOLYLINE
  5
D8
330
17
100
AcDbEntity
  8
G_MEDIDO
100
AcDbPolyline
 90
4
 70
1
 10
10.194
 20
2.465
 10
10.203
 20
2.465
 10
10.203
 20
2.603
 10
10.194
 20
2.603
  0
LWPOLYLINE
  5
D9
330
17
100
AcDbEntity
  8
G_MEDIDO
100
AcDbPolyline
 90
4
 70
1
 10
10.17
 20
2.4705
 10
10.203
 20
2.4705
 10
10.203
 20
2.4775
 10
10.17
 20
2.4775
  0
LWPOLYLINE
  5
DA
330
17
100
AcDbEntity
  8
G_MEDIDO
100
AcDbPolyline
 90
4
 70
1
 10
10.17
 20
2.4905
 10
10.203
 20
2.4905
 10
10.203
 20
2.4975
 10
10.17
 20
2.4975
  0
LINE
  5
DB
330
17
100
AcDbEntity
  8
G_MEDIDO
100
AcDbLine
 10
10.107
 20
2.53
 30
0.0
 11
10.115
 21
2.53
 31
0.0
  0
LINE
  5
DC
330
17
100
AcDbEntity
  8
G_MEDIDO
100
AcDbLine
 10
10.115
 20
2.53
 30
0.0
 11
10.115
 21
2.61
 31
0.0
  0
LINE
  5
DD
330
17
100
AcDbEntity
  8
G_MEDIDO
100
AcDbLine
 10
10.115
 20
2.61
 30
0.0
 11
10.165
 21
2.61
 31
0.0
  0
LWPOLYLINE
  5
DE
330
17
100
AcDbEntity
  8
G_MEDIDO
100
AcDbPolyline
 90
4
 70
1
 10
10.08
 20
2.564
 10
10.178
 20
2.564
 10
10.178
 20
2.576
 10
10.08
 20
2.576
  0
LINE
  5
DF
330
17
100
AcDbEntity
  8
G_MEDIDO
100
AcDbLine
 10
10.11
 20
2.47
 30
0.0
 11
10.21
 21
2.47
 31
0.0
  0
DIMENSION
  5
E0
330
17
100
AcDbEntity
  8
COTAS
100
AcDbDimension
280
0
  2
*D5
  3
Standard
 10
10.43
 20
2.47
 30
0.0
 11
9.792
 21
2.4850000000000003
 31
0.0
 70
32
 71
5
  1
<>
100
AcDbAlignedDimension
 13
10.43
 23
2.47
 33
0.0
 14
10.43
 24
2.5
 34
0.0
 50
90.0
100
AcDbRotatedDimension
1001
ACAD
1000
DSTYLE
1002
{
1070
140
1040
0.026
1070
41
1040
0.007
1002
}
  0
DIMENSION
  5
F1
330
17
100
AcDbEntity
  8
COTAS
100
AcDbDimension
280
0
  2
*D6
  3
Standard
 10
9.42
 20
0.25
 30
0.0
 11
9.42
 21
1.36
 31
0.0
 70
32
 71
5
  1
<>
100
AcDbAlignedDimension
 13
10.11
 23
0.25
 33
0.0
 14
10.11
 24
2.47
 34
0.0
 50
90.0
100
AcDbRotatedDimension
1001
ACAD
1000
DSTYLE
1002
{
1070
140
1040
0.026
1070
41
1040
0.007
1002
}
  0
DIMENSION
  5
101
330
17
100
AcDbEntity
  8
COTAS
100
AcDbDimension
280
0
  2
*D7
  3
Standard
 10
9.82
 20
0.26
 30
0.0
 11
9.82
 21
1.3800000000000001
 31
0.0
 70
32
 71
5
  1
<>
100
AcDbAlignedDimension
 13
10.145
 23
0.26
 33
0.0
 14
10.145
 24
2.5
 34
0.0
 50
90.0
100
AcDbRotatedDimension
1001
ACAD
1000
DSTYLE
1002
{
1070
140
1040
0.026
1070
41
1040
0.007
1002
}
  0
DIMENSION
  5
111
330
17
100
AcDbEntity
  8
COTAS
100
AcDbDimension
280
0
  2
*D8
  3
Standard
 10
10.145
 20
1.85
 30
0.0
 11
10.165
 21
2.488
 31
0.0
 70
32
 71
5
  1
<>
100
AcDbAlignedDimension
 13
10.145
 23
1.85
 33
0.0
 14
10.185
 24
1.85
 34
0.0
 50
0.0
100
AcDbRotatedDimension
1001
ACAD
1000
DSTYLE
1002
{
1070
140
1040
0.026
1070
41
1040
0.007
1002
}
  0
LWPOLYLINE
  5
122
330
17
100
AcDbEntity
  8
G_MEDIDO
100
AcDbPolyline
 90
4
 70
1
 10
20.056
 20
0.055
 10
20.09
 20
0.055
 10
20.09
 20
0.09
 10
20.056
 20
0.09
  0
LWPOLYLINE
  5
123
330
17
100
AcDbEntity
  8
G_MEDIDO
100
AcDbPolyline
 90
40
 70
1
 10
20.101
 20
0.111
 10
20.100728055515397
 20
0.11436863689801297
 10
20.09991926528089
 20
0.11765002786983092
 10
20.098594576538716
 20
0.12075918661291914
 10
20.096788298031473
 20
0.12361558754899755
 10
20.094547211423702
 20
0.12614525139422011
 10
20.091929359681355
 20
0.12828266118376677
 10
20.089002543789466
 20
0.129972459126818
 10
20.085842566742244
 20
0.1311708803442588
 10
20.08253127028536
 20
0.13184688635605915
 10
20.0791544152577
 20
0.13198296896160297
 10
20.0757994604307
 20
0.13157560369288762
 10
20.072553297372107
 20
0.13063534109639371
 10
20.0695
 20
0.1291865334794732
 10
20.0667186471125
 20
0.12726670419838076
 10
20.06428127428841
 20
0.1249255758230567
 10
20.06225100820358
 20
0.12222378234868382
 10
20.060680431683164
 20
0.11923129880706158
 10
20.059610221834053
 20
0.11602562895003872
 10
20.05906809652918
 20
0.11268979794305124
 10
20.05906809652918
 20
0.10931020205694877
 10
20.059610221834053
 20
0.1059743710499613
 10
20.060680431683164
 20
0.10276870119293842
 10
20.06225100820358
 20
0.09977621765131618
 10
20.06428127428841
 20
0.09707442417694331
 10
20.0667186471125
 20
0.09473329580161927
 10
20.0695
 20
0.09281346652052679
 10
20.072553297372107
 20
0.09136465890360629
 10
20.0757994604307
 20
0.09042439630711238
 10
20.0791544152577
 20
0.09001703103839703
 10
20.08253127028536
 20
0.09015311364394085
 10
20.085842566742244
 20
0.09082911965574118
 10
20.089002543789466
 20
0.09202754087318198
 10
20.091929359681355
 20
0.0937173388162332
 10
20.094547211423702
 20
0.09585474860577989
 10
20.096788298031473
 20
0.09838441245100243
 10
20.098594576538716
 20
0.10124081338708085
 10
20.09991926528089
 20
0.10434997213016907
 10
20.100728055515397
 20
0.10763136310198702
 10
20.101
 20
0.111
  0
LWPOLYLINE
  5
124
330
17
100
AcDbEntity
  8
G_MEDIDO
100
AcDbPolyline
 90
4
 70
1
 10
20.094
 20
-0.035
 10
20.103
 20
-0.035
 10
20.103
 20
0.103
 10
20.094
 20
0.103
  0
LINE
  5
125
330
17
100
AcDbEntity
  8
G_MEDIDO
100
AcDbLine
 10
20.007
 20
0.03
 30
0.0
 11
20.015
 21
0.03
 31
0.0
  0
LINE
  5
126
330
17
100
AcDbEntity
  8
G_MEDIDO
100
AcDbLine
 10
20.015
 20
0.03
 30
0.0
 11
20.015
 21
0.11
 31
0.0
  0
LINE
  5
127
330
17
100
AcDbEntity
  8
G_MEDIDO
100
AcDbLine
 10
20.015
 20
0.11
 30
0.0
 11
20.065
 21
0.11
 31
0.0
  0
LWPOLYLINE
  5
128
330
17
100
AcDbEntity
  8
G_MEDIDO
100
AcDbPolyline
 90
4
 70
1
 10
19.98
 20
0.064
 10
20.078
 20
0.064
 10
20.078
 20
0.076
 10
19.98
 20
0.076
  0
DIMENSION
  5
129
330
17
100
AcDbEntity
  8
COTAS
100
AcDbDimension
280
0
  2
*D9
  3
Standard
 10
20.056
 20
0.175
 30
0.0
 11
20.073
 21
0.8026
 31
0.0
 70
32
 71
5
  1
<>
100
AcDbAlignedDimension
 13
20.056
 23
0.175
 33
0.0
 14
20.09
 24
0.175
 34
0.0
 50
0.0
100
AcDbRotatedDimension
1001
ACAD
1000
DSTYLE
1002
{
1070
140
1040
0.0052
1070
41
1040
0.007
1002
}
  0
DIMENSION
  5
13A
330
17
100
AcDbEntity
  8
COTAS
100
AcDbDimension
280
0
  2
*D10
  3
Standard
 10
20.16
 20
0.055
 30
0.0
 11
20.16
 21
0.0725
 31
0.0
 70
32
 71
5
  1
<>
100
AcDbAlignedDimension
 13
20.16
 23
0.055
 33
0.0
 14
20.16
 24
0.09
 34
0.0
 50
90.0
100
AcDbRotatedDimension
1001
ACAD
1000
DSTYLE
1002
{
1070
140
1040
0.0052
1070
41
1040
0.007
1002
}
  0
ENDSEC
  0
SECTION
  2
OBJECTS
  0
DICTIONARY
  5
A
330
0
100
AcDbDictionary
281
1
  3
ACAD_COLOR
350
B
  3
ACAD_GROUP
350
C
  3
ACAD_LAYOUT
350
D
  3
ACAD_MATERIAL
350
E
  3
ACAD_MLEADERSTYLE
350
F
  3
ACAD_MLINESTYLE
350
10
  3
ACAD_PLOTSETTINGS
350
11
  3
ACAD_PLOTSTYLENAME
350
12
  3
ACAD_SCALELIST
350
14
  3
ACAD_TABLESTYLE
350
15
  3
ACAD_VISUALSTYLE
350
16
  3
EZDXF_META
350
2D
  0
DICTIONARY
  5
B
330
A
100
AcDbDictionary
281
1
  0
DICTIONARY
  5
C
330
A
100
AcDbDictionary
281
1
  0
DICTIONARY
  5
D
330
A
100
AcDbDictionary
281
1
  3
Model
350
1A
  3
Layout1
350
1E
  0
DICTIONARY
  5
E
330
A
100
AcDbDictionary
281
1
  3
ByBlock
350
1F
  3
ByLayer
350
20
  3
Global
350
21
  0
DICTIONARY
  5
F
330
A
100
AcDbDictionary
281
1
  3
Standard
350
2C
  0
DICTIONARY
  5
10
330
A
100
AcDbDictionary
281
1
  3
Standard
350
22
  0
DICTIONARY
  5
11
330
A
100
AcDbDictionary
281
1
  0
ACDBDICTIONARYWDFLT
  5
12
330
A
100
AcDbDictionary
281
1
  3
Normal
350
13
100
AcDbDictionaryWithDefault
340
13
  0
ACDBPLACEHOLDER
  5
13
330
12
  0
DICTIONARY
  5
14
330
A
100
AcDbDictionary
281
1
  0
DICTIONARY
  5
15
330
A
100
AcDbDictionary
281
1
  0
DICTIONARY
  5
16
330
A
100
AcDbDictionary
281
1
  0
LAYOUT
  5
1A
330
D
100
AcDbPlotSettings
  1

  4
A3
  6

 40
7.5
 41
20.0
 42
7.5
 43
20.0
 44
420.0
 45
297.0
 46
0.0
 47
0.0
 48
0.0
 49
0.0
140
0.0
141
0.0
142
1.0
143
1.0
 70
1024
 72
1
 73
0
 74
5
  7

 75
16
 76
0
 77
2
 78
300
147
1.0
148
0.0
149
0.0
100
AcDbLayout
  1
Model
 70
1
 71
0
 10
0.0
 20
0.0
 11
420.0
 21
297.0
 12
0.0
 22
0.0
 32
0.0
 14
1e+20
 24
1e+20
 34
1e+20
 15
-1e+20
 25
-1e+20
 35
-1e+20
146
0.0
 13
0.0
 23
0.0
 33
0.0
 16
1.0
 26
0.0
 36
0.0
 17
0.0
 27
1.0
 37
0.0
 76
1
330
17
  0
LAYOUT
  5
1E
330
D
100
AcDbPlotSettings
  1

  4
A3
  6

 40
7.5
 41
20.0
 42
7.5
 43
20.0
 44
420.0
 45
297.0
 46
0.0
 47
0.0
 48
0.0
 49
0.0
140
0.0
141
0.0
142
1.0
143
1.0
 70
0
 72
1
 73
0
 74
5
  7

 75
16
 76
0
 77
2
 78
300
147
1.0
148
0.0
149
0.0
100
AcDbLayout
  1
Layout1
 70
1
 71
1
 10
0.0
 20
0.0
 11
420.0
 21
297.0
 12
0.0
 22
0.0
 32
0.0
 14
1e+20
 24
1e+20
 34
1e+20
 15
-1e+20
 25
-1e+20
 35
-1e+20
146
0.0
 13
0.0
 23
0.0
 33
0.0
 16
1.0
 26
0.0
 36
0.0
 17
0.0
 27
1.0
 37
0.0
 76
1
330
1B
  0
MATERIAL
  5
1F
102
{ACAD_REACTORS
330
E
102
}
330
E
100
AcDbMaterial
  1
ByBlock
  2

 70
0
 40
1.0
 71
1
 41
1.0
 91
-1023410177
 42
1.0
 72
1
  3

 73
1
 74
1
 75
1
 44
0.5
 73
0
 45
1.0
 46
1.0
 77
1
  4

 78
1
 79
1
170
1
 48
1.0
171
1
  6

172
1
173
1
174
1
140
1.0
141
1.0
175
1
  7

176
1
177
1
178
1
143
1.0
179
1
  8

270
1
271
1
272
1
145
1.0
146
1.0
273
1
  9

274
1
275
1
276
1
 42
1.0
 72
1
  3

 73
1
 74
1
 75
1
 94
63
  0
MATERIAL
  5
20
102
{ACAD_REACTORS
330
E
102
}
330
E
100
AcDbMaterial
  1
ByLayer
  2

 70
0
 40
1.0
 71
1
 41
1.0
 91
-1023410177
 42
1.0
 72
1
  3

 73
1
 74
1
 75
1
 44
0.5
 73
0
 45
1.0
 46
1.0
 77
1
  4

 78
1
 79
1
170
1
 48
1.0
171
1
  6

172
1
173
1
174
1
140
1.0
141
1.0
175
1
  7

176
1
177
1
178
1
143
1.0
179
1
  8

270
1
271
1
272
1
145
1.0
146
1.0
273
1
  9

274
1
275
1
276
1
 42
1.0
 72
1
  3

 73
1
 74
1
 75
1
 94
63
  0
MATERIAL
  5
21
102
{ACAD_REACTORS
330
E
102
}
330
E
100
AcDbMaterial
  1
Global
  2

 70
0
 40
1.0
 71
1
 41
1.0
 91
-1023410177
 42
1.0
 72
1
  3

 73
1
 74
1
 75
1
 44
0.5
 73
0
 45
1.0
 46
1.0
 77
1
  4

 78
1
 79
1
170
1
 48
1.0
171
1
  6

172
1
173
1
174
1
140
1.0
141
1.0
175
1
  7

176
1
177
1
178
1
143
1.0
179
1
  8

270
1
271
1
272
1
145
1.0
146
1.0
273
1
  9

274
1
275
1
276
1
 42
1.0
 72
1
  3

 73
1
 74
1
 75
1
 94
63
  0
MLINESTYLE
  5
22
102
{ACAD_REACTORS
330
10
102
}
330
10
100
AcDbMlineStyle
  2
Standard
 70
0
  3

 62
256
 51
90.0
 52
90.0
 71
2
 49
0.5
 62
256
  6
BYLAYER
 49
-0.5
 62
256
  6
BYLAYER
  0
MLEADERSTYLE
  5
2C
102
{ACAD_REACTORS
330
F
102
}
330
F
100
AcDbMLeaderStyle
179
2
170
2
171
1
172
0
 90
2
 40
0.0
 41
0.0
173
1
 91
-1056964608
 92
-2
290
1
 42
2.0
291
1
 43
8.0
  3
Standard
 44
4.0
300

342
29
174
1
175
1
176
0
178
1
 93
-1056964608
 45
4.0
292
0
297
0
 46
4.0
 94
-1056964608
 47
1.0
 49
1.0
140
1.0
294
1
141
0.0
177
0
142
1.0
295
0
296
0
143
3.75
271
0
272
9
273
9
  0
DICTIONARY
  5
2D
330
A
100
AcDbDictionary
280
1
281
1
  3
CREATED_BY_EZDXF
350
2E
  3
WRITTEN_BY_EZDXF
350
14E
  0
DICTIONARYVAR
  5
2E
330
2D
100
DictionaryVariables
280
0
  1
1.4.4 @ 2026-09-11T04:46:19.194813+00:00
  0
DICTIONARYVAR
  5
14E
330
2D
100
DictionaryVariables
280
0
  1
1.4.4 @ 2026-09-11T04:46:19.218429+00:00
  0
ENDSEC
  0
EOF
