  0
SECTION
  2
HEADER
  9
$ACADVER
  1
AC1024
  9
$ACADMAINTVER
 70
6
  9
$DWGCODEPAGE
  3
ANSI_1252
  9
$LASTSAVEDBY
  1
ezdxf
  9
$INSBASE
 10
0.0
 20
0.0
 30
0.0
  9
$EXTMIN
 10
1e+20
 20
1e+20
 30
1e+20
  9
$EXTMAX
 10
-1e+20
 20
-1e+20
 30
-1e+20
  9
$LIMMIN
 10
0.0
 20
0.0
  9
$LIMMAX
 10
420.0
 20
297.0
  9
$ORTHOMODE
 70
0
  9
$REGENMODE
 70
1
  9
$FILLMODE
 70
1
  9
$QTEXTMODE
 70
0
  9
$MIRRTEXT
 70
1
  9
$LTSCALE
 40
1.0
  9
$ATTMODE
 70
1
  9
$TEXTSIZE
 40
2.5
  9
$TRACEWID
 40
1.0
  9
$TEXTSTYLE
  7
Standard
  9
$CLAYER
  8
0
  9
$CELTYPE
  6
ByLayer
  9
$CECOLOR
 62
256
  9
$CELTSCALE
 40
1.0
  9
$DISPSILH
 70
0
  9
$DIMSCALE
 40
1.0
  9
$DIMASZ
 40
2.5
  9
$DIMEXO
 40
0.625
  9
$DIMDLI
 40
3.75
  9
$DIMRND
 40
0.0
  9
$DIMDLE
 40
0.0
  9
$DIMEXE
 40
1.25
  9
$DIMTP
 40
0.0
  9
$DIMTM
 40
0.0
  9
$DIMTXT
 40
2.5
  9
$DIMCEN
 40
2.5
  9
$DIMTSZ
 40
0.0
  9
$DIMTOL
 70
0
  9
$DIMLIM
 70
0
  9
$DIMTIH
 70
0
  9
$DIMTOH
 70
0
  9
$DIMSE1
 70
0
  9
$DIMSE2
 70
0
  9
$DIMTAD
 70
1
  9
$DIMZIN
 70
8
  9
$DIMBLK
  1

  9
$DIMASO
 70
1
  9
$DIMSHO
 70
1
  9
$DIMPOST
  1

  9
$DIMAPOST
  1

  9
$DIMALT
 70
0
  9
$DIMALTD
 70
3
  9
$DIMALTF
 40
0.03937007874
  9
$DIMLFAC
 40
1.0
  9
$DIMTOFL
 70
1
  9
$DIMTVP
 40
0.0
  9
$DIMTIX
 70
0
  9
$DIMSOXD
 70
0
  9
$DIMSAH
 70
0
  9
$DIMBLK1
  1

  9
$DIMBLK2
  1

  9
$DIMSTYLE
  2
ISO-25
  9
$DIMCLRD
 70
0
  9
$DIMCLRE
 70
0
  9
$DIMCLRT
 70
0
  9
$DIMTFAC
 40
1.0
  9
$DIMGAP
 40
0.625
  9
$DIMJUST
 70
0
  9
$DIMSD1
 70
0
  9
$DIMSD2
 70
0
  9
$DIMTOLJ
 70
0
  9
$DIMTZIN
 70
8
  9
$DIMALTZ
 70
0
  9
$DIMALTTZ
 70
0
  9
$DIMUPT
 70
0
  9
$DIMDEC
 70
2
  9
$DIMTDEC
 70
2
  9
$DIMALTU
 70
2
  9
$DIMALTTD
 70
3
  9
$DIMTXSTY
  7
Standard
  9
$DIMAUNIT
 70
0
  9
$DIMADEC
 70
0
  9
$DIMALTRND
 40
0.0
  9
$DIMAZIN
 70
0
  9
$DIMDSEP
 70
44
  9
$DIMATFIT
 70
3
  9
$DIMFRAC
 70
0
  9
$DIMLDRBLK
  1

  9
$DIMLUNIT
 70
2
  9
$DIMLWD
 70
-2
  9
$DIMLWE
 70
-2
  9
$DIMTMOVE
 70
0
  9
$DIMFXL
 40
1.0
  9
$DIMFXLON
 70
0
  9
$DIMJOGANG
 40
0.785398163397
  9
$DIMTFILL
 70
0
  9
$DIMTFILLCLR
 70
0
  9
$DIMARCSYM
 70
0
  9
$DIMLTYPE
  6

  9
$DIMLTEX1
  6

  9
$DIMLTEX2
  6

  9
$DIMTXTDIRECTION
 70
0
  9
$LUNITS
 70
2
  9
$LUPREC
 70
4
  9
$SKETCHINC
 40
1.0
  9
$FILLETRAD
 40
10.0
  9
$AUNITS
 70
0
  9
$AUPREC
 70
2
  9
$MENU
  1
.
  9
$ELEVATION
 40
0.0
  9
$PELEVATION
 40
0.0
  9
$THICKNESS
 40
0.0
  9
$LIMCHECK
 70
0
  9
$CHAMFERA
 40
0.0
  9
$CHAMFERB
 40
0.0
  9
$CHAMFERC
 40
0.0
  9
$CHAMFERD
 40
0.0
  9
$SKPOLY
 70
0
  9
$TDCREATE
 40
2461295.0738425925
  9
$TDUCREATE
 40
2458532.153996898
  9
$TDUPDATE
 40
2461295.0738541665
  9
$TDUUPDATE
 40
2458532.1544311
  9
$TDINDWG
 40
0.0
  9
$TDUSRTIMER
 40
0.0
  9
$USRTIMER
 70
1
  9
$ANGBASE
 50
0.0
  9
$ANGDIR
 70
0
  9
$PDMODE
 70
0
  9
$PDSIZE
 40
0.0
  9
$PLINEWID
 40
0.0
  9
$SPLFRAME
 70
0
  9
$SPLINETYPE
 70
6
  9
$SPLINESEGS
 70
8
  9
$HANDSEED
  5
2DB
  9
$SURFTAB1
 70
6
  9
$SURFTAB2
 70
6
  9
$SURFTYPE
 70
6
  9
$SURFU
 70
6
  9
$SURFV
 70
6
  9
$UCSBASE
  2

  9
$UCSNAME
  2

  9
$UCSORG
 10
0.0
 20
0.0
 30
0.0
  9
$UCSXDIR
 10
1.0
 20
0.0
 30
0.0
  9
$UCSYDIR
 10
0.0
 20
1.0
 30
0.0
  9
$UCSORTHOREF
  2

  9
$UCSORTHOVIEW
 70
0
  9
$UCSORGTOP
 10
0.0
 20
0.0
 30
0.0
  9
$UCSORGBOTTOM
 10
0.0
 20
0.0
 30
0.0
  9
$UCSORGLEFT
 10
0.0
 20
0.0
 30
0.0
  9
$UCSORGRIGHT
 10
0.0
 20
0.0
 30
0.0
  9
$UCSORGFRONT
 10
0.0
 20
0.0
 30
0.0
  9
$UCSORGBACK
 10
0.0
 20
0.0
 30
0.0
  9
$PUCSBASE
  2

  9
$PUCSNAME
  2

  9
$PUCSORG
 10
0.0
 20
0.0
 30
0.0
  9
$PUCSXDIR
 10
1.0
 20
0.0
 30
0.0
  9
$PUCSYDIR
 10
0.0
 20
1.0
 30
0.0
  9
$PUCSORTHOREF
  2

  9
$PUCSORTHOVIEW
 70
0
  9
$PUCSORGTOP
 10
0.0
 20
0.0
 30
0.0
  9
$PUCSORGBOTTOM
 10
0.0
 20
0.0
 30
0.0
  9
$PUCSORGLEFT
 10
0.0
 20
0.0
 30
0.0
  9
$PUCSORGRIGHT
 10
0.0
 20
0.0
 30
0.0
  9
$PUCSORGFRONT
 10
0.0
 20
0.0
 30
0.0
  9
$PUCSORGBACK
 10
0.0
 20
0.0
 30
0.0
  9
$USERI1
 70
0
  9
$USERI2
 70
0
  9
$USERI3
 70
0
  9
$USERI4
 70
0
  9
$USERI5
 70
0
  9
$USERR1
 40
0.0
  9
$USERR2
 40
0.0
  9
$USERR3
 40
0.0
  9
$USERR4
 40
0.0
  9
$USERR5
 40
0.0
  9
$WORLDVIEW
 70
1
  9
$SHADEDGE
 70
3
  9
$SHADEDIF
 70
70
  9
$TILEMODE
 70
1
  9
$MAXACTVP
 70
64
  9
$PINSBASE
 10
0.0
 20
0.0
 30
0.0
  9
$PLIMCHECK
 70
0
  9
$PEXTMIN
 10
1e+20
 20
1e+20
 30
1e+20
  9
$PEXTMAX
 10
-1e+20
 20
-1e+20
 30
-1e+20
  9
$PLIMMIN
 10
0.0
 20
0.0
  9
$PLIMMAX
 10
420.0
 20
297.0
  9
$UNITMODE
 70
0
  9
$VISRETAIN
 70
1
  9
$PLINEGEN
 70
0
  9
$PSLTSCALE
 70
1
  9
$TREEDEPTH
 70
3020
  9
$CMLSTYLE
  2
Standard
  9
$CMLJUST
 70
0
  9
$CMLSCALE
 40
20.0
  9
$PROXYGRAPHICS
 70
1
  9
$MEASUREMENT
 70
1
  9
$CELWEIGHT
370
-1
  9
$ENDCAPS
280
0
  9
$JOINSTYLE
280
0
  9
$LWDISPLAY
290
0
  9
$INSUNITS
 70
6
  9
$HYPERLINKBASE
  1

  9
$STYLESHEET
  1

  9
$XEDIT
290
1
  9
$CEPSNTYPE
380
0
  9
$PSTYLEMODE
290
1
  9
$FINGERPRINTGUID
  2
{8B8290AC-3A8F-4D0C-A946-8982A4CC5328}
  9
$VERSIONGUID
  2
{3D2C8D68-92CA-48F1-8DB6-E2AA9BBDA7D8}
  9
$EXTNAMES
290
1
  9
$PSVPSCALE
 40
0.0
  9
$OLESTARTUP
290
0
  9
$SORTENTS
280
127
  9
$INDEXCTL
280
0
  9
$HIDETEXT
280
1
  9
$XCLIPFRAME
280
1
  9
$HALOGAP
280
0
  9
$OBSCOLOR
 70
257
  9
$OBSLTYPE
280
0
  9
$INTERSECTIONDISPLAY
280
0
  9
$INTERSECTIONCOLOR
 70
257
  9
$DIMASSOC
280
2
  9
$PROJECTNAME
  1

  9
$CAMERADISPLAY
290
0
  9
$LENSLENGTH
 40
50.0
  9
$CAMERAHEIGHT
 40
0.0
  9
$STEPSPERSEC
 40
24.0
  9
$STEPSIZE
 40
100.0
  9
$3DDWFPREC
 40
2.0
  9
$PSOLWIDTH
 40
0.005
  9
$PSOLHEIGHT
 40
0.08
  9
$LOFTANG1
 40
1.570796326795
  9
$LOFTANG2
 40
1.570796326795
  9
$LOFTMAG1
 40
0.0
  9
$LOFTMAG2
 40
0.0
  9
$LOFTPARAM
 70
7
  9
$LOFTNORMALS
280
1
  9
$LATITUDE
 40
37.795
  9
$LONGITUDE
 40
-122.394
  9
$NORTHDIRECTION
 40
0.0
  9
$TIMEZONE
 70
-8000
  9
$LIGHTGLYPHDISPLAY
280
1
  9
$TILEMODELIGHTSYNCH
280
1
  9
$CMATERIAL
347
20
  9
$SOLIDHIST
280
0
  9
$SHOWHIST
280
1
  9
$DWFFRAME
280
2
  9
$DGNFRAME
280
2
  9
$REALWORLDSCALE
290
1
  9
$INTERFERECOLOR
 62
256
  9
$CSHADOW
280
0
  9
$SHADOWPLANELOCATION
 40
0.0
  0
ENDSEC
  0
SECTION
  2
CLASSES
  0
CLASS
  1
ACDBDICTIONARYWDFLT
  2
AcDbDictionaryWithDefault
  3
ObjectDBX Classes
 90
0
 91
0
280
0
281
0
  0
CLASS
  1
SUN
  2
AcDbSun
  3
SCENEOE
 90
1153
 91
0
280
0
281
0
  0
CLASS
  1
VISUALSTYLE
  2
AcDbVisualStyle
  3
ObjectDBX Classes
 90
4095
 91
0
280
0
281
0
  0
CLASS
  1
MATERIAL
  2
AcDbMaterial
  3
ObjectDBX Classes
 90
1153
 91
0
280
0
281
0
  0
CLASS
  1
SCALE
  2
AcDbScale
  3
ObjectDBX Classes
 90
1153
 91
0
280
0
281
0
  0
CLASS
  1
TABLESTYLE
  2
AcDbTableStyle
  3
ObjectDBX Classes
 90
4095
 91
0
280
0
281
0
  0
CLASS
  1
MLEADERSTYLE
  2
AcDbMLeaderStyle
  3
ACDB_MLEADERSTYLE_CLASS
 90
4095
 91
0
280
0
281
0
  0
CLASS
  1
DICTIONARYVAR
  2
AcDbDictionaryVar
  3
ObjectDBX Classes
 90
0
 91
0
280
0
281
0
  0
CLASS
  1
CELLSTYLEMAP
  2
AcDbCellStyleMap
  3
ObjectDBX Classes
 90
1152
 91
0
280
0
281
0
  0
CLASS
  1
MENTALRAYRENDERSETTINGS
  2
AcDbMentalRayRenderSettings
  3
SCENEOE
 90
1024
 91
0
280
0
281
0
  0
CLASS
  1
ACDBDETAILVIEWSTYLE
  2
AcDbDetailViewStyle
  3
ObjectDBX Classes
 90
1025
 91
0
280
0
281
0
  0
CLASS
  1
ACDBSECTIONVIEWSTYLE
  2
AcDbSectionViewStyle
  3
ObjectDBX Classes
 90
1025
 91
0
280
0
281
0
  0
CLASS
  1
RASTERVARIABLES
  2
AcDbRasterVariables
  3
ISM
 90
0
 91
0
280
0
281
0
  0
CLASS
  1
ACDBPLACEHOLDER
  2
AcDbPlaceHolder
  3
ObjectDBX Classes
 90
0
 91
0
280
0
281
0
  0
CLASS
  1
LAYOUT
  2
AcDbLayout
  3
ObjectDBX Classes
 90
0
 91
0
280
0
281
0
  0
ENDSEC
  0
SECTION
  2
TABLES
  0
TABLE
  2
VPORT
  5
8
330
0
100
AcDbSymbolTable
 70
1
  0
VPORT
  5
23
330
8
100
AcDbSymbolTableRecord
100
AcDbViewportTableRecord
  2
*Active
 70
0
 10
0.0
 20
0.0
 11
1.0
 21
1.0
 12
0.0
 22
0.0
 13
0.0
 23
0.0
 14
0.5
 24
0.5
 15
0.5
 25
0.5
 16
0.0
 26
0.0
 36
1.0
 17
0.0
 27
0.0
 37
0.0
 40
1000.0
 41
1.34
 42
50.0
 43
0.0
 44
0.0
 50
0.0
 51
0.0
 71
0
 72
1000
 73
1
 74
3
 75
0
 76
0
 77
0
 78
0
281
0
 65
0
146
0.0
  0
ENDTAB
  0
TABLE
  2
LTYPE
  5
2
330
0
100
AcDbSymbolTable
 70
3
  0
LTYPE
  5
24
330
2
100
AcDbSymbolTableRecord
100
AcDbLinetypeTableRecord
  2
ByBlock
 70
0
  3

 72
65
 73
0
 40
0.0
  0
LTYPE
  5
25
330
2
100
AcDbSymbolTableRecord
100
AcDbLinetypeTableRecord
  2
ByLayer
 70
0
  3

 72
65
 73
0
 40
0.0
  0
LTYPE
  5
26
330
2
100
AcDbSymbolTableRecord
100
AcDbLinetypeTableRecord
  2
Continuous
 70
0
  3

 72
65
 73
0
 40
0.0
  0
ENDTAB
  0
TABLE
  2
LAYER
  5
1
330
0
100
AcDbSymbolTable
 70
7
  0
LAYER
  5
27
330
1
100
AcDbSymbolTableRecord
100
AcDbLayerTableRecord
  2
0
 70
0
 62
7
  6
Continuous
370
-3
390
13
347
21
  0
LAYER
  5
28
330
1
100
AcDbSymbolTableRecord
100
AcDbLayerTableRecord
  2
Defpoints
 70
0
 62
7
  6
Continuous
290
0
370
-3
390
13
347
21
  0
LAYER
  5
2F
330
1
100
AcDbSymbolTableRecord
100
AcDbLayerTableRecord
  2
G_MEDIDO
 70
0
 62
8
  6
Continuous
370
-3
390
13
347
21
  0
LAYER
  5
30
330
1
100
AcDbSymbolTableRecord
100
AcDbLayerTableRecord
  2
P_PROPUESTO
 70
0
 62
5
  6
Continuous
370
-3
390
13
347
21
  0
LAYER
  5
31
330
1
100
AcDbSymbolTableRecord
100
AcDbLayerTableRecord
  2
COTAS
 70
0
 62
4
  6
Continuous
370
-3
390
13
347
21
  0
LAYER
  5
32
330
1
100
AcDbSymbolTableRecord
100
AcDbLayerTableRecord
  2
TEXTOS
 70
0
 62
7
  6
Continuous
370
-3
390
13
347
21
  0
LAYER
  5
33
330
1
100
AcDbSymbolTableRecord
100
AcDbLayerTableRecord
  2
REVISAR
 70
0
 62
30
  6
Continuous
370
-3
390
13
347
21
  0
ENDTAB
  0
TABLE
  2
STYLE
  5
5
330
0
100
AcDbSymbolTable
 70
1
  0
STYLE
  5
29
330
5
100
AcDbSymbolTableRecord
100
AcDbTextStyleTableRecord
  2
Standard
 70
0
 40
0.0
 41
1.0
 50
0.0
 71
0
 42
2.5
  3
txt
  4

  0
ENDTAB
  0
TABLE
  2
VIEW
  5
7
330
0
100
AcDbSymbolTable
 70
0
  0
ENDTAB
  0
TABLE
  2
UCS
  5
6
330
0
100
AcDbSymbolTable
 70
0
  0
ENDTAB
  0
TABLE
  2
APPID
  5
3
330
0
100
AcDbSymbolTable
 70
3
  0
APPID
  5
2A
330
3
100
AcDbSymbolTableRecord
100
AcDbRegAppTableRecord
  2
ACAD
 70
0
  0
APPID
  5
2D8
330
3
100
AcDbSymbolTableRecord
100
AcDbRegAppTableRecord
  2
HATCHBACKGROUNDCOLOR
 70
0
  0
APPID
  5
2D9
330
3
100
AcDbSymbolTableRecord
100
AcDbRegAppTableRecord
  2
EZDXF
 70
0
  0
ENDTAB
  0
TABLE
  2
DIMSTYLE
  5
4
330
0
100
AcDbSymbolTable
 70
1
100
AcDbDimStyleTable
  0
DIMSTYLE
105
2B
330
4
100
AcDbSymbolTableRecord
100
AcDbDimStyleTableRecord
  2
Standard
 70
0
 40
1.0
 41
2.5
 42
0.625
 43
3.75
 44
1.25
 45
0.0
 46
0.0
 47
0.0
 48
0.0
 49
2.5
140
2.5
141
2.5
142
0.0
143
0.03937007874
144
1.0
145
0.0
146
1.0
147
0.625
148
0.0
 69
0
 70
0
 71
0
 72
0
 73
0
 74
0
 75
0
 76
0
 77
1
 78
8
 79
3
170
0
171
3
172
1
173
0
174
0
175
0
176
0
177
0
178
0
179
2
271
2
272
2
273
2
274
3
275
0
276
0
277
2
278
44
279
0
280
0
281
0
282
0
283
0
284
8
285
0
286
0
288
0
289
3
290
0
371
-2
372
-2
  0
ENDTAB
  0
TABLE
  2
BLOCK_RECORD
  5
9
330
0
100
AcDbSymbolTable
 70
11
  0
BLOCK_RECORD
  5
17
330
9
100
AcDbSymbolTableRecord
100
AcDbBlockTableRecord
  2
*Model_Space
340
1A
 70
0
280
1
281
0
  0
BLOCK_RECORD
  5
1B
330
9
100
AcDbSymbolTableRecord
100
AcDbBlockTableRecord
  2
*Paper_Space
340
1E
 70
0
280
1
281
0
  0
BLOCK_RECORD
  5
1CD
330
9
100
AcDbSymbolTableRecord
100
AcDbBlockTableRecord
  2
*D1
340
0
 70
0
280
1
281
0
  0
BLOCK_RECORD
  5
1D2
330
9
100
AcDbSymbolTableRecord
100
AcDbBlockTableRecord
  2
_CLOSEDFILLED
340
0
 70
0
280
1
281
0
  0
BLOCK_RECORD
  5
1E1
330
9
100
AcDbSymbolTableRecord
100
AcDbBlockTableRecord
  2
*D2
340
0
 70
0
280
1
281
0
  0
BLOCK_RECORD
  5
1F1
330
9
100
AcDbSymbolTableRecord
100
AcDbBlockTableRecord
  2
*D3
340
0
 70
0
280
1
281
0
  0
BLOCK_RECORD
  5
203
330
9
100
AcDbSymbolTableRecord
100
AcDbBlockTableRecord
  2
*D4
340
0
 70
0
280
1
281
0
  0
BLOCK_RECORD
  5
215
330
9
100
AcDbSymbolTableRecord
100
AcDbBlockTableRecord
  2
*D5
340
0
 70
0
280
1
281
0
  0
BLOCK_RECORD
  5
2A3
330
9
100
AcDbSymbolTableRecord
100
AcDbBlockTableRecord
  2
*D6
340
0
 70
0
280
1
281
0
  0
BLOCK_RECORD
  5
2B5
330
9
100
AcDbSymbolTableRecord
100
AcDbBlockTableRecord
  2
*D7
340
0
 70
0
280
1
281
0
  0
BLOCK_RECORD
  5
2C7
330
9
100
AcDbSymbolTableRecord
100
AcDbBlockTableRecord
  2
*D8
340
0
 70
0
280
1
281
0
  0
ENDTAB
  0
ENDSEC
  0
SECTION
  2
BLOCKS
  0
BLOCK
  5
18
330
17
100
AcDbEntity
  8
0
100
AcDbBlockBegin
  2
*Model_Space
 70
0
 10
0.0
 20
0.0
 30
0.0
  3
*Model_Space
  1

  0
ENDBLK
  5
19
330
17
100
AcDbEntity
  8
0
100
AcDbBlockEnd
  0
BLOCK
  5
1C
330
1B
100
AcDbEntity
  8
0
100
AcDbBlockBegin
  2
*Paper_Space
 70
0
 10
0.0
 20
0.0
 30
0.0
  3
*Paper_Space
  1

  0
ENDBLK
  5
1D
330
1B
100
AcDbEntity
  8
0
100
AcDbBlockEnd
  0
BLOCK
  5
1CE
330
1CD
100
AcDbEntity
  8
0
100
AcDbBlockBegin
  2
*D1
 70
1
 10
0.0
 20
0.0
 30
0.0
  3
*D1
  1

  0
LINE
  5
1D0
330
1CD
100
AcDbEntity
  8
0
100
AcDbLine
 10
2.34
 20
0.0
 30
0.0
 11
2.34
 21
0.0
 31
0.0
  0
LINE
  5
1D1
330
1CD
100
AcDbEntity
  8
0
100
AcDbLine
 10
2.34
 20
0.9000000208616257
 30
0.0
 11
2.34
 21
0.9000000208616257
 31
0.0
  0
INSERT
  5
1D6
330
1CD
100
AcDbEntity
  8
COTAS
100
AcDbBlockReference
  2
_CLOSEDFILLED
 10
2.34
 20
0.0
 30
0.0
 41
0.007
 42
0.007
 50
270.0
  0
INSERT
  5
1D8
330
1CD
100
AcDbEntity
  8
COTAS
100
AcDbBlockReference
  2
_CLOSEDFILLED
 10
2.34
 20
0.9000000208616257
 30
0.0
 41
0.007
 42
0.007
 50
90.0
  0
LINE
  5
1DA
330
1CD
100
AcDbEntity
  8
0
100
AcDbLine
 10
2.34
 20
0.007
 30
0.0
 11
2.34
 21
0.4110000104308128
 31
0.0
  0
LINE
  5
1DB
330
1CD
100
AcDbEntity
  8
0
100
AcDbLine
 10
2.34
 20
0.48900001043081287
 30
0.0
 11
2.34
 21
0.8930000208616257
 31
0.0
  0
MTEXT
  5
1DC
330
1CD
100
AcDbEntity
  8
COTAS
100
AcDbMText
 10
2.34
 20
0.45000001043081284
 30
0.0
 40
0.026
 71
5
  1
0,9
 50
90.0
  0
POINT
  5
1DD
330
1CD
100
AcDbEntity
  8
Defpoints
100
AcDbPoint
 10
2.34
 20
0.0
 30
0.0
  0
POINT
  5
1DE
330
1CD
100
AcDbEntity
  8
Defpoints
100
AcDbPoint
 10
2.34
 20
0.0
 30
0.0
  0
POINT
  5
1DF
330
1CD
100
AcDbEntity
  8
Defpoints
100
AcDbPoint
 10
2.34
 20
0.9000000208616257
 30
0.0
  0
ENDBLK
  5
1CF
330
1CD
100
AcDbEntity
  8
0
100
AcDbBlockEnd
  0
BLOCK
  5
1D3
330
1D2
100
AcDbEntity
  8
0
100
AcDbBlockBegin
  2
_CLOSEDFILLED
 70
0
 10
0.0
 20
0.0
 30
0.0
  3
_CLOSEDFILLED
  1

  0
SOLID
  5
1D5
330
1D2
100
AcDbEntity
  8
0
  6
BYBLOCK
 62
0
100
AcDbTrace
 10
-1.0
 20
0.16439898372402537
 30
0.0
 11
0.0
 21
0.0
 31
0.0
 12
-1.0
 22
-0.16439898372402537
 32
0.0
 13
-1.0
 23
-0.16439898372402537
 33
0.0
  0
ENDBLK
  5
1D4
330
1D2
100
AcDbEntity
  8
0
100
AcDbBlockEnd
  0
BLOCK
  5
1E2
330
1E1
100
AcDbEntity
  8
0
100
AcDbBlockBegin
  2
*D2
 70
1
 10
0.0
 20
0.0
 30
0.0
  3
*D2
  1

  0
LINE
  5
1E4
330
1E1
100
AcDbEntity
  8
0
100
AcDbLine
 10
0.68
 20
0.0
 30
0.0
 11
0.68
 21
0.0
 31
0.0
  0
LINE
  5
1E5
330
1E1
100
AcDbEntity
  8
0
100
AcDbLine
 10
0.68
 20
0.6500000208616257
 30
0.0
 11
0.68
 21
0.6500000208616257
 31
0.0
  0
INSERT
  5
1E6
330
1E1
100
AcDbEntity
  8
COTAS
100
AcDbBlockReference
  2
_CLOSEDFILLED
 10
0.68
 20
0.0
 30
0.0
 41
0.007
 42
0.007
 50
270.0
  0
INSERT
  5
1E8
330
1E1
100
AcDbEntity
  8
COTAS
100
AcDbBlockReference
  2
_CLOSEDFILLED
 10
0.68
 20
0.6500000208616257
 30
0.0
 41
0.007
 42
0.007
 50
90.0
  0
LINE
  5
1EA
330
1E1
100
AcDbEntity
  8
0
100
AcDbLine
 10
0.68
 20
0.007
 30
0.0
 11
0.68
 21
0.27300001043081285
 31
0.0
  0
LINE
  5
1EB
330
1E1
100
AcDbEntity
  8
0
100
AcDbLine
 10
0.68
 20
0.3770000104308128
 30
0.0
 11
0.68
 21
0.6430000208616257
 31
0.0
  0
MTEXT
  5
1EC
330
1E1
100
AcDbEntity
  8
COTAS
100
AcDbMText
 10
0.68
 20
0.32500001043081284
 30
0.0
 40
0.026
 71
5
  1
0,65
 50
90.0
  0
POINT
  5
1ED
330
1E1
100
AcDbEntity
  8
Defpoints
100
AcDbPoint
 10
0.68
 20
0.0
 30
0.0
  0
POINT
  5
1EE
330
1E1
100
AcDbEntity
  8
Defpoints
100
AcDbPoint
 10
0.68
 20
0.0
 30
0.0
  0
POINT
  5
1EF
330
1E1
100
AcDbEntity
  8
Defpoints
100
AcDbPoint
 10
0.68
 20
0.6500000208616257
 30
0.0
  0
ENDBLK
  5
1E3
330
1E1
100
AcDbEntity
  8
0
100
AcDbBlockEnd
  0
BLOCK
  5
1F2
330
1F1
100
AcDbEntity
  8
0
100
AcDbBlockBegin
  2
*D3
 70
1
 10
0.0
 20
0.0
 30
0.0
  3
*D3
  1

  0
LINE
  5
1F4
330
1F1
100
AcDbEntity
  8
0
100
AcDbLine
 10
1.520000171661377
 20
1.15
 30
0.0
 11
1.520000171661377
 21
1.15
 31
0.0
  0
LINE
  5
1F5
330
1F1
100
AcDbEntity
  8
0
100
AcDbLine
 10
1.9200000286102294
 20
1.15
 30
0.0
 11
1.9200000286102294
 21
1.15
 31
0.0
  0
INSERT
  5
1F6
330
1F1
100
AcDbEntity
  8
COTAS
100
AcDbBlockReference
  2
_CLOSEDFILLED
 10
1.520000171661377
 20
1.15
 30
0.0
 41
0.007
 42
0.007
  0
INSERT
  5
1F8
330
1F1
100
AcDbEntity
  8
COTAS
100
AcDbBlockReference
  2
_CLOSEDFILLED
 10
1.9200000286102294
 20
1.15
 30
0.0
 41
0.007
 42
0.007
 50
180.0
  0
LINE
  5
1FA
330
1F1
100
AcDbEntity
  8
0
100
AcDbLine
 10
1.513000171661377
 20
1.15
 30
0.0
 11
1.506000171661377
 21
1.15
 31
0.0
  0
LINE
  5
1FB
330
1F1
100
AcDbEntity
  8
0
100
AcDbLine
 10
1.9270000286102293
 20
1.15
 30
0.0
 11
1.9340000286102295
 21
1.15
 31
0.0
  0
LINE
  5
1FC
330
1F1
100
AcDbEntity
  8
0
100
AcDbLine
 10
1.520000171661377
 20
1.15
 30
0.0
 11
1.6810001001358033
 21
1.15
 31
0.0
  0
LINE
  5
1FD
330
1F1
100
AcDbEntity
  8
0
100
AcDbLine
 10
1.759000100135803
 20
1.15
 30
0.0
 11
1.9200000286102294
 21
1.15
 31
0.0
  0
MTEXT
  5
1FE
330
1F1
100
AcDbEntity
  8
COTAS
100
AcDbMText
 10
1.7200001001358032
 20
1.15
 30
0.0
 40
0.026
 71
5
  1
0,4
  0
POINT
  5
1FF
330
1F1
100
AcDbEntity
  8
Defpoints
100
AcDbPoint
 10
1.520000171661377
 20
1.15
 30
0.0
  0
POINT
  5
200
330
1F1
100
AcDbEntity
  8
Defpoints
100
AcDbPoint
 10
1.520000171661377
 20
1.15
 30
0.0
  0
POINT
  5
201
330
1F1
100
AcDbEntity
  8
Defpoints
100
AcDbPoint
 10
1.9200000286102294
 20
1.15
 30
0.0
  0
ENDBLK
  5
1F3
330
1F1
100
AcDbEntity
  8
0
100
AcDbBlockEnd
  0
BLOCK
  5
204
330
203
100
AcDbEntity
  8
0
100
AcDbBlockBegin
  2
*D4
 70
1
 10
0.0
 20
0.0
 30
0.0
  3
*D4
  1

  0
LINE
  5
206
330
203
100
AcDbEntity
  8
0
100
AcDbLine
 10
0.96
 20
0.6500000208616257
 30
0.0
 11
0.96
 21
0.6500000208616257
 31
0.0
  0
LINE
  5
207
330
203
100
AcDbEntity
  8
0
100
AcDbLine
 10
0.96
 20
0.8420000523328781
 30
0.0
 11
0.96
 21
0.8420000523328781
 31
0.0
  0
INSERT
  5
208
330
203
100
AcDbEntity
  8
COTAS
100
AcDbBlockReference
  2
_CLOSEDFILLED
 10
0.96
 20
0.6500000208616257
 30
0.0
 41
0.007
 42
0.007
 50
90.0
  0
INSERT
  5
20A
330
203
100
AcDbEntity
  8
COTAS
100
AcDbBlockReference
  2
_CLOSEDFILLED
 10
0.96
 20
0.8420000523328781
 30
0.0
 41
0.007
 42
0.007
 50
270.0
  0
LINE
  5
20C
330
203
100
AcDbEntity
  8
0
100
AcDbLine
 10
0.96
 20
0.6430000208616257
 30
0.0
 11
0.96
 21
0.6360000208616257
 31
0.0
  0
LINE
  5
20D
330
203
100
AcDbEntity
  8
0
100
AcDbLine
 10
0.96
 20
0.8490000523328781
 30
0.0
 11
0.96
 21
0.8560000523328781
 31
0.0
  0
LINE
  5
20E
330
203
100
AcDbEntity
  8
0
100
AcDbLine
 10
0.96
 20
0.6500000208616257
 30
0.0
 11
0.96
 21
0.6940000365972518
 31
0.0
  0
LINE
  5
20F
330
203
100
AcDbEntity
  8
0
100
AcDbLine
 10
0.96
 20
0.7980000365972519
 30
0.0
 11
0.96
 21
0.8420000523328781
 31
0.0
  0
MTEXT
  5
210
330
203
100
AcDbEntity
  8
COTAS
100
AcDbMText
 10
0.96
 20
0.7460000365972519
 30
0.0
 40
0.026
 71
5
  1
0,19
 50
90.0
  0
POINT
  5
211
330
203
100
AcDbEntity
  8
Defpoints
100
AcDbPoint
 10
0.96
 20
0.6500000208616257
 30
0.0
  0
POINT
  5
212
330
203
100
AcDbEntity
  8
Defpoints
100
AcDbPoint
 10
0.96
 20
0.6500000208616257
 30
0.0
  0
POINT
  5
213
330
203
100
AcDbEntity
  8
Defpoints
100
AcDbPoint
 10
0.96
 20
0.8420000523328781
 30
0.0
  0
ENDBLK
  5
205
330
203
100
AcDbEntity
  8
0
100
AcDbBlockEnd
  0
BLOCK
  5
216
330
215
100
AcDbEntity
  8
0
100
AcDbBlockBegin
  2
*D5
 70
1
 10
0.0
 20
0.0
 30
0.0
  3
*D5
  1

  0
LINE
  5
218
330
215
100
AcDbEntity
  8
0
100
AcDbLine
 10
1.25
 20
1.56
 30
0.0
 11
1.25
 21
1.56
 31
0.0
  0
LINE
  5
219
330
215
100
AcDbEntity
  8
0
100
AcDbLine
 10
1.85
 20
1.56
 30
0.0
 11
1.85
 21
1.56
 31
0.0
  0
INSERT
  5
21A
330
215
100
AcDbEntity
  8
COTAS
100
AcDbBlockReference
  2
_CLOSEDFILLED
 10
1.25
 20
1.56
 30
0.0
 41
0.007
 42
0.007
  0
INSERT
  5
21C
330
215
100
AcDbEntity
  8
COTAS
100
AcDbBlockReference
  2
_CLOSEDFILLED
 10
1.85
 20
1.56
 30
0.0
 41
0.007
 42
0.007
 50
180.0
  0
LINE
  5
21E
330
215
100
AcDbEntity
  8
0
100
AcDbLine
 10
1.243
 20
1.56
 30
0.0
 11
1.236
 21
1.56
 31
0.0
  0
LINE
  5
21F
330
215
100
AcDbEntity
  8
0
100
AcDbLine
 10
1.857
 20
1.56
 30
0.0
 11
1.864
 21
1.56
 31
0.0
  0
LINE
  5
220
330
215
100
AcDbEntity
  8
0
100
AcDbLine
 10
1.25
 20
1.56
 30
0.0
 11
1.5110000000000001
 21
1.56
 31
0.0
  0
LINE
  5
221
330
215
100
AcDbEntity
  8
0
100
AcDbLine
 10
1.589
 20
1.56
 30
0.0
 11
1.85
 21
1.56
 31
0.0
  0
MTEXT
  5
222
330
215
100
AcDbEntity
  8
COTAS
100
AcDbMText
 10
1.55
 20
1.56
 30
0.0
 40
0.026
 71
5
  1
0,6
  0
POINT
  5
223
330
215
100
AcDbEntity
  8
Defpoints
100
AcDbPoint
 10
1.25
 20
1.56
 30
0.0
  0
POINT
  5
224
330
215
100
AcDbEntity
  8
Defpoints
100
AcDbPoint
 10
1.25
 20
1.56
 30
0.0
  0
POINT
  5
225
330
215
100
AcDbEntity
  8
Defpoints
100
AcDbPoint
 10
1.85
 20
1.56
 30
0.0
  0
ENDBLK
  5
217
330
215
100
AcDbEntity
  8
0
100
AcDbBlockEnd
  0
BLOCK
  5
2A4
330
2A3
100
AcDbEntity
  8
0
100
AcDbBlockBegin
  2
*D6
 70
1
 10
0.0
 20
0.0
 30
0.0
  3
*D6
  1

  0
LINE
  5
2A6
330
2A3
100
AcDbEntity
  8
0
100
AcDbLine
 10
10.495000000000001
 20
0.0
 30
0.0
 11
10.495000000000001
 21
0.0
 31
0.0
  0
LINE
  5
2A7
330
2A3
100
AcDbEntity
  8
0
100
AcDbLine
 10
11.105
 20
0.0
 30
0.0
 11
11.105
 21
0.0
 31
0.0
  0
INSERT
  5
2A8
330
2A3
100
AcDbEntity
  8
COTAS
100
AcDbBlockReference
  2
_CLOSEDFILLED
 10
10.495000000000001
 20
0.0
 30
0.0
 41
0.007
 42
0.007
  0
INSERT
  5
2AA
330
2A3
100
AcDbEntity
  8
COTAS
100
AcDbBlockReference
  2
_CLOSEDFILLED
 10
11.105
 20
0.0
 30
0.0
 41
0.007
 42
0.007
 50
180.0
  0
LINE
  5
2AC
330
2A3
100
AcDbEntity
  8
0
100
AcDbLine
 10
10.488000000000001
 20
0.0
 30
0.0
 11
10.481000000000002
 21
0.0
 31
0.0
  0
LINE
  5
2AD
330
2A3
100
AcDbEntity
  8
0
100
AcDbLine
 10
11.112
 20
0.0
 30
0.0
 11
11.119
 21
0.0
 31
0.0
  0
LINE
  5
2AE
330
2A3
100
AcDbEntity
  8
0
100
AcDbLine
 10
10.495000000000001
 20
0.0
 30
0.0
 11
10.696000000000002
 21
0.0
 31
0.0
  0
LINE
  5
2AF
330
2A3
100
AcDbEntity
  8
0
100
AcDbLine
 10
10.904
 20
0.0
 30
0.0
 11
11.105
 21
0.0
 31
0.0
  0
MTEXT
  5
2B0
330
2A3
100
AcDbEntity
  8
COTAS
100
AcDbMText
 10
10.8
 20
0.0
 30
0.0
 40
0.052
 71
5
  1
0,61
  0
POINT
  5
2B1
330
2A3
100
AcDbEntity
  8
Defpoints
100
AcDbPoint
 10
10.495000000000001
 20
0.0
 30
0.0
  0
POINT
  5
2B2
330
2A3
100
AcDbEntity
  8
Defpoints
100
AcDbPoint
 10
10.495000000000001
 20
0.0
 30
0.0
  0
POINT
  5
2B3
330
2A3
100
AcDbEntity
  8
Defpoints
100
AcDbPoint
 10
11.105
 20
0.0
 30
0.0
  0
ENDBLK
  5
2A5
330
2A3
100
AcDbEntity
  8
0
100
AcDbBlockEnd
  0
BLOCK
  5
2B6
330
2B5
100
AcDbEntity
  8
0
100
AcDbBlockBegin
  2
*D7
 70
1
 10
0.0
 20
0.0
 30
0.0
  3
*D7
  1

  0
LINE
  5
2B8
330
2B5
100
AcDbEntity
  8
0
100
AcDbLine
 10
11.434999999999999
 20
0.0
 30
0.0
 11
11.434999999999999
 21
0.0
 31
0.0
  0
LINE
  5
2B9
330
2B5
100
AcDbEntity
  8
0
100
AcDbLine
 10
12.044999999999998
 20
0.0
 30
0.0
 11
12.044999999999998
 21
0.0
 31
0.0
  0
INSERT
  5
2BA
330
2B5
100
AcDbEntity
  8
COTAS
100
AcDbBlockReference
  2
_CLOSEDFILLED
 10
11.434999999999999
 20
0.0
 30
0.0
 41
0.007
 42
0.007
  0
INSERT
  5
2BC
330
2B5
100
AcDbEntity
  8
COTAS
100
AcDbBlockReference
  2
_CLOSEDFILLED
 10
12.044999999999998
 20
0.0
 30
0.0
 41
0.007
 42
0.007
 50
180.0
  0
LINE
  5
2BE
330
2B5
100
AcDbEntity
  8
0
100
AcDbLine
 10
11.427999999999999
 20
0.0
 30
0.0
 11
11.421
 21
0.0
 31
0.0
  0
LINE
  5
2BF
330
2B5
100
AcDbEntity
  8
0
100
AcDbLine
 10
12.051999999999998
 20
0.0
 30
0.0
 11
12.058999999999997
 21
0.0
 31
0.0
  0
LINE
  5
2C0
330
2B5
100
AcDbEntity
  8
0
100
AcDbLine
 10
11.434999999999999
 20
0.0
 30
0.0
 11
11.636
 21
0.0
 31
0.0
  0
LINE
  5
2C1
330
2B5
100
AcDbEntity
  8
0
100
AcDbLine
 10
11.843999999999998
 20
0.0
 30
0.0
 11
12.044999999999998
 21
0.0
 31
0.0
  0
MTEXT
  5
2C2
330
2B5
100
AcDbEntity
  8
COTAS
100
AcDbMText
 10
11.739999999999998
 20
0.0
 30
0.0
 40
0.052
 71
5
  1
0,61
  0
POINT
  5
2C3
330
2B5
100
AcDbEntity
  8
Defpoints
100
AcDbPoint
 10
11.434999999999999
 20
0.0
 30
0.0
  0
POINT
  5
2C4
330
2B5
100
AcDbEntity
  8
Defpoints
100
AcDbPoint
 10
11.434999999999999
 20
0.0
 30
0.0
  0
POINT
  5
2C5
330
2B5
100
AcDbEntity
  8
Defpoints
100
AcDbPoint
 10
12.044999999999998
 20
0.0
 30
0.0
  0
ENDBLK
  5
2B7
330
2B5
100
AcDbEntity
  8
0
100
AcDbBlockEnd
  0
BLOCK
  5
2C8
330
2C7
100
AcDbEntity
  8
0
100
AcDbBlockBegin
  2
*D8
 70
1
 10
0.0
 20
0.0
 30
0.0
  3
*D8
  1

  0
LINE
  5
2CA
330
2C7
100
AcDbEntity
  8
0
100
AcDbLine
 10
10.647500228881835
 20
0.52
 30
0.0
 11
10.647500228881835
 21
0.52
 31
0.0
  0
LINE
  5
2CB
330
2C7
100
AcDbEntity
  8
0
100
AcDbLine
 10
10.952500534057616
 20
0.52
 30
0.0
 11
10.952500534057616
 21
0.52
 31
0.0
  0
INSERT
  5
2CC
330
2C7
100
AcDbEntity
  8
COTAS
100
AcDbBlockReference
  2
_CLOSEDFILLED
 10
10.647500228881835
 20
0.52
 30
0.0
 41
0.007
 42
0.007
  0
INSERT
  5
2CE
330
2C7
100
AcDbEntity
  8
COTAS
100
AcDbBlockReference
  2
_CLOSEDFILLED
 10
10.952500534057616
 20
0.52
 30
0.0
 41
0.007
 42
0.007
 50
180.0
  0
LINE
  5
2D0
330
2C7
100
AcDbEntity
  8
0
100
AcDbLine
 10
10.640500228881836
 20
0.52
 30
0.0
 11
10.633500228881836
 21
0.52
 31
0.0
  0
LINE
  5
2D1
330
2C7
100
AcDbEntity
  8
0
100
AcDbLine
 10
10.959500534057616
 20
0.52
 30
0.0
 11
10.966500534057616
 21
0.52
 31
0.0
  0
LINE
  5
2D2
330
2C7
100
AcDbEntity
  8
0
100
AcDbLine
 10
10.647500228881835
 20
0.52
 30
0.0
 11
10.696000381469727
 21
0.52
 31
0.0
  0
LINE
  5
2D3
330
2C7
100
AcDbEntity
  8
0
100
AcDbLine
 10
10.904000381469725
 20
0.52
 30
0.0
 11
10.952500534057616
 21
0.52
 31
0.0
  0
MTEXT
  5
2D4
330
2C7
100
AcDbEntity
  8
COTAS
100
AcDbMText
 10
10.800000381469726
 20
0.52
 30
0.0
 40
0.052
 71
5
  1
0,31
  0
POINT
  5
2D5
330
2C7
100
AcDbEntity
  8
Defpoints
100
AcDbPoint
 10
10.647500228881835
 20
0.52
 30
0.0
  0
POINT
  5
2D6
330
2C7
100
AcDbEntity
  8
Defpoints
100
AcDbPoint
 10
10.647500228881835
 20
0.52
 30
0.0
  0
POINT
  5
2D7
330
2C7
100
AcDbEntity
  8
Defpoints
100
AcDbPoint
 10
10.952500534057616
 20
0.52
 30
0.0
  0
ENDBLK
  5
2C9
330
2C7
100
AcDbEntity
  8
0
100
AcDbBlockEnd
  0
ENDSEC
  0
SECTION
  2
ENTITIES
  0
LINE
  5
34
330
17
100
AcDbEntity
  8
G_MEDIDO
100
AcDbLine
 10
1.5208789999999999
 20
0.865879007
 30
0.0
 11
1.523
 21
0.865000007
 31
0.0
  0
LINE
  5
35
330
17
100
AcDbEntity
  8
G_MEDIDO
100
AcDbLine
 10
1.5208789999999999
 20
0.865879007
 30
0.0
 11
1.52
 21
0.868000007
 31
0.0
  0
LINE
  5
36
330
17
100
AcDbEntity
  8
G_MEDIDO
100
AcDbLine
 10
2.197
 20
0.865000007
 30
0.0
 11
2.199121
 21
0.865879007
 31
0.0
  0
LINE
  5
37
330
17
100
AcDbEntity
  8
G_MEDIDO
100
AcDbLine
 10
2.199121
 20
0.865879007
 30
0.0
 11
2.2
 21
0.868000007
 31
0.0
  0
LINE
  5
38
330
17
100
AcDbEntity
  8
G_MEDIDO
100
AcDbLine
 10
2.2
 20
0.8970000069999999
 30
0.0
 11
2.199121
 21
0.899121007
 31
0.0
  0
LINE
  5
39
330
17
100
AcDbEntity
  8
G_MEDIDO
100
AcDbLine
 10
2.197
 20
0.9000000069999999
 30
0.0
 11
2.199121
 21
0.899121007
 31
0.0
  0
LINE
  5
3A
330
17
100
AcDbEntity
  8
G_MEDIDO
100
AcDbLine
 10
1.52
 20
0.8970000069999999
 30
0.0
 11
1.5208789999999999
 21
0.899121007
 31
0.0
  0
LINE
  5
3B
330
17
100
AcDbEntity
  8
G_MEDIDO
100
AcDbLine
 10
1.5208789999999999
 20
0.899121007
 30
0.0
 11
1.523
 21
0.9000000069999999
 31
0.0
  0
LINE
  5
3C
330
17
100
AcDbEntity
  8
G_MEDIDO
100
AcDbLine
 10
1.523
 20
0.865000007
 30
0.0
 11
1.5525
 21
0.865000007
 31
0.0
  0
LINE
  5
3D
330
17
100
AcDbEntity
  8
G_MEDIDO
100
AcDbLine
 10
1.5525
 20
0.865000007
 30
0.0
 11
1.5775
 21
0.865000007
 31
0.0
  0
LINE
  5
3E
330
17
100
AcDbEntity
  8
G_MEDIDO
100
AcDbLine
 10
1.5775
 20
0.865000007
 30
0.0
 11
1.922
 21
0.865000007
 31
0.0
  0
LINE
  5
3F
330
17
100
AcDbEntity
  8
G_MEDIDO
100
AcDbLine
 10
1.922
 20
0.865000007
 30
0.0
 11
1.936
 21
0.865000007
 31
0.0
  0
LINE
  5
40
330
17
100
AcDbEntity
  8
G_MEDIDO
100
AcDbLine
 10
1.936
 20
0.865000007
 30
0.0
 11
1.94
 21
0.865000007
 31
0.0
  0
LINE
  5
41
330
17
100
AcDbEntity
  8
G_MEDIDO
100
AcDbLine
 10
1.94
 20
0.865000007
 30
0.0
 11
1.976
 21
0.865000007
 31
0.0
  0
LINE
  5
42
330
17
100
AcDbEntity
  8
G_MEDIDO
100
AcDbLine
 10
1.976
 20
0.865000007
 30
0.0
 11
2.112
 21
0.865000007
 31
0.0
  0
LINE
  5
43
330
17
100
AcDbEntity
  8
G_MEDIDO
100
AcDbLine
 10
2.112
 20
0.865000007
 30
0.0
 11
2.123
 21
0.865000007
 31
0.0
  0
LINE
  5
44
330
17
100
AcDbEntity
  8
G_MEDIDO
100
AcDbLine
 10
2.123
 20
0.865000007
 30
0.0
 11
2.1275
 21
0.865000007
 31
0.0
  0
LINE
  5
45
330
17
100
AcDbEntity
  8
G_MEDIDO
100
AcDbLine
 10
2.1275
 20
0.865000007
 30
0.0
 11
2.1525
 21
0.865000007
 31
0.0
  0
LINE
  5
46
330
17
100
AcDbEntity
  8
G_MEDIDO
100
AcDbLine
 10
2.1525
 20
0.865000007
 30
0.0
 11
2.197
 21
0.865000007
 31
0.0
  0
LINE
  5
47
330
17
100
AcDbEntity
  8
G_MEDIDO
100
AcDbLine
 10
2.2
 20
0.868000007
 30
0.0
 11
2.2
 21
0.8970000069999999
 31
0.0
  0
LINE
  5
48
330
17
100
AcDbEntity
  8
G_MEDIDO
100
AcDbLine
 10
1.52
 20
0.868000007
 30
0.0
 11
1.52
 21
0.8970000069999999
 31
0.0
  0
LINE
  5
49
330
17
100
AcDbEntity
  8
G_MEDIDO
100
AcDbLine
 10
1.523
 20
0.9000000069999999
 30
0.0
 11
2.197
 21
0.9000000069999999
 31
0.0
  0
LINE
  5
4A
330
17
100
AcDbEntity
  8
G_MEDIDO
100
AcDbLine
 10
1.920586
 20
0.10058600699999999
 30
0.0
 11
1.922
 21
0.100000007
 31
0.0
  0
LINE
  5
4B
330
17
100
AcDbEntity
  8
G_MEDIDO
100
AcDbLine
 10
1.920586
 20
0.10058600699999999
 30
0.0
 11
1.92
 21
0.10200000699999999
 31
0.0
  0
LINE
  5
4C
330
17
100
AcDbEntity
  8
G_MEDIDO
100
AcDbLine
 10
1.936
 20
0.100000007
 30
0.0
 11
1.937414
 21
0.10058600699999999
 31
0.0
  0
LINE
  5
4D
330
17
100
AcDbEntity
  8
G_MEDIDO
100
AcDbLine
 10
1.937414
 20
0.10058600699999999
 30
0.0
 11
1.938
 21
0.10200000699999999
 31
0.0
  0
LINE
  5
4E
330
17
100
AcDbEntity
  8
G_MEDIDO
100
AcDbLine
 10
1.938
 20
0.863000007
 30
0.0
 11
1.937414
 21
0.8644140069999999
 31
0.0
  0
LINE
  5
4F
330
17
100
AcDbEntity
  8
G_MEDIDO
100
AcDbLine
 10
1.936
 20
0.865000007
 30
0.0
 11
1.937414
 21
0.8644140069999999
 31
0.0
  0
LINE
  5
50
330
17
100
AcDbEntity
  8
G_MEDIDO
100
AcDbLine
 10
1.92
 20
0.863000007
 30
0.0
 11
1.920586
 21
0.8644140069999999
 31
0.0
  0
LINE
  5
51
330
17
100
AcDbEntity
  8
G_MEDIDO
100
AcDbLine
 10
1.920586
 20
0.8644140069999999
 30
0.0
 11
1.922
 21
0.865000007
 31
0.0
  0
LINE
  5
52
330
17
100
AcDbEntity
  8
G_MEDIDO
100
AcDbLine
 10
1.922
 20
0.100000007
 30
0.0
 11
1.936
 21
0.100000007
 31
0.0
  0
LINE
  5
53
330
17
100
AcDbEntity
  8
G_MEDIDO
100
AcDbLine
 10
1.938
 20
0.10200000699999999
 30
0.0
 11
1.938
 21
0.116000007
 31
0.0
  0
LINE
  5
54
330
17
100
AcDbEntity
  8
G_MEDIDO
100
AcDbLine
 10
1.938
 20
0.116000007
 30
0.0
 11
1.938
 21
0.837000007
 31
0.0
  0
LINE
  5
55
330
17
100
AcDbEntity
  8
G_MEDIDO
100
AcDbLine
 10
1.938
 20
0.837000007
 30
0.0
 11
1.938
 21
0.863000007
 31
0.0
  0
LINE
  5
56
330
17
100
AcDbEntity
  8
G_MEDIDO
100
AcDbLine
 10
1.92
 20
0.10200000699999999
 30
0.0
 11
1.92
 21
0.863000007
 31
0.0
  0
LINE
  5
57
330
17
100
AcDbEntity
  8
G_MEDIDO
100
AcDbLine
 10
1.938586
 20
0.10058600699999999
 30
0.0
 11
1.94
 21
0.100000007
 31
0.0
  0
LINE
  5
58
330
17
100
AcDbEntity
  8
G_MEDIDO
100
AcDbLine
 10
1.938586
 20
0.10058600699999999
 30
0.0
 11
1.938
 21
0.10200000699999999
 31
0.0
  0
LINE
  5
59
330
17
100
AcDbEntity
  8
G_MEDIDO
100
AcDbLine
 10
2.158
 20
0.100000007
 30
0.0
 11
2.1594140000000004
 21
0.10058600699999999
 31
0.0
  0
LINE
  5
5A
330
17
100
AcDbEntity
  8
G_MEDIDO
100
AcDbLine
 10
2.1594140000000004
 20
0.10058600699999999
 30
0.0
 11
2.16
 21
0.10200000699999999
 31
0.0
  0
LINE
  5
5B
330
17
100
AcDbEntity
  8
G_MEDIDO
100
AcDbLine
 10
2.16
 20
0.116000007
 30
0.0
 11
2.1594140000000004
 21
0.117414007
 31
0.0
  0
LINE
  5
5C
330
17
100
AcDbEntity
  8
G_MEDIDO
100
AcDbLine
 10
2.158
 20
0.11800000699999999
 30
0.0
 11
2.1594140000000004
 21
0.117414007
 31
0.0
  0
LINE
  5
5D
330
17
100
AcDbEntity
  8
G_MEDIDO
100
AcDbLine
 10
1.938
 20
0.116000007
 30
0.0
 11
1.938586
 21
0.117414007
 31
0.0
  0
LINE
  5
5E
330
17
100
AcDbEntity
  8
G_MEDIDO
100
AcDbLine
 10
1.938586
 20
0.117414007
 30
0.0
 11
1.94
 21
0.11800000699999999
 31
0.0
  0
LINE
  5
5F
330
17
100
AcDbEntity
  8
G_MEDIDO
100
AcDbLine
 10
1.94
 20
0.100000007
 30
0.0
 11
1.982
 21
0.100000007
 31
0.0
  0
LINE
  5
60
330
17
100
AcDbEntity
  8
G_MEDIDO
100
AcDbLine
 10
1.982
 20
0.100000007
 30
0.0
 11
2.098
 21
0.100000007
 31
0.0
  0
LINE
  5
61
330
17
100
AcDbEntity
  8
G_MEDIDO
100
AcDbLine
 10
2.098
 20
0.100000007
 30
0.0
 11
2.158
 21
0.100000007
 31
0.0
  0
LINE
  5
62
330
17
100
AcDbEntity
  8
G_MEDIDO
100
AcDbLine
 10
2.16
 20
0.10200000699999999
 30
0.0
 11
2.16
 21
0.116000007
 31
0.0
  0
LINE
  5
63
330
17
100
AcDbEntity
  8
G_MEDIDO
100
AcDbLine
 10
1.94
 20
0.11800000699999999
 30
0.0
 11
2.158
 21
0.11800000699999999
 31
0.0
  0
LINE
  5
64
330
17
100
AcDbEntity
  8
G_MEDIDO
100
AcDbLine
 10
1.938586
 20
0.835586007
 30
0.0
 11
1.94
 21
0.835000007
 31
0.0
  0
LINE
  5
65
330
17
100
AcDbEntity
  8
G_MEDIDO
100
AcDbLine
 10
1.938586
 20
0.835586007
 30
0.0
 11
1.938
 21
0.837000007
 31
0.0
  0
LINE
  5
66
330
17
100
AcDbEntity
  8
G_MEDIDO
100
AcDbLine
 10
1.976
 20
0.835000007
 30
0.0
 11
1.977414
 21
0.835586007
 31
0.0
  0
LINE
  5
67
330
17
100
AcDbEntity
  8
G_MEDIDO
100
AcDbLine
 10
1.977414
 20
0.835586007
 30
0.0
 11
1.978
 21
0.837000007
 31
0.0
  0
LINE
  5
68
330
17
100
AcDbEntity
  8
G_MEDIDO
100
AcDbLine
 10
1.978
 20
0.863000007
 30
0.0
 11
1.977414
 21
0.8644140069999999
 31
0.0
  0
LINE
  5
69
330
17
100
AcDbEntity
  8
G_MEDIDO
100
AcDbLine
 10
1.976
 20
0.865000007
 30
0.0
 11
1.977414
 21
0.8644140069999999
 31
0.0
  0
LINE
  5
6A
330
17
100
AcDbEntity
  8
G_MEDIDO
100
AcDbLine
 10
1.938
 20
0.863000007
 30
0.0
 11
1.938586
 21
0.8644140069999999
 31
0.0
  0
LINE
  5
6B
330
17
100
AcDbEntity
  8
G_MEDIDO
100
AcDbLine
 10
1.938586
 20
0.8644140069999999
 30
0.0
 11
1.94
 21
0.865000007
 31
0.0
  0
LINE
  5
6C
330
17
100
AcDbEntity
  8
G_MEDIDO
100
AcDbLine
 10
1.94
 20
0.835000007
 30
0.0
 11
1.976
 21
0.835000007
 31
0.0
  0
LINE
  5
6D
330
17
100
AcDbEntity
  8
G_MEDIDO
100
AcDbLine
 10
1.978
 20
0.837000007
 30
0.0
 11
1.978
 21
0.863000007
 31
0.0
  0
LINE
  5
6E
330
17
100
AcDbEntity
  8
G_MEDIDO
100
AcDbLine
 10
2.1105859999999996
 20
0.835586007
 30
0.0
 11
2.112
 21
0.835000007
 31
0.0
  0
LINE
  5
6F
330
17
100
AcDbEntity
  8
G_MEDIDO
100
AcDbLine
 10
2.1105859999999996
 20
0.835586007
 30
0.0
 11
2.11
 21
0.837000007
 31
0.0
  0
LINE
  5
70
330
17
100
AcDbEntity
  8
G_MEDIDO
100
AcDbLine
 10
2.123
 20
0.835000007
 30
0.0
 11
2.1244140000000002
 21
0.835586007
 31
0.0
  0
LINE
  5
71
330
17
100
AcDbEntity
  8
G_MEDIDO
100
AcDbLine
 10
2.1244140000000002
 20
0.835586007
 30
0.0
 11
2.125
 21
0.837000007
 31
0.0
  0
LINE
  5
72
330
17
100
AcDbEntity
  8
G_MEDIDO
100
AcDbLine
 10
2.125
 20
0.863000007
 30
0.0
 11
2.1244140000000002
 21
0.8644140069999999
 31
0.0
  0
LINE
  5
73
330
17
100
AcDbEntity
  8
G_MEDIDO
100
AcDbLine
 10
2.123
 20
0.865000007
 30
0.0
 11
2.1244140000000002
 21
0.8644140069999999
 31
0.0
  0
LINE
  5
74
330
17
100
AcDbEntity
  8
G_MEDIDO
100
AcDbLine
 10
2.11
 20
0.863000007
 30
0.0
 11
2.1105859999999996
 21
0.8644140069999999
 31
0.0
  0
LINE
  5
75
330
17
100
AcDbEntity
  8
G_MEDIDO
100
AcDbLine
 10
2.1105859999999996
 20
0.8644140069999999
 30
0.0
 11
2.112
 21
0.865000007
 31
0.0
  0
LINE
  5
76
330
17
100
AcDbEntity
  8
G_MEDIDO
100
AcDbLine
 10
2.112
 20
0.835000007
 30
0.0
 11
2.123
 21
0.835000007
 31
0.0
  0
LINE
  5
77
330
17
100
AcDbEntity
  8
G_MEDIDO
100
AcDbLine
 10
2.125
 20
0.837000007
 30
0.0
 11
2.125
 21
0.863000007
 31
0.0
  0
LINE
  5
78
330
17
100
AcDbEntity
  8
G_MEDIDO
100
AcDbLine
 10
2.11
 20
0.837000007
 30
0.0
 11
2.11
 21
0.863000007
 31
0.0
  0
LINE
  5
79
330
17
100
AcDbEntity
  8
G_MEDIDO
100
AcDbLine
 10
1.980586
 20
0.0005860069999999999
 30
0.0
 11
1.982
 21
7e-09
 31
0.0
  0
LINE
  5
7A
330
17
100
AcDbEntity
  8
G_MEDIDO
100
AcDbLine
 10
1.980586
 20
0.0005860069999999999
 30
0.0
 11
1.98
 21
0.0020000070000000003
 31
0.0
  0
LINE
  5
7B
330
17
100
AcDbEntity
  8
G_MEDIDO
100
AcDbLine
 10
2.098
 20
7e-09
 30
0.0
 11
2.0994140000000003
 21
0.0005860069999999999
 31
0.0
  0
LINE
  5
7C
330
17
100
AcDbEntity
  8
G_MEDIDO
100
AcDbLine
 10
2.0994140000000003
 20
0.0005860069999999999
 30
0.0
 11
2.1
 21
0.0020000070000000003
 31
0.0
  0
LINE
  5
7D
330
17
100
AcDbEntity
  8
G_MEDIDO
100
AcDbLine
 10
2.1
 20
0.098000007
 30
0.0
 11
2.0994140000000003
 21
0.099414007
 31
0.0
  0
LINE
  5
7E
330
17
100
AcDbEntity
  8
G_MEDIDO
100
AcDbLine
 10
2.098
 20
0.100000007
 30
0.0
 11
2.0994140000000003
 21
0.099414007
 31
0.0
  0
LINE
  5
7F
330
17
100
AcDbEntity
  8
G_MEDIDO
100
AcDbLine
 10
1.98
 20
0.098000007
 30
0.0
 11
1.980586
 21
0.099414007
 31
0.0
  0
LINE
  5
80
330
17
100
AcDbEntity
  8
G_MEDIDO
100
AcDbLine
 10
1.980586
 20
0.099414007
 30
0.0
 11
1.982
 21
0.100000007
 31
0.0
  0
LINE
  5
81
330
17
100
AcDbEntity
  8
G_MEDIDO
100
AcDbLine
 10
1.982
 20
7e-09
 30
0.0
 11
2.098
 21
7e-09
 31
0.0
  0
LINE
  5
82
330
17
100
AcDbEntity
  8
G_MEDIDO
100
AcDbLine
 10
2.1
 20
0.0020000070000000003
 30
0.0
 11
2.1
 21
0.098000007
 31
0.0
  0
LINE
  5
83
330
17
100
AcDbEntity
  8
G_MEDIDO
100
AcDbLine
 10
1.98
 20
0.0020000070000000003
 30
0.0
 11
1.98
 21
0.098000007
 31
0.0
  0
LINE
  5
84
330
17
100
AcDbEntity
  8
G_MEDIDO
100
AcDbLine
 10
2.157586
 20
0.120586007
 30
0.0
 11
2.159
 21
0.12000000699999999
 31
0.0
  0
LINE
  5
85
330
17
100
AcDbEntity
  8
G_MEDIDO
100
AcDbLine
 10
2.157586
 20
0.120586007
 30
0.0
 11
2.157
 21
0.122000007
 31
0.0
  0
LINE
  5
86
330
17
100
AcDbEntity
  8
G_MEDIDO
100
AcDbLine
 10
2.173
 20
0.12000000699999999
 30
0.0
 11
2.174414
 21
0.120586007
 31
0.0
  0
LINE
  5
87
330
17
100
AcDbEntity
  8
G_MEDIDO
100
AcDbLine
 10
2.174414
 20
0.120586007
 30
0.0
 11
2.175
 21
0.122000007
 31
0.0
  0
LINE
  5
88
330
17
100
AcDbEntity
  8
G_MEDIDO
100
AcDbLine
 10
2.175
 20
0.843000007
 30
0.0
 11
2.174414
 21
0.844414007
 31
0.0
  0
LINE
  5
89
330
17
100
AcDbEntity
  8
G_MEDIDO
100
AcDbLine
 10
2.173
 20
0.845000007
 30
0.0
 11
2.174414
 21
0.844414007
 31
0.0
  0
LINE
  5
8A
330
17
100
AcDbEntity
  8
G_MEDIDO
100
AcDbLine
 10
2.157
 20
0.843000007
 30
0.0
 11
2.157586
 21
0.844414007
 31
0.0
  0
LINE
  5
8B
330
17
100
AcDbEntity
  8
G_MEDIDO
100
AcDbLine
 10
2.157586
 20
0.844414007
 30
0.0
 11
2.159
 21
0.845000007
 31
0.0
  0
LINE
  5
8C
330
17
100
AcDbEntity
  8
G_MEDIDO
100
AcDbLine
 10
2.159
 20
0.12000000699999999
 30
0.0
 11
2.173
 21
0.12000000699999999
 31
0.0
  0
LINE
  5
8D
330
17
100
AcDbEntity
  8
G_MEDIDO
100
AcDbLine
 10
2.175
 20
0.122000007
 30
0.0
 11
2.175
 21
0.843000007
 31
0.0
  0
LINE
  5
8E
330
17
100
AcDbEntity
  8
G_MEDIDO
100
AcDbLine
 10
2.157
 20
0.122000007
 30
0.0
 11
2.157
 21
0.843000007
 31
0.0
  0
LINE
  5
8F
330
17
100
AcDbEntity
  8
G_MEDIDO
100
AcDbLine
 10
2.159
 20
0.845000007
 30
0.0
 11
2.173
 21
0.845000007
 31
0.0
  0
LINE
  5
90
330
17
100
AcDbEntity
  8
G_MEDIDO
100
AcDbLine
 10
1.434
 20
0.620000007
 30
0.0
 11
1.436296
 21
0.620457007
 31
0.0
  0
LINE
  5
91
330
17
100
AcDbEntity
  8
G_MEDIDO
100
AcDbLine
 10
1.436296
 20
0.620457007
 30
0.0
 11
1.438242
 21
0.621757007
 31
0.0
  0
LINE
  5
92
330
17
100
AcDbEntity
  8
G_MEDIDO
100
AcDbLine
 10
1.438242
 20
0.621757007
 30
0.0
 11
1.4395429999999998
 21
0.6237040070000001
 31
0.0
  0
LINE
  5
93
330
17
100
AcDbEntity
  8
G_MEDIDO
100
AcDbLine
 10
1.4395429999999998
 20
0.6237040070000001
 30
0.0
 11
1.44
 21
0.626000007
 31
0.0
  0
LINE
  5
94
330
17
100
AcDbEntity
  8
G_MEDIDO
100
AcDbLine
 10
1.063704
 20
0.620457007
 30
0.0
 11
1.066
 21
0.620000007
 31
0.0
  0
LINE
  5
95
330
17
100
AcDbEntity
  8
G_MEDIDO
100
AcDbLine
 10
1.061757
 20
0.621757007
 30
0.0
 11
1.063704
 21
0.620457007
 31
0.0
  0
LINE
  5
96
330
17
100
AcDbEntity
  8
G_MEDIDO
100
AcDbLine
 10
1.061757
 20
0.621757007
 30
0.0
 11
1.0604559999999998
 21
0.6237040070000001
 31
0.0
  0
LINE
  5
97
330
17
100
AcDbEntity
  8
G_MEDIDO
100
AcDbLine
 10
1.0604559999999998
 20
0.6237040070000001
 30
0.0
 11
1.06
 21
0.626000007
 31
0.0
  0
LINE
  5
98
330
17
100
AcDbEntity
  8
G_MEDIDO
100
AcDbLine
 10
1.44
 20
0.6440000069999999
 30
0.0
 11
1.4395429999999998
 21
0.646296007
 31
0.0
  0
LINE
  5
99
330
17
100
AcDbEntity
  8
G_MEDIDO
100
AcDbLine
 10
1.4395429999999998
 20
0.646296007
 30
0.0
 11
1.438242
 21
0.648243007
 31
0.0
  0
LINE
  5
9A
330
17
100
AcDbEntity
  8
G_MEDIDO
100
AcDbLine
 10
1.436296
 20
0.649543007
 30
0.0
 11
1.438242
 21
0.648243007
 31
0.0
  0
LINE
  5
9B
330
17
100
AcDbEntity
  8
G_MEDIDO
100
AcDbLine
 10
1.434
 20
0.6500000069999999
 30
0.0
 11
1.436296
 21
0.649543007
 31
0.0
  0
LINE
  5
9C
330
17
100
AcDbEntity
  8
G_MEDIDO
100
AcDbLine
 10
1.06
 20
0.6440000069999999
 30
0.0
 11
1.0604559999999998
 21
0.646296007
 31
0.0
  0
LINE
  5
9D
330
17
100
AcDbEntity
  8
G_MEDIDO
100
AcDbLine
 10
1.0604559999999998
 20
0.646296007
 30
0.0
 11
1.061757
 21
0.648243007
 31
0.0
  0
LINE
  5
9E
330
17
100
AcDbEntity
  8
G_MEDIDO
100
AcDbLine
 10
1.061757
 20
0.648243007
 30
0.0
 11
1.063704
 21
0.649543007
 31
0.0
  0
LINE
  5
9F
330
17
100
AcDbEntity
  8
G_MEDIDO
100
AcDbLine
 10
1.063704
 20
0.649543007
 30
0.0
 11
1.066
 21
0.6500000069999999
 31
0.0
  0
LINE
  5
A0
330
17
100
AcDbEntity
  8
G_MEDIDO
100
AcDbLine
 10
1.44
 20
0.626000007
 30
0.0
 11
1.44
 21
0.6440000069999999
 31
0.0
  0
LINE
  5
A1
330
17
100
AcDbEntity
  8
G_MEDIDO
100
AcDbLine
 10
1.066
 20
0.620000007
 30
0.0
 11
1.0895
 21
0.620000007
 31
0.0
  0
LINE
  5
A2
330
17
100
AcDbEntity
  8
G_MEDIDO
100
AcDbLine
 10
1.0895
 20
0.620000007
 30
0.0
 11
1.1055
 21
0.620000007
 31
0.0
  0
LINE
  5
A3
330
17
100
AcDbEntity
  8
G_MEDIDO
100
AcDbLine
 10
1.1055
 20
0.620000007
 30
0.0
 11
1.394499
 21
0.620000007
 31
0.0
  0
LINE
  5
A4
330
17
100
AcDbEntity
  8
G_MEDIDO
100
AcDbLine
 10
1.394499
 20
0.620000007
 30
0.0
 11
1.4105
 21
0.620000007
 31
0.0
  0
LINE
  5
A5
330
17
100
AcDbEntity
  8
G_MEDIDO
100
AcDbLine
 10
1.4105
 20
0.620000007
 30
0.0
 11
1.434
 21
0.620000007
 31
0.0
  0
LINE
  5
A6
330
17
100
AcDbEntity
  8
G_MEDIDO
100
AcDbLine
 10
1.06
 20
0.626000007
 30
0.0
 11
1.06
 21
0.6440000069999999
 31
0.0
  0
LINE
  5
A7
330
17
100
AcDbEntity
  8
G_MEDIDO
100
AcDbLine
 10
1.066
 20
0.6500000069999999
 30
0.0
 11
1.434
 21
0.6500000069999999
 31
0.0
  0
LINE
  5
A8
330
17
100
AcDbEntity
  8
G_MEDIDO
100
AcDbLine
 10
1.4105
 20
0.560000007
 30
0.0
 11
1.410882
 21
0.560076007
 31
0.0
  0
LINE
  5
A9
330
17
100
AcDbEntity
  8
G_MEDIDO
100
AcDbLine
 10
1.410882
 20
0.560076007
 30
0.0
 11
1.411207
 21
0.560293007
 31
0.0
  0
LINE
  5
AA
330
17
100
AcDbEntity
  8
G_MEDIDO
100
AcDbLine
 10
1.411207
 20
0.560293007
 30
0.0
 11
1.411424
 21
0.560617007
 31
0.0
  0
LINE
  5
AB
330
17
100
AcDbEntity
  8
G_MEDIDO
100
AcDbLine
 10
1.411424
 20
0.560617007
 30
0.0
 11
1.4115
 21
0.561000007
 31
0.0
  0
LINE
  5
AC
330
17
100
AcDbEntity
  8
G_MEDIDO
100
AcDbLine
 10
1.394117
 20
0.560076007
 30
0.0
 11
1.394499
 21
0.560000007
 31
0.0
  0
LINE
  5
AD
330
17
100
AcDbEntity
  8
G_MEDIDO
100
AcDbLine
 10
1.393792
 20
0.560293007
 30
0.0
 11
1.394117
 21
0.560076007
 31
0.0
  0
LINE
  5
AE
330
17
100
AcDbEntity
  8
G_MEDIDO
100
AcDbLine
 10
1.393792
 20
0.560293007
 30
0.0
 11
1.393576
 21
0.560617007
 31
0.0
  0
LINE
  5
AF
330
17
100
AcDbEntity
  8
G_MEDIDO
100
AcDbLine
 10
1.393576
 20
0.560617007
 30
0.0
 11
1.3935
 21
0.561000007
 31
0.0
  0
LINE
  5
B0
330
17
100
AcDbEntity
  8
G_MEDIDO
100
AcDbLine
 10
1.4115
 20
0.619000007
 30
0.0
 11
1.411424
 21
0.619383007
 31
0.0
  0
LINE
  5
B1
330
17
100
AcDbEntity
  8
G_MEDIDO
100
AcDbLine
 10
1.411424
 20
0.619383007
 30
0.0
 11
1.411207
 21
0.6197070069999999
 31
0.0
  0
LINE
  5
B2
330
17
100
AcDbEntity
  8
G_MEDIDO
100
AcDbLine
 10
1.410882
 20
0.6199240069999999
 30
0.0
 11
1.411207
 21
0.6197070069999999
 31
0.0
  0
LINE
  5
B3
330
17
100
AcDbEntity
  8
G_MEDIDO
100
AcDbLine
 10
1.4105
 20
0.620000007
 30
0.0
 11
1.410882
 21
0.6199240069999999
 31
0.0
  0
LINE
  5
B4
330
17
100
AcDbEntity
  8
G_MEDIDO
100
AcDbLine
 10
1.3935
 20
0.619000007
 30
0.0
 11
1.393576
 21
0.619383007
 31
0.0
  0
LINE
  5
B5
330
17
100
AcDbEntity
  8
G_MEDIDO
100
AcDbLine
 10
1.393576
 20
0.619383007
 30
0.0
 11
1.393792
 21
0.6197070069999999
 31
0.0
  0
LINE
  5
B6
330
17
100
AcDbEntity
  8
G_MEDIDO
100
AcDbLine
 10
1.393792
 20
0.6197070069999999
 30
0.0
 11
1.394117
 21
0.6199240069999999
 31
0.0
  0
LINE
  5
B7
330
17
100
AcDbEntity
  8
G_MEDIDO
100
AcDbLine
 10
1.394117
 20
0.6199240069999999
 30
0.0
 11
1.394499
 21
0.620000007
 31
0.0
  0
LINE
  5
B8
330
17
100
AcDbEntity
  8
G_MEDIDO
100
AcDbLine
 10
1.4115
 20
0.561000007
 30
0.0
 11
1.4115
 21
0.619000007
 31
0.0
  0
LINE
  5
B9
330
17
100
AcDbEntity
  8
G_MEDIDO
100
AcDbLine
 10
1.394499
 20
0.560000007
 30
0.0
 11
1.4105
 21
0.560000007
 31
0.0
  0
LINE
  5
BA
330
17
100
AcDbEntity
  8
G_MEDIDO
100
AcDbLine
 10
1.3935
 20
0.561000007
 30
0.0
 11
1.3935
 21
0.619000007
 31
0.0
  0
LINE
  5
BB
330
17
100
AcDbEntity
  8
G_MEDIDO
100
AcDbLine
 10
1.4185
 20
0.175000007
 30
0.0
 11
1.4190740000000002
 21
0.175114007
 31
0.0
  0
LINE
  5
BC
330
17
100
AcDbEntity
  8
G_MEDIDO
100
AcDbLine
 10
1.4190740000000002
 20
0.175114007
 30
0.0
 11
1.41956
 21
0.175439007
 31
0.0
  0
LINE
  5
BD
330
17
100
AcDbEntity
  8
G_MEDIDO
100
AcDbLine
 10
1.41956
 20
0.175439007
 30
0.0
 11
1.419885
 21
0.175926007
 31
0.0
  0
LINE
  5
BE
330
17
100
AcDbEntity
  8
G_MEDIDO
100
AcDbLine
 10
1.419885
 20
0.175926007
 30
0.0
 11
1.42
 21
0.17650000700000001
 31
0.0
  0
LINE
  5
BF
330
17
100
AcDbEntity
  8
G_MEDIDO
100
AcDbLine
 10
1.385926
 20
0.175114007
 30
0.0
 11
1.3865
 21
0.175000007
 31
0.0
  0
LINE
  5
C0
330
17
100
AcDbEntity
  8
G_MEDIDO
100
AcDbLine
 10
1.385439
 20
0.175439007
 30
0.0
 11
1.385926
 21
0.175114007
 31
0.0
  0
LINE
  5
C1
330
17
100
AcDbEntity
  8
G_MEDIDO
100
AcDbLine
 10
1.385439
 20
0.175439007
 30
0.0
 11
1.385114
 21
0.175926007
 31
0.0
  0
LINE
  5
C2
330
17
100
AcDbEntity
  8
G_MEDIDO
100
AcDbLine
 10
1.385114
 20
0.175926007
 30
0.0
 11
1.385
 21
0.17650000700000001
 31
0.0
  0
LINE
  5
C3
330
17
100
AcDbEntity
  8
G_MEDIDO
100
AcDbLine
 10
1.42
 20
0.198500007
 30
0.0
 11
1.419885
 21
0.199074007
 31
0.0
  0
LINE
  5
C4
330
17
100
AcDbEntity
  8
G_MEDIDO
100
AcDbLine
 10
1.419885
 20
0.199074007
 30
0.0
 11
1.41956
 21
0.19956100699999998
 31
0.0
  0
LINE
  5
C5
330
17
100
AcDbEntity
  8
G_MEDIDO
100
AcDbLine
 10
1.4190740000000002
 20
0.199886007
 30
0.0
 11
1.41956
 21
0.19956100699999998
 31
0.0
  0
LINE
  5
C6
330
17
100
AcDbEntity
  8
G_MEDIDO
100
AcDbLine
 10
1.4185
 20
0.200000007
 30
0.0
 11
1.4190740000000002
 21
0.199886007
 31
0.0
  0
LINE
  5
C7
330
17
100
AcDbEntity
  8
G_MEDIDO
100
AcDbLine
 10
1.385
 20
0.198500007
 30
0.0
 11
1.385114
 21
0.199074007
 31
0.0
  0
LINE
  5
C8
330
17
100
AcDbEntity
  8
G_MEDIDO
100
AcDbLine
 10
1.385114
 20
0.199074007
 30
0.0
 11
1.385439
 21
0.19956100699999998
 31
0.0
  0
LINE
  5
C9
330
17
100
AcDbEntity
  8
G_MEDIDO
100
AcDbLine
 10
1.385439
 20
0.19956100699999998
 30
0.0
 11
1.385926
 21
0.199886007
 31
0.0
  0
LINE
  5
CA
330
17
100
AcDbEntity
  8
G_MEDIDO
100
AcDbLine
 10
1.385926
 20
0.199886007
 30
0.0
 11
1.3865
 21
0.200000007
 31
0.0
  0
LINE
  5
CB
330
17
100
AcDbEntity
  8
G_MEDIDO
100
AcDbLine
 10
1.42
 20
0.17650000700000001
 30
0.0
 11
1.42
 21
0.198500007
 31
0.0
  0
LINE
  5
CC
330
17
100
AcDbEntity
  8
G_MEDIDO
100
AcDbLine
 10
1.3865
 20
0.175000007
 30
0.0
 11
1.4185
 21
0.175000007
 31
0.0
  0
LINE
  5
CD
330
17
100
AcDbEntity
  8
G_MEDIDO
100
AcDbLine
 10
1.385
 20
0.17650000700000001
 30
0.0
 11
1.385
 21
0.198500007
 31
0.0
  0
LINE
  5
CE
330
17
100
AcDbEntity
  8
G_MEDIDO
100
AcDbLine
 10
1.3865
 20
0.200000007
 30
0.0
 11
1.4185
 21
0.200000007
 31
0.0
  0
LINE
  5
CF
330
17
100
AcDbEntity
  8
G_MEDIDO
100
AcDbLine
 10
1.1055
 20
0.560000007
 30
0.0
 11
1.105883
 21
0.560076007
 31
0.0
  0
LINE
  5
D0
330
17
100
AcDbEntity
  8
G_MEDIDO
100
AcDbLine
 10
1.105883
 20
0.560076007
 30
0.0
 11
1.1062070000000002
 21
0.560293007
 31
0.0
  0
LINE
  5
D1
330
17
100
AcDbEntity
  8
G_MEDIDO
100
AcDbLine
 10
1.1062070000000002
 20
0.560293007
 30
0.0
 11
1.106424
 21
0.560617007
 31
0.0
  0
LINE
  5
D2
330
17
100
AcDbEntity
  8
G_MEDIDO
100
AcDbLine
 10
1.106424
 20
0.560617007
 30
0.0
 11
1.1065
 21
0.561000007
 31
0.0
  0
LINE
  5
D3
330
17
100
AcDbEntity
  8
G_MEDIDO
100
AcDbLine
 10
1.089117
 20
0.560076007
 30
0.0
 11
1.0895
 21
0.560000007
 31
0.0
  0
LINE
  5
D4
330
17
100
AcDbEntity
  8
G_MEDIDO
100
AcDbLine
 10
1.088793
 20
0.560293007
 30
0.0
 11
1.089117
 21
0.560076007
 31
0.0
  0
LINE
  5
D5
330
17
100
AcDbEntity
  8
G_MEDIDO
100
AcDbLine
 10
1.088793
 20
0.560293007
 30
0.0
 11
1.088576
 21
0.560617007
 31
0.0
  0
LINE
  5
D6
330
17
100
AcDbEntity
  8
G_MEDIDO
100
AcDbLine
 10
1.088576
 20
0.560617007
 30
0.0
 11
1.0885
 21
0.561000007
 31
0.0
  0
LINE
  5
D7
330
17
100
AcDbEntity
  8
G_MEDIDO
100
AcDbLine
 10
1.1065
 20
0.619000007
 30
0.0
 11
1.106424
 21
0.619383007
 31
0.0
  0
LINE
  5
D8
330
17
100
AcDbEntity
  8
G_MEDIDO
100
AcDbLine
 10
1.106424
 20
0.619383007
 30
0.0
 11
1.1062070000000002
 21
0.6197070069999999
 31
0.0
  0
LINE
  5
D9
330
17
100
AcDbEntity
  8
G_MEDIDO
100
AcDbLine
 10
1.105883
 20
0.6199240069999999
 30
0.0
 11
1.1062070000000002
 21
0.6197070069999999
 31
0.0
  0
LINE
  5
DA
330
17
100
AcDbEntity
  8
G_MEDIDO
100
AcDbLine
 10
1.1055
 20
0.620000007
 30
0.0
 11
1.105883
 21
0.6199240069999999
 31
0.0
  0
LINE
  5
DB
330
17
100
AcDbEntity
  8
G_MEDIDO
100
AcDbLine
 10
1.0885
 20
0.619000007
 30
0.0
 11
1.088576
 21
0.619383007
 31
0.0
  0
LINE
  5
DC
330
17
100
AcDbEntity
  8
G_MEDIDO
100
AcDbLine
 10
1.088576
 20
0.619383007
 30
0.0
 11
1.088793
 21
0.6197070069999999
 31
0.0
  0
LINE
  5
DD
330
17
100
AcDbEntity
  8
G_MEDIDO
100
AcDbLine
 10
1.088793
 20
0.6197070069999999
 30
0.0
 11
1.089117
 21
0.6199240069999999
 31
0.0
  0
LINE
  5
DE
330
17
100
AcDbEntity
  8
G_MEDIDO
100
AcDbLine
 10
1.089117
 20
0.6199240069999999
 30
0.0
 11
1.0895
 21
0.620000007
 31
0.0
  0
LINE
  5
DF
330
17
100
AcDbEntity
  8
G_MEDIDO
100
AcDbLine
 10
1.1065
 20
0.561000007
 30
0.0
 11
1.1065
 21
0.619000007
 31
0.0
  0
LINE
  5
E0
330
17
100
AcDbEntity
  8
G_MEDIDO
100
AcDbLine
 10
1.0895
 20
0.560000007
 30
0.0
 11
1.1055
 21
0.560000007
 31
0.0
  0
LINE
  5
E1
330
17
100
AcDbEntity
  8
G_MEDIDO
100
AcDbLine
 10
1.0885
 20
0.561000007
 30
0.0
 11
1.0885
 21
0.619000007
 31
0.0
  0
LINE
  5
E2
330
17
100
AcDbEntity
  8
G_MEDIDO
100
AcDbLine
 10
1.1135
 20
0.175000007
 30
0.0
 11
1.114074
 21
0.175114007
 31
0.0
  0
LINE
  5
E3
330
17
100
AcDbEntity
  8
G_MEDIDO
100
AcDbLine
 10
1.114074
 20
0.175114007
 30
0.0
 11
1.11456
 21
0.175439007
 31
0.0
  0
LINE
  5
E4
330
17
100
AcDbEntity
  8
G_MEDIDO
100
AcDbLine
 10
1.11456
 20
0.175439007
 30
0.0
 11
1.114886
 21
0.175926007
 31
0.0
  0
LINE
  5
E5
330
17
100
AcDbEntity
  8
G_MEDIDO
100
AcDbLine
 10
1.114886
 20
0.175926007
 30
0.0
 11
1.115
 21
0.17650000700000001
 31
0.0
  0
LINE
  5
E6
330
17
100
AcDbEntity
  8
G_MEDIDO
100
AcDbLine
 10
1.0809259999999998
 20
0.175114007
 30
0.0
 11
1.0815
 21
0.175000007
 31
0.0
  0
LINE
  5
E7
330
17
100
AcDbEntity
  8
G_MEDIDO
100
AcDbLine
 10
1.0804390000000001
 20
0.175439007
 30
0.0
 11
1.0809259999999998
 21
0.175114007
 31
0.0
  0
LINE
  5
E8
330
17
100
AcDbEntity
  8
G_MEDIDO
100
AcDbLine
 10
1.0804390000000001
 20
0.175439007
 30
0.0
 11
1.080114
 21
0.175926007
 31
0.0
  0
LINE
  5
E9
330
17
100
AcDbEntity
  8
G_MEDIDO
100
AcDbLine
 10
1.080114
 20
0.175926007
 30
0.0
 11
1.08
 21
0.17650000700000001
 31
0.0
  0
LINE
  5
EA
330
17
100
AcDbEntity
  8
G_MEDIDO
100
AcDbLine
 10
1.115
 20
0.198500007
 30
0.0
 11
1.114886
 21
0.199074007
 31
0.0
  0
LINE
  5
EB
330
17
100
AcDbEntity
  8
G_MEDIDO
100
AcDbLine
 10
1.114886
 20
0.199074007
 30
0.0
 11
1.11456
 21
0.19956100699999998
 31
0.0
  0
LINE
  5
EC
330
17
100
AcDbEntity
  8
G_MEDIDO
100
AcDbLine
 10
1.114074
 20
0.199886007
 30
0.0
 11
1.11456
 21
0.19956100699999998
 31
0.0
  0
LINE
  5
ED
330
17
100
AcDbEntity
  8
G_MEDIDO
100
AcDbLine
 10
1.1135
 20
0.200000007
 30
0.0
 11
1.114074
 21
0.199886007
 31
0.0
  0
LINE
  5
EE
330
17
100
AcDbEntity
  8
G_MEDIDO
100
AcDbLine
 10
1.08
 20
0.198500007
 30
0.0
 11
1.080114
 21
0.199074007
 31
0.0
  0
LINE
  5
EF
330
17
100
AcDbEntity
  8
G_MEDIDO
100
AcDbLine
 10
1.080114
 20
0.199074007
 30
0.0
 11
1.0804390000000001
 21
0.19956100699999998
 31
0.0
  0
LINE
  5
F0
330
17
100
AcDbEntity
  8
G_MEDIDO
100
AcDbLine
 10
1.0804390000000001
 20
0.19956100699999998
 30
0.0
 11
1.0809259999999998
 21
0.199886007
 31
0.0
  0
LINE
  5
F1
330
17
100
AcDbEntity
  8
G_MEDIDO
100
AcDbLine
 10
1.0809259999999998
 20
0.199886007
 30
0.0
 11
1.0815
 21
0.200000007
 31
0.0
  0
LINE
  5
F2
330
17
100
AcDbEntity
  8
G_MEDIDO
100
AcDbLine
 10
1.115
 20
0.17650000700000001
 30
0.0
 11
1.115
 21
0.198500007
 31
0.0
  0
LINE
  5
F3
330
17
100
AcDbEntity
  8
G_MEDIDO
100
AcDbLine
 10
1.0815
 20
0.175000007
 30
0.0
 11
1.1135
 21
0.175000007
 31
0.0
  0
LINE
  5
F4
330
17
100
AcDbEntity
  8
G_MEDIDO
100
AcDbLine
 10
1.08
 20
0.17650000700000001
 30
0.0
 11
1.08
 21
0.198500007
 31
0.0
  0
LINE
  5
F5
330
17
100
AcDbEntity
  8
G_MEDIDO
100
AcDbLine
 10
1.0815
 20
0.200000007
 30
0.0
 11
1.1135
 21
0.200000007
 31
0.0
  0
LINE
  5
F6
330
17
100
AcDbEntity
  8
G_MEDIDO
100
AcDbLine
 10
1.5525
 20
0.862000007
 30
0.0
 11
1.5775
 21
0.862000007
 31
0.0
  0
LINE
  5
F7
330
17
100
AcDbEntity
  8
G_MEDIDO
100
AcDbLine
 10
1.5545
 20
0.860000007
 30
0.0
 11
1.5755
 21
0.860000007
 31
0.0
  0
LINE
  5
F8
330
17
100
AcDbEntity
  8
G_MEDIDO
100
AcDbLine
 10
1.5775
 20
0.842000007
 30
0.0
 11
1.5775
 21
0.862000007
 31
0.0
  0
LINE
  5
F9
330
17
100
AcDbEntity
  8
G_MEDIDO
100
AcDbLine
 10
1.5755
 20
0.844000007
 30
0.0
 11
1.5755
 21
0.860000007
 31
0.0
  0
LINE
  5
FA
330
17
100
AcDbEntity
  8
G_MEDIDO
100
AcDbLine
 10
1.5525
 20
0.842000007
 30
0.0
 11
1.5775
 21
0.842000007
 31
0.0
  0
LINE
  5
FB
330
17
100
AcDbEntity
  8
G_MEDIDO
100
AcDbLine
 10
1.5545
 20
0.844000007
 30
0.0
 11
1.5755
 21
0.844000007
 31
0.0
  0
LINE
  5
FC
330
17
100
AcDbEntity
  8
G_MEDIDO
100
AcDbLine
 10
1.5525
 20
0.842000007
 30
0.0
 11
1.5525
 21
0.862000007
 31
0.0
  0
LINE
  5
FD
330
17
100
AcDbEntity
  8
G_MEDIDO
100
AcDbLine
 10
1.5545
 20
0.844000007
 30
0.0
 11
1.5545
 21
0.860000007
 31
0.0
  0
LINE
  5
FE
330
17
100
AcDbEntity
  8
G_MEDIDO
100
AcDbLine
 10
1.5525
 20
0.862000007
 30
0.0
 11
1.5525
 21
0.865000007
 31
0.0
  0
LINE
  5
FF
330
17
100
AcDbEntity
  8
G_MEDIDO
100
AcDbLine
 10
1.5775
 20
0.862000007
 30
0.0
 11
1.5775
 21
0.865000007
 31
0.0
  0
LINE
  5
100
330
17
100
AcDbEntity
  8
G_MEDIDO
100
AcDbLine
 10
2.1275
 20
0.862000007
 30
0.0
 11
2.1525
 21
0.862000007
 31
0.0
  0
LINE
  5
101
330
17
100
AcDbEntity
  8
G_MEDIDO
100
AcDbLine
 10
2.1295
 20
0.860000007
 30
0.0
 11
2.1505
 21
0.860000007
 31
0.0
  0
LINE
  5
102
330
17
100
AcDbEntity
  8
G_MEDIDO
100
AcDbLine
 10
2.1525
 20
0.842000007
 30
0.0
 11
2.1525
 21
0.862000007
 31
0.0
  0
LINE
  5
103
330
17
100
AcDbEntity
  8
G_MEDIDO
100
AcDbLine
 10
2.1505
 20
0.844000007
 30
0.0
 11
2.1505
 21
0.860000007
 31
0.0
  0
LINE
  5
104
330
17
100
AcDbEntity
  8
G_MEDIDO
100
AcDbLine
 10
2.1275
 20
0.842000007
 30
0.0
 11
2.1525
 21
0.842000007
 31
0.0
  0
LINE
  5
105
330
17
100
AcDbEntity
  8
G_MEDIDO
100
AcDbLine
 10
2.1295
 20
0.844000007
 30
0.0
 11
2.1505
 21
0.844000007
 31
0.0
  0
LINE
  5
106
330
17
100
AcDbEntity
  8
G_MEDIDO
100
AcDbLine
 10
2.1275
 20
0.842000007
 30
0.0
 11
2.1275
 21
0.862000007
 31
0.0
  0
LINE
  5
107
330
17
100
AcDbEntity
  8
G_MEDIDO
100
AcDbLine
 10
2.1295
 20
0.844000007
 30
0.0
 11
2.1295
 21
0.860000007
 31
0.0
  0
LINE
  5
108
330
17
100
AcDbEntity
  8
G_MEDIDO
100
AcDbLine
 10
2.1275
 20
0.862000007
 30
0.0
 11
2.1275
 21
0.865000007
 31
0.0
  0
LINE
  5
109
330
17
100
AcDbEntity
  8
G_MEDIDO
100
AcDbLine
 10
2.1525
 20
0.862000007
 30
0.0
 11
2.1525
 21
0.865000007
 31
0.0
  0
LWPOLYLINE
  5
10A
330
17
100
AcDbEntity
  8
P_PROPUESTO
100
AcDbPolyline
 90
25
 70
1
 10
1.2137653350830078
 20
0.6527259200811386
 10
1.1800000190734863
 20
0.6607179492712021
 10
1.1510049819946289
 20
0.6734314411878586
 10
1.1287564754486084
 20
0.689999982714653
 10
1.1147703647613525
 20
0.7092944830656052
 10
1.1100000858306884
 20
0.7300000041723251
 10
1.1147703647613525
 20
0.7507055252790451
 10
1.1287564754486084
 20
0.7700000256299973
 10
1.151005220413208
 20
0.7865685671567917
 10
1.1800000190734863
 20
0.7992819994688034
 10
1.2137653350830078
 20
0.8072740286588669
 10
1.2499999523162841
 20
0.8099999874830246
 10
1.2862345695495605
 20
0.8072740286588669
 10
1.319999885559082
 20
0.7992819994688034
 10
1.3489949226379394
 20
0.7865685671567917
 10
1.37124342918396
 20
0.7700000256299973
 10
1.3852295398712158
 20
0.7507055252790451
 10
1.390000057220459
 20
0.7300000041723251
 10
1.3852295398712158
 20
0.7092944830656052
 10
1.37124342918396
 20
0.689999982714653
 10
1.3489949226379394
 20
0.6734314411878586
 10
1.319999885559082
 20
0.6607179492712021
 10
1.2862345695495605
 20
0.6527259200811386
 10
1.2499999523162841
 20
0.6500000208616257
 10
1.2137653350830078
 20
0.6527259200811386
  0
LWPOLYLINE
  5
10B
330
17
100
AcDbEntity
  8
P_PROPUESTO
100
AcDbPolyline
 90
23
 70
1
 10
1.1944629669189453
 20
0.6806285232305527
 10
1.162404727935791
 20
0.6969630569219589
 10
1.1369630813598632
 20
0.7224047034978867
 10
1.120628547668457
 20
0.7544630616903305
 10
1.1149999618530273
 20
0.7900000065565109
 10
1.1149999618530273
 20
1.2199999541044235
 10
1.120628547668457
 20
1.2555369585752487
 10
1.1369630813598632
 20
1.2875953167676926
 10
1.162404727935791
 20
1.3130369633436203
 10
1.1944629669189453
 20
1.3293714970350266
 10
1.2299999713897705
 20
1.3349999636411667
 10
1.2655369758605957
 20
1.3293714970350266
 10
1.29759521484375
 20
1.3130369633436203
 10
1.3230368614196777
 20
1.2875953167676926
 10
1.339371395111084
 20
1.2555369585752487
 10
1.3449999809265136
 20
1.2199999541044235
 10
1.3449999809265136
 20
0.7900000065565109
 10
1.339371395111084
 20
0.7544630616903305
 10
1.3230368614196777
 20
0.7224047034978867
 10
1.29759521484375
 20
0.6969630569219589
 10
1.2655369758605957
 20
0.6806285232305527
 10
1.2299999713897705
 20
0.6749999970197678
 10
1.1944629669189453
 20
0.6806285232305527
  0
LWPOLYLINE
  5
10C
330
17
100
AcDbEntity
  8
P_PROPUESTO
100
AcDbPolyline
 90
25
 70
1
 10
1.202824068069458
 20
1.3344296663999557
 10
1.1774999618530273
 20
1.3474166840314865
 10
1.1557538032531738
 20
1.368076130747795
 10
1.1390673637390136
 20
1.3950000256299973
 10
1.1285778999328613
 20
1.4263534992933273
 10
1.1249999523162841
 20
1.4599999636411667
 10
1.1285778999328613
 20
1.493646427989006
 10
1.1390673637390136
 20
1.5250000208616257
 10
1.1557538032531738
 20
1.5519239157438278
 10
1.1774999618530273
 20
1.5725833624601364
 10
1.202824068069458
 20
1.5855703800916672
 10
1.2299999713897705
 20
1.589999958872795
 10
1.257176113128662
 20
1.5855703800916672
 10
1.2824999809265136
 20
1.5725833624601364
 10
1.3042461395263671
 20
1.5519239157438278
 10
1.3209325790405273
 20
1.5250000208616257
 10
1.3314222812652587
 20
1.493646427989006
 10
1.3349999904632568
 20
1.4599999636411667
 10
1.3314222812652587
 20
1.4263534992933273
 10
1.3209325790405273
 20
1.3950000256299973
 10
1.3042461395263671
 20
1.368076130747795
 10
1.2824999809265136
 20
1.3474166840314865
 10
1.257176113128662
 20
1.3344296663999557
 10
1.2299999713897705
 20
1.3299999684095383
 10
1.202824068069458
 20
1.3344296663999557
  0
LWPOLYLINE
  5
10D
330
17
100
AcDbEntity
  8
P_PROPUESTO
100
AcDbPolyline
 90
23
 70
1
 10
1.3099140644073486
 20
0.6681813448667526
 10
1.2917940139770507
 20
0.6774139255285263
 10
1.277414035797119
 20
0.6917939633131027
 10
1.2681815147399902
 20
0.709913894534111
 10
1.265000057220459
 20
0.7300000041723251
 10
1.2681815147399902
 20
0.7500861138105392
 10
1.277414035797119
 20
0.7682060450315475
 10
1.2917940139770507
 20
0.782586082816124
 10
1.3099140644073486
 20
0.7918186634778976
 10
1.330000114440918
 20
0.7950000017881393
 10
1.6900000095367431
 20
0.7950000017881393
 10
1.7100860595703125
 20
0.7918186634778976
 10
1.7282061100006103
 20
0.782586082816124
 10
1.742586088180542
 20
0.7682060450315475
 10
1.7518186092376709
 20
0.7500861138105392
 10
1.755000066757202
 20
0.7300000041723251
 10
1.7518186092376709
 20
0.709913894534111
 10
1.742586088180542
 20
0.6917939633131027
 10
1.7282061100006103
 20
0.6774139255285263
 10
1.7100860595703125
 20
0.6681813448667526
 10
1.6900000095367431
 20
0.6650000065565109
 10
1.330000114440918
 20
0.6650000065565109
 10
1.3099140644073486
 20
0.6681813448667526
  0
LWPOLYLINE
  5
10E
330
17
100
AcDbEntity
  8
P_PROPUESTO
100
AcDbPolyline
 90
23
 70
1
 10
1.4307312488555908
 20
0.23096494376659393
 10
1.4175772190093994
 20
0.23598439991474152
 10
1.406618070602417
 20
0.24482296407222748
 10
1.3989269256591796
 20
0.2566155046224594
 10
1.3952559947967529
 20
0.27020762860774994
 10
1.395965051651001
 20
0.2842688411474228
 10
1.4009844779968261
 20
0.2974228113889694
 10
1.6509844779968261
 20
0.7324228137731552
 10
1.6598228931427002
 20
0.7433818429708481
 10
1.6716155529022216
 20
0.7510732859373093
 10
1.6852075576782226
 20
0.7547440975904465
 10
1.6992687702178955
 20
0.754035159945488
 10
1.7124228000640869
 20
0.749015673995018
 10
1.7233819484710693
 20
0.7401770800352097
 10
1.7310730934143066
 20
0.7283845394849777
 10
1.7347440242767334
 20
0.7147924154996872
 10
1.7340349674224853
 20
0.7007311433553696
 10
1.7290155410766601
 20
0.6875772327184677
 10
1.4790155410766601
 20
0.2525772303342819
 10
1.470177125930786
 20
0.24161820113658905
 10
1.4583844661712646
 20
0.23392681777477264
 10
1.4447924613952636
 20
0.23025594651699066
 10
1.4307312488555908
 20
0.23096494376659393
  0
LWPOLYLINE
  5
10F
330
17
100
AcDbEntity
  8
P_PROPUESTO
100
AcDbPolyline
 90
5
 70
1
 10
1.3649999618530273
 20
0.2550000101327896
 10
1.6249999523162841
 20
0.2550000101327896
 10
1.6249999523162841
 20
0.20000000298023224
 10
1.3649999618530273
 20
0.20000000298023224
 10
1.3649999618530273
 20
0.2550000101327896
  0
LWPOLYLINE
  5
110
330
17
100
AcDbEntity
  8
P_PROPUESTO
100
AcDbPolyline
 90
23
 70
1
 10
1.2191843509674072
 20
0.9167130440473557
 10
1.209427547454834
 20
0.9216844290494919
 10
1.2016844272613525
 20
0.9294274300336838
 10
1.1967129230499267
 20
0.9391843527555466
 10
1.194999885559082
 20
0.9499999731779099
 10
1.194999885559082
 20
1.2199999541044235
 10
1.1967129230499267
 20
1.2308155745267868
 10
1.2016844272613525
 20
1.2405724972486496
 10
1.209427547454834
 20
1.2483154982328415
 10
1.2191843509674072
 20
1.2532868832349777
 10
1.2299999713897705
 20
1.2549999207258224
 10
1.2408155918121337
 20
1.2532868832349777
 10
1.250572395324707
 20
1.2483154982328415
 10
1.2583155155181884
 20
1.2405724972486496
 10
1.2632870197296142
 20
1.2308155745267868
 10
1.265000057220459
 20
1.2199999541044235
 10
1.265000057220459
 20
0.9499999731779099
 10
1.2632870197296142
 20
0.9391843527555466
 10
1.2583155155181884
 20
0.9294274300336838
 10
1.250572395324707
 20
0.9216844290494919
 10
1.2408155918121337
 20
0.9167130440473557
 10
1.2299999713897705
 20
0.9150000065565109
 10
1.2191843509674072
 20
0.9167130440473557
  0
LWPOLYLINE
  5
111
330
17
100
AcDbEntity
  8
P_PROPUESTO
100
AcDbPolyline
 90
23
 70
1
 10
1.2907294750213623
 20
0.9214683026075363
 10
1.2823664665222168
 20
0.925729438662529
 10
1.2757293701171875
 20
0.9323664158582687
 10
1.2714681148529052
 20
0.9407294243574142
 10
1.2699999332427978
 20
0.9499999731779099
 10
1.2714681148529052
 20
0.9592705219984055
 10
1.2757293701171875
 20
0.967633530497551
 10
1.2823664665222168
 20
0.9742705076932907
 10
1.2907294750213623
 20
0.9785316437482834
 10
1.2999999046325683
 20
0.9799999445676804
 10
1.6200000762939453
 20
0.9799999445676804
 10
1.6292705059051513
 20
0.9785316437482834
 10
1.6376335144042968
 20
0.9742705076932907
 10
1.6442706108093261
 20
0.967633530497551
 10
1.6485318660736084
 20
0.9592705219984055
 10
1.6500000476837158
 20
0.9499999731779099
 10
1.6485318660736084
 20
0.9407294243574142
 10
1.6442706108093261
 20
0.9323664158582687
 10
1.6376335144042968
 20
0.925729438662529
 10
1.6292705059051513
 20
0.9214683026075363
 10
1.6200000762939453
 20
0.9200000017881393
 10
1.2999999046325683
 20
0.9200000017881393
 10
1.2907294750213623
 20
0.9214683026075363
  0
LWPOLYLINE
  5
112
330
17
100
AcDbEntity
  8
P_PROPUESTO
100
AcDbPolyline
 90
23
 70
1
 10
1.3099140644073486
 20
0.6681813448667526
 10
1.2917940139770507
 20
0.6774139255285263
 10
1.277414035797119
 20
0.6917939633131027
 10
1.2681815147399902
 20
0.709913894534111
 10
1.265000057220459
 20
0.7300000041723251
 10
1.2681815147399902
 20
0.7500861138105392
 10
1.277414035797119
 20
0.7682060450315475
 10
1.2917940139770507
 20
0.782586082816124
 10
1.3099140644073486
 20
0.7918186634778976
 10
1.330000114440918
 20
0.7950000017881393
 10
1.6900000095367431
 20
0.7950000017881393
 10
1.7100860595703125
 20
0.7918186634778976
 10
1.7282061100006103
 20
0.782586082816124
 10
1.742586088180542
 20
0.7682060450315475
 10
1.7518186092376709
 20
0.7500861138105392
 10
1.755000066757202
 20
0.7300000041723251
 10
1.7518186092376709
 20
0.709913894534111
 10
1.742586088180542
 20
0.6917939633131027
 10
1.7282061100006103
 20
0.6774139255285263
 10
1.7100860595703125
 20
0.6681813448667526
 10
1.6900000095367431
 20
0.6650000065565109
 10
1.330000114440918
 20
0.6650000065565109
 10
1.3099140644073486
 20
0.6681813448667526
  0
LWPOLYLINE
  5
113
330
17
100
AcDbEntity
  8
P_PROPUESTO
100
AcDbPolyline
 90
23
 70
1
 10
1.4307312488555908
 20
0.23096494376659393
 10
1.4175772190093994
 20
0.23598439991474152
 10
1.406618070602417
 20
0.24482296407222748
 10
1.3989269256591796
 20
0.2566155046224594
 10
1.3952559947967529
 20
0.27020762860774994
 10
1.395965051651001
 20
0.2842688411474228
 10
1.4009844779968261
 20
0.2974228113889694
 10
1.6509844779968261
 20
0.7324228137731552
 10
1.6598228931427002
 20
0.7433818429708481
 10
1.6716155529022216
 20
0.7510732859373093
 10
1.6852075576782226
 20
0.7547440975904465
 10
1.6992687702178955
 20
0.754035159945488
 10
1.7124228000640869
 20
0.749015673995018
 10
1.7233819484710693
 20
0.7401770800352097
 10
1.7310730934143066
 20
0.7283845394849777
 10
1.7347440242767334
 20
0.7147924154996872
 10
1.7340349674224853
 20
0.7007311433553696
 10
1.7290155410766601
 20
0.6875772327184677
 10
1.4790155410766601
 20
0.2525772303342819
 10
1.470177125930786
 20
0.24161820113658905
 10
1.4583844661712646
 20
0.23392681777477264
 10
1.4447924613952636
 20
0.23025594651699066
 10
1.4307312488555908
 20
0.23096494376659393
  0
LWPOLYLINE
  5
114
330
17
100
AcDbEntity
  8
P_PROPUESTO
100
AcDbPolyline
 90
5
 70
1
 10
1.3649999618530273
 20
0.2550000101327896
 10
1.6249999523162841
 20
0.2550000101327896
 10
1.6249999523162841
 20
0.20000000298023224
 10
1.3649999618530273
 20
0.20000000298023224
 10
1.3649999618530273
 20
0.2550000101327896
  0
LWPOLYLINE
  5
115
330
17
100
AcDbEntity
  8
P_PROPUESTO
100
AcDbPolyline
 90
23
 70
1
 10
1.2191843509674072
 20
0.9167130440473557
 10
1.209427547454834
 20
0.9216844290494919
 10
1.2016844272613525
 20
0.9294274300336838
 10
1.1967129230499267
 20
0.9391843527555466
 10
1.194999885559082
 20
0.9499999731779099
 10
1.194999885559082
 20
1.2199999541044235
 10
1.1967129230499267
 20
1.2308155745267868
 10
1.2016844272613525
 20
1.2405724972486496
 10
1.209427547454834
 20
1.2483154982328415
 10
1.2191843509674072
 20
1.2532868832349777
 10
1.2299999713897705
 20
1.2549999207258224
 10
1.2408155918121337
 20
1.2532868832349777
 10
1.250572395324707
 20
1.2483154982328415
 10
1.2583155155181884
 20
1.2405724972486496
 10
1.2632870197296142
 20
1.2308155745267868
 10
1.265000057220459
 20
1.2199999541044235
 10
1.265000057220459
 20
0.9499999731779099
 10
1.2632870197296142
 20
0.9391843527555466
 10
1.2583155155181884
 20
0.9294274300336838
 10
1.250572395324707
 20
0.9216844290494919
 10
1.2408155918121337
 20
0.9167130440473557
 10
1.2299999713897705
 20
0.9150000065565109
 10
1.2191843509674072
 20
0.9167130440473557
  0
LWPOLYLINE
  5
116
330
17
100
AcDbEntity
  8
P_PROPUESTO
100
AcDbPolyline
 90
23
 70
1
 10
1.2907294750213623
 20
0.9214683026075363
 10
1.2823664665222168
 20
0.925729438662529
 10
1.2757293701171875
 20
0.9323664158582687
 10
1.2714681148529052
 20
0.9407294243574142
 10
1.2699999332427978
 20
0.9499999731779099
 10
1.2714681148529052
 20
0.9592705219984055
 10
1.2757293701171875
 20
0.967633530497551
 10
1.2823664665222168
 20
0.9742705076932907
 10
1.2907294750213623
 20
0.9785316437482834
 10
1.2999999046325683
 20
0.9799999445676804
 10
1.6200000762939453
 20
0.9799999445676804
 10
1.6292705059051513
 20
0.9785316437482834
 10
1.6376335144042968
 20
0.9742705076932907
 10
1.6442706108093261
 20
0.967633530497551
 10
1.6485318660736084
 20
0.9592705219984055
 10
1.6500000476837158
 20
0.9499999731779099
 10
1.6485318660736084
 20
0.9407294243574142
 10
1.6442706108093261
 20
0.9323664158582687
 10
1.6376335144042968
 20
0.925729438662529
 10
1.6292705059051513
 20
0.9214683026075363
 10
1.6200000762939453
 20
0.9200000017881393
 10
1.2999999046325683
 20
0.9200000017881393
 10
1.2907294750213623
 20
0.9214683026075363
  0
LINE
  5
117
330
17
100
AcDbEntity
  8
G_MEDIDO
100
AcDbLine
 10
1.3857400000000002
 20
0.005091006556510933
 30
0.0
 11
1.3853509999999996
 21
0.005351006556510924
 31
0.0
  0
LINE
  5
118
330
17
100
AcDbEntity
  8
G_MEDIDO
100
AcDbLine
 10
1.3853509999999996
 20
0.005351006556510924
 30
0.0
 11
1.3850909999999999
 21
0.005741006556510911
 31
0.0
  0
LINE
  5
119
330
17
100
AcDbEntity
  8
G_MEDIDO
100
AcDbLine
 10
1.3850909999999999
 20
0.005741006556510911
 30
0.0
 11
1.385
 21
0.0062000065565109425
 31
0.0
  0
LINE
  5
11A
330
17
100
AcDbEntity
  8
G_MEDIDO
100
AcDbLine
 10
1.385
 20
0.0062000065565109425
 30
0.0
 11
1.385
 21
0.6188000065565109
 31
0.0
  0
LINE
  5
11B
330
17
100
AcDbEntity
  8
G_MEDIDO
100
AcDbLine
 10
1.385
 20
0.6188000065565109
 30
0.0
 11
1.3850909999999999
 21
0.6192590065565109
 31
0.0
  0
LINE
  5
11C
330
17
100
AcDbEntity
  8
G_MEDIDO
100
AcDbLine
 10
1.3850909999999999
 20
0.6192590065565109
 30
0.0
 11
1.3853509999999996
 21
0.6196490065565109
 31
0.0
  0
LINE
  5
11D
330
17
100
AcDbEntity
  8
G_MEDIDO
100
AcDbLine
 10
1.3853509999999996
 20
0.6196490065565109
 30
0.0
 11
1.3857400000000002
 21
0.6199090065565109
 31
0.0
  0
LINE
  5
11E
330
17
100
AcDbEntity
  8
G_MEDIDO
100
AcDbLine
 10
1.3857400000000002
 20
0.6199090065565109
 30
0.0
 11
1.3861999999999999
 21
0.6200000065565109
 31
0.0
  0
LINE
  5
11F
330
17
100
AcDbEntity
  8
G_MEDIDO
100
AcDbLine
 10
1.3861999999999999
 20
0.6200000065565109
 30
0.0
 11
1.4187999999999996
 21
0.6200000065565109
 31
0.0
  0
LINE
  5
120
330
17
100
AcDbEntity
  8
G_MEDIDO
100
AcDbLine
 10
1.4187999999999996
 20
0.6200000065565109
 30
0.0
 11
1.419259
 21
0.6199090065565109
 31
0.0
  0
LINE
  5
121
330
17
100
AcDbEntity
  8
G_MEDIDO
100
AcDbLine
 10
1.419259
 20
0.6199090065565109
 30
0.0
 11
1.4196479999999996
 21
0.619648006556511
 31
0.0
  0
LINE
  5
122
330
17
100
AcDbEntity
  8
G_MEDIDO
100
AcDbLine
 10
1.4196479999999996
 20
0.619648006556511
 30
0.0
 11
1.4199080000000004
 21
0.6192590065565109
 31
0.0
  0
LINE
  5
123
330
17
100
AcDbEntity
  8
G_MEDIDO
100
AcDbLine
 10
1.4199080000000004
 20
0.6192590065565109
 30
0.0
 11
1.42
 21
0.6188000065565109
 31
0.0
  0
LINE
  5
124
330
17
100
AcDbEntity
  8
G_MEDIDO
100
AcDbLine
 10
1.42
 20
0.6188000065565109
 30
0.0
 11
1.42
 21
0.0062000065565109425
 31
0.0
  0
LINE
  5
125
330
17
100
AcDbEntity
  8
G_MEDIDO
100
AcDbLine
 10
1.42
 20
0.0062000065565109425
 30
0.0
 11
1.4199080000000004
 21
0.005741006556510911
 31
0.0
  0
LINE
  5
126
330
17
100
AcDbEntity
  8
G_MEDIDO
100
AcDbLine
 10
1.4199080000000004
 20
0.005741006556510911
 30
0.0
 11
1.4196479999999996
 21
0.005351006556510924
 31
0.0
  0
LINE
  5
127
330
17
100
AcDbEntity
  8
G_MEDIDO
100
AcDbLine
 10
1.4196479999999996
 20
0.005351006556510924
 30
0.0
 11
1.419259
 21
0.005091006556510933
 31
0.0
  0
LINE
  5
128
330
17
100
AcDbEntity
  8
G_MEDIDO
100
AcDbLine
 10
1.419259
 20
0.005091006556510933
 30
0.0
 11
1.4187999999999996
 21
0.005000006556510925
 31
0.0
  0
LINE
  5
129
330
17
100
AcDbEntity
  8
G_MEDIDO
100
AcDbLine
 10
1.4187999999999996
 20
0.005000006556510925
 30
0.0
 11
1.3861999999999999
 21
0.005000006556510925
 31
0.0
  0
LINE
  5
12A
330
17
100
AcDbEntity
  8
G_MEDIDO
100
AcDbLine
 10
1.3861999999999999
 20
0.005000006556510925
 30
0.0
 11
1.3857400000000002
 21
0.005091006556510933
 31
0.0
  0
LINE
  5
12B
330
17
100
AcDbEntity
  8
G_MEDIDO
100
AcDbLine
 10
1.3854320000000002
 20
5.3006556510922564e-05
 30
0.0
 11
1.385205
 21
0.0002050065565109378
 31
0.0
  0
LINE
  5
12C
330
17
100
AcDbEntity
  8
G_MEDIDO
100
AcDbLine
 10
1.385205
 20
0.0002050065565109378
 30
0.0
 11
1.3850529999999999
 21
0.0004320065565109417
 31
0.0
  0
LINE
  5
12D
330
17
100
AcDbEntity
  8
G_MEDIDO
100
AcDbLine
 10
1.3850529999999999
 20
0.0004320065565109417
 30
0.0
 11
1.385
 21
0.0007000065565109139
 31
0.0
  0
LINE
  5
12E
330
17
100
AcDbEntity
  8
G_MEDIDO
100
AcDbLine
 10
1.385
 20
0.0007000065565109139
 30
0.0
 11
1.385
 21
0.004300006556510908
 31
0.0
  0
LINE
  5
12F
330
17
100
AcDbEntity
  8
G_MEDIDO
100
AcDbLine
 10
1.385
 20
0.004300006556510908
 30
0.0
 11
1.3850529999999999
 21
0.0045680065565109375
 31
0.0
  0
LINE
  5
130
330
17
100
AcDbEntity
  8
G_MEDIDO
100
AcDbLine
 10
1.3850529999999999
 20
0.0045680065565109375
 30
0.0
 11
1.385205
 21
0.004795006556510942
 31
0.0
  0
LINE
  5
131
330
17
100
AcDbEntity
  8
G_MEDIDO
100
AcDbLine
 10
1.385205
 20
0.004795006556510942
 30
0.0
 11
1.3854320000000002
 21
0.004947006556510928
 31
0.0
  0
LINE
  5
132
330
17
100
AcDbEntity
  8
G_MEDIDO
100
AcDbLine
 10
1.3854320000000002
 20
0.004947006556510928
 30
0.0
 11
1.3857000000000004
 21
0.005000006556510925
 31
0.0
  0
LINE
  5
133
330
17
100
AcDbEntity
  8
G_MEDIDO
100
AcDbLine
 10
1.3857000000000004
 20
0.005000006556510925
 30
0.0
 11
1.4193000000000002
 21
0.005000006556510925
 31
0.0
  0
LINE
  5
134
330
17
100
AcDbEntity
  8
G_MEDIDO
100
AcDbLine
 10
1.4193000000000002
 20
0.005000006556510925
 30
0.0
 11
1.4195680000000002
 21
0.004947006556510928
 31
0.0
  0
LINE
  5
135
330
17
100
AcDbEntity
  8
G_MEDIDO
100
AcDbLine
 10
1.4195680000000002
 20
0.004947006556510928
 30
0.0
 11
1.4197950000000001
 21
0.004795006556510942
 31
0.0
  0
LINE
  5
136
330
17
100
AcDbEntity
  8
G_MEDIDO
100
AcDbLine
 10
1.4197950000000001
 20
0.004795006556510942
 30
0.0
 11
1.4199460000000004
 21
0.0045680065565109375
 31
0.0
  0
LINE
  5
137
330
17
100
AcDbEntity
  8
G_MEDIDO
100
AcDbLine
 10
1.4199460000000004
 20
0.0045680065565109375
 30
0.0
 11
1.42
 21
0.004300006556510908
 31
0.0
  0
LINE
  5
138
330
17
100
AcDbEntity
  8
G_MEDIDO
100
AcDbLine
 10
1.42
 20
0.004300006556510908
 30
0.0
 11
1.42
 21
0.0007000065565109139
 31
0.0
  0
LINE
  5
139
330
17
100
AcDbEntity
  8
G_MEDIDO
100
AcDbLine
 10
1.42
 20
0.0007000065565109139
 30
0.0
 11
1.4199460000000004
 21
0.0004320065565109417
 31
0.0
  0
LINE
  5
13A
330
17
100
AcDbEntity
  8
G_MEDIDO
100
AcDbLine
 10
1.4199460000000004
 20
0.0004320065565109417
 30
0.0
 11
1.4197950000000001
 21
0.0002050065565109378
 31
0.0
  0
LINE
  5
13B
330
17
100
AcDbEntity
  8
G_MEDIDO
100
AcDbLine
 10
1.4197950000000001
 20
0.0002050065565109378
 30
0.0
 11
1.4195680000000002
 21
5.3006556510922564e-05
 31
0.0
  0
LINE
  5
13C
330
17
100
AcDbEntity
  8
G_MEDIDO
100
AcDbLine
 10
1.4195680000000002
 20
5.3006556510922564e-05
 30
0.0
 11
1.4193000000000002
 21
6.556510925292969e-09
 31
0.0
  0
LINE
  5
13D
330
17
100
AcDbEntity
  8
G_MEDIDO
100
AcDbLine
 10
1.4193000000000002
 20
6.556510925292969e-09
 30
0.0
 11
1.3857000000000004
 21
6.556510925292969e-09
 31
0.0
  0
LINE
  5
13E
330
17
100
AcDbEntity
  8
G_MEDIDO
100
AcDbLine
 10
1.3857000000000004
 20
6.556510925292969e-09
 30
0.0
 11
1.3854320000000002
 21
5.3006556510922564e-05
 31
0.0
  0
LINE
  5
13F
330
17
100
AcDbEntity
  8
G_MEDIDO
100
AcDbLine
 10
1.080741
 20
0.005091006556510933
 30
0.0
 11
1.080351
 21
0.005351006556510924
 31
0.0
  0
LINE
  5
140
330
17
100
AcDbEntity
  8
G_MEDIDO
100
AcDbLine
 10
1.080351
 20
0.005351006556510924
 30
0.0
 11
1.0800910000000004
 21
0.005741006556510911
 31
0.0
  0
LINE
  5
141
330
17
100
AcDbEntity
  8
G_MEDIDO
100
AcDbLine
 10
1.0800910000000004
 20
0.005741006556510911
 30
0.0
 11
1.08
 21
0.0062000065565109425
 31
0.0
  0
LINE
  5
142
330
17
100
AcDbEntity
  8
G_MEDIDO
100
AcDbLine
 10
1.08
 20
0.0062000065565109425
 30
0.0
 11
1.08
 21
0.6188000065565109
 31
0.0
  0
LINE
  5
143
330
17
100
AcDbEntity
  8
G_MEDIDO
100
AcDbLine
 10
1.08
 20
0.6188000065565109
 30
0.0
 11
1.0800910000000004
 21
0.6192590065565109
 31
0.0
  0
LINE
  5
144
330
17
100
AcDbEntity
  8
G_MEDIDO
100
AcDbLine
 10
1.0800910000000004
 20
0.6192590065565109
 30
0.0
 11
1.080351
 21
0.6196490065565109
 31
0.0
  0
LINE
  5
145
330
17
100
AcDbEntity
  8
G_MEDIDO
100
AcDbLine
 10
1.080351
 20
0.6196490065565109
 30
0.0
 11
1.080741
 21
0.6199090065565109
 31
0.0
  0
LINE
  5
146
330
17
100
AcDbEntity
  8
G_MEDIDO
100
AcDbLine
 10
1.080741
 20
0.6199090065565109
 30
0.0
 11
1.0812000000000004
 21
0.6200000065565109
 31
0.0
  0
LINE
  5
147
330
17
100
AcDbEntity
  8
G_MEDIDO
100
AcDbLine
 10
1.0812000000000004
 20
0.6200000065565109
 30
0.0
 11
1.1138000000000001
 21
0.6200000065565109
 31
0.0
  0
LINE
  5
148
330
17
100
AcDbEntity
  8
G_MEDIDO
100
AcDbLine
 10
1.1138000000000001
 20
0.6200000065565109
 30
0.0
 11
1.114259
 21
0.6199090065565109
 31
0.0
  0
LINE
  5
149
330
17
100
AcDbEntity
  8
G_MEDIDO
100
AcDbLine
 10
1.114259
 20
0.6199090065565109
 30
0.0
 11
1.114648
 21
0.619648006556511
 31
0.0
  0
LINE
  5
14A
330
17
100
AcDbEntity
  8
G_MEDIDO
100
AcDbLine
 10
1.114648
 20
0.619648006556511
 30
0.0
 11
1.114908
 21
0.6192590065565109
 31
0.0
  0
LINE
  5
14B
330
17
100
AcDbEntity
  8
G_MEDIDO
100
AcDbLine
 10
1.114908
 20
0.6192590065565109
 30
0.0
 11
1.115
 21
0.6188000065565109
 31
0.0
  0
LINE
  5
14C
330
17
100
AcDbEntity
  8
G_MEDIDO
100
AcDbLine
 10
1.115
 20
0.6188000065565109
 30
0.0
 11
1.115
 21
0.0062000065565109425
 31
0.0
  0
LINE
  5
14D
330
17
100
AcDbEntity
  8
G_MEDIDO
100
AcDbLine
 10
1.115
 20
0.0062000065565109425
 30
0.0
 11
1.114908
 21
0.005741006556510911
 31
0.0
  0
LINE
  5
14E
330
17
100
AcDbEntity
  8
G_MEDIDO
100
AcDbLine
 10
1.114908
 20
0.005741006556510911
 30
0.0
 11
1.114648
 21
0.005351006556510924
 31
0.0
  0
LINE
  5
14F
330
17
100
AcDbEntity
  8
G_MEDIDO
100
AcDbLine
 10
1.114648
 20
0.005351006556510924
 30
0.0
 11
1.114259
 21
0.005091006556510933
 31
0.0
  0
LINE
  5
150
330
17
100
AcDbEntity
  8
G_MEDIDO
100
AcDbLine
 10
1.114259
 20
0.005091006556510933
 30
0.0
 11
1.1138000000000001
 21
0.005000006556510925
 31
0.0
  0
LINE
  5
151
330
17
100
AcDbEntity
  8
G_MEDIDO
100
AcDbLine
 10
1.1138000000000001
 20
0.005000006556510925
 30
0.0
 11
1.0812000000000004
 21
0.005000006556510925
 31
0.0
  0
LINE
  5
152
330
17
100
AcDbEntity
  8
G_MEDIDO
100
AcDbLine
 10
1.0812000000000004
 20
0.005000006556510925
 30
0.0
 11
1.080741
 21
0.005091006556510933
 31
0.0
  0
LINE
  5
153
330
17
100
AcDbEntity
  8
G_MEDIDO
100
AcDbLine
 10
1.0804319999999998
 20
5.3006556510922564e-05
 30
0.0
 11
1.0802049999999999
 21
0.0002050065565109378
 31
0.0
  0
LINE
  5
154
330
17
100
AcDbEntity
  8
G_MEDIDO
100
AcDbLine
 10
1.0802049999999999
 20
0.0002050065565109378
 30
0.0
 11
1.0800530000000004
 21
0.0004320065565109417
 31
0.0
  0
LINE
  5
155
330
17
100
AcDbEntity
  8
G_MEDIDO
100
AcDbLine
 10
1.0800530000000004
 20
0.0004320065565109417
 30
0.0
 11
1.08
 21
0.0007000065565109139
 31
0.0
  0
LINE
  5
156
330
17
100
AcDbEntity
  8
G_MEDIDO
100
AcDbLine
 10
1.08
 20
0.0007000065565109139
 30
0.0
 11
1.08
 21
0.004300006556510908
 31
0.0
  0
LINE
  5
157
330
17
100
AcDbEntity
  8
G_MEDIDO
100
AcDbLine
 10
1.08
 20
0.004300006556510908
 30
0.0
 11
1.0800530000000004
 21
0.0045680065565109375
 31
0.0
  0
LINE
  5
158
330
17
100
AcDbEntity
  8
G_MEDIDO
100
AcDbLine
 10
1.0800530000000004
 20
0.0045680065565109375
 30
0.0
 11
1.0802049999999999
 21
0.004795006556510942
 31
0.0
  0
LINE
  5
159
330
17
100
AcDbEntity
  8
G_MEDIDO
100
AcDbLine
 10
1.0802049999999999
 20
0.004795006556510942
 30
0.0
 11
1.0804319999999998
 21
0.004947006556510928
 31
0.0
  0
LINE
  5
15A
330
17
100
AcDbEntity
  8
G_MEDIDO
100
AcDbLine
 10
1.0804319999999998
 20
0.004947006556510928
 30
0.0
 11
1.0806999999999998
 21
0.005000006556510925
 31
0.0
  0
LINE
  5
15B
330
17
100
AcDbEntity
  8
G_MEDIDO
100
AcDbLine
 10
1.0806999999999998
 20
0.005000006556510925
 30
0.0
 11
1.1142999999999996
 21
0.005000006556510925
 31
0.0
  0
LINE
  5
15C
330
17
100
AcDbEntity
  8
G_MEDIDO
100
AcDbLine
 10
1.1142999999999996
 20
0.005000006556510925
 30
0.0
 11
1.1145680000000002
 21
0.004947006556510928
 31
0.0
  0
LINE
  5
15D
330
17
100
AcDbEntity
  8
G_MEDIDO
100
AcDbLine
 10
1.1145680000000002
 20
0.004947006556510928
 30
0.0
 11
1.1147949999999995
 21
0.004795006556510942
 31
0.0
  0
LINE
  5
15E
330
17
100
AcDbEntity
  8
G_MEDIDO
100
AcDbLine
 10
1.1147949999999995
 20
0.004795006556510942
 30
0.0
 11
1.1149470000000001
 21
0.0045680065565109375
 31
0.0
  0
LINE
  5
15F
330
17
100
AcDbEntity
  8
G_MEDIDO
100
AcDbLine
 10
1.1149470000000001
 20
0.0045680065565109375
 30
0.0
 11
1.115
 21
0.004300006556510908
 31
0.0
  0
LINE
  5
160
330
17
100
AcDbEntity
  8
G_MEDIDO
100
AcDbLine
 10
1.115
 20
0.004300006556510908
 30
0.0
 11
1.115
 21
0.0007000065565109139
 31
0.0
  0
LINE
  5
161
330
17
100
AcDbEntity
  8
G_MEDIDO
100
AcDbLine
 10
1.115
 20
0.0007000065565109139
 30
0.0
 11
1.1149470000000001
 21
0.0004320065565109417
 31
0.0
  0
LINE
  5
162
330
17
100
AcDbEntity
  8
G_MEDIDO
100
AcDbLine
 10
1.1149470000000001
 20
0.0004320065565109417
 30
0.0
 11
1.1147949999999995
 21
0.0002050065565109378
 31
0.0
  0
LINE
  5
163
330
17
100
AcDbEntity
  8
G_MEDIDO
100
AcDbLine
 10
1.1147949999999995
 20
0.0002050065565109378
 30
0.0
 11
1.1145680000000002
 21
5.3006556510922564e-05
 31
0.0
  0
LINE
  5
164
330
17
100
AcDbEntity
  8
G_MEDIDO
100
AcDbLine
 10
1.1145680000000002
 20
5.3006556510922564e-05
 30
0.0
 11
1.1142999999999996
 21
6.556510925292969e-09
 31
0.0
  0
LINE
  5
165
330
17
100
AcDbEntity
  8
G_MEDIDO
100
AcDbLine
 10
1.1142999999999996
 20
6.556510925292969e-09
 30
0.0
 11
1.0806999999999998
 21
6.556510925292969e-09
 31
0.0
  0
LINE
  5
166
330
17
100
AcDbEntity
  8
G_MEDIDO
100
AcDbLine
 10
1.0806999999999998
 20
6.556510925292969e-09
 30
0.0
 11
1.0804319999999998
 21
5.3006556510922564e-05
 31
0.0
  0
LINE
  5
167
330
17
100
AcDbEntity
  8
G_MEDIDO
100
AcDbLine
 10
1.3857400000000002
 20
0.005091006556510933
 30
0.0
 11
1.3853509999999996
 21
0.005351006556510924
 31
0.0
  0
LINE
  5
168
330
17
100
AcDbEntity
  8
G_MEDIDO
100
AcDbLine
 10
1.3853509999999996
 20
0.005351006556510924
 30
0.0
 11
1.3850909999999999
 21
0.005741006556510911
 31
0.0
  0
LINE
  5
169
330
17
100
AcDbEntity
  8
G_MEDIDO
100
AcDbLine
 10
1.3850909999999999
 20
0.005741006556510911
 30
0.0
 11
1.385
 21
0.0062000065565109425
 31
0.0
  0
LINE
  5
16A
330
17
100
AcDbEntity
  8
G_MEDIDO
100
AcDbLine
 10
1.385
 20
0.0062000065565109425
 30
0.0
 11
1.385
 21
0.6188000065565109
 31
0.0
  0
LINE
  5
16B
330
17
100
AcDbEntity
  8
G_MEDIDO
100
AcDbLine
 10
1.385
 20
0.6188000065565109
 30
0.0
 11
1.3850909999999999
 21
0.6192590065565109
 31
0.0
  0
LINE
  5
16C
330
17
100
AcDbEntity
  8
G_MEDIDO
100
AcDbLine
 10
1.3850909999999999
 20
0.6192590065565109
 30
0.0
 11
1.3853509999999996
 21
0.6196490065565109
 31
0.0
  0
LINE
  5
16D
330
17
100
AcDbEntity
  8
G_MEDIDO
100
AcDbLine
 10
1.3853509999999996
 20
0.6196490065565109
 30
0.0
 11
1.3857400000000002
 21
0.6199090065565109
 31
0.0
  0
LINE
  5
16E
330
17
100
AcDbEntity
  8
G_MEDIDO
100
AcDbLine
 10
1.3857400000000002
 20
0.6199090065565109
 30
0.0
 11
1.3861999999999999
 21
0.6200000065565109
 31
0.0
  0
LINE
  5
16F
330
17
100
AcDbEntity
  8
G_MEDIDO
100
AcDbLine
 10
1.3861999999999999
 20
0.6200000065565109
 30
0.0
 11
1.4187999999999996
 21
0.6200000065565109
 31
0.0
  0
LINE
  5
170
330
17
100
AcDbEntity
  8
G_MEDIDO
100
AcDbLine
 10
1.4187999999999996
 20
0.6200000065565109
 30
0.0
 11
1.419259
 21
0.6199090065565109
 31
0.0
  0
LINE
  5
171
330
17
100
AcDbEntity
  8
G_MEDIDO
100
AcDbLine
 10
1.419259
 20
0.6199090065565109
 30
0.0
 11
1.4196479999999996
 21
0.619648006556511
 31
0.0
  0
LINE
  5
172
330
17
100
AcDbEntity
  8
G_MEDIDO
100
AcDbLine
 10
1.4196479999999996
 20
0.619648006556511
 30
0.0
 11
1.4199080000000004
 21
0.6192590065565109
 31
0.0
  0
LINE
  5
173
330
17
100
AcDbEntity
  8
G_MEDIDO
100
AcDbLine
 10
1.4199080000000004
 20
0.6192590065565109
 30
0.0
 11
1.42
 21
0.6188000065565109
 31
0.0
  0
LINE
  5
174
330
17
100
AcDbEntity
  8
G_MEDIDO
100
AcDbLine
 10
1.42
 20
0.6188000065565109
 30
0.0
 11
1.42
 21
0.0062000065565109425
 31
0.0
  0
LINE
  5
175
330
17
100
AcDbEntity
  8
G_MEDIDO
100
AcDbLine
 10
1.42
 20
0.0062000065565109425
 30
0.0
 11
1.4199080000000004
 21
0.005741006556510911
 31
0.0
  0
LINE
  5
176
330
17
100
AcDbEntity
  8
G_MEDIDO
100
AcDbLine
 10
1.4199080000000004
 20
0.005741006556510911
 30
0.0
 11
1.4196479999999996
 21
0.005351006556510924
 31
0.0
  0
LINE
  5
177
330
17
100
AcDbEntity
  8
G_MEDIDO
100
AcDbLine
 10
1.4196479999999996
 20
0.005351006556510924
 30
0.0
 11
1.419259
 21
0.005091006556510933
 31
0.0
  0
LINE
  5
178
330
17
100
AcDbEntity
  8
G_MEDIDO
100
AcDbLine
 10
1.419259
 20
0.005091006556510933
 30
0.0
 11
1.4187999999999996
 21
0.005000006556510925
 31
0.0
  0
LINE
  5
179
330
17
100
AcDbEntity
  8
G_MEDIDO
100
AcDbLine
 10
1.4187999999999996
 20
0.005000006556510925
 30
0.0
 11
1.3861999999999999
 21
0.005000006556510925
 31
0.0
  0
LINE
  5
17A
330
17
100
AcDbEntity
  8
G_MEDIDO
100
AcDbLine
 10
1.3861999999999999
 20
0.005000006556510925
 30
0.0
 11
1.3857400000000002
 21
0.005091006556510933
 31
0.0
  0
LINE
  5
17B
330
17
100
AcDbEntity
  8
G_MEDIDO
100
AcDbLine
 10
1.3854320000000002
 20
5.3006556510922564e-05
 30
0.0
 11
1.385205
 21
0.0002050065565109378
 31
0.0
  0
LINE
  5
17C
330
17
100
AcDbEntity
  8
G_MEDIDO
100
AcDbLine
 10
1.385205
 20
0.0002050065565109378
 30
0.0
 11
1.3850529999999999
 21
0.0004320065565109417
 31
0.0
  0
LINE
  5
17D
330
17
100
AcDbEntity
  8
G_MEDIDO
100
AcDbLine
 10
1.3850529999999999
 20
0.0004320065565109417
 30
0.0
 11
1.385
 21
0.0007000065565109139
 31
0.0
  0
LINE
  5
17E
330
17
100
AcDbEntity
  8
G_MEDIDO
100
AcDbLine
 10
1.385
 20
0.0007000065565109139
 30
0.0
 11
1.385
 21
0.004300006556510908
 31
0.0
  0
LINE
  5
17F
330
17
100
AcDbEntity
  8
G_MEDIDO
100
AcDbLine
 10
1.385
 20
0.004300006556510908
 30
0.0
 11
1.3850529999999999
 21
0.0045680065565109375
 31
0.0
  0
LINE
  5
180
330
17
100
AcDbEntity
  8
G_MEDIDO
100
AcDbLine
 10
1.3850529999999999
 20
0.0045680065565109375
 30
0.0
 11
1.385205
 21
0.004795006556510942
 31
0.0
  0
LINE
  5
181
330
17
100
AcDbEntity
  8
G_MEDIDO
100
AcDbLine
 10
1.385205
 20
0.004795006556510942
 30
0.0
 11
1.3854320000000002
 21
0.004947006556510928
 31
0.0
  0
LINE
  5
182
330
17
100
AcDbEntity
  8
G_MEDIDO
100
AcDbLine
 10
1.3854320000000002
 20
0.004947006556510928
 30
0.0
 11
1.3857000000000004
 21
0.005000006556510925
 31
0.0
  0
LINE
  5
183
330
17
100
AcDbEntity
  8
G_MEDIDO
100
AcDbLine
 10
1.3857000000000004
 20
0.005000006556510925
 30
0.0
 11
1.4193000000000002
 21
0.005000006556510925
 31
0.0
  0
LINE
  5
184
330
17
100
AcDbEntity
  8
G_MEDIDO
100
AcDbLine
 10
1.4193000000000002
 20
0.005000006556510925
 30
0.0
 11
1.4195680000000002
 21
0.004947006556510928
 31
0.0
  0
LINE
  5
185
330
17
100
AcDbEntity
  8
G_MEDIDO
100
AcDbLine
 10
1.4195680000000002
 20
0.004947006556510928
 30
0.0
 11
1.4197950000000001
 21
0.004795006556510942
 31
0.0
  0
LINE
  5
186
330
17
100
AcDbEntity
  8
G_MEDIDO
100
AcDbLine
 10
1.4197950000000001
 20
0.004795006556510942
 30
0.0
 11
1.4199460000000004
 21
0.0045680065565109375
 31
0.0
  0
LINE
  5
187
330
17
100
AcDbEntity
  8
G_MEDIDO
100
AcDbLine
 10
1.4199460000000004
 20
0.0045680065565109375
 30
0.0
 11
1.42
 21
0.004300006556510908
 31
0.0
  0
LINE
  5
188
330
17
100
AcDbEntity
  8
G_MEDIDO
100
AcDbLine
 10
1.42
 20
0.004300006556510908
 30
0.0
 11
1.42
 21
0.0007000065565109139
 31
0.0
  0
LINE
  5
189
330
17
100
AcDbEntity
  8
G_MEDIDO
100
AcDbLine
 10
1.42
 20
0.0007000065565109139
 30
0.0
 11
1.4199460000000004
 21
0.0004320065565109417
 31
0.0
  0
LINE
  5
18A
330
17
100
AcDbEntity
  8
G_MEDIDO
100
AcDbLine
 10
1.4199460000000004
 20
0.0004320065565109417
 30
0.0
 11
1.4197950000000001
 21
0.0002050065565109378
 31
0.0
  0
LINE
  5
18B
330
17
100
AcDbEntity
  8
G_MEDIDO
100
AcDbLine
 10
1.4197950000000001
 20
0.0002050065565109378
 30
0.0
 11
1.4195680000000002
 21
5.3006556510922564e-05
 31
0.0
  0
LINE
  5
18C
330
17
100
AcDbEntity
  8
G_MEDIDO
100
AcDbLine
 10
1.4195680000000002
 20
5.3006556510922564e-05
 30
0.0
 11
1.4193000000000002
 21
6.556510925292969e-09
 31
0.0
  0
LINE
  5
18D
330
17
100
AcDbEntity
  8
G_MEDIDO
100
AcDbLine
 10
1.4193000000000002
 20
6.556510925292969e-09
 30
0.0
 11
1.3857000000000004
 21
6.556510925292969e-09
 31
0.0
  0
LINE
  5
18E
330
17
100
AcDbEntity
  8
G_MEDIDO
100
AcDbLine
 10
1.3857000000000004
 20
6.556510925292969e-09
 30
0.0
 11
1.3854320000000002
 21
5.3006556510922564e-05
 31
0.0
  0
LINE
  5
18F
330
17
100
AcDbEntity
  8
G_MEDIDO
100
AcDbLine
 10
1.080741
 20
0.005091006556510933
 30
0.0
 11
1.080351
 21
0.005351006556510924
 31
0.0
  0
LINE
  5
190
330
17
100
AcDbEntity
  8
G_MEDIDO
100
AcDbLine
 10
1.080351
 20
0.005351006556510924
 30
0.0
 11
1.0800910000000004
 21
0.005741006556510911
 31
0.0
  0
LINE
  5
191
330
17
100
AcDbEntity
  8
G_MEDIDO
100
AcDbLine
 10
1.0800910000000004
 20
0.005741006556510911
 30
0.0
 11
1.08
 21
0.0062000065565109425
 31
0.0
  0
LINE
  5
192
330
17
100
AcDbEntity
  8
G_MEDIDO
100
AcDbLine
 10
1.08
 20
0.0062000065565109425
 30
0.0
 11
1.08
 21
0.6188000065565109
 31
0.0
  0
LINE
  5
193
330
17
100
AcDbEntity
  8
G_MEDIDO
100
AcDbLine
 10
1.08
 20
0.6188000065565109
 30
0.0
 11
1.0800910000000004
 21
0.6192590065565109
 31
0.0
  0
LINE
  5
194
330
17
100
AcDbEntity
  8
G_MEDIDO
100
AcDbLine
 10
1.0800910000000004
 20
0.6192590065565109
 30
0.0
 11
1.080351
 21
0.6196490065565109
 31
0.0
  0
LINE
  5
195
330
17
100
AcDbEntity
  8
G_MEDIDO
100
AcDbLine
 10
1.080351
 20
0.6196490065565109
 30
0.0
 11
1.080741
 21
0.6199090065565109
 31
0.0
  0
LINE
  5
196
330
17
100
AcDbEntity
  8
G_MEDIDO
100
AcDbLine
 10
1.080741
 20
0.6199090065565109
 30
0.0
 11
1.0812000000000004
 21
0.6200000065565109
 31
0.0
  0
LINE
  5
197
330
17
100
AcDbEntity
  8
G_MEDIDO
100
AcDbLine
 10
1.0812000000000004
 20
0.6200000065565109
 30
0.0
 11
1.1138000000000001
 21
0.6200000065565109
 31
0.0
  0
LINE
  5
198
330
17
100
AcDbEntity
  8
G_MEDIDO
100
AcDbLine
 10
1.1138000000000001
 20
0.6200000065565109
 30
0.0
 11
1.114259
 21
0.6199090065565109
 31
0.0
  0
LINE
  5
199
330
17
100
AcDbEntity
  8
G_MEDIDO
100
AcDbLine
 10
1.114259
 20
0.6199090065565109
 30
0.0
 11
1.114648
 21
0.619648006556511
 31
0.0
  0
LINE
  5
19A
330
17
100
AcDbEntity
  8
G_MEDIDO
100
AcDbLine
 10
1.114648
 20
0.619648006556511
 30
0.0
 11
1.114908
 21
0.6192590065565109
 31
0.0
  0
LINE
  5
19B
330
17
100
AcDbEntity
  8
G_MEDIDO
100
AcDbLine
 10
1.114908
 20
0.6192590065565109
 30
0.0
 11
1.115
 21
0.6188000065565109
 31
0.0
  0
LINE
  5
19C
330
17
100
AcDbEntity
  8
G_MEDIDO
100
AcDbLine
 10
1.115
 20
0.6188000065565109
 30
0.0
 11
1.115
 21
0.0062000065565109425
 31
0.0
  0
LINE
  5
19D
330
17
100
AcDbEntity
  8
G_MEDIDO
100
AcDbLine
 10
1.115
 20
0.0062000065565109425
 30
0.0
 11
1.114908
 21
0.005741006556510911
 31
0.0
  0
LINE
  5
19E
330
17
100
AcDbEntity
  8
G_MEDIDO
100
AcDbLine
 10
1.114908
 20
0.005741006556510911
 30
0.0
 11
1.114648
 21
0.005351006556510924
 31
0.0
  0
LINE
  5
19F
330
17
100
AcDbEntity
  8
G_MEDIDO
100
AcDbLine
 10
1.114648
 20
0.005351006556510924
 30
0.0
 11
1.114259
 21
0.005091006556510933
 31
0.0
  0
LINE
  5
1A0
330
17
100
AcDbEntity
  8
G_MEDIDO
100
AcDbLine
 10
1.114259
 20
0.005091006556510933
 30
0.0
 11
1.1138000000000001
 21
0.005000006556510925
 31
0.0
  0
LINE
  5
1A1
330
17
100
AcDbEntity
  8
G_MEDIDO
100
AcDbLine
 10
1.1138000000000001
 20
0.005000006556510925
 30
0.0
 11
1.0812000000000004
 21
0.005000006556510925
 31
0.0
  0
LINE
  5
1A2
330
17
100
AcDbEntity
  8
G_MEDIDO
100
AcDbLine
 10
1.0812000000000004
 20
0.005000006556510925
 30
0.0
 11
1.080741
 21
0.005091006556510933
 31
0.0
  0
LINE
  5
1A3
330
17
100
AcDbEntity
  8
G_MEDIDO
100
AcDbLine
 10
1.0804319999999998
 20
5.3006556510922564e-05
 30
0.0
 11
1.0802049999999999
 21
0.0002050065565109378
 31
0.0
  0
LINE
  5
1A4
330
17
100
AcDbEntity
  8
G_MEDIDO
100
AcDbLine
 10
1.0802049999999999
 20
0.0002050065565109378
 30
0.0
 11
1.0800530000000004
 21
0.0004320065565109417
 31
0.0
  0
LINE
  5
1A5
330
17
100
AcDbEntity
  8
G_MEDIDO
100
AcDbLine
 10
1.0800530000000004
 20
0.0004320065565109417
 30
0.0
 11
1.08
 21
0.0007000065565109139
 31
0.0
  0
LINE
  5
1A6
330
17
100
AcDbEntity
  8
G_MEDIDO
100
AcDbLine
 10
1.08
 20
0.0007000065565109139
 30
0.0
 11
1.08
 21
0.004300006556510908
 31
0.0
  0
LINE
  5
1A7
330
17
100
AcDbEntity
  8
G_MEDIDO
100
AcDbLine
 10
1.08
 20
0.004300006556510908
 30
0.0
 11
1.0800530000000004
 21
0.0045680065565109375
 31
0.0
  0
LINE
  5
1A8
330
17
100
AcDbEntity
  8
G_MEDIDO
100
AcDbLine
 10
1.0800530000000004
 20
0.0045680065565109375
 30
0.0
 11
1.0802049999999999
 21
0.004795006556510942
 31
0.0
  0
LINE
  5
1A9
330
17
100
AcDbEntity
  8
G_MEDIDO
100
AcDbLine
 10
1.0802049999999999
 20
0.004795006556510942
 30
0.0
 11
1.0804319999999998
 21
0.004947006556510928
 31
0.0
  0
LINE
  5
1AA
330
17
100
AcDbEntity
  8
G_MEDIDO
100
AcDbLine
 10
1.0804319999999998
 20
0.004947006556510928
 30
0.0
 11
1.0806999999999998
 21
0.005000006556510925
 31
0.0
  0
LINE
  5
1AB
330
17
100
AcDbEntity
  8
G_MEDIDO
100
AcDbLine
 10
1.0806999999999998
 20
0.005000006556510925
 30
0.0
 11
1.1142999999999996
 21
0.005000006556510925
 31
0.0
  0
LINE
  5
1AC
330
17
100
AcDbEntity
  8
G_MEDIDO
100
AcDbLine
 10
1.1142999999999996
 20
0.005000006556510925
 30
0.0
 11
1.1145680000000002
 21
0.004947006556510928
 31
0.0
  0
LINE
  5
1AD
330
17
100
AcDbEntity
  8
G_MEDIDO
100
AcDbLine
 10
1.1145680000000002
 20
0.004947006556510928
 30
0.0
 11
1.1147949999999995
 21
0.004795006556510942
 31
0.0
  0
LINE
  5
1AE
330
17
100
AcDbEntity
  8
G_MEDIDO
100
AcDbLine
 10
1.1147949999999995
 20
0.004795006556510942
 30
0.0
 11
1.1149470000000001
 21
0.0045680065565109375
 31
0.0
  0
LINE
  5
1AF
330
17
100
AcDbEntity
  8
G_MEDIDO
100
AcDbLine
 10
1.1149470000000001
 20
0.0045680065565109375
 30
0.0
 11
1.115
 21
0.004300006556510908
 31
0.0
  0
LINE
  5
1B0
330
17
100
AcDbEntity
  8
G_MEDIDO
100
AcDbLine
 10
1.115
 20
0.004300006556510908
 30
0.0
 11
1.115
 21
0.0007000065565109139
 31
0.0
  0
LINE
  5
1B1
330
17
100
AcDbEntity
  8
G_MEDIDO
100
AcDbLine
 10
1.115
 20
0.0007000065565109139
 30
0.0
 11
1.1149470000000001
 21
0.0004320065565109417
 31
0.0
  0
LINE
  5
1B2
330
17
100
AcDbEntity
  8
G_MEDIDO
100
AcDbLine
 10
1.1149470000000001
 20
0.0004320065565109417
 30
0.0
 11
1.1147949999999995
 21
0.0002050065565109378
 31
0.0
  0
LINE
  5
1B3
330
17
100
AcDbEntity
  8
G_MEDIDO
100
AcDbLine
 10
1.1147949999999995
 20
0.0002050065565109378
 30
0.0
 11
1.1145680000000002
 21
5.3006556510922564e-05
 31
0.0
  0
LINE
  5
1B4
330
17
100
AcDbEntity
  8
G_MEDIDO
100
AcDbLine
 10
1.1145680000000002
 20
5.3006556510922564e-05
 30
0.0
 11
1.1142999999999996
 21
6.556510925292969e-09
 31
0.0
  0
LINE
  5
1B5
330
17
100
AcDbEntity
  8
G_MEDIDO
100
AcDbLine
 10
1.1142999999999996
 20
6.556510925292969e-09
 30
0.0
 11
1.0806999999999998
 21
6.556510925292969e-09
 31
0.0
  0
LINE
  5
1B6
330
17
100
AcDbEntity
  8
G_MEDIDO
100
AcDbLine
 10
1.0806999999999998
 20
6.556510925292969e-09
 30
0.0
 11
1.0804319999999998
 21
5.3006556510922564e-05
 31
0.0
  0
LINE
  5
1B7
330
17
100
AcDbEntity
  8
REVISAR
100
AcDbLine
 10
1.545
 20
0.005000006556510925
 30
0.0
 11
1.585
 21
0.005000006556510925
 31
0.0
  0
LINE
  5
1B8
330
17
100
AcDbEntity
  8
REVISAR
100
AcDbLine
 10
1.585
 20
0.005000006556510925
 30
0.0
 11
1.585
 21
6.556510925292969e-09
 31
0.0
  0
LINE
  5
1B9
330
17
100
AcDbEntity
  8
REVISAR
100
AcDbLine
 10
1.585
 20
6.556510925292969e-09
 30
0.0
 11
1.545
 21
6.556510925292969e-09
 31
0.0
  0
LINE
  5
1BA
330
17
100
AcDbEntity
  8
REVISAR
100
AcDbLine
 10
1.545
 20
6.556510925292969e-09
 30
0.0
 11
1.545
 21
0.005000006556510925
 31
0.0
  0
LINE
  5
1BB
330
17
100
AcDbEntity
  8
REVISAR
100
AcDbLine
 10
1.5525
 20
0.842000006556511
 30
0.0
 11
1.5775
 21
0.842000006556511
 31
0.0
  0
LINE
  5
1BC
330
17
100
AcDbEntity
  8
REVISAR
100
AcDbLine
 10
1.5775
 20
0.842000006556511
 30
0.0
 11
1.5775
 21
0.005000006556510925
 31
0.0
  0
LINE
  5
1BD
330
17
100
AcDbEntity
  8
REVISAR
100
AcDbLine
 10
1.5775
 20
0.005000006556510925
 30
0.0
 11
1.5525
 21
0.005000006556510925
 31
0.0
  0
LINE
  5
1BE
330
17
100
AcDbEntity
  8
REVISAR
100
AcDbLine
 10
1.5525
 20
0.005000006556510925
 30
0.0
 11
1.5525
 21
0.842000006556511
 31
0.0
  0
LINE
  5
1BF
330
17
100
AcDbEntity
  8
REVISAR
100
AcDbLine
 10
2.12
 20
0.005000006556510925
 30
0.0
 11
2.16
 21
0.005000006556510925
 31
0.0
  0
LINE
  5
1C0
330
17
100
AcDbEntity
  8
REVISAR
100
AcDbLine
 10
2.16
 20
0.005000006556510925
 30
0.0
 11
2.16
 21
6.556510925292969e-09
 31
0.0
  0
LINE
  5
1C1
330
17
100
AcDbEntity
  8
REVISAR
100
AcDbLine
 10
2.16
 20
6.556510925292969e-09
 30
0.0
 11
2.12
 21
6.556510925292969e-09
 31
0.0
  0
LINE
  5
1C2
330
17
100
AcDbEntity
  8
REVISAR
100
AcDbLine
 10
2.12
 20
6.556510925292969e-09
 30
0.0
 11
2.12
 21
0.005000006556510925
 31
0.0
  0
LINE
  5
1C3
330
17
100
AcDbEntity
  8
REVISAR
100
AcDbLine
 10
2.1275
 20
0.842000006556511
 30
0.0
 11
2.1525
 21
0.842000006556511
 31
0.0
  0
LINE
  5
1C4
330
17
100
AcDbEntity
  8
REVISAR
100
AcDbLine
 10
2.1525
 20
0.842000006556511
 30
0.0
 11
2.1525
 21
0.005000006556510925
 31
0.0
  0
LINE
  5
1C5
330
17
100
AcDbEntity
  8
REVISAR
100
AcDbLine
 10
2.1525
 20
0.005000006556510925
 30
0.0
 11
2.1275
 21
0.005000006556510925
 31
0.0
  0
LINE
  5
1C6
330
17
100
AcDbEntity
  8
REVISAR
100
AcDbLine
 10
2.1275
 20
0.005000006556510925
 30
0.0
 11
2.1275
 21
0.842000006556511
 31
0.0
  0
LINE
  5
1C7
330
17
100
AcDbEntity
  8
REVISAR
100
AcDbLine
 10
1.5525
 20
0.8620000065565109
 30
0.0
 11
2.1525
 21
0.8620000065565109
 31
0.0
  0
LINE
  5
1C8
330
17
100
AcDbEntity
  8
REVISAR
100
AcDbLine
 10
2.1525
 20
0.8620000065565109
 30
0.0
 11
2.1525
 21
0.842000006556511
 31
0.0
  0
LINE
  5
1C9
330
17
100
AcDbEntity
  8
REVISAR
100
AcDbLine
 10
2.1525
 20
0.842000006556511
 30
0.0
 11
1.5525
 21
0.842000006556511
 31
0.0
  0
LINE
  5
1CA
330
17
100
AcDbEntity
  8
REVISAR
100
AcDbLine
 10
1.5525
 20
0.842000006556511
 30
0.0
 11
1.5525
 21
0.8620000065565109
 31
0.0
  0
LINE
  5
1CB
330
17
100
AcDbEntity
  8
G_MEDIDO
100
AcDbLine
 10
0.0
 20
0.0
 30
0.0
 11
2.46
 21
0.0
 31
0.0
  0
DIMENSION
  5
1CC
330
17
100
AcDbEntity
  8
COTAS
100
AcDbDimension
280
0
  2
*D1
  3
Standard
 10
2.34
 20
0.0
 30
0.0
 11
2.34
 21
0.45000001043081284
 31
0.0
 70
32
 71
5
  1
<>
100
AcDbAlignedDimension
 13
2.34
 23
0.0
 33
0.0
 14
2.34
 24
0.9000000208616257
 34
0.0
 50
90.0
100
AcDbRotatedDimension
1001
ACAD
1000
DSTYLE
1002
{
1070
140
1040
0.026
1070
41
1040
0.007
1002
}
  0
DIMENSION
  5
1E0
330
17
100
AcDbEntity
  8
COTAS
100
AcDbDimension
280
0
  2
*D2
  3
Standard
 10
0.68
 20
0.0
 30
0.0
 11
0.68
 21
0.32500001043081284
 31
0.0
 70
32
 71
5
  1
<>
100
AcDbAlignedDimension
 13
0.68
 23
0.0
 33
0.0
 14
0.68
 24
0.6500000208616257
 34
0.0
 50
90.0
100
AcDbRotatedDimension
1001
ACAD
1000
DSTYLE
1002
{
1070
140
1040
0.026
1070
41
1040
0.007
1002
}
  0
DIMENSION
  5
1F0
330
17
100
AcDbEntity
  8
COTAS
100
AcDbDimension
280
0
  2
*D3
  3
Standard
 10
1.520000171661377
 20
1.15
 30
0.0
 11
1.7200001001358032
 21
1.15
 31
0.0
 70
32
 71
5
  1
<>
100
AcDbAlignedDimension
 13
1.520000171661377
 23
1.15
 33
0.0
 14
1.9200000286102294
 24
1.15
 34
0.0
 50
0.0
100
AcDbRotatedDimension
1001
ACAD
1000
DSTYLE
1002
{
1070
140
1040
0.026
1070
41
1040
0.007
1002
}
  0
DIMENSION
  5
202
330
17
100
AcDbEntity
  8
COTAS
100
AcDbDimension
280
0
  2
*D4
  3
Standard
 10
0.96
 20
0.6500000208616257
 30
0.0
 11
0.96
 21
0.7460000365972519
 31
0.0
 70
32
 71
5
  1
<>
100
AcDbAlignedDimension
 13
0.96
 23
0.6500000208616257
 33
0.0
 14
0.96
 24
0.8420000523328781
 34
0.0
 50
90.0
100
AcDbRotatedDimension
1001
ACAD
1000
DSTYLE
1002
{
1070
140
1040
0.026
1070
41
1040
0.007
1002
}
  0
DIMENSION
  5
214
330
17
100
AcDbEntity
  8
COTAS
100
AcDbDimension
280
0
  2
*D5
  3
Standard
 10
1.25
 20
1.56
 30
0.0
 11
1.55
 21
1.56
 31
0.0
 70
32
 71
5
  1
<>
100
AcDbAlignedDimension
 13
1.25
 23
1.56
 33
0.0
 14
1.85
 24
1.56
 34
0.0
 50
0.0
100
AcDbRotatedDimension
1001
ACAD
1000
DSTYLE
1002
{
1070
140
1040
0.026
1070
41
1040
0.007
1002
}
  0
LINE
  5
226
330
17
100
AcDbEntity
  8
G_MEDIDO
100
AcDbLine
 10
10.410877999999999
 20
0.050878999999999903
 30
0.0
 11
10.41
 21
0.053
 31
0.0
  0
LINE
  5
227
330
17
100
AcDbEntity
  8
G_MEDIDO
100
AcDbLine
 10
10.41
 20
0.053
 30
0.0
 11
10.41
 21
0.727
 31
0.0
  0
LINE
  5
228
330
17
100
AcDbEntity
  8
G_MEDIDO
100
AcDbLine
 10
10.41
 20
0.727
 30
0.0
 11
10.410877999999999
 21
0.7291209999999997
 31
0.0
  0
LINE
  5
229
330
17
100
AcDbEntity
  8
G_MEDIDO
100
AcDbLine
 10
10.410877999999999
 20
0.7291209999999997
 30
0.0
 11
10.412999
 21
0.73
 31
0.0
  0
LINE
  5
22A
330
17
100
AcDbEntity
  8
G_MEDIDO
100
AcDbLine
 10
10.412999
 20
0.73
 30
0.0
 11
12.126999999999999
 21
0.73
 31
0.0
  0
LINE
  5
22B
330
17
100
AcDbEntity
  8
G_MEDIDO
100
AcDbLine
 10
12.126999999999999
 20
0.73
 30
0.0
 11
12.129121
 21
0.7291209999999997
 31
0.0
  0
LINE
  5
22C
330
17
100
AcDbEntity
  8
G_MEDIDO
100
AcDbLine
 10
12.129121
 20
0.7291209999999997
 30
0.0
 11
12.129999999999999
 21
0.727
 31
0.0
  0
LINE
  5
22D
330
17
100
AcDbEntity
  8
G_MEDIDO
100
AcDbLine
 10
12.129999999999999
 20
0.727
 30
0.0
 11
12.129999999999999
 21
0.053
 31
0.0
  0
LINE
  5
22E
330
17
100
AcDbEntity
  8
G_MEDIDO
100
AcDbLine
 10
12.129999999999999
 20
0.053
 30
0.0
 11
12.129121
 21
0.050878999999999903
 31
0.0
  0
LINE
  5
22F
330
17
100
AcDbEntity
  8
G_MEDIDO
100
AcDbLine
 10
12.129121
 20
0.050878999999999903
 30
0.0
 11
12.126999999999999
 21
0.05
 31
0.0
  0
LINE
  5
230
330
17
100
AcDbEntity
  8
G_MEDIDO
100
AcDbLine
 10
12.126999999999999
 20
0.05
 30
0.0
 11
10.412999
 21
0.05
 31
0.0
  0
LINE
  5
231
330
17
100
AcDbEntity
  8
G_MEDIDO
100
AcDbLine
 10
10.412999
 20
0.05
 30
0.0
 11
10.410877999999999
 21
0.050878999999999903
 31
0.0
  0
LINE
  5
232
330
17
100
AcDbEntity
  8
G_MEDIDO
100
AcDbLine
 10
10.613704
 20
0.8104570000000003
 30
0.0
 11
10.611757
 21
0.8117579999999998
 31
0.0
  0
LINE
  5
233
330
17
100
AcDbEntity
  8
G_MEDIDO
100
AcDbLine
 10
10.611757
 20
0.8117579999999998
 30
0.0
 11
10.610456
 21
0.8137040000000002
 31
0.0
  0
LINE
  5
234
330
17
100
AcDbEntity
  8
G_MEDIDO
100
AcDbLine
 10
10.610456
 20
0.8137040000000002
 30
0.0
 11
10.61
 21
0.816
 31
0.0
  0
LINE
  5
235
330
17
100
AcDbEntity
  8
G_MEDIDO
100
AcDbLine
 10
10.61
 20
0.816
 30
0.0
 11
10.61
 21
1.184
 31
0.0
  0
LINE
  5
236
330
17
100
AcDbEntity
  8
G_MEDIDO
100
AcDbLine
 10
10.61
 20
1.184
 30
0.0
 11
10.610456
 21
1.1862960000000002
 31
0.0
  0
LINE
  5
237
330
17
100
AcDbEntity
  8
G_MEDIDO
100
AcDbLine
 10
10.610456
 20
1.1862960000000002
 30
0.0
 11
10.611757
 21
1.188243
 31
0.0
  0
LINE
  5
238
330
17
100
AcDbEntity
  8
G_MEDIDO
100
AcDbLine
 10
10.611757
 20
1.188243
 30
0.0
 11
10.613704
 21
1.189544
 31
0.0
  0
LINE
  5
239
330
17
100
AcDbEntity
  8
G_MEDIDO
100
AcDbLine
 10
10.613704
 20
1.189544
 30
0.0
 11
10.616
 21
1.19
 31
0.0
  0
LINE
  5
23A
330
17
100
AcDbEntity
  8
G_MEDIDO
100
AcDbLine
 10
10.616
 20
1.19
 30
0.0
 11
10.984
 21
1.19
 31
0.0
  0
LINE
  5
23B
330
17
100
AcDbEntity
  8
G_MEDIDO
100
AcDbLine
 10
10.984
 20
1.19
 30
0.0
 11
10.986297000000002
 21
1.189544
 31
0.0
  0
LINE
  5
23C
330
17
100
AcDbEntity
  8
G_MEDIDO
100
AcDbLine
 10
10.986297000000002
 20
1.189544
 30
0.0
 11
10.988243999999998
 21
1.188243
 31
0.0
  0
LINE
  5
23D
330
17
100
AcDbEntity
  8
G_MEDIDO
100
AcDbLine
 10
10.988243999999998
 20
1.188243
 30
0.0
 11
10.989545000000001
 21
1.1862960000000002
 31
0.0
  0
LINE
  5
23E
330
17
100
AcDbEntity
  8
G_MEDIDO
100
AcDbLine
 10
10.989545000000001
 20
1.1862960000000002
 30
0.0
 11
10.990001
 21
1.184
 31
0.0
  0
LINE
  5
23F
330
17
100
AcDbEntity
  8
G_MEDIDO
100
AcDbLine
 10
10.990001
 20
1.184
 30
0.0
 11
10.990001
 21
0.816
 31
0.0
  0
LINE
  5
240
330
17
100
AcDbEntity
  8
G_MEDIDO
100
AcDbLine
 10
10.990001
 20
0.816
 30
0.0
 11
10.989545000000001
 21
0.8137040000000002
 31
0.0
  0
LINE
  5
241
330
17
100
AcDbEntity
  8
G_MEDIDO
100
AcDbLine
 10
10.989545000000001
 20
0.8137040000000002
 30
0.0
 11
10.988243999999998
 21
0.8117579999999998
 31
0.0
  0
LINE
  5
242
330
17
100
AcDbEntity
  8
G_MEDIDO
100
AcDbLine
 10
10.988243999999998
 20
0.8117579999999998
 30
0.0
 11
10.986297000000002
 21
0.8104570000000003
 31
0.0
  0
LINE
  5
243
330
17
100
AcDbEntity
  8
G_MEDIDO
100
AcDbLine
 10
10.986297000000002
 20
0.8104570000000003
 30
0.0
 11
10.984
 21
0.81
 31
0.0
  0
LINE
  5
244
330
17
100
AcDbEntity
  8
G_MEDIDO
100
AcDbLine
 10
10.984
 20
0.81
 30
0.0
 11
10.616
 21
0.81
 31
0.0
  0
LINE
  5
245
330
17
100
AcDbEntity
  8
G_MEDIDO
100
AcDbLine
 10
10.616
 20
0.81
 30
0.0
 11
10.613704
 21
0.8104570000000003
 31
0.0
  0
LINE
  5
246
330
17
100
AcDbEntity
  8
G_MEDIDO
100
AcDbLine
 10
11.553702999999997
 20
0.8104570000000003
 30
0.0
 11
11.551755000000002
 21
0.8117579999999998
 31
0.0
  0
LINE
  5
247
330
17
100
AcDbEntity
  8
G_MEDIDO
100
AcDbLine
 10
11.551755000000002
 20
0.8117579999999998
 30
0.0
 11
11.550453999999998
 21
0.8137040000000002
 31
0.0
  0
LINE
  5
248
330
17
100
AcDbEntity
  8
G_MEDIDO
100
AcDbLine
 10
11.550453999999998
 20
0.8137040000000002
 30
0.0
 11
11.549997999999999
 21
0.816
 31
0.0
  0
LINE
  5
249
330
17
100
AcDbEntity
  8
G_MEDIDO
100
AcDbLine
 10
11.549997999999999
 20
0.816
 30
0.0
 11
11.549997999999999
 21
1.184
 31
0.0
  0
LINE
  5
24A
330
17
100
AcDbEntity
  8
G_MEDIDO
100
AcDbLine
 10
11.549997999999999
 20
1.184
 30
0.0
 11
11.550453999999998
 21
1.1862960000000002
 31
0.0
  0
LINE
  5
24B
330
17
100
AcDbEntity
  8
G_MEDIDO
100
AcDbLine
 10
11.550453999999998
 20
1.1862960000000002
 30
0.0
 11
11.551755000000002
 21
1.188243
 31
0.0
  0
LINE
  5
24C
330
17
100
AcDbEntity
  8
G_MEDIDO
100
AcDbLine
 10
11.551755000000002
 20
1.188243
 30
0.0
 11
11.553702999999997
 21
1.189544
 31
0.0
  0
LINE
  5
24D
330
17
100
AcDbEntity
  8
G_MEDIDO
100
AcDbLine
 10
11.553702999999997
 20
1.189544
 30
0.0
 11
11.555999
 21
1.19
 31
0.0
  0
LINE
  5
24E
330
17
100
AcDbEntity
  8
G_MEDIDO
100
AcDbLine
 10
11.555999
 20
1.19
 30
0.0
 11
11.923999
 21
1.19
 31
0.0
  0
LINE
  5
24F
330
17
100
AcDbEntity
  8
G_MEDIDO
100
AcDbLine
 10
11.923999
 20
1.19
 30
0.0
 11
11.926295000000001
 21
1.189544
 31
0.0
  0
LINE
  5
250
330
17
100
AcDbEntity
  8
G_MEDIDO
100
AcDbLine
 10
11.926295000000001
 20
1.189544
 30
0.0
 11
11.928242999999998
 21
1.188243
 31
0.0
  0
LINE
  5
251
330
17
100
AcDbEntity
  8
G_MEDIDO
100
AcDbLine
 10
11.928242999999998
 20
1.188243
 30
0.0
 11
11.929544000000002
 21
1.1862960000000002
 31
0.0
  0
LINE
  5
252
330
17
100
AcDbEntity
  8
G_MEDIDO
100
AcDbLine
 10
11.929544000000002
 20
1.1862960000000002
 30
0.0
 11
11.93
 21
1.184
 31
0.0
  0
LINE
  5
253
330
17
100
AcDbEntity
  8
G_MEDIDO
100
AcDbLine
 10
11.93
 20
1.184
 30
0.0
 11
11.93
 21
0.816
 31
0.0
  0
LINE
  5
254
330
17
100
AcDbEntity
  8
G_MEDIDO
100
AcDbLine
 10
11.93
 20
0.816
 30
0.0
 11
11.929544000000002
 21
0.8137040000000002
 31
0.0
  0
LINE
  5
255
330
17
100
AcDbEntity
  8
G_MEDIDO
100
AcDbLine
 10
11.929544000000002
 20
0.8137040000000002
 30
0.0
 11
11.928242999999998
 21
0.8117579999999998
 31
0.0
  0
LINE
  5
256
330
17
100
AcDbEntity
  8
G_MEDIDO
100
AcDbLine
 10
11.928242999999998
 20
0.8117579999999998
 30
0.0
 11
11.926295000000001
 21
0.8104570000000003
 31
0.0
  0
LINE
  5
257
330
17
100
AcDbEntity
  8
G_MEDIDO
100
AcDbLine
 10
11.926295000000001
 20
0.8104570000000003
 30
0.0
 11
11.923999
 21
0.81
 31
0.0
  0
LINE
  5
258
330
17
100
AcDbEntity
  8
G_MEDIDO
100
AcDbLine
 10
11.923999
 20
0.81
 30
0.0
 11
11.555999
 21
0.81
 31
0.0
  0
LINE
  5
259
330
17
100
AcDbEntity
  8
G_MEDIDO
100
AcDbLine
 10
11.555999
 20
0.81
 30
0.0
 11
11.553702999999997
 21
0.8104570000000003
 31
0.0
  0
LWPOLYLINE
  5
25A
330
17
100
AcDbEntity
  8
P_PROPUESTO
100
AcDbPolyline
 90
25
 70
1
 10
10.756001663208007
 20
0.8647704601287842
 10
10.714999389648437
 20
0.8787565708160401
 10
10.67979164123535
 20
0.9010050773620606
 10
10.652775955200195
 20
0.930000114440918
 10
10.635792922973632
 20
0.9637654304504395
 10
10.63000030517578
 20
1.0000000476837159
 10
10.635792922973632
 20
1.0362346649169922
 10
10.652775955200195
 20
1.0699999809265137
 10
10.67979164123535
 20
1.0989950180053711
 10
10.714999389648437
 20
1.1212435245513916
 10
10.756001663208007
 20
1.1352296352386475
 10
10.800000381469726
 20
1.1399999141693116
 10
10.843999099731445
 20
1.1352296352386475
 10
10.884999465942382
 20
1.1212435245513916
 10
10.920207214355468
 20
1.0989950180053711
 10
10.947224807739257
 20
1.0699999809265137
 10
10.96420783996582
 20
1.0362346649169922
 10
10.970000457763671
 20
1.0000000476837159
 10
10.96420783996582
 20
0.9637654304504395
 10
10.947224807739257
 20
0.930000114440918
 10
10.920207214355468
 20
0.9010050773620606
 10
10.884999465942382
 20
0.8787565708160401
 10
10.843999099731445
 20
0.8647704601287842
 10
10.800000381469726
 20
0.8599999427795411
 10
10.756001663208007
 20
0.8647704601287842
  0
LWPOLYLINE
  5
25B
330
17
100
AcDbEntity
  8
P_PROPUESTO
100
AcDbPolyline
 90
21
 70
1
 10
10.764462661743163
 20
0.9106286048889161
 10
10.732405853271484
 20
0.9269631385803223
 10
10.706963729858398
 20
0.95240478515625
 10
10.690629196166991
 20
0.9844630241394043
 10
10.685000610351562
 20
1.0200000286102295
 10
10.690629196166991
 20
1.0555370330810547
 10
10.706963729858398
 20
1.087595272064209
 10
10.732405853271484
 20
1.1130369186401368
 10
10.764462661743163
 20
1.129371452331543
 10
10.800000381469726
 20
1.1350000381469727
 10
10.835538101196288
 20
1.129371452331543
 10
10.867594909667968
 20
1.1130369186401368
 10
10.893037033081054
 20
1.087595272064209
 10
10.90937156677246
 20
1.0555370330810547
 10
10.91500015258789
 20
1.0200000286102295
 10
10.90937156677246
 20
0.9844630241394043
 10
10.893037033081054
 20
0.95240478515625
 10
10.867594909667968
 20
0.9269631385803223
 10
10.835538101196288
 20
0.9106286048889161
 10
10.800000381469726
 20
0.9050000190734864
 10
10.764462661743163
 20
0.9106286048889161
  0
LWPOLYLINE
  5
25C
330
17
100
AcDbEntity
  8
P_PROPUESTO
100
AcDbPolyline
 90
25
 70
1
 10
10.772824478149413
 20
0.9185777187347413
 10
10.747500610351562
 20
0.9290674209594727
 10
10.725753021240234
 20
0.9457538604736329
 10
10.70906753540039
 20
0.9675000190734864
 10
10.698577117919921
 20
0.992824125289917
 10
10.695000839233398
 20
1.0200000286102295
 10
10.698577117919921
 20
1.047175931930542
 10
10.70906753540039
 20
1.0725000381469727
 10
10.725753021240234
 20
1.0942461967468262
 10
10.747500610351562
 20
1.1109326362609864
 10
10.772824478149413
 20
1.1214221000671387
 10
10.800000381469726
 20
1.1250000476837159
 10
10.827176284790038
 20
1.1214221000671387
 10
10.85250015258789
 20
1.1109326362609864
 10
10.874245834350585
 20
1.0942461967468262
 10
10.890933227539062
 20
1.0725000381469727
 10
10.901421737670898
 20
1.047175931930542
 10
10.904999923706054
 20
1.0200000286102295
 10
10.901421737670898
 20
0.9928238868713379
 10
10.890933227539062
 20
0.9675000190734864
 10
10.874245834350585
 20
0.9457538604736329
 10
10.85250015258789
 20
0.9290674209594727
 10
10.827176284790038
 20
0.9185777187347413
 10
10.800000381469726
 20
0.9150000095367432
 10
10.772824478149413
 20
0.9185777187347413
  0
LWPOLYLINE
  5
25D
330
17
100
AcDbEntity
  8
P_PROPUESTO
100
AcDbPolyline
 90
23
 70
1
 10
10.67991371154785
 20
0.4981813907623291
 10
10.661793899536132
 20
0.507413911819458
 10
10.647414398193359
 20
0.5217938899993897
 10
10.638180923461913
 20
0.5399139404296875
 10
10.634999465942382
 20
0.5599999904632569
 10
10.634999465942382
 20
0.9199998855590821
 10
10.638180923461913
 20
0.9400859355926514
 10
10.647414398193359
 20
0.9582059860229493
 10
10.661793899536132
 20
0.9725859642028809
 10
10.67991371154785
 20
0.9818184852600098
 10
10.7
 20
0.9849999427795411
 10
10.720086288452148
 20
0.9818184852600098
 10
10.738206100463866
 20
0.9725859642028809
 10
10.75258560180664
 20
0.9582059860229493
 10
10.761819076538085
 20
0.9400859355926514
 10
10.765000534057616
 20
0.9199998855590821
 10
10.765000534057616
 20
0.5599999904632569
 10
10.761819076538085
 20
0.5399139404296875
 10
10.75258560180664
 20
0.5217938899993897
 10
10.738206100463866
 20
0.507413911819458
 10
10.720086288452148
 20
0.4981813907623291
 10
10.7
 20
0.49499993324279784
 10
10.67991371154785
 20
0.4981813907623291
  0
LWPOLYLINE
  5
25E
330
17
100
AcDbEntity
  8
P_PROPUESTO
100
AcDbPolyline
 90
31
 70
1
 10
10.688750457763671
 20
0.5168006896972657
 10
10.678601455688476
 20
0.5212841510772706
 10
10.674843978881835
 20
0.5230515480041504
 10
10.665375900268554
 20
0.5312607765197754
 10
10.65929718017578
 20
0.5416045665740967
 10
10.657202911376952
 20
0.54794340133667
 10
10.654999923706054
 20
0.5599999904632569
 10
10.654999923706054
 20
0.8099999904632569
 10
10.657202911376952
 20
0.8220565795898438
 10
10.65929718017578
 20
0.828395414352417
 10
10.665375900268554
 20
0.8387392044067383
 10
10.674843978881835
 20
0.8469484329223633
 10
10.678601455688476
 20
0.8487158298492432
 10
10.688750457763671
 20
0.8531992912292481
 10
10.7
 20
0.8547440052032471
 10
10.711249542236327
 20
0.8531992912292481
 10
10.721398544311523
 20
0.8487158298492432
 10
10.725156021118163
 20
0.8469484329223633
 10
10.734624099731445
 20
0.8387392044067383
 10
10.740702819824218
 20
0.828395414352417
 10
10.742797088623046
 20
0.8220565795898438
 10
10.745000076293945
 20
0.8099999904632569
 10
10.745000076293945
 20
0.5599999904632569
 10
10.742797088623046
 20
0.54794340133667
 10
10.740702819824218
 20
0.5416045665740967
 10
10.734624099731445
 20
0.5312607765197754
 10
10.725156021118163
 20
0.5230515480041504
 10
10.721398544311523
 20
0.5212841510772706
 10
10.711249542236327
 20
0.5168006896972657
 10
10.7
 20
0.5152559757232666
 10
10.688750457763671
 20
0.5168006896972657
  0
LWPOLYLINE
  5
25F
330
17
100
AcDbEntity
  8
P_PROPUESTO
100
AcDbPolyline
 90
5
 70
1
 10
10.654999923706054
 20
0.8850000381469727
 10
10.745000076293945
 20
0.8850000381469727
 10
10.745000076293945
 20
0.6250000476837159
 10
10.654999923706054
 20
0.6250000476837159
 10
10.654999923706054
 20
0.8850000381469727
  0
LWPOLYLINE
  5
260
330
17
100
AcDbEntity
  8
P_PROPUESTO
100
AcDbPolyline
 90
21
 70
1
 10
10.599185180664062
 20
0.9867129802703858
 10
10.589427185058593
 20
0.9916844844818116
 10
10.581683349609374
 20
0.999427604675293
 10
10.576712799072265
 20
1.0091844081878663
 10
10.575
 20
1.0200000286102295
 10
10.576712799072265
 20
1.0308156490325928
 10
10.581683349609374
 20
1.040572452545166
 10
10.589427185058593
 20
1.0483155727386475
 10
10.599185180664062
 20
1.0532870769500733
 10
10.609999847412109
 20
1.055000114440918
 10
10.620814514160156
 20
1.0532870769500733
 10
10.630572509765624
 20
1.0483155727386475
 10
10.638316345214843
 20
1.040572452545166
 10
10.643286895751952
 20
1.0308156490325928
 10
10.644999694824218
 20
1.0200000286102295
 10
10.643286895751952
 20
1.0091844081878663
 10
10.638316345214843
 20
0.999427604675293
 10
10.630572509765624
 20
0.9916844844818116
 10
10.620814514160156
 20
0.9867129802703858
 10
10.609999847412109
 20
0.9849999427795411
 10
10.599185180664062
 20
0.9867129802703858
  0
LWPOLYLINE
  5
261
330
17
100
AcDbEntity
  8
P_PROPUESTO
100
AcDbPolyline
 90
23
 70
1
 10
10.60073013305664
 20
0.6014681339263916
 10
10.592366409301757
 20
0.6057293891906739
 10
10.58572883605957
 20
0.6123664855957032
 10
10.581467819213866
 20
0.6207294940948487
 10
10.5799991607666
 20
0.6299999237060547
 10
10.5799991607666
 20
0.9500000953674317
 10
10.581467819213866
 20
0.9592705249786377
 10
10.58572883605957
 20
0.9676335334777832
 10
10.592366409301757
 20
0.9742706298828125
 10
10.60073013305664
 20
0.9785318851470948
 10
10.609999847412109
 20
0.9800000667572022
 10
10.619269561767577
 20
0.9785318851470948
 10
10.62763328552246
 20
0.9742706298828125
 10
10.634270858764648
 20
0.9676335334777832
 10
10.63853187561035
 20
0.9592705249786377
 10
10.640000534057616
 20
0.9500000953674317
 10
10.640000534057616
 20
0.6299999237060547
 10
10.63853187561035
 20
0.6207294940948487
 10
10.634270858764648
 20
0.6123664855957032
 10
10.62763328552246
 20
0.6057293891906739
 10
10.619269561767577
 20
0.6014681339263916
 10
10.609999847412109
 20
0.5999999523162842
 10
10.60073013305664
 20
0.6014681339263916
  0
LWPOLYLINE
  5
262
330
17
100
AcDbEntity
  8
P_PROPUESTO
100
AcDbPolyline
 90
23
 70
1
 10
10.879914474487304
 20
0.4981813907623291
 10
10.861794662475585
 20
0.507413911819458
 10
10.847415161132812
 20
0.5217938899993897
 10
10.838181686401366
 20
0.5399139404296875
 10
10.835000228881835
 20
0.5599999904632569
 10
10.835000228881835
 20
0.9199998855590821
 10
10.838181686401366
 20
0.9400859355926514
 10
10.847415161132812
 20
0.9582059860229493
 10
10.861794662475585
 20
0.9725859642028809
 10
10.879914474487304
 20
0.9818184852600098
 10
10.900000762939452
 20
0.9849999427795411
 10
10.9200870513916
 20
0.9818184852600098
 10
10.93820686340332
 20
0.9725859642028809
 10
10.952586364746093
 20
0.9582059860229493
 10
10.961819839477538
 20
0.9400859355926514
 10
10.96500129699707
 20
0.9199998855590821
 10
10.96500129699707
 20
0.5599999904632569
 10
10.961819839477538
 20
0.5399139404296875
 10
10.952586364746093
 20
0.5217938899993897
 10
10.93820686340332
 20
0.507413911819458
 10
10.9200870513916
 20
0.4981813907623291
 10
10.900000762939452
 20
0.49499993324279784
 10
10.879914474487304
 20
0.4981813907623291
  0
LWPOLYLINE
  5
263
330
17
100
AcDbEntity
  8
P_PROPUESTO
100
AcDbPolyline
 90
31
 70
1
 10
10.888751220703124
 20
0.5168006896972657
 10
10.878602218627929
 20
0.5212841510772706
 10
10.874844741821288
 20
0.5230515480041504
 10
10.865376663208007
 20
0.5312607765197754
 10
10.859297943115234
 20
0.5416045665740967
 10
10.857203674316406
 20
0.54794340133667
 10
10.855000686645507
 20
0.5599999904632569
 10
10.855000686645507
 20
0.8099999904632569
 10
10.857203674316406
 20
0.8220565795898438
 10
10.859297943115234
 20
0.828395414352417
 10
10.865376663208007
 20
0.8387392044067383
 10
10.874844741821288
 20
0.8469484329223633
 10
10.878602218627929
 20
0.8487158298492432
 10
10.888751220703124
 20
0.8531992912292481
 10
10.900000762939452
 20
0.8547440052032471
 10
10.91125030517578
 20
0.8531992912292481
 10
10.921399307250976
 20
0.8487158298492432
 10
10.925156784057616
 20
0.8469484329223633
 10
10.934624862670898
 20
0.8387392044067383
 10
10.940703582763671
 20
0.828395414352417
 10
10.9427978515625
 20
0.8220565795898438
 10
10.945000839233398
 20
0.8099999904632569
 10
10.945000839233398
 20
0.5599999904632569
 10
10.9427978515625
 20
0.54794340133667
 10
10.940703582763671
 20
0.5416045665740967
 10
10.934624862670898
 20
0.5312607765197754
 10
10.925156784057616
 20
0.5230515480041504
 10
10.921399307250976
 20
0.5212841510772706
 10
10.91125030517578
 20
0.5168006896972657
 10
10.900000762939452
 20
0.5152559757232666
 10
10.888751220703124
 20
0.5168006896972657
  0
LWPOLYLINE
  5
264
330
17
100
AcDbEntity
  8
P_PROPUESTO
100
AcDbPolyline
 90
5
 70
1
 10
10.855000686645507
 20
0.8850000381469727
 10
10.945000839233398
 20
0.8850000381469727
 10
10.945000839233398
 20
0.6250000476837159
 10
10.855000686645507
 20
0.6250000476837159
 10
10.855000686645507
 20
0.8850000381469727
  0
LWPOLYLINE
  5
265
330
17
100
AcDbEntity
  8
P_PROPUESTO
100
AcDbPolyline
 90
21
 70
1
 10
10.979186248779296
 20
0.9867129802703858
 10
10.969428253173827
 20
0.9916844844818116
 10
10.961684417724609
 20
0.999427604675293
 10
10.9567138671875
 20
1.0091844081878663
 10
10.955001068115234
 20
1.0200000286102295
 10
10.9567138671875
 20
1.0308156490325928
 10
10.961684417724609
 20
1.040572452545166
 10
10.969428253173827
 20
1.0483155727386475
 10
10.979186248779296
 20
1.0532870769500733
 10
10.990000915527343
 20
1.055000114440918
 10
11.00081558227539
 20
1.0532870769500733
 10
11.010573577880859
 20
1.0483155727386475
 10
11.018317413330077
 20
1.040572452545166
 10
11.023287963867187
 20
1.0308156490325928
 10
11.025000762939452
 20
1.0200000286102295
 10
11.023287963867187
 20
1.0091844081878663
 10
11.018317413330077
 20
0.999427604675293
 10
11.010573577880859
 20
0.9916844844818116
 10
11.00081558227539
 20
0.9867129802703858
 10
10.990000915527343
 20
0.9849999427795411
 10
10.979186248779296
 20
0.9867129802703858
  0
LWPOLYLINE
  5
266
330
17
100
AcDbEntity
  8
P_PROPUESTO
100
AcDbPolyline
 90
23
 70
1
 10
10.980731201171874
 20
0.6014681339263916
 10
10.972367477416991
 20
0.6057293891906739
 10
10.965729904174804
 20
0.6123664855957032
 10
10.9614688873291
 20
0.6207294940948487
 10
10.960000228881835
 20
0.6299999237060547
 10
10.960000228881835
 20
0.9500000953674317
 10
10.9614688873291
 20
0.9592705249786377
 10
10.965729904174804
 20
0.9676335334777832
 10
10.972367477416991
 20
0.9742706298828125
 10
10.980731201171874
 20
0.9785318851470948
 10
10.990000915527343
 20
0.9800000667572022
 10
10.999270629882812
 20
0.9785318851470948
 10
11.007634353637695
 20
0.9742706298828125
 10
11.014271926879882
 20
0.9676335334777832
 10
11.018532943725585
 20
0.9592705249786377
 10
11.02000160217285
 20
0.9500000953674317
 10
11.02000160217285
 20
0.6299999237060547
 10
11.018532943725585
 20
0.6207294940948487
 10
11.014271926879882
 20
0.6123664855957032
 10
11.007634353637695
 20
0.6057293891906739
 10
10.999270629882812
 20
0.6014681339263916
 10
10.990000915527343
 20
0.5999999523162842
 10
10.980731201171874
 20
0.6014681339263916
  0
LWPOLYLINE
  5
267
330
17
100
AcDbEntity
  8
P_PROPUESTO
100
AcDbPolyline
 90
25
 70
1
 10
11.696000289916991
 20
0.8647704601287842
 10
11.654999923706054
 20
0.8787565708160401
 10
11.619792175292968
 20
0.9010050773620606
 10
11.592776489257812
 20
0.930000114440918
 10
11.57579345703125
 20
0.9637654304504395
 10
11.570000839233398
 20
1.0000000476837159
 10
11.57579345703125
 20
1.0362346649169922
 10
11.592776489257812
 20
1.0699999809265137
 10
11.619792175292968
 20
1.0989950180053711
 10
11.654999923706054
 20
1.1212435245513916
 10
11.696000289916991
 20
1.1352296352386475
 10
11.740000915527343
 20
1.1399999141693116
 10
11.783999633789062
 20
1.1352296352386475
 10
11.825
 20
1.1212435245513916
 10
11.860207748413085
 20
1.0989950180053711
 10
11.887223434448241
 20
1.0699999809265137
 10
11.904206466674804
 20
1.0362346649169922
 10
11.909999084472656
 20
1.0000000476837159
 10
11.904206466674804
 20
0.9637654304504395
 10
11.887223434448241
 20
0.930000114440918
 10
11.860207748413085
 20
0.9010050773620606
 10
11.825
 20
0.8787565708160401
 10
11.783999633789062
 20
0.8647704601287842
 10
11.740000915527343
 20
0.8599999427795411
 10
11.696000289916991
 20
0.8647704601287842
  0
LWPOLYLINE
  5
268
330
17
100
AcDbEntity
  8
P_PROPUESTO
100
AcDbPolyline
 90
21
 70
1
 10
11.70446319580078
 20
0.9106286048889161
 10
11.6724063873291
 20
0.9269631385803223
 10
11.646964263916015
 20
0.95240478515625
 10
11.630629730224609
 20
0.9844630241394043
 10
11.625001144409179
 20
1.0200000286102295
 10
11.630629730224609
 20
1.0555370330810547
 10
11.646964263916015
 20
1.087595272064209
 10
11.6724063873291
 20
1.1130369186401368
 10
11.70446319580078
 20
1.129371452331543
 10
11.740000915527343
 20
1.1350000381469727
 10
11.775538635253906
 20
1.129371452331543
 10
11.807595443725585
 20
1.1130369186401368
 10
11.833037567138671
 20
1.087595272064209
 10
11.849372100830077
 20
1.0555370330810547
 10
11.855000686645507
 20
1.0200000286102295
 10
11.849372100830077
 20
0.9844630241394043
 10
11.833037567138671
 20
0.95240478515625
 10
11.807595443725585
 20
0.9269631385803223
 10
11.775538635253906
 20
0.9106286048889161
 10
11.740000915527343
 20
0.9050000190734864
 10
11.70446319580078
 20
0.9106286048889161
  0
LWPOLYLINE
  5
269
330
17
100
AcDbEntity
  8
P_PROPUESTO
100
AcDbPolyline
 90
25
 70
1
 10
11.712823104858398
 20
0.9185777187347413
 10
11.687499237060546
 20
0.9290674209594727
 10
11.66575355529785
 20
0.9457538604736329
 10
11.649068069458007
 20
0.9675000190734864
 10
11.638577651977538
 20
0.992824125289917
 10
11.634999465942382
 20
1.0200000286102295
 10
11.638577651977538
 20
1.047175931930542
 10
11.649068069458007
 20
1.0725000381469727
 10
11.66575355529785
 20
1.0942461967468262
 10
11.687499237060546
 20
1.1109326362609864
 10
11.712823104858398
 20
1.1214221000671387
 10
11.740000915527343
 20
1.1250000476837159
 10
11.767176818847656
 20
1.1214221000671387
 10
11.792500686645507
 20
1.1109326362609864
 10
11.814246368408202
 20
1.0942461967468262
 10
11.830931854248046
 20
1.0725000381469727
 10
11.841422271728515
 20
1.047175931930542
 10
11.845000457763671
 20
1.0200000286102295
 10
11.841422271728515
 20
0.9928238868713379
 10
11.830931854248046
 20
0.9675000190734864
 10
11.814246368408202
 20
0.9457538604736329
 10
11.792500686645507
 20
0.9290674209594727
 10
11.767176818847656
 20
0.9185777187347413
 10
11.740000915527343
 20
0.9150000095367432
 10
11.712823104858398
 20
0.9185777187347413
  0
LWPOLYLINE
  5
26A
330
17
100
AcDbEntity
  8
P_PROPUESTO
100
AcDbPolyline
 90
23
 70
1
 10
11.619914245605468
 20
0.4981813907623291
 10
11.60179443359375
 20
0.507413911819458
 10
11.587414932250976
 20
0.5217938899993897
 10
11.57818145751953
 20
0.5399139404296875
 10
11.575
 20
0.5599999904632569
 10
11.575
 20
0.9199998855590821
 10
11.57818145751953
 20
0.9400859355926514
 10
11.587414932250976
 20
0.9582059860229493
 10
11.60179443359375
 20
0.9725859642028809
 10
11.619914245605468
 20
0.9818184852600098
 10
11.640000534057616
 20
0.9849999427795411
 10
11.660086822509765
 20
0.9818184852600098
 10
11.678206634521484
 20
0.9725859642028809
 10
11.692586135864257
 20
0.9582059860229493
 10
11.701819610595702
 20
0.9400859355926514
 10
11.705001068115234
 20
0.9199998855590821
 10
11.705001068115234
 20
0.5599999904632569
 10
11.701819610595702
 20
0.5399139404296875
 10
11.692586135864257
 20
0.5217938899993897
 10
11.678206634521484
 20
0.507413911819458
 10
11.660086822509765
 20
0.4981813907623291
 10
11.640000534057616
 20
0.49499993324279784
 10
11.619914245605468
 20
0.4981813907623291
  0
LWPOLYLINE
  5
26B
330
17
100
AcDbEntity
  8
P_PROPUESTO
100
AcDbPolyline
 90
31
 70
1
 10
11.628750991821288
 20
0.5168006896972657
 10
11.618601989746093
 20
0.5212841510772706
 10
11.614844512939452
 20
0.5230515480041504
 10
11.605376434326171
 20
0.5312607765197754
 10
11.599297714233398
 20
0.5416045665740967
 10
11.59720344543457
 20
0.54794340133667
 10
11.595000457763671
 20
0.5599999904632569
 10
11.595000457763671
 20
0.8099999904632569
 10
11.59720344543457
 20
0.8220565795898438
 10
11.599297714233398
 20
0.828395414352417
 10
11.605376434326171
 20
0.8387392044067383
 10
11.614844512939452
 20
0.8469484329223633
 10
11.618601989746093
 20
0.8487158298492432
 10
11.628750991821288
 20
0.8531992912292481
 10
11.640000534057616
 20
0.8547440052032471
 10
11.651250076293945
 20
0.8531992912292481
 10
11.66139907836914
 20
0.8487158298492432
 10
11.66515655517578
 20
0.8469484329223633
 10
11.674624633789062
 20
0.8387392044067383
 10
11.680703353881835
 20
0.828395414352417
 10
11.682797622680663
 20
0.8220565795898438
 10
11.685000610351562
 20
0.8099999904632569
 10
11.685000610351562
 20
0.5599999904632569
 10
11.682797622680663
 20
0.54794340133667
 10
11.680703353881835
 20
0.5416045665740967
 10
11.674624633789062
 20
0.5312607765197754
 10
11.66515655517578
 20
0.5230515480041504
 10
11.66139907836914
 20
0.5212841510772706
 10
11.651250076293945
 20
0.5168006896972657
 10
11.640000534057616
 20
0.5152559757232666
 10
11.628750991821288
 20
0.5168006896972657
  0
LWPOLYLINE
  5
26C
330
17
100
AcDbEntity
  8
P_PROPUESTO
100
AcDbPolyline
 90
5
 70
1
 10
11.595000457763671
 20
0.8850000381469727
 10
11.685000610351562
 20
0.8850000381469727
 10
11.685000610351562
 20
0.6250000476837159
 10
11.595000457763671
 20
0.6250000476837159
 10
11.595000457763671
 20
0.8850000381469727
  0
LWPOLYLINE
  5
26D
330
17
100
AcDbEntity
  8
P_PROPUESTO
100
AcDbPolyline
 90
21
 70
1
 10
11.539185714721679
 20
0.9867129802703858
 10
11.52942771911621
 20
0.9916844844818116
 10
11.521683883666991
 20
0.999427604675293
 10
11.516713333129882
 20
1.0091844081878663
 10
11.515000534057616
 20
1.0200000286102295
 10
11.516713333129882
 20
1.0308156490325928
 10
11.521683883666991
 20
1.040572452545166
 10
11.52942771911621
 20
1.0483155727386475
 10
11.539185714721679
 20
1.0532870769500733
 10
11.550000381469726
 20
1.055000114440918
 10
11.560815048217773
 20
1.0532870769500733
 10
11.570573043823241
 20
1.0483155727386475
 10
11.57831687927246
 20
1.040572452545166
 10
11.58328742980957
 20
1.0308156490325928
 10
11.585000228881835
 20
1.0200000286102295
 10
11.58328742980957
 20
1.0091844081878663
 10
11.57831687927246
 20
0.999427604675293
 10
11.570573043823241
 20
0.9916844844818116
 10
11.560815048217773
 20
0.9867129802703858
 10
11.550000381469726
 20
0.9849999427795411
 10
11.539185714721679
 20
0.9867129802703858
  0
LWPOLYLINE
  5
26E
330
17
100
AcDbEntity
  8
P_PROPUESTO
100
AcDbPolyline
 90
23
 70
1
 10
11.540730667114257
 20
0.6014681339263916
 10
11.532366943359374
 20
0.6057293891906739
 10
11.525729370117187
 20
0.6123664855957032
 10
11.521468353271484
 20
0.6207294940948487
 10
11.519999694824218
 20
0.6299999237060547
 10
11.519999694824218
 20
0.9500000953674317
 10
11.521468353271484
 20
0.9592705249786377
 10
11.525729370117187
 20
0.9676335334777832
 10
11.532366943359374
 20
0.9742706298828125
 10
11.540730667114257
 20
0.9785318851470948
 10
11.550000381469726
 20
0.9800000667572022
 10
11.559270095825195
 20
0.9785318851470948
 10
11.567633819580077
 20
0.9742706298828125
 10
11.574271392822265
 20
0.9676335334777832
 10
11.578532409667968
 20
0.9592705249786377
 10
11.580001068115234
 20
0.9500000953674317
 10
11.580001068115234
 20
0.6299999237060547
 10
11.578532409667968
 20
0.6207294940948487
 10
11.574271392822265
 20
0.6123664855957032
 10
11.567633819580077
 20
0.6057293891906739
 10
11.559270095825195
 20
0.6014681339263916
 10
11.550000381469726
 20
0.5999999523162842
 10
11.540730667114257
 20
0.6014681339263916
  0
LWPOLYLINE
  5
26F
330
17
100
AcDbEntity
  8
P_PROPUESTO
100
AcDbPolyline
 90
23
 70
1
 10
11.819913101196288
 20
0.4981813907623291
 10
11.80179328918457
 20
0.507413911819458
 10
11.787413787841796
 20
0.5217938899993897
 10
11.77818031311035
 20
0.5399139404296875
 10
11.77499885559082
 20
0.5599999904632569
 10
11.77499885559082
 20
0.9199998855590821
 10
11.77818031311035
 20
0.9400859355926514
 10
11.787413787841796
 20
0.9582059860229493
 10
11.80179328918457
 20
0.9725859642028809
 10
11.819913101196288
 20
0.9818184852600098
 10
11.839999389648437
 20
0.9849999427795411
 10
11.860085678100585
 20
0.9818184852600098
 10
11.878205490112304
 20
0.9725859642028809
 10
11.892584991455077
 20
0.9582059860229493
 10
11.901818466186523
 20
0.9400859355926514
 10
11.904999923706054
 20
0.9199998855590821
 10
11.904999923706054
 20
0.5599999904632569
 10
11.901818466186523
 20
0.5399139404296875
 10
11.892584991455077
 20
0.5217938899993897
 10
11.878205490112304
 20
0.507413911819458
 10
11.860085678100585
 20
0.4981813907623291
 10
11.839999389648437
 20
0.49499993324279784
 10
11.819913101196288
 20
0.4981813907623291
  0
LWPOLYLINE
  5
270
330
17
100
AcDbEntity
  8
P_PROPUESTO
100
AcDbPolyline
 90
31
 70
1
 10
11.828749847412109
 20
0.5168006896972657
 10
11.818600845336913
 20
0.5212841510772706
 10
11.814843368530273
 20
0.5230515480041504
 10
11.805375289916991
 20
0.5312607765197754
 10
11.799296569824218
 20
0.5416045665740967
 10
11.79720230102539
 20
0.54794340133667
 10
11.794999313354491
 20
0.5599999904632569
 10
11.794999313354491
 20
0.8099999904632569
 10
11.79720230102539
 20
0.8220565795898438
 10
11.799296569824218
 20
0.828395414352417
 10
11.805375289916991
 20
0.8387392044067383
 10
11.814843368530273
 20
0.8469484329223633
 10
11.818600845336913
 20
0.8487158298492432
 10
11.828749847412109
 20
0.8531992912292481
 10
11.839999389648437
 20
0.8547440052032471
 10
11.851248931884765
 20
0.8531992912292481
 10
11.86139793395996
 20
0.8487158298492432
 10
11.8651554107666
 20
0.8469484329223633
 10
11.874623489379882
 20
0.8387392044067383
 10
11.880702209472656
 20
0.828395414352417
 10
11.882796478271484
 20
0.8220565795898438
 10
11.884999465942382
 20
0.8099999904632569
 10
11.884999465942382
 20
0.5599999904632569
 10
11.882796478271484
 20
0.54794340133667
 10
11.880702209472656
 20
0.5416045665740967
 10
11.874623489379882
 20
0.5312607765197754
 10
11.8651554107666
 20
0.5230515480041504
 10
11.86139793395996
 20
0.5212841510772706
 10
11.851248931884765
 20
0.5168006896972657
 10
11.839999389648437
 20
0.5152559757232666
 10
11.828749847412109
 20
0.5168006896972657
  0
LWPOLYLINE
  5
271
330
17
100
AcDbEntity
  8
P_PROPUESTO
100
AcDbPolyline
 90
5
 70
1
 10
11.794999313354491
 20
0.8850000381469727
 10
11.884999465942382
 20
0.8850000381469727
 10
11.884999465942382
 20
0.6250000476837159
 10
11.794999313354491
 20
0.6250000476837159
 10
11.794999313354491
 20
0.8850000381469727
  0
LWPOLYLINE
  5
272
330
17
100
AcDbEntity
  8
P_PROPUESTO
100
AcDbPolyline
 90
21
 70
1
 10
11.91918487548828
 20
0.9867129802703858
 10
11.909426879882812
 20
0.9916844844818116
 10
11.901683044433593
 20
0.999427604675293
 10
11.896712493896484
 20
1.0091844081878663
 10
11.894999694824218
 20
1.0200000286102295
 10
11.896712493896484
 20
1.0308156490325928
 10
11.901683044433593
 20
1.040572452545166
 10
11.909426879882812
 20
1.0483155727386475
 10
11.91918487548828
 20
1.0532870769500733
 10
11.929999542236327
 20
1.055000114440918
 10
11.940814208984374
 20
1.0532870769500733
 10
11.950572204589843
 20
1.0483155727386475
 10
11.958316040039062
 20
1.040572452545166
 10
11.963286590576171
 20
1.0308156490325928
 10
11.964999389648437
 20
1.0200000286102295
 10
11.963286590576171
 20
1.0091844081878663
 10
11.958316040039062
 20
0.999427604675293
 10
11.950572204589843
 20
0.9916844844818116
 10
11.940814208984374
 20
0.9867129802703858
 10
11.929999542236327
 20
0.9849999427795411
 10
11.91918487548828
 20
0.9867129802703858
  0
LWPOLYLINE
  5
273
330
17
100
AcDbEntity
  8
P_PROPUESTO
100
AcDbPolyline
 90
23
 70
1
 10
11.920729827880859
 20
0.6014681339263916
 10
11.912366104125976
 20
0.6057293891906739
 10
11.905728530883788
 20
0.6123664855957032
 10
11.901467514038085
 20
0.6207294940948487
 10
11.89999885559082
 20
0.6299999237060547
 10
11.89999885559082
 20
0.9500000953674317
 10
11.901467514038085
 20
0.9592705249786377
 10
11.905728530883788
 20
0.9676335334777832
 10
11.912366104125976
 20
0.9742706298828125
 10
11.920729827880859
 20
0.9785318851470948
 10
11.929999542236327
 20
0.9800000667572022
 10
11.939269256591796
 20
0.9785318851470948
 10
11.947632980346679
 20
0.9742706298828125
 10
11.954270553588866
 20
0.9676335334777832
 10
11.95853157043457
 20
0.9592705249786377
 10
11.960000228881835
 20
0.9500000953674317
 10
11.960000228881835
 20
0.6299999237060547
 10
11.95853157043457
 20
0.6207294940948487
 10
11.954270553588866
 20
0.6123664855957032
 10
11.947632980346679
 20
0.6057293891906739
 10
11.939269256591796
 20
0.6014681339263916
 10
11.929999542236327
 20
0.5999999523162842
 10
11.920729827880859
 20
0.6014681339263916
  0
LINE
  5
274
330
17
100
AcDbEntity
  8
REVISAR
100
AcDbLine
 10
10.613704
 20
1.2604570000000004
 30
0.0
 11
10.611757
 21
1.2617579999999997
 31
0.0
  0
LINE
  5
275
330
17
100
AcDbEntity
  8
REVISAR
100
AcDbLine
 10
10.611757
 20
1.2617579999999997
 30
0.0
 11
10.610456
 21
1.2637040000000002
 31
0.0
  0
LINE
  5
276
330
17
100
AcDbEntity
  8
REVISAR
100
AcDbLine
 10
10.610456
 20
1.2637040000000002
 30
0.0
 11
10.61
 21
1.266
 31
0.0
  0
LINE
  5
277
330
17
100
AcDbEntity
  8
REVISAR
100
AcDbLine
 10
10.61
 20
1.266
 30
0.0
 11
10.61
 21
1.634
 31
0.0
  0
LINE
  5
278
330
17
100
AcDbEntity
  8
REVISAR
100
AcDbLine
 10
10.61
 20
1.634
 30
0.0
 11
10.610456
 21
1.6362960000000002
 31
0.0
  0
LINE
  5
279
330
17
100
AcDbEntity
  8
REVISAR
100
AcDbLine
 10
10.610456
 20
1.6362960000000002
 30
0.0
 11
10.611757
 21
1.638243
 31
0.0
  0
LINE
  5
27A
330
17
100
AcDbEntity
  8
REVISAR
100
AcDbLine
 10
10.611757
 20
1.638243
 30
0.0
 11
10.613704
 21
1.639544
 31
0.0
  0
LINE
  5
27B
330
17
100
AcDbEntity
  8
REVISAR
100
AcDbLine
 10
10.613704
 20
1.639544
 30
0.0
 11
10.616
 21
1.64
 31
0.0
  0
LINE
  5
27C
330
17
100
AcDbEntity
  8
REVISAR
100
AcDbLine
 10
10.616
 20
1.64
 30
0.0
 11
10.984
 21
1.64
 31
0.0
  0
LINE
  5
27D
330
17
100
AcDbEntity
  8
REVISAR
100
AcDbLine
 10
10.984
 20
1.64
 30
0.0
 11
10.986297000000002
 21
1.639544
 31
0.0
  0
LINE
  5
27E
330
17
100
AcDbEntity
  8
REVISAR
100
AcDbLine
 10
10.986297000000002
 20
1.639544
 30
0.0
 11
10.988243999999998
 21
1.638243
 31
0.0
  0
LINE
  5
27F
330
17
100
AcDbEntity
  8
REVISAR
100
AcDbLine
 10
10.988243999999998
 20
1.638243
 30
0.0
 11
10.989545000000001
 21
1.6362960000000002
 31
0.0
  0
LINE
  5
280
330
17
100
AcDbEntity
  8
REVISAR
100
AcDbLine
 10
10.989545000000001
 20
1.6362960000000002
 30
0.0
 11
10.990001
 21
1.634
 31
0.0
  0
LINE
  5
281
330
17
100
AcDbEntity
  8
REVISAR
100
AcDbLine
 10
10.990001
 20
1.634
 30
0.0
 11
10.990001
 21
1.266
 31
0.0
  0
LINE
  5
282
330
17
100
AcDbEntity
  8
REVISAR
100
AcDbLine
 10
10.990001
 20
1.266
 30
0.0
 11
10.989545000000001
 21
1.2637040000000002
 31
0.0
  0
LINE
  5
283
330
17
100
AcDbEntity
  8
REVISAR
100
AcDbLine
 10
10.989545000000001
 20
1.2637040000000002
 30
0.0
 11
10.988243999999998
 21
1.2617579999999997
 31
0.0
  0
LINE
  5
284
330
17
100
AcDbEntity
  8
REVISAR
100
AcDbLine
 10
10.988243999999998
 20
1.2617579999999997
 30
0.0
 11
10.986297000000002
 21
1.2604570000000004
 31
0.0
  0
LINE
  5
285
330
17
100
AcDbEntity
  8
REVISAR
100
AcDbLine
 10
10.986297000000002
 20
1.2604570000000004
 30
0.0
 11
10.984
 21
1.26
 31
0.0
  0
LINE
  5
286
330
17
100
AcDbEntity
  8
REVISAR
100
AcDbLine
 10
10.984
 20
1.26
 30
0.0
 11
10.616
 21
1.26
 31
0.0
  0
LINE
  5
287
330
17
100
AcDbEntity
  8
REVISAR
100
AcDbLine
 10
10.616
 20
1.26
 30
0.0
 11
10.613704
 21
1.2604570000000004
 31
0.0
  0
LINE
  5
288
330
17
100
AcDbEntity
  8
REVISAR
100
AcDbLine
 10
11.553702999999997
 20
1.2604570000000004
 30
0.0
 11
11.551755000000002
 21
1.2617579999999997
 31
0.0
  0
LINE
  5
289
330
17
100
AcDbEntity
  8
REVISAR
100
AcDbLine
 10
11.551755000000002
 20
1.2617579999999997
 30
0.0
 11
11.550453999999998
 21
1.2637040000000002
 31
0.0
  0
LINE
  5
28A
330
17
100
AcDbEntity
  8
REVISAR
100
AcDbLine
 10
11.550453999999998
 20
1.2637040000000002
 30
0.0
 11
11.549997999999999
 21
1.266
 31
0.0
  0
LINE
  5
28B
330
17
100
AcDbEntity
  8
REVISAR
100
AcDbLine
 10
11.549997999999999
 20
1.266
 30
0.0
 11
11.549997999999999
 21
1.634
 31
0.0
  0
LINE
  5
28C
330
17
100
AcDbEntity
  8
REVISAR
100
AcDbLine
 10
11.549997999999999
 20
1.634
 30
0.0
 11
11.550453999999998
 21
1.6362960000000002
 31
0.0
  0
LINE
  5
28D
330
17
100
AcDbEntity
  8
REVISAR
100
AcDbLine
 10
11.550453999999998
 20
1.6362960000000002
 30
0.0
 11
11.551755000000002
 21
1.638243
 31
0.0
  0
LINE
  5
28E
330
17
100
AcDbEntity
  8
REVISAR
100
AcDbLine
 10
11.551755000000002
 20
1.638243
 30
0.0
 11
11.553702999999997
 21
1.639544
 31
0.0
  0
LINE
  5
28F
330
17
100
AcDbEntity
  8
REVISAR
100
AcDbLine
 10
11.553702999999997
 20
1.639544
 30
0.0
 11
11.555999
 21
1.64
 31
0.0
  0
LINE
  5
290
330
17
100
AcDbEntity
  8
REVISAR
100
AcDbLine
 10
11.555999
 20
1.64
 30
0.0
 11
11.923999
 21
1.64
 31
0.0
  0
LINE
  5
291
330
17
100
AcDbEntity
  8
REVISAR
100
AcDbLine
 10
11.923999
 20
1.64
 30
0.0
 11
11.926295000000001
 21
1.639544
 31
0.0
  0
LINE
  5
292
330
17
100
AcDbEntity
  8
REVISAR
100
AcDbLine
 10
11.926295000000001
 20
1.639544
 30
0.0
 11
11.928242999999998
 21
1.638243
 31
0.0
  0
LINE
  5
293
330
17
100
AcDbEntity
  8
REVISAR
100
AcDbLine
 10
11.928242999999998
 20
1.638243
 30
0.0
 11
11.929544000000002
 21
1.6362960000000002
 31
0.0
  0
LINE
  5
294
330
17
100
AcDbEntity
  8
REVISAR
100
AcDbLine
 10
11.929544000000002
 20
1.6362960000000002
 30
0.0
 11
11.93
 21
1.634
 31
0.0
  0
LINE
  5
295
330
17
100
AcDbEntity
  8
REVISAR
100
AcDbLine
 10
11.93
 20
1.634
 30
0.0
 11
11.93
 21
1.266
 31
0.0
  0
LINE
  5
296
330
17
100
AcDbEntity
  8
REVISAR
100
AcDbLine
 10
11.93
 20
1.266
 30
0.0
 11
11.929544000000002
 21
1.2637040000000002
 31
0.0
  0
LINE
  5
297
330
17
100
AcDbEntity
  8
REVISAR
100
AcDbLine
 10
11.929544000000002
 20
1.2637040000000002
 30
0.0
 11
11.928242999999998
 21
1.2617579999999997
 31
0.0
  0
LINE
  5
298
330
17
100
AcDbEntity
  8
REVISAR
100
AcDbLine
 10
11.928242999999998
 20
1.2617579999999997
 30
0.0
 11
11.926295000000001
 21
1.2604570000000004
 31
0.0
  0
LINE
  5
299
330
17
100
AcDbEntity
  8
REVISAR
100
AcDbLine
 10
11.926295000000001
 20
1.2604570000000004
 30
0.0
 11
11.923999
 21
1.26
 31
0.0
  0
LINE
  5
29A
330
17
100
AcDbEntity
  8
REVISAR
100
AcDbLine
 10
11.923999
 20
1.26
 30
0.0
 11
11.555999
 21
1.26
 31
0.0
  0
LINE
  5
29B
330
17
100
AcDbEntity
  8
REVISAR
100
AcDbLine
 10
11.555999
 20
1.26
 30
0.0
 11
11.553702999999997
 21
1.2604570000000004
 31
0.0
  0
LINE
  5
29C
330
17
100
AcDbEntity
  8
P_PROPUESTO
100
AcDbLine
 10
10.1
 20
1.905
 30
0.0
 11
12.7
 21
1.905
 31
0.0
  0
LINE
  5
29D
330
17
100
AcDbEntity
  8
P_PROPUESTO
100
AcDbLine
 10
10.1
 20
1.68
 30
0.0
 11
12.7
 21
1.68
 31
0.0
  0
LINE
  5
29E
330
17
100
AcDbEntity
  8
P_PROPUESTO
100
AcDbLine
 10
10.1
 20
1.4549999999999998
 30
0.0
 11
12.7
 21
1.4549999999999998
 31
0.0
  0
LINE
  5
29F
330
17
100
AcDbEntity
  8
REVISAR
100
AcDbLine
 10
11.27
 20
1.68
 30
0.0
 11
11.27
 21
1.0000000000000002
 31
0.0
  0
LINE
  5
2A0
330
17
100
AcDbEntity
  8
REVISAR
100
AcDbLine
 10
11.27
 20
1.0000000000000002
 30
0.0
 11
10.8
 21
1.0000000000000002
 31
0.0
  0
TEXT
  5
2A1
330
17
100
AcDbEntity
  8
TEXTOS
100
AcDbText
 10
11.399999999999999
 20
1.98
 30
0.0
 40
0.05
  1
P paso450 / plazas ocupadas
100
AcDbText
  0
DIMENSION
  5
2A2
330
17
100
AcDbEntity
  8
COTAS
100
AcDbDimension
280
0
  2
*D6
  3
Standard
 10
10.495000000000001
 20
0.0
 30
0.0
 11
10.8
 21
0.0
 31
0.0
 70
32
 71
5
  1
<>
100
AcDbAlignedDimension
 13
10.495000000000001
 23
0.0
 33
0.0
 14
11.105
 24
0.0
 34
0.0
 50
0.0
100
AcDbRotatedDimension
1001
ACAD
1000
DSTYLE
1002
{
1070
140
1040
0.052
1070
41
1040
0.007
1002
}
  0
DIMENSION
  5
2B4
330
17
100
AcDbEntity
  8
COTAS
100
AcDbDimension
280
0
  2
*D7
  3
Standard
 10
11.434999999999999
 20
0.0
 30
0.0
 11
11.739999999999998
 21
0.0
 31
0.0
 70
32
 71
5
  1
<>
100
AcDbAlignedDimension
 13
11.434999999999999
 23
0.0
 33
0.0
 14
12.044999999999998
 24
0.0
 34
0.0
 50
0.0
100
AcDbRotatedDimension
1001
ACAD
1000
DSTYLE
1002
{
1070
140
1040
0.052
1070
41
1040
0.007
1002
}
  0
DIMENSION
  5
2C6
330
17
100
AcDbEntity
  8
COTAS
100
AcDbDimension
280
0
  2
*D8
  3
Standard
 10
10.647500228881835
 20
0.52
 30
0.0
 11
10.800000381469726
 21
0.52
 31
0.0
 70
32
 71
5
  1
<>
100
AcDbAlignedDimension
 13
10.647500228881835
 23
0.52
 33
0.0
 14
10.952500534057616
 24
0.52
 34
0.0
 50
0.0
100
AcDbRotatedDimension
1001
ACAD
1000
DSTYLE
1002
{
1070
140
1040
0.052
1070
41
1040
0.007
1002
}
  0
ENDSEC
  0
SECTION
  2
OBJECTS
  0
DICTIONARY
  5
A
330
0
100
AcDbDictionary
281
1
  3
ACAD_COLOR
350
B
  3
ACAD_GROUP
350
C
  3
ACAD_LAYOUT
350
D
  3
ACAD_MATERIAL
350
E
  3
ACAD_MLEADERSTYLE
350
F
  3
ACAD_MLINESTYLE
350
10
  3
ACAD_PLOTSETTINGS
350
11
  3
ACAD_PLOTSTYLENAME
350
12
  3
ACAD_SCALELIST
350
14
  3
ACAD_TABLESTYLE
350
15
  3
ACAD_VISUALSTYLE
350
16
  3
EZDXF_META
350
2D
  0
DICTIONARY
  5
B
330
A
100
AcDbDictionary
281
1
  0
DICTIONARY
  5
C
330
A
100
AcDbDictionary
281
1
  0
DICTIONARY
  5
D
330
A
100
AcDbDictionary
281
1
  3
Model
350
1A
  3
Layout1
350
1E
  0
DICTIONARY
  5
E
330
A
100
AcDbDictionary
281
1
  3
ByBlock
350
1F
  3
ByLayer
350
20
  3
Global
350
21
  0
DICTIONARY
  5
F
330
A
100
AcDbDictionary
281
1
  3
Standard
350
2C
  0
DICTIONARY
  5
10
330
A
100
AcDbDictionary
281
1
  3
Standard
350
22
  0
DICTIONARY
  5
11
330
A
100
AcDbDictionary
281
1
  0
ACDBDICTIONARYWDFLT
  5
12
330
A
100
AcDbDictionary
281
1
  3
Normal
350
13
100
AcDbDictionaryWithDefault
340
13
  0
ACDBPLACEHOLDER
  5
13
330
12
  0
DICTIONARY
  5
14
330
A
100
AcDbDictionary
281
1
  0
DICTIONARY
  5
15
330
A
100
AcDbDictionary
281
1
  0
DICTIONARY
  5
16
330
A
100
AcDbDictionary
281
1
  0
LAYOUT
  5
1A
330
D
100
AcDbPlotSettings
  1

  4
A3
  6

 40
7.5
 41
20.0
 42
7.5
 43
20.0
 44
420.0
 45
297.0
 46
0.0
 47
0.0
 48
0.0
 49
0.0
140
0.0
141
0.0
142
1.0
143
1.0
 70
1024
 72
1
 73
0
 74
5
  7

 75
16
 76
0
 77
2
 78
300
147
1.0
148
0.0
149
0.0
100
AcDbLayout
  1
Model
 70
1
 71
0
 10
0.0
 20
0.0
 11
420.0
 21
297.0
 12
0.0
 22
0.0
 32
0.0
 14
1e+20
 24
1e+20
 34
1e+20
 15
-1e+20
 25
-1e+20
 35
-1e+20
146
0.0
 13
0.0
 23
0.0
 33
0.0
 16
1.0
 26
0.0
 36
0.0
 17
0.0
 27
1.0
 37
0.0
 76
1
330
17
  0
LAYOUT
  5
1E
330
D
100
AcDbPlotSettings
  1

  4
A3
  6

 40
7.5
 41
20.0
 42
7.5
 43
20.0
 44
420.0
 45
297.0
 46
0.0
 47
0.0
 48
0.0
 49
0.0
140
0.0
141
0.0
142
1.0
143
1.0
 70
0
 72
1
 73
0
 74
5
  7

 75
16
 76
0
 77
2
 78
300
147
1.0
148
0.0
149
0.0
100
AcDbLayout
  1
Layout1
 70
1
 71
1
 10
0.0
 20
0.0
 11
420.0
 21
297.0
 12
0.0
 22
0.0
 32
0.0
 14
1e+20
 24
1e+20
 34
1e+20
 15
-1e+20
 25
-1e+20
 35
-1e+20
146
0.0
 13
0.0
 23
0.0
 33
0.0
 16
1.0
 26
0.0
 36
0.0
 17
0.0
 27
1.0
 37
0.0
 76
1
330
1B
  0
MATERIAL
  5
1F
102
{ACAD_REACTORS
330
E
102
}
330
E
100
AcDbMaterial
  1
ByBlock
  2

 70
0
 40
1.0
 71
1
 41
1.0
 91
-1023410177
 42
1.0
 72
1
  3

 73
1
 74
1
 75
1
 44
0.5
 73
0
 45
1.0
 46
1.0
 77
1
  4

 78
1
 79
1
170
1
 48
1.0
171
1
  6

172
1
173
1
174
1
140
1.0
141
1.0
175
1
  7

176
1
177
1
178
1
143
1.0
179
1
  8

270
1
271
1
272
1
145
1.0
146
1.0
273
1
  9

274
1
275
1
276
1
 42
1.0
 72
1
  3

 73
1
 74
1
 75
1
 94
63
  0
MATERIAL
  5
20
102
{ACAD_REACTORS
330
E
102
}
330
E
100
AcDbMaterial
  1
ByLayer
  2

 70
0
 40
1.0
 71
1
 41
1.0
 91
-1023410177
 42
1.0
 72
1
  3

 73
1
 74
1
 75
1
 44
0.5
 73
0
 45
1.0
 46
1.0
 77
1
  4

 78
1
 79
1
170
1
 48
1.0
171
1
  6

172
1
173
1
174
1
140
1.0
141
1.0
175
1
  7

176
1
177
1
178
1
143
1.0
179
1
  8

270
1
271
1
272
1
145
1.0
146
1.0
273
1
  9

274
1
275
1
276
1
 42
1.0
 72
1
  3

 73
1
 74
1
 75
1
 94
63
  0
MATERIAL
  5
21
102
{ACAD_REACTORS
330
E
102
}
330
E
100
AcDbMaterial
  1
Global
  2

 70
0
 40
1.0
 71
1
 41
1.0
 91
-1023410177
 42
1.0
 72
1
  3

 73
1
 74
1
 75
1
 44
0.5
 73
0
 45
1.0
 46
1.0
 77
1
  4

 78
1
 79
1
170
1
 48
1.0
171
1
  6

172
1
173
1
174
1
140
1.0
141
1.0
175
1
  7

176
1
177
1
178
1
143
1.0
179
1
  8

270
1
271
1
272
1
145
1.0
146
1.0
273
1
  9

274
1
275
1
276
1
 42
1.0
 72
1
  3

 73
1
 74
1
 75
1
 94
63
  0
MLINESTYLE
  5
22
102
{ACAD_REACTORS
330
10
102
}
330
10
100
AcDbMlineStyle
  2
Standard
 70
0
  3

 62
256
 51
90.0
 52
90.0
 71
2
 49
0.5
 62
256
  6
BYLAYER
 49
-0.5
 62
256
  6
BYLAYER
  0
MLEADERSTYLE
  5
2C
102
{ACAD_REACTORS
330
F
102
}
330
F
100
AcDbMLeaderStyle
179
2
170
2
171
1
172
0
 90
2
 40
0.0
 41
0.0
173
1
 91
-1056964608
 92
-2
290
1
 42
2.0
291
1
 43
8.0
  3
Standard
 44
4.0
300

342
29
174
1
175
1
176
0
178
1
 93
-1056964608
 45
4.0
292
0
297
0
 46
4.0
 94
-1056964608
 47
1.0
 49
1.0
140
1.0
294
1
141
0.0
177
0
142
1.0
295
0
296
0
143
3.75
271
0
272
9
273
9
  0
DICTIONARY
  5
2D
330
A
100
AcDbDictionary
280
1
281
1
  3
CREATED_BY_EZDXF
350
2E
  3
WRITTEN_BY_EZDXF
350
2DA
  0
DICTIONARYVAR
  5
2E
330
2D
100
DictionaryVariables
280
0
  1
1.4.4 @ 2026-09-11T04:46:20.912331+00:00
  0
DICTIONARYVAR
  5
2DA
330
2D
100
DictionaryVariables
280
0
  1
1.4.4 @ 2026-09-11T04:46:21.021653+00:00
  0
ENDSEC
  0
EOF
