  0
SECTION
  2
HEADER
  9
$ACADVER
  1
AC1024
  9
$ACADMAINTVER
 70
6
  9
$DWGCODEPAGE
  3
ANSI_1252
  9
$LASTSAVEDBY
  1
ezdxf
  9
$INSBASE
 10
0.0
 20
0.0
 30
0.0
  9
$EXTMIN
 10
1e+20
 20
1e+20
 30
1e+20
  9
$EXTMAX
 10
-1e+20
 20
-1e+20
 30
-1e+20
  9
$LIMMIN
 10
0.0
 20
0.0
  9
$LIMMAX
 10
420.0
 20
297.0
  9
$ORTHOMODE
 70
0
  9
$REGENMODE
 70
1
  9
$FILLMODE
 70
1
  9
$QTEXTMODE
 70
0
  9
$MIRRTEXT
 70
1
  9
$LTSCALE
 40
1.0
  9
$ATTMODE
 70
1
  9
$TEXTSIZE
 40
2.5
  9
$TRACEWID
 40
1.0
  9
$TEXTSTYLE
  7
Standard
  9
$CLAYER
  8
0
  9
$CELTYPE
  6
ByLayer
  9
$CECOLOR
 62
256
  9
$CELTSCALE
 40
1.0
  9
$DISPSILH
 70
0
  9
$DIMSCALE
 40
1.0
  9
$DIMASZ
 40
2.5
  9
$DIMEXO
 40
0.625
  9
$DIMDLI
 40
3.75
  9
$DIMRND
 40
0.0
  9
$DIMDLE
 40
0.0
  9
$DIMEXE
 40
1.25
  9
$DIMTP
 40
0.0
  9
$DIMTM
 40
0.0
  9
$DIMTXT
 40
2.5
  9
$DIMCEN
 40
2.5
  9
$DIMTSZ
 40
0.0
  9
$DIMTOL
 70
0
  9
$DIMLIM
 70
0
  9
$DIMTIH
 70
0
  9
$DIMTOH
 70
0
  9
$DIMSE1
 70
0
  9
$DIMSE2
 70
0
  9
$DIMTAD
 70
1
  9
$DIMZIN
 70
8
  9
$DIMBLK
  1

  9
$DIMASO
 70
1
  9
$DIMSHO
 70
1
  9
$DIMPOST
  1

  9
$DIMAPOST
  1

  9
$DIMALT
 70
0
  9
$DIMALTD
 70
3
  9
$DIMALTF
 40
0.03937007874
  9
$DIMLFAC
 40
1.0
  9
$DIMTOFL
 70
1
  9
$DIMTVP
 40
0.0
  9
$DIMTIX
 70
0
  9
$DIMSOXD
 70
0
  9
$DIMSAH
 70
0
  9
$DIMBLK1
  1

  9
$DIMBLK2
  1

  9
$DIMSTYLE
  2
ISO-25
  9
$DIMCLRD
 70
0
  9
$DIMCLRE
 70
0
  9
$DIMCLRT
 70
0
  9
$DIMTFAC
 40
1.0
  9
$DIMGAP
 40
0.625
  9
$DIMJUST
 70
0
  9
$DIMSD1
 70
0
  9
$DIMSD2
 70
0
  9
$DIMTOLJ
 70
0
  9
$DIMTZIN
 70
8
  9
$DIMALTZ
 70
0
  9
$DIMALTTZ
 70
0
  9
$DIMUPT
 70
0
  9
$DIMDEC
 70
2
  9
$DIMTDEC
 70
2
  9
$DIMALTU
 70
2
  9
$DIMALTTD
 70
3
  9
$DIMTXSTY
  7
Standard
  9
$DIMAUNIT
 70
0
  9
$DIMADEC
 70
0
  9
$DIMALTRND
 40
0.0
  9
$DIMAZIN
 70
0
  9
$DIMDSEP
 70
44
  9
$DIMATFIT
 70
3
  9
$DIMFRAC
 70
0
  9
$DIMLDRBLK
  1

  9
$DIMLUNIT
 70
2
  9
$DIMLWD
 70
-2
  9
$DIMLWE
 70
-2
  9
$DIMTMOVE
 70
0
  9
$DIMFXL
 40
1.0
  9
$DIMFXLON
 70
0
  9
$DIMJOGANG
 40
0.785398163397
  9
$DIMTFILL
 70
0
  9
$DIMTFILLCLR
 70
0
  9
$DIMARCSYM
 70
0
  9
$DIMLTYPE
  6

  9
$DIMLTEX1
  6

  9
$DIMLTEX2
  6

  9
$DIMTXTDIRECTION
 70
0
  9
$LUNITS
 70
2
  9
$LUPREC
 70
4
  9
$SKETCHINC
 40
1.0
  9
$FILLETRAD
 40
10.0
  9
$AUNITS
 70
0
  9
$AUPREC
 70
2
  9
$MENU
  1
.
  9
$ELEVATION
 40
0.0
  9
$PELEVATION
 40
0.0
  9
$THICKNESS
 40
0.0
  9
$LIMCHECK
 70
0
  9
$CHAMFERA
 40
0.0
  9
$CHAMFERB
 40
0.0
  9
$CHAMFERC
 40
0.0
  9
$CHAMFERD
 40
0.0
  9
$SKPOLY
 70
0
  9
$TDCREATE
 40
2461294.823310185
  9
$TDUCREATE
 40
2458532.153996898
  9
$TDUPDATE
 40
2461294.823310185
  9
$TDUUPDATE
 40
2458532.1544311
  9
$TDINDWG
 40
0.0
  9
$TDUSRTIMER
 40
0.0
  9
$USRTIMER
 70
1
  9
$ANGBASE
 50
0.0
  9
$ANGDIR
 70
0
  9
$PDMODE
 70
0
  9
$PDSIZE
 40
0.0
  9
$PLINEWID
 40
0.0
  9
$SPLFRAME
 70
0
  9
$SPLINETYPE
 70
6
  9
$SPLINESEGS
 70
8
  9
$HANDSEED
  5
14B
  9
$SURFTAB1
 70
6
  9
$SURFTAB2
 70
6
  9
$SURFTYPE
 70
6
  9
$SURFU
 70
6
  9
$SURFV
 70
6
  9
$UCSBASE
  2

  9
$UCSNAME
  2

  9
$UCSORG
 10
0.0
 20
0.0
 30
0.0
  9
$UCSXDIR
 10
1.0
 20
0.0
 30
0.0
  9
$UCSYDIR
 10
0.0
 20
1.0
 30
0.0
  9
$UCSORTHOREF
  2

  9
$UCSORTHOVIEW
 70
0
  9
$UCSORGTOP
 10
0.0
 20
0.0
 30
0.0
  9
$UCSORGBOTTOM
 10
0.0
 20
0.0
 30
0.0
  9
$UCSORGLEFT
 10
0.0
 20
0.0
 30
0.0
  9
$UCSORGRIGHT
 10
0.0
 20
0.0
 30
0.0
  9
$UCSORGFRONT
 10
0.0
 20
0.0
 30
0.0
  9
$UCSORGBACK
 10
0.0
 20
0.0
 30
0.0
  9
$PUCSBASE
  2

  9
$PUCSNAME
  2

  9
$PUCSORG
 10
0.0
 20
0.0
 30
0.0
  9
$PUCSXDIR
 10
1.0
 20
0.0
 30
0.0
  9
$PUCSYDIR
 10
0.0
 20
1.0
 30
0.0
  9
$PUCSORTHOREF
  2

  9
$PUCSORTHOVIEW
 70
0
  9
$PUCSORGTOP
 10
0.0
 20
0.0
 30
0.0
  9
$PUCSORGBOTTOM
 10
0.0
 20
0.0
 30
0.0
  9
$PUCSORGLEFT
 10
0.0
 20
0.0
 30
0.0
  9
$PUCSORGRIGHT
 10
0.0
 20
0.0
 30
0.0
  9
$PUCSORGFRONT
 10
0.0
 20
0.0
 30
0.0
  9
$PUCSORGBACK
 10
0.0
 20
0.0
 30
0.0
  9
$USERI1
 70
0
  9
$USERI2
 70
0
  9
$USERI3
 70
0
  9
$USERI4
 70
0
  9
$USERI5
 70
0
  9
$USERR1
 40
0.0
  9
$USERR2
 40
0.0
  9
$USERR3
 40
0.0
  9
$USERR4
 40
0.0
  9
$USERR5
 40
0.0
  9
$WORLDVIEW
 70
1
  9
$SHADEDGE
 70
3
  9
$SHADEDIF
 70
70
  9
$TILEMODE
 70
1
  9
$MAXACTVP
 70
64
  9
$PINSBASE
 10
0.0
 20
0.0
 30
0.0
  9
$PLIMCHECK
 70
0
  9
$PEXTMIN
 10
1e+20
 20
1e+20
 30
1e+20
  9
$PEXTMAX
 10
-1e+20
 20
-1e+20
 30
-1e+20
  9
$PLIMMIN
 10
0.0
 20
0.0
  9
$PLIMMAX
 10
420.0
 20
297.0
  9
$UNITMODE
 70
0
  9
$VISRETAIN
 70
1
  9
$PLINEGEN
 70
0
  9
$PSLTSCALE
 70
1
  9
$TREEDEPTH
 70
3020
  9
$CMLSTYLE
  2
Standard
  9
$CMLJUST
 70
0
  9
$CMLSCALE
 40
20.0
  9
$PROXYGRAPHICS
 70
1
  9
$MEASUREMENT
 70
1
  9
$CELWEIGHT
370
-1
  9
$ENDCAPS
280
0
  9
$JOINSTYLE
280
0
  9
$LWDISPLAY
290
0
  9
$INSUNITS
 70
6
  9
$HYPERLINKBASE
  1

  9
$STYLESHEET
  1

  9
$XEDIT
290
1
  9
$CEPSNTYPE
380
0
  9
$PSTYLEMODE
290
1
  9
$FINGERPRINTGUID
  2
{C3918B4A-9229-4A0B-8D46-6C91EFE080C3}
  9
$VERSIONGUID
  2
{3BCC9433-4AE1-4EEF-AF7A-5D88EDB5B5FA}
  9
$EXTNAMES
290
1
  9
$PSVPSCALE
 40
0.0
  9
$OLESTARTUP
290
0
  9
$SORTENTS
280
127
  9
$INDEXCTL
280
0
  9
$HIDETEXT
280
1
  9
$XCLIPFRAME
280
1
  9
$HALOGAP
280
0
  9
$OBSCOLOR
 70
257
  9
$OBSLTYPE
280
0
  9
$INTERSECTIONDISPLAY
280
0
  9
$INTERSECTIONCOLOR
 70
257
  9
$DIMASSOC
280
2
  9
$PROJECTNAME
  1

  9
$CAMERADISPLAY
290
0
  9
$LENSLENGTH
 40
50.0
  9
$CAMERAHEIGHT
 40
0.0
  9
$STEPSPERSEC
 40
24.0
  9
$STEPSIZE
 40
100.0
  9
$3DDWFPREC
 40
2.0
  9
$PSOLWIDTH
 40
0.005
  9
$PSOLHEIGHT
 40
0.08
  9
$LOFTANG1
 40
1.570796326795
  9
$LOFTANG2
 40
1.570796326795
  9
$LOFTMAG1
 40
0.0
  9
$LOFTMAG2
 40
0.0
  9
$LOFTPARAM
 70
7
  9
$LOFTNORMALS
280
1
  9
$LATITUDE
 40
37.795
  9
$LONGITUDE
 40
-122.394
  9
$NORTHDIRECTION
 40
0.0
  9
$TIMEZONE
 70
-8000
  9
$LIGHTGLYPHDISPLAY
280
1
  9
$TILEMODELIGHTSYNCH
280
1
  9
$CMATERIAL
347
20
  9
$SOLIDHIST
280
0
  9
$SHOWHIST
280
1
  9
$DWFFRAME
280
2
  9
$DGNFRAME
280
2
  9
$REALWORLDSCALE
290
1
  9
$INTERFERECOLOR
 62
256
  9
$CSHADOW
280
0
  9
$SHADOWPLANELOCATION
 40
0.0
  0
ENDSEC
  0
SECTION
  2
CLASSES
  0
CLASS
  1
ACDBDICTIONARYWDFLT
  2
AcDbDictionaryWithDefault
  3
ObjectDBX Classes
 90
0
 91
0
280
0
281
0
  0
CLASS
  1
SUN
  2
AcDbSun
  3
SCENEOE
 90
1153
 91
0
280
0
281
0
  0
CLASS
  1
VISUALSTYLE
  2
AcDbVisualStyle
  3
ObjectDBX Classes
 90
4095
 91
0
280
0
281
0
  0
CLASS
  1
MATERIAL
  2
AcDbMaterial
  3
ObjectDBX Classes
 90
1153
 91
0
280
0
281
0
  0
CLASS
  1
SCALE
  2
AcDbScale
  3
ObjectDBX Classes
 90
1153
 91
0
280
0
281
0
  0
CLASS
  1
TABLESTYLE
  2
AcDbTableStyle
  3
ObjectDBX Classes
 90
4095
 91
0
280
0
281
0
  0
CLASS
  1
MLEADERSTYLE
  2
AcDbMLeaderStyle
  3
ACDB_MLEADERSTYLE_CLASS
 90
4095
 91
0
280
0
281
0
  0
CLASS
  1
DICTIONARYVAR
  2
AcDbDictionaryVar
  3
ObjectDBX Classes
 90
0
 91
0
280
0
281
0
  0
CLASS
  1
CELLSTYLEMAP
  2
AcDbCellStyleMap
  3
ObjectDBX Classes
 90
1152
 91
0
280
0
281
0
  0
CLASS
  1
MENTALRAYRENDERSETTINGS
  2
AcDbMentalRayRenderSettings
  3
SCENEOE
 90
1024
 91
0
280
0
281
0
  0
CLASS
  1
ACDBDETAILVIEWSTYLE
  2
AcDbDetailViewStyle
  3
ObjectDBX Classes
 90
1025
 91
0
280
0
281
0
  0
CLASS
  1
ACDBSECTIONVIEWSTYLE
  2
AcDbSectionViewStyle
  3
ObjectDBX Classes
 90
1025
 91
0
280
0
281
0
  0
CLASS
  1
RASTERVARIABLES
  2
AcDbRasterVariables
  3
ISM
 90
0
 91
0
280
0
281
0
  0
CLASS
  1
ACDBPLACEHOLDER
  2
AcDbPlaceHolder
  3
ObjectDBX Classes
 90
0
 91
0
280
0
281
0
  0
CLASS
  1
LAYOUT
  2
AcDbLayout
  3
ObjectDBX Classes
 90
0
 91
0
280
0
281
0
  0
ENDSEC
  0
SECTION
  2
TABLES
  0
TABLE
  2
VPORT
  5
8
330
0
100
AcDbSymbolTable
 70
1
  0
VPORT
  5
23
330
8
100
AcDbSymbolTableRecord
100
AcDbViewportTableRecord
  2
*Active
 70
0
 10
0.0
 20
0.0
 11
1.0
 21
1.0
 12
0.0
 22
0.0
 13
0.0
 23
0.0
 14
0.5
 24
0.5
 15
0.5
 25
0.5
 16
0.0
 26
0.0
 36
1.0
 17
0.0
 27
0.0
 37
0.0
 40
1000.0
 41
1.34
 42
50.0
 43
0.0
 44
0.0
 50
0.0
 51
0.0
 71
0
 72
1000
 73
1
 74
3
 75
0
 76
0
 77
0
 78
0
281
0
 65
0
146
0.0
  0
ENDTAB
  0
TABLE
  2
LTYPE
  5
2
330
0
100
AcDbSymbolTable
 70
3
  0
LTYPE
  5
24
330
2
100
AcDbSymbolTableRecord
100
AcDbLinetypeTableRecord
  2
ByBlock
 70
0
  3

 72
65
 73
0
 40
0.0
  0
LTYPE
  5
25
330
2
100
AcDbSymbolTableRecord
100
AcDbLinetypeTableRecord
  2
ByLayer
 70
0
  3

 72
65
 73
0
 40
0.0
  0
LTYPE
  5
26
330
2
100
AcDbSymbolTableRecord
100
AcDbLinetypeTableRecord
  2
Continuous
 70
0
  3

 72
65
 73
0
 40
0.0
  0
ENDTAB
  0
TABLE
  2
LAYER
  5
1
330
0
100
AcDbSymbolTable
 70
8
  0
LAYER
  5
27
330
1
100
AcDbSymbolTableRecord
100
AcDbLayerTableRecord
  2
0
 70
0
 62
7
  6
Continuous
370
-3
390
13
347
21
  0
LAYER
  5
28
330
1
100
AcDbSymbolTableRecord
100
AcDbLayerTableRecord
  2
Defpoints
 70
0
 62
7
  6
Continuous
290
0
370
-3
390
13
347
21
  0
LAYER
  5
2F
330
1
100
AcDbSymbolTableRecord
100
AcDbLayerTableRecord
  2
CORTE
 70
0
 62
7
  6
Continuous
370
-3
390
13
347
21
  0
LAYER
  5
30
330
1
100
AcDbSymbolTableRecord
100
AcDbLayerTableRecord
  2
VISTA
 70
0
 62
8
  6
Continuous
370
-3
390
13
347
21
  0
LAYER
  5
31
330
1
100
AcDbSymbolTableRecord
100
AcDbLayerTableRecord
  2
COTAS
 70
0
 62
4
  6
Continuous
370
-3
390
13
347
21
  0
LAYER
  5
32
330
1
100
AcDbSymbolTableRecord
100
AcDbLayerTableRecord
  2
TEXTOS
 70
0
 62
7
  6
Continuous
370
-3
390
13
347
21
  0
LAYER
  5
33
330
1
100
AcDbSymbolTableRecord
100
AcDbLayerTableRecord
  2
EJES
 70
0
 62
3
  6
Continuous
370
-3
390
13
347
21
  0
LAYER
  5
34
330
1
100
AcDbSymbolTableRecord
100
AcDbLayerTableRecord
  2
SISTEMAS
 70
0
 62
5
  6
Continuous
370
-3
390
13
347
21
  0
ENDTAB
  0
TABLE
  2
STYLE
  5
5
330
0
100
AcDbSymbolTable
 70
1
  0
STYLE
  5
29
330
5
100
AcDbSymbolTableRecord
100
AcDbTextStyleTableRecord
  2
Standard
 70
0
 40
0.0
 41
1.0
 50
0.0
 71
0
 42
2.5
  3
txt
  4

  0
ENDTAB
  0
TABLE
  2
VIEW
  5
7
330
0
100
AcDbSymbolTable
 70
0
  0
ENDTAB
  0
TABLE
  2
UCS
  5
6
330
0
100
AcDbSymbolTable
 70
0
  0
ENDTAB
  0
TABLE
  2
APPID
  5
3
330
0
100
AcDbSymbolTable
 70
3
  0
APPID
  5
2A
330
3
100
AcDbSymbolTableRecord
100
AcDbRegAppTableRecord
  2
ACAD
 70
0
  0
APPID
  5
148
330
3
100
AcDbSymbolTableRecord
100
AcDbRegAppTableRecord
  2
HATCHBACKGROUNDCOLOR
 70
0
  0
APPID
  5
149
330
3
100
AcDbSymbolTableRecord
100
AcDbRegAppTableRecord
  2
EZDXF
 70
0
  0
ENDTAB
  0
TABLE
  2
DIMSTYLE
  5
4
330
0
100
AcDbSymbolTable
 70
1
100
AcDbDimStyleTable
  0
DIMSTYLE
105
2B
330
4
100
AcDbSymbolTableRecord
100
AcDbDimStyleTableRecord
  2
Standard
 70
0
 40
1.0
 41
2.5
 42
0.625
 43
3.75
 44
1.25
 45
0.0
 46
0.0
 47
0.0
 48
0.0
 49
2.5
140
2.5
141
2.5
142
0.0
143
0.03937007874
144
1.0
145
0.0
146
1.0
147
0.625
148
0.0
 69
0
 70
0
 71
0
 72
0
 73
0
 74
0
 75
0
 76
0
 77
1
 78
8
 79
3
170
0
171
3
172
1
173
0
174
0
175
0
176
0
177
0
178
0
179
2
271
2
272
2
273
2
274
3
275
0
276
0
277
2
278
44
279
0
280
0
281
0
282
0
283
0
284
8
285
0
286
0
288
0
289
3
290
0
371
-2
372
-2
  0
ENDTAB
  0
TABLE
  2
BLOCK_RECORD
  5
9
330
0
100
AcDbSymbolTable
 70
15
  0
BLOCK_RECORD
  5
17
330
9
100
AcDbSymbolTableRecord
100
AcDbBlockTableRecord
  2
*Model_Space
340
1A
 70
0
280
1
281
0
  0
BLOCK_RECORD
  5
1B
330
9
100
AcDbSymbolTableRecord
100
AcDbBlockTableRecord
  2
*Paper_Space
340
1E
 70
0
280
1
281
0
  0
BLOCK_RECORD
  5
65
330
9
100
AcDbSymbolTableRecord
100
AcDbBlockTableRecord
  2
*D1
340
0
 70
0
280
1
281
0
  0
BLOCK_RECORD
  5
6A
330
9
100
AcDbSymbolTableRecord
100
AcDbBlockTableRecord
  2
_CLOSEDFILLED
340
0
 70
0
280
1
281
0
  0
BLOCK_RECORD
  5
79
330
9
100
AcDbSymbolTableRecord
100
AcDbBlockTableRecord
  2
*D2
340
0
 70
0
280
1
281
0
  0
BLOCK_RECORD
  5
89
330
9
100
AcDbSymbolTableRecord
100
AcDbBlockTableRecord
  2
*D3
340
0
 70
0
280
1
281
0
  0
BLOCK_RECORD
  5
99
330
9
100
AcDbSymbolTableRecord
100
AcDbBlockTableRecord
  2
*D4
340
0
 70
0
280
1
281
0
  0
BLOCK_RECORD
  5
A9
330
9
100
AcDbSymbolTableRecord
100
AcDbBlockTableRecord
  2
*D5
340
0
 70
0
280
1
281
0
  0
BLOCK_RECORD
  5
B9
330
9
100
AcDbSymbolTableRecord
100
AcDbBlockTableRecord
  2
*D6
340
0
 70
0
280
1
281
0
  0
BLOCK_RECORD
  5
C9
330
9
100
AcDbSymbolTableRecord
100
AcDbBlockTableRecord
  2
*D7
340
0
 70
0
280
1
281
0
  0
BLOCK_RECORD
  5
D9
330
9
100
AcDbSymbolTableRecord
100
AcDbBlockTableRecord
  2
*D8
340
0
 70
0
280
1
281
0
  0
BLOCK_RECORD
  5
108
330
9
100
AcDbSymbolTableRecord
100
AcDbBlockTableRecord
  2
*D9
340
0
 70
0
280
1
281
0
  0
BLOCK_RECORD
  5
118
330
9
100
AcDbSymbolTableRecord
100
AcDbBlockTableRecord
  2
*D10
340
0
 70
0
280
1
281
0
  0
BLOCK_RECORD
  5
128
330
9
100
AcDbSymbolTableRecord
100
AcDbBlockTableRecord
  2
*D11
340
0
 70
0
280
1
281
0
  0
BLOCK_RECORD
  5
138
330
9
100
AcDbSymbolTableRecord
100
AcDbBlockTableRecord
  2
*D12
340
0
 70
0
280
1
281
0
  0
ENDTAB
  0
ENDSEC
  0
SECTION
  2
BLOCKS
  0
BLOCK
  5
18
330
17
100
AcDbEntity
  8
0
100
AcDbBlockBegin
  2
*Model_Space
 70
0
 10
0.0
 20
0.0
 30
0.0
  3
*Model_Space
  1

  0
ENDBLK
  5
19
330
17
100
AcDbEntity
  8
0
100
AcDbBlockEnd
  0
BLOCK
  5
1C
330
1B
100
AcDbEntity
  8
0
100
AcDbBlockBegin
  2
*Paper_Space
 70
0
 10
0.0
 20
0.0
 30
0.0
  3
*Paper_Space
  1

  0
ENDBLK
  5
1D
330
1B
100
AcDbEntity
  8
0
100
AcDbBlockEnd
  0
BLOCK
  5
66
330
65
100
AcDbEntity
  8
0
100
AcDbBlockBegin
  2
*D1
 70
1
 10
0.0
 20
0.0
 30
0.0
  3
*D1
  1

  0
LINE
  5
68
330
65
100
AcDbEntity
  8
0
100
AcDbLine
 10
0.0
 20
0.0
 30
0.0
 11
0.0
 21
1.65
 31
0.0
  0
LINE
  5
69
330
65
100
AcDbEntity
  8
0
100
AcDbLine
 10
22.0
 20
0.0
 30
0.0
 11
22.0
 21
1.65
 31
0.0
  0
INSERT
  5
6E
330
65
100
AcDbEntity
  8
COTAS
100
AcDbBlockReference
  2
_CLOSEDFILLED
 10
0.0
 20
1.65
 30
0.0
 41
0.09
 42
0.09
 50
180.0
  0
INSERT
  5
70
330
65
100
AcDbEntity
  8
COTAS
100
AcDbBlockReference
  2
_CLOSEDFILLED
 10
22.0
 20
1.65
 30
0.0
 41
0.09
 42
0.09
  0
LINE
  5
72
330
65
100
AcDbEntity
  8
0
100
AcDbLine
 10
0.09
 20
1.65
 30
0.0
 11
10.87
 21
1.65
 31
0.0
  0
LINE
  5
73
330
65
100
AcDbEntity
  8
0
100
AcDbLine
 10
11.129999999999999
 20
1.65
 30
0.0
 11
21.91
 21
1.65
 31
0.0
  0
MTEXT
  5
74
330
65
100
AcDbEntity
  8
COTAS
100
AcDbMText
 10
11.0
 20
1.65
 30
0.0
 40
0.13
 71
5
  1
22
  0
POINT
  5
75
330
65
100
AcDbEntity
  8
Defpoints
100
AcDbPoint
 10
0.0
 20
1.65
 30
0.0
  0
POINT
  5
76
330
65
100
AcDbEntity
  8
Defpoints
100
AcDbPoint
 10
0.0
 20
0.0
 30
0.0
  0
POINT
  5
77
330
65
100
AcDbEntity
  8
Defpoints
100
AcDbPoint
 10
22.0
 20
0.0
 30
0.0
  0
ENDBLK
  5
67
330
65
100
AcDbEntity
  8
0
100
AcDbBlockEnd
  0
BLOCK
  5
6B
330
6A
100
AcDbEntity
  8
0
100
AcDbBlockBegin
  2
_CLOSEDFILLED
 70
0
 10
0.0
 20
0.0
 30
0.0
  3
_CLOSEDFILLED
  1

  0
SOLID
  5
6D
330
6A
100
AcDbEntity
  8
0
  6
BYBLOCK
 62
0
100
AcDbTrace
 10
-1.0
 20
0.16439898372402537
 30
0.0
 11
0.0
 21
0.0
 31
0.0
 12
-1.0
 22
-0.16439898372402537
 32
0.0
 13
-1.0
 23
-0.16439898372402537
 33
0.0
  0
ENDBLK
  5
6C
330
6A
100
AcDbEntity
  8
0
100
AcDbBlockEnd
  0
BLOCK
  5
7A
330
79
100
AcDbEntity
  8
0
100
AcDbBlockBegin
  2
*D2
 70
1
 10
0.0
 20
0.0
 30
0.0
  3
*D2
  1

  0
LINE
  5
7C
330
79
100
AcDbEntity
  8
0
100
AcDbLine
 10
22.0
 20
0.0
 30
0.0
 11
23.0
 21
0.0
 31
0.0
  0
LINE
  5
7D
330
79
100
AcDbEntity
  8
0
100
AcDbLine
 10
22.0
 20
-20.0
 30
0.0
 11
23.0
 21
-20.0
 31
0.0
  0
INSERT
  5
7E
330
79
100
AcDbEntity
  8
COTAS
100
AcDbBlockReference
  2
_CLOSEDFILLED
 10
23.0
 20
0.0
 30
0.0
 41
0.09
 42
0.09
 50
270.0
  0
INSERT
  5
80
330
79
100
AcDbEntity
  8
COTAS
100
AcDbBlockReference
  2
_CLOSEDFILLED
 10
23.0
 20
-20.0
 30
0.0
 41
0.09
 42
0.09
 50
90.0
  0
LINE
  5
82
330
79
100
AcDbEntity
  8
0
100
AcDbLine
 10
23.0
 20
0.09
 30
0.0
 11
23.0
 21
-9.87
 31
0.0
  0
LINE
  5
83
330
79
100
AcDbEntity
  8
0
100
AcDbLine
 10
23.0
 20
-10.129999999999999
 30
0.0
 11
23.0
 21
-20.09
 31
0.0
  0
MTEXT
  5
84
330
79
100
AcDbEntity
  8
COTAS
100
AcDbMText
 10
23.0
 20
-10.0
 30
0.0
 40
0.13
 71
5
  1
20
 50
90.0
  0
POINT
  5
85
330
79
100
AcDbEntity
  8
Defpoints
100
AcDbPoint
 10
23.0
 20
0.0
 30
0.0
  0
POINT
  5
86
330
79
100
AcDbEntity
  8
Defpoints
100
AcDbPoint
 10
22.0
 20
0.0
 30
0.0
  0
POINT
  5
87
330
79
100
AcDbEntity
  8
Defpoints
100
AcDbPoint
 10
22.0
 20
-20.0
 30
0.0
  0
ENDBLK
  5
7B
330
79
100
AcDbEntity
  8
0
100
AcDbBlockEnd
  0
BLOCK
  5
8A
330
89
100
AcDbEntity
  8
0
100
AcDbBlockBegin
  2
*D3
 70
1
 10
0.0
 20
0.0
 30
0.0
  3
*D3
  1

  0
LINE
  5
8C
330
89
100
AcDbEntity
  8
0
100
AcDbLine
 10
0.0
 20
-20.0
 30
0.0
 11
0.0
 21
-20.75
 31
0.0
  0
LINE
  5
8D
330
89
100
AcDbEntity
  8
0
100
AcDbLine
 10
14.0
 20
-20.0
 30
0.0
 11
14.0
 21
-20.75
 31
0.0
  0
INSERT
  5
8E
330
89
100
AcDbEntity
  8
COTAS
100
AcDbBlockReference
  2
_CLOSEDFILLED
 10
0.0
 20
-20.75
 30
0.0
 41
0.09
 42
0.09
 50
180.0
  0
INSERT
  5
90
330
89
100
AcDbEntity
  8
COTAS
100
AcDbBlockReference
  2
_CLOSEDFILLED
 10
14.0
 20
-20.75
 30
0.0
 41
0.09
 42
0.09
  0
LINE
  5
92
330
89
100
AcDbEntity
  8
0
100
AcDbLine
 10
0.09
 20
-20.75
 30
0.0
 11
6.87
 21
-20.75
 31
0.0
  0
LINE
  5
93
330
89
100
AcDbEntity
  8
0
100
AcDbLine
 10
7.129999999999999
 20
-20.75
 30
0.0
 11
13.91
 21
-20.75
 31
0.0
  0
MTEXT
  5
94
330
89
100
AcDbEntity
  8
COTAS
100
AcDbMText
 10
7.0
 20
-20.75
 30
0.0
 40
0.13
 71
5
  1
14
  0
POINT
  5
95
330
89
100
AcDbEntity
  8
Defpoints
100
AcDbPoint
 10
0.0
 20
-20.75
 30
0.0
  0
POINT
  5
96
330
89
100
AcDbEntity
  8
Defpoints
100
AcDbPoint
 10
0.0
 20
-20.0
 30
0.0
  0
POINT
  5
97
330
89
100
AcDbEntity
  8
Defpoints
100
AcDbPoint
 10
14.0
 20
-20.0
 30
0.0
  0
ENDBLK
  5
8B
330
89
100
AcDbEntity
  8
0
100
AcDbBlockEnd
  0
BLOCK
  5
9A
330
99
100
AcDbEntity
  8
0
100
AcDbBlockBegin
  2
*D4
 70
1
 10
0.0
 20
0.0
 30
0.0
  3
*D4
  1

  0
LINE
  5
9C
330
99
100
AcDbEntity
  8
0
100
AcDbLine
 10
14.0
 20
-20.0
 30
0.0
 11
14.0
 21
-20.75
 31
0.0
  0
LINE
  5
9D
330
99
100
AcDbEntity
  8
0
100
AcDbLine
 10
22.0
 20
-20.0
 30
0.0
 11
22.0
 21
-20.75
 31
0.0
  0
INSERT
  5
9E
330
99
100
AcDbEntity
  8
COTAS
100
AcDbBlockReference
  2
_CLOSEDFILLED
 10
14.0
 20
-20.75
 30
0.0
 41
0.09
 42
0.09
 50
180.0
  0
INSERT
  5
A0
330
99
100
AcDbEntity
  8
COTAS
100
AcDbBlockReference
  2
_CLOSEDFILLED
 10
22.0
 20
-20.75
 30
0.0
 41
0.09
 42
0.09
  0
LINE
  5
A2
330
99
100
AcDbEntity
  8
0
100
AcDbLine
 10
14.09
 20
-20.75
 30
0.0
 11
17.935
 21
-20.75
 31
0.0
  0
LINE
  5
A3
330
99
100
AcDbEntity
  8
0
100
AcDbLine
 10
18.065
 20
-20.75
 30
0.0
 11
21.91
 21
-20.75
 31
0.0
  0
MTEXT
  5
A4
330
99
100
AcDbEntity
  8
COTAS
100
AcDbMText
 10
18.0
 20
-20.75
 30
0.0
 40
0.13
 71
5
  1
8
  0
POINT
  5
A5
330
99
100
AcDbEntity
  8
Defpoints
100
AcDbPoint
 10
14.0
 20
-20.75
 30
0.0
  0
POINT
  5
A6
330
99
100
AcDbEntity
  8
Defpoints
100
AcDbPoint
 10
14.0
 20
-20.0
 30
0.0
  0
POINT
  5
A7
330
99
100
AcDbEntity
  8
Defpoints
100
AcDbPoint
 10
22.0
 20
-20.0
 30
0.0
  0
ENDBLK
  5
9B
330
99
100
AcDbEntity
  8
0
100
AcDbBlockEnd
  0
BLOCK
  5
AA
330
A9
100
AcDbEntity
  8
0
100
AcDbBlockBegin
  2
*D5
 70
1
 10
0.0
 20
0.0
 30
0.0
  3
*D5
  1

  0
LINE
  5
AC
330
A9
100
AcDbEntity
  8
0
100
AcDbLine
 10
22.0
 20
-12.0
 30
0.0
 11
22.5
 21
-12.0
 31
0.0
  0
LINE
  5
AD
330
A9
100
AcDbEntity
  8
0
100
AcDbLine
 10
22.0
 20
-15.0
 30
0.0
 11
22.5
 21
-15.0
 31
0.0
  0
INSERT
  5
AE
330
A9
100
AcDbEntity
  8
COTAS
100
AcDbBlockReference
  2
_CLOSEDFILLED
 10
22.5
 20
-12.0
 30
0.0
 41
0.09
 42
0.09
 50
270.0
  0
INSERT
  5
B0
330
A9
100
AcDbEntity
  8
COTAS
100
AcDbBlockReference
  2
_CLOSEDFILLED
 10
22.5
 20
-15.0
 30
0.0
 41
0.09
 42
0.09
 50
90.0
  0
LINE
  5
B2
330
A9
100
AcDbEntity
  8
0
100
AcDbLine
 10
22.5
 20
-11.91
 30
0.0
 11
22.5
 21
-13.435
 31
0.0
  0
LINE
  5
B3
330
A9
100
AcDbEntity
  8
0
100
AcDbLine
 10
22.5
 20
-13.565
 30
0.0
 11
22.5
 21
-15.09
 31
0.0
  0
MTEXT
  5
B4
330
A9
100
AcDbEntity
  8
COTAS
100
AcDbMText
 10
22.5
 20
-13.5
 30
0.0
 40
0.13
 71
5
  1
3
 50
90.0
  0
POINT
  5
B5
330
A9
100
AcDbEntity
  8
Defpoints
100
AcDbPoint
 10
22.5
 20
-12.0
 30
0.0
  0
POINT
  5
B6
330
A9
100
AcDbEntity
  8
Defpoints
100
AcDbPoint
 10
22.0
 20
-12.0
 30
0.0
  0
POINT
  5
B7
330
A9
100
AcDbEntity
  8
Defpoints
100
AcDbPoint
 10
22.0
 20
-15.0
 30
0.0
  0
ENDBLK
  5
AB
330
A9
100
AcDbEntity
  8
0
100
AcDbBlockEnd
  0
BLOCK
  5
BA
330
B9
100
AcDbEntity
  8
0
100
AcDbBlockBegin
  2
*D6
 70
1
 10
0.0
 20
0.0
 30
0.0
  3
*D6
  1

  0
LINE
  5
BC
330
B9
100
AcDbEntity
  8
0
100
AcDbLine
 10
22.0
 20
-18.0
 30
0.0
 11
22.5
 21
-18.0
 31
0.0
  0
LINE
  5
BD
330
B9
100
AcDbEntity
  8
0
100
AcDbLine
 10
22.0
 20
-20.0
 30
0.0
 11
22.5
 21
-20.0
 31
0.0
  0
INSERT
  5
BE
330
B9
100
AcDbEntity
  8
COTAS
100
AcDbBlockReference
  2
_CLOSEDFILLED
 10
22.5
 20
-18.0
 30
0.0
 41
0.09
 42
0.09
 50
270.0
  0
INSERT
  5
C0
330
B9
100
AcDbEntity
  8
COTAS
100
AcDbBlockReference
  2
_CLOSEDFILLED
 10
22.5
 20
-20.0
 30
0.0
 41
0.09
 42
0.09
 50
90.0
  0
LINE
  5
C2
330
B9
100
AcDbEntity
  8
0
100
AcDbLine
 10
22.5
 20
-17.91
 30
0.0
 11
22.5
 21
-18.935
 31
0.0
  0
LINE
  5
C3
330
B9
100
AcDbEntity
  8
0
100
AcDbLine
 10
22.5
 20
-19.065
 30
0.0
 11
22.5
 21
-20.09
 31
0.0
  0
MTEXT
  5
C4
330
B9
100
AcDbEntity
  8
COTAS
100
AcDbMText
 10
22.5
 20
-19.0
 30
0.0
 40
0.13
 71
5
  1
2
 50
90.0
  0
POINT
  5
C5
330
B9
100
AcDbEntity
  8
Defpoints
100
AcDbPoint
 10
22.5
 20
-18.0
 30
0.0
  0
POINT
  5
C6
330
B9
100
AcDbEntity
  8
Defpoints
100
AcDbPoint
 10
22.0
 20
-18.0
 30
0.0
  0
POINT
  5
C7
330
B9
100
AcDbEntity
  8
Defpoints
100
AcDbPoint
 10
22.0
 20
-20.0
 30
0.0
  0
ENDBLK
  5
BB
330
B9
100
AcDbEntity
  8
0
100
AcDbBlockEnd
  0
BLOCK
  5
CA
330
C9
100
AcDbEntity
  8
0
100
AcDbBlockBegin
  2
*D7
 70
1
 10
0.0
 20
0.0
 30
0.0
  3
*D7
  1

  0
LINE
  5
CC
330
C9
100
AcDbEntity
  8
0
100
AcDbLine
 10
20.0
 20
-18.0
 30
0.0
 11
20.0
 21
-19.75
 31
0.0
  0
LINE
  5
CD
330
C9
100
AcDbEntity
  8
0
100
AcDbLine
 10
22.0
 20
-18.0
 30
0.0
 11
22.0
 21
-19.75
 31
0.0
  0
INSERT
  5
CE
330
C9
100
AcDbEntity
  8
COTAS
100
AcDbBlockReference
  2
_CLOSEDFILLED
 10
20.0
 20
-19.75
 30
0.0
 41
0.09
 42
0.09
 50
180.0
  0
INSERT
  5
D0
330
C9
100
AcDbEntity
  8
COTAS
100
AcDbBlockReference
  2
_CLOSEDFILLED
 10
22.0
 20
-19.75
 30
0.0
 41
0.09
 42
0.09
  0
LINE
  5
D2
330
C9
100
AcDbEntity
  8
0
100
AcDbLine
 10
20.09
 20
-19.75
 30
0.0
 11
20.935
 21
-19.75
 31
0.0
  0
LINE
  5
D3
330
C9
100
AcDbEntity
  8
0
100
AcDbLine
 10
21.065
 20
-19.75
 30
0.0
 11
21.91
 21
-19.75
 31
0.0
  0
MTEXT
  5
D4
330
C9
100
AcDbEntity
  8
COTAS
100
AcDbMText
 10
21.0
 20
-19.75
 30
0.0
 40
0.13
 71
5
  1
2
  0
POINT
  5
D5
330
C9
100
AcDbEntity
  8
Defpoints
100
AcDbPoint
 10
20.0
 20
-19.75
 30
0.0
  0
POINT
  5
D6
330
C9
100
AcDbEntity
  8
Defpoints
100
AcDbPoint
 10
20.0
 20
-18.0
 30
0.0
  0
POINT
  5
D7
330
C9
100
AcDbEntity
  8
Defpoints
100
AcDbPoint
 10
22.0
 20
-18.0
 30
0.0
  0
ENDBLK
  5
CB
330
C9
100
AcDbEntity
  8
0
100
AcDbBlockEnd
  0
BLOCK
  5
DA
330
D9
100
AcDbEntity
  8
0
100
AcDbBlockBegin
  2
*D8
 70
1
 10
0.0
 20
0.0
 30
0.0
  3
*D8
  1

  0
LINE
  5
DC
330
D9
100
AcDbEntity
  8
0
100
AcDbLine
 10
11.0
 20
0.0
 30
0.0
 11
11.0
 21
0.2
 31
0.0
  0
LINE
  5
DD
330
D9
100
AcDbEntity
  8
0
100
AcDbLine
 10
14.0
 20
0.0
 30
0.0
 11
14.0
 21
0.2
 31
0.0
  0
INSERT
  5
DE
330
D9
100
AcDbEntity
  8
COTAS
100
AcDbBlockReference
  2
_CLOSEDFILLED
 10
11.0
 20
0.2
 30
0.0
 41
0.09
 42
0.09
 50
180.0
  0
INSERT
  5
E0
330
D9
100
AcDbEntity
  8
COTAS
100
AcDbBlockReference
  2
_CLOSEDFILLED
 10
14.0
 20
0.2
 30
0.0
 41
0.09
 42
0.09
  0
LINE
  5
E2
330
D9
100
AcDbEntity
  8
0
100
AcDbLine
 10
11.09
 20
0.2
 30
0.0
 11
12.435
 21
0.2
 31
0.0
  0
LINE
  5
E3
330
D9
100
AcDbEntity
  8
0
100
AcDbLine
 10
12.565
 20
0.2
 30
0.0
 11
13.91
 21
0.2
 31
0.0
  0
MTEXT
  5
E4
330
D9
100
AcDbEntity
  8
COTAS
100
AcDbMText
 10
12.5
 20
0.2
 30
0.0
 40
0.13
 71
5
  1
3
  0
POINT
  5
E5
330
D9
100
AcDbEntity
  8
Defpoints
100
AcDbPoint
 10
11.0
 20
0.2
 30
0.0
  0
POINT
  5
E6
330
D9
100
AcDbEntity
  8
Defpoints
100
AcDbPoint
 10
11.0
 20
0.0
 30
0.0
  0
POINT
  5
E7
330
D9
100
AcDbEntity
  8
Defpoints
100
AcDbPoint
 10
14.0
 20
0.0
 30
0.0
  0
ENDBLK
  5
DB
330
D9
100
AcDbEntity
  8
0
100
AcDbBlockEnd
  0
BLOCK
  5
109
330
108
100
AcDbEntity
  8
0
100
AcDbBlockBegin
  2
*D9
 70
1
 10
0.0
 20
0.0
 30
0.0
  3
*D9
  1

  0
LINE
  5
10B
330
108
100
AcDbEntity
  8
0
100
AcDbLine
 10
42.05
 20
-3.675
 30
0.0
 11
42.05
 21
-3.45
 31
0.0
  0
LINE
  5
10C
330
108
100
AcDbEntity
  8
0
100
AcDbLine
 10
44.25
 20
-3.675
 30
0.0
 11
44.25
 21
-3.45
 31
0.0
  0
INSERT
  5
10D
330
108
100
AcDbEntity
  8
COTAS
100
AcDbBlockReference
  2
_CLOSEDFILLED
 10
42.05
 20
-3.45
 30
0.0
 41
0.09
 42
0.09
 50
180.0
  0
INSERT
  5
10F
330
108
100
AcDbEntity
  8
COTAS
100
AcDbBlockReference
  2
_CLOSEDFILLED
 10
44.25
 20
-3.45
 30
0.0
 41
0.09
 42
0.09
  0
LINE
  5
111
330
108
100
AcDbEntity
  8
0
100
AcDbLine
 10
42.14
 20
-3.45
 30
0.0
 11
42.955
 21
-3.45
 31
0.0
  0
LINE
  5
112
330
108
100
AcDbEntity
  8
0
100
AcDbLine
 10
43.345
 20
-3.45
 30
0.0
 11
44.16
 21
-3.45
 31
0.0
  0
MTEXT
  5
113
330
108
100
AcDbEntity
  8
COTAS
100
AcDbMText
 10
43.15
 20
-3.45
 30
0.0
 40
0.13
 71
5
  1
2,2
  0
POINT
  5
114
330
108
100
AcDbEntity
  8
Defpoints
100
AcDbPoint
 10
42.05
 20
-3.45
 30
0.0
  0
POINT
  5
115
330
108
100
AcDbEntity
  8
Defpoints
100
AcDbPoint
 10
42.05
 20
-3.675
 30
0.0
  0
POINT
  5
116
330
108
100
AcDbEntity
  8
Defpoints
100
AcDbPoint
 10
44.25
 20
-3.675
 30
0.0
  0
ENDBLK
  5
10A
330
108
100
AcDbEntity
  8
0
100
AcDbBlockEnd
  0
BLOCK
  5
119
330
118
100
AcDbEntity
  8
0
100
AcDbBlockBegin
  2
*D10
 70
1
 10
0.0
 20
0.0
 30
0.0
  3
*D10
  1

  0
LINE
  5
11B
330
118
100
AcDbEntity
  8
0
100
AcDbLine
 10
45.05
 20
-3.675
 30
0.0
 11
45.05
 21
-3.45
 31
0.0
  0
LINE
  5
11C
330
118
100
AcDbEntity
  8
0
100
AcDbLine
 10
47.25
 20
-3.675
 30
0.0
 11
47.25
 21
-3.45
 31
0.0
  0
INSERT
  5
11D
330
118
100
AcDbEntity
  8
COTAS
100
AcDbBlockReference
  2
_CLOSEDFILLED
 10
45.05
 20
-3.45
 30
0.0
 41
0.09
 42
0.09
 50
180.0
  0
INSERT
  5
11F
330
118
100
AcDbEntity
  8
COTAS
100
AcDbBlockReference
  2
_CLOSEDFILLED
 10
47.25
 20
-3.45
 30
0.0
 41
0.09
 42
0.09
  0
LINE
  5
121
330
118
100
AcDbEntity
  8
0
100
AcDbLine
 10
45.14
 20
-3.45
 30
0.0
 11
45.955
 21
-3.45
 31
0.0
  0
LINE
  5
122
330
118
100
AcDbEntity
  8
0
100
AcDbLine
 10
46.345
 20
-3.45
 30
0.0
 11
47.16
 21
-3.45
 31
0.0
  0
MTEXT
  5
123
330
118
100
AcDbEntity
  8
COTAS
100
AcDbMText
 10
46.15
 20
-3.45
 30
0.0
 40
0.13
 71
5
  1
2,2
  0
POINT
  5
124
330
118
100
AcDbEntity
  8
Defpoints
100
AcDbPoint
 10
45.05
 20
-3.45
 30
0.0
  0
POINT
  5
125
330
118
100
AcDbEntity
  8
Defpoints
100
AcDbPoint
 10
45.05
 20
-3.675
 30
0.0
  0
POINT
  5
126
330
118
100
AcDbEntity
  8
Defpoints
100
AcDbPoint
 10
47.25
 20
-3.675
 30
0.0
  0
ENDBLK
  5
11A
330
118
100
AcDbEntity
  8
0
100
AcDbBlockEnd
  0
BLOCK
  5
129
330
128
100
AcDbEntity
  8
0
100
AcDbBlockBegin
  2
*D11
 70
1
 10
0.0
 20
0.0
 30
0.0
  3
*D11
  1

  0
LINE
  5
12B
330
128
100
AcDbEntity
  8
0
100
AcDbLine
 10
47.25
 20
-3.675
 30
0.0
 11
47.8
 21
-3.675
 31
0.0
  0
LINE
  5
12C
330
128
100
AcDbEntity
  8
0
100
AcDbLine
 10
47.25
 20
-4.725
 30
0.0
 11
47.8
 21
-4.725
 31
0.0
  0
INSERT
  5
12D
330
128
100
AcDbEntity
  8
COTAS
100
AcDbBlockReference
  2
_CLOSEDFILLED
 10
47.8
 20
-3.675
 30
0.0
 41
0.09
 42
0.09
 50
270.0
  0
INSERT
  5
12F
330
128
100
AcDbEntity
  8
COTAS
100
AcDbBlockReference
  2
_CLOSEDFILLED
 10
47.8
 20
-4.725
 30
0.0
 41
0.09
 42
0.09
 50
90.0
  0
LINE
  5
131
330
128
100
AcDbEntity
  8
0
100
AcDbLine
 10
47.8
 20
-3.585
 30
0.0
 11
47.8
 21
-3.9399999999999995
 31
0.0
  0
LINE
  5
132
330
128
100
AcDbEntity
  8
0
100
AcDbLine
 10
47.8
 20
-4.459999999999999
 30
0.0
 11
47.8
 21
-4.8149999999999995
 31
0.0
  0
MTEXT
  5
133
330
128
100
AcDbEntity
  8
COTAS
100
AcDbMText
 10
47.8
 20
-4.199999999999999
 30
0.0
 40
0.13
 71
5
  1
1,05
 50
90.0
  0
POINT
  5
134
330
128
100
AcDbEntity
  8
Defpoints
100
AcDbPoint
 10
47.8
 20
-3.675
 30
0.0
  0
POINT
  5
135
330
128
100
AcDbEntity
  8
Defpoints
100
AcDbPoint
 10
47.25
 20
-3.675
 30
0.0
  0
POINT
  5
136
330
128
100
AcDbEntity
  8
Defpoints
100
AcDbPoint
 10
47.25
 20
-4.725
 30
0.0
  0
ENDBLK
  5
12A
330
128
100
AcDbEntity
  8
0
100
AcDbBlockEnd
  0
BLOCK
  5
139
330
138
100
AcDbEntity
  8
0
100
AcDbBlockBegin
  2
*D12
 70
1
 10
0.0
 20
0.0
 30
0.0
  3
*D12
  1

  0
LINE
  5
13B
330
138
100
AcDbEntity
  8
0
100
AcDbLine
 10
47.25
 20
-6.625
 30
0.0
 11
47.8
 21
-6.625
 31
0.0
  0
LINE
  5
13C
330
138
100
AcDbEntity
  8
0
100
AcDbLine
 10
47.25
 20
-7.675
 30
0.0
 11
47.8
 21
-7.675
 31
0.0
  0
INSERT
  5
13D
330
138
100
AcDbEntity
  8
COTAS
100
AcDbBlockReference
  2
_CLOSEDFILLED
 10
47.8
 20
-6.625
 30
0.0
 41
0.09
 42
0.09
 50
270.0
  0
INSERT
  5
13F
330
138
100
AcDbEntity
  8
COTAS
100
AcDbBlockReference
  2
_CLOSEDFILLED
 10
47.8
 20
-7.675
 30
0.0
 41
0.09
 42
0.09
 50
90.0
  0
LINE
  5
141
330
138
100
AcDbEntity
  8
0
100
AcDbLine
 10
47.8
 20
-6.535
 30
0.0
 11
47.8
 21
-6.890000000000001
 31
0.0
  0
LINE
  5
142
330
138
100
AcDbEntity
  8
0
100
AcDbLine
 10
47.8
 20
-7.41
 30
0.0
 11
47.8
 21
-7.765
 31
0.0
  0
MTEXT
  5
143
330
138
100
AcDbEntity
  8
COTAS
100
AcDbMText
 10
47.8
 20
-7.15
 30
0.0
 40
0.13
 71
5
  1
1,05
 50
90.0
  0
POINT
  5
144
330
138
100
AcDbEntity
  8
Defpoints
100
AcDbPoint
 10
47.8
 20
-6.625
 30
0.0
  0
POINT
  5
145
330
138
100
AcDbEntity
  8
Defpoints
100
AcDbPoint
 10
47.25
 20
-6.625
 30
0.0
  0
POINT
  5
146
330
138
100
AcDbEntity
  8
Defpoints
100
AcDbPoint
 10
47.25
 20
-7.675
 30
0.0
  0
ENDBLK
  5
13A
330
138
100
AcDbEntity
  8
0
100
AcDbBlockEnd
  0
ENDSEC
  0
SECTION
  2
ENTITIES
  0
LWPOLYLINE
  5
35
330
17
100
AcDbEntity
  8
VISTA
100
AcDbPolyline
 90
4
 70
1
 10
0.0
 20
0.0
 10
22.0
 20
0.0
 10
22.0
 20
-20.0
 10
0.0
 20
-20.0
  0
LWPOLYLINE
  5
36
330
17
100
AcDbEntity
  8
VISTA
100
AcDbPolyline
 90
4
 70
1
 10
14.0
 20
0.0
 10
22.0
 20
0.0
 10
22.0
 20
-12.0
 10
14.0
 20
-12.0
  0
LWPOLYLINE
  5
37
330
17
100
AcDbEntity
  8
VISTA
100
AcDbPolyline
 90
6
 70
1
 10
13.0
 20
-5.0
 10
14.0
 20
-5.0
 10
14.0
 20
-12.0
 10
22.0
 20
-12.0
 10
22.0
 20
-13.0
 10
13.0
 20
-13.0
  0
LWPOLYLINE
  5
38
330
17
100
AcDbEntity
  8
VISTA
100
AcDbPolyline
 90
4
 70
1
 10
12.0
 20
-14.0
 10
21.0
 20
-14.0
 10
21.0
 20
-19.0
 10
12.0
 20
-19.0
  0
LWPOLYLINE
  5
39
330
17
100
AcDbEntity
  8
VISTA
100
AcDbPolyline
 90
4
 70
1
 10
13.0
 20
-15.0
 10
20.0
 20
-15.0
 10
20.0
 20
-18.0
 10
13.0
 20
-18.0
  0
LWPOLYLINE
  5
3A
330
17
100
AcDbEntity
  8
VISTA
100
AcDbPolyline
 90
4
 70
1
 10
1.9000000953674316
 20
-4.690000057220459
 10
7.400000095367432
 20
-4.690000057220459
 10
7.400000095367432
 20
-5.410000324249268
 10
1.9000000953674316
 20
-5.410000324249268
  0
LWPOLYLINE
  5
3B
330
17
100
AcDbEntity
  8
VISTA
100
AcDbPolyline
 90
4
 70
1
 10
4.289999961853027
 20
-4.900000095367432
 10
5.010000228881836
 20
-4.900000095367432
 10
5.010000228881836
 20
-8.199999809265137
 10
4.289999961853027
 20
-8.199999809265137
  0
LWPOLYLINE
  5
3C
330
17
100
AcDbEntity
  8
VISTA
100
AcDbPolyline
 90
4
 70
1
 10
2.0500001907348633
 20
-3.674999713897705
 10
4.25
 20
-3.674999713897705
 10
4.25
 20
-4.724999904632568
 10
2.0500001907348633
 20
-4.724999904632568
  0
LWPOLYLINE
  5
3D
330
17
100
AcDbEntity
  8
VISTA
100
AcDbPolyline
 90
4
 70
1
 10
5.050000190734863
 20
-3.674999713897705
 10
7.25
 20
-3.674999713897705
 10
7.25
 20
-4.724999904632568
 10
5.050000190734863
 20
-4.724999904632568
  0
LWPOLYLINE
  5
3E
330
17
100
AcDbEntity
  8
VISTA
100
AcDbPolyline
 90
4
 70
1
 10
2.0500001907348633
 20
-6.625
 10
4.25
 20
-6.625
 10
4.25
 20
-7.675000190734863
 10
2.0500001907348633
 20
-7.675000190734863
  0
LWPOLYLINE
  5
3F
330
17
100
AcDbEntity
  8
VISTA
100
AcDbPolyline
 90
4
 70
1
 10
5.050000190734863
 20
-6.625
 10
7.25
 20
-6.625
 10
7.25
 20
-7.675000190734863
 10
5.050000190734863
 20
-7.675000190734863
  0
LWPOLYLINE
  5
40
330
17
100
AcDbEntity
  8
VISTA
100
AcDbPolyline
 90
4
 70
1
 10
7.324999809265137
 20
-6.6595001220703125
 10
8.574999809265137
 20
-6.6595001220703125
 10
8.574999809265137
 20
-6.760000228881836
 10
7.324999809265137
 20
-6.760000228881836
  0
LWPOLYLINE
  5
41
330
17
100
AcDbEntity
  8
VISTA
100
AcDbPolyline
 90
4
 70
1
 10
7.324999809265137
 20
-6.552999973297119
 10
8.574999809265137
 20
-6.552999973297119
 10
8.574999809265137
 20
-6.653500080108643
 10
7.324999809265137
 20
-6.653500080108643
  0
LWPOLYLINE
  5
42
330
17
100
AcDbEntity
  8
VISTA
100
AcDbPolyline
 90
4
 70
1
 10
7.324999809265137
 20
-6.446500301361084
 10
8.574999809265137
 20
-6.446500301361084
 10
8.574999809265137
 20
-6.547000408172607
 10
7.324999809265137
 20
-6.547000408172607
  0
LWPOLYLINE
  5
43
330
17
100
AcDbEntity
  8
VISTA
100
AcDbPolyline
 90
4
 70
1
 10
7.324999809265137
 20
-6.340000152587891
 10
8.574999809265137
 20
-6.340000152587891
 10
8.574999809265137
 20
-6.440500259399414
 10
7.324999809265137
 20
-6.440500259399414
  0
LWPOLYLINE
  5
44
330
17
100
AcDbEntity
  8
VISTA
100
AcDbPolyline
 90
4
 70
1
 10
7.399999618530273
 20
-6.635000228881836
 10
7.449999809265137
 20
-6.635000228881836
 10
7.449999809265137
 20
-6.685000419616699
 10
7.399999618530273
 20
-6.685000419616699
  0
LWPOLYLINE
  5
45
330
17
100
AcDbEntity
  8
VISTA
100
AcDbPolyline
 90
4
 70
1
 10
7.399999618530273
 20
-6.635000228881836
 10
7.449999809265137
 20
-6.635000228881836
 10
7.449999809265137
 20
-6.685000419616699
 10
7.399999618530273
 20
-6.685000419616699
  0
LWPOLYLINE
  5
46
330
17
100
AcDbEntity
  8
VISTA
100
AcDbPolyline
 90
4
 70
1
 10
7.399999618530273
 20
-6.414999961853027
 10
7.449999809265137
 20
-6.414999961853027
 10
7.449999809265137
 20
-6.465000152587891
 10
7.399999618530273
 20
-6.465000152587891
  0
LWPOLYLINE
  5
47
330
17
100
AcDbEntity
  8
VISTA
100
AcDbPolyline
 90
4
 70
1
 10
7.399999618530273
 20
-6.414999961853027
 10
7.449999809265137
 20
-6.414999961853027
 10
7.449999809265137
 20
-6.465000152587891
 10
7.399999618530273
 20
-6.465000152587891
  0
LWPOLYLINE
  5
48
330
17
100
AcDbEntity
  8
VISTA
100
AcDbPolyline
 90
4
 70
1
 10
8.449999809265137
 20
-6.635000228881836
 10
8.499999046325684
 20
-6.635000228881836
 10
8.499999046325684
 20
-6.685000419616699
 10
8.449999809265137
 20
-6.685000419616699
  0
LWPOLYLINE
  5
49
330
17
100
AcDbEntity
  8
VISTA
100
AcDbPolyline
 90
4
 70
1
 10
8.449999809265137
 20
-6.635000228881836
 10
8.499999046325684
 20
-6.635000228881836
 10
8.499999046325684
 20
-6.685000419616699
 10
8.449999809265137
 20
-6.685000419616699
  0
LWPOLYLINE
  5
4A
330
17
100
AcDbEntity
  8
VISTA
100
AcDbPolyline
 90
4
 70
1
 10
8.449999809265137
 20
-6.414999961853027
 10
8.499999046325684
 20
-6.414999961853027
 10
8.499999046325684
 20
-6.465000152587891
 10
8.449999809265137
 20
-6.465000152587891
  0
LWPOLYLINE
  5
4B
330
17
100
AcDbEntity
  8
VISTA
100
AcDbPolyline
 90
4
 70
1
 10
8.449999809265137
 20
-6.414999961853027
 10
8.499999046325684
 20
-6.414999961853027
 10
8.499999046325684
 20
-6.465000152587891
 10
8.449999809265137
 20
-6.465000152587891
  0
LWPOLYLINE
  5
4C
330
17
100
AcDbEntity
  8
VISTA
100
AcDbPolyline
 90
4
 70
1
 10
7.449999809265137
 20
-6.647500514984131
 10
8.449999809265137
 20
-6.647500514984131
 10
8.449999809265137
 20
-6.672500133514404
 10
7.449999809265137
 20
-6.672500133514404
  0
LWPOLYLINE
  5
4D
330
17
100
AcDbEntity
  8
VISTA
100
AcDbPolyline
 90
4
 70
1
 10
7.412499904632568
 20
-6.465000152587891
 10
7.437499523162842
 20
-6.465000152587891
 10
7.437499523162842
 20
-6.635000228881836
 10
7.412499904632568
 20
-6.635000228881836
  0
LWPOLYLINE
  5
4E
330
17
100
AcDbEntity
  8
VISTA
100
AcDbPolyline
 90
4
 70
1
 10
7.449999809265137
 20
-6.427500247955322
 10
8.449999809265137
 20
-6.427500247955322
 10
8.449999809265137
 20
-6.452499866485596
 10
7.449999809265137
 20
-6.452499866485596
  0
LWPOLYLINE
  5
4F
330
17
100
AcDbEntity
  8
VISTA
100
AcDbPolyline
 90
4
 70
1
 10
8.462499618530273
 20
-6.465000152587891
 10
8.487499237060547
 20
-6.465000152587891
 10
8.487499237060547
 20
-6.635000228881836
 10
8.462499618530273
 20
-6.635000228881836
  0
LWPOLYLINE
  5
50
330
17
100
AcDbEntity
  8
VISTA
100
AcDbPolyline
 90
4
 70
1
 10
7.929999828338623
 20
-6.414999961853027
 10
7.96999979019165
 20
-6.414999961853027
 10
7.96999979019165
 20
-6.685000419616699
 10
7.929999828338623
 20
-6.685000419616699
  0
LWPOLYLINE
  5
51
330
17
100
AcDbEntity
  8
VISTA
100
AcDbPolyline
 90
4
 70
1
 10
7.324999809265137
 20
-6.560000419616699
 10
7.524999618530273
 20
-6.560000419616699
 10
7.524999618530273
 20
-6.760000228881836
 10
7.324999809265137
 20
-6.760000228881836
  0
LWPOLYLINE
  5
52
330
17
100
AcDbEntity
  8
VISTA
100
AcDbPolyline
 90
4
 70
1
 10
7.324999809265137
 20
-6.560000419616699
 10
7.524999618530273
 20
-6.560000419616699
 10
7.524999618530273
 20
-6.760000228881836
 10
7.324999809265137
 20
-6.760000228881836
  0
LWPOLYLINE
  5
53
330
17
100
AcDbEntity
  8
VISTA
100
AcDbPolyline
 90
4
 70
1
 10
7.324999809265137
 20
-6.340000152587891
 10
7.524999618530273
 20
-6.340000152587891
 10
7.524999618530273
 20
-6.539999961853027
 10
7.324999809265137
 20
-6.539999961853027
  0
LWPOLYLINE
  5
54
330
17
100
AcDbEntity
  8
VISTA
100
AcDbPolyline
 90
4
 70
1
 10
7.324999809265137
 20
-6.340000152587891
 10
7.524999618530273
 20
-6.340000152587891
 10
7.524999618530273
 20
-6.539999961853027
 10
7.324999809265137
 20
-6.539999961853027
  0
LWPOLYLINE
  5
55
330
17
100
AcDbEntity
  8
VISTA
100
AcDbPolyline
 90
4
 70
1
 10
8.374999046325684
 20
-6.560000419616699
 10
8.574999809265137
 20
-6.560000419616699
 10
8.574999809265137
 20
-6.760000228881836
 10
8.374999046325684
 20
-6.760000228881836
  0
LWPOLYLINE
  5
56
330
17
100
AcDbEntity
  8
VISTA
100
AcDbPolyline
 90
4
 70
1
 10
8.374999046325684
 20
-6.560000419616699
 10
8.574999809265137
 20
-6.560000419616699
 10
8.574999809265137
 20
-6.760000228881836
 10
8.374999046325684
 20
-6.760000228881836
  0
LWPOLYLINE
  5
57
330
17
100
AcDbEntity
  8
VISTA
100
AcDbPolyline
 90
4
 70
1
 10
8.374999046325684
 20
-6.340000152587891
 10
8.574999809265137
 20
-6.340000152587891
 10
8.574999809265137
 20
-6.539999961853027
 10
8.374999046325684
 20
-6.539999961853027
  0
LWPOLYLINE
  5
58
330
17
100
AcDbEntity
  8
VISTA
100
AcDbPolyline
 90
4
 70
1
 10
8.374999046325684
 20
-6.340000152587891
 10
8.574999809265137
 20
-6.340000152587891
 10
8.574999809265137
 20
-6.539999961853027
 10
8.374999046325684
 20
-6.539999961853027
  0
LWPOLYLINE
  5
59
330
17
100
AcDbEntity
  8
VISTA
100
AcDbPolyline
 90
40
 70
1
 10
3.1
 20
-11.7
 10
3.085755288901704
 20
-11.876452408943535
 10
3.0433900861418604
 20
-12.048334793181619
 10
2.974001628218531
 20
-12.211195489248144
 10
2.8793870397438512
 20
-12.360816490661776
 10
2.7619967888605594
 20
-12.493322692078195
 10
2.6248712214042715
 20
-12.605282252483022
 10
2.4715618175433596
 20
-12.69379547807142
 10
2.306039210308098
 20
-12.756569922794508
 10
2.1325903482808557
 20
-12.791979761507859
 10
1.9557074658796436
 20
-12.799107897988726
 10
1.7799717368463512
 20
-12.777769717246494
 10
1.6099346242532109
 20
-12.728517866953956
 10
1.4500000000000002
 20
-12.652627944162882
 10
1.304310086845085
 20
-12.55206545801042
 10
1.1766381770117889
 20
-12.429434924064875
 10
1.070290905901826
 20
-12.287912408740581
 10
0.9880226119752933
 20
-12.131163270846082
 10
0.9319640008313428
 20
-11.963247230716313
 10
0.9035669610523689
 20
-11.788513225588398
 10
0.9035669610523689
 20
-11.6114867744116
 10
0.9319640008313426
 20
-11.436752769283686
 10
0.9880226119752933
 20
-11.268836729153916
 10
1.0702909059018255
 20
-11.112087591259419
 10
1.1766381770117884
 20
-10.970565075935125
 10
1.3043100868450845
 20
-10.847934541989579
 10
1.4499999999999995
 20
-10.747372055837117
 10
1.6099346242532104
 20
-10.671482133046043
 10
1.779971736846351
 20
-10.622230282753504
 10
1.9557074658796434
 20
-10.600892102011272
 10
2.1325903482808544
 20
-10.60802023849214
 10
2.3060392103080973
 20
-10.64343007720549
 10
2.471561817543359
 20
-10.706204521928578
 10
2.624871221404271
 20
-10.794717747516977
 10
2.761996788860559
 20
-10.906677307921804
 10
2.879387039743851
 20
-11.039183509338221
 10
2.974001628218531
 20
-11.188804510751853
 10
3.04339008614186
 20
-11.351665206818378
 10
3.085755288901704
 20
-11.523547591056463
 10
3.1
 20
-11.7
  0
LWPOLYLINE
  5
5A
330
17
100
AcDbEntity
  8
VISTA
100
AcDbPolyline
 90
40
 70
1
 10
5.4
 20
-16.8
 10
5.385755288901704
 20
-16.976452408943537
 10
5.34339008614186
 20
-17.148334793181622
 10
5.274001628218531
 20
-17.311195489248146
 10
5.179387039743851
 20
-17.460816490661777
 10
5.06199678886056
 20
-17.593322692078196
 10
4.924871221404271
 20
-17.705282252483023
 10
4.771561817543359
 20
-17.79379547807142
 10
4.606039210308098
 20
-17.85656992279451
 10
4.432590348280855
 20
-17.89197976150786
 10
4.255707465879643
 20
-17.899107897988728
 10
4.079971736846351
 20
-17.877769717246494
 10
3.9099346242532107
 20
-17.828517866953955
 10
3.75
 20
-17.75262794416288
 10
3.604310086845085
 20
-17.65206545801042
 10
3.4766381770117887
 20
-17.529434924064876
 10
3.370290905901826
 20
-17.387912408740583
 10
3.2880226119752933
 20
-17.231163270846082
 10
3.2319640008313426
 20
-17.063247230716314
 10
3.2035669610523687
 20
-16.8885132255884
 10
3.2035669610523687
 20
-16.711486774411604
 10
3.2319640008313426
 20
-16.536752769283687
 10
3.2880226119752933
 20
-16.36883672915392
 10
3.3702909059018253
 20
-16.21208759125942
 10
3.4766381770117882
 20
-16.070565075935125
 10
3.6043100868450844
 20
-15.94793454198958
 10
3.749999999999999
 20
-15.847372055837118
 10
3.9099346242532103
 20
-15.771482133046044
 10
4.079971736846351
 20
-15.722230282753506
 10
4.255707465879643
 20
-15.700892102011274
 10
4.432590348280854
 20
-15.708020238492141
 10
4.606039210308097
 20
-15.743430077205492
 10
4.771561817543359
 20
-15.80620452192858
 10
4.924871221404271
 20
-15.894717747516978
 10
5.061996788860559
 20
-16.006677307921805
 10
5.179387039743851
 20
-16.139183509338224
 10
5.274001628218531
 20
-16.288804510751856
 10
5.343390086141859
 20
-16.45166520681838
 10
5.385755288901704
 20
-16.623547591056465
 10
5.4
 20
-16.8
  0
LWPOLYLINE
  5
5B
330
17
100
AcDbEntity
  8
VISTA
100
AcDbPolyline
 90
40
 70
1
 10
9.299999999999999
 20
-13.55
 10
9.285755288901704
 20
-13.726452408943537
 10
9.24339008614186
 20
-13.89833479318162
 10
9.17400162821853
 20
-14.061195489248146
 10
9.079387039743851
 20
-14.210816490661777
 10
8.961996788860558
 20
-14.343322692078196
 10
8.82487122140427
 20
-14.455282252483023
 10
8.67156181754336
 20
-14.543795478071422
 10
8.506039210308098
 20
-14.60656992279451
 10
8.332590348280855
 20
-14.64197976150786
 10
8.155707465879642
 20
-14.649107897988728
 10
7.97997173684635
 20
-14.627769717246496
 10
7.80993462425321
 20
-14.578517866953957
 10
7.6499999999999995
 20
-14.502627944162883
 10
7.504310086845084
 20
-14.402065458010421
 10
7.376638177011788
 20
-14.279434924064876
 10
7.270290905901825
 20
-14.137912408740583
 10
7.188022611975293
 20
-13.981163270846084
 10
7.131964000831342
 20
-13.813247230716314
 10
7.103566961052368
 20
-13.6385132255884
 10
7.103566961052368
 20
-13.461486774411602
 10
7.131964000831342
 20
-13.286752769283687
 10
7.188022611975293
 20
-13.118836729153918
 10
7.270290905901825
 20
-12.96208759125942
 10
7.376638177011788
 20
-12.820565075935127
 10
7.504310086845083
 20
-12.69793454198958
 10
7.649999999999999
 20
-12.597372055837118
 10
7.80993462425321
 20
-12.521482133046044
 10
7.97997173684635
 20
-12.472230282753506
 10
8.155707465879642
 20
-12.450892102011274
 10
8.332590348280855
 20
-12.458020238492141
 10
8.506039210308096
 20
-12.493430077205492
 10
8.671561817543358
 20
-12.55620452192858
 10
8.82487122140427
 20
-12.644717747516978
 10
8.961996788860558
 20
-12.756677307921805
 10
9.07938703974385
 20
-12.889183509338222
 10
9.17400162821853
 20
-13.038804510751854
 10
9.24339008614186
 20
-13.20166520681838
 10
9.285755288901704
 20
-13.373547591056465
 10
9.299999999999999
 20
-13.55
  0
LWPOLYLINE
  5
5C
330
17
100
AcDbEntity
  8
VISTA
100
AcDbPolyline
 90
40
 70
1
 10
10.95
 20
-17.85
 10
10.935755288901703
 20
-18.026452408943538
 10
10.89339008614186
 20
-18.198334793181623
 10
10.82400162821853
 20
-18.361195489248146
 10
10.729387039743852
 20
-18.510816490661778
 10
10.611996788860559
 20
-18.643322692078197
 10
10.474871221404271
 20
-18.755282252483024
 10
10.32156181754336
 20
-18.84379547807142
 10
10.156039210308098
 20
-18.90656992279451
 10
9.982590348280855
 20
-18.94197976150786
 10
9.805707465879642
 20
-18.94910789798873
 10
9.62997173684635
 20
-18.927769717246495
 10
9.459934624253211
 20
-18.878517866953956
 10
9.3
 20
-18.802627944162886
 10
9.154310086845085
 20
-18.70206545801042
 10
9.026638177011788
 20
-18.579434924064877
 10
8.920290905901826
 20
-18.437912408740583
 10
8.838022611975292
 20
-18.281163270846083
 10
8.781964000831342
 20
-18.113247230716315
 10
8.753566961052368
 20
-17.9385132255884
 10
8.753566961052368
 20
-17.761486774411605
 10
8.781964000831342
 20
-17.586752769283688
 10
8.838022611975292
 20
-17.41883672915392
 10
8.920290905901824
 20
-17.26208759125942
 10
9.026638177011788
 20
-17.120565075935126
 10
9.154310086845085
 20
-16.997934541989583
 10
9.299999999999999
 20
-16.89737205583712
 10
9.45993462425321
 20
-16.821482133046047
 10
9.62997173684635
 20
-16.772230282753508
 10
9.805707465879642
 20
-16.750892102011274
 10
9.982590348280855
 20
-16.758020238492144
 10
10.156039210308098
 20
-16.793430077205493
 10
10.321561817543358
 20
-16.856204521928582
 10
10.474871221404271
 20
-16.94471774751698
 10
10.611996788860559
 20
-17.056677307921806
 10
10.72938703974385
 20
-17.189183509338225
 10
10.82400162821853
 20
-17.338804510751856
 10
10.89339008614186
 20
-17.50166520681838
 10
10.935755288901703
 20
-17.673547591056465
 10
10.95
 20
-17.85
  0
LWPOLYLINE
  5
5D
330
17
100
AcDbEntity
  8
VISTA
100
AcDbPolyline
 90
40
 70
1
 10
10.299999999999999
 20
-4.4
 10
10.285755288901704
 20
-4.5764524089435366
 10
10.24339008614186
 20
-4.74833479318162
 10
10.17400162821853
 20
-4.911195489248145
 10
10.079387039743851
 20
-5.060816490661777
 10
9.961996788860558
 20
-5.193322692078196
 10
9.82487122140427
 20
-5.305282252483022
 10
9.67156181754336
 20
-5.393795478071421
 10
9.506039210308098
 20
-5.45656992279451
 10
9.332590348280855
 20
-5.49197976150786
 10
9.155707465879642
 20
-5.499107897988727
 10
8.97997173684635
 20
-5.477769717246495
 10
8.809934624253211
 20
-5.428517866953957
 10
8.649999999999999
 20
-5.352627944162883
 10
8.504310086845084
 20
-5.252065458010421
 10
8.376638177011788
 20
-5.129434924064875
 10
8.270290905901826
 20
-4.9879124087405815
 10
8.188022611975292
 20
-4.831163270846083
 10
8.131964000831342
 20
-4.663247230716315
 10
8.103566961052369
 20
-4.488513225588399
 10
8.103566961052369
 20
-4.311486774411603
 10
8.131964000831342
 20
-4.136752769283687
 10
8.188022611975292
 20
-3.9688367291539177
 10
8.270290905901824
 20
-3.8120875912594196
 10
8.376638177011788
 20
-3.6705650759351256
 10
8.504310086845084
 20
-3.547934541989581
 10
8.649999999999999
 20
-3.4473720558371177
 10
8.80993462425321
 20
-3.371482133046044
 10
8.97997173684635
 20
-3.3222302827535057
 10
9.155707465879642
 20
-3.300892102011274
 10
9.332590348280855
 20
-3.3080202384921407
 10
9.506039210308096
 20
-3.3434300772054906
 10
9.671561817543358
 20
-3.4062045219285797
 10
9.82487122140427
 20
-3.494717747516978
 10
9.961996788860558
 20
-3.6066773079218044
 10
10.07938703974385
 20
-3.739183509338223
 10
10.17400162821853
 20
-3.888804510751854
 10
10.24339008614186
 20
-4.05166520681838
 10
10.285755288901704
 20
-4.223547591056463
 10
10.299999999999999
 20
-4.4
  0
LWPOLYLINE
  5
5E
330
17
100
AcDbEntity
  8
VISTA
100
AcDbPolyline
 90
40
 70
1
 10
3.05
 20
-17.2
 10
3.0357552889017043
 20
-17.376452408943535
 10
2.99339008614186
 20
-17.54833479318162
 10
2.924001628218531
 20
-17.711195489248144
 10
2.8293870397438514
 20
-17.860816490661776
 10
2.7119967888605596
 20
-17.993322692078195
 10
2.5748712214042717
 20
-18.105282252483022
 10
2.4215618175433598
 20
-18.19379547807142
 10
2.256039210308098
 20
-18.256569922794508
 10
2.0825903482808554
 20
-18.291979761507857
 10
1.9057074658796436
 20
-18.299107897988726
 10
1.7299717368463512
 20
-18.277769717246493
 10
1.559934624253211
 20
-18.228517866953954
 10
1.4000000000000001
 20
-18.15262794416288
 10
1.2543100868450852
 20
-18.052065458010418
 10
1.126638177011789
 20
-17.929434924064875
 10
1.0202909059018257
 20
-17.78791240874058
 10
0.9380226119752932
 20
-17.63116327084608
 10
0.8819640008313427
 20
-17.463247230716313
 10
0.8535669610523688
 20
-17.2885132255884
 10
0.8535669610523688
 20
-17.111486774411603
 10
0.8819640008313425
 20
-16.936752769283686
 10
0.9380226119752932
 20
-16.768836729153918
 10
1.0202909059018253
 20
-16.612087591259417
 10
1.1266381770117886
 20
-16.470565075935124
 10
1.2543100868450843
 20
-16.34793454198958
 10
1.3999999999999995
 20
-16.24737205583712
 10
1.5599346242532104
 20
-16.171482133046045
 10
1.729971736846351
 20
-16.122230282753506
 10
1.9057074658796433
 20
-16.100892102011272
 10
2.0825903482808545
 20
-16.10802023849214
 10
2.2560392103080975
 20
-16.14343007720549
 10
2.4215618175433593
 20
-16.20620452192858
 10
2.5748712214042713
 20
-16.294717747516977
 10
2.711996788860559
 20
-16.406677307921804
 10
2.8293870397438505
 20
-16.539183509338223
 10
2.9240016282185306
 20
-16.688804510751854
 10
2.9933900861418596
 20
-16.851665206818378
 10
3.0357552889017043
 20
-17.023547591056463
 10
3.05
 20
-17.2
  0
TEXT
  5
5F
330
17
100
AcDbEntity
  8
TEXTOS
100
AcDbText
 10
11.0
 20
0.85
 30
0.0
 40
0.33999999999999997
  1
CALLE CEDRO MISIONERO
100
AcDbText
  0
TEXT
  5
60
330
17
100
AcDbEntity
  8
TEXTOS
100
AcDbText
 10
18.0
 20
-2.5
 30
0.0
 40
0.3
  1
CASA 8,00 x 12,00
100
AcDbText
  0
TEXT
  5
61
330
17
100
AcDbEntity
  8
TEXTOS
100
AcDbText
 10
18.0
 20
-4.0
 30
0.0
 40
0.27
  1
PB + PA
100
AcDbText
  0
TEXT
  5
62
330
17
100
AcDbEntity
  8
TEXTOS
100
AcDbText
 10
16.5
 20
-16.5
 30
0.0
 40
0.27
  1
PILETA 7,00 x 3,00
100
AcDbText
  0
TEXT
  5
63
330
17
100
AcDbEntity
  8
TEXTOS
100
AcDbText
 10
4.7
 20
-8.5
 30
0.0
 40
0.27
  1
HUERTA
100
AcDbText
  0
DIMENSION
  5
64
330
17
100
AcDbEntity
  8
COTAS
100
AcDbDimension
280
0
  2
*D1
  3
Standard
 10
0.0
 20
1.65
 30
0.0
 11
11.0
 21
1.65
 31
0.0
 70
32
 71
5
  1
<>
100
AcDbAlignedDimension
 13
0.0
 23
0.0
 33
0.0
 14
22.0
 24
0.0
 34
0.0
 50
0.0
100
AcDbRotatedDimension
1001
ACAD
1000
DSTYLE
1002
{
1070
140
1040
0.13
1070
41
1040
0.09
1002
}
  0
DIMENSION
  5
78
330
17
100
AcDbEntity
  8
COTAS
100
AcDbDimension
280
0
  2
*D2
  3
Standard
 10
23.0
 20
0.0
 30
0.0
 11
23.0
 21
-10.0
 31
0.0
 70
32
 71
5
  1
<>
100
AcDbAlignedDimension
 13
22.0
 23
0.0
 33
0.0
 14
22.0
 24
-20.0
 34
0.0
 50
90.0
100
AcDbRotatedDimension
1001
ACAD
1000
DSTYLE
1002
{
1070
140
1040
0.13
1070
41
1040
0.09
1002
}
  0
DIMENSION
  5
88
330
17
100
AcDbEntity
  8
COTAS
100
AcDbDimension
280
0
  2
*D3
  3
Standard
 10
0.0
 20
-20.75
 30
0.0
 11
7.0
 21
-20.75
 31
0.0
 70
32
 71
5
  1
<>
100
AcDbAlignedDimension
 13
0.0
 23
-20.0
 33
0.0
 14
14.0
 24
-20.0
 34
0.0
 50
0.0
100
AcDbRotatedDimension
1001
ACAD
1000
DSTYLE
1002
{
1070
140
1040
0.13
1070
41
1040
0.09
1002
}
  0
DIMENSION
  5
98
330
17
100
AcDbEntity
  8
COTAS
100
AcDbDimension
280
0
  2
*D4
  3
Standard
 10
14.0
 20
-20.75
 30
0.0
 11
18.0
 21
-20.75
 31
0.0
 70
32
 71
5
  1
<>
100
AcDbAlignedDimension
 13
14.0
 23
-20.0
 33
0.0
 14
22.0
 24
-20.0
 34
0.0
 50
0.0
100
AcDbRotatedDimension
1001
ACAD
1000
DSTYLE
1002
{
1070
140
1040
0.13
1070
41
1040
0.09
1002
}
  0
DIMENSION
  5
A8
330
17
100
AcDbEntity
  8
COTAS
100
AcDbDimension
280
0
  2
*D5
  3
Standard
 10
22.5
 20
-12.0
 30
0.0
 11
22.5
 21
-13.5
 31
0.0
 70
32
 71
5
  1
<>
100
AcDbAlignedDimension
 13
22.0
 23
-12.0
 33
0.0
 14
22.0
 24
-15.0
 34
0.0
 50
90.0
100
AcDbRotatedDimension
1001
ACAD
1000
DSTYLE
1002
{
1070
140
1040
0.13
1070
41
1040
0.09
1002
}
  0
DIMENSION
  5
B8
330
17
100
AcDbEntity
  8
COTAS
100
AcDbDimension
280
0
  2
*D6
  3
Standard
 10
22.5
 20
-18.0
 30
0.0
 11
22.5
 21
-19.0
 31
0.0
 70
32
 71
5
  1
<>
100
AcDbAlignedDimension
 13
22.0
 23
-18.0
 33
0.0
 14
22.0
 24
-20.0
 34
0.0
 50
90.0
100
AcDbRotatedDimension
1001
ACAD
1000
DSTYLE
1002
{
1070
140
1040
0.13
1070
41
1040
0.09
1002
}
  0
DIMENSION
  5
C8
330
17
100
AcDbEntity
  8
COTAS
100
AcDbDimension
280
0
  2
*D7
  3
Standard
 10
20.0
 20
-19.75
 30
0.0
 11
21.0
 21
-19.75
 31
0.0
 70
32
 71
5
  1
<>
100
AcDbAlignedDimension
 13
20.0
 23
-18.0
 33
0.0
 14
22.0
 24
-18.0
 34
0.0
 50
0.0
100
AcDbRotatedDimension
1001
ACAD
1000
DSTYLE
1002
{
1070
140
1040
0.13
1070
41
1040
0.09
1002
}
  0
DIMENSION
  5
D8
330
17
100
AcDbEntity
  8
COTAS
100
AcDbDimension
280
0
  2
*D8
  3
Standard
 10
11.0
 20
0.2
 30
0.0
 11
12.5
 21
0.2
 31
0.0
 70
32
 71
5
  1
<>
100
AcDbAlignedDimension
 13
11.0
 23
0.0
 33
0.0
 14
14.0
 24
0.0
 34
0.0
 50
0.0
100
AcDbRotatedDimension
1001
ACAD
1000
DSTYLE
1002
{
1070
140
1040
0.13
1070
41
1040
0.09
1002
}
  0
LWPOLYLINE
  5
E8
330
17
100
AcDbEntity
  8
VISTA
100
AcDbPolyline
 90
4
 70
1
 10
41.90000009536743
 20
-4.690000057220459
 10
47.40000009536743
 20
-4.690000057220459
 10
47.40000009536743
 20
-5.410000324249268
 10
41.90000009536743
 20
-5.410000324249268
  0
LWPOLYLINE
  5
E9
330
17
100
AcDbEntity
  8
VISTA
100
AcDbPolyline
 90
4
 70
1
 10
44.28999996185303
 20
-4.900000095367432
 10
45.010000228881836
 20
-4.900000095367432
 10
45.010000228881836
 20
-8.199999809265137
 10
44.28999996185303
 20
-8.199999809265137
  0
LWPOLYLINE
  5
EA
330
17
100
AcDbEntity
  8
VISTA
100
AcDbPolyline
 90
4
 70
1
 10
42.05000019073486
 20
-3.674999713897705
 10
44.25
 20
-3.674999713897705
 10
44.25
 20
-4.724999904632568
 10
42.05000019073486
 20
-4.724999904632568
  0
LWPOLYLINE
  5
EB
330
17
100
AcDbEntity
  8
VISTA
100
AcDbPolyline
 90
4
 70
1
 10
45.05000019073486
 20
-3.674999713897705
 10
47.25
 20
-3.674999713897705
 10
47.25
 20
-4.724999904632568
 10
45.05000019073486
 20
-4.724999904632568
  0
LWPOLYLINE
  5
EC
330
17
100
AcDbEntity
  8
VISTA
100
AcDbPolyline
 90
4
 70
1
 10
42.05000019073486
 20
-6.625
 10
44.25
 20
-6.625
 10
44.25
 20
-7.675000190734863
 10
42.05000019073486
 20
-7.675000190734863
  0
LWPOLYLINE
  5
ED
330
17
100
AcDbEntity
  8
VISTA
100
AcDbPolyline
 90
4
 70
1
 10
45.05000019073486
 20
-6.625
 10
47.25
 20
-6.625
 10
47.25
 20
-7.675000190734863
 10
45.05000019073486
 20
-7.675000190734863
  0
LWPOLYLINE
  5
EE
330
17
100
AcDbEntity
  8
VISTA
100
AcDbPolyline
 90
4
 70
1
 10
47.32499980926514
 20
-6.6595001220703125
 10
48.57499980926514
 20
-6.6595001220703125
 10
48.57499980926514
 20
-6.760000228881836
 10
47.32499980926514
 20
-6.760000228881836
  0
LWPOLYLINE
  5
EF
330
17
100
AcDbEntity
  8
VISTA
100
AcDbPolyline
 90
4
 70
1
 10
47.32499980926514
 20
-6.552999973297119
 10
48.57499980926514
 20
-6.552999973297119
 10
48.57499980926514
 20
-6.653500080108643
 10
47.32499980926514
 20
-6.653500080108643
  0
LWPOLYLINE
  5
F0
330
17
100
AcDbEntity
  8
VISTA
100
AcDbPolyline
 90
4
 70
1
 10
47.32499980926514
 20
-6.446500301361084
 10
48.57499980926514
 20
-6.446500301361084
 10
48.57499980926514
 20
-6.547000408172607
 10
47.32499980926514
 20
-6.547000408172607
  0
LWPOLYLINE
  5
F1
330
17
100
AcDbEntity
  8
VISTA
100
AcDbPolyline
 90
4
 70
1
 10
47.32499980926514
 20
-6.340000152587891
 10
48.57499980926514
 20
-6.340000152587891
 10
48.57499980926514
 20
-6.440500259399414
 10
47.32499980926514
 20
-6.440500259399414
  0
LWPOLYLINE
  5
F2
330
17
100
AcDbEntity
  8
VISTA
100
AcDbPolyline
 90
4
 70
1
 10
47.39999961853027
 20
-6.635000228881836
 10
47.44999980926514
 20
-6.635000228881836
 10
47.44999980926514
 20
-6.685000419616699
 10
47.39999961853027
 20
-6.685000419616699
  0
LWPOLYLINE
  5
F3
330
17
100
AcDbEntity
  8
VISTA
100
AcDbPolyline
 90
4
 70
1
 10
47.39999961853027
 20
-6.635000228881836
 10
47.44999980926514
 20
-6.635000228881836
 10
47.44999980926514
 20
-6.685000419616699
 10
47.39999961853027
 20
-6.685000419616699
  0
LWPOLYLINE
  5
F4
330
17
100
AcDbEntity
  8
VISTA
100
AcDbPolyline
 90
4
 70
1
 10
47.39999961853027
 20
-6.414999961853027
 10
47.44999980926514
 20
-6.414999961853027
 10
47.44999980926514
 20
-6.465000152587891
 10
47.39999961853027
 20
-6.465000152587891
  0
LWPOLYLINE
  5
F5
330
17
100
AcDbEntity
  8
VISTA
100
AcDbPolyline
 90
4
 70
1
 10
47.39999961853027
 20
-6.414999961853027
 10
47.44999980926514
 20
-6.414999961853027
 10
47.44999980926514
 20
-6.465000152587891
 10
47.39999961853027
 20
-6.465000152587891
  0
LWPOLYLINE
  5
F6
330
17
100
AcDbEntity
  8
VISTA
100
AcDbPolyline
 90
4
 70
1
 10
48.44999980926514
 20
-6.635000228881836
 10
48.499999046325684
 20
-6.635000228881836
 10
48.499999046325684
 20
-6.685000419616699
 10
48.44999980926514
 20
-6.685000419616699
  0
LWPOLYLINE
  5
F7
330
17
100
AcDbEntity
  8
VISTA
100
AcDbPolyline
 90
4
 70
1
 10
48.44999980926514
 20
-6.635000228881836
 10
48.499999046325684
 20
-6.635000228881836
 10
48.499999046325684
 20
-6.685000419616699
 10
48.44999980926514
 20
-6.685000419616699
  0
LWPOLYLINE
  5
F8
330
17
100
AcDbEntity
  8
VISTA
100
AcDbPolyline
 90
4
 70
1
 10
48.44999980926514
 20
-6.414999961853027
 10
48.499999046325684
 20
-6.414999961853027
 10
48.499999046325684
 20
-6.465000152587891
 10
48.44999980926514
 20
-6.465000152587891
  0
LWPOLYLINE
  5
F9
330
17
100
AcDbEntity
  8
VISTA
100
AcDbPolyline
 90
4
 70
1
 10
48.44999980926514
 20
-6.414999961853027
 10
48.499999046325684
 20
-6.414999961853027
 10
48.499999046325684
 20
-6.465000152587891
 10
48.44999980926514
 20
-6.465000152587891
  0
LWPOLYLINE
  5
FA
330
17
100
AcDbEntity
  8
VISTA
100
AcDbPolyline
 90
4
 70
1
 10
47.44999980926514
 20
-6.647500514984131
 10
48.44999980926514
 20
-6.647500514984131
 10
48.44999980926514
 20
-6.672500133514404
 10
47.44999980926514
 20
-6.672500133514404
  0
LWPOLYLINE
  5
FB
330
17
100
AcDbEntity
  8
VISTA
100
AcDbPolyline
 90
4
 70
1
 10
47.41249990463257
 20
-6.465000152587891
 10
47.43749952316284
 20
-6.465000152587891
 10
47.43749952316284
 20
-6.635000228881836
 10
47.41249990463257
 20
-6.635000228881836
  0
LWPOLYLINE
  5
FC
330
17
100
AcDbEntity
  8
VISTA
100
AcDbPolyline
 90
4
 70
1
 10
47.44999980926514
 20
-6.427500247955322
 10
48.44999980926514
 20
-6.427500247955322
 10
48.44999980926514
 20
-6.452499866485596
 10
47.44999980926514
 20
-6.452499866485596
  0
LWPOLYLINE
  5
FD
330
17
100
AcDbEntity
  8
VISTA
100
AcDbPolyline
 90
4
 70
1
 10
48.46249961853027
 20
-6.465000152587891
 10
48.48749923706055
 20
-6.465000152587891
 10
48.48749923706055
 20
-6.635000228881836
 10
48.46249961853027
 20
-6.635000228881836
  0
LWPOLYLINE
  5
FE
330
17
100
AcDbEntity
  8
VISTA
100
AcDbPolyline
 90
4
 70
1
 10
47.92999982833862
 20
-6.414999961853027
 10
47.96999979019165
 20
-6.414999961853027
 10
47.96999979019165
 20
-6.685000419616699
 10
47.92999982833862
 20
-6.685000419616699
  0
LWPOLYLINE
  5
FF
330
17
100
AcDbEntity
  8
VISTA
100
AcDbPolyline
 90
4
 70
1
 10
47.32499980926514
 20
-6.560000419616699
 10
47.52499961853027
 20
-6.560000419616699
 10
47.52499961853027
 20
-6.760000228881836
 10
47.32499980926514
 20
-6.760000228881836
  0
LWPOLYLINE
  5
100
330
17
100
AcDbEntity
  8
VISTA
100
AcDbPolyline
 90
4
 70
1
 10
47.32499980926514
 20
-6.560000419616699
 10
47.52499961853027
 20
-6.560000419616699
 10
47.52499961853027
 20
-6.760000228881836
 10
47.32499980926514
 20
-6.760000228881836
  0
LWPOLYLINE
  5
101
330
17
100
AcDbEntity
  8
VISTA
100
AcDbPolyline
 90
4
 70
1
 10
47.32499980926514
 20
-6.340000152587891
 10
47.52499961853027
 20
-6.340000152587891
 10
47.52499961853027
 20
-6.539999961853027
 10
47.32499980926514
 20
-6.539999961853027
  0
LWPOLYLINE
  5
102
330
17
100
AcDbEntity
  8
VISTA
100
AcDbPolyline
 90
4
 70
1
 10
47.32499980926514
 20
-6.340000152587891
 10
47.52499961853027
 20
-6.340000152587891
 10
47.52499961853027
 20
-6.539999961853027
 10
47.32499980926514
 20
-6.539999961853027
  0
LWPOLYLINE
  5
103
330
17
100
AcDbEntity
  8
VISTA
100
AcDbPolyline
 90
4
 70
1
 10
48.374999046325684
 20
-6.560000419616699
 10
48.57499980926514
 20
-6.560000419616699
 10
48.57499980926514
 20
-6.760000228881836
 10
48.374999046325684
 20
-6.760000228881836
  0
LWPOLYLINE
  5
104
330
17
100
AcDbEntity
  8
VISTA
100
AcDbPolyline
 90
4
 70
1
 10
48.374999046325684
 20
-6.560000419616699
 10
48.57499980926514
 20
-6.560000419616699
 10
48.57499980926514
 20
-6.760000228881836
 10
48.374999046325684
 20
-6.760000228881836
  0
LWPOLYLINE
  5
105
330
17
100
AcDbEntity
  8
VISTA
100
AcDbPolyline
 90
4
 70
1
 10
48.374999046325684
 20
-6.340000152587891
 10
48.57499980926514
 20
-6.340000152587891
 10
48.57499980926514
 20
-6.539999961853027
 10
48.374999046325684
 20
-6.539999961853027
  0
LWPOLYLINE
  5
106
330
17
100
AcDbEntity
  8
VISTA
100
AcDbPolyline
 90
4
 70
1
 10
48.374999046325684
 20
-6.340000152587891
 10
48.57499980926514
 20
-6.340000152587891
 10
48.57499980926514
 20
-6.539999961853027
 10
48.374999046325684
 20
-6.539999961853027
  0
DIMENSION
  5
107
330
17
100
AcDbEntity
  8
COTAS
100
AcDbDimension
280
0
  2
*D9
  3
Standard
 10
42.05
 20
-3.45
 30
0.0
 11
43.15
 21
-3.45
 31
0.0
 70
32
 71
5
  1
<>
100
AcDbAlignedDimension
 13
42.05
 23
-3.675
 33
0.0
 14
44.25
 24
-3.675
 34
0.0
 50
0.0
100
AcDbRotatedDimension
1001
ACAD
1000
DSTYLE
1002
{
1070
140
1040
0.13
1070
41
1040
0.09
1002
}
  0
DIMENSION
  5
117
330
17
100
AcDbEntity
  8
COTAS
100
AcDbDimension
280
0
  2
*D10
  3
Standard
 10
45.05
 20
-3.45
 30
0.0
 11
46.15
 21
-3.45
 31
0.0
 70
32
 71
5
  1
<>
100
AcDbAlignedDimension
 13
45.05
 23
-3.675
 33
0.0
 14
47.25
 24
-3.675
 34
0.0
 50
0.0
100
AcDbRotatedDimension
1001
ACAD
1000
DSTYLE
1002
{
1070
140
1040
0.13
1070
41
1040
0.09
1002
}
  0
DIMENSION
  5
127
330
17
100
AcDbEntity
  8
COTAS
100
AcDbDimension
280
0
  2
*D11
  3
Standard
 10
47.8
 20
-3.675
 30
0.0
 11
47.8
 21
-4.199999999999999
 31
0.0
 70
32
 71
5
  1
<>
100
AcDbAlignedDimension
 13
47.25
 23
-3.675
 33
0.0
 14
47.25
 24
-4.725
 34
0.0
 50
90.0
100
AcDbRotatedDimension
1001
ACAD
1000
DSTYLE
1002
{
1070
140
1040
0.13
1070
41
1040
0.09
1002
}
  0
DIMENSION
  5
137
330
17
100
AcDbEntity
  8
COTAS
100
AcDbDimension
280
0
  2
*D12
  3
Standard
 10
47.8
 20
-6.625
 30
0.0
 11
47.8
 21
-7.15
 31
0.0
 70
32
 71
5
  1
<>
100
AcDbAlignedDimension
 13
47.25
 23
-6.625
 33
0.0
 14
47.25
 24
-7.675
 34
0.0
 50
90.0
100
AcDbRotatedDimension
1001
ACAD
1000
DSTYLE
1002
{
1070
140
1040
0.13
1070
41
1040
0.09
1002
}
  0
TEXT
  5
147
330
17
100
AcDbEntity
  8
TEXTOS
100
AcDbText
 10
44.65
 20
-5.7
 30
0.0
 40
0.135
  1
Paso 0,72 m
100
AcDbText
  0
ENDSEC
  0
SECTION
  2
OBJECTS
  0
DICTIONARY
  5
A
330
0
100
AcDbDictionary
281
1
  3
ACAD_COLOR
350
B
  3
ACAD_GROUP
350
C
  3
ACAD_LAYOUT
350
D
  3
ACAD_MATERIAL
350
E
  3
ACAD_MLEADERSTYLE
350
F
  3
ACAD_MLINESTYLE
350
10
  3
ACAD_PLOTSETTINGS
350
11
  3
ACAD_PLOTSTYLENAME
350
12
  3
ACAD_SCALELIST
350
14
  3
ACAD_TABLESTYLE
350
15
  3
ACAD_VISUALSTYLE
350
16
  3
EZDXF_META
350
2D
  0
DICTIONARY
  5
B
330
A
100
AcDbDictionary
281
1
  0
DICTIONARY
  5
C
330
A
100
AcDbDictionary
281
1
  0
DICTIONARY
  5
D
330
A
100
AcDbDictionary
281
1
  3
Model
350
1A
  3
Layout1
350
1E
  0
DICTIONARY
  5
E
330
A
100
AcDbDictionary
281
1
  3
ByBlock
350
1F
  3
ByLayer
350
20
  3
Global
350
21
  0
DICTIONARY
  5
F
330
A
100
AcDbDictionary
281
1
  3
Standard
350
2C
  0
DICTIONARY
  5
10
330
A
100
AcDbDictionary
281
1
  3
Standard
350
22
  0
DICTIONARY
  5
11
330
A
100
AcDbDictionary
281
1
  0
ACDBDICTIONARYWDFLT
  5
12
330
A
100
AcDbDictionary
281
1
  3
Normal
350
13
100
AcDbDictionaryWithDefault
340
13
  0
ACDBPLACEHOLDER
  5
13
330
12
  0
DICTIONARY
  5
14
330
A
100
AcDbDictionary
281
1
  0
DICTIONARY
  5
15
330
A
100
AcDbDictionary
281
1
  0
DICTIONARY
  5
16
330
A
100
AcDbDictionary
281
1
  0
LAYOUT
  5
1A
330
D
100
AcDbPlotSettings
  1

  4
A3
  6

 40
7.5
 41
20.0
 42
7.5
 43
20.0
 44
420.0
 45
297.0
 46
0.0
 47
0.0
 48
0.0
 49
0.0
140
0.0
141
0.0
142
1.0
143
1.0
 70
1024
 72
1
 73
0
 74
5
  7

 75
16
 76
0
 77
2
 78
300
147
1.0
148
0.0
149
0.0
100
AcDbLayout
  1
Model
 70
1
 71
0
 10
0.0
 20
0.0
 11
420.0
 21
297.0
 12
0.0
 22
0.0
 32
0.0
 14
1e+20
 24
1e+20
 34
1e+20
 15
-1e+20
 25
-1e+20
 35
-1e+20
146
0.0
 13
0.0
 23
0.0
 33
0.0
 16
1.0
 26
0.0
 36
0.0
 17
0.0
 27
1.0
 37
0.0
 76
1
330
17
  0
LAYOUT
  5
1E
330
D
100
AcDbPlotSettings
  1

  4
A3
  6

 40
7.5
 41
20.0
 42
7.5
 43
20.0
 44
420.0
 45
297.0
 46
0.0
 47
0.0
 48
0.0
 49
0.0
140
0.0
141
0.0
142
1.0
143
1.0
 70
0
 72
1
 73
0
 74
5
  7

 75
16
 76
0
 77
2
 78
300
147
1.0
148
0.0
149
0.0
100
AcDbLayout
  1
Layout1
 70
1
 71
1
 10
0.0
 20
0.0
 11
420.0
 21
297.0
 12
0.0
 22
0.0
 32
0.0
 14
1e+20
 24
1e+20
 34
1e+20
 15
-1e+20
 25
-1e+20
 35
-1e+20
146
0.0
 13
0.0
 23
0.0
 33
0.0
 16
1.0
 26
0.0
 36
0.0
 17
0.0
 27
1.0
 37
0.0
 76
1
330
1B
  0
MATERIAL
  5
1F
102
{ACAD_REACTORS
330
E
102
}
330
E
100
AcDbMaterial
  1
ByBlock
  2

 70
0
 40
1.0
 71
1
 41
1.0
 91
-1023410177
 42
1.0
 72
1
  3

 73
1
 74
1
 75
1
 44
0.5
 73
0
 45
1.0
 46
1.0
 77
1
  4

 78
1
 79
1
170
1
 48
1.0
171
1
  6

172
1
173
1
174
1
140
1.0
141
1.0
175
1
  7

176
1
177
1
178
1
143
1.0
179
1
  8

270
1
271
1
272
1
145
1.0
146
1.0
273
1
  9

274
1
275
1
276
1
 42
1.0
 72
1
  3

 73
1
 74
1
 75
1
 94
63
  0
MATERIAL
  5
20
102
{ACAD_REACTORS
330
E
102
}
330
E
100
AcDbMaterial
  1
ByLayer
  2

 70
0
 40
1.0
 71
1
 41
1.0
 91
-1023410177
 42
1.0
 72
1
  3

 73
1
 74
1
 75
1
 44
0.5
 73
0
 45
1.0
 46
1.0
 77
1
  4

 78
1
 79
1
170
1
 48
1.0
171
1
  6

172
1
173
1
174
1
140
1.0
141
1.0
175
1
  7

176
1
177
1
178
1
143
1.0
179
1
  8

270
1
271
1
272
1
145
1.0
146
1.0
273
1
  9

274
1
275
1
276
1
 42
1.0
 72
1
  3

 73
1
 74
1
 75
1
 94
63
  0
MATERIAL
  5
21
102
{ACAD_REACTORS
330
E
102
}
330
E
100
AcDbMaterial
  1
Global
  2

 70
0
 40
1.0
 71
1
 41
1.0
 91
-1023410177
 42
1.0
 72
1
  3

 73
1
 74
1
 75
1
 44
0.5
 73
0
 45
1.0
 46
1.0
 77
1
  4

 78
1
 79
1
170
1
 48
1.0
171
1
  6

172
1
173
1
174
1
140
1.0
141
1.0
175
1
  7

176
1
177
1
178
1
143
1.0
179
1
  8

270
1
271
1
272
1
145
1.0
146
1.0
273
1
  9

274
1
275
1
276
1
 42
1.0
 72
1
  3

 73
1
 74
1
 75
1
 94
63
  0
MLINESTYLE
  5
22
102
{ACAD_REACTORS
330
10
102
}
330
10
100
AcDbMlineStyle
  2
Standard
 70
0
  3

 62
256
 51
90.0
 52
90.0
 71
2
 49
0.5
 62
256
  6
BYLAYER
 49
-0.5
 62
256
  6
BYLAYER
  0
MLEADERSTYLE
  5
2C
102
{ACAD_REACTORS
330
F
102
}
330
F
100
AcDbMLeaderStyle
179
2
170
2
171
1
172
0
 90
2
 40
0.0
 41
0.0
173
1
 91
-1056964608
 92
-2
290
1
 42
2.0
291
1
 43
8.0
  3
Standard
 44
4.0
300

342
29
174
1
175
1
176
0
178
1
 93
-1056964608
 45
4.0
292
0
297
0
 46
4.0
 94
-1056964608
 47
1.0
 49
1.0
140
1.0
294
1
141
0.0
177
0
142
1.0
295
0
296
0
143
3.75
271
0
272
9
273
9
  0
DICTIONARY
  5
2D
330
A
100
AcDbDictionary
280
1
281
1
  3
CREATED_BY_EZDXF
350
2E
  3
WRITTEN_BY_EZDXF
350
14A
  0
DICTIONARYVAR
  5
2E
330
2D
100
DictionaryVariables
280
0
  1
1.4.4 @ 2026-09-10T22:45:34.858828+00:00
  0
DICTIONARYVAR
  5
14A
330
2D
100
DictionaryVariables
280
0
  1
1.4.4 @ 2026-09-10T22:45:34.882835+00:00
  0
ENDSEC
  0
EOF
