  0
SECTION
  2
HEADER
  9
$ACADVER
  1
AC1024
  9
$ACADMAINTVER
 70
6
  9
$DWGCODEPAGE
  3
ANSI_1252
  9
$LASTSAVEDBY
  1
ezdxf
  9
$INSBASE
 10
0.0
 20
0.0
 30
0.0
  9
$EXTMIN
 10
1e+20
 20
1e+20
 30
1e+20
  9
$EXTMAX
 10
-1e+20
 20
-1e+20
 30
-1e+20
  9
$LIMMIN
 10
0.0
 20
0.0
  9
$LIMMAX
 10
420.0
 20
297.0
  9
$ORTHOMODE
 70
0
  9
$REGENMODE
 70
1
  9
$FILLMODE
 70
1
  9
$QTEXTMODE
 70
0
  9
$MIRRTEXT
 70
1
  9
$LTSCALE
 40
1.0
  9
$ATTMODE
 70
1
  9
$TEXTSIZE
 40
2.5
  9
$TRACEWID
 40
1.0
  9
$TEXTSTYLE
  7
Standard
  9
$CLAYER
  8
0
  9
$CELTYPE
  6
ByLayer
  9
$CECOLOR
 62
256
  9
$CELTSCALE
 40
1.0
  9
$DISPSILH
 70
0
  9
$DIMSCALE
 40
1.0
  9
$DIMASZ
 40
2.5
  9
$DIMEXO
 40
0.625
  9
$DIMDLI
 40
3.75
  9
$DIMRND
 40
0.0
  9
$DIMDLE
 40
0.0
  9
$DIMEXE
 40
1.25
  9
$DIMTP
 40
0.0
  9
$DIMTM
 40
0.0
  9
$DIMTXT
 40
2.5
  9
$DIMCEN
 40
2.5
  9
$DIMTSZ
 40
0.0
  9
$DIMTOL
 70
0
  9
$DIMLIM
 70
0
  9
$DIMTIH
 70
0
  9
$DIMTOH
 70
0
  9
$DIMSE1
 70
0
  9
$DIMSE2
 70
0
  9
$DIMTAD
 70
1
  9
$DIMZIN
 70
8
  9
$DIMBLK
  1

  9
$DIMASO
 70
1
  9
$DIMSHO
 70
1
  9
$DIMPOST
  1

  9
$DIMAPOST
  1

  9
$DIMALT
 70
0
  9
$DIMALTD
 70
3
  9
$DIMALTF
 40
0.03937007874
  9
$DIMLFAC
 40
1.0
  9
$DIMTOFL
 70
1
  9
$DIMTVP
 40
0.0
  9
$DIMTIX
 70
0
  9
$DIMSOXD
 70
0
  9
$DIMSAH
 70
0
  9
$DIMBLK1
  1

  9
$DIMBLK2
  1

  9
$DIMSTYLE
  2
ISO-25
  9
$DIMCLRD
 70
0
  9
$DIMCLRE
 70
0
  9
$DIMCLRT
 70
0
  9
$DIMTFAC
 40
1.0
  9
$DIMGAP
 40
0.625
  9
$DIMJUST
 70
0
  9
$DIMSD1
 70
0
  9
$DIMSD2
 70
0
  9
$DIMTOLJ
 70
0
  9
$DIMTZIN
 70
8
  9
$DIMALTZ
 70
0
  9
$DIMALTTZ
 70
0
  9
$DIMUPT
 70
0
  9
$DIMDEC
 70
2
  9
$DIMTDEC
 70
2
  9
$DIMALTU
 70
2
  9
$DIMALTTD
 70
3
  9
$DIMTXSTY
  7
Standard
  9
$DIMAUNIT
 70
0
  9
$DIMADEC
 70
0
  9
$DIMALTRND
 40
0.0
  9
$DIMAZIN
 70
0
  9
$DIMDSEP
 70
44
  9
$DIMATFIT
 70
3
  9
$DIMFRAC
 70
0
  9
$DIMLDRBLK
  1

  9
$DIMLUNIT
 70
2
  9
$DIMLWD
 70
-2
  9
$DIMLWE
 70
-2
  9
$DIMTMOVE
 70
0
  9
$DIMFXL
 40
1.0
  9
$DIMFXLON
 70
0
  9
$DIMJOGANG
 40
0.785398163397
  9
$DIMTFILL
 70
0
  9
$DIMTFILLCLR
 70
0
  9
$DIMARCSYM
 70
0
  9
$DIMLTYPE
  6

  9
$DIMLTEX1
  6

  9
$DIMLTEX2
  6

  9
$DIMTXTDIRECTION
 70
0
  9
$LUNITS
 70
2
  9
$LUPREC
 70
4
  9
$SKETCHINC
 40
1.0
  9
$FILLETRAD
 40
10.0
  9
$AUNITS
 70
0
  9
$AUPREC
 70
2
  9
$MENU
  1
.
  9
$ELEVATION
 40
0.0
  9
$PELEVATION
 40
0.0
  9
$THICKNESS
 40
0.0
  9
$LIMCHECK
 70
0
  9
$CHAMFERA
 40
0.0
  9
$CHAMFERB
 40
0.0
  9
$CHAMFERC
 40
0.0
  9
$CHAMFERD
 40
0.0
  9
$SKPOLY
 70
0
  9
$TDCREATE
 40
2461294.642164352
  9
$TDUCREATE
 40
2458532.153996898
  9
$TDUPDATE
 40
2461294.642164352
  9
$TDUUPDATE
 40
2458532.1544311
  9
$TDINDWG
 40
0.0
  9
$TDUSRTIMER
 40
0.0
  9
$USRTIMER
 70
1
  9
$ANGBASE
 50
0.0
  9
$ANGDIR
 70
0
  9
$PDMODE
 70
0
  9
$PDSIZE
 40
0.0
  9
$PLINEWID
 40
0.0
  9
$SPLFRAME
 70
0
  9
$SPLINETYPE
 70
6
  9
$SPLINESEGS
 70
8
  9
$HANDSEED
  5
159
  9
$SURFTAB1
 70
6
  9
$SURFTAB2
 70
6
  9
$SURFTYPE
 70
6
  9
$SURFU
 70
6
  9
$SURFV
 70
6
  9
$UCSBASE
  2

  9
$UCSNAME
  2

  9
$UCSORG
 10
0.0
 20
0.0
 30
0.0
  9
$UCSXDIR
 10
1.0
 20
0.0
 30
0.0
  9
$UCSYDIR
 10
0.0
 20
1.0
 30
0.0
  9
$UCSORTHOREF
  2

  9
$UCSORTHOVIEW
 70
0
  9
$UCSORGTOP
 10
0.0
 20
0.0
 30
0.0
  9
$UCSORGBOTTOM
 10
0.0
 20
0.0
 30
0.0
  9
$UCSORGLEFT
 10
0.0
 20
0.0
 30
0.0
  9
$UCSORGRIGHT
 10
0.0
 20
0.0
 30
0.0
  9
$UCSORGFRONT
 10
0.0
 20
0.0
 30
0.0
  9
$UCSORGBACK
 10
0.0
 20
0.0
 30
0.0
  9
$PUCSBASE
  2

  9
$PUCSNAME
  2

  9
$PUCSORG
 10
0.0
 20
0.0
 30
0.0
  9
$PUCSXDIR
 10
1.0
 20
0.0
 30
0.0
  9
$PUCSYDIR
 10
0.0
 20
1.0
 30
0.0
  9
$PUCSORTHOREF
  2

  9
$PUCSORTHOVIEW
 70
0
  9
$PUCSORGTOP
 10
0.0
 20
0.0
 30
0.0
  9
$PUCSORGBOTTOM
 10
0.0
 20
0.0
 30
0.0
  9
$PUCSORGLEFT
 10
0.0
 20
0.0
 30
0.0
  9
$PUCSORGRIGHT
 10
0.0
 20
0.0
 30
0.0
  9
$PUCSORGFRONT
 10
0.0
 20
0.0
 30
0.0
  9
$PUCSORGBACK
 10
0.0
 20
0.0
 30
0.0
  9
$USERI1
 70
0
  9
$USERI2
 70
0
  9
$USERI3
 70
0
  9
$USERI4
 70
0
  9
$USERI5
 70
0
  9
$USERR1
 40
0.0
  9
$USERR2
 40
0.0
  9
$USERR3
 40
0.0
  9
$USERR4
 40
0.0
  9
$USERR5
 40
0.0
  9
$WORLDVIEW
 70
1
  9
$SHADEDGE
 70
3
  9
$SHADEDIF
 70
70
  9
$TILEMODE
 70
1
  9
$MAXACTVP
 70
64
  9
$PINSBASE
 10
0.0
 20
0.0
 30
0.0
  9
$PLIMCHECK
 70
0
  9
$PEXTMIN
 10
1e+20
 20
1e+20
 30
1e+20
  9
$PEXTMAX
 10
-1e+20
 20
-1e+20
 30
-1e+20
  9
$PLIMMIN
 10
0.0
 20
0.0
  9
$PLIMMAX
 10
420.0
 20
297.0
  9
$UNITMODE
 70
0
  9
$VISRETAIN
 70
1
  9
$PLINEGEN
 70
0
  9
$PSLTSCALE
 70
1
  9
$TREEDEPTH
 70
3020
  9
$CMLSTYLE
  2
Standard
  9
$CMLJUST
 70
0
  9
$CMLSCALE
 40
20.0
  9
$PROXYGRAPHICS
 70
1
  9
$MEASUREMENT
 70
1
  9
$CELWEIGHT
370
-1
  9
$ENDCAPS
280
0
  9
$JOINSTYLE
280
0
  9
$LWDISPLAY
290
0
  9
$INSUNITS
 70
6
  9
$HYPERLINKBASE
  1

  9
$STYLESHEET
  1

  9
$XEDIT
290
1
  9
$CEPSNTYPE
380
0
  9
$PSTYLEMODE
290
1
  9
$FINGERPRINTGUID
  2
{120EB9B3-2B2C-415F-9AF6-CCF4FB9C07B0}
  9
$VERSIONGUID
  2
{E124EBC7-E2BD-4EF2-A262-F1557E481D68}
  9
$EXTNAMES
290
1
  9
$PSVPSCALE
 40
0.0
  9
$OLESTARTUP
290
0
  9
$SORTENTS
280
127
  9
$INDEXCTL
280
0
  9
$HIDETEXT
280
1
  9
$XCLIPFRAME
280
1
  9
$HALOGAP
280
0
  9
$OBSCOLOR
 70
257
  9
$OBSLTYPE
280
0
  9
$INTERSECTIONDISPLAY
280
0
  9
$INTERSECTIONCOLOR
 70
257
  9
$DIMASSOC
280
2
  9
$PROJECTNAME
  1

  9
$CAMERADISPLAY
290
0
  9
$LENSLENGTH
 40
50.0
  9
$CAMERAHEIGHT
 40
0.0
  9
$STEPSPERSEC
 40
24.0
  9
$STEPSIZE
 40
100.0
  9
$3DDWFPREC
 40
2.0
  9
$PSOLWIDTH
 40
0.005
  9
$PSOLHEIGHT
 40
0.08
  9
$LOFTANG1
 40
1.570796326795
  9
$LOFTANG2
 40
1.570796326795
  9
$LOFTMAG1
 40
0.0
  9
$LOFTMAG2
 40
0.0
  9
$LOFTPARAM
 70
7
  9
$LOFTNORMALS
280
1
  9
$LATITUDE
 40
37.795
  9
$LONGITUDE
 40
-122.394
  9
$NORTHDIRECTION
 40
0.0
  9
$TIMEZONE
 70
-8000
  9
$LIGHTGLYPHDISPLAY
280
1
  9
$TILEMODELIGHTSYNCH
280
1
  9
$CMATERIAL
347
20
  9
$SOLIDHIST
280
0
  9
$SHOWHIST
280
1
  9
$DWFFRAME
280
2
  9
$DGNFRAME
280
2
  9
$REALWORLDSCALE
290
1
  9
$INTERFERECOLOR
 62
256
  9
$CSHADOW
280
0
  9
$SHADOWPLANELOCATION
 40
0.0
  0
ENDSEC
  0
SECTION
  2
CLASSES
  0
CLASS
  1
ACDBDICTIONARYWDFLT
  2
AcDbDictionaryWithDefault
  3
ObjectDBX Classes
 90
0
 91
0
280
0
281
0
  0
CLASS
  1
SUN
  2
AcDbSun
  3
SCENEOE
 90
1153
 91
0
280
0
281
0
  0
CLASS
  1
VISUALSTYLE
  2
AcDbVisualStyle
  3
ObjectDBX Classes
 90
4095
 91
0
280
0
281
0
  0
CLASS
  1
MATERIAL
  2
AcDbMaterial
  3
ObjectDBX Classes
 90
1153
 91
0
280
0
281
0
  0
CLASS
  1
SCALE
  2
AcDbScale
  3
ObjectDBX Classes
 90
1153
 91
0
280
0
281
0
  0
CLASS
  1
TABLESTYLE
  2
AcDbTableStyle
  3
ObjectDBX Classes
 90
4095
 91
0
280
0
281
0
  0
CLASS
  1
MLEADERSTYLE
  2
AcDbMLeaderStyle
  3
ACDB_MLEADERSTYLE_CLASS
 90
4095
 91
0
280
0
281
0
  0
CLASS
  1
DICTIONARYVAR
  2
AcDbDictionaryVar
  3
ObjectDBX Classes
 90
0
 91
0
280
0
281
0
  0
CLASS
  1
CELLSTYLEMAP
  2
AcDbCellStyleMap
  3
ObjectDBX Classes
 90
1152
 91
0
280
0
281
0
  0
CLASS
  1
MENTALRAYRENDERSETTINGS
  2
AcDbMentalRayRenderSettings
  3
SCENEOE
 90
1024
 91
0
280
0
281
0
  0
CLASS
  1
ACDBDETAILVIEWSTYLE
  2
AcDbDetailViewStyle
  3
ObjectDBX Classes
 90
1025
 91
0
280
0
281
0
  0
CLASS
  1
ACDBSECTIONVIEWSTYLE
  2
AcDbSectionViewStyle
  3
ObjectDBX Classes
 90
1025
 91
0
280
0
281
0
  0
CLASS
  1
RASTERVARIABLES
  2
AcDbRasterVariables
  3
ISM
 90
0
 91
0
280
0
281
0
  0
CLASS
  1
ACDBPLACEHOLDER
  2
AcDbPlaceHolder
  3
ObjectDBX Classes
 90
0
 91
0
280
0
281
0
  0
CLASS
  1
LAYOUT
  2
AcDbLayout
  3
ObjectDBX Classes
 90
0
 91
0
280
0
281
0
  0
ENDSEC
  0
SECTION
  2
TABLES
  0
TABLE
  2
VPORT
  5
8
330
0
100
AcDbSymbolTable
 70
1
  0
VPORT
  5
23
330
8
100
AcDbSymbolTableRecord
100
AcDbViewportTableRecord
  2
*Active
 70
0
 10
0.0
 20
0.0
 11
1.0
 21
1.0
 12
0.0
 22
0.0
 13
0.0
 23
0.0
 14
0.5
 24
0.5
 15
0.5
 25
0.5
 16
0.0
 26
0.0
 36
1.0
 17
0.0
 27
0.0
 37
0.0
 40
1000.0
 41
1.34
 42
50.0
 43
0.0
 44
0.0
 50
0.0
 51
0.0
 71
0
 72
1000
 73
1
 74
3
 75
0
 76
0
 77
0
 78
0
281
0
 65
0
146
0.0
  0
ENDTAB
  0
TABLE
  2
LTYPE
  5
2
330
0
100
AcDbSymbolTable
 70
3
  0
LTYPE
  5
24
330
2
100
AcDbSymbolTableRecord
100
AcDbLinetypeTableRecord
  2
ByBlock
 70
0
  3

 72
65
 73
0
 40
0.0
  0
LTYPE
  5
25
330
2
100
AcDbSymbolTableRecord
100
AcDbLinetypeTableRecord
  2
ByLayer
 70
0
  3

 72
65
 73
0
 40
0.0
  0
LTYPE
  5
26
330
2
100
AcDbSymbolTableRecord
100
AcDbLinetypeTableRecord
  2
Continuous
 70
0
  3

 72
65
 73
0
 40
0.0
  0
ENDTAB
  0
TABLE
  2
LAYER
  5
1
330
0
100
AcDbSymbolTable
 70
8
  0
LAYER
  5
27
330
1
100
AcDbSymbolTableRecord
100
AcDbLayerTableRecord
  2
0
 70
0
 62
7
  6
Continuous
370
-3
390
13
347
21
  0
LAYER
  5
28
330
1
100
AcDbSymbolTableRecord
100
AcDbLayerTableRecord
  2
Defpoints
 70
0
 62
7
  6
Continuous
290
0
370
-3
390
13
347
21
  0
LAYER
  5
2F
330
1
100
AcDbSymbolTableRecord
100
AcDbLayerTableRecord
  2
CORTE
 70
0
 62
7
  6
Continuous
370
-3
390
13
347
21
  0
LAYER
  5
30
330
1
100
AcDbSymbolTableRecord
100
AcDbLayerTableRecord
  2
VISTA
 70
0
 62
8
  6
Continuous
370
-3
390
13
347
21
  0
LAYER
  5
31
330
1
100
AcDbSymbolTableRecord
100
AcDbLayerTableRecord
  2
COTAS
 70
0
 62
4
  6
Continuous
370
-3
390
13
347
21
  0
LAYER
  5
32
330
1
100
AcDbSymbolTableRecord
100
AcDbLayerTableRecord
  2
TEXTOS
 70
0
 62
7
  6
Continuous
370
-3
390
13
347
21
  0
LAYER
  5
33
330
1
100
AcDbSymbolTableRecord
100
AcDbLayerTableRecord
  2
EJES
 70
0
 62
3
  6
Continuous
370
-3
390
13
347
21
  0
LAYER
  5
34
330
1
100
AcDbSymbolTableRecord
100
AcDbLayerTableRecord
  2
SISTEMAS
 70
0
 62
5
  6
Continuous
370
-3
390
13
347
21
  0
ENDTAB
  0
TABLE
  2
STYLE
  5
5
330
0
100
AcDbSymbolTable
 70
1
  0
STYLE
  5
29
330
5
100
AcDbSymbolTableRecord
100
AcDbTextStyleTableRecord
  2
Standard
 70
0
 40
0.0
 41
1.0
 50
0.0
 71
0
 42
2.5
  3
txt
  4

  0
ENDTAB
  0
TABLE
  2
VIEW
  5
7
330
0
100
AcDbSymbolTable
 70
0
  0
ENDTAB
  0
TABLE
  2
UCS
  5
6
330
0
100
AcDbSymbolTable
 70
0
  0
ENDTAB
  0
TABLE
  2
APPID
  5
3
330
0
100
AcDbSymbolTable
 70
3
  0
APPID
  5
2A
330
3
100
AcDbSymbolTableRecord
100
AcDbRegAppTableRecord
  2
ACAD
 70
0
  0
APPID
  5
156
330
3
100
AcDbSymbolTableRecord
100
AcDbRegAppTableRecord
  2
HATCHBACKGROUNDCOLOR
 70
0
  0
APPID
  5
157
330
3
100
AcDbSymbolTableRecord
100
AcDbRegAppTableRecord
  2
EZDXF
 70
0
  0
ENDTAB
  0
TABLE
  2
DIMSTYLE
  5
4
330
0
100
AcDbSymbolTable
 70
1
100
AcDbDimStyleTable
  0
DIMSTYLE
105
2B
330
4
100
AcDbSymbolTableRecord
100
AcDbDimStyleTableRecord
  2
Standard
 70
0
 40
1.0
 41
2.5
 42
0.625
 43
3.75
 44
1.25
 45
0.0
 46
0.0
 47
0.0
 48
0.0
 49
2.5
140
2.5
141
2.5
142
0.0
143
0.03937007874
144
1.0
145
0.0
146
1.0
147
0.625
148
0.0
 69
0
 70
0
 71
0
 72
0
 73
0
 74
0
 75
0
 76
0
 77
1
 78
8
 79
3
170
0
171
3
172
1
173
0
174
0
175
0
176
0
177
0
178
0
179
2
271
2
272
2
273
2
274
3
275
0
276
0
277
2
278
44
279
0
280
0
281
0
282
0
283
0
284
8
285
0
286
0
288
0
289
3
290
0
371
-2
372
-2
  0
ENDTAB
  0
TABLE
  2
BLOCK_RECORD
  5
9
330
0
100
AcDbSymbolTable
 70
9
  0
BLOCK_RECORD
  5
17
330
9
100
AcDbSymbolTableRecord
100
AcDbBlockTableRecord
  2
*Model_Space
340
1A
 70
0
280
1
281
0
  0
BLOCK_RECORD
  5
1B
330
9
100
AcDbSymbolTableRecord
100
AcDbBlockTableRecord
  2
*Paper_Space
340
1E
 70
0
280
1
281
0
  0
BLOCK_RECORD
  5
48
330
9
100
AcDbSymbolTableRecord
100
AcDbBlockTableRecord
  2
*D1
340
0
 70
0
280
1
281
0
  0
BLOCK_RECORD
  5
4D
330
9
100
AcDbSymbolTableRecord
100
AcDbBlockTableRecord
  2
_CLOSEDFILLED
340
0
 70
0
280
1
281
0
  0
BLOCK_RECORD
  5
5C
330
9
100
AcDbSymbolTableRecord
100
AcDbBlockTableRecord
  2
*D2
340
0
 70
0
280
1
281
0
  0
BLOCK_RECORD
  5
C4
330
9
100
AcDbSymbolTableRecord
100
AcDbBlockTableRecord
  2
*D3
340
0
 70
0
280
1
281
0
  0
BLOCK_RECORD
  5
D4
330
9
100
AcDbSymbolTableRecord
100
AcDbBlockTableRecord
  2
*D4
340
0
 70
0
280
1
281
0
  0
BLOCK_RECORD
  5
12D
330
9
100
AcDbSymbolTableRecord
100
AcDbBlockTableRecord
  2
*D5
340
0
 70
0
280
1
281
0
  0
BLOCK_RECORD
  5
13D
330
9
100
AcDbSymbolTableRecord
100
AcDbBlockTableRecord
  2
*D6
340
0
 70
0
280
1
281
0
  0
ENDTAB
  0
ENDSEC
  0
SECTION
  2
BLOCKS
  0
BLOCK
  5
18
330
17
100
AcDbEntity
  8
0
100
AcDbBlockBegin
  2
*Model_Space
 70
0
 10
0.0
 20
0.0
 30
0.0
  3
*Model_Space
  1

  0
ENDBLK
  5
19
330
17
100
AcDbEntity
  8
0
100
AcDbBlockEnd
  0
BLOCK
  5
1C
330
1B
100
AcDbEntity
  8
0
100
AcDbBlockBegin
  2
*Paper_Space
 70
0
 10
0.0
 20
0.0
 30
0.0
  3
*Paper_Space
  1

  0
ENDBLK
  5
1D
330
1B
100
AcDbEntity
  8
0
100
AcDbBlockEnd
  0
BLOCK
  5
49
330
48
100
AcDbEntity
  8
0
100
AcDbBlockBegin
  2
*D1
 70
1
 10
0.0
 20
0.0
 30
0.0
  3
*D1
  1

  0
LINE
  5
4B
330
48
100
AcDbEntity
  8
0
100
AcDbLine
 10
699.39
 20
-4.35
 30
0.0
 11
699.39
 21
-3.86
 31
0.0
  0
LINE
  5
4C
330
48
100
AcDbEntity
  8
0
100
AcDbLine
 10
701.8
 20
-4.35
 30
0.0
 11
701.8
 21
-3.86
 31
0.0
  0
INSERT
  5
51
330
48
100
AcDbEntity
  8
COTAS
100
AcDbBlockReference
  2
_CLOSEDFILLED
 10
699.39
 20
-3.86
 30
0.0
 41
0.09
 42
0.09
 50
180.0
  0
INSERT
  5
53
330
48
100
AcDbEntity
  8
COTAS
100
AcDbBlockReference
  2
_CLOSEDFILLED
 10
701.8
 20
-3.86
 30
0.0
 41
0.09
 42
0.09
  0
LINE
  5
55
330
48
100
AcDbEntity
  8
0
100
AcDbLine
 10
699.48
 20
-3.86
 30
0.0
 11
700.335
 21
-3.86
 31
0.0
  0
LINE
  5
56
330
48
100
AcDbEntity
  8
0
100
AcDbLine
 10
700.855
 20
-3.86
 30
0.0
 11
701.7099999999999
 21
-3.86
 31
0.0
  0
MTEXT
  5
57
330
48
100
AcDbEntity
  8
COTAS
100
AcDbMText
 10
700.595
 20
-3.86
 30
0.0
 40
0.13
 71
5
  1
2,41
  0
POINT
  5
58
330
48
100
AcDbEntity
  8
Defpoints
100
AcDbPoint
 10
699.39
 20
-3.86
 30
0.0
  0
POINT
  5
59
330
48
100
AcDbEntity
  8
Defpoints
100
AcDbPoint
 10
699.39
 20
-4.35
 30
0.0
  0
POINT
  5
5A
330
48
100
AcDbEntity
  8
Defpoints
100
AcDbPoint
 10
701.8
 20
-4.35
 30
0.0
  0
ENDBLK
  5
4A
330
48
100
AcDbEntity
  8
0
100
AcDbBlockEnd
  0
BLOCK
  5
4E
330
4D
100
AcDbEntity
  8
0
100
AcDbBlockBegin
  2
_CLOSEDFILLED
 70
0
 10
0.0
 20
0.0
 30
0.0
  3
_CLOSEDFILLED
  1

  0
SOLID
  5
50
330
4D
100
AcDbEntity
  8
0
  6
BYBLOCK
 62
0
100
AcDbTrace
 10
-1.0
 20
0.16439898372402537
 30
0.0
 11
0.0
 21
0.0
 31
0.0
 12
-1.0
 22
-0.16439898372402537
 32
0.0
 13
-1.0
 23
-0.16439898372402537
 33
0.0
  0
ENDBLK
  5
4F
330
4D
100
AcDbEntity
  8
0
100
AcDbBlockEnd
  0
BLOCK
  5
5D
330
5C
100
AcDbEntity
  8
0
100
AcDbBlockBegin
  2
*D2
 70
1
 10
0.0
 20
0.0
 30
0.0
  3
*D2
  1

  0
LINE
  5
5F
330
5C
100
AcDbEntity
  8
0
100
AcDbLine
 10
701.8
 20
-4.35
 30
0.0
 11
702.25
 21
-4.35
 31
0.0
  0
LINE
  5
60
330
5C
100
AcDbEntity
  8
0
100
AcDbLine
 10
701.8
 20
-5.9
 30
0.0
 11
702.25
 21
-5.9
 31
0.0
  0
INSERT
  5
61
330
5C
100
AcDbEntity
  8
COTAS
100
AcDbBlockReference
  2
_CLOSEDFILLED
 10
702.25
 20
-4.35
 30
0.0
 41
0.09
 42
0.09
 50
270.0
  0
INSERT
  5
63
330
5C
100
AcDbEntity
  8
COTAS
100
AcDbBlockReference
  2
_CLOSEDFILLED
 10
702.25
 20
-5.9
 30
0.0
 41
0.09
 42
0.09
 50
90.0
  0
LINE
  5
65
330
5C
100
AcDbEntity
  8
0
100
AcDbLine
 10
702.25
 20
-4.26
 30
0.0
 11
702.25
 21
-4.865
 31
0.0
  0
LINE
  5
66
330
5C
100
AcDbEntity
  8
0
100
AcDbLine
 10
702.25
 20
-5.385
 30
0.0
 11
702.25
 21
-5.99
 31
0.0
  0
MTEXT
  5
67
330
5C
100
AcDbEntity
  8
COTAS
100
AcDbMText
 10
702.25
 20
-5.125
 30
0.0
 40
0.13
 71
5
  1
1,55
 50
90.0
  0
POINT
  5
68
330
5C
100
AcDbEntity
  8
Defpoints
100
AcDbPoint
 10
702.25
 20
-4.35
 30
0.0
  0
POINT
  5
69
330
5C
100
AcDbEntity
  8
Defpoints
100
AcDbPoint
 10
701.8
 20
-4.35
 30
0.0
  0
POINT
  5
6A
330
5C
100
AcDbEntity
  8
Defpoints
100
AcDbPoint
 10
701.8
 20
-5.9
 30
0.0
  0
ENDBLK
  5
5E
330
5C
100
AcDbEntity
  8
0
100
AcDbBlockEnd
  0
BLOCK
  5
C5
330
C4
100
AcDbEntity
  8
0
100
AcDbBlockBegin
  2
*D3
 70
1
 10
0.0
 20
0.0
 30
0.0
  3
*D3
  1

  0
LINE
  5
C7
330
C4
100
AcDbEntity
  8
0
100
AcDbLine
 10
779.49
 20
-6.1
 30
0.0
 11
779.49
 21
-5.8100000000000005
 31
0.0
  0
LINE
  5
C8
330
C4
100
AcDbEntity
  8
0
100
AcDbLine
 10
781.8
 20
-6.1
 30
0.0
 11
781.8
 21
-5.8100000000000005
 31
0.0
  0
INSERT
  5
C9
330
C4
100
AcDbEntity
  8
COTAS
100
AcDbBlockReference
  2
_CLOSEDFILLED
 10
779.49
 20
-5.8100000000000005
 30
0.0
 41
0.09
 42
0.09
 50
180.0
  0
INSERT
  5
CB
330
C4
100
AcDbEntity
  8
COTAS
100
AcDbBlockReference
  2
_CLOSEDFILLED
 10
781.8
 20
-5.8100000000000005
 30
0.0
 41
0.09
 42
0.09
  0
LINE
  5
CD
330
C4
100
AcDbEntity
  8
0
100
AcDbLine
 10
779.58
 20
-5.8100000000000005
 30
0.0
 11
780.385
 21
-5.8100000000000005
 31
0.0
  0
LINE
  5
CE
330
C4
100
AcDbEntity
  8
0
100
AcDbLine
 10
780.905
 20
-5.8100000000000005
 30
0.0
 11
781.7099999999999
 21
-5.8100000000000005
 31
0.0
  0
MTEXT
  5
CF
330
C4
100
AcDbEntity
  8
COTAS
100
AcDbMText
 10
780.645
 20
-5.8100000000000005
 30
0.0
 40
0.13
 71
5
  1
2,31
  0
POINT
  5
D0
330
C4
100
AcDbEntity
  8
Defpoints
100
AcDbPoint
 10
779.49
 20
-5.8100000000000005
 30
0.0
  0
POINT
  5
D1
330
C4
100
AcDbEntity
  8
Defpoints
100
AcDbPoint
 10
779.49
 20
-6.1
 30
0.0
  0
POINT
  5
D2
330
C4
100
AcDbEntity
  8
Defpoints
100
AcDbPoint
 10
781.8
 20
-6.1
 30
0.0
  0
ENDBLK
  5
C6
330
C4
100
AcDbEntity
  8
0
100
AcDbBlockEnd
  0
BLOCK
  5
D5
330
D4
100
AcDbEntity
  8
0
100
AcDbBlockBegin
  2
*D4
 70
1
 10
0.0
 20
0.0
 30
0.0
  3
*D4
  1

  0
LINE
  5
D7
330
D4
100
AcDbEntity
  8
0
100
AcDbLine
 10
781.8
 20
-6.1
 30
0.0
 11
782.25
 21
-6.1
 31
0.0
  0
LINE
  5
D8
330
D4
100
AcDbEntity
  8
0
100
AcDbLine
 10
781.8
 20
-8.57
 30
0.0
 11
782.25
 21
-8.57
 31
0.0
  0
INSERT
  5
D9
330
D4
100
AcDbEntity
  8
COTAS
100
AcDbBlockReference
  2
_CLOSEDFILLED
 10
782.25
 20
-6.1
 30
0.0
 41
0.09
 42
0.09
 50
270.0
  0
INSERT
  5
DB
330
D4
100
AcDbEntity
  8
COTAS
100
AcDbBlockReference
  2
_CLOSEDFILLED
 10
782.25
 20
-8.57
 30
0.0
 41
0.09
 42
0.09
 50
90.0
  0
LINE
  5
DD
330
D4
100
AcDbEntity
  8
0
100
AcDbLine
 10
782.25
 20
-6.01
 30
0.0
 11
782.25
 21
-7.075
 31
0.0
  0
LINE
  5
DE
330
D4
100
AcDbEntity
  8
0
100
AcDbLine
 10
782.25
 20
-7.595
 30
0.0
 11
782.25
 21
-8.66
 31
0.0
  0
MTEXT
  5
DF
330
D4
100
AcDbEntity
  8
COTAS
100
AcDbMText
 10
782.25
 20
-7.335
 30
0.0
 40
0.13
 71
5
  1
2,47
 50
90.0
  0
POINT
  5
E0
330
D4
100
AcDbEntity
  8
Defpoints
100
AcDbPoint
 10
782.25
 20
-6.1
 30
0.0
  0
POINT
  5
E1
330
D4
100
AcDbEntity
  8
Defpoints
100
AcDbPoint
 10
781.8
 20
-6.1
 30
0.0
  0
POINT
  5
E2
330
D4
100
AcDbEntity
  8
Defpoints
100
AcDbPoint
 10
781.8
 20
-8.57
 30
0.0
  0
ENDBLK
  5
D6
330
D4
100
AcDbEntity
  8
0
100
AcDbBlockEnd
  0
BLOCK
  5
12E
330
12D
100
AcDbEntity
  8
0
100
AcDbBlockBegin
  2
*D5
 70
1
 10
0.0
 20
0.0
 30
0.0
  3
*D5
  1

  0
LINE
  5
130
330
12D
100
AcDbEntity
  8
0
100
AcDbLine
 10
860.7
 20
-10.17
 30
0.0
 11
860.7
 21
-9.709999999999999
 31
0.0
  0
LINE
  5
131
330
12D
100
AcDbEntity
  8
0
100
AcDbLine
 10
861.8
 20
-10.17
 30
0.0
 11
861.8
 21
-9.709999999999999
 31
0.0
  0
INSERT
  5
132
330
12D
100
AcDbEntity
  8
COTAS
100
AcDbBlockReference
  2
_CLOSEDFILLED
 10
860.7
 20
-9.709999999999999
 30
0.0
 41
0.09
 42
0.09
 50
180.0
  0
INSERT
  5
134
330
12D
100
AcDbEntity
  8
COTAS
100
AcDbBlockReference
  2
_CLOSEDFILLED
 10
861.8
 20
-9.709999999999999
 30
0.0
 41
0.09
 42
0.09
  0
LINE
  5
136
330
12D
100
AcDbEntity
  8
0
100
AcDbLine
 10
860.7900000000001
 20
-9.709999999999999
 30
0.0
 11
861.055
 21
-9.709999999999999
 31
0.0
  0
LINE
  5
137
330
12D
100
AcDbEntity
  8
0
100
AcDbLine
 10
861.445
 20
-9.709999999999999
 30
0.0
 11
861.7099999999999
 21
-9.709999999999999
 31
0.0
  0
MTEXT
  5
138
330
12D
100
AcDbEntity
  8
COTAS
100
AcDbMText
 10
861.25
 20
-9.709999999999999
 30
0.0
 40
0.13
 71
5
  1
1,1
  0
POINT
  5
139
330
12D
100
AcDbEntity
  8
Defpoints
100
AcDbPoint
 10
860.7
 20
-9.709999999999999
 30
0.0
  0
POINT
  5
13A
330
12D
100
AcDbEntity
  8
Defpoints
100
AcDbPoint
 10
860.7
 20
-10.17
 30
0.0
  0
POINT
  5
13B
330
12D
100
AcDbEntity
  8
Defpoints
100
AcDbPoint
 10
861.8
 20
-10.17
 30
0.0
  0
ENDBLK
  5
12F
330
12D
100
AcDbEntity
  8
0
100
AcDbBlockEnd
  0
BLOCK
  5
13E
330
13D
100
AcDbEntity
  8
0
100
AcDbBlockBegin
  2
*D6
 70
1
 10
0.0
 20
0.0
 30
0.0
  3
*D6
  1

  0
LINE
  5
140
330
13D
100
AcDbEntity
  8
0
100
AcDbLine
 10
861.8
 20
-10.17
 30
0.0
 11
862.4
 21
-10.17
 31
0.0
  0
LINE
  5
141
330
13D
100
AcDbEntity
  8
0
100
AcDbLine
 10
861.8
 20
-11.83
 30
0.0
 11
862.4
 21
-11.83
 31
0.0
  0
INSERT
  5
142
330
13D
100
AcDbEntity
  8
COTAS
100
AcDbBlockReference
  2
_CLOSEDFILLED
 10
862.4
 20
-10.17
 30
0.0
 41
0.09
 42
0.09
 50
270.0
  0
INSERT
  5
144
330
13D
100
AcDbEntity
  8
COTAS
100
AcDbBlockReference
  2
_CLOSEDFILLED
 10
862.4
 20
-11.83
 30
0.0
 41
0.09
 42
0.09
 50
90.0
  0
LINE
  5
146
330
13D
100
AcDbEntity
  8
0
100
AcDbLine
 10
862.4
 20
-10.08
 30
0.0
 11
862.4
 21
-10.74
 31
0.0
  0
LINE
  5
147
330
13D
100
AcDbEntity
  8
0
100
AcDbLine
 10
862.4
 20
-11.26
 30
0.0
 11
862.4
 21
-11.92
 31
0.0
  0
MTEXT
  5
148
330
13D
100
AcDbEntity
  8
COTAS
100
AcDbMText
 10
862.4
 20
-11.0
 30
0.0
 40
0.13
 71
5
  1
1,66
 50
90.0
  0
POINT
  5
149
330
13D
100
AcDbEntity
  8
Defpoints
100
AcDbPoint
 10
862.4
 20
-10.17
 30
0.0
  0
POINT
  5
14A
330
13D
100
AcDbEntity
  8
Defpoints
100
AcDbPoint
 10
861.8
 20
-10.17
 30
0.0
  0
POINT
  5
14B
330
13D
100
AcDbEntity
  8
Defpoints
100
AcDbPoint
 10
861.8
 20
-11.83
 30
0.0
  0
ENDBLK
  5
13F
330
13D
100
AcDbEntity
  8
0
100
AcDbBlockEnd
  0
ENDSEC
  0
SECTION
  2
ENTITIES
  0
LWPOLYLINE
  5
35
330
17
100
AcDbEntity
  8
VISTA
100
AcDbPolyline
 90
9
 70
1
 10
699.220901
 20
-5.988
 10
699.225143
 20
-5.986242
 10
699.2269
 20
-5.982
 10
699.2269
 20
-5.814
 10
699.225143
 20
-5.809757
 10
699.220901
 20
-5.808
 10
699.1
 20
-5.808
 10
699.1
 20
-5.988
 10
699.220901
 20
-5.988
  0
LWPOLYLINE
  5
36
330
17
100
AcDbEntity
  8
VISTA
100
AcDbPolyline
 90
13
 70
1
 10
700.26
 20
-5.001
 10
700.26379
 20
-5.008338
 10
700.269001
 20
-5.01
 10
701.591
 20
-5.01
 10
701.598339
 20
-5.00621
 10
701.6
 20
-5.001
 10
701.6
 20
-4.399
 10
701.59621
 20
-4.391661
 10
701.591
 20
-4.39
 10
700.269001
 20
-4.39
 10
700.262636
 20
-4.392636
 10
700.26
 20
-4.399
 10
700.26
 20
-5.001
  0
LWPOLYLINE
  5
37
330
17
100
AcDbEntity
  8
VISTA
100
AcDbPolyline
 90
49
 70
1
 10
700.983667
 20
-5.282983
 10
700.976097
 20
-5.321733
 10
700.971529
 20
-5.365083
 10
700.969999
 20
-5.42
 10
700.971529
 20
-5.474917
 10
700.976097
 20
-5.518267
 10
700.983667
 20
-5.557017
 10
700.994167
 20
-5.591983
 10
701.007509
 20
-5.623302
 10
701.023584
 20
-5.6509
 10
701.04228
 20
-5.674629
 10
701.063496
 20
-5.694324
 10
701.087181
 20
-5.709824
 10
701.113432
 20
-5.720998
 10
701.142797
 20
-5.727744
 10
701.18
 20
-5.73
 10
701.217201
 20
-5.727744
 10
701.246569
 20
-5.720998
 10
701.272818
 20
-5.709824
 10
701.296505
 20
-5.694324
 10
701.31772
 20
-5.674629
 10
701.336416
 20
-5.6509
 10
701.352491
 20
-5.623302
 10
701.365831
 20
-5.591983
 10
701.376333
 20
-5.557017
 10
701.383902
 20
-5.518267
 10
701.388472
 20
-5.474917
 10
701.389999
 20
-5.42
 10
701.388472
 20
-5.365083
 10
701.383902
 20
-5.321733
 10
701.376333
 20
-5.282983
 10
701.365831
 20
-5.248017
 10
701.352491
 20
-5.216698
 10
701.336416
 20
-5.1891
 10
701.31772
 20
-5.165371
 10
701.296505
 20
-5.145677
 10
701.272818
 20
-5.130176
 10
701.246569
 20
-5.119002
 10
701.217201
 20
-5.112256
 10
701.18
 20
-5.11
 10
701.142797
 20
-5.112256
 10
701.113432
 20
-5.119002
 10
701.087181
 20
-5.130176
 10
701.063496
 20
-5.145677
 10
701.04228
 20
-5.165371
 10
701.023584
 20
-5.1891
 10
701.007509
 20
-5.216698
 10
700.994167
 20
-5.248017
 10
700.983667
 20
-5.282983
  0
LWPOLYLINE
  5
38
330
17
100
AcDbEntity
  8
VISTA
100
AcDbPolyline
 90
4
 70
1
 10
701.3125360633074
 20
-5.35612660063181
 10
701.3125360633074
 20
-5.356126600631809
 10
701.3125360633074
 20
-5.356126600631808
 10
701.3125360633074
 20
-5.35612660063181
  0
LWPOLYLINE
  5
39
330
17
100
AcDbEntity
  8
VISTA
100
AcDbPolyline
 90
39
 70
1
 10
700.998501
 20
-5.27679
 10
700.983061
 20
-5.331811
 10
700.975191
 20
-5.390223
 10
700.974199
 20
-5.42
 10
700.975191
 20
-5.449778
 10
700.983061
 20
-5.508188
 10
700.998501
 20
-5.56321
 10
701.008884
 20
-5.588782
 10
701.020914
 20
-5.612729
 10
701.049442
 20
-5.65484
 10
701.082987
 20
-5.687928
 10
701.101244
 20
-5.700675
 10
701.139851
 20
-5.717963
 10
701.18
 20
-5.7238
 10
701.22015
 20
-5.717963
 10
701.23974
 20
-5.710719
 10
701.277014
 20
-5.687928
 10
701.310558
 20
-5.65484
 10
701.325523
 20
-5.634819
 10
701.339085
 20
-5.612729
 10
701.3615
 20
-5.56321
 10
701.376938
 20
-5.508188
 10
701.384809
 20
-5.449778
 10
701.384809
 20
-5.390223
 10
701.376938
 20
-5.331811
 10
701.3615
 20
-5.27679
 10
701.351116
 20
-5.251218
 10
701.325523
 20
-5.205181
 10
701.310558
 20
-5.185159
 10
701.277014
 20
-5.152072
 10
701.258757
 20
-5.139326
 10
701.22015
 20
-5.122037
 10
701.18
 20
-5.1162
 10
701.139851
 20
-5.122037
 10
701.101244
 20
-5.139326
 10
701.082987
 20
-5.152072
 10
701.049442
 20
-5.185159
 10
701.020914
 20
-5.227272
 10
700.998501
 20
-5.27679
  0
LWPOLYLINE
  5
3A
330
17
100
AcDbEntity
  8
VISTA
100
AcDbPolyline
 90
36
 70
1
 10
701.070858
 20
-5.581114
 10
701.051662
 20
-5.546587
 10
701.037399
 20
-5.507195
 10
701.032297
 20
-5.486141
 10
701.02565
 20
-5.42
 10
701.028616
 20
-5.375549
 10
701.037399
 20
-5.332806
 10
701.051662
 20
-5.293413
 10
701.070858
 20
-5.258886
 10
701.082081
 20
-5.24387
 10
701.107241
 20
-5.219054
 10
701.135195
 20
-5.201961
 10
701.149887
 20
-5.196528
 10
701.18
 20
-5.19215
 10
701.210112
 20
-5.196528
 10
701.239067
 20
-5.209494
 10
701.265753
 20
-5.23055
 10
701.289143
 20
-5.258886
 10
701.308338
 20
-5.293413
 10
701.316124
 20
-5.312592
 10
701.322601
 20
-5.332806
 10
701.331385
 20
-5.375549
 10
701.334351
 20
-5.42
 10
701.331385
 20
-5.464451
 10
701.322601
 20
-5.507195
 10
701.308338
 20
-5.546587
 10
701.289143
 20
-5.581114
 10
701.265753
 20
-5.60945
 10
701.25276
 20
-5.620946
 10
701.224806
 20
-5.638039
 10
701.195129
 20
-5.646753
 10
701.164871
 20
-5.646753
 10
701.149887
 20
-5.643472
 10
701.120934
 20
-5.630506
 10
701.094248
 20
-5.60945
 10
701.070858
 20
-5.581114
  0
LWPOLYLINE
  5
3B
330
17
100
AcDbEntity
  8
VISTA
100
AcDbPolyline
 90
39
 70
1
 10
699.790653
 20
-5.313871
 10
699.784721
 20
-5.334411
 10
699.781179
 20
-5.361264
 10
699.781179
 20
-5.478736
 10
699.784721
 20
-5.505589
 10
699.790653
 20
-5.526129
 10
699.799017
 20
-5.542943
 10
699.809887
 20
-5.556999
 10
699.823387
 20
-5.568761
 10
699.839724
 20
-5.578482
 10
699.882599
 20
-5.59233
 10
699.948421
 20
-5.599152
 10
700.111578
 20
-5.599152
 10
700.148874
 20
-5.596601
 10
700.177401
 20
-5.59233
 10
700.220278
 20
-5.578482
 10
700.236612
 20
-5.568761
 10
700.250114
 20
-5.556999
 10
700.260984
 20
-5.542943
 10
700.269348
 20
-5.526129
 10
700.275278
 20
-5.505589
 10
700.278822
 20
-5.478736
 10
700.278822
 20
-5.361264
 10
700.275278
 20
-5.334411
 10
700.269348
 20
-5.313871
 10
700.260984
 20
-5.297056
 10
700.250114
 20
-5.283
 10
700.236612
 20
-5.271239
 10
700.220278
 20
-5.261518
 10
700.177401
 20
-5.24767
 10
700.111578
 20
-5.240849
 10
699.948421
 20
-5.240849
 10
699.911125
 20
-5.2434
 10
699.882599
 20
-5.24767
 10
699.839724
 20
-5.261518
 10
699.823387
 20
-5.271239
 10
699.809887
 20
-5.283
 10
699.799017
 20
-5.297056
 10
699.790653
 20
-5.313871
  0
LWPOLYLINE
  5
3C
330
17
100
AcDbEntity
  8
VISTA
100
AcDbPolyline
 90
17
 70
1
 10
701.001501
 20
-5.7054
 10
701.006844
 20
-5.725374
 10
701.021526
 20
-5.740056
 10
701.0415
 20
-5.7454
 10
701.318501
 20
-5.7454
 10
701.338474
 20
-5.740056
 10
701.353157
 20
-5.725374
 10
701.3585
 20
-5.7054
 10
701.3585
 20
-5.6554
 10
701.353157
 20
-5.635426
 10
701.338474
 20
-5.620744
 10
701.318501
 20
-5.6154
 10
701.0415
 20
-5.6154
 10
701.021526
 20
-5.620744
 10
701.006844
 20
-5.635426
 10
701.001501
 20
-5.6554
 10
701.001501
 20
-5.7054
  0
LINE
  5
3D
330
17
100
AcDbEntity
  8
CORTE
100
AcDbLine
 10
701.799999
 20
-6.15
 30
0.0
 11
701.799999
 21
-4.0
 31
0.0
  0
LINE
  5
3E
330
17
100
AcDbEntity
  8
CORTE
100
AcDbLine
 10
702.0
 20
-4.0
 30
0.0
 11
702.0
 21
-6.15
 31
0.0
  0
LWPOLYLINE
  5
3F
330
17
100
AcDbEntity
  8
CORTE
100
AcDbPolyline
 90
41
 70
1
 10
699.2510551655731
 20
-4.201628769394056
 10
699.25083
 20
-4.201895
 10
699.2503829660362
 20
-4.2032980403319185
 10
699.25
 20
-4.2045
 10
699.25
 20
-5.061404862987263
 10
699.25
 20
-5.7955
 10
699.2504470339637
 20
-5.796903040331918
 10
699.25083
 20
-5.798105
 10
699.2510928344269
 20
-5.798415769394056
 10
699.251318
 20
-5.798682
 10
699.2516282307989
 20
-5.798944295831725
 10
699.251894
 20
-5.799169
 10
699.253297040332
 20
-5.7996165725588575
 10
699.254499
 20
-5.8
 10
699.3250555015438
 20
-5.8
 10
699.3855
 20
-5.8
 10
699.386903040332
 20
-5.799552427441142
 10
699.388105
 20
-5.799169
 10
699.388415230799
 20
-5.798906704168275
 10
699.388681
 20
-5.798682
 10
699.388906626978
 20
-5.798415769394056
 10
699.38917
 20
-5.798105
 10
699.3895525046314
 20
-5.796903040331918
 10
699.389999
 20
-5.7955
 10
699.389999
 20
-5.061404862987263
 10
699.389999
 20
-4.2045
 10
699.3896164953686
 20
-4.2032980403319185
 10
699.38917
 20
-4.201895
 10
699.388944373022
 20
-4.201628769394056
 10
699.388681
 20
-4.201318
 10
699.388415230799
 20
-4.201093295831725
 10
699.388105
 20
-4.200831
 10
699.386903040332
 20
-4.200447572558858
 10
699.3855
 20
-4.2
 10
699.3250555015438
 20
-4.2
 10
699.254499
 20
-4.2
 10
699.253297040332
 20
-4.2003834274411425
 10
699.251894
 20
-4.200831
 10
699.2516282307989
 20
-4.201055704168275
 10
699.251318
 20
-4.201318
 10
699.2510551655731
 20
-4.201628769394056
  0
LWPOLYLINE
  5
40
330
17
100
AcDbEntity
  8
VISTA
100
AcDbPolyline
 90
22
 70
1
 10
699.4887257057862
 20
-4.223276977368176
 10
699.488937
 20
-4.223445
 10
699.4900416922538
 20
-4.223759084461036
 10
699.490984
 20
-4.224027
 10
699.5168749211385
 20
-4.223213186654223
 10
699.53896
 20
-4.222519
 10
699.5400414867008
 20
-4.222136378208119
 10
699.540964
 20
-4.22181
 10
699.5411998331778
 20
-4.221597912039197
 10
699.541401
 20
-4.221417
 10
699.5415985170322
 20
-4.221168754549697
 10
699.541767
 20
-4.220957
 10
699.5420810844611
 20
-4.219852847410173
 10
699.5423490000001
 20
-4.218911
 10
699.5354694034025
 20
-4.0
 10
699.480441098489
 20
-4.0
 10
699.487375
 20
-4.220639
 10
699.4877018385441
 20
-4.221561973635091
 10
699.488085
 20
-4.222644
 10
699.4882659120392
 20
-4.222844706486234
 10
699.488478
 20
-4.22308
 10
699.4887257057862
 20
-4.223276977368176
  0
LWPOLYLINE
  5
41
330
17
100
AcDbEntity
  8
VISTA
100
AcDbPolyline
 90
9
 70
1
 10
699.664999
 20
-5.73
 10
699.664999
 20
-5.6817777777777785
 10
699.664999
 20
-5.11
 10
699.6611101888889
 20
-5.11
 10
699.615
 20
-5.11
 10
699.615
 20
-5.158222222222222
 10
699.615
 20
-5.73
 10
699.6188888111111
 20
-5.73
 10
699.664999
 20
-5.73
  0
LWPOLYLINE
  5
42
330
17
100
AcDbEntity
  8
VISTA
100
AcDbPolyline
 90
9
 70
1
 10
700.262501
 20
-5.01
 10
700.262501
 20
-4.719076923076923
 10
700.262501
 20
-4.39
 10
700.2507692923077
 20
-4.39
 10
700.237499
 20
-4.39
 10
700.237499
 20
-4.680923076923077
 10
700.237499
 20
-5.01
 10
700.2492307076923
 20
-5.01
 10
700.262501
 20
-5.01
  0
LWPOLYLINE
  5
43
330
17
100
AcDbEntity
  8
VISTA
100
AcDbPolyline
 90
13
 70
1
 10
699.390879
 20
-4.210879
 10
699.390001
 20
-4.213
 10
699.390001
 20
-4.347
 10
699.390879
 20
-4.349122
 10
699.393002
 20
-4.35
 10
699.437
 20
-4.35
 10
699.439123
 20
-4.349122
 10
699.440001
 20
-4.347
 10
699.440001
 20
-4.213
 10
699.439123
 20
-4.210879
 10
699.437
 20
-4.21
 10
699.393002
 20
-4.21
 10
699.390879
 20
-4.210879
  0
LWPOLYLINE
  5
44
330
17
100
AcDbEntity
  8
VISTA
100
AcDbPolyline
 90
13
 70
1
 10
700.200878
 20
-4.210879
 10
700.199999
 20
-4.213
 10
700.199999
 20
-4.347
 10
700.200878
 20
-4.349122
 10
700.202999
 20
-4.35
 10
701.806999
 20
-4.35
 10
701.80912
 20
-4.349122
 10
701.809999
 20
-4.347
 10
701.809999
 20
-4.213
 10
701.80912
 20
-4.210879
 10
701.806999
 20
-4.21
 10
700.202999
 20
-4.21
 10
700.200878
 20
-4.210879
  0
LWPOLYLINE
  5
45
330
17
100
AcDbEntity
  8
CORTE
100
AcDbPolyline
 90
5
 70
1
 10
699.25
 20
-6.1
 10
702.0
 20
-6.1
 10
702.0
 20
-5.9
 10
699.25
 20
-5.9
 10
699.25
 20
-6.1
  0
LWPOLYLINE
  5
46
330
17
100
AcDbEntity
  8
VISTA
100
AcDbPolyline
 90
7
 70
1
 10
701.2387330209718
 20
-6.148268120119839
 10
701.207822619324
 20
-6.139192003651344
 10
701.0643947163187
 20
-6.139192003651344
 10
701.032179380676
 20
-6.139192003651344
 10
700.9953706281416
 20
-6.15
 10
701.244631277769
 20
-6.15
 10
701.2387330209718
 20
-6.148268120119839
  0
DIMENSION
  5
47
330
17
100
AcDbEntity
  8
COTAS
100
AcDbDimension
280
0
  2
*D1
  3
Standard
 10
699.39
 20
-3.86
 30
0.0
 11
700.595
 21
-3.86
 31
0.0
 70
32
 71
5
  1
<>
100
AcDbAlignedDimension
 13
699.39
 23
-4.35
 33
0.0
 14
701.8
 24
-4.35
 34
0.0
 50
0.0
100
AcDbRotatedDimension
1001
ACAD
1000
DSTYLE
1002
{
1070
140
1040
0.13
1070
41
1040
0.09
1002
}
  0
DIMENSION
  5
5B
330
17
100
AcDbEntity
  8
COTAS
100
AcDbDimension
280
0
  2
*D2
  3
Standard
 10
702.25
 20
-4.35
 30
0.0
 11
702.25
 21
-5.125
 31
0.0
 70
32
 71
5
  1
<>
100
AcDbAlignedDimension
 13
701.8
 23
-4.35
 33
0.0
 14
701.8
 24
-5.9
 34
0.0
 50
90.0
100
AcDbRotatedDimension
1001
ACAD
1000
DSTYLE
1002
{
1070
140
1040
0.13
1070
41
1040
0.09
1002
}
  0
TEXT
  5
6B
330
17
100
AcDbEntity
  8
TEXTOS
100
AcDbText
 10
700.595
 20
-5.125
 30
0.0
 40
0.054000000000000006
  1
Piso +0.21
100
AcDbText
  0
LWPOLYLINE
  5
6C
330
17
100
AcDbEntity
  8
VISTA
100
AcDbPolyline
 90
4
 70
1
 10
739.39
 20
0.21
 10
741.8
 20
0.21
 10
741.8
 20
2.81
 10
739.39
 20
2.81
  0
LWPOLYLINE
  5
6D
330
17
100
AcDbEntity
  8
VISTA
100
AcDbPolyline
 90
5
 70
1
 10
741.200001
 20
1.049
 10
741.200001
 20
1.037
 10
741.16
 20
1.037
 10
741.16
 20
1.049
 10
741.200001
 20
1.049
  0
LWPOLYLINE
  5
6E
330
17
100
AcDbEntity
  8
VISTA
100
AcDbPolyline
 90
17
 70
1
 10
741.021526
 20
1.029656
 10
741.0415
 20
1.035
 10
741.318501
 20
1.035
 10
741.338474
 20
1.029656
 10
741.353157
 20
1.014974
 10
741.3585
 20
0.995
 10
741.3585
 20
0.735
 10
741.353157
 20
0.715026
 10
741.338474
 20
0.700344
 10
741.318501
 20
0.695
 10
741.0415
 20
0.695
 10
741.021526
 20
0.700344
 10
741.006844
 20
0.715026
 10
741.001501
 20
0.735
 10
741.001501
 20
0.995
 10
741.006844
 20
1.014974
 10
741.021526
 20
1.029656
  0
LWPOLYLINE
  5
6F
330
17
100
AcDbEntity
  8
VISTA
100
AcDbPolyline
 90
6
 70
1
 10
739.815001
 20
0.81
 10
740.280001
 20
0.81
 10
740.192499
 20
0.63
 10
739.8675
 20
0.63
 10
739.780001
 20
0.81
 10
739.815001
 20
0.81
  0
LWPOLYLINE
  5
70
330
17
100
AcDbEntity
  8
VISTA
100
AcDbPolyline
 90
5
 70
1
 10
741.385799
 20
0.73
 10
741.385799
 20
0.705
 10
740.974199
 20
0.705
 10
740.974199
 20
0.73
 10
741.385799
 20
0.73
  0
LWPOLYLINE
  5
71
330
17
100
AcDbEntity
  8
VISTA
100
AcDbPolyline
 90
5
 70
1
 10
739.615
 20
2.03
 10
739.664999
 20
2.03
 10
739.664999
 20
1.13
 10
739.615
 20
1.13
 10
739.615
 20
2.03
  0
LWPOLYLINE
  5
72
330
17
100
AcDbEntity
  8
VISTA
100
AcDbPolyline
 90
5
 70
1
 10
741.389999
 20
0.705
 10
741.3165
 20
0.155
 10
741.043501
 20
0.155
 10
740.969999
 20
0.705
 10
741.389999
 20
0.705
  0
LWPOLYLINE
  5
73
330
17
100
AcDbEntity
  8
VISTA
100
AcDbPolyline
 90
5
 70
1
 10
741.485001
 20
2.04
 10
741.485001
 20
1.92
 10
741.375
 20
1.92
 10
741.375
 20
2.04
 10
741.485001
 20
2.04
  0
LWPOLYLINE
  5
74
330
17
100
AcDbEntity
  8
VISTA
100
AcDbPolyline
 90
13
 70
1
 10
740.26
 20
0.261
 10
740.262636
 20
0.267364
 10
740.269001
 20
0.27
 10
741.591
 20
0.27
 10
741.597364
 20
0.267364
 10
741.6
 20
0.261
 10
741.6
 20
0.209
 10
741.597364
 20
0.202636
 10
741.591
 20
0.2
 10
740.269001
 20
0.2
 10
740.262636
 20
0.202636
 10
740.26
 20
0.209
 10
740.26
 20
0.261
  0
LWPOLYLINE
  5
75
330
17
100
AcDbEntity
  8
VISTA
100
AcDbPolyline
 90
5
 70
1
 10
740.237499
 20
2.235
 10
740.262501
 20
2.235
 10
740.262501
 20
0.285
 10
740.237499
 20
0.285
 10
740.237499
 20
2.235
  0
TEXT
  5
76
330
17
100
AcDbEntity
  8
TEXTOS
100
AcDbText
 10
739.4
 20
0.31
 30
0.0
 40
0.052000000000000005
  1
+0.21
100
AcDbText
  0
LWPOLYLINE
  5
77
330
17
100
AcDbEntity
  8
VISTA
100
AcDbPolyline
 90
7
 70
1
 10
779.318527
 20
-6.739354
 10
779.32
 20
-6.7365
 10
779.319355
 20
-6.181474
 10
779.3165
 20
-6.18
 10
779.15
 20
-6.18006743401048
 10
779.15
 20
-6.739422254963869
 10
779.318527
 20
-6.739354
  0
LWPOLYLINE
  5
78
330
17
100
AcDbEntity
  8
VISTA
100
AcDbPolyline
 90
4
 70
1
 10
779.31897
 20
-6.738254
 10
779.318254
 20
-6.73897
 10
779.318254
 20
-6.738254
 10
779.31897
 20
-6.738254
  0
LWPOLYLINE
  5
79
330
17
100
AcDbEntity
  8
VISTA
100
AcDbPolyline
 90
4
 70
1
 10
779.318254
 20
-6.18103
 10
779.31897
 20
-6.181746
 10
779.318254
 20
-6.181746
 10
779.318254
 20
-6.18103
  0
LWPOLYLINE
  5
7A
330
17
100
AcDbEntity
  8
VISTA
100
AcDbPolyline
 90
5
 70
1
 10
779.15
 20
-5.955
 10
779.15
 20
-6.005
 10
781.780001
 20
-6.005
 10
781.780001
 20
-5.955
 10
779.15
 20
-5.955
  0
LWPOLYLINE
  5
7B
330
17
100
AcDbEntity
  8
VISTA
100
AcDbPolyline
 90
5
 70
1
 10
781.005001
 20
-8.700001
 10
781.005001
 20
-8.85
 10
781.735001
 20
-8.85
 10
781.735001
 20
-8.700001
 10
781.005001
 20
-8.700001
  0
LWPOLYLINE
  5
7C
330
17
100
AcDbEntity
  8
VISTA
100
AcDbPolyline
 90
5
 70
1
 10
781.005001
 20
-8.17
 10
781.005001
 20
-8.85
 10
781.735001
 20
-8.85
 10
781.735001
 20
-8.17
 10
781.005001
 20
-8.17
  0
LWPOLYLINE
  5
7D
330
17
100
AcDbEntity
  8
VISTA
100
AcDbPolyline
 90
5
 70
1
 10
779.15
 20
-8.325001
 10
779.15
 20
-8.375
 10
779.25
 20
-8.375
 10
779.25
 20
-8.325001
 10
779.15
 20
-8.325001
  0
LWPOLYLINE
  5
7E
330
17
100
AcDbEntity
  8
VISTA
100
AcDbPolyline
 90
5
 70
1
 10
779.15
 20
-6.525
 10
779.15
 20
-6.575
 10
779.25
 20
-6.575
 10
779.25
 20
-6.525
 10
779.15
 20
-6.525
  0
LWPOLYLINE
  5
7F
330
17
100
AcDbEntity
  8
VISTA
100
AcDbPolyline
 90
5
 70
1
 10
779.455
 20
-5.98
 10
779.455
 20
-8.54
 10
779.504999
 20
-8.54
 10
779.504999
 20
-5.98
 10
779.455
 20
-5.98
  0
LWPOLYLINE
  5
80
330
17
100
AcDbEntity
  8
VISTA
100
AcDbPolyline
 90
5
 70
1
 10
779.480001
 20
-8.705
 10
779.480001
 20
-8.754999
 10
781.92
 20
-8.754999
 10
781.92
 20
-8.705
 10
779.480001
 20
-8.705
  0
LWPOLYLINE
  5
81
330
17
100
AcDbEntity
  8
VISTA
100
AcDbPolyline
 90
6
 70
1
 10
780.9807116020269
 20
-8.85
 10
781.42
 20
-8.85
 10
781.42
 20
-8.8367
 10
781.418301
 20
-8.835
 10
780.980717
 20
-8.835314
 10
780.9807116020269
 20
-8.85
  0
LWPOLYLINE
  5
82
330
17
100
AcDbEntity
  8
VISTA
100
AcDbPolyline
 90
7
 70
1
 10
779.318527
 20
-6.739354
 10
779.32
 20
-6.7365
 10
779.319355
 20
-6.181474
 10
779.3165
 20
-6.18
 10
779.15
 20
-6.18006743401048
 10
779.15
 20
-6.739422254963869
 10
779.318527
 20
-6.739354
  0
LWPOLYLINE
  5
83
330
17
100
AcDbEntity
  8
VISTA
100
AcDbPolyline
 90
4
 70
1
 10
779.31897
 20
-6.738254
 10
779.318254
 20
-6.73897
 10
779.318254
 20
-6.738254
 10
779.31897
 20
-6.738254
  0
LWPOLYLINE
  5
84
330
17
100
AcDbEntity
  8
VISTA
100
AcDbPolyline
 90
4
 70
1
 10
779.318254
 20
-6.18103
 10
779.31897
 20
-6.181746
 10
779.318254
 20
-6.181746
 10
779.318254
 20
-6.18103
  0
LWPOLYLINE
  5
85
330
17
100
AcDbEntity
  8
VISTA
100
AcDbPolyline
 90
7
 70
1
 10
779.343315
 20
-8.474262
 10
779.344999
 20
-8.471001
 10
779.344261
 20
-8.226685
 10
779.341
 20
-8.225
 10
779.15
 20
-8.225332649882047
 10
779.15
 20
-8.474598226939356
 10
779.343315
 20
-8.474262
  0
LWPOLYLINE
  5
86
330
17
100
AcDbEntity
  8
VISTA
100
AcDbPolyline
 90
4
 70
1
 10
779.343309
 20
-8.226691
 10
779.342794
 20
-8.226473
 10
779.343527
 20
-8.226473
 10
779.343309
 20
-8.226691
  0
LWPOLYLINE
  5
87
330
17
100
AcDbEntity
  8
VISTA
100
AcDbPolyline
 90
4
 70
1
 10
779.343527
 20
-8.473528
 10
779.342794
 20
-8.473528
 10
779.343309
 20
-8.47331
 10
779.343527
 20
-8.473528
  0
LWPOLYLINE
  5
88
330
17
100
AcDbEntity
  8
VISTA
100
AcDbPolyline
 90
7
 70
1
 10
779.343315
 20
-8.774261
 10
779.344999
 20
-8.771
 10
779.344261
 20
-8.526684
 10
779.341
 20
-8.525
 10
779.15
 20
-8.525332199746888
 10
779.15
 20
-8.774597682531414
 10
779.343315
 20
-8.774261
  0
LWPOLYLINE
  5
89
330
17
100
AcDbEntity
  8
VISTA
100
AcDbPolyline
 90
4
 70
1
 10
779.343309
 20
-8.52669
 10
779.342794
 20
-8.526472
 10
779.343527
 20
-8.526472
 10
779.343309
 20
-8.52669
  0
LWPOLYLINE
  5
8A
330
17
100
AcDbEntity
  8
VISTA
100
AcDbPolyline
 90
4
 70
1
 10
779.343527
 20
-8.773527
 10
779.342794
 20
-8.773527
 10
779.343309
 20
-8.773309
 10
779.343527
 20
-8.773527
  0
LWPOLYLINE
  5
8B
330
17
100
AcDbEntity
  8
VISTA
100
AcDbPolyline
 90
21
 70
1
 10
779.779999
 20
-8.839998
 10
779.77879
 20
-8.714872
 10
779.775127
 20
-8.680291
 10
779.768898
 20
-8.656896
 10
779.759872
 20
-8.639565
 10
779.747641
 20
-8.626498
 10
779.731415
 20
-8.616858
 10
779.709513
 20
-8.610203
 10
779.677139
 20
-8.606291
 10
779.559999
 20
-8.605
 10
779.44286
 20
-8.606291
 10
779.410486
 20
-8.610203
 10
779.388584
 20
-8.616858
 10
779.372358
 20
-8.626498
 10
779.360126
 20
-8.639565
 10
779.351101
 20
-8.656896
 10
779.344872
 20
-8.680291
 10
779.341209
 20
-8.714872
 10
779.341209
 20
-8.85
 10
779.7799023596158
 20
-8.85
 10
779.779999
 20
-8.839998
  0
LWPOLYLINE
  5
8C
330
17
100
AcDbEntity
  8
VISTA
100
AcDbPolyline
 90
49
 70
1
 10
780.053667
 20
-8.001822
 10
780.046099
 20
-8.038073
 10
780.041529
 20
-8.078627
 10
780.040001
 20
-8.13
 10
780.041529
 20
-8.181374
 10
780.046099
 20
-8.221928
 10
780.053667
 20
-8.258178
 10
780.064169
 20
-8.290888
 10
780.077509
 20
-8.320186
 10
780.093584
 20
-8.346004
 10
780.11228
 20
-8.368201
 10
780.133495
 20
-8.386625
 10
780.157183
 20
-8.401126
 10
780.183432
 20
-8.411579
 10
780.212799
 20
-8.41789
 10
780.25
 20
-8.42
 10
780.287201
 20
-8.41789
 10
780.316568
 20
-8.411579
 10
780.342817
 20
-8.401126
 10
780.366505
 20
-8.386625
 10
780.38772
 20
-8.368201
 10
780.406416
 20
-8.346004
 10
780.422491
 20
-8.320186
 10
780.435831
 20
-8.290888
 10
780.446333
 20
-8.258178
 10
780.453901
 20
-8.221928
 10
780.458471
 20
-8.181374
 10
780.459999
 20
-8.13
 10
780.458471
 20
-8.078627
 10
780.453901
 20
-8.038073
 10
780.446333
 20
-8.001822
 10
780.435831
 20
-7.969112
 10
780.422491
 20
-7.939814
 10
780.406416
 20
-7.913997
 10
780.38772
 20
-7.891798
 10
780.366505
 20
-7.873375
 10
780.342817
 20
-7.858874
 10
780.316568
 20
-7.848421
 10
780.287201
 20
-7.84211
 10
780.25
 20
-7.84
 10
780.212799
 20
-7.84211
 10
780.183432
 20
-7.848421
 10
780.157183
 20
-7.858874
 10
780.133495
 20
-7.873375
 10
780.11228
 20
-7.891798
 10
780.093584
 20
-7.913997
 10
780.077509
 20
-7.939814
 10
780.064169
 20
-7.969112
 10
780.053667
 20
-8.001822
  0
LWPOLYLINE
  5
8D
330
17
100
AcDbEntity
  8
VISTA
100
AcDbPolyline
 90
4
 70
1
 10
780.1018230568889
 20
-8.196804738872025
 10
780.1018230572179
 20
-8.196804738723666
 10
780.1018230570626
 20
-8.196804738793697
 10
780.1018230568889
 20
-8.196804738872025
  0
LWPOLYLINE
  5
8E
330
17
100
AcDbEntity
  8
VISTA
100
AcDbPolyline
 90
4
 70
1
 10
780.3395182052519
 20
-7.975169243691237
 10
780.3395182052519
 20
-7.975169243691239
 10
780.3395182052519
 20
-7.975169243691236
 10
780.3395182052519
 20
-7.975169243691237
  0
LWPOLYLINE
  5
8F
330
17
100
AcDbEntity
  8
VISTA
100
AcDbPolyline
 90
4
 70
1
 10
780.3334160331578
 20
-7.985723007329679
 10
780.3334160331354
 20
-7.985723007368327
 10
780.3334160331684
 20
-7.985723007311348
 10
780.3334160331578
 20
-7.985723007329679
  0
LWPOLYLINE
  5
90
330
17
100
AcDbEntity
  8
VISTA
100
AcDbPolyline
 90
49
 70
1
 10
780.729643
 20
-7.984143
 10
780.721533
 20
-8.025393
 10
780.716637
 20
-8.07154
 10
780.715
 20
-8.13
 10
780.716637
 20
-8.188459
 10
780.721533
 20
-8.234607
 10
780.729643
 20
-8.275857
 10
780.740894
 20
-8.313079
 10
780.755188
 20
-8.346418
 10
780.772411
 20
-8.375796
 10
780.792442
 20
-8.401057
 10
780.815174
 20
-8.422022
 10
780.840551
 20
-8.438522
 10
780.868677
 20
-8.450418
 10
780.900141
 20
-8.457599
 10
780.940001
 20
-8.46
 10
780.979858
 20
-8.457599
 10
781.011322
 20
-8.450418
 10
781.039448
 20
-8.438522
 10
781.064827
 20
-8.422022
 10
781.087559
 20
-8.401057
 10
781.107588
 20
-8.375796
 10
781.124811
 20
-8.346418
 10
781.139105
 20
-8.313079
 10
781.150356
 20
-8.275857
 10
781.158466
 20
-8.234607
 10
781.163363
 20
-8.188459
 10
781.165001
 20
-8.13
 10
781.163363
 20
-8.07154
 10
781.158466
 20
-8.025393
 10
781.150356
 20
-7.984143
 10
781.139105
 20
-7.946921
 10
781.124811
 20
-7.913582
 10
781.107588
 20
-7.884203
 10
781.087559
 20
-7.858943
 10
781.064827
 20
-7.837978
 10
781.039448
 20
-7.821477
 10
781.011322
 20
-7.809583
 10
780.979858
 20
-7.802401
 10
780.940001
 20
-7.8
 10
780.900141
 20
-7.802401
 10
780.868677
 20
-7.809583
 10
780.840551
 20
-7.821477
 10
780.815174
 20
-7.837978
 10
780.792442
 20
-7.858943
 10
780.772411
 20
-7.884203
 10
780.755188
 20
-7.913582
 10
780.740894
 20
-7.946921
 10
780.729643
 20
-7.984143
  0
LWPOLYLINE
  5
91
330
17
100
AcDbEntity
  8
VISTA
100
AcDbPolyline
 90
4
 70
1
 10
781.10930142183
 20
-8.211065382478578
 10
781.1093014217727
 20
-8.211065382451173
 10
781.1093014218548
 20
-8.211065382490434
 10
781.10930142183
 20
-8.211065382478578
  0
LWPOLYLINE
  5
92
330
17
100
AcDbEntity
  8
VISTA
100
AcDbPolyline
 90
49
 70
1
 10
780.480209
 20
-6.595468
 10
780.466166
 20
-6.636786
 10
780.457787
 20
-6.691659
 10
780.455
 20
-6.82
 10
780.457787
 20
-6.948341
 10
780.466166
 20
-7.003214
 10
780.480209
 20
-7.044532
 10
780.500042
 20
-7.078028
 10
780.525881
 20
-7.105834
 10
780.558069
 20
-7.128983
 10
780.597172
 20
-7.148038
 10
780.644142
 20
-7.163335
 10
780.700724
 20
-7.175076
 10
780.770515
 20
-7.18339
 10
780.863209
 20
-7.188351
 10
781.08
 20
-7.19
 10
781.296791
 20
-7.188351
 10
781.389484
 20
-7.18339
 10
781.459276
 20
-7.175076
 10
781.515858
 20
-7.163335
 10
781.562828
 20
-7.148038
 10
781.601931
 20
-7.128983
 10
781.634119
 20
-7.105834
 10
781.659958
 20
-7.078028
 10
781.67979
 20
-7.044532
 10
781.693834
 20
-7.003214
 10
781.702213
 20
-6.948341
 10
781.705
 20
-6.82
 10
781.702213
 20
-6.691659
 10
781.693834
 20
-6.636786
 10
781.67979
 20
-6.595468
 10
781.659958
 20
-6.561973
 10
781.634119
 20
-6.534166
 10
781.601931
 20
-6.511017
 10
781.562828
 20
-6.491962
 10
781.515858
 20
-6.476665
 10
781.459276
 20
-6.464924
 10
781.389484
 20
-6.45661
 10
781.296791
 20
-6.451649
 10
781.08
 20
-6.45
 10
780.863209
 20
-6.451649
 10
780.770515
 20
-6.45661
 10
780.700724
 20
-6.464924
 10
780.644142
 20
-6.476665
 10
780.597172
 20
-6.491962
 10
780.558069
 20
-6.511017
 10
780.525881
 20
-6.534166
 10
780.500042
 20
-6.561973
 10
780.480209
 20
-6.595468
  0
LWPOLYLINE
  5
93
330
17
100
AcDbEntity
  8
VISTA
100
AcDbPolyline
 90
4
 70
1
 10
781.2388428054642
 20
-6.550110372293472
 10
781.238842805432
 20
-6.550110372348269
 10
781.238842805447
 20
-6.550110372322738
 10
781.2388428054642
 20
-6.550110372293472
  0
LWPOLYLINE
  5
94
330
17
100
AcDbEntity
  8
VISTA
100
AcDbPolyline
 90
4
 70
1
 10
780.6004274615136
 20
-6.918918846257867
 10
780.600427461491
 20
-6.9189188462625415
 10
780.6004274614955
 20
-6.91891884626159
 10
780.6004274615136
 20
-6.918918846257867
  0
LWPOLYLINE
  5
95
330
17
100
AcDbEntity
  8
VISTA
100
AcDbPolyline
 90
42
 70
1
 10
780.745537
 20
-7.977551
 10
780.7289940000001
 20
-8.036122
 10
780.720562
 20
-8.098301
 10
780.7195
 20
-8.13
 10
780.720562
 20
-8.161698
 10
780.7289940000001
 20
-8.223878
 10
780.736284
 20
-8.253759
 10
780.75666
 20
-8.309671
 10
780.76955
 20
-8.335163
 10
780.800116
 20
-8.379992
 10
780.836058
 20
-8.415214
 10
780.875992
 20
-8.439474
 10
780.896982
 20
-8.447186
 10
780.918386
 20
-8.451842
 10
780.940001
 20
-8.4534
 10
780.9616129999999
 20
-8.451842
 10
780.983017
 20
-8.447186
 10
781.004007
 20
-8.439474
 10
781.043943
 20
-8.415214
 10
781.079884
 20
-8.379992
 10
781.095917
 20
-8.358678
 10
781.110449
 20
-8.335163
 10
781.134464
 20
-8.28245
 10
781.151005
 20
-8.223878
 10
781.159439
 20
-8.161698
 10
781.159439
 20
-8.098301
 10
781.151005
 20
-8.036122
 10
781.143715
 20
-8.00624
 10
781.123339
 20
-7.950328
 10
781.095917
 20
-7.901322
 10
781.062504
 20
-7.861103
 10
781.024382
 20
-7.831217
 10
780.983017
 20
-7.812814
 10
780.9616129999999
 20
-7.808157
 10
780.940001
 20
-7.8066
 10
780.918386
 20
-7.808157
 10
780.896982
 20
-7.812814
 10
780.855618
 20
-7.831217
 10
780.817497
 20
-7.861103
 10
780.800116
 20
-7.880008
 10
780.76955
 20
-7.924837
 10
780.745537
 20
-7.977551
  0
LWPOLYLINE
  5
96
330
17
100
AcDbEntity
  8
VISTA
100
AcDbPolyline
 90
37
 70
1
 10
780.823063
 20
-8.301509
 10
780.802496
 20
-8.264753
 10
780.787214
 20
-8.22282
 10
780.781746
 20
-8.200409
 10
780.775421
 20
-8.153774
 10
780.775421
 20
-8.106226
 10
780.781746
 20
-8.059591
 10
780.787214
 20
-8.03718
 10
780.802496
 20
-7.995246
 10
780.812164
 20
-7.976128
 10
780.835087
 20
-7.942506
 10
780.862043
 20
-7.91609
 10
780.876713
 20
-7.905913
 10
780.907738
 20
-7.89211
 10
780.940001
 20
-7.88745
 10
780.972263
 20
-7.89211
 10
781.003286
 20
-7.905913
 10
781.031878
 20
-7.928327
 10
781.056938
 20
-7.958491
 10
781.067837
 20
-7.976128
 10
781.0858479999999
 20
-8.015663
 10
781.092787
 20
-8.03718
 10
781.102198
 20
-8.082681
 10
781.105375
 20
-8.13
 10
781.102198
 20
-8.17732
 10
781.092787
 20
-8.22282
 10
781.077505
 20
-8.264753
 10
781.056938
 20
-8.301509
 10
781.031878
 20
-8.331673
 10
781.017958
 20
-8.34391
 10
780.988007
 20
-8.362106
 10
780.956209
 20
-8.371382
 10
780.92379
 20
-8.371382
 10
780.891994
 20
-8.362106
 10
780.876713
 20
-8.354087
 10
780.848122
 20
-8.331673
 10
780.823063
 20
-8.301509
  0
LWPOLYLINE
  5
97
330
17
100
AcDbEntity
  8
VISTA
100
AcDbPolyline
 90
9
 70
1
 10
779.5235
 20
-7.07
 10
780.036501
 20
-7.07
 10
780.039354
 20
-7.068526
 10
780.040001
 20
-6.3735
 10
780.038527
 20
-6.370646
 10
779.5235
 20
-6.37
 10
779.520647
 20
-6.371473
 10
779.520647
 20
-7.068526
 10
779.5235
 20
-7.07
  0
LWPOLYLINE
  5
98
330
17
100
AcDbEntity
  8
VISTA
100
AcDbPolyline
 90
4
 70
1
 10
779.521748
 20
-7.068254
 10
779.521748
 20
-7.06897
 10
779.52103
 20
-7.068254
 10
779.521748
 20
-7.068254
  0
LWPOLYLINE
  5
99
330
17
100
AcDbEntity
  8
VISTA
100
AcDbPolyline
 90
4
 70
1
 10
779.521748
 20
-6.37103
 10
779.521748
 20
-6.371746
 10
779.52103
 20
-6.371746
 10
779.521748
 20
-6.37103
  0
LWPOLYLINE
  5
9A
330
17
100
AcDbEntity
  8
VISTA
100
AcDbPolyline
 90
4
 70
1
 10
780.038971
 20
-7.068254
 10
780.038254
 20
-7.06897
 10
780.038254
 20
-7.068254
 10
780.038971
 20
-7.068254
  0
LWPOLYLINE
  5
9B
330
17
100
AcDbEntity
  8
VISTA
100
AcDbPolyline
 90
4
 70
1
 10
780.038254
 20
-6.37103
 10
780.038971
 20
-6.371746
 10
780.038254
 20
-6.371746
 10
780.038254
 20
-6.37103
  0
LWPOLYLINE
  5
9C
330
17
100
AcDbEntity
  8
VISTA
100
AcDbPolyline
 90
10
 70
1
 10
779.370001
 20
-6.942
 10
779.373369
 20
-6.948523
 10
779.982
 20
-6.95
 10
779.988523
 20
-6.946631
 10
779.99
 20
-6.518
 10
779.986631
 20
-6.511477
 10
779.378
 20
-6.51
 10
779.372343
 20
-6.512343
 10
779.370001
 20
-6.518
 10
779.370001
 20
-6.942
  0
LWPOLYLINE
  5
9D
330
17
100
AcDbEntity
  8
VISTA
100
AcDbPolyline
 90
5
 70
1
 10
781.114
 20
-6.58
 10
781.114
 20
-6.2
 10
781.086
 20
-6.2
 10
781.086
 20
-6.58
 10
781.114
 20
-6.58
  0
LWPOLYLINE
  5
9E
330
17
100
AcDbEntity
  8
VISTA
100
AcDbPolyline
 90
8
 70
1
 10
781.101829243337
 20
-8.85
 10
781.129
 20
-8.85
 10
781.129
 20
-8.828
 10
781.12812
 20
-8.825879
 10
781.125999
 20
-8.825
 10
781.104
 20
-8.825
 10
781.101879
 20
-8.825879
 10
781.101829243337
 20
-8.85
  0
LWPOLYLINE
  5
9F
330
17
100
AcDbEntity
  8
VISTA
100
AcDbPolyline
 90
4
 70
1
 10
781.127502
 20
-8.826497
 10
781.127502
 20
-8.825883
 10
781.12812
 20
-8.825879
 10
781.127502
 20
-8.826497
  0
LWPOLYLINE
  5
A0
330
17
100
AcDbEntity
  8
VISTA
100
AcDbPolyline
 90
4
 70
1
 10
781.102497
 20
-8.826497
 10
781.101883
 20
-8.826497
 10
781.101879
 20
-8.825879
 10
781.102497
 20
-8.826497
  0
LWPOLYLINE
  5
A1
330
17
100
AcDbEntity
  8
VISTA
100
AcDbPolyline
 90
10
 70
1
 10
779.360001
 20
-6.974
 10
779.362528
 20
-6.978892
 10
780.034
 20
-6.98
 10
780.038893
 20
-6.977474
 10
780.040001
 20
-6.486
 10
780.037474
 20
-6.481108
 10
779.366001
 20
-6.48
 10
779.361757
 20
-6.481757
 10
779.360001
 20
-6.486
 10
779.360001
 20
-6.974
  0
LWPOLYLINE
  5
A2
330
17
100
AcDbEntity
  8
VISTA
100
AcDbPolyline
 90
8
 70
1
 10
781.1350142162107
 20
-8.85
 10
781.7839101582418
 20
-8.85
 10
781.783892
 20
-8.817527
 10
781.778999
 20
-8.815001
 10
781.140999
 20
-8.815001
 10
781.136757
 20
-8.816758
 10
781.134998
 20
-8.821
 10
781.1350142162107
 20
-8.85
  0
LWPOLYLINE
  5
A3
330
17
100
AcDbEntity
  8
VISTA
100
AcDbPolyline
 90
8
 70
1
 10
779.824999
 20
-8.85
 10
781.0948431031998
 20
-8.85
 10
781.094999
 20
-8.771
 10
781.092472
 20
-8.766108
 10
779.830999
 20
-8.765
 10
779.826756
 20
-8.766758
 10
779.824999
 20
-8.771
 10
779.824999
 20
-8.85
  0
LWPOLYLINE
  5
A4
330
17
100
AcDbEntity
  8
VISTA
100
AcDbPolyline
 90
9
 70
1
 10
780.465
 20
-8.493501
 10
780.463976
 20
-8.491026
 10
780.4615
 20
-8.490001
 10
780.438501
 20
-8.490001
 10
780.436026
 20
-8.491026
 10
780.435001
 20
-8.493501
 10
780.4354152902405
 20
-8.85
 10
780.465
 20
-8.85
 10
780.465
 20
-8.493501
  0
LWPOLYLINE
  5
A5
330
17
100
AcDbEntity
  8
VISTA
100
AcDbPolyline
 90
4
 70
1
 10
780.436747
 20
-8.491031
 10
780.436747
 20
-8.491747
 10
780.436031
 20
-8.491747
 10
780.436747
 20
-8.491031
  0
LWPOLYLINE
  5
A6
330
17
100
AcDbEntity
  8
VISTA
100
AcDbPolyline
 90
4
 70
1
 10
780.4360283439275
 20
-8.491363994359865
 10
780.436289
 20
-8.491289
 10
780.4360283439275
 20
-8.491363994359867
 10
780.4360283439275
 20
-8.491363994359865
  0
LWPOLYLINE
  5
A7
330
17
100
AcDbEntity
  8
VISTA
100
AcDbPolyline
 90
4
 70
1
 10
780.463255
 20
-8.491031
 10
780.46397
 20
-8.491747
 10
780.463255
 20
-8.491747
 10
780.463255
 20
-8.491031
  0
LWPOLYLINE
  5
A8
330
17
100
AcDbEntity
  8
VISTA
100
AcDbPolyline
 90
8
 70
1
 10
781.0700242364138
 20
-8.85
 10
781.7889191505702
 20
-8.85
 10
781.788893
 20
-8.802526
 10
781.784
 20
-8.8
 10
781.076
 20
-8.8
 10
781.071758
 20
-8.801758
 10
781.07
 20
-8.806001
 10
781.0700242364138
 20
-8.85
  0
LWPOLYLINE
  5
A9
330
17
100
AcDbEntity
  8
VISTA
100
AcDbPolyline
 90
8
 70
1
 10
779.775002
 20
-8.85
 10
781.1247894866103
 20
-8.85
 10
781.125
 20
-8.726
 10
781.122475
 20
-8.721107
 10
779.781
 20
-8.72
 10
779.776758
 20
-8.721758
 10
779.775002
 20
-8.726
 10
779.775002
 20
-8.85
  0
LWPOLYLINE
  5
AA
330
17
100
AcDbEntity
  8
VISTA
100
AcDbPolyline
 90
17
 70
1
 10
780.748751
 20
-8.432199
 10
780.754095
 20
-8.452173
 10
780.768776
 20
-8.466856
 10
780.78875
 20
-8.472199
 10
781.091251
 20
-8.472199
 10
781.111225
 20
-8.466856
 10
781.125906
 20
-8.452173
 10
781.13125
 20
-8.432199
 10
781.13125
 20
-8.3822
 10
781.125906
 20
-8.362226
 10
781.111225
 20
-8.347544
 10
781.091251
 20
-8.3422
 10
780.78875
 20
-8.3422
 10
780.768776
 20
-8.347544
 10
780.754095
 20
-8.362226
 10
780.748751
 20
-8.3822
 10
780.748751
 20
-8.432199
  0
LWPOLYLINE
  5
AB
330
17
100
AcDbEntity
  8
VISTA
100
AcDbPolyline
 90
14
 70
1
 10
779.6951731171825
 20
-8.85
 10
779.8050049559525
 20
-8.85
 10
779.805021
 20
-8.696313
 10
779.80039
 20
-8.647917
 10
779.796818
 20
-8.633515
 10
779.791536
 20
-8.623233
 10
779.782396
 20
-8.617059
 10
779.749784
 20
-8.614999
 10
779.717457
 20
-8.617059
 10
779.708988
 20
-8.623233
 10
779.703297
 20
-8.633515
 10
779.699339
 20
-8.647917
 10
779.695179
 20
-8.696313
 10
779.6951731171825
 20
-8.85
  0
LWPOLYLINE
  5
AC
330
17
100
AcDbEntity
  8
VISTA
100
AcDbPolyline
 90
49
 70
1
 10
779.533701
 20
-6.661117
 10
779.526133
 20
-6.683413
 10
779.52154
 20
-6.706505
 10
779.52
 20
-6.73
 10
779.52154
 20
-6.753495
 10
779.526133
 20
-6.776587
 10
779.533701
 20
-6.798883
 10
779.544115
 20
-6.82
 10
779.557196
 20
-6.839577
 10
779.572721
 20
-6.857279
 10
779.590424
 20
-6.872804
 10
779.610001
 20
-6.885885
 10
779.631117
 20
-6.896298
 10
779.653412
 20
-6.903867
 10
779.676506
 20
-6.90846
 10
779.700001
 20
-6.91
 10
779.723495
 20
-6.90846
 10
779.746588
 20
-6.903867
 10
779.768883
 20
-6.896298
 10
779.790001
 20
-6.885885
 10
779.809578
 20
-6.872804
 10
779.82728
 20
-6.857279
 10
779.842804
 20
-6.839577
 10
779.855885
 20
-6.82
 10
779.866299
 20
-6.798883
 10
779.873867
 20
-6.776587
 10
779.87846
 20
-6.753495
 10
779.879999
 20
-6.73
 10
779.87846
 20
-6.706505
 10
779.873867
 20
-6.683413
 10
779.866299
 20
-6.661117
 10
779.855885
 20
-6.64
 10
779.842804
 20
-6.620423
 10
779.82728
 20
-6.602721
 10
779.809578
 20
-6.587196
 10
779.790001
 20
-6.574115
 10
779.768883
 20
-6.563702
 10
779.746588
 20
-6.556133
 10
779.723495
 20
-6.55154
 10
779.700001
 20
-6.55
 10
779.676506
 20
-6.55154
 10
779.653412
 20
-6.556133
 10
779.631117
 20
-6.563702
 10
779.610001
 20
-6.574115
 10
779.590424
 20
-6.587196
 10
779.572721
 20
-6.602721
 10
779.557196
 20
-6.620423
 10
779.544115
 20
-6.64
 10
779.533701
 20
-6.661117
  0
LWPOLYLINE
  5
AD
330
17
100
AcDbEntity
  8
VISTA
100
AcDbPolyline
 90
8
 70
1
 10
779.405001
 20
-8.1983
 10
779.4067
 20
-8.2
 10
779.4333
 20
-8.2
 10
779.434999
 20
-8.1983
 10
779.434999
 20
-7.6417
 10
779.4333
 20
-7.64
 10
779.405716
 20
-7.640314
 10
779.405001
 20
-8.1983
  0
LWPOLYLINE
  5
AE
330
17
100
AcDbEntity
  8
VISTA
100
AcDbPolyline
 90
7
 70
1
 10
779.91
 20
-6.743
 10
779.921259
 20
-6.7365
 10
779.921259
 20
-6.7235
 10
779.91
 20
-6.717
 10
779.719999
 20
-6.717
 10
779.719999
 20
-6.743
 10
779.91
 20
-6.743
  0
LWPOLYLINE
  5
AF
330
17
100
AcDbEntity
  8
CORTE
100
AcDbPolyline
 90
22
 70
1
 10
781.8010283089941
 20
-6.001660746317769
 10
781.800831
 20
-6.001895
 10
781.8003367800063
 20
-6.003442407552492
 10
781.799999
 20
-6.0045
 10
781.799999
 20
-8.85
 10
782.0
 20
-8.85
 10
782.0
 20
-6.0045
 10
781.9996622199938
 20
-6.003442407552492
 10
781.999168
 20
-6.001895
 10
781.998970691006
 20
-6.001660746317769
 10
781.998682
 20
-6.001318
 10
781.9984473403322
 20
-6.00112028502037
 10
781.998104
 20
-6.000831
 10
781.9970472195237
 20
-6.000493625979317
 10
781.995501
 20
-6.0
 10
781.9179569413977
 20
-6.0
 10
781.804499
 20
-6.0
 10
781.803441813538
 20
-6.000337374020683
 10
781.801895
 20
-6.000831
 10
781.8016603403322
 20
-6.00102871497963
 10
781.801317
 20
-6.001318
 10
781.8010283089941
 20
-6.001660746317769
  0
LWPOLYLINE
  5
B0
330
17
100
AcDbEntity
  8
CORTE
100
AcDbPolyline
 90
41
 70
1
 10
779.4210608153959
 20
-8.571624340569135
 10
779.420832
 20
-8.571896
 10
779.4203917168917
 20
-8.573274001459321
 10
779.42
 20
-8.5745
 10
779.42
 20
-8.643823951295149
 10
779.42
 20
-8.705501
 10
779.4204402831084
 20
-8.70687900145932
 10
779.420832
 20
-8.708105
 10
779.4210891846042
 20
-8.708410340569134
 10
779.421318
 20
-8.708682
 10
779.4216238697555
 20
-8.708939713790587
 10
779.421896
 20
-8.709169
 10
779.4232745306457
 20
-8.709608753921927
 10
779.424501
 20
-8.71
 10
780.7744550494346
 20
-8.71
 10
781.9755
 20
-8.71
 10
781.9768790598322
 20
-8.709560246078073
 10
781.978106
 20
-8.709169
 10
781.9784113405691
 20
-8.708911286209412
 10
781.978683
 20
-8.708682
 10
781.9789122862094
 20
-8.708410340569134
 10
781.97917
 20
-8.708105
 10
781.9795612460781
 20
-8.70687900145932
 10
781.980001
 20
-8.705501
 10
781.980001
 20
-8.643823951295149
 10
781.980001
 20
-8.5745
 10
781.979609753922
 20
-8.573274001459321
 10
781.97917
 20
-8.571896
 10
781.9789407137906
 20
-8.571624340569135
 10
781.978683
 20
-8.571319
 10
781.9784113405691
 20
-8.571089242977017
 10
781.978106
 20
-8.570831
 10
781.9768790598322
 20
-8.570440224735497
 10
781.9755
 20
-8.570001
 10
780.7744550494346
 20
-8.570001
 10
779.424501
 20
-8.570001
 10
779.4232745306457
 20
-8.570391775264502
 10
779.421896
 20
-8.570831
 10
779.4216238697555
 20
-8.571060757022984
 10
779.421318
 20
-8.571319
 10
779.4210608153959
 20
-8.571624340569135
  0
LWPOLYLINE
  5
B1
330
17
100
AcDbEntity
  8
CORTE
100
AcDbPolyline
 90
41
 70
1
 10
779.351060647209
 20
-6.101622288033564
 10
779.35083
 20
-6.101895
 10
779.3503922893104
 20
-6.10326877873039
 10
779.35
 20
-6.1045
 10
779.35
 20
-6.6323896388179495
 10
779.35
 20
-7.1055
 10
779.3504377106896
 20
-7.106873778730391
 10
779.35083
 20
-7.108105
 10
779.351087352791
 20
-7.108409288033564
 10
779.351318
 20
-7.108682
 10
779.3516217606713
 20
-7.108938825428676
 10
779.351894
 20
-7.109169
 10
779.3532683060927
 20
-7.109607238051806
 10
779.3545
 20
-7.11
 10
779.423584458227
 20
-7.11
 10
779.4855
 20
-7.11
 10
779.4868743060927
 20
-7.109561761948194
 10
779.488106
 20
-7.109169
 10
779.4884097606713
 20
-7.108912174571324
 10
779.488682
 20
-7.108682
 10
779.4889126472091
 20
-7.108409288033564
 10
779.4891700000001
 20
-7.108105
 10
779.4895622893105
 20
-7.106873778730391
 10
779.49
 20
-7.1055
 10
779.49
 20
-6.6323896388179495
 10
779.49
 20
-6.1045
 10
779.4896077106895
 20
-6.10326877873039
 10
779.4891700000001
 20
-6.101895
 10
779.4889393527909
 20
-6.101622288033564
 10
779.488682
 20
-6.101318
 10
779.4884097606713
 20
-6.101087825428676
 10
779.488106
 20
-6.100831
 10
779.4868743060927
 20
-6.100438238051806
 10
779.4855
 20
-6.1
 10
779.423584458227
 20
-6.1
 10
779.3545
 20
-6.1
 10
779.3532683060927
 20
-6.100392761948194
 10
779.351894
 20
-6.100831
 10
779.3516217606713
 20
-6.101061174571324
 10
779.351318
 20
-6.101318
 10
779.351060647209
 20
-6.101622288033564
  0
LWPOLYLINE
  5
B2
330
17
100
AcDbEntity
  8
CORTE
100
AcDbPolyline
 90
41
 70
1
 10
779.351060647209
 20
-8.011621760671288
 10
779.35083
 20
-8.011894
 10
779.3503922893104
 20
-8.013268306092666
 10
779.35
 20
-8.0145
 10
779.35
 20
-8.341991973732215
 10
779.35
 20
-8.6355
 10
779.3504377106896
 20
-8.63687377873039
 10
779.35083
 20
-8.638105
 10
779.351087352791
 20
-8.638408760671288
 10
779.351318
 20
-8.638681
 10
779.3516217606713
 20
-8.638938352790953
 10
779.351894
 20
-8.639169
 10
779.3532683060927
 20
-8.63960671068953
 10
779.3545
 20
-8.639999
 10
779.423584458227
 20
-8.639999
 10
779.4855
 20
-8.639999
 10
779.4868743060927
 20
-8.639561289310471
 10
779.488106
 20
-8.639169
 10
779.4884097606713
 20
-8.638911647209047
 10
779.488682
 20
-8.638681
 10
779.4889126472091
 20
-8.638408760671288
 10
779.4891700000001
 20
-8.638105
 10
779.4895622893105
 20
-8.63687377873039
 10
779.49
 20
-8.6355
 10
779.49
 20
-8.341991973732215
 10
779.49
 20
-8.0145
 10
779.4896077106895
 20
-8.013268306092666
 10
779.4891700000001
 20
-8.011894
 10
779.4889393527909
 20
-8.011621760671288
 10
779.488682
 20
-8.011318
 10
779.4884097606713
 20
-8.011087825428675
 10
779.488106
 20
-8.010831
 10
779.4868743060927
 20
-8.010438238051806
 10
779.4855
 20
-8.01
 10
779.423584458227
 20
-8.01
 10
779.3545
 20
-8.01
 10
779.3532683060927
 20
-8.010392761948193
 10
779.351894
 20
-8.010831
 10
779.3516217606713
 20
-8.011061174571324
 10
779.351318
 20
-8.011318
 10
779.351060647209
 20
-8.011621760671288
  0
LWPOLYLINE
  5
B3
330
17
100
AcDbEntity
  8
VISTA
100
AcDbPolyline
 90
22
 70
1
 10
779.417208
 20
-7.992598
 10
779.4180632963645
 20
-7.992295704325817
 10
779.419214
 20
-7.991889
 10
779.4193994705477
 20
-7.9917214369535206
 10
779.419649
 20
-7.991496
 10
779.4198050510814
 20
-7.99129944385642
 10
779.420015
 20
-7.991035
 10
779.4202631468016
 20
-7.990163075241601
 10
779.420597
 20
-7.98899
 10
779.4200879153244
 20
-7.9727960761619885
 10
779.419403
 20
-7.951009
 10
779.4191007043258
 20
-7.950154130004602
 10
779.418694
 20
-7.949004
 10
779.4185264369535
 20
-7.94881767671422
 10
779.418301
 20
-7.948567
 10
779.4180371297745
 20
-7.948358198343304
 10
779.417841
 20
-7.948203
 10
779.4166667774965
 20
-7.947868573170732
 10
779.415794
 20
-7.94762
 10
779.15
 20
-7.955972949097768
 10
779.15
 20
-8.000995375696224
 10
779.417208
 20
-7.992598
  0
LWPOLYLINE
  5
B4
330
17
100
AcDbEntity
  8
VISTA
100
AcDbPolyline
 90
41
 70
1
 10
779.3654176214021
 20
-7.105593231164847
 10
779.365314
 20
-7.105716
 10
779.3651768321754
 20
-7.106145850762429
 10
779.365
 20
-7.1067
 10
779.365
 20
-7.122688351529369
 10
779.365
 20
-7.1433
 10
779.3651371678246
 20
-7.143729850762429
 10
779.365314
 20
-7.144284
 10
779.3653943785979
 20
-7.144379231164847
 10
779.365498
 20
-7.144502
 10
779.3655927943246
 20
-7.144582378597852
 10
779.365715
 20
-7.144686
 10
779.3661448507625
 20
-7.144823167824596
 10
779.366699
 20
-7.145
 10
779.4132670396102
 20
-7.145
 10
779.473301
 20
-7.145
 10
779.4737308507624
 20
-7.144862832175404
 10
779.474285
 20
-7.144686
 10
779.4743802311648
 20
-7.144605621402148
 10
779.474503
 20
-7.144502
 10
779.4746060582423
 20
-7.144379231164847
 10
779.474686
 20
-7.144284
 10
779.4748628321754
 20
-7.143729850762429
 10
779.475
 20
-7.1433
 10
779.475
 20
-7.122688351529369
 10
779.475
 20
-7.1067
 10
779.4748231678246
 20
-7.106145850762429
 10
779.474686
 20
-7.105716
 10
779.4745829417576
 20
-7.105593231164847
 10
779.474503
 20
-7.105498
 10
779.4743802311648
 20
-7.105394378597852
 10
779.474285
 20
-7.105314
 10
779.4737308507624
 20
-7.105137167824596
 10
779.473301
 20
-7.105
 10
779.4132670396102
 20
-7.105
 10
779.366699
 20
-7.105
 10
779.3661448507625
 20
-7.105176832175404
 10
779.365715
 20
-7.105314
 10
779.3655927943246
 20
-7.105417621402148
 10
779.365498
 20
-7.105498
 10
779.3654176214021
 20
-7.105593231164847
  0
LWPOLYLINE
  5
B5
330
17
100
AcDbEntity
  8
VISTA
100
AcDbPolyline
 90
41
 70
1
 10
779.3654176214021
 20
-7.975593231164847
 10
779.365314
 20
-7.975716
 10
779.3651768321754
 20
-7.976145850762429
 10
779.365
 20
-7.9767
 10
779.365
 20
-7.992688351529369
 10
779.365
 20
-8.0133
 10
779.3651371678246
 20
-8.013729850762429
 10
779.365314
 20
-8.014284
 10
779.3653943785979
 20
-8.014379231164847
 10
779.365498
 20
-8.014502
 10
779.3655927943246
 20
-8.014582378597852
 10
779.365715
 20
-8.014686
 10
779.3661448507625
 20
-8.014823167824597
 10
779.366699
 20
-8.015
 10
779.4132670396102
 20
-8.015
 10
779.473301
 20
-8.015
 10
779.4737308507624
 20
-8.014862832175403
 10
779.474285
 20
-8.014686
 10
779.4743802311648
 20
-8.014605621402147
 10
779.474503
 20
-8.014502
 10
779.4746060582423
 20
-8.014379231164847
 10
779.474686
 20
-8.014284
 10
779.4748628321754
 20
-8.013729850762429
 10
779.475
 20
-8.0133
 10
779.475
 20
-7.992688351529369
 10
779.475
 20
-7.9767
 10
779.4748231678246
 20
-7.976145850762429
 10
779.474686
 20
-7.975716
 10
779.4745829417576
 20
-7.975593231164847
 10
779.474503
 20
-7.975498
 10
779.4743802311648
 20
-7.975394378597852
 10
779.474285
 20
-7.975314
 10
779.4737308507624
 20
-7.975137167824596
 10
779.473301
 20
-7.975
 10
779.4132670396102
 20
-7.975
 10
779.366699
 20
-7.975
 10
779.3661448507625
 20
-7.9751768321754035
 10
779.365715
 20
-7.975314
 10
779.3655927943246
 20
-7.975417621402148
 10
779.365498
 20
-7.975498
 10
779.3654176214021
 20
-7.975593231164847
  0
LWPOLYLINE
  5
B6
330
17
100
AcDbEntity
  8
CORTE
100
AcDbPolyline
 90
22
 70
1
 10
781.799999
 20
-5.9955
 10
781.8004932199938
 20
-5.9970474075524915
 10
781.800831
 20
-5.998105
 10
781.801119691006
 20
-5.998447746317768
 10
781.801317
 20
-5.998682
 10
781.8016603403322
 20
-5.99897128502037
 10
781.801895
 20
-5.999169
 10
781.803441813538
 20
-5.999662625979317
 10
781.804499
 20
-6.0
 10
781.9179569413977
 20
-6.0
 10
781.995501
 20
-6.0
 10
781.9970472195237
 20
-5.999506374020683
 10
781.998104
 20
-5.999169
 10
781.9984473403322
 20
-5.99887971497963
 10
781.998682
 20
-5.998682
 10
781.998879308994
 20
-5.998447746317768
 10
781.999168
 20
-5.998105
 10
781.9995057800063
 20
-5.9970474075524915
 10
782.0
 20
-5.9955
 10
782.0
 20
-5.95
 10
781.799999
 20
-5.95
 10
781.799999
 20
-5.9955
  0
LWPOLYLINE
  5
B7
330
17
100
AcDbEntity
  8
VISTA
100
AcDbPolyline
 90
15
 70
1
 10
781.4490517899686
 20
-6.1
 10
781.995501
 20
-6.1
 10
781.9970472195237
 20
-6.099506374020683
 10
781.998104
 20
-6.099169
 10
781.9984473403322
 20
-6.09887971497963
 10
781.998682
 20
-6.098682
 10
781.998879308994
 20
-6.098447746317769
 10
781.999168
 20
-6.098105
 10
781.9995057800063
 20
-6.097047407552492
 10
782.0
 20
-6.0955
 10
782.0
 20
-6.01795675336885
 10
782.0
 20
-5.95
 10
779.15
 20
-5.95
 10
779.15
 20
-6.1
 10
781.4490517899686
 20
-6.1
  0
LWPOLYLINE
  5
B8
330
17
100
AcDbEntity
  8
VISTA
100
AcDbPolyline
 90
9
 70
1
 10
779.5425
 20
-7.08
 10
779.5425
 20
-6.886666666666667
 10
779.5425
 20
-6.36
 10
779.5304169351851
 20
-6.36
 10
779.497501
 20
-6.36
 10
779.497501
 20
-6.553333333333334
 10
779.497501
 20
-7.08
 10
779.5095840648148
 20
-7.08
 10
779.5425
 20
-7.08
  0
LWPOLYLINE
  5
B9
330
17
100
AcDbEntity
  8
VISTA
100
AcDbPolyline
 90
5
 70
1
 10
779.553999
 20
-8.006001
 10
779.586
 20
-8.006001
 10
779.586
 20
-7.294
 10
779.553999
 20
-7.294
 10
779.553999
 20
-8.006001
  0
LWPOLYLINE
  5
BA
330
17
100
AcDbEntity
  8
VISTA
100
AcDbPolyline
 90
22
 70
1
 10
779.321501
 20
-6.1925
 10
779.3224878994943
 20
-6.192185166877371
 10
779.323526
 20
-6.191854
 10
779.3237448236409
 20
-6.1916692914032865
 10
779.323975
 20
-6.191475
 10
779.3241692914033
 20
-6.191244823640961
 10
779.324354
 20
-6.191026
 10
779.3246856795196
 20
-6.189987386852086
 10
779.325001
 20
-6.189
 10
779.325001
 20
-6.169519595448799
 10
779.325001
 20
-6.151
 10
779.3246693204804
 20
-6.149961386852086
 10
779.324354
 20
-6.148974
 10
779.3241597085968
 20
-6.148743823640961
 10
779.323975
 20
-6.148525
 10
779.3237448236409
 20
-6.148330708596713
 10
779.323526
 20
-6.148146
 10
779.3224878994943
 20
-6.147814833122629
 10
779.321501
 20
-6.1475
 10
779.15
 20
-6.1475
 10
779.15
 20
-6.1925
 10
779.321501
 20
-6.1925
  0
LWPOLYLINE
  5
BB
330
17
100
AcDbEntity
  8
VISTA
100
AcDbPolyline
 90
41
 70
1
 10
779.2978402914033
 20
-6.181243823640961
 10
779.297646
 20
-6.181474
 10
779.2973306795196
 20
-6.182461386852086
 10
779.296999
 20
-6.1835
 10
779.296999
 20
-6.453008849557523
 10
779.296999
 20
-6.7365
 10
779.2973143204804
 20
-6.737487386852086
 10
779.297646
 20
-6.738526
 10
779.2978307085967
 20
-6.738744823640961
 10
779.298025
 20
-6.738975
 10
779.2982433362832
 20
-6.739159708596713
 10
779.2984730000001
 20
-6.739354
 10
779.299460386852
 20
-6.7396688331226295
 10
779.300499
 20
-6.74
 10
779.3097592850821
 20
-6.74
 10
779.3195
 20
-6.74
 10
779.320487386852
 20
-6.73968516687737
 10
779.321526
 20
-6.739354
 10
779.3217443362831
 20
-6.739169291403287
 10
779.321974
 20
-6.738975
 10
779.3221682914033
 20
-6.738744823640961
 10
779.322353
 20
-6.738526
 10
779.3226846795196
 20
-6.737487386852086
 10
779.323
 20
-6.7365
 10
779.323
 20
-6.453008849557523
 10
779.323
 20
-6.1835
 10
779.3226683204804
 20
-6.182461386852086
 10
779.322353
 20
-6.181474
 10
779.3221587085967
 20
-6.181243823640961
 10
779.321974
 20
-6.181025
 10
779.3217443362831
 20
-6.180830708596713
 10
779.321526
 20
-6.180646
 10
779.320487386852
 20
-6.18031483312263
 10
779.3195
 20
-6.18
 10
779.3097592850821
 20
-6.18
 10
779.300499
 20
-6.18
 10
779.299460386852
 20
-6.18033116687737
 10
779.2984730000001
 20
-6.180646
 10
779.2982433362832
 20
-6.180840291403287
 10
779.298025
 20
-6.181025
 10
779.2978402914033
 20
-6.181243823640961
  0
LWPOLYLINE
  5
BC
330
17
100
AcDbEntity
  8
VISTA
100
AcDbPolyline
 90
22
 70
1
 10
781.7685011237785
 20
-8.826694209011944
 10
781.768332
 20
-8.826895
 10
781.767789528773
 20
-8.828593482627578
 10
781.7675
 20
-8.8295
 10
781.7675
 20
-8.85
 10
781.792501
 20
-8.85
 10
781.792501
 20
-8.8295
 10
781.7922118192182
 20
-8.828593482627578
 10
781.79167
 20
-8.826895
 10
781.7915005282301
 20
-8.826694209011944
 10
781.791183
 20
-8.826318
 10
781.790982209012
 20
-8.82614818023887
 10
781.790606
 20
-8.82583
 10
781.7896991346363
 20
-8.825541167209554
 10
781.788
 20
-8.825
 10
781.7824324869707
 20
-8.825
 10
781.772001
 20
-8.825
 10
781.7710944826276
 20
-8.825288832790445
 10
781.769396
 20
-8.82583
 10
781.7691948610207
 20
-8.82599981976113
 10
781.768818
 20
-8.826318
 10
781.7685011237785
 20
-8.826694209011944
  0
LWPOLYLINE
  5
BD
330
17
100
AcDbEntity
  8
VISTA
100
AcDbPolyline
 90
41
 70
1
 10
779.405859039765
 20
-7.921221095119747
 10
779.405645
 20
-7.921474
 10
779.4053637410755
 20
-7.922358830094893
 10
779.405001
 20
-7.9235
 10
779.405001
 20
-7.964116583822865
 10
779.405001
 20
-8.0165
 10
779.4052822589246
 20
-8.017384830094894
 10
779.405645
 20
-8.018526
 10
779.4058109602349
 20
-8.018721658382287
 10
779.406025
 20
-8.018974
 10
779.4062206583823
 20
-8.019139960234975
 10
779.406473
 20
-8.019354
 10
779.4073587035698
 20
-8.019636132399457
 10
779.408501
 20
-8.02
 10
779.4185450881157
 20
-8.02
 10
779.431499
 20
-8.02
 10
779.4323847035698
 20
-8.019717867600543
 10
779.433527
 20
-8.019354
 10
779.4337226583823
 20
-8.019188039765025
 10
779.433975
 20
-8.018974
 10
779.434189039765
 20
-8.018721658382287
 10
779.434355
 20
-8.018526
 10
779.4347177410755
 20
-8.017384830094894
 10
779.434999
 20
-8.0165
 10
779.434999
 20
-7.964116583822865
 10
779.434999
 20
-7.9235
 10
779.4346362589246
 20
-7.922358830094893
 10
779.434355
 20
-7.921474
 10
779.434140960235
 20
-7.921221095119747
 10
779.433975
 20
-7.921025
 10
779.4337226583823
 20
-7.920811523497514
 10
779.433527
 20
-7.920646
 10
779.4323847035698
 20
-7.920282132399458
 10
779.431499
 20
-7.92
 10
779.4185450881157
 20
-7.92
 10
779.408501
 20
-7.92
 10
779.4073587035698
 20
-7.920363867600542
 10
779.406473
 20
-7.920646
 10
779.4062206583823
 20
-7.920859476502486
 10
779.406025
 20
-7.921025
 10
779.405859039765
 20
-7.921221095119747
  0
LWPOLYLINE
  5
BE
330
17
100
AcDbEntity
  8
VISTA
100
AcDbPolyline
 90
41
 70
1
 10
779.405859039765
 20
-7.1012210951197465
 10
779.405645
 20
-7.101474
 10
779.4053637410755
 20
-7.102358830094894
 10
779.405001
 20
-7.1035
 10
779.405001
 20
-7.144116583822865
 10
779.405001
 20
-7.1965
 10
779.4052822589246
 20
-7.197384830094894
 10
779.405645
 20
-7.198526
 10
779.4058109602349
 20
-7.198722095119747
 10
779.406025
 20
-7.198975
 10
779.4062206583823
 20
-7.1991405234975145
 10
779.406473
 20
-7.199354
 10
779.4073587035698
 20
-7.1996361323994575
 10
779.408501
 20
-7.2
 10
779.4185450881157
 20
-7.2
 10
779.431499
 20
-7.2
 10
779.4323847035698
 20
-7.199717867600542
 10
779.433527
 20
-7.199354
 10
779.4337226583823
 20
-7.199188476502485
 10
779.433975
 20
-7.198975
 10
779.434189039765
 20
-7.198722095119747
 10
779.434355
 20
-7.198526
 10
779.4347177410755
 20
-7.197384830094894
 10
779.434999
 20
-7.1965
 10
779.434999
 20
-7.144116583822865
 10
779.434999
 20
-7.1035
 10
779.4346362589246
 20
-7.102358830094894
 10
779.434355
 20
-7.101474
 10
779.434140960235
 20
-7.1012210951197465
 10
779.433975
 20
-7.101025
 10
779.4337226583823
 20
-7.100811523497515
 10
779.433527
 20
-7.100646
 10
779.4323847035698
 20
-7.100282132399458
 10
779.431499
 20
-7.1
 10
779.4185450881157
 20
-7.1
 10
779.408501
 20
-7.1
 10
779.4073587035698
 20
-7.100363867600542
 10
779.406473
 20
-7.100646
 10
779.4062206583823
 20
-7.100859476502485
 10
779.406025
 20
-7.101025
 10
779.405859039765
 20
-7.1012210951197465
  0
LWPOLYLINE
  5
BF
330
17
100
AcDbEntity
  8
VISTA
100
AcDbPolyline
 90
41
 70
1
 10
779.3859361190716
 20
-6.361769527245206
 10
779.3858299999999
 20
-6.361895
 10
779.3851804894047
 20
-6.363933524217961
 10
779.385
 20
-6.3645
 10
779.385
 20
-6.936538849646822
 10
779.385
 20
-7.0955
 10
779.3856495105954
 20
-7.097538524217962
 10
779.3858299999999
 20
-7.098105
 10
779.3862118809284
 20
-7.098556527245207
 10
779.386318
 20
-7.098682
 10
779.3867687447023
 20
-7.099063098385469
 10
779.386894
 20
-7.099169
 10
779.3889333067608
 20
-7.099819293138244
 10
779.3895
 20
-7.1
 10
779.4059334006055
 20
-7.1
 10
779.4105
 20
-7.1
 10
779.412538524218
 20
-7.099349706861756
 10
779.413105
 20
-7.099169
 10
779.4135557447023
 20
-7.098787901614531
 10
779.413681
 20
-7.098682
 10
779.4137871190717
 20
-7.098556527245207
 10
779.414169
 20
-7.098105
 10
779.4143494894047
 20
-7.097538524217962
 10
779.414999
 20
-7.0955
 10
779.414999
 20
-6.936538849646822
 10
779.414999
 20
-6.3645
 10
779.4148185105954
 20
-6.363933524217961
 10
779.414169
 20
-6.361895
 10
779.4140628809283
 20
-6.361769527245206
 10
779.413681
 20
-6.361318
 10
779.4135557447023
 20
-6.361212098385469
 10
779.413105
 20
-6.360831
 10
779.412538524218
 20
-6.360650293138244
 10
779.4105
 20
-6.36
 10
779.4059334006055
 20
-6.36
 10
779.3895
 20
-6.36
 10
779.3889333067608
 20
-6.360180706861756
 10
779.386894
 20
-6.360831
 10
779.3867687447023
 20
-6.360936901614531
 10
779.386318
 20
-6.361318
 10
779.3859361190716
 20
-6.361769527245206
  0
LWPOLYLINE
  5
C0
330
17
100
AcDbEntity
  8
VISTA
100
AcDbPolyline
 90
41
 70
1
 10
780.6810824465599
 20
-6.106596512981393
 10
780.68083
 20
-6.106895
 10
780.6804293660753
 20
-6.108152411293812
 10
780.68
 20
-6.1095
 10
780.68
 20
-6.134117265253137
 10
780.68
 20
-6.1605
 10
780.6804006339247
 20
-6.161757411293812
 10
780.68083
 20
-6.163105
 10
780.68106555344
 20
-6.163383512981393
 10
780.681318
 20
-6.163682
 10
780.6815960302899
 20
-6.163917070748593
 10
780.681894
 20
-6.164169
 10
780.6831518939853
 20
-6.164570116616184
 10
780.6845
 20
-6.165
 10
781.2111159171354
 20
-6.165
 10
781.775499
 20
-6.165
 10
781.7767568939853
 20
-6.164598883383817
 10
781.778105
 20
-6.164169
 10
781.7783830302899
 20
-6.163933929251407
 10
781.778681
 20
-6.163682
 10
781.7789334465599
 20
-6.163383512981393
 10
781.779169
 20
-6.163105
 10
781.7795983660753
 20
-6.161757411293812
 10
781.779999
 20
-6.1605
 10
781.779999
 20
-6.134117265253137
 10
781.779999
 20
-6.1095
 10
781.7795696339247
 20
-6.108152411293812
 10
781.779169
 20
-6.106895
 10
781.77891655344
 20
-6.106596512981393
 10
781.778681
 20
-6.106318
 10
781.7783830302899
 20
-6.106066070748594
 10
781.778105
 20
-6.105831
 10
781.7767568939853
 20
-6.105401116616184
 10
781.775499
 20
-6.105
 10
781.2111159171354
 20
-6.105
 10
780.6845
 20
-6.105
 10
780.6831518939853
 20
-6.105429883383817
 10
780.681894
 20
-6.105831
 10
780.6815960302899
 20
-6.106082929251406
 10
780.681318
 20
-6.106318
 10
780.6810824465599
 20
-6.106596512981393
  0
LWPOLYLINE
  5
C1
330
17
100
AcDbEntity
  8
VISTA
100
AcDbPolyline
 90
9
 70
1
 10
780.450001
 20
-7.17
 10
780.450001
 20
-6.853870967741935
 10
780.450001
 20
-6.47
 10
780.4445811935484
 20
-6.47
 10
780.438
 20
-6.47
 10
780.438
 20
-6.7861290322580645
 10
780.438
 20
-7.17
 10
780.4434198064516
 20
-7.17
 10
780.450001
 20
-7.17
  0
LWPOLYLINE
  5
C2
330
17
100
AcDbEntity
  8
VISTA
100
AcDbPolyline
 90
25
 70
1
 10
781.346895
 20
-6.218409
 10
781.344
 20
-6.219608
 10
781.341515
 20
-6.221515
 10
781.339607
 20
-6.224
 10
781.338409
 20
-6.226894
 10
781.338001
 20
-6.23
 10
781.338409
 20
-6.233106
 10
781.339607
 20
-6.236
 10
781.341515
 20
-6.238485
 10
781.344
 20
-6.240392
 10
781.346895
 20
-6.241591
 10
781.35
 20
-6.242
 10
781.353106
 20
-6.241591
 10
781.356001
 20
-6.240392
 10
781.358486
 20
-6.238485
 10
781.360394
 20
-6.236
 10
781.361591
 20
-6.233106
 10
781.362
 20
-6.23
 10
781.361591
 20
-6.226894
 10
781.360394
 20
-6.224
 10
781.358486
 20
-6.221515
 10
781.356001
 20
-6.219608
 10
781.353106
 20
-6.218409
 10
781.35
 20
-6.218
 10
781.346895
 20
-6.218409
  0
DIMENSION
  5
C3
330
17
100
AcDbEntity
  8
COTAS
100
AcDbDimension
280
0
  2
*D3
  3
Standard
 10
779.49
 20
-5.8100000000000005
 30
0.0
 11
780.645
 21
-5.8100000000000005
 31
0.0
 70
32
 71
5
  1
<>
100
AcDbAlignedDimension
 13
779.49
 23
-6.1
 33
0.0
 14
781.8
 24
-6.1
 34
0.0
 50
0.0
100
AcDbRotatedDimension
1001
ACAD
1000
DSTYLE
1002
{
1070
140
1040
0.13
1070
41
1040
0.09
1002
}
  0
DIMENSION
  5
D3
330
17
100
AcDbEntity
  8
COTAS
100
AcDbDimension
280
0
  2
*D4
  3
Standard
 10
782.25
 20
-6.1
 30
0.0
 11
782.25
 21
-7.335
 31
0.0
 70
32
 71
5
  1
<>
100
AcDbAlignedDimension
 13
781.8
 23
-6.1
 33
0.0
 14
781.8
 24
-8.57
 34
0.0
 50
90.0
100
AcDbRotatedDimension
1001
ACAD
1000
DSTYLE
1002
{
1070
140
1040
0.13
1070
41
1040
0.09
1002
}
  0
TEXT
  5
E3
330
17
100
AcDbEntity
  8
TEXTOS
100
AcDbText
 10
780.645
 20
-7.335
 30
0.0
 40
0.054000000000000006
  1
Piso +3.30
100
AcDbText
  0
LWPOLYLINE
  5
E4
330
17
100
AcDbEntity
  8
VISTA
100
AcDbPolyline
 90
4
 70
1
 10
819.49
 20
3.3
 10
821.8
 20
3.3
 10
821.8
 20
5.9
 10
819.49
 20
5.9
  0
LWPOLYLINE
  5
E5
330
17
100
AcDbEntity
  8
VISTA
100
AcDbPolyline
 90
5
 70
1
 10
820.960001
 20
4.174
 10
820.960001
 20
4.162
 10
820.92
 20
4.162
 10
820.92
 20
4.174
 10
820.960001
 20
4.174
  0
LWPOLYLINE
  5
E6
330
17
100
AcDbEntity
  8
VISTA
100
AcDbPolyline
 90
17
 70
1
 10
820.768776
 20
4.154656
 10
820.78875
 20
4.16
 10
821.091251
 20
4.16
 10
821.111225
 20
4.154656
 10
821.125906
 20
4.139974
 10
821.13125
 20
4.12
 10
821.13125
 20
3.86
 10
821.125906
 20
3.840026
 10
821.111225
 20
3.825344
 10
821.091251
 20
3.82
 10
820.78875
 20
3.82
 10
820.768776
 20
3.825344
 10
820.754095
 20
3.840026
 10
820.748751
 20
3.86
 10
820.748751
 20
4.12
 10
820.754095
 20
4.139974
 10
820.768776
 20
4.154656
  0
LWPOLYLINE
  5
E7
330
17
100
AcDbEntity
  8
VISTA
100
AcDbPolyline
 90
5
 70
1
 10
820.459999
 20
3.74
 10
820.386499
 20
3.26
 10
820.113501
 20
3.26
 10
820.040001
 20
3.74
 10
820.459999
 20
3.74
  0
LWPOLYLINE
  5
E8
330
17
100
AcDbEntity
  8
VISTA
100
AcDbPolyline
 90
5
 70
1
 10
821.1605
 20
3.855
 10
821.1605
 20
3.83
 10
820.7195
 20
3.83
 10
820.7195
 20
3.855
 10
821.1605
 20
3.855
  0
LWPOLYLINE
  5
E9
330
17
100
AcDbEntity
  8
VISTA
100
AcDbPolyline
 90
5
 70
1
 10
821.165001
 20
3.83
 10
821.08625
 20
3.27
 10
820.793751
 20
3.27
 10
820.715
 20
3.83
 10
821.165001
 20
3.83
  0
LWPOLYLINE
  5
EA
330
17
100
AcDbEntity
  8
VISTA
100
AcDbPolyline
 90
8
 70
1
 10
819.405001
 20
4.2283
 10
819.4067
 20
4.23
 10
819.4333
 20
4.23
 10
819.434999
 20
4.2283
 10
819.434999
 20
4.1317
 10
819.4333
 20
4.13
 10
819.405848
 20
4.1305
 10
819.405001
 20
4.2283
  0
LWPOLYLINE
  5
EB
330
17
100
AcDbEntity
  8
VISTA
100
AcDbPolyline
 90
9
 70
1
 10
819.719999
 20
4.401258
 10
819.862865
 20
4.400887
 10
819.921114
 20
4.341793
 10
819.921259
 20
4.08
 10
819.898741
 20
4.08
 10
819.898886
 20
4.338207
 10
819.857136
 20
4.379112
 10
819.719999
 20
4.378742
 10
819.719999
 20
4.401258
  0
LWPOLYLINE
  5
EC
330
17
100
AcDbEntity
  8
VISTA
100
AcDbPolyline
 90
5
 70
1
 10
821.460001
 20
5.405
 10
821.460001
 20
5.37
 10
821.24
 20
5.37
 10
821.24
 20
5.405
 10
821.460001
 20
5.405
  0
LWPOLYLINE
  5
ED
330
17
100
AcDbEntity
  8
VISTA
100
AcDbPolyline
 90
5
 70
1
 10
820.960001
 20
3.342
 10
821.08
 20
3.342
 10
821.08
 20
3.334
 10
820.960001
 20
3.334
 10
820.960001
 20
3.342
  0
LWPOLYLINE
  5
EE
330
17
100
AcDbEntity
  8
VISTA
100
AcDbPolyline
 90
5
 70
1
 10
821.114
 20
4.03
 10
821.114
 20
3.98
 10
821.086
 20
3.98
 10
821.086
 20
4.03
 10
821.114
 20
4.03
  0
LWPOLYLINE
  5
EF
330
17
100
AcDbEntity
  8
VISTA
100
AcDbPolyline
 90
5
 70
1
 10
821.535
 20
5.08
 10
821.535
 20
4.96
 10
821.424999
 20
4.96
 10
821.424999
 20
5.08
 10
821.535
 20
5.08
  0
LWPOLYLINE
  5
F0
330
17
100
AcDbEntity
  8
VISTA
100
AcDbPolyline
 90
5
 70
1
 10
820.438
 20
5.35
 10
820.450001
 20
5.35
 10
820.450001
 20
3.8
 10
820.438
 20
3.8
 10
820.438
 20
5.35
  0
LWPOLYLINE
  5
F1
330
17
100
AcDbEntity
  8
VISTA
100
AcDbPolyline
 90
6
 70
1
 10
820.5425
 20
3.84
 10
821.705
 20
3.84
 10
821.48625
 20
3.3
 10
820.67375
 20
3.3
 10
820.455
 20
3.84
 10
820.5425
 20
3.84
  0
LWPOLYLINE
  5
F2
330
17
100
AcDbEntity
  8
VISTA
100
AcDbPolyline
 90
9
 70
1
 10
819.385
 20
5.2755
 10
819.3895
 20
5.28
 10
819.4105
 20
5.28
 10
819.414999
 20
5.2755
 10
819.414999
 20
4.2845
 10
819.4105
 20
4.28
 10
819.3895
 20
4.28
 10
819.385
 20
4.2845
 10
819.385
 20
5.2755
  0
LWPOLYLINE
  5
F3
330
17
100
AcDbEntity
  8
VISTA
100
AcDbPolyline
 90
5
 70
1
 10
819.497501
 20
5.29
 10
819.5425
 20
5.29
 10
819.5425
 20
4.21
 10
819.497501
 20
4.21
 10
819.497501
 20
5.29
  0
LWPOLYLINE
  5
F4
330
17
100
AcDbEntity
  8
VISTA
100
AcDbPolyline
 90
9
 70
1
 10
821.346895
 20
5.411591
 10
821.356001
 20
5.410392
 10
821.361591
 20
5.403106
 10
821.360394
 20
5.394
 10
821.353106
 20
5.388409
 10
821.344
 20
5.389608
 10
821.338409
 20
5.396894
 10
821.339607
 20
5.406
 10
821.346895
 20
5.411591
  0
LWPOLYLINE
  5
F5
330
17
100
AcDbEntity
  8
VISTA
100
AcDbPolyline
 90
5
 70
1
 10
821.362
 20
5.4
 10
821.362
 20
4.02
 10
821.338001
 20
4.02
 10
821.338001
 20
5.4
 10
821.362
 20
5.4
  0
LWPOLYLINE
  5
F6
330
17
100
AcDbEntity
  8
VISTA
100
AcDbPolyline
 90
9
 70
1
 10
821.096376
 20
4.043523
 10
821.107
 20
4.042125
 10
821.113523
 20
4.033624
 10
821.112125
 20
4.023
 10
821.103624
 20
4.016477
 10
821.093
 20
4.017876
 10
821.086477
 20
4.026377
 10
821.087875
 20
4.037
 10
821.096376
 20
4.043523
  0
LWPOLYLINE
  5
F7
330
17
100
AcDbEntity
  8
VISTA
100
AcDbPolyline
 90
16
 70
1
 10
821.151615
 20
4.068385
 10
821.163271
 20
4.075114
 10
821.17
 20
4.076
 10
821.183001
 20
4.072517
 10
821.188385
 20
4.068385
 10
821.195114
 20
4.056729
 10
821.195114
 20
4.043271
 10
821.192516
 20
4.037
 10
821.183001
 20
4.027483
 10
821.176729
 20
4.024886
 10
821.17
 20
4.024
 10
821.157
 20
4.027483
 10
821.151615
 20
4.031615
 10
821.144886
 20
4.043271
 10
821.144886
 20
4.056729
 10
821.151615
 20
4.068385
  0
LWPOLYLINE
  5
F8
330
17
100
AcDbEntity
  8
VISTA
100
AcDbPolyline
 90
17
 70
1
 10
821.517
 20
4.072517
 10
821.523272
 20
4.075114
 10
821.530001
 20
4.076
 10
821.543001
 20
4.072517
 10
821.548386
 20
4.068385
 10
821.555115
 20
4.056729
 10
821.555115
 20
4.043271
 10
821.552517
 20
4.037
 10
821.548386
 20
4.031615
 10
821.53673
 20
4.024886
 10
821.530001
 20
4.024
 10
821.517
 20
4.027483
 10
821.507484
 20
4.037
 10
821.504887
 20
4.043271
 10
821.504887
 20
4.056729
 10
821.507484
 20
4.063
 10
821.517
 20
4.072517
  0
LWPOLYLINE
  5
F9
330
17
100
AcDbEntity
  8
VISTA
100
AcDbPolyline
 90
9
 70
1
 10
820.68083
 20
5.618105
 10
820.6845
 20
5.62
 10
821.778105
 20
5.619169
 10
821.779999
 20
5.6155
 10
821.779169
 20
3.301895
 10
821.775499
 20
3.3
 10
820.6845
 20
3.3
 10
820.68
 20
3.3045
 10
820.68083
 20
5.618105
  0
LWPOLYLINE
  5
FA
330
17
100
AcDbEntity
  8
VISTA
100
AcDbPolyline
 90
6
 70
1
 10
821.223
 20
5.05
 10
821.379599
 20
5.048498
 10
821.378498
 20
4.650401
 10
821.2204
 20
4.651502
 10
821.2204
 20
5.048498
 10
821.223
 20
5.05
  0
LWPOLYLINE
  5
FB
330
17
100
AcDbEntity
  8
VISTA
100
AcDbPolyline
 90
8
 70
1
 10
821.209499
 20
5.06
 10
821.2125
 20
5.057
 10
821.2125
 20
4.643
 10
821.209499
 20
4.64
 10
821.2005
 20
4.64
 10
821.1975
 20
4.643
 10
821.197901
 20
5.058498
 10
821.209499
 20
5.06
  0
LWPOLYLINE
  5
FC
330
17
100
AcDbEntity
  8
VISTA
100
AcDbPolyline
 90
8
 70
1
 10
821.3995
 20
5.06
 10
821.4025
 20
5.057
 10
821.4025
 20
4.643
 10
821.3995
 20
4.64
 10
821.390501
 20
4.64
 10
821.387501
 20
4.643
 10
821.387901
 20
5.058498
 10
821.3995
 20
5.06
  0
LWPOLYLINE
  5
FD
330
17
100
AcDbEntity
  8
VISTA
100
AcDbPolyline
 90
8
 70
1
 10
821.396999
 20
4.6375
 10
821.4
 20
4.6345
 10
821.4
 20
4.6255
 10
821.396999
 20
4.6225
 10
821.202999
 20
4.6225
 10
821.199999
 20
4.6255
 10
821.200399
 20
4.635998
 10
821.396999
 20
4.6375
  0
LWPOLYLINE
  5
FE
330
17
100
AcDbEntity
  8
VISTA
100
AcDbPolyline
 90
8
 70
1
 10
821.396999
 20
5.0775
 10
821.4
 20
5.0745
 10
821.4
 20
5.0655
 10
821.396999
 20
5.0625
 10
821.202999
 20
5.0625
 10
821.199999
 20
5.0655
 10
821.200399
 20
5.075998
 10
821.396999
 20
5.0775
  0
TEXT
  5
FF
330
17
100
AcDbEntity
  8
TEXTOS
100
AcDbText
 10
819.45
 20
3.4
 30
0.0
 40
0.052000000000000005
  1
+3.30
100
AcDbText
  0
LWPOLYLINE
  5
100
330
17
100
AcDbEntity
  8
VISTA
100
AcDbPolyline
 90
5
 70
1
 10
861.955
 20
-9.879999
 10
861.955
 20
-12.08
 10
862.004999
 20
-12.08
 10
862.004999
 20
-9.879999
 10
861.955
 20
-9.879999
  0
LWPOLYLINE
  5
101
330
17
100
AcDbEntity
  8
VISTA
100
AcDbPolyline
 90
5
 70
1
 10
861.395
 20
-11.099999
 10
861.445
 20
-11.099999
 10
861.445
 20
-9.85
 10
861.395
 20
-9.85
 10
861.395
 20
-11.099999
  0
LWPOLYLINE
  5
102
330
17
100
AcDbEntity
  8
VISTA
100
AcDbPolyline
 90
5
 70
1
 10
860.25
 20
-11.895
 10
860.25
 20
-11.945
 10
862.01
 20
-11.945
 10
862.01
 20
-11.895
 10
860.25
 20
-11.895
  0
LWPOLYLINE
  5
103
330
17
100
AcDbEntity
  8
VISTA
100
AcDbPolyline
 90
7
 70
1
 10
860.7410752418239
 20
-12.25
 10
861.6999429865912
 20
-12.25
 10
861.699261
 20
-11.811685
 10
861.695999
 20
-11.81
 10
860.741684
 20
-11.810739
 10
860.74
 20
-11.814
 10
860.7410752418239
 20
-12.25
  0
LWPOLYLINE
  5
104
330
17
100
AcDbEntity
  8
VISTA
100
AcDbPolyline
 90
4
 70
1
 10
860.74169
 20
-11.81169
 10
860.741472
 20
-11.812205
 10
860.741472
 20
-11.811473
 10
860.74169
 20
-11.81169
  0
LWPOLYLINE
  5
105
330
17
100
AcDbEntity
  8
VISTA
100
AcDbPolyline
 90
4
 70
1
 10
861.698309
 20
-11.81169
 10
861.697794
 20
-11.811473
 10
861.698526
 20
-11.811473
 10
861.698309
 20
-11.81169
  0
LWPOLYLINE
  5
106
330
17
100
AcDbEntity
  8
VISTA
100
AcDbPolyline
 90
5
 70
1
 10
861.791
 20
-12.184
 10
861.790001
 20
-11.995
 10
861.769001
 20
-11.996
 10
861.769293
 20
-12.184708
 10
861.791
 20
-12.184
  0
LWPOLYLINE
  5
107
330
17
100
AcDbEntity
  8
VISTA
100
AcDbPolyline
 90
5
 70
1
 10
861.7225
 20
-12.179999
 10
861.7145
 20
-12.181
 10
861.7146697302579
 20
-12.25
 10
861.7230876505156
 20
-12.25
 10
861.7225
 20
-12.179999
  0
LWPOLYLINE
  5
108
330
17
100
AcDbEntity
  8
VISTA
100
AcDbPolyline
 90
5
 70
1
 10
861.8445
 20
-12.179999
 10
861.8365
 20
-12.181
 10
861.836669730258
 20
-12.25
 10
861.8450876505156
 20
-12.25
 10
861.8445
 20
-12.179999
  0
LWPOLYLINE
  5
109
330
17
100
AcDbEntity
  8
VISTA
100
AcDbPolyline
 90
49
 70
1
 10
861.333668
 20
-10.662983
 10
861.326097
 20
-10.701733
 10
861.321527
 20
-10.745083
 10
861.32
 20
-10.8
 10
861.321527
 20
-10.854917
 10
861.326097
 20
-10.898267
 10
861.333668
 20
-10.937017
 10
861.344168
 20
-10.971983
 10
861.35751
 20
-11.003302
 10
861.373585
 20
-11.0309
 10
861.392279
 20
-11.054629
 10
861.413496
 20
-11.074324
 10
861.437181
 20
-11.089825
 10
861.463432
 20
-11.100998
 10
861.492798
 20
-11.107744
 10
861.530001
 20
-11.11
 10
861.567202
 20
-11.107744
 10
861.596567
 20
-11.100998
 10
861.622818
 20
-11.089825
 10
861.646505
 20
-11.074324
 10
861.667721
 20
-11.054629
 10
861.686417
 20
-11.0309
 10
861.70249
 20
-11.003302
 10
861.715832
 20
-10.971983
 10
861.726332
 20
-10.937017
 10
861.733902
 20
-10.898267
 10
861.738472
 20
-10.854917
 10
861.74
 20
-10.8
 10
861.738472
 20
-10.745083
 10
861.733902
 20
-10.701733
 10
861.726332
 20
-10.662983
 10
861.715832
 20
-10.628016
 10
861.70249
 20
-10.596698
 10
861.686417
 20
-10.5691
 10
861.667721
 20
-10.545371
 10
861.646505
 20
-10.525677
 10
861.622818
 20
-10.510176
 10
861.596567
 20
-10.499002
 10
861.567202
 20
-10.492256
 10
861.530001
 20
-10.49
 10
861.492798
 20
-10.492256
 10
861.463432
 20
-10.499002
 10
861.437181
 20
-10.510176
 10
861.413496
 20
-10.525677
 10
861.392279
 20
-10.545371
 10
861.373585
 20
-10.5691
 10
861.35751
 20
-10.596698
 10
861.344168
 20
-10.628016
 10
861.333668
 20
-10.662983
  0
LWPOLYLINE
  5
10A
330
17
100
AcDbEntity
  8
VISTA
100
AcDbPolyline
 90
39
 70
1
 10
861.3485009999999
 20
-10.65679
 10
861.333061
 20
-10.711811
 10
861.328154
 20
-10.740731
 10
861.3242
 20
-10.8
 10
861.328154
 20
-10.859268
 10
861.333061
 20
-10.888188
 10
861.339865
 20
-10.916259
 10
861.358883
 20
-10.968782
 10
861.384478
 20
-11.014819
 10
861.415663
 20
-11.052601
 10
861.451244
 20
-11.080674
 10
861.4702589999999
 20
-11.090718
 10
861.509829
 20
-11.102337
 10
861.530001
 20
-11.1038
 10
861.550173
 20
-11.102337
 10
861.589741
 20
-11.090718
 10
861.627014
 20
-11.067927
 10
861.660559
 20
-11.034841
 10
861.675522
 20
-11.014819
 10
861.701117
 20
-10.968782
 10
861.720135
 20
-10.916259
 10
861.731846
 20
-10.859268
 10
861.73481
 20
-10.829778
 10
861.73481
 20
-10.770223
 10
861.731846
 20
-10.740731
 10
861.720135
 20
-10.683741
 10
861.701117
 20
-10.631218
 10
861.689085
 20
-10.607271
 10
861.660559
 20
-10.56516
 10
861.627014
 20
-10.532072
 10
861.589741
 20
-10.509281
 10
861.57015
 20
-10.502037
 10
861.530001
 20
-10.4962
 10
861.489851
 20
-10.502037
 10
861.451244
 20
-10.519325
 10
861.415663
 20
-10.5474
 10
861.384478
 20
-10.585181
 10
861.370914
 20
-10.607271
 10
861.3485009999999
 20
-10.65679
  0
LWPOLYLINE
  5
10B
330
17
100
AcDbEntity
  8
VISTA
100
AcDbPolyline
 90
36
 70
1
 10
861.432081
 20
-10.97613
 10
861.4106859999999
 20
-10.944547
 10
861.393875
 20
-10.907408
 10
861.382296
 20
-10.866141
 10
861.376392
 20
-10.822333
 10
861.376392
 20
-10.777667
 10
861.382296
 20
-10.733859
 10
861.3874
 20
-10.712806
 10
861.401663
 20
-10.673413
 10
861.420858
 20
-10.638885
 10
861.432081
 20
-10.62387
 10
861.457239
 20
-10.599054
 10
861.485195
 20
-10.581961
 10
861.514872
 20
-10.573247
 10
861.54513
 20
-10.573247
 10
861.560112
 20
-10.576529
 10
861.589067
 20
-10.589494
 10
861.615753
 20
-10.61055
 10
861.639141
 20
-10.638885
 10
861.649315
 20
-10.655454
 10
861.666124
 20
-10.692593
 10
861.677704
 20
-10.733859
 10
861.683607
 20
-10.777667
 10
861.681385
 20
-10.844451
 10
861.672602
 20
-10.887195
 10
861.658337
 20
-10.926587
 10
861.649315
 20
-10.944547
 10
861.627918
 20
-10.97613
 10
861.60276
 20
-11.000946
 10
861.574806
 20
-11.018039
 10
861.560112
 20
-11.023472
 10
861.530001
 20
-11.02785
 10
861.499887
 20
-11.023472
 10
861.470932
 20
-11.010506
 10
861.444248
 20
-10.98945
 10
861.432081
 20
-10.97613
  0
LWPOLYLINE
  5
10C
330
17
100
AcDbEntity
  8
VISTA
100
AcDbPolyline
 90
43
 70
1
 10
860.6098
 20
-10.667974
 10
860.604343
 20
-10.689655
 10
860.601084
 20
-10.718
 10
860.601084
 20
-10.841999
 10
860.604343
 20
-10.870344
 10
860.6098
 20
-10.892025
 10
860.617495
 20
-10.909774
 10
860.627495
 20
-10.92461
 10
860.639917
 20
-10.937026
 10
860.654945
 20
-10.947287
 10
860.672905
 20
-10.955548
 10
860.694391
 20
-10.961904
 10
860.754948
 20
-10.969104
 10
860.905052
 20
-10.969104
 10
860.939363
 20
-10.966412
 10
860.965609
 20
-10.961904
 10
860.987095
 20
-10.955548
 10
861.005054
 20
-10.947287
 10
861.020084
 20
-10.937026
 10
861.032505
 20
-10.92461
 10
861.042505
 20
-10.909774
 10
861.0502
 20
-10.892025
 10
861.055656
 20
-10.870344
 10
861.058916
 20
-10.841999
 10
861.058916
 20
-10.718
 10
861.055656
 20
-10.689655
 10
861.0502
 20
-10.667974
 10
861.042505
 20
-10.650227
 10
861.032505
 20
-10.635389
 10
861.020084
 20
-10.622974
 10
861.005054
 20
-10.612714
 10
860.987095
 20
-10.604452
 10
860.965609
 20
-10.598096
 10
860.905052
 20
-10.590896
 10
860.754948
 20
-10.590896
 10
860.720636
 20
-10.593589
 10
860.694391
 20
-10.598096
 10
860.672905
 20
-10.604452
 10
860.654945
 20
-10.612714
 10
860.639917
 20
-10.622974
 10
860.627495
 20
-10.635389
 10
860.617495
 20
-10.650227
 10
860.6098
 20
-10.667974
  0
LWPOLYLINE
  5
10D
330
17
100
AcDbEntity
  8
VISTA
100
AcDbPolyline
 90
7
 70
1
 10
860.275
 20
-9.985499
 10
860.276894
 20
-9.989169
 10
861.820499
 20
-9.99
 10
861.824169
 20
-9.988105
 10
861.8242738158613
 20
-9.85
 10
860.275
 20
-9.85
 10
860.275
 20
-9.985499
  0
LWPOLYLINE
  5
10E
330
17
100
AcDbEntity
  8
VISTA
100
AcDbPolyline
 90
17
 70
1
 10
861.351501
 20
-11.0854
 10
861.356844
 20
-11.105373
 10
861.371527
 20
-11.120056
 10
861.3915
 20
-11.1254
 10
861.668501
 20
-11.1254
 10
861.688475
 20
-11.120056
 10
861.703157
 20
-11.105373
 10
861.7085
 20
-11.0854
 10
861.7085
 20
-11.0354
 10
861.703157
 20
-11.015427
 10
861.688475
 20
-11.000744
 10
861.668501
 20
-10.9954
 10
861.3915
 20
-10.9954
 10
861.371527
 20
-11.000744
 10
861.356844
 20
-11.015427
 10
861.351501
 20
-11.0354
 10
861.351501
 20
-11.0854
  0
LINE
  5
10F
330
17
100
AcDbEntity
  8
CORTE
100
AcDbLine
 10
861.799999
 20
-9.85
 30
0.0
 11
861.799999
 21
-11.995501
 31
0.0
  0
LINE
  5
110
330
17
100
AcDbEntity
  8
CORTE
100
AcDbLine
 10
861.800498450351
 20
-11.997064183550652
 30
0.0
 11
861.799999
 21
-11.995501
 31
0.0
  0
LINE
  5
111
330
17
100
AcDbEntity
  8
CORTE
100
AcDbLine
 10
861.800498450351
 20
-11.997064183550652
 30
0.0
 11
861.800831
 21
-11.998105
 31
0.0
  0
LINE
  5
112
330
17
100
AcDbEntity
  8
CORTE
100
AcDbLine
 10
861.8011227462387
 20
-11.998451373620863
 30
0.0
 11
861.800831
 21
-11.998105
 31
0.0
  0
LINE
  5
113
330
17
100
AcDbEntity
  8
CORTE
100
AcDbLine
 10
861.8011227462387
 20
-11.998451373620863
 30
0.0
 11
861.801317
 21
-11.998682
 31
0.0
  0
LINE
  5
114
330
17
100
AcDbEntity
  8
CORTE
100
AcDbLine
 10
862.0
 20
-11.995501
 30
0.0
 11
862.0
 21
-9.85
 31
0.0
  0
LINE
  5
115
330
17
100
AcDbEntity
  8
CORTE
100
AcDbLine
 10
862.0
 20
-11.995501
 30
0.0
 11
861.9995005496489
 21
-11.997064183550652
 31
0.0
  0
LINE
  5
116
330
17
100
AcDbEntity
  8
CORTE
100
AcDbLine
 10
861.999168
 20
-11.998105
 30
0.0
 11
861.9995005496489
 21
-11.997064183550652
 31
0.0
  0
LINE
  5
117
330
17
100
AcDbEntity
  8
CORTE
100
AcDbLine
 10
861.999168
 20
-11.998105
 30
0.0
 11
861.9988762537613
 21
-11.998451373620863
 31
0.0
  0
LINE
  5
118
330
17
100
AcDbEntity
  8
CORTE
100
AcDbLine
 10
861.998682
 20
-11.998682
 30
0.0
 11
861.9988762537613
 21
-11.998451373620863
 31
0.0
  0
LINE
  5
119
330
17
100
AcDbEntity
  8
CORTE
100
AcDbLine
 10
861.8016639739218
 20
-11.998974346539619
 30
0.0
 11
861.801317
 21
-11.998682
 31
0.0
  0
LINE
  5
11A
330
17
100
AcDbEntity
  8
CORTE
100
AcDbLine
 10
861.801895
 20
-11.999169
 30
0.0
 11
861.8016639739218
 21
-11.998974346539619
 31
0.0
  0
LINE
  5
11B
330
17
100
AcDbEntity
  8
CORTE
100
AcDbLine
 10
861.8034581835507
 20
-11.99966785005015
 30
0.0
 11
861.801895
 21
-11.999169
 31
0.0
  0
LINE
  5
11C
330
17
100
AcDbEntity
  8
CORTE
100
AcDbLine
 10
861.804499
 20
-12.0
 30
0.0
 11
861.8034581835507
 21
-11.99966785005015
 31
0.0
  0
LINE
  5
11D
330
17
100
AcDbEntity
  8
CORTE
100
AcDbLine
 10
861.9191576730191
 20
-12.0
 30
0.0
 11
861.804499
 21
-12.0
 31
0.0
  0
LINE
  5
11E
330
17
100
AcDbEntity
  8
CORTE
100
AcDbLine
 10
861.995501
 20
-12.0
 30
0.0
 11
861.9191576730191
 21
-12.0
 31
0.0
  0
LINE
  5
11F
330
17
100
AcDbEntity
  8
CORTE
100
AcDbLine
 10
861.9970635832498
 20
-11.99950114994985
 30
0.0
 11
861.995501
 21
-12.0
 31
0.0
  0
LINE
  5
120
330
17
100
AcDbEntity
  8
CORTE
100
AcDbLine
 10
861.998104
 20
-11.999169
 30
0.0
 11
861.9970635832498
 21
-11.99950114994985
 31
0.0
  0
LINE
  5
121
330
17
100
AcDbEntity
  8
CORTE
100
AcDbLine
 10
861.9984509739218
 20
-11.998876653460382
 30
0.0
 11
861.998104
 21
-11.999169
 31
0.0
  0
LINE
  5
122
330
17
100
AcDbEntity
  8
CORTE
100
AcDbLine
 10
861.998682
 20
-11.998682
 30
0.0
 11
861.9984509739218
 21
-11.998876653460382
 31
0.0
  0
LWPOLYLINE
  5
123
330
17
100
AcDbEntity
  8
VISTA
100
AcDbPolyline
 90
22
 70
1
 10
860.439999
 20
-9.868299
 10
860.440252731851
 20
-9.869094942271632
 10
860.440313
 20
-9.869284
 10
860.4404624916957
 20
-9.869460157781946
 10
860.440498
 20
-9.869502
 10
860.4406741577819
 20
-9.869650683632466
 10
860.440716
 20
-9.869686
 10
860.4415111342084
 20
-9.869939731851057
 10
860.4417
 20
-9.87
 10
860.5035968345834
 20
-9.87
 10
860.518299
 20
-9.87
 10
860.5190941342084
 20
-9.869746268148942
 10
860.519283
 20
-9.869686
 10
860.519459157782
 20
-9.869537316367534
 10
860.519501
 20
-9.869502
 10
860.5195365083043
 20
-9.869460157781946
 10
860.519686
 20
-9.869284
 10
860.519746268149
 20
-9.869094942271632
 10
860.52
 20
-9.868299
 10
860.52
 20
-9.85
 10
860.439999
 20
-9.85
 10
860.439999
 20
-9.868299
  0
LWPOLYLINE
  5
124
330
17
100
AcDbEntity
  8
CORTE
100
AcDbPolyline
 90
41
 70
1
 10
860.5010562427634
 20
-10.001628769394056
 10
860.500832
 20
-10.001895
 10
860.500383888846
 20
-10.003298040331918
 10
860.5
 20
-10.0045
 10
860.5
 20
-11.076842917792359
 10
860.5
 20
-11.9955
 10
860.500448111154
 20
-11.996903040331919
 10
860.500832
 20
-11.998105
 10
860.5010937572366
 20
-11.998415769394057
 10
860.501318
 20
-11.998682
 10
860.5016293079892
 20
-11.998944295831725
 10
860.501896
 20
-11.999169
 10
860.5032979631417
 20
-11.999616572558857
 10
860.504499
 20
-12.0
 10
860.6073717483597
 20
-12.0
 10
860.695501
 20
-12.0
 10
860.6969035017368
 20
-11.999552427441143
 10
860.698105
 20
-11.999169
 10
860.6984163079892
 20
-11.998906704168276
 10
860.698683
 20
-11.998682
 10
860.6989072427634
 20
-11.998415769394057
 10
860.699169
 20
-11.998105
 10
860.699552888846
 20
-11.996903040331919
 10
860.700001
 20
-11.9955
 10
860.700001
 20
-11.076842917792359
 10
860.700001
 20
-10.0045
 10
860.699617111154
 20
-10.003298040331918
 10
860.699169
 20
-10.001895
 10
860.6989447572366
 20
-10.001628769394056
 10
860.698683
 20
-10.001318
 10
860.6984163079892
 20
-10.001093295831724
 10
860.698105
 20
-10.000831
 10
860.6969035017368
 20
-10.000447572558857
 10
860.695501
 20
-10.0
 10
860.6073717483597
 20
-10.0
 10
860.504499
 20
-10.0
 10
860.5032979631417
 20
-10.000383427441143
 10
860.501896
 20
-10.000831
 10
860.5016293079892
 20
-10.001055704168275
 10
860.501318
 20
-10.001318
 10
860.5010562427634
 20
-10.001628769394056
  0
LWPOLYLINE
  5
125
330
17
100
AcDbEntity
  8
VISTA
100
AcDbPolyline
 90
41
 70
1
 10
860.5010562427634
 20
-10.031629769394057
 10
860.500832
 20
-10.031896
 10
860.500383888846
 20
-10.03329850173678
 10
860.5
 20
-10.0345
 10
860.5
 20
-10.105056501543805
 10
860.5
 20
-10.165501
 10
860.500448111154
 20
-10.166903501736781
 10
860.500832
 20
-10.168105
 10
860.5010937572366
 20
-10.168415769394057
 10
860.501318
 20
-10.168682
 10
860.5016282307989
 20
-10.168944295831725
 10
860.501894
 20
-10.169169
 10
860.503297040332
 20
-10.169616572558857
 10
860.504499
 20
-10.17
 10
861.3075454264763
 20
-10.17
 10
861.995501
 20
-10.17
 10
861.996904040332
 20
-10.169552427441143
 10
861.998106
 20
-10.169169
 10
861.998416230799
 20
-10.168906704168275
 10
861.998682
 20
-10.168682
 10
861.9989062427634
 20
-10.168415769394057
 10
861.999168
 20
-10.168105
 10
861.999551888846
 20
-10.166903501736781
 10
862.0
 20
-10.165501
 10
862.0
 20
-10.105056501543805
 10
862.0
 20
-10.0345
 10
861.999616111154
 20
-10.03329850173678
 10
861.999168
 20
-10.031896
 10
861.9989437572366
 20
-10.031629769394057
 10
861.998682
 20
-10.031319
 10
861.998416230799
 20
-10.031093834426862
 10
861.998106
 20
-10.030831
 10
861.996904040332
 20
-10.03044803396372
 10
861.995501
 20
-10.030001
 10
861.3075454264763
 20
-10.030001
 10
860.504499
 20
-10.030001
 10
860.503297040332
 20
-10.030383966036279
 10
860.501894
 20
-10.030831
 10
860.5016282307989
 20
-10.031056165573137
 10
860.501318
 20
-10.031319
 10
860.5010562427634
 20
-10.031629769394057
  0
LWPOLYLINE
  5
126
330
17
100
AcDbEntity
  8
CORTE
100
AcDbPolyline
 90
41
 70
1
 10
860.5010562427634
 20
-11.831628769394056
 10
860.500832
 20
-11.831895
 10
860.500383888846
 20
-11.83329750173678
 10
860.5
 20
-11.834499
 10
860.5
 20
-11.905055501543805
 10
860.5
 20
-11.9655
 10
860.500448111154
 20
-11.966902501736781
 10
860.500832
 20
-11.968104
 10
860.5010937572366
 20
-11.968414769394057
 10
860.501318
 20
-11.968681
 10
860.5016293079892
 20
-11.968943834426863
 10
860.501896
 20
-11.969169
 10
860.5032979631417
 20
-11.969616033963721
 10
860.504499
 20
-11.969999
 10
860.6450734079506
 20
-11.969999
 10
860.765501
 20
-11.969999
 10
860.7669035017368
 20
-11.96955196603628
 10
860.768105
 20
-11.969169
 10
860.7684157693941
 20
-11.968906165573138
 10
860.768682
 20
-11.968681
 10
860.7689067041683
 20
-11.968414769394057
 10
860.769169
 20
-11.968104
 10
860.7695524274411
 20
-11.966902501736781
 10
860.77
 20
-11.9655
 10
860.77
 20
-11.905055501543805
 10
860.77
 20
-11.834499
 10
860.7696165725589
 20
-11.83329750173678
 10
860.769169
 20
-11.831895
 10
860.7689442958317
 20
-11.831628769394056
 10
860.768682
 20
-11.831318
 10
860.7684157693941
 20
-11.831093295831725
 10
860.768105
 20
-11.830831
 10
860.7669035017368
 20
-11.830447572558857
 10
860.765501
 20
-11.83
 10
860.6450734079506
 20
-11.83
 10
860.504499
 20
-11.83
 10
860.5032979631417
 20
-11.830383427441143
 10
860.501896
 20
-11.830831
 10
860.5016293079892
 20
-11.831055704168275
 10
860.501318
 20
-11.831318
 10
860.5010562427634
 20
-11.831628769394056
  0
LWPOLYLINE
  5
127
330
17
100
AcDbEntity
  8
CORTE
100
AcDbPolyline
 90
41
 70
1
 10
861.6710551655731
 20
-11.831628769394056
 10
861.67083
 20
-11.831895
 10
861.670381888846
 20
-11.83329750173678
 10
861.669998
 20
-11.834499
 10
861.669998
 20
-11.905055501543805
 10
861.669998
 20
-11.9655
 10
861.670446111154
 20
-11.966902501736781
 10
861.67083
 20
-11.968104
 10
861.6710928344269
 20
-11.968414769394057
 10
861.671318
 20
-11.968681
 10
861.6716282307989
 20
-11.968943834426863
 10
861.671894
 20
-11.969169
 10
861.6732975789271
 20
-11.969616033963721
 10
861.6745
 20
-11.969999
 10
861.8473885003859
 20
-11.969999
 10
861.995499
 20
-11.969999
 10
861.9969020403319
 20
-11.96955196603628
 10
861.998104
 20
-11.969169
 10
861.998414230799
 20
-11.968906165573138
 10
861.99868
 20
-11.968681
 10
861.9989051655731
 20
-11.968414769394057
 10
861.999168
 20
-11.968104
 10
861.999551888846
 20
-11.966902501736781
 10
862.0
 20
-11.9655
 10
862.0
 20
-11.905055501543805
 10
862.0
 20
-11.834499
 10
861.999616111154
 20
-11.83329750173678
 10
861.999168
 20
-11.831895
 10
861.9989428344269
 20
-11.831628769394056
 10
861.99868
 20
-11.831318
 10
861.998414230799
 20
-11.831093295831725
 10
861.998104
 20
-11.830831
 10
861.9969020403319
 20
-11.830447572558857
 10
861.995499
 20
-11.83
 10
861.8473885003859
 20
-11.83
 10
861.6745
 20
-11.83
 10
861.6732975789271
 20
-11.830383427441143
 10
861.671894
 20
-11.830831
 10
861.6716282307989
 20
-11.831055704168275
 10
861.671318
 20
-11.831318
 10
861.6710551655731
 20
-11.831628769394056
  0
LWPOLYLINE
  5
128
330
17
100
AcDbEntity
  8
VISTA
100
AcDbPolyline
 90
22
 70
1
 10
861.652597
 20
-11.922791
 10
861.6522098722963
 20
-11.921696777266453
 10
861.651888
 20
-11.920787
 10
861.6516734144041
 20
-11.920548389553613
 10
861.651495
 20
-11.92035
 10
861.6512861688909
 20
-11.920184751035434
 10
861.651035
 20
-11.919986
 10
861.6501070635067
 20
-11.919721329268294
 10
861.648991
 20
-11.919403
 10
861.6317474521398
 20
-11.919945052922229
 10
861.611008
 20
-11.920597
 10
861.6100977687529
 20
-11.920919326277037
 10
861.609003
 20
-11.921307
 10
861.6088046104464
 20
-11.92148541440405
 10
861.608566
 20
-11.9217
 10
861.6084007510354
 20
-11.921908377128394
 10
861.608202
 20
-11.922159
 10
861.607937783249
 20
-11.923087844454672
 10
861.60762
 20
-11.924205
 10
861.6178589403753
 20
-12.25
 10
861.6628803662835
 20
-12.25
 10
861.652597
 20
-11.922791
  0
LWPOLYLINE
  5
129
330
17
100
AcDbEntity
  8
VISTA
100
AcDbPolyline
 90
41
 70
1
 10
860.7653955929351
 20
-11.865618801858703
 10
860.765314
 20
-11.865716
 10
860.7651394468555
 20
-11.86626127077506
 10
860.764999
 20
-11.8667
 10
860.764999
 20
-11.925771000631597
 10
860.764999
 20
-11.9733
 10
860.7651735531445
 20
-11.973845270775062
 10
860.765314
 20
-11.974284
 10
860.7654154070649
 20
-11.97440535599567
 10
860.765497
 20
-11.974503
 10
860.7656189101326
 20
-11.974604961201841
 10
860.765717
 20
-11.974687
 10
860.7662622707751
 20
-11.974860444870522
 10
860.766701
 20
-11.975
 10
860.7869813047009
 20
-11.975
 10
860.803299
 20
-11.975
 10
860.803844270775
 20
-11.974826555129477
 10
860.804283
 20
-11.974687
 10
860.8044043559956
 20
-11.974585038798159
 10
860.804502
 20
-11.974503
 10
860.8045840387981
 20
-11.97440535599567
 10
860.804686
 20
-11.974284
 10
860.8048260009925
 20
-11.973845270775062
 10
860.805
 20
-11.9733
 10
860.805
 20
-11.925771000631597
 10
860.805
 20
-11.8667
 10
860.8048599990075
 20
-11.86626127077506
 10
860.804686
 20
-11.865716
 10
860.8046039612018
 20
-11.865618801858703
 10
860.804502
 20
-11.865498
 10
860.8044043559956
 20
-11.86541596120184
 10
860.804283
 20
-11.865314
 10
860.803844270775
 20
-11.865173999007489
 10
860.803299
 20
-11.865
 10
860.7869813047009
 20
-11.865
 10
860.766701
 20
-11.865
 10
860.7662622707751
 20
-11.865140000992511
 10
860.765717
 20
-11.865314
 10
860.7656189101326
 20
-11.86539603879816
 10
860.765497
 20
-11.865498
 10
860.7653955929351
 20
-11.865618801858703
  0
LWPOLYLINE
  5
12A
330
17
100
AcDbEntity
  8
VISTA
100
AcDbPolyline
 90
41
 70
1
 10
861.6353965929351
 20
-11.865618801858703
 10
861.635315
 20
-11.865716
 10
861.6351404468555
 20
-11.86626127077506
 10
861.635
 20
-11.8667
 10
861.635
 20
-11.925771000631597
 10
861.635
 20
-11.9733
 10
861.6351745531445
 20
-11.973845270775062
 10
861.635315
 20
-11.974284
 10
861.6354164070649
 20
-11.97440535599567
 10
861.635498
 20
-11.974503
 10
861.6356193559957
 20
-11.974604961201841
 10
861.635717
 20
-11.974687
 10
861.636262824912
 20
-11.974860444870522
 10
861.636702
 20
-11.975
 10
861.6569823047009
 20
-11.975
 10
861.6733
 20
-11.975
 10
861.673845270775
 20
-11.974826555129477
 10
861.674284
 20
-11.974687
 10
861.6744053559956
 20
-11.974585038798159
 10
861.674503
 20
-11.974503
 10
861.6745845929352
 20
-11.97440535599567
 10
861.674686
 20
-11.974284
 10
861.6748264468556
 20
-11.973845270775062
 10
861.675001
 20
-11.9733
 10
861.675001
 20
-11.925771000631597
 10
861.675001
 20
-11.8667
 10
861.6748605531444
 20
-11.86626127077506
 10
861.674686
 20
-11.865716
 10
861.6746044070649
 20
-11.865618801858703
 10
861.674503
 20
-11.865498
 10
861.6744053559956
 20
-11.86541596120184
 10
861.674284
 20
-11.865314
 10
861.673845270775
 20
-11.865173999007489
 10
861.6733
 20
-11.865
 10
861.6569823047009
 20
-11.865
 10
861.636702
 20
-11.865
 10
861.636262824912
 20
-11.865140000992511
 10
861.635717
 20
-11.865314
 10
861.6356193559957
 20
-11.86539603879816
 10
861.635498
 20
-11.865498
 10
861.6353965929351
 20
-11.865618801858703
  0
LWPOLYLINE
  5
12B
330
17
100
AcDbEntity
  8
VISTA
100
AcDbPolyline
 90
16
 70
1
 10
861.835001
 20
-12.24
 10
861.833126
 20
-12.225764
 10
861.827633
 20
-12.2125
 10
861.818892
 20
-12.201109
 10
861.807501
 20
-12.192369
 10
861.794235
 20
-12.186873
 10
861.780001
 20
-12.184999
 10
861.765766
 20
-12.186873
 10
861.752501
 20
-12.192369
 10
861.74111
 20
-12.201109
 10
861.732368
 20
-12.2125
 10
861.726875
 20
-12.225765
 10
861.725
 20
-12.24
 10
861.7263171759747
 20
-12.25
 10
861.833683731488
 20
-12.25
 10
861.835001
 20
-12.24
  0
DIMENSION
  5
12C
330
17
100
AcDbEntity
  8
COTAS
100
AcDbDimension
280
0
  2
*D5
  3
Standard
 10
860.7
 20
-9.709999999999999
 30
0.0
 11
861.25
 21
-9.709999999999999
 31
0.0
 70
32
 71
5
  1
<>
100
AcDbAlignedDimension
 13
860.7
 23
-10.17
 33
0.0
 14
861.8
 24
-10.17
 34
0.0
 50
0.0
100
AcDbRotatedDimension
1001
ACAD
1000
DSTYLE
1002
{
1070
140
1040
0.13
1070
41
1040
0.09
1002
}
  0
DIMENSION
  5
13C
330
17
100
AcDbEntity
  8
COTAS
100
AcDbDimension
280
0
  2
*D6
  3
Standard
 10
862.4
 20
-10.17
 30
0.0
 11
862.4
 21
-11.0
 31
0.0
 70
32
 71
5
  1
<>
100
AcDbAlignedDimension
 13
861.8
 23
-10.17
 33
0.0
 14
861.8
 24
-11.83
 34
0.0
 50
90.0
100
AcDbRotatedDimension
1001
ACAD
1000
DSTYLE
1002
{
1070
140
1040
0.13
1070
41
1040
0.09
1002
}
  0
TEXT
  5
14C
330
17
100
AcDbEntity
  8
TEXTOS
100
AcDbText
 10
861.25
 20
-11.0
 30
0.0
 40
0.054000000000000006
  1
Piso +0.21
100
AcDbText
  0
LWPOLYLINE
  5
14D
330
17
100
AcDbEntity
  8
VISTA
100
AcDbPolyline
 90
4
 70
1
 10
900.7
 20
0.21
 10
901.8
 20
0.21
 10
901.8
 20
2.81
 10
900.7
 20
2.81
  0
LWPOLYLINE
  5
14E
330
17
100
AcDbEntity
  8
VISTA
100
AcDbPolyline
 90
5
 70
1
 10
901.550001
 20
1.049
 10
901.550001
 20
1.037
 10
901.51
 20
1.037
 10
901.51
 20
1.049
 10
901.550001
 20
1.049
  0
LWPOLYLINE
  5
14F
330
17
100
AcDbEntity
  8
VISTA
100
AcDbPolyline
 90
17
 70
1
 10
901.371527
 20
1.029656
 10
901.3915
 20
1.035
 10
901.668501
 20
1.035
 10
901.688475
 20
1.029656
 10
901.703157
 20
1.014974
 10
901.7085
 20
0.995
 10
901.7085
 20
0.735
 10
901.703157
 20
0.715026
 10
901.688475
 20
0.700344
 10
901.668501
 20
0.695
 10
901.3915
 20
0.695
 10
901.371527
 20
0.700344
 10
901.356844
 20
0.715026
 10
901.351501
 20
0.735
 10
901.351501
 20
0.995
 10
901.356844
 20
1.014974
 10
901.371527
 20
1.029656
  0
LWPOLYLINE
  5
150
330
17
100
AcDbEntity
  8
VISTA
100
AcDbPolyline
 90
6
 70
1
 10
900.6322
 20
0.81
 10
901.059999
 20
0.81
 10
900.9795
 20
0.63
 10
900.6805
 20
0.63
 10
900.6
 20
0.81
 10
900.6322
 20
0.81
  0
LWPOLYLINE
  5
151
330
17
100
AcDbEntity
  8
VISTA
100
AcDbPolyline
 90
9
 70
1
 10
900.555
 20
2.1255
 10
900.5595
 20
2.13
 10
900.5805
 20
2.13
 10
900.584999
 20
2.1255
 10
900.584999
 20
1.3145
 10
900.5805
 20
1.31
 10
900.5595
 20
1.31
 10
900.555
 20
1.3145
 10
900.555
 20
2.1255
  0
LWPOLYLINE
  5
152
330
17
100
AcDbEntity
  8
VISTA
100
AcDbPolyline
 90
5
 70
1
 10
901.7358
 20
0.73
 10
901.7358
 20
0.705
 10
901.3242
 20
0.705
 10
901.3242
 20
0.73
 10
901.7358
 20
0.73
  0
LWPOLYLINE
  5
153
330
17
100
AcDbEntity
  8
VISTA
100
AcDbPolyline
 90
5
 70
1
 10
901.74
 20
0.705
 10
901.6665
 20
0.155
 10
901.393499
 20
0.155
 10
901.32
 20
0.705
 10
901.74
 20
0.705
  0
LWPOLYLINE
  5
154
330
17
100
AcDbEntity
  8
VISTA
100
AcDbPolyline
 90
8
 70
1
 10
901.745001
 20
1.3283
 10
901.7467
 20
1.33
 10
901.7733
 20
1.33
 10
901.775
 20
1.3283
 10
901.775
 20
1.2317
 10
901.7733
 20
1.23
 10
901.745848
 20
1.2305
 10
901.745001
 20
1.3283
  0
TEXT
  5
155
330
17
100
AcDbEntity
  8
TEXTOS
100
AcDbText
 10
900.55
 20
0.31
 30
0.0
 40
0.052000000000000005
  1
+0.21
100
AcDbText
  0
ENDSEC
  0
SECTION
  2
OBJECTS
  0
DICTIONARY
  5
A
330
0
100
AcDbDictionary
281
1
  3
ACAD_COLOR
350
B
  3
ACAD_GROUP
350
C
  3
ACAD_LAYOUT
350
D
  3
ACAD_MATERIAL
350
E
  3
ACAD_MLEADERSTYLE
350
F
  3
ACAD_MLINESTYLE
350
10
  3
ACAD_PLOTSETTINGS
350
11
  3
ACAD_PLOTSTYLENAME
350
12
  3
ACAD_SCALELIST
350
14
  3
ACAD_TABLESTYLE
350
15
  3
ACAD_VISUALSTYLE
350
16
  3
EZDXF_META
350
2D
  0
DICTIONARY
  5
B
330
A
100
AcDbDictionary
281
1
  0
DICTIONARY
  5
C
330
A
100
AcDbDictionary
281
1
  0
DICTIONARY
  5
D
330
A
100
AcDbDictionary
281
1
  3
Model
350
1A
  3
Layout1
350
1E
  0
DICTIONARY
  5
E
330
A
100
AcDbDictionary
281
1
  3
ByBlock
350
1F
  3
ByLayer
350
20
  3
Global
350
21
  0
DICTIONARY
  5
F
330
A
100
AcDbDictionary
281
1
  3
Standard
350
2C
  0
DICTIONARY
  5
10
330
A
100
AcDbDictionary
281
1
  3
Standard
350
22
  0
DICTIONARY
  5
11
330
A
100
AcDbDictionary
281
1
  0
ACDBDICTIONARYWDFLT
  5
12
330
A
100
AcDbDictionary
281
1
  3
Normal
350
13
100
AcDbDictionaryWithDefault
340
13
  0
ACDBPLACEHOLDER
  5
13
330
12
  0
DICTIONARY
  5
14
330
A
100
AcDbDictionary
281
1
  0
DICTIONARY
  5
15
330
A
100
AcDbDictionary
281
1
  0
DICTIONARY
  5
16
330
A
100
AcDbDictionary
281
1
  0
LAYOUT
  5
1A
330
D
100
AcDbPlotSettings
  1

  4
A3
  6

 40
7.5
 41
20.0
 42
7.5
 43
20.0
 44
420.0
 45
297.0
 46
0.0
 47
0.0
 48
0.0
 49
0.0
140
0.0
141
0.0
142
1.0
143
1.0
 70
1024
 72
1
 73
0
 74
5
  7

 75
16
 76
0
 77
2
 78
300
147
1.0
148
0.0
149
0.0
100
AcDbLayout
  1
Model
 70
1
 71
0
 10
0.0
 20
0.0
 11
420.0
 21
297.0
 12
0.0
 22
0.0
 32
0.0
 14
1e+20
 24
1e+20
 34
1e+20
 15
-1e+20
 25
-1e+20
 35
-1e+20
146
0.0
 13
0.0
 23
0.0
 33
0.0
 16
1.0
 26
0.0
 36
0.0
 17
0.0
 27
1.0
 37
0.0
 76
1
330
17
  0
LAYOUT
  5
1E
330
D
100
AcDbPlotSettings
  1

  4
A3
  6

 40
7.5
 41
20.0
 42
7.5
 43
20.0
 44
420.0
 45
297.0
 46
0.0
 47
0.0
 48
0.0
 49
0.0
140
0.0
141
0.0
142
1.0
143
1.0
 70
0
 72
1
 73
0
 74
5
  7

 75
16
 76
0
 77
2
 78
300
147
1.0
148
0.0
149
0.0
100
AcDbLayout
  1
Layout1
 70
1
 71
1
 10
0.0
 20
0.0
 11
420.0
 21
297.0
 12
0.0
 22
0.0
 32
0.0
 14
1e+20
 24
1e+20
 34
1e+20
 15
-1e+20
 25
-1e+20
 35
-1e+20
146
0.0
 13
0.0
 23
0.0
 33
0.0
 16
1.0
 26
0.0
 36
0.0
 17
0.0
 27
1.0
 37
0.0
 76
1
330
1B
  0
MATERIAL
  5
1F
102
{ACAD_REACTORS
330
E
102
}
330
E
100
AcDbMaterial
  1
ByBlock
  2

 70
0
 40
1.0
 71
1
 41
1.0
 91
-1023410177
 42
1.0
 72
1
  3

 73
1
 74
1
 75
1
 44
0.5
 73
0
 45
1.0
 46
1.0
 77
1
  4

 78
1
 79
1
170
1
 48
1.0
171
1
  6

172
1
173
1
174
1
140
1.0
141
1.0
175
1
  7

176
1
177
1
178
1
143
1.0
179
1
  8

270
1
271
1
272
1
145
1.0
146
1.0
273
1
  9

274
1
275
1
276
1
 42
1.0
 72
1
  3

 73
1
 74
1
 75
1
 94
63
  0
MATERIAL
  5
20
102
{ACAD_REACTORS
330
E
102
}
330
E
100
AcDbMaterial
  1
ByLayer
  2

 70
0
 40
1.0
 71
1
 41
1.0
 91
-1023410177
 42
1.0
 72
1
  3

 73
1
 74
1
 75
1
 44
0.5
 73
0
 45
1.0
 46
1.0
 77
1
  4

 78
1
 79
1
170
1
 48
1.0
171
1
  6

172
1
173
1
174
1
140
1.0
141
1.0
175
1
  7

176
1
177
1
178
1
143
1.0
179
1
  8

270
1
271
1
272
1
145
1.0
146
1.0
273
1
  9

274
1
275
1
276
1
 42
1.0
 72
1
  3

 73
1
 74
1
 75
1
 94
63
  0
MATERIAL
  5
21
102
{ACAD_REACTORS
330
E
102
}
330
E
100
AcDbMaterial
  1
Global
  2

 70
0
 40
1.0
 71
1
 41
1.0
 91
-1023410177
 42
1.0
 72
1
  3

 73
1
 74
1
 75
1
 44
0.5
 73
0
 45
1.0
 46
1.0
 77
1
  4

 78
1
 79
1
170
1
 48
1.0
171
1
  6

172
1
173
1
174
1
140
1.0
141
1.0
175
1
  7

176
1
177
1
178
1
143
1.0
179
1
  8

270
1
271
1
272
1
145
1.0
146
1.0
273
1
  9

274
1
275
1
276
1
 42
1.0
 72
1
  3

 73
1
 74
1
 75
1
 94
63
  0
MLINESTYLE
  5
22
102
{ACAD_REACTORS
330
10
102
}
330
10
100
AcDbMlineStyle
  2
Standard
 70
0
  3

 62
256
 51
90.0
 52
90.0
 71
2
 49
0.5
 62
256
  6
BYLAYER
 49
-0.5
 62
256
  6
BYLAYER
  0
MLEADERSTYLE
  5
2C
102
{ACAD_REACTORS
330
F
102
}
330
F
100
AcDbMLeaderStyle
179
2
170
2
171
1
172
0
 90
2
 40
0.0
 41
0.0
173
1
 91
-1056964608
 92
-2
290
1
 42
2.0
291
1
 43
8.0
  3
Standard
 44
4.0
300

342
29
174
1
175
1
176
0
178
1
 93
-1056964608
 45
4.0
292
0
297
0
 46
4.0
 94
-1056964608
 47
1.0
 49
1.0
140
1.0
294
1
141
0.0
177
0
142
1.0
295
0
296
0
143
3.75
271
0
272
9
273
9
  0
DICTIONARY
  5
2D
330
A
100
AcDbDictionary
280
1
281
1
  3
CREATED_BY_EZDXF
350
2E
  3
WRITTEN_BY_EZDXF
350
158
  0
DICTIONARYVAR
  5
2E
330
2D
100
DictionaryVariables
280
0
  1
1.4.4 @ 2026-09-10T18:24:43.087694+00:00
  0
DICTIONARYVAR
  5
158
330
2D
100
DictionaryVariables
280
0
  1
1.4.4 @ 2026-09-10T18:24:43.717091+00:00
  0
ENDSEC
  0
EOF
