  0
SECTION
  2
HEADER
  9
$ACADVER
  1
AC1024
  9
$ACADMAINTVER
 70
6
  9
$DWGCODEPAGE
  3
ANSI_1252
  9
$LASTSAVEDBY
  1
ezdxf
  9
$INSBASE
 10
0.0
 20
0.0
 30
0.0
  9
$EXTMIN
 10
1e+20
 20
1e+20
 30
1e+20
  9
$EXTMAX
 10
-1e+20
 20
-1e+20
 30
-1e+20
  9
$LIMMIN
 10
0.0
 20
0.0
  9
$LIMMAX
 10
420.0
 20
297.0
  9
$ORTHOMODE
 70
0
  9
$REGENMODE
 70
1
  9
$FILLMODE
 70
1
  9
$QTEXTMODE
 70
0
  9
$MIRRTEXT
 70
1
  9
$LTSCALE
 40
1.0
  9
$ATTMODE
 70
1
  9
$TEXTSIZE
 40
2.5
  9
$TRACEWID
 40
1.0
  9
$TEXTSTYLE
  7
Standard
  9
$CLAYER
  8
0
  9
$CELTYPE
  6
ByLayer
  9
$CECOLOR
 62
256
  9
$CELTSCALE
 40
1.0
  9
$DISPSILH
 70
0
  9
$DIMSCALE
 40
1.0
  9
$DIMASZ
 40
2.5
  9
$DIMEXO
 40
0.625
  9
$DIMDLI
 40
3.75
  9
$DIMRND
 40
0.0
  9
$DIMDLE
 40
0.0
  9
$DIMEXE
 40
1.25
  9
$DIMTP
 40
0.0
  9
$DIMTM
 40
0.0
  9
$DIMTXT
 40
2.5
  9
$DIMCEN
 40
2.5
  9
$DIMTSZ
 40
0.0
  9
$DIMTOL
 70
0
  9
$DIMLIM
 70
0
  9
$DIMTIH
 70
0
  9
$DIMTOH
 70
0
  9
$DIMSE1
 70
0
  9
$DIMSE2
 70
0
  9
$DIMTAD
 70
1
  9
$DIMZIN
 70
8
  9
$DIMBLK
  1

  9
$DIMASO
 70
1
  9
$DIMSHO
 70
1
  9
$DIMPOST
  1

  9
$DIMAPOST
  1

  9
$DIMALT
 70
0
  9
$DIMALTD
 70
3
  9
$DIMALTF
 40
0.03937007874
  9
$DIMLFAC
 40
1.0
  9
$DIMTOFL
 70
1
  9
$DIMTVP
 40
0.0
  9
$DIMTIX
 70
0
  9
$DIMSOXD
 70
0
  9
$DIMSAH
 70
0
  9
$DIMBLK1
  1

  9
$DIMBLK2
  1

  9
$DIMSTYLE
  2
ISO-25
  9
$DIMCLRD
 70
0
  9
$DIMCLRE
 70
0
  9
$DIMCLRT
 70
0
  9
$DIMTFAC
 40
1.0
  9
$DIMGAP
 40
0.625
  9
$DIMJUST
 70
0
  9
$DIMSD1
 70
0
  9
$DIMSD2
 70
0
  9
$DIMTOLJ
 70
0
  9
$DIMTZIN
 70
8
  9
$DIMALTZ
 70
0
  9
$DIMALTTZ
 70
0
  9
$DIMUPT
 70
0
  9
$DIMDEC
 70
2
  9
$DIMTDEC
 70
2
  9
$DIMALTU
 70
2
  9
$DIMALTTD
 70
3
  9
$DIMTXSTY
  7
Standard
  9
$DIMAUNIT
 70
0
  9
$DIMADEC
 70
0
  9
$DIMALTRND
 40
0.0
  9
$DIMAZIN
 70
0
  9
$DIMDSEP
 70
44
  9
$DIMATFIT
 70
3
  9
$DIMFRAC
 70
0
  9
$DIMLDRBLK
  1

  9
$DIMLUNIT
 70
2
  9
$DIMLWD
 70
-2
  9
$DIMLWE
 70
-2
  9
$DIMTMOVE
 70
0
  9
$DIMFXL
 40
1.0
  9
$DIMFXLON
 70
0
  9
$DIMJOGANG
 40
0.785398163397
  9
$DIMTFILL
 70
0
  9
$DIMTFILLCLR
 70
0
  9
$DIMARCSYM
 70
0
  9
$DIMLTYPE
  6

  9
$DIMLTEX1
  6

  9
$DIMLTEX2
  6

  9
$DIMTXTDIRECTION
 70
0
  9
$LUNITS
 70
2
  9
$LUPREC
 70
4
  9
$SKETCHINC
 40
1.0
  9
$FILLETRAD
 40
10.0
  9
$AUNITS
 70
0
  9
$AUPREC
 70
2
  9
$MENU
  1
.
  9
$ELEVATION
 40
0.0
  9
$PELEVATION
 40
0.0
  9
$THICKNESS
 40
0.0
  9
$LIMCHECK
 70
0
  9
$CHAMFERA
 40
0.0
  9
$CHAMFERB
 40
0.0
  9
$CHAMFERC
 40
0.0
  9
$CHAMFERD
 40
0.0
  9
$SKPOLY
 70
0
  9
$TDCREATE
 40
2461294.642164352
  9
$TDUCREATE
 40
2458532.153996898
  9
$TDUPDATE
 40
2461294.642175926
  9
$TDUUPDATE
 40
2458532.1544311
  9
$TDINDWG
 40
0.0
  9
$TDUSRTIMER
 40
0.0
  9
$USRTIMER
 70
1
  9
$ANGBASE
 50
0.0
  9
$ANGDIR
 70
0
  9
$PDMODE
 70
0
  9
$PDSIZE
 40
0.0
  9
$PLINEWID
 40
0.0
  9
$SPLFRAME
 70
0
  9
$SPLINETYPE
 70
6
  9
$SPLINESEGS
 70
8
  9
$HANDSEED
  5
1E9
  9
$SURFTAB1
 70
6
  9
$SURFTAB2
 70
6
  9
$SURFTYPE
 70
6
  9
$SURFU
 70
6
  9
$SURFV
 70
6
  9
$UCSBASE
  2

  9
$UCSNAME
  2

  9
$UCSORG
 10
0.0
 20
0.0
 30
0.0
  9
$UCSXDIR
 10
1.0
 20
0.0
 30
0.0
  9
$UCSYDIR
 10
0.0
 20
1.0
 30
0.0
  9
$UCSORTHOREF
  2

  9
$UCSORTHOVIEW
 70
0
  9
$UCSORGTOP
 10
0.0
 20
0.0
 30
0.0
  9
$UCSORGBOTTOM
 10
0.0
 20
0.0
 30
0.0
  9
$UCSORGLEFT
 10
0.0
 20
0.0
 30
0.0
  9
$UCSORGRIGHT
 10
0.0
 20
0.0
 30
0.0
  9
$UCSORGFRONT
 10
0.0
 20
0.0
 30
0.0
  9
$UCSORGBACK
 10
0.0
 20
0.0
 30
0.0
  9
$PUCSBASE
  2

  9
$PUCSNAME
  2

  9
$PUCSORG
 10
0.0
 20
0.0
 30
0.0
  9
$PUCSXDIR
 10
1.0
 20
0.0
 30
0.0
  9
$PUCSYDIR
 10
0.0
 20
1.0
 30
0.0
  9
$PUCSORTHOREF
  2

  9
$PUCSORTHOVIEW
 70
0
  9
$PUCSORGTOP
 10
0.0
 20
0.0
 30
0.0
  9
$PUCSORGBOTTOM
 10
0.0
 20
0.0
 30
0.0
  9
$PUCSORGLEFT
 10
0.0
 20
0.0
 30
0.0
  9
$PUCSORGRIGHT
 10
0.0
 20
0.0
 30
0.0
  9
$PUCSORGFRONT
 10
0.0
 20
0.0
 30
0.0
  9
$PUCSORGBACK
 10
0.0
 20
0.0
 30
0.0
  9
$USERI1
 70
0
  9
$USERI2
 70
0
  9
$USERI3
 70
0
  9
$USERI4
 70
0
  9
$USERI5
 70
0
  9
$USERR1
 40
0.0
  9
$USERR2
 40
0.0
  9
$USERR3
 40
0.0
  9
$USERR4
 40
0.0
  9
$USERR5
 40
0.0
  9
$WORLDVIEW
 70
1
  9
$SHADEDGE
 70
3
  9
$SHADEDIF
 70
70
  9
$TILEMODE
 70
1
  9
$MAXACTVP
 70
64
  9
$PINSBASE
 10
0.0
 20
0.0
 30
0.0
  9
$PLIMCHECK
 70
0
  9
$PEXTMIN
 10
1e+20
 20
1e+20
 30
1e+20
  9
$PEXTMAX
 10
-1e+20
 20
-1e+20
 30
-1e+20
  9
$PLIMMIN
 10
0.0
 20
0.0
  9
$PLIMMAX
 10
420.0
 20
297.0
  9
$UNITMODE
 70
0
  9
$VISRETAIN
 70
1
  9
$PLINEGEN
 70
0
  9
$PSLTSCALE
 70
1
  9
$TREEDEPTH
 70
3020
  9
$CMLSTYLE
  2
Standard
  9
$CMLJUST
 70
0
  9
$CMLSCALE
 40
20.0
  9
$PROXYGRAPHICS
 70
1
  9
$MEASUREMENT
 70
1
  9
$CELWEIGHT
370
-1
  9
$ENDCAPS
280
0
  9
$JOINSTYLE
280
0
  9
$LWDISPLAY
290
0
  9
$INSUNITS
 70
6
  9
$HYPERLINKBASE
  1

  9
$STYLESHEET
  1

  9
$XEDIT
290
1
  9
$CEPSNTYPE
380
0
  9
$PSTYLEMODE
290
1
  9
$FINGERPRINTGUID
  2
{824F6470-C36D-48C4-90F5-9EE99B6F8F6C}
  9
$VERSIONGUID
  2
{AA087AD4-23BB-48AD-AA0E-1BC0037A00EE}
  9
$EXTNAMES
290
1
  9
$PSVPSCALE
 40
0.0
  9
$OLESTARTUP
290
0
  9
$SORTENTS
280
127
  9
$INDEXCTL
280
0
  9
$HIDETEXT
280
1
  9
$XCLIPFRAME
280
1
  9
$HALOGAP
280
0
  9
$OBSCOLOR
 70
257
  9
$OBSLTYPE
280
0
  9
$INTERSECTIONDISPLAY
280
0
  9
$INTERSECTIONCOLOR
 70
257
  9
$DIMASSOC
280
2
  9
$PROJECTNAME
  1

  9
$CAMERADISPLAY
290
0
  9
$LENSLENGTH
 40
50.0
  9
$CAMERAHEIGHT
 40
0.0
  9
$STEPSPERSEC
 40
24.0
  9
$STEPSIZE
 40
100.0
  9
$3DDWFPREC
 40
2.0
  9
$PSOLWIDTH
 40
0.005
  9
$PSOLHEIGHT
 40
0.08
  9
$LOFTANG1
 40
1.570796326795
  9
$LOFTANG2
 40
1.570796326795
  9
$LOFTMAG1
 40
0.0
  9
$LOFTMAG2
 40
0.0
  9
$LOFTPARAM
 70
7
  9
$LOFTNORMALS
280
1
  9
$LATITUDE
 40
37.795
  9
$LONGITUDE
 40
-122.394
  9
$NORTHDIRECTION
 40
0.0
  9
$TIMEZONE
 70
-8000
  9
$LIGHTGLYPHDISPLAY
280
1
  9
$TILEMODELIGHTSYNCH
280
1
  9
$CMATERIAL
347
20
  9
$SOLIDHIST
280
0
  9
$SHOWHIST
280
1
  9
$DWFFRAME
280
2
  9
$DGNFRAME
280
2
  9
$REALWORLDSCALE
290
1
  9
$INTERFERECOLOR
 62
256
  9
$CSHADOW
280
0
  9
$SHADOWPLANELOCATION
 40
0.0
  0
ENDSEC
  0
SECTION
  2
CLASSES
  0
CLASS
  1
ACDBDICTIONARYWDFLT
  2
AcDbDictionaryWithDefault
  3
ObjectDBX Classes
 90
0
 91
0
280
0
281
0
  0
CLASS
  1
SUN
  2
AcDbSun
  3
SCENEOE
 90
1153
 91
0
280
0
281
0
  0
CLASS
  1
VISUALSTYLE
  2
AcDbVisualStyle
  3
ObjectDBX Classes
 90
4095
 91
0
280
0
281
0
  0
CLASS
  1
MATERIAL
  2
AcDbMaterial
  3
ObjectDBX Classes
 90
1153
 91
0
280
0
281
0
  0
CLASS
  1
SCALE
  2
AcDbScale
  3
ObjectDBX Classes
 90
1153
 91
0
280
0
281
0
  0
CLASS
  1
TABLESTYLE
  2
AcDbTableStyle
  3
ObjectDBX Classes
 90
4095
 91
0
280
0
281
0
  0
CLASS
  1
MLEADERSTYLE
  2
AcDbMLeaderStyle
  3
ACDB_MLEADERSTYLE_CLASS
 90
4095
 91
0
280
0
281
0
  0
CLASS
  1
DICTIONARYVAR
  2
AcDbDictionaryVar
  3
ObjectDBX Classes
 90
0
 91
0
280
0
281
0
  0
CLASS
  1
CELLSTYLEMAP
  2
AcDbCellStyleMap
  3
ObjectDBX Classes
 90
1152
 91
0
280
0
281
0
  0
CLASS
  1
MENTALRAYRENDERSETTINGS
  2
AcDbMentalRayRenderSettings
  3
SCENEOE
 90
1024
 91
0
280
0
281
0
  0
CLASS
  1
ACDBDETAILVIEWSTYLE
  2
AcDbDetailViewStyle
  3
ObjectDBX Classes
 90
1025
 91
0
280
0
281
0
  0
CLASS
  1
ACDBSECTIONVIEWSTYLE
  2
AcDbSectionViewStyle
  3
ObjectDBX Classes
 90
1025
 91
0
280
0
281
0
  0
CLASS
  1
RASTERVARIABLES
  2
AcDbRasterVariables
  3
ISM
 90
0
 91
0
280
0
281
0
  0
CLASS
  1
ACDBPLACEHOLDER
  2
AcDbPlaceHolder
  3
ObjectDBX Classes
 90
0
 91
0
280
0
281
0
  0
CLASS
  1
LAYOUT
  2
AcDbLayout
  3
ObjectDBX Classes
 90
0
 91
0
280
0
281
0
  0
ENDSEC
  0
SECTION
  2
TABLES
  0
TABLE
  2
VPORT
  5
8
330
0
100
AcDbSymbolTable
 70
1
  0
VPORT
  5
23
330
8
100
AcDbSymbolTableRecord
100
AcDbViewportTableRecord
  2
*Active
 70
0
 10
0.0
 20
0.0
 11
1.0
 21
1.0
 12
0.0
 22
0.0
 13
0.0
 23
0.0
 14
0.5
 24
0.5
 15
0.5
 25
0.5
 16
0.0
 26
0.0
 36
1.0
 17
0.0
 27
0.0
 37
0.0
 40
1000.0
 41
1.34
 42
50.0
 43
0.0
 44
0.0
 50
0.0
 51
0.0
 71
0
 72
1000
 73
1
 74
3
 75
0
 76
0
 77
0
 78
0
281
0
 65
0
146
0.0
  0
ENDTAB
  0
TABLE
  2
LTYPE
  5
2
330
0
100
AcDbSymbolTable
 70
3
  0
LTYPE
  5
24
330
2
100
AcDbSymbolTableRecord
100
AcDbLinetypeTableRecord
  2
ByBlock
 70
0
  3

 72
65
 73
0
 40
0.0
  0
LTYPE
  5
25
330
2
100
AcDbSymbolTableRecord
100
AcDbLinetypeTableRecord
  2
ByLayer
 70
0
  3

 72
65
 73
0
 40
0.0
  0
LTYPE
  5
26
330
2
100
AcDbSymbolTableRecord
100
AcDbLinetypeTableRecord
  2
Continuous
 70
0
  3

 72
65
 73
0
 40
0.0
  0
ENDTAB
  0
TABLE
  2
LAYER
  5
1
330
0
100
AcDbSymbolTable
 70
8
  0
LAYER
  5
27
330
1
100
AcDbSymbolTableRecord
100
AcDbLayerTableRecord
  2
0
 70
0
 62
7
  6
Continuous
370
-3
390
13
347
21
  0
LAYER
  5
28
330
1
100
AcDbSymbolTableRecord
100
AcDbLayerTableRecord
  2
Defpoints
 70
0
 62
7
  6
Continuous
290
0
370
-3
390
13
347
21
  0
LAYER
  5
2F
330
1
100
AcDbSymbolTableRecord
100
AcDbLayerTableRecord
  2
CORTE
 70
0
 62
7
  6
Continuous
370
-3
390
13
347
21
  0
LAYER
  5
30
330
1
100
AcDbSymbolTableRecord
100
AcDbLayerTableRecord
  2
VISTA
 70
0
 62
8
  6
Continuous
370
-3
390
13
347
21
  0
LAYER
  5
31
330
1
100
AcDbSymbolTableRecord
100
AcDbLayerTableRecord
  2
COTAS
 70
0
 62
4
  6
Continuous
370
-3
390
13
347
21
  0
LAYER
  5
32
330
1
100
AcDbSymbolTableRecord
100
AcDbLayerTableRecord
  2
TEXTOS
 70
0
 62
7
  6
Continuous
370
-3
390
13
347
21
  0
LAYER
  5
33
330
1
100
AcDbSymbolTableRecord
100
AcDbLayerTableRecord
  2
EJES
 70
0
 62
3
  6
Continuous
370
-3
390
13
347
21
  0
LAYER
  5
34
330
1
100
AcDbSymbolTableRecord
100
AcDbLayerTableRecord
  2
SISTEMAS
 70
0
 62
5
  6
Continuous
370
-3
390
13
347
21
  0
ENDTAB
  0
TABLE
  2
STYLE
  5
5
330
0
100
AcDbSymbolTable
 70
1
  0
STYLE
  5
29
330
5
100
AcDbSymbolTableRecord
100
AcDbTextStyleTableRecord
  2
Standard
 70
0
 40
0.0
 41
1.0
 50
0.0
 71
0
 42
2.5
  3
txt
  4

  0
ENDTAB
  0
TABLE
  2
VIEW
  5
7
330
0
100
AcDbSymbolTable
 70
0
  0
ENDTAB
  0
TABLE
  2
UCS
  5
6
330
0
100
AcDbSymbolTable
 70
0
  0
ENDTAB
  0
TABLE
  2
APPID
  5
3
330
0
100
AcDbSymbolTable
 70
3
  0
APPID
  5
2A
330
3
100
AcDbSymbolTableRecord
100
AcDbRegAppTableRecord
  2
ACAD
 70
0
  0
APPID
  5
1E6
330
3
100
AcDbSymbolTableRecord
100
AcDbRegAppTableRecord
  2
HATCHBACKGROUNDCOLOR
 70
0
  0
APPID
  5
1E7
330
3
100
AcDbSymbolTableRecord
100
AcDbRegAppTableRecord
  2
EZDXF
 70
0
  0
ENDTAB
  0
TABLE
  2
DIMSTYLE
  5
4
330
0
100
AcDbSymbolTable
 70
1
100
AcDbDimStyleTable
  0
DIMSTYLE
105
2B
330
4
100
AcDbSymbolTableRecord
100
AcDbDimStyleTableRecord
  2
Standard
 70
0
 40
1.0
 41
2.5
 42
0.625
 43
3.75
 44
1.25
 45
0.0
 46
0.0
 47
0.0
 48
0.0
 49
2.5
140
2.5
141
2.5
142
0.0
143
0.03937007874
144
1.0
145
0.0
146
1.0
147
0.625
148
0.0
 69
0
 70
0
 71
0
 72
0
 73
0
 74
0
 75
0
 76
0
 77
1
 78
8
 79
3
170
0
171
3
172
1
173
0
174
0
175
0
176
0
177
0
178
0
179
2
271
2
272
2
273
2
274
3
275
0
276
0
277
2
278
44
279
0
280
0
281
0
282
0
283
0
284
8
285
0
286
0
288
0
289
3
290
0
371
-2
372
-2
  0
ENDTAB
  0
TABLE
  2
BLOCK_RECORD
  5
9
330
0
100
AcDbSymbolTable
 70
8
  0
BLOCK_RECORD
  5
17
330
9
100
AcDbSymbolTableRecord
100
AcDbBlockTableRecord
  2
*Model_Space
340
1A
 70
0
280
1
281
0
  0
BLOCK_RECORD
  5
1B
330
9
100
AcDbSymbolTableRecord
100
AcDbBlockTableRecord
  2
*Paper_Space
340
1E
 70
0
280
1
281
0
  0
BLOCK_RECORD
  5
C8
330
9
100
AcDbSymbolTableRecord
100
AcDbBlockTableRecord
  2
*D1
340
0
 70
0
280
1
281
0
  0
BLOCK_RECORD
  5
CD
330
9
100
AcDbSymbolTableRecord
100
AcDbBlockTableRecord
  2
_CLOSEDFILLED
340
0
 70
0
280
1
281
0
  0
BLOCK_RECORD
  5
DC
330
9
100
AcDbSymbolTableRecord
100
AcDbBlockTableRecord
  2
*D2
340
0
 70
0
280
1
281
0
  0
BLOCK_RECORD
  5
EC
330
9
100
AcDbSymbolTableRecord
100
AcDbBlockTableRecord
  2
*D3
340
0
 70
0
280
1
281
0
  0
BLOCK_RECORD
  5
152
330
9
100
AcDbSymbolTableRecord
100
AcDbBlockTableRecord
  2
*D4
340
0
 70
0
280
1
281
0
  0
BLOCK_RECORD
  5
162
330
9
100
AcDbSymbolTableRecord
100
AcDbBlockTableRecord
  2
*D5
340
0
 70
0
280
1
281
0
  0
ENDTAB
  0
ENDSEC
  0
SECTION
  2
BLOCKS
  0
BLOCK
  5
18
330
17
100
AcDbEntity
  8
0
100
AcDbBlockBegin
  2
*Model_Space
 70
0
 10
0.0
 20
0.0
 30
0.0
  3
*Model_Space
  1

  0
ENDBLK
  5
19
330
17
100
AcDbEntity
  8
0
100
AcDbBlockEnd
  0
BLOCK
  5
1C
330
1B
100
AcDbEntity
  8
0
100
AcDbBlockBegin
  2
*Paper_Space
 70
0
 10
0.0
 20
0.0
 30
0.0
  3
*Paper_Space
  1

  0
ENDBLK
  5
1D
330
1B
100
AcDbEntity
  8
0
100
AcDbBlockEnd
  0
BLOCK
  5
C9
330
C8
100
AcDbEntity
  8
0
100
AcDbBlockBegin
  2
*D1
 70
1
 10
0.0
 20
0.0
 30
0.0
  3
*D1
  1

  0
LINE
  5
CB
330
C8
100
AcDbEntity
  8
0
100
AcDbLine
 10
941.8
 20
-6.15
 30
0.0
 11
942.25
 21
-6.15
 31
0.0
  0
LINE
  5
CC
330
C8
100
AcDbEntity
  8
0
100
AcDbLine
 10
941.8
 20
-7.35
 30
0.0
 11
942.25
 21
-7.35
 31
0.0
  0
INSERT
  5
D1
330
C8
100
AcDbEntity
  8
COTAS
100
AcDbBlockReference
  2
_CLOSEDFILLED
 10
942.25
 20
-6.15
 30
0.0
 41
0.09
 42
0.09
 50
270.0
  0
INSERT
  5
D3
330
C8
100
AcDbEntity
  8
COTAS
100
AcDbBlockReference
  2
_CLOSEDFILLED
 10
942.25
 20
-7.35
 30
0.0
 41
0.09
 42
0.09
 50
90.0
  0
LINE
  5
D5
330
C8
100
AcDbEntity
  8
0
100
AcDbLine
 10
942.25
 20
-6.0600000000000005
 30
0.0
 11
942.25
 21
-6.555
 31
0.0
  0
LINE
  5
D6
330
C8
100
AcDbEntity
  8
0
100
AcDbLine
 10
942.25
 20
-6.945
 30
0.0
 11
942.25
 21
-7.4399999999999995
 31
0.0
  0
MTEXT
  5
D7
330
C8
100
AcDbEntity
  8
COTAS
100
AcDbMText
 10
942.25
 20
-6.75
 30
0.0
 40
0.13
 71
5
  1
1,2
 50
90.0
  0
POINT
  5
D8
330
C8
100
AcDbEntity
  8
Defpoints
100
AcDbPoint
 10
942.25
 20
-6.15
 30
0.0
  0
POINT
  5
D9
330
C8
100
AcDbEntity
  8
Defpoints
100
AcDbPoint
 10
941.8
 20
-6.15
 30
0.0
  0
POINT
  5
DA
330
C8
100
AcDbEntity
  8
Defpoints
100
AcDbPoint
 10
941.8
 20
-7.35
 30
0.0
  0
ENDBLK
  5
CA
330
C8
100
AcDbEntity
  8
0
100
AcDbBlockEnd
  0
BLOCK
  5
CE
330
CD
100
AcDbEntity
  8
0
100
AcDbBlockBegin
  2
_CLOSEDFILLED
 70
0
 10
0.0
 20
0.0
 30
0.0
  3
_CLOSEDFILLED
  1

  0
SOLID
  5
D0
330
CD
100
AcDbEntity
  8
0
  6
BYBLOCK
 62
0
100
AcDbTrace
 10
-1.0
 20
0.16439898372402537
 30
0.0
 11
0.0
 21
0.0
 31
0.0
 12
-1.0
 22
-0.16439898372402537
 32
0.0
 13
-1.0
 23
-0.16439898372402537
 33
0.0
  0
ENDBLK
  5
CF
330
CD
100
AcDbEntity
  8
0
100
AcDbBlockEnd
  0
BLOCK
  5
DD
330
DC
100
AcDbEntity
  8
0
100
AcDbBlockBegin
  2
*D2
 70
1
 10
0.0
 20
0.0
 30
0.0
  3
*D2
  1

  0
LINE
  5
DF
330
DC
100
AcDbEntity
  8
0
100
AcDbLine
 10
941.8
 20
-7.5
 30
0.0
 11
942.25
 21
-7.5
 31
0.0
  0
LINE
  5
E0
330
DC
100
AcDbEntity
  8
0
100
AcDbLine
 10
941.8
 20
-8.8
 30
0.0
 11
942.25
 21
-8.8
 31
0.0
  0
INSERT
  5
E1
330
DC
100
AcDbEntity
  8
COTAS
100
AcDbBlockReference
  2
_CLOSEDFILLED
 10
942.25
 20
-7.5
 30
0.0
 41
0.09
 42
0.09
 50
270.0
  0
INSERT
  5
E3
330
DC
100
AcDbEntity
  8
COTAS
100
AcDbBlockReference
  2
_CLOSEDFILLED
 10
942.25
 20
-8.8
 30
0.0
 41
0.09
 42
0.09
 50
90.0
  0
LINE
  5
E5
330
DC
100
AcDbEntity
  8
0
100
AcDbLine
 10
942.25
 20
-7.41
 30
0.0
 11
942.25
 21
-7.955
 31
0.0
  0
LINE
  5
E6
330
DC
100
AcDbEntity
  8
0
100
AcDbLine
 10
942.25
 20
-8.345
 30
0.0
 11
942.25
 21
-8.89
 31
0.0
  0
MTEXT
  5
E7
330
DC
100
AcDbEntity
  8
COTAS
100
AcDbMText
 10
942.25
 20
-8.15
 30
0.0
 40
0.13
 71
5
  1
1,3
 50
90.0
  0
POINT
  5
E8
330
DC
100
AcDbEntity
  8
Defpoints
100
AcDbPoint
 10
942.25
 20
-7.5
 30
0.0
  0
POINT
  5
E9
330
DC
100
AcDbEntity
  8
Defpoints
100
AcDbPoint
 10
941.8
 20
-7.5
 30
0.0
  0
POINT
  5
EA
330
DC
100
AcDbEntity
  8
Defpoints
100
AcDbPoint
 10
941.8
 20
-8.8
 30
0.0
  0
ENDBLK
  5
DE
330
DC
100
AcDbEntity
  8
0
100
AcDbBlockEnd
  0
BLOCK
  5
ED
330
EC
100
AcDbEntity
  8
0
100
AcDbBlockBegin
  2
*D3
 70
1
 10
0.0
 20
0.0
 30
0.0
  3
*D3
  1

  0
LINE
  5
EF
330
EC
100
AcDbEntity
  8
0
100
AcDbLine
 10
941.8
 20
-8.89
 30
0.0
 11
942.25
 21
-8.89
 31
0.0
  0
LINE
  5
F0
330
EC
100
AcDbEntity
  8
0
100
AcDbLine
 10
941.8
 20
-9.99
 30
0.0
 11
942.25
 21
-9.99
 31
0.0
  0
INSERT
  5
F1
330
EC
100
AcDbEntity
  8
COTAS
100
AcDbBlockReference
  2
_CLOSEDFILLED
 10
942.25
 20
-8.89
 30
0.0
 41
0.09
 42
0.09
 50
270.0
  0
INSERT
  5
F3
330
EC
100
AcDbEntity
  8
COTAS
100
AcDbBlockReference
  2
_CLOSEDFILLED
 10
942.25
 20
-9.99
 30
0.0
 41
0.09
 42
0.09
 50
90.0
  0
LINE
  5
F5
330
EC
100
AcDbEntity
  8
0
100
AcDbLine
 10
942.25
 20
-8.8
 30
0.0
 11
942.25
 21
-9.245000000000001
 31
0.0
  0
LINE
  5
F6
330
EC
100
AcDbEntity
  8
0
100
AcDbLine
 10
942.25
 20
-9.635000000000002
 30
0.0
 11
942.25
 21
-10.08
 31
0.0
  0
MTEXT
  5
F7
330
EC
100
AcDbEntity
  8
COTAS
100
AcDbMText
 10
942.25
 20
-9.440000000000001
 30
0.0
 40
0.13
 71
5
  1
1,1
 50
90.0
  0
POINT
  5
F8
330
EC
100
AcDbEntity
  8
Defpoints
100
AcDbPoint
 10
942.25
 20
-8.89
 30
0.0
  0
POINT
  5
F9
330
EC
100
AcDbEntity
  8
Defpoints
100
AcDbPoint
 10
941.8
 20
-8.89
 30
0.0
  0
POINT
  5
FA
330
EC
100
AcDbEntity
  8
Defpoints
100
AcDbPoint
 10
941.8
 20
-9.99
 30
0.0
  0
ENDBLK
  5
EE
330
EC
100
AcDbEntity
  8
0
100
AcDbBlockEnd
  0
BLOCK
  5
153
330
152
100
AcDbEntity
  8
0
100
AcDbBlockBegin
  2
*D4
 70
1
 10
0.0
 20
0.0
 30
0.0
  3
*D4
  1

  0
LINE
  5
155
330
152
100
AcDbEntity
  8
0
100
AcDbLine
 10
975.99
 20
-4.09
 30
0.0
 11
975.99
 21
-3.72
 31
0.0
  0
LINE
  5
156
330
152
100
AcDbEntity
  8
0
100
AcDbLine
 10
977.71
 20
-4.09
 30
0.0
 11
977.71
 21
-3.72
 31
0.0
  0
INSERT
  5
157
330
152
100
AcDbEntity
  8
COTAS
100
AcDbBlockReference
  2
_CLOSEDFILLED
 10
975.99
 20
-3.72
 30
0.0
 41
0.09
 42
0.09
 50
180.0
  0
INSERT
  5
159
330
152
100
AcDbEntity
  8
COTAS
100
AcDbBlockReference
  2
_CLOSEDFILLED
 10
977.71
 20
-3.72
 30
0.0
 41
0.09
 42
0.09
  0
LINE
  5
15B
330
152
100
AcDbEntity
  8
0
100
AcDbLine
 10
976.08
 20
-3.72
 30
0.0
 11
976.59
 21
-3.72
 31
0.0
  0
LINE
  5
15C
330
152
100
AcDbEntity
  8
0
100
AcDbLine
 10
977.11
 20
-3.72
 30
0.0
 11
977.62
 21
-3.72
 31
0.0
  0
MTEXT
  5
15D
330
152
100
AcDbEntity
  8
COTAS
100
AcDbMText
 10
976.85
 20
-3.72
 30
0.0
 40
0.13
 71
5
  1
1,72
  0
POINT
  5
15E
330
152
100
AcDbEntity
  8
Defpoints
100
AcDbPoint
 10
975.99
 20
-3.72
 30
0.0
  0
POINT
  5
15F
330
152
100
AcDbEntity
  8
Defpoints
100
AcDbPoint
 10
975.99
 20
-4.09
 30
0.0
  0
POINT
  5
160
330
152
100
AcDbEntity
  8
Defpoints
100
AcDbPoint
 10
977.71
 20
-4.09
 30
0.0
  0
ENDBLK
  5
154
330
152
100
AcDbEntity
  8
0
100
AcDbBlockEnd
  0
BLOCK
  5
163
330
162
100
AcDbEntity
  8
0
100
AcDbBlockBegin
  2
*D5
 70
1
 10
0.0
 20
0.0
 30
0.0
  3
*D5
  1

  0
LINE
  5
165
330
162
100
AcDbEntity
  8
0
100
AcDbLine
 10
977.71
 20
-4.09
 30
0.0
 11
978.2
 21
-4.09
 31
0.0
  0
LINE
  5
166
330
162
100
AcDbEntity
  8
0
100
AcDbLine
 10
977.71
 20
-5.01
 30
0.0
 11
978.2
 21
-5.01
 31
0.0
  0
INSERT
  5
167
330
162
100
AcDbEntity
  8
COTAS
100
AcDbBlockReference
  2
_CLOSEDFILLED
 10
978.2
 20
-4.09
 30
0.0
 41
0.09
 42
0.09
 50
270.0
  0
INSERT
  5
169
330
162
100
AcDbEntity
  8
COTAS
100
AcDbBlockReference
  2
_CLOSEDFILLED
 10
978.2
 20
-5.01
 30
0.0
 41
0.09
 42
0.09
 50
90.0
  0
LINE
  5
16B
330
162
100
AcDbEntity
  8
0
100
AcDbLine
 10
978.2
 20
-4.0
 30
0.0
 11
978.2
 21
-4.29
 31
0.0
  0
LINE
  5
16C
330
162
100
AcDbEntity
  8
0
100
AcDbLine
 10
978.2
 20
-4.81
 30
0.0
 11
978.2
 21
-5.1
 31
0.0
  0
MTEXT
  5
16D
330
162
100
AcDbEntity
  8
COTAS
100
AcDbMText
 10
978.2
 20
-4.55
 30
0.0
 40
0.13
 71
5
  1
0,92
 50
90.0
  0
POINT
  5
16E
330
162
100
AcDbEntity
  8
Defpoints
100
AcDbPoint
 10
978.2
 20
-4.09
 30
0.0
  0
POINT
  5
16F
330
162
100
AcDbEntity
  8
Defpoints
100
AcDbPoint
 10
977.71
 20
-4.09
 30
0.0
  0
POINT
  5
170
330
162
100
AcDbEntity
  8
Defpoints
100
AcDbPoint
 10
977.71
 20
-5.01
 30
0.0
  0
ENDBLK
  5
164
330
162
100
AcDbEntity
  8
0
100
AcDbBlockEnd
  0
ENDSEC
  0
SECTION
  2
ENTITIES
  0
LWPOLYLINE
  5
35
330
17
100
AcDbEntity
  8
VISTA
100
AcDbPolyline
 90
5
 70
1
 10
941.955
 20
-9.879999
 10
941.955
 20
-10.15
 10
942.004999
 20
-10.15
 10
942.004999
 20
-9.879999
 10
941.955
 20
-9.879999
  0
LWPOLYLINE
  5
36
330
17
100
AcDbEntity
  8
VISTA
100
AcDbPolyline
 90
5
 70
1
 10
941.395
 20
-6.78
 10
941.395
 20
-10.15
 10
941.445
 20
-10.15
 10
941.445
 20
-6.78
 10
941.395
 20
-6.78
  0
LWPOLYLINE
  5
37
330
17
100
AcDbEntity
  8
VISTA
100
AcDbPolyline
 90
9
 70
1
 10
937.9809
 20
-5.988
 10
937.985142
 20
-5.986242
 10
937.986898
 20
-5.982
 10
937.986898
 20
-5.814
 10
937.985142
 20
-5.809757
 10
937.9809
 20
-5.808
 10
937.7
 20
-5.808
 10
937.7
 20
-5.988
 10
937.9809
 20
-5.988
  0
LWPOLYLINE
  5
38
330
17
100
AcDbEntity
  8
VISTA
100
AcDbPolyline
 90
13
 70
1
 10
938.013102
 20
-5.982
 10
938.014858
 20
-5.986242
 10
938.0191
 20
-5.988
 10
939.220901
 20
-5.988
 10
939.225143
 20
-5.986242
 10
939.2269
 20
-5.982
 10
939.2269
 20
-5.814
 10
939.225143
 20
-5.809757
 10
939.220901
 20
-5.808
 10
938.0191
 20
-5.808
 10
938.014858
 20
-5.809757
 10
938.013102
 20
-5.814
 10
938.013102
 20
-5.982
  0
LWPOLYLINE
  5
39
330
17
100
AcDbEntity
  8
VISTA
100
AcDbPolyline
 90
12
 70
1
 10
938.749172
 20
-6.281329
 10
938.752001
 20
-6.2825
 10
940.048002
 20
-6.2825
 10
940.050831
 20
-6.281329
 10
940.052002
 20
-6.2785
 10
940.052002
 20
-6.1615
 10
940.050831
 20
-6.158672
 10
940.048002
 20
-6.1575
 10
938.752001
 20
-6.1575
 10
938.749172
 20
-6.158672
 10
938.748001
 20
-6.1615
 10
938.749172
 20
-6.281329
  0
LWPOLYLINE
  5
3A
330
17
100
AcDbEntity
  8
VISTA
100
AcDbPolyline
 90
4
 70
1
 10
938.749693
 20
-6.28081
 10
938.750206
 20
-6.281028
 10
938.749474
 20
-6.281028
 10
938.749693
 20
-6.28081
  0
LWPOLYLINE
  5
3B
330
17
100
AcDbEntity
  8
VISTA
100
AcDbPolyline
 90
4
 70
1
 10
938.749693
 20
-6.159191
 10
938.749474
 20
-6.159706
 10
938.749474
 20
-6.158973
 10
938.749693
 20
-6.159191
  0
LWPOLYLINE
  5
3C
330
17
100
AcDbEntity
  8
VISTA
100
AcDbPolyline
 90
4
 70
1
 10
940.05031
 20
-6.159191
 10
940.049797
 20
-6.158973
 10
940.050529
 20
-6.158973
 10
940.05031
 20
-6.159191
  0
LWPOLYLINE
  5
3D
330
17
100
AcDbEntity
  8
VISTA
100
AcDbPolyline
 90
4
 70
1
 10
940.050529
 20
-6.281028
 10
940.049797
 20
-6.281028
 10
940.05031
 20
-6.28081
 10
940.050529
 20
-6.281028
  0
LWPOLYLINE
  5
3E
330
17
100
AcDbEntity
  8
VISTA
100
AcDbPolyline
 90
5
 70
1
 10
938.830002
 20
-6.2025
 10
938.830002
 20
-6.2375
 10
939.970001
 20
-6.2375
 10
939.970001
 20
-6.2025
 10
938.830002
 20
-6.2025
  0
LWPOLYLINE
  5
3F
330
17
100
AcDbEntity
  8
VISTA
100
AcDbPolyline
 90
6
 70
1
 10
937.9235
 20
-8.23
 10
938.378975
 20
-8.228975
 10
938.378975
 20
-7.771025
 10
937.921024
 20
-7.771025
 10
937.920647
 20
-8.228526
 10
937.9235
 20
-8.23
  0
LWPOLYLINE
  5
40
330
17
100
AcDbEntity
  8
VISTA
100
AcDbPolyline
 90
4
 70
1
 10
937.921745
 20
-8.228253
 10
937.921745
 20
-8.22897
 10
937.92103
 20
-8.228253
 10
937.921745
 20
-8.228253
  0
LWPOLYLINE
  5
41
330
17
100
AcDbEntity
  8
VISTA
100
AcDbPolyline
 90
4
 70
1
 10
937.921745
 20
-7.77103
 10
937.921745
 20
-7.771747
 10
937.92103
 20
-7.771747
 10
937.921745
 20
-7.77103
  0
LWPOLYLINE
  5
42
330
17
100
AcDbEntity
  8
VISTA
100
AcDbPolyline
 90
4
 70
1
 10
938.378969
 20
-8.228253
 10
938.378254
 20
-8.22897
 10
938.378254
 20
-8.228253
 10
938.378969
 20
-8.228253
  0
LWPOLYLINE
  5
43
330
17
100
AcDbEntity
  8
VISTA
100
AcDbPolyline
 90
4
 70
1
 10
938.378254
 20
-7.77103
 10
938.378969
 20
-7.771747
 10
938.378254
 20
-7.771747
 10
938.378254
 20
-7.77103
  0
LWPOLYLINE
  5
44
330
17
100
AcDbEntity
  8
VISTA
100
AcDbPolyline
 90
6
 70
1
 10
937.9235
 20
-9.73
 10
938.378975
 20
-9.728975
 10
938.378975
 20
-9.271025
 10
937.921024
 20
-9.271025
 10
937.920647
 20
-9.728526
 10
937.9235
 20
-9.73
  0
LWPOLYLINE
  5
45
330
17
100
AcDbEntity
  8
VISTA
100
AcDbPolyline
 90
4
 70
1
 10
937.921745
 20
-9.728253
 10
937.921745
 20
-9.72897
 10
937.92103
 20
-9.728253
 10
937.921745
 20
-9.728253
  0
LWPOLYLINE
  5
46
330
17
100
AcDbEntity
  8
VISTA
100
AcDbPolyline
 90
4
 70
1
 10
937.921745
 20
-9.27103
 10
937.921745
 20
-9.271747
 10
937.92103
 20
-9.271747
 10
937.921745
 20
-9.27103
  0
LWPOLYLINE
  5
47
330
17
100
AcDbEntity
  8
VISTA
100
AcDbPolyline
 90
4
 70
1
 10
938.378969
 20
-9.728253
 10
938.378254
 20
-9.72897
 10
938.378254
 20
-9.728253
 10
938.378969
 20
-9.728253
  0
LWPOLYLINE
  5
48
330
17
100
AcDbEntity
  8
VISTA
100
AcDbPolyline
 90
4
 70
1
 10
938.378254
 20
-9.27103
 10
938.378969
 20
-9.271747
 10
938.378254
 20
-9.271747
 10
938.378254
 20
-9.27103
  0
LWPOLYLINE
  5
49
330
17
100
AcDbEntity
  8
VISTA
100
AcDbPolyline
 90
6
 70
1
 10
940.681173
 20
-7.208828
 10
940.684
 20
-7.21
 10
941.558828
 20
-7.208828
 10
941.558828
 20
-6.291172
 10
940.681173
 20
-6.291172
 10
940.681173
 20
-7.208828
  0
LWPOLYLINE
  5
4A
330
17
100
AcDbEntity
  8
VISTA
100
AcDbPolyline
 90
4
 70
1
 10
940.681692
 20
-7.208309
 10
940.682205
 20
-7.208528
 10
940.681473
 20
-7.208528
 10
940.681692
 20
-7.208309
  0
LWPOLYLINE
  5
4B
330
17
100
AcDbEntity
  8
VISTA
100
AcDbPolyline
 90
4
 70
1
 10
940.681692
 20
-6.291691
 10
940.681473
 20
-6.292205
 10
940.681473
 20
-6.291472
 10
940.681692
 20
-6.291691
  0
LWPOLYLINE
  5
4C
330
17
100
AcDbEntity
  8
VISTA
100
AcDbPolyline
 90
4
 70
1
 10
941.55831
 20
-6.291691
 10
941.557796
 20
-6.291472
 10
941.558529
 20
-6.291472
 10
941.55831
 20
-6.291691
  0
LWPOLYLINE
  5
4D
330
17
100
AcDbEntity
  8
VISTA
100
AcDbPolyline
 90
4
 70
1
 10
941.558529
 20
-7.208528
 10
941.557796
 20
-7.208528
 10
941.55831
 20
-7.208309
 10
941.558529
 20
-7.208528
  0
LWPOLYLINE
  5
4E
330
17
100
AcDbEntity
  8
VISTA
100
AcDbPolyline
 90
8
 70
1
 10
940.450001
 20
-9.778299
 10
940.4517
 20
-9.78
 10
940.588301
 20
-9.78
 10
940.59
 20
-9.778299
 10
940.59
 20
-9.1017
 10
940.588301
 20
-9.099999
 10
940.450716
 20
-9.100313
 10
940.450001
 20
-9.778299
  0
LWPOLYLINE
  5
4F
330
17
100
AcDbEntity
  8
VISTA
100
AcDbPolyline
 90
9
 70
1
 10
940.400499
 20
-9.589999
 10
940.4195
 20
-9.589999
 10
940.422501
 20
-9.587
 10
940.422501
 20
-9.292999
 10
940.4195
 20
-9.29
 10
940.400499
 20
-9.29
 10
940.397499
 20
-9.292999
 10
940.397499
 20
-9.587
 10
940.400499
 20
-9.589999
  0
LWPOLYLINE
  5
50
330
17
100
AcDbEntity
  8
VISTA
100
AcDbPolyline
 90
7
 70
1
 10
938.323526
 20
-9.209353
 10
938.325001
 20
-9.2065
 10
938.324354
 20
-8.291473
 10
938.321501
 20
-8.29
 10
937.7
 20
-8.290187462044534
 10
937.7
 20
-9.209541072841041
 10
938.323526
 20
-9.209353
  0
LWPOLYLINE
  5
51
330
17
100
AcDbEntity
  8
VISTA
100
AcDbPolyline
 90
4
 70
1
 10
938.323971
 20
-9.208254
 10
938.323254
 20
-9.20897
 10
938.323254
 20
-9.208254
 10
938.323971
 20
-9.208254
  0
LWPOLYLINE
  5
52
330
17
100
AcDbEntity
  8
VISTA
100
AcDbPolyline
 90
4
 70
1
 10
938.323254
 20
-8.29103
 10
938.323971
 20
-8.291746
 10
938.323254
 20
-8.291746
 10
938.323254
 20
-8.29103
  0
LWPOLYLINE
  5
53
330
17
100
AcDbEntity
  8
VISTA
100
AcDbPolyline
 90
13
 70
1
 10
940.42
 20
-7.132
 10
940.422342
 20
-7.137657
 10
940.427999
 20
-7.14
 10
940.511999
 20
-7.14
 10
940.517656
 20
-7.137657
 10
940.519999
 20
-7.132
 10
940.519999
 20
-6.368
 10
940.517656
 20
-6.362343
 10
940.511999
 20
-6.36
 10
940.427999
 20
-6.36
 10
940.422342
 20
-6.362343
 10
940.42
 20
-6.368
 10
940.42
 20
-7.132
  0
LWPOLYLINE
  5
54
330
17
100
AcDbEntity
  8
VISTA
100
AcDbPolyline
 90
6
 70
1
 10
940.546318
 20
-7.348682
 10
941.693684
 20
-7.348682
 10
941.693684
 20
-6.151318
 10
940.549501
 20
-6.15
 10
940.545
 20
-6.1545
 10
940.546318
 20
-7.348682
  0
LWPOLYLINE
  5
55
330
17
100
AcDbEntity
  8
VISTA
100
AcDbPolyline
 90
12
 70
1
 10
940.441172
 20
-9.798828
 10
940.444
 20
-9.799999
 10
940.556
 20
-9.799999
 10
940.558828
 20
-9.798828
 10
940.559999
 20
-9.796
 10
940.559999
 20
-9.084
 10
940.558828
 20
-9.081171
 10
940.556
 20
-9.08
 10
940.444
 20
-9.08
 10
940.441172
 20
-9.081171
 10
940.440001
 20
-9.084
 10
940.441172
 20
-9.798828
  0
LWPOLYLINE
  5
56
330
17
100
AcDbEntity
  8
VISTA
100
AcDbPolyline
 90
4
 70
1
 10
940.44169
 20
-9.798309
 10
940.4422050000001
 20
-9.798528
 10
940.441473
 20
-9.798528
 10
940.44169
 20
-9.798309
  0
LWPOLYLINE
  5
57
330
17
100
AcDbEntity
  8
VISTA
100
AcDbPolyline
 90
4
 70
1
 10
940.44169
 20
-9.08169
 10
940.441473
 20
-9.082205
 10
940.441473
 20
-9.081471
 10
940.44169
 20
-9.08169
  0
LWPOLYLINE
  5
58
330
17
100
AcDbEntity
  8
VISTA
100
AcDbPolyline
 90
4
 70
1
 10
940.55831
 20
-9.08169
 10
940.5577949999999
 20
-9.081471
 10
940.558527
 20
-9.081471
 10
940.55831
 20
-9.08169
  0
LWPOLYLINE
  5
59
330
17
100
AcDbEntity
  8
VISTA
100
AcDbPolyline
 90
4
 70
1
 10
940.558527
 20
-9.798528
 10
940.5577949999999
 20
-9.798528
 10
940.55831
 20
-9.798309
 10
940.558527
 20
-9.798528
  0
LWPOLYLINE
  5
5A
330
17
100
AcDbEntity
  8
VISTA
100
AcDbPolyline
 90
9
 70
1
 10
940.275
 20
-9.985499
 10
940.276894
 20
-9.989169
 10
941.820499
 20
-9.99
 10
941.824169
 20
-9.988105
 10
941.824999
 20
-8.8945
 10
941.823105
 20
-8.89083
 10
940.279499
 20
-8.889999
 10
940.275
 20
-8.8945
 10
940.275
 20
-9.985499
  0
LWPOLYLINE
  5
5B
330
17
100
AcDbEntity
  8
VISTA
100
AcDbPolyline
 90
10
 70
1
 10
939.720001
 20
-7.814
 10
939.722527
 20
-7.818892
 10
940.634001
 20
-7.82
 10
940.638893
 20
-7.817473
 10
940.639999
 20
-7.266
 10
940.637474
 20
-7.261107
 10
939.726
 20
-7.26
 10
939.721758
 20
-7.261757
 10
939.720001
 20
-7.266
 10
939.720001
 20
-7.814
  0
LWPOLYLINE
  5
5C
330
17
100
AcDbEntity
  8
VISTA
100
AcDbPolyline
 90
10
 70
1
 10
938.370001
 20
-7.814
 10
938.372526
 20
-7.818892
 10
939.464001
 20
-7.82
 10
939.468893
 20
-7.817473
 10
939.469999
 20
-7.266
 10
939.467474
 20
-7.261107
 10
938.375999
 20
-7.26
 10
938.371758
 20
-7.261757
 10
938.370001
 20
-7.266
 10
938.370001
 20
-7.814
  0
LWPOLYLINE
  5
5D
330
17
100
AcDbEntity
  8
VISTA
100
AcDbPolyline
 90
8
 70
1
 10
940.370001
 20
-9.778299
 10
940.3717
 20
-9.78
 10
940.4683
 20
-9.78
 10
940.469999
 20
-9.778299
 10
940.469999
 20
-9.1017
 10
940.4683
 20
-9.099999
 10
940.370716
 20
-9.100313
 10
940.370001
 20
-9.778299
  0
LWPOLYLINE
  5
5E
330
17
100
AcDbEntity
  8
VISTA
100
AcDbPolyline
 90
9
 70
1
 10
940.275
 20
-8.7555
 10
940.276894
 20
-8.759169
 10
941.820499
 20
-8.759999
 10
941.824169
 20
-8.758104
 10
941.824999
 20
-7.544499
 10
941.823105
 20
-7.540831
 10
940.279499
 20
-7.539999
 10
940.275
 20
-7.544499
 10
940.275
 20
-8.7555
  0
LWPOLYLINE
  5
5F
330
17
100
AcDbEntity
  8
VISTA
100
AcDbPolyline
 90
13
 70
1
 10
938.169998
 20
-7.842
 10
938.172342
 20
-7.847657
 10
938.177999
 20
-7.85
 10
940.741999
 20
-7.85
 10
940.747656
 20
-7.847657
 10
940.75
 20
-7.842
 10
940.75
 20
-7.238
 10
940.747656
 20
-7.232343
 10
940.741999
 20
-7.23
 10
938.177999
 20
-7.23
 10
938.172342
 20
-7.232343
 10
938.169998
 20
-7.238
 10
938.169998
 20
-7.842
  0
LWPOLYLINE
  5
60
330
17
100
AcDbEntity
  8
VISTA
100
AcDbPolyline
 90
5
 70
1
 10
939.02
 20
-7.41
 10
939.02
 20
-7.71
 10
938.619999
 20
-7.71
 10
938.619999
 20
-7.41
 10
939.02
 20
-7.41
  0
LWPOLYLINE
  5
61
330
17
100
AcDbEntity
  8
VISTA
100
AcDbPolyline
 90
39
 70
1
 10
938.609375
 20
-7.459767
 10
938.604155
 20
-7.479166
 10
938.601038
 20
-7.504527
 10
938.601038
 20
-7.615473
 10
938.604155
 20
-7.640834
 10
938.609375
 20
-7.660233
 10
938.616734
 20
-7.676114
 10
938.626301
 20
-7.689388
 10
938.638182
 20
-7.700497
 10
938.652555
 20
-7.709677
 10
938.690287
 20
-7.722756
 10
938.748211
 20
-7.729198
 10
938.891788
 20
-7.729198
 10
938.92461
 20
-7.726789
 10
938.949713
 20
-7.722756
 10
938.987444
 20
-7.709677
 10
939.00182
 20
-7.700497
 10
939.0137
 20
-7.689388
 10
939.023266
 20
-7.676114
 10
939.030626
 20
-7.660233
 10
939.035845
 20
-7.640834
 10
939.038963
 20
-7.615473
 10
939.038963
 20
-7.504527
 10
939.035845
 20
-7.479166
 10
939.030626
 20
-7.459767
 10
939.023266
 20
-7.443887
 10
939.0137
 20
-7.430612
 10
939.00182
 20
-7.419503
 10
938.987444
 20
-7.410323
 10
938.949713
 20
-7.397244
 10
938.891788
 20
-7.390801
 10
938.748211
 20
-7.390801
 10
938.715391
 20
-7.393211
 10
938.690287
 20
-7.397244
 10
938.652555
 20
-7.410323
 10
938.638182
 20
-7.419503
 10
938.626301
 20
-7.430612
 10
938.616734
 20
-7.443887
 10
938.609375
 20
-7.459767
  0
LWPOLYLINE
  5
62
330
17
100
AcDbEntity
  8
VISTA
100
AcDbPolyline
 90
4
 70
1
 10
939.002711706434
 20
-7.513710799791023
 10
939.0027117064274
 20
-7.513710799792707
 10
939.0027117064284
 20
-7.51371079979244
 10
939.002711706434
 20
-7.513710799791023
  0
LWPOLYLINE
  5
63
330
17
100
AcDbEntity
  8
VISTA
100
AcDbPolyline
 90
9
 70
1
 10
940.09
 20
-8.7955
 10
940.091896
 20
-8.799169
 10
941.8055
 20
-8.799999
 10
941.80917
 20
-8.798105
 10
941.810001
 20
-7.504499
 10
941.808105
 20
-7.500831
 10
940.094501
 20
-7.5
 10
940.09
 20
-7.504499
 10
940.09
 20
-8.7955
  0
LWPOLYLINE
  5
64
330
17
100
AcDbEntity
  8
VISTA
100
AcDbPolyline
 90
5
 70
1
 10
940.480001
 20
-8.21
 10
940.9
 20
-8.21
 10
940.9
 20
-8.63
 10
940.480001
 20
-8.63
 10
940.480001
 20
-8.21
  0
LWPOLYLINE
  5
65
330
17
100
AcDbEntity
  8
VISTA
100
AcDbPolyline
 90
5
 70
1
 10
940.480001
 20
-8.09
 10
940.480001
 20
-7.67
 10
940.9
 20
-7.67
 10
940.9
 20
-8.09
 10
940.480001
 20
-8.09
  0
LWPOLYLINE
  5
66
330
17
100
AcDbEntity
  8
VISTA
100
AcDbPolyline
 90
47
 70
1
 10
940.469801
 20
-7.74439
 10
940.464344
 20
-7.770636
 10
940.461084
 20
-7.804948
 10
940.461084
 20
-7.955052
 10
940.464344
 20
-7.989364
 10
940.469801
 20
-8.01561
 10
940.477495
 20
-8.037095
 10
940.487495
 20
-8.055055
 10
940.499916
 20
-8.070084
 10
940.514946
 20
-8.082504
 10
940.532906
 20
-8.092505
 10
940.55439
 20
-8.1002
 10
940.580635
 20
-8.105656
 10
940.614948
 20
-8.108915
 10
940.690001
 20
-8.11
 10
940.765053
 20
-8.108915
 10
940.799364
 20
-8.105656
 10
940.825609
 20
-8.1002
 10
940.847095
 20
-8.092505
 10
940.865055
 20
-8.082504
 10
940.880083
 20
-8.070084
 10
940.892504
 20
-8.055055
 10
940.902506
 20
-8.037095
 10
940.9102
 20
-8.01561
 10
940.915655
 20
-7.989364
 10
940.918915
 20
-7.955052
 10
940.92
 20
-7.88
 10
940.918915
 20
-7.804948
 10
940.915655
 20
-7.770636
 10
940.9102
 20
-7.74439
 10
940.902506
 20
-7.722905
 10
940.892504
 20
-7.704945
 10
940.880083
 20
-7.689917
 10
940.865055
 20
-7.677495
 10
940.847095
 20
-7.667495
 10
940.825609
 20
-7.659801
 10
940.799364
 20
-7.654344
 10
940.765053
 20
-7.651084
 10
940.614948
 20
-7.651084
 10
940.580635
 20
-7.654344
 10
940.55439
 20
-7.659801
 10
940.532906
 20
-7.667495
 10
940.514946
 20
-7.677495
 10
940.499916
 20
-7.689917
 10
940.487495
 20
-7.704945
 10
940.477495
 20
-7.722905
 10
940.469801
 20
-7.74439
  0
LWPOLYLINE
  5
67
330
17
100
AcDbEntity
  8
VISTA
100
AcDbPolyline
 90
4
 70
1
 10
940.6361102727685
 20
-8.04436797341971
 10
940.636110272704
 20
-8.04436797361646
 10
940.6361102727365
 20
-8.04436797351755
 10
940.6361102727685
 20
-8.04436797341971
  0
LWPOLYLINE
  5
68
330
17
100
AcDbEntity
  8
VISTA
100
AcDbPolyline
 90
4
 70
1
 10
940.8331297412133
 20
-7.968146722646805
 10
940.8331297412133
 20
-7.968146722646804
 10
940.8331297412133
 20
-7.968146722646805
 10
940.8331297412133
 20
-7.968146722646805
  0
LWPOLYLINE
  5
69
330
17
100
AcDbEntity
  8
VISTA
100
AcDbPolyline
 90
47
 70
1
 10
940.469801
 20
-8.28439
 10
940.464344
 20
-8.310636
 10
940.461084
 20
-8.344948
 10
940.461084
 20
-8.495052
 10
940.464344
 20
-8.529365
 10
940.469801
 20
-8.55561
 10
940.477495
 20
-8.577095
 10
940.487495
 20
-8.595055
 10
940.499916
 20
-8.610084
 10
940.514946
 20
-8.622504
 10
940.532906
 20
-8.632505
 10
940.55439
 20
-8.6402
 10
940.580635
 20
-8.645656
 10
940.614948
 20
-8.648915
 10
940.690001
 20
-8.65
 10
940.765053
 20
-8.648915
 10
940.799364
 20
-8.645656
 10
940.825609
 20
-8.6402
 10
940.847095
 20
-8.632505
 10
940.865055
 20
-8.622504
 10
940.880083
 20
-8.610084
 10
940.892504
 20
-8.595055
 10
940.902506
 20
-8.577095
 10
940.9102
 20
-8.55561
 10
940.915655
 20
-8.529365
 10
940.918915
 20
-8.495052
 10
940.92
 20
-8.42
 10
940.918915
 20
-8.344948
 10
940.915655
 20
-8.310636
 10
940.9102
 20
-8.28439
 10
940.902506
 20
-8.262905
 10
940.892504
 20
-8.244946
 10
940.880083
 20
-8.229917
 10
940.865055
 20
-8.217496
 10
940.847095
 20
-8.207495
 10
940.825609
 20
-8.1998
 10
940.799364
 20
-8.194344
 10
940.765053
 20
-8.191084
 10
940.614948
 20
-8.191084
 10
940.580635
 20
-8.194344
 10
940.55439
 20
-8.1998
 10
940.532906
 20
-8.207495
 10
940.514946
 20
-8.217496
 10
940.499916
 20
-8.229917
 10
940.487495
 20
-8.244946
 10
940.477495
 20
-8.262905
 10
940.469801
 20
-8.28439
  0
LWPOLYLINE
  5
6A
330
17
100
AcDbEntity
  8
VISTA
100
AcDbPolyline
 90
4
 70
1
 10
940.754545
 20
-8.616867
 10
940.754544999978
 20
-8.61686699993292
 10
940.7545449999607
 20
-8.616866999880044
 10
940.754545
 20
-8.616867
  0
LWPOLYLINE
  5
6B
330
17
100
AcDbEntity
  8
VISTA
100
AcDbPolyline
 90
4
 70
1
 10
940.8649440867098
 20
-8.527738887136255
 10
940.864944086734
 20
-8.527738887151209
 10
940.8649440867479
 20
-8.527738887159764
 10
940.8649440867098
 20
-8.527738887136255
  0
LWPOLYLINE
  5
6C
330
17
100
AcDbEntity
  8
VISTA
100
AcDbPolyline
 90
5
 70
1
 10
940.379999
 20
-9.084
 10
940.860001
 20
-9.084
 10
940.859999
 20
-9.076
 10
940.379997
 20
-9.076304
 10
940.379999
 20
-9.084
  0
LWPOLYLINE
  5
6D
330
17
100
AcDbEntity
  8
VISTA
100
AcDbPolyline
 90
5
 70
1
 10
940.379999
 20
-9.122
 10
940.860001
 20
-9.122
 10
940.859999
 20
-9.114
 10
940.379997
 20
-9.114305
 10
940.379999
 20
-9.122
  0
LWPOLYLINE
  5
6E
330
17
100
AcDbEntity
  8
VISTA
100
AcDbPolyline
 90
5
 70
1
 10
940.379999
 20
-9.16
 10
940.860001
 20
-9.16
 10
940.859999
 20
-9.152
 10
940.379997
 20
-9.152305
 10
940.379999
 20
-9.16
  0
LWPOLYLINE
  5
6F
330
17
100
AcDbEntity
  8
VISTA
100
AcDbPolyline
 90
5
 70
1
 10
940.379999
 20
-9.198
 10
940.860001
 20
-9.198
 10
940.859999
 20
-9.190001
 10
940.379997
 20
-9.190305
 10
940.379999
 20
-9.198
  0
LWPOLYLINE
  5
70
330
17
100
AcDbEntity
  8
VISTA
100
AcDbPolyline
 90
5
 70
1
 10
940.379999
 20
-9.236
 10
940.860001
 20
-9.236
 10
940.859999
 20
-9.228001
 10
940.379997
 20
-9.228305
 10
940.379999
 20
-9.236
  0
LWPOLYLINE
  5
71
330
17
100
AcDbEntity
  8
VISTA
100
AcDbPolyline
 90
5
 70
1
 10
940.379999
 20
-9.274
 10
940.860001
 20
-9.274
 10
940.859999
 20
-9.266001
 10
940.379997
 20
-9.266305
 10
940.379999
 20
-9.274
  0
LWPOLYLINE
  5
72
330
17
100
AcDbEntity
  8
VISTA
100
AcDbPolyline
 90
5
 70
1
 10
940.379999
 20
-9.311999
 10
940.860001
 20
-9.311999
 10
940.859999
 20
-9.304
 10
940.379997
 20
-9.304304
 10
940.379999
 20
-9.311999
  0
LWPOLYLINE
  5
73
330
17
100
AcDbEntity
  8
VISTA
100
AcDbPolyline
 90
5
 70
1
 10
940.379999
 20
-9.349999
 10
940.860001
 20
-9.349999
 10
940.859999
 20
-9.342
 10
940.379997
 20
-9.342304
 10
940.379999
 20
-9.349999
  0
LWPOLYLINE
  5
74
330
17
100
AcDbEntity
  8
VISTA
100
AcDbPolyline
 90
5
 70
1
 10
940.379999
 20
-9.388
 10
940.860001
 20
-9.388
 10
940.859999
 20
-9.38
 10
940.379997
 20
-9.380304
 10
940.379999
 20
-9.388
  0
LWPOLYLINE
  5
75
330
17
100
AcDbEntity
  8
VISTA
100
AcDbPolyline
 90
5
 70
1
 10
940.379999
 20
-9.426
 10
940.860001
 20
-9.426
 10
940.859999
 20
-9.418
 10
940.379997
 20
-9.418304
 10
940.379999
 20
-9.426
  0
LWPOLYLINE
  5
76
330
17
100
AcDbEntity
  8
VISTA
100
AcDbPolyline
 90
5
 70
1
 10
940.379999
 20
-9.464
 10
940.860001
 20
-9.464
 10
940.859999
 20
-9.456
 10
940.379997
 20
-9.456305
 10
940.379999
 20
-9.464
  0
LWPOLYLINE
  5
77
330
17
100
AcDbEntity
  8
VISTA
100
AcDbPolyline
 90
5
 70
1
 10
940.379999
 20
-9.502
 10
940.860001
 20
-9.502
 10
940.859999
 20
-9.494
 10
940.379997
 20
-9.494305
 10
940.379999
 20
-9.502
  0
LWPOLYLINE
  5
78
330
17
100
AcDbEntity
  8
VISTA
100
AcDbPolyline
 90
5
 70
1
 10
940.379999
 20
-9.54
 10
940.860001
 20
-9.54
 10
940.859999
 20
-9.532001
 10
940.379997
 20
-9.532305
 10
940.379999
 20
-9.54
  0
LWPOLYLINE
  5
79
330
17
100
AcDbEntity
  8
VISTA
100
AcDbPolyline
 90
5
 70
1
 10
940.379999
 20
-9.578
 10
940.860001
 20
-9.578
 10
940.859999
 20
-9.570001
 10
940.379997
 20
-9.570305
 10
940.379999
 20
-9.578
  0
LWPOLYLINE
  5
7A
330
17
100
AcDbEntity
  8
VISTA
100
AcDbPolyline
 90
5
 70
1
 10
940.379999
 20
-9.616
 10
940.860001
 20
-9.616
 10
940.859999
 20
-9.608001
 10
940.379997
 20
-9.608305
 10
940.379999
 20
-9.616
  0
LWPOLYLINE
  5
7B
330
17
100
AcDbEntity
  8
VISTA
100
AcDbPolyline
 90
5
 70
1
 10
940.379999
 20
-9.653999
 10
940.860001
 20
-9.653999
 10
940.859999
 20
-9.646
 10
940.379997
 20
-9.646304
 10
940.379999
 20
-9.653999
  0
LWPOLYLINE
  5
7C
330
17
100
AcDbEntity
  8
VISTA
100
AcDbPolyline
 90
5
 70
1
 10
940.379999
 20
-9.691999
 10
940.860001
 20
-9.691999
 10
940.859999
 20
-9.684
 10
940.379997
 20
-9.684304
 10
940.379999
 20
-9.691999
  0
LWPOLYLINE
  5
7D
330
17
100
AcDbEntity
  8
VISTA
100
AcDbPolyline
 90
5
 70
1
 10
940.379999
 20
-9.73
 10
940.860001
 20
-9.73
 10
940.859999
 20
-9.722
 10
940.379997
 20
-9.722304
 10
940.379999
 20
-9.73
  0
LWPOLYLINE
  5
7E
330
17
100
AcDbEntity
  8
VISTA
100
AcDbPolyline
 90
5
 70
1
 10
940.379999
 20
-9.768
 10
940.860001
 20
-9.768
 10
940.859999
 20
-9.76
 10
940.379997
 20
-9.760304
 10
940.379999
 20
-9.768
  0
LWPOLYLINE
  5
7F
330
17
100
AcDbEntity
  8
VISTA
100
AcDbPolyline
 90
5
 70
1
 10
940.379999
 20
-9.806
 10
940.860001
 20
-9.806
 10
940.859999
 20
-9.798
 10
940.379997
 20
-9.798305
 10
940.379999
 20
-9.806
  0
LWPOLYLINE
  5
80
330
17
100
AcDbEntity
  8
VISTA
100
AcDbPolyline
 90
8
 70
1
 10
940.349998
 20
-9.818299
 10
940.3517
 20
-9.82
 10
940.428299
 20
-9.82
 10
940.43
 20
-9.818299
 10
940.43
 20
-9.0617
 10
940.428299
 20
-9.059999
 10
940.350716
 20
-9.060313
 10
940.349998
 20
-9.818299
  0
LWPOLYLINE
  5
81
330
17
100
AcDbEntity
  8
VISTA
100
AcDbPolyline
 90
12
 70
1
 10
937.9235
 20
-7.83
 10
938.376499
 20
-7.83
 10
938.378975
 20
-7.828975
 10
938.379999
 20
-7.8265
 10
938.379999
 20
-7.7735
 10
938.378975
 20
-7.771025
 10
938.376499
 20
-7.77
 10
937.9235
 20
-7.77
 10
937.921024
 20
-7.771025
 10
937.92
 20
-7.7735
 10
937.920647
 20
-7.828526
 10
937.9235
 20
-7.83
  0
LWPOLYLINE
  5
82
330
17
100
AcDbEntity
  8
VISTA
100
AcDbPolyline
 90
4
 70
1
 10
937.921745
 20
-7.828254
 10
937.921745
 20
-7.82897
 10
937.92103
 20
-7.828254
 10
937.921745
 20
-7.828254
  0
LWPOLYLINE
  5
83
330
17
100
AcDbEntity
  8
VISTA
100
AcDbPolyline
 90
4
 70
1
 10
937.921745
 20
-7.77103
 10
937.921745
 20
-7.771747
 10
937.92103
 20
-7.771747
 10
937.921745
 20
-7.77103
  0
LWPOLYLINE
  5
84
330
17
100
AcDbEntity
  8
VISTA
100
AcDbPolyline
 90
4
 70
1
 10
938.378969
 20
-7.828254
 10
938.378254
 20
-7.82897
 10
938.378254
 20
-7.828254
 10
938.378969
 20
-7.828254
  0
LWPOLYLINE
  5
85
330
17
100
AcDbEntity
  8
VISTA
100
AcDbPolyline
 90
4
 70
1
 10
938.378254
 20
-7.77103
 10
938.378969
 20
-7.771747
 10
938.378254
 20
-7.771747
 10
938.378254
 20
-7.77103
  0
LWPOLYLINE
  5
86
330
17
100
AcDbEntity
  8
VISTA
100
AcDbPolyline
 90
12
 70
1
 10
937.9235
 20
-9.73
 10
938.376499
 20
-9.73
 10
938.378975
 20
-9.728974
 10
938.379999
 20
-9.7265
 10
938.379999
 20
-9.6735
 10
938.378975
 20
-9.671025
 10
938.376499
 20
-9.67
 10
937.9235
 20
-9.67
 10
937.921024
 20
-9.671025
 10
937.92
 20
-9.6735
 10
937.920647
 20
-9.728526
 10
937.9235
 20
-9.73
  0
LWPOLYLINE
  5
87
330
17
100
AcDbEntity
  8
VISTA
100
AcDbPolyline
 90
4
 70
1
 10
937.921745
 20
-9.728253
 10
937.921745
 20
-9.72897
 10
937.92103
 20
-9.728253
 10
937.921745
 20
-9.728253
  0
LWPOLYLINE
  5
88
330
17
100
AcDbEntity
  8
VISTA
100
AcDbPolyline
 90
4
 70
1
 10
937.9210268159285
 20
-9.728635619261727
 10
937.921288
 20
-9.728711
 10
937.9210268159285
 20
-9.728635619261729
 10
937.9210268159285
 20
-9.728635619261727
  0
LWPOLYLINE
  5
89
330
17
100
AcDbEntity
  8
VISTA
100
AcDbPolyline
 90
4
 70
1
 10
937.921745
 20
-9.67103
 10
937.921745
 20
-9.671746
 10
937.92103
 20
-9.671746
 10
937.921745
 20
-9.67103
  0
LWPOLYLINE
  5
8A
330
17
100
AcDbEntity
  8
VISTA
100
AcDbPolyline
 90
4
 70
1
 10
938.378969
 20
-9.728253
 10
938.378254
 20
-9.72897
 10
938.378254
 20
-9.728253
 10
938.378969
 20
-9.728253
  0
LWPOLYLINE
  5
8B
330
17
100
AcDbEntity
  8
VISTA
100
AcDbPolyline
 90
4
 70
1
 10
938.378254
 20
-9.67103
 10
938.378969
 20
-9.671746
 10
938.378254
 20
-9.671746
 10
938.378254
 20
-9.67103
  0
LINE
  5
8C
330
17
100
AcDbEntity
  8
CORTE
100
AcDbLine
 10
941.799999
 20
-7.202708724674022
 30
0.0
 11
941.799999
 21
-5.8
 31
0.0
  0
LINE
  5
8D
330
17
100
AcDbEntity
  8
CORTE
100
AcDbLine
 10
941.799999
 20
-7.202708724674023
 30
0.0
 11
941.799999
 21
-10.15
 31
0.0
  0
LINE
  5
8E
330
17
100
AcDbEntity
  8
CORTE
100
AcDbLine
 10
942.0
 20
-5.8
 30
0.0
 11
942.0
 21
-7.202708724674022
 31
0.0
  0
LINE
  5
8F
330
17
100
AcDbEntity
  8
CORTE
100
AcDbLine
 10
942.0
 20
-7.202708724674022
 30
0.0
 11
942.0
 21
-7.202708724674023
 31
0.0
  0
LINE
  5
90
330
17
100
AcDbEntity
  8
CORTE
100
AcDbLine
 10
942.0
 20
-10.15
 30
0.0
 11
942.0
 21
-7.202708724674023
 31
0.0
  0
LWPOLYLINE
  5
91
330
17
100
AcDbEntity
  8
VISTA
100
AcDbPolyline
 90
9
 70
1
 10
939.970001
 20
-6.2115
 10
939.970001
 20
-6.207860869565217
 10
939.970001
 20
-6.2025
 10
939.5090448826087
 20
-6.2025
 10
938.830002
 20
-6.2025
 10
938.830002
 20
-6.206139130434782
 10
938.830002
 20
-6.2115
 10
939.2909581173913
 20
-6.2115
 10
939.970001
 20
-6.2115
  0
LWPOLYLINE
  5
92
330
17
100
AcDbEntity
  8
VISTA
100
AcDbPolyline
 90
9
 70
1
 10
939.968292
 20
-6.2375
 10
939.968292
 20
-6.233863459945052
 10
939.968292
 20
-6.2285
 10
939.5090450742009
 20
-6.2285
 10
938.831711
 20
-6.2285
 10
938.831711
 20
-6.232136540054948
 10
938.831711
 20
-6.2375
 10
939.2909579257991
 20
-6.2375
 10
939.968292
 20
-6.2375
  0
LWPOLYLINE
  5
93
330
17
100
AcDbEntity
  8
VISTA
100
AcDbPolyline
 90
41
 70
1
 10
938.7899129380454
 20
-6.158977144851658
 10
938.7897379999999
 20
-6.159184
 10
938.7892981623037
 20
-6.160564303664922
 10
938.789
 20
-6.1615
 10
938.789
 20
-6.231230366492147
 10
938.789
 20
-6.2785
 10
938.7894398376964
 20
-6.279880303664921
 10
938.7897379999999
 20
-6.280816
 10
938.7899960619546
 20
-6.281121740837697
 10
938.790171
 20
-6.281329
 10
938.7904767408377
 20
-6.281587061954625
 10
938.790684
 20
-6.281762
 10
938.7920637076788
 20
-6.282201837696335
 10
938.792999
 20
-6.2825
 10
938.8371031588133
 20
-6.2825
 10
938.867001
 20
-6.2825
 10
938.8683807076789
 20
-6.282060162303664
 10
938.869316
 20
-6.281762
 10
938.8696217408377
 20
-6.281503938045375
 10
938.869829
 20
-6.281329
 10
938.8700039380453
 20
-6.281121740837697
 10
938.870262
 20
-6.280816
 10
938.8705601623037
 20
-6.279880303664921
 10
938.871
 20
-6.2785
 10
938.871
 20
-6.231230366492147
 10
938.871
 20
-6.1615
 10
938.8707018376963
 20
-6.160564303664922
 10
938.870262
 20
-6.159184
 10
938.8700870619547
 20
-6.158977144851658
 10
938.869829
 20
-6.158672
 10
938.8696217408377
 20
-6.158497061954625
 10
938.869316
 20
-6.158239
 10
938.8683807076789
 20
-6.1579404336823735
 10
938.867001
 20
-6.1575
 10
938.8371031588133
 20
-6.1575
 10
938.792999
 20
-6.1575
 10
938.7920637076788
 20
-6.157798566317626
 10
938.790684
 20
-6.158239
 10
938.7904767408377
 20
-6.158413938045375
 10
938.790171
 20
-6.158672
 10
938.7899129380454
 20
-6.158977144851658
  0
LWPOLYLINE
  5
94
330
17
100
AcDbEntity
  8
VISTA
100
AcDbPolyline
 90
41
 70
1
 10
939.9299139380454
 20
-6.158977144851658
 10
939.929739
 20
-6.159184
 10
939.9292991623037
 20
-6.160564303664922
 10
939.929001
 20
-6.1615
 10
939.929001
 20
-6.231230366492147
 10
939.929001
 20
-6.2785
 10
939.9294408376963
 20
-6.279880303664921
 10
939.929739
 20
-6.280816
 10
939.9299970619546
 20
-6.281121740837697
 10
939.930172
 20
-6.281329
 10
939.9304777408377
 20
-6.281587061954625
 10
939.930685
 20
-6.281762
 10
939.9320653036649
 20
-6.282201837696335
 10
939.933001
 20
-6.2825
 10
939.9771045628272
 20
-6.2825
 10
940.007002
 20
-6.2825
 10
940.0083817076788
 20
-6.282060162303664
 10
940.009317
 20
-6.281762
 10
940.0096227408377
 20
-6.281503938045375
 10
940.00983
 20
-6.281329
 10
940.0100049380454
 20
-6.281121740837697
 10
940.010263
 20
-6.280816
 10
940.0105615663176
 20
-6.279880303664921
 10
940.011002
 20
-6.2785
 10
940.011002
 20
-6.231230366492147
 10
940.011002
 20
-6.1615
 10
940.0107034336824
 20
-6.160564303664922
 10
940.010263
 20
-6.159184
 10
940.0100880619547
 20
-6.158977144851658
 10
940.00983
 20
-6.158672
 10
940.0096227408377
 20
-6.158497061954625
 10
940.009317
 20
-6.158239
 10
940.0083817076788
 20
-6.1579404336823735
 10
940.007002
 20
-6.1575
 10
939.9771045628272
 20
-6.1575
 10
939.933001
 20
-6.1575
 10
939.9320653036649
 20
-6.157798566317626
 10
939.930685
 20
-6.158239
 10
939.9304777408377
 20
-6.158413938045375
 10
939.930172
 20
-6.158672
 10
939.9299139380454
 20
-6.158977144851658
  0
LWPOLYLINE
  5
95
330
17
100
AcDbEntity
  8
VISTA
100
AcDbPolyline
 90
9
 70
1
 10
938.877441
 20
-6.2375
 10
938.877441
 20
-6.223347826086957
 10
938.877441
 20
-6.2025
 10
938.8669275521739
 20
-6.2025
 10
938.85144
 20
-6.2025
 10
938.85144
 20
-6.216652173913043
 10
938.85144
 20
-6.2375
 10
938.8619534478261
 20
-6.2375
 10
938.877441
 20
-6.2375
  0
LWPOLYLINE
  5
96
330
17
100
AcDbEntity
  8
VISTA
100
AcDbPolyline
 90
9
 70
1
 10
939.948561
 20
-6.2375
 10
939.948561
 20
-6.223347826086957
 10
939.948561
 20
-6.2025
 10
939.9380475521739
 20
-6.2025
 10
939.92256
 20
-6.2025
 10
939.92256
 20
-6.216652173913043
 10
939.92256
 20
-6.2375
 10
939.9330734478261
 20
-6.2375
 10
939.948561
 20
-6.2375
  0
LWPOLYLINE
  5
97
330
17
100
AcDbEntity
  8
VISTA
100
AcDbPolyline
 90
57
 70
1
 10
940.615
 20
-8.15
 10
940.6148164181818
 20
-8.148371390909091
 10
940.614122
 20
-8.142211
 10
940.6135808727273
 20
-8.140664145454545
 10
940.611534
 20
-8.134813
 10
940.6106623
 20
-8.133425681818181
 10
940.607365
 20
-8.128178
 10
940.6062060090909
 20
-8.127019218181818
 10
940.601822
 20
-8.122636
 10
940.6004344727273
 20
-8.121763881818183
 10
940.595186
 20
-8.118465
 10
940.5936391454545
 20
-8.117923872727273
 10
940.587788
 20
-8.115877
 10
940.5861596
 20
-8.115693627272726
 10
940.58
 20
-8.115
 10
940.5783716
 20
-8.115183372727273
 10
940.572212
 20
-8.115877
 10
940.5706651454545
 20
-8.116418127272727
 10
940.564814
 20
-8.118465
 10
940.5634264727273
 20
-8.119337118181818
 10
940.558178
 20
-8.122636
 10
940.5570190090909
 20
-8.123794781818182
 10
940.552635
 20
-8.128178
 10
940.5517633
 20
-8.129565318181818
 10
940.548466
 20
-8.134813
 10
940.5479246636364
 20
-8.136359854545454
 10
940.545877
 20
-8.142211
 10
940.5456936272727
 20
-8.143839609090909
 10
940.545
 20
-8.15
 10
940.5451833727273
 20
-8.1516284
 10
940.545877
 20
-8.157788
 10
940.5464183363637
 20
-8.159334854545454
 10
940.548466
 20
-8.165186
 10
940.5493377
 20
-8.166573527272728
 10
940.552635
 20
-8.171822
 10
940.5537939909091
 20
-8.172980572727273
 10
940.558178
 20
-8.177363
 10
940.5595655272728
 20
-8.178235118181817
 10
940.564814
 20
-8.181534
 10
940.5663608545455
 20
-8.182075127272727
 10
940.572212
 20
-8.184122
 10
940.5738404
 20
-8.184305372727273
 10
940.58
 20
-8.184999
 10
940.5816284
 20
-8.184815627272727
 10
940.587788
 20
-8.184122
 10
940.5893348545454
 20
-8.183580872727273
 10
940.595186
 20
-8.181534
 10
940.5965735272728
 20
-8.180661881818182
 10
940.601822
 20
-8.177363
 10
940.6029809909091
 20
-8.176204427272728
 10
940.607365
 20
-8.171822
 10
940.6082367
 20
-8.170434472727273
 10
940.611534
 20
-8.165186
 10
940.6120751272728
 20
-8.163639145454546
 10
940.614122
 20
-8.157788
 10
940.6143055818181
 20
-8.1561596
 10
940.615
 20
-8.15
  0
LINE
  5
98
330
17
100
AcDbEntity
  8
CORTE
100
AcDbLine
 10
939.254499
 20
-5.8
 30
0.0
 11
939.3250555015438
 21
-5.8
 31
0.0
  0
LINE
  5
99
330
17
100
AcDbEntity
  8
CORTE
100
AcDbLine
 10
939.3250555015438
 20
-5.8
 30
0.0
 11
939.3855
 21
-5.8
 31
0.0
  0
LWPOLYLINE
  5
9A
330
17
100
AcDbEntity
  8
CORTE
100
AcDbPolyline
 90
5
 70
1
 10
939.25
 20
-6.1
 10
942.0
 20
-6.1
 10
942.0
 20
-5.9
 10
939.25
 20
-5.9
 10
939.25
 20
-6.1
  0
LWPOLYLINE
  5
9B
330
17
100
AcDbEntity
  8
VISTA
100
AcDbPolyline
 90
45
 70
1
 10
941.7370912238555
 20
-6.75
 10
941.7166781542927
 20
-6.608033424398465
 10
941.7120933775864
 20
-6.576145960677839
 10
941.6525129949443
 20
-6.445680633180414
 10
941.6391303528695
 20
-6.416376635427395
 10
941.5452047124801
 20
-6.307981578035765
 10
941.5241079986893
 20
-6.283634794026777
 10
941.4034501449303
 20
-6.206092600692819
 10
941.3763489371781
 20
-6.188675692163655
 10
941.2387330209718
 20
-6.148268120119839
 10
941.207822619324
 20
-6.139192003651344
 10
941.0643947163187
 20
-6.139192003651344
 10
941.032179380676
 20
-6.139192003651344
 10
940.8945634644696
 20
-6.17959957569516
 10
940.8636528755734
 20
-6.188675692163655
 10
940.7429942090628
 20
-6.266217885497612
 10
940.7158931885591
 20
-6.283634794026777
 10
940.6219683609213
 20
-6.392029851418407
 10
940.6008716471304
 20
-6.416376635427395
 10
940.5412912644883
 20
-6.54684196292482
 10
940.5279086224136
 20
-6.576145960677839
 10
940.5074955528509
 20
-6.718112536279374
 10
940.5029107761445
 20
-6.75
 10
940.5233238457073
 20
-6.891966575601535
 10
940.5279086224136
 20
-6.923854039322161
 10
940.5874890050557
 20
-7.054319366819586
 10
940.6008716471304
 20
-7.083623364572605
 10
940.6947964747683
 20
-7.192018421964235
 10
940.7158931885591
 20
-7.216365205973223
 10
940.8365518550697
 20
-7.293907399307181
 10
940.8636528755734
 20
-7.311324307836345
 10
941.0012687917798
 20
-7.351731879880161
 10
941.032179380676
 20
-7.360807996348656
 10
941.1756072836813
 20
-7.360807996348656
 10
941.207822619324
 20
-7.360807996348656
 10
941.3454385355304
 20
-7.32040042430484
 10
941.3763489371781
 20
-7.311324307836345
 10
941.4970067909371
 20
-7.233782114502388
 10
941.5241079986893
 20
-7.216365205973223
 10
941.6180336390787
 20
-7.107970148581593
 10
941.6391303528695
 20
-7.083623364572605
 10
941.6987107355117
 20
-6.95315803707518
 10
941.7120933775864
 20
-6.923854039322161
 10
941.7325064471491
 20
-6.781887463720626
 10
941.7370912238555
 20
-6.75
  0
LWPOLYLINE
  5
9C
330
17
100
AcDbEntity
  8
VISTA
100
AcDbPolyline
 90
41
 70
1
 10
940.4404151253902
 20
-6.440595657648283
 10
940.440313
 20
-6.440716
 10
940.4401723371489
 20
-6.441156803329865
 10
940.439999
 20
-6.4417
 10
940.439999
 20
-6.717918834547347
 10
940.439999
 20
-7.0583
 10
940.4401396628512
 20
-7.058740803329865
 10
940.440313
 20
-7.059284
 10
940.4403958746097
 20
-7.059381657648283
 10
940.440498
 20
-7.059502
 10
940.4405956576483
 20
-7.059584426638918
 10
940.440716
 20
-7.059686
 10
940.4411568033298
 20
-7.059826662851196
 10
940.4417
 20
-7.06
 10
940.4760141201873
 20
-7.06
 10
940.518299
 20
-7.06
 10
940.5187398033298
 20
-7.059859337148803
 10
940.519283
 20
-7.059686
 10
940.5193806576483
 20
-7.059603573361082
 10
940.519501
 20
-7.059502
 10
940.5196031253902
 20
-7.059381657648283
 10
940.519686
 20
-7.059284
 10
940.5198593371488
 20
-7.058740803329865
 10
940.52
 20
-7.0583
 10
940.52
 20
-6.717918834547347
 10
940.52
 20
-6.4417
 10
940.5198266628512
 20
-6.441156803329865
 10
940.519686
 20
-6.440716
 10
940.5195838746098
 20
-6.440595657648283
 10
940.519501
 20
-6.440498
 10
940.5193806576483
 20
-6.440396426638918
 10
940.519283
 20
-6.440314
 10
940.5187398033298
 20
-6.440140662851197
 10
940.518299
 20
-6.44
 10
940.4760141201873
 20
-6.44
 10
940.4417
 20
-6.44
 10
940.4411568033298
 20
-6.440173337148804
 10
940.440716
 20
-6.440314
 10
940.4405956576483
 20
-6.440415573361082
 10
940.440498
 20
-6.440498
 10
940.4404151253902
 20
-6.440595657648283
  0
LWPOLYLINE
  5
9D
330
17
100
AcDbEntity
  8
VISTA
100
AcDbPolyline
 90
41
 70
1
 10
940.4403485083043
 20
-9.010673157781945
 10
940.440313
 20
-9.010715
 10
940.440059268149
 20
-9.01151094227163
 10
940.439999
 20
-9.0117
 10
940.439999
 20
-9.703886146129118
 10
940.439999
 20
-9.868299
 10
940.440252731851
 20
-9.869094942271632
 10
940.440313
 20
-9.869284
 10
940.4404624916957
 20
-9.869460157781946
 10
940.440498
 20
-9.869502
 10
940.4406741577819
 20
-9.869650683632466
 10
940.440716
 20
-9.869686
 10
940.4415111342084
 20
-9.869939731851057
 10
940.4417
 20
-9.87
 10
940.5035968345834
 20
-9.87
 10
940.518299
 20
-9.87
 10
940.5190941342084
 20
-9.869746268148942
 10
940.519283
 20
-9.869686
 10
940.519459157782
 20
-9.869537316367534
 10
940.519501
 20
-9.869502
 10
940.5195365083043
 20
-9.869460157781946
 10
940.519686
 20
-9.869284
 10
940.519746268149
 20
-9.869094942271632
 10
940.52
 20
-9.868299
 10
940.52
 20
-9.703886146129118
 10
940.52
 20
-9.0117
 10
940.5199397318511
 20
-9.01151094227163
 10
940.519686
 20
-9.010715
 10
940.5196504916956
 20
-9.010673157781945
 10
940.519501
 20
-9.010497
 10
940.519459157782
 20
-9.010461683632467
 10
940.519283
 20
-9.010313
 10
940.5190941342084
 20
-9.010252731851057
 10
940.518299
 20
-9.009999
 10
940.5035968345834
 20
-9.009999
 10
940.4417
 20
-9.009999
 10
940.4415111342084
 20
-9.010059268148943
 10
940.440716
 20
-9.010313
 10
940.4406741577819
 20
-9.010348316367534
 10
940.440498
 20
-9.010497
 10
940.4403485083043
 20
-9.010673157781945
  0
LWPOLYLINE
  5
9E
330
17
100
AcDbEntity
  8
CORTE
100
AcDbPolyline
 90
22
 70
1
 10
940.5010562427634
 20
-10.001628769394056
 10
940.500832
 20
-10.001895
 10
940.500383888846
 20
-10.003298040331918
 10
940.5
 20
-10.0045
 10
940.5
 20
-10.15
 10
940.700001
 20
-10.15
 10
940.700001
 20
-10.0045
 10
940.699617111154
 20
-10.003298040331918
 10
940.699169
 20
-10.001895
 10
940.6989447572366
 20
-10.001628769394056
 10
940.698683
 20
-10.001318
 10
940.6984163079892
 20
-10.001093295831724
 10
940.698105
 20
-10.000831
 10
940.6969035017368
 20
-10.000447572558857
 10
940.695501
 20
-10.0
 10
940.6073717483597
 20
-10.0
 10
940.504499
 20
-10.0
 10
940.5032979631417
 20
-10.000383427441143
 10
940.501896
 20
-10.000831
 10
940.5016293079892
 20
-10.001055704168275
 10
940.501318
 20
-10.001318
 10
940.5010562427634
 20
-10.001628769394056
  0
LINE
  5
9F
330
17
100
AcDbEntity
  8
VISTA
100
AcDbLine
 10
940.3667961626592
 20
-6.4504492906930695
 30
0.0
 11
940.3676379999999
 21
-6.447836158140911
 31
0.0
  0
LINE
  5
A0
330
17
100
AcDbEntity
  8
VISTA
100
AcDbLine
 10
940.3667961626592
 20
-6.4504492906930695
 30
0.0
 11
940.366663
 21
-6.450862963543592
 31
0.0
  0
LINE
  5
A1
330
17
100
AcDbEntity
  8
VISTA
100
AcDbLine
 10
940.365081810123
 20
-6.46386943272314
 30
0.0
 11
940.366663
 21
-6.450862963543592
 31
0.0
  0
LINE
  5
A2
330
17
100
AcDbEntity
  8
VISTA
100
AcDbLine
 10
940.365081810123
 20
-6.46386943272314
 30
0.0
 11
940.365
 21
-6.464542273391137
 31
0.0
  0
LINE
  5
A3
330
17
100
AcDbEntity
  8
VISTA
100
AcDbLine
 10
940.3676379999999
 20
-6.478307715355805
 30
0.0
 11
940.3666917838055
 21
-6.477097263768271
 31
0.0
  0
LINE
  5
A4
330
17
100
AcDbEntity
  8
VISTA
100
AcDbLine
 10
940.366663
 20
-6.477060424639152
 30
0.0
 11
940.3650272739156
 21
-6.4715170714271215
 31
0.0
  0
LINE
  5
A5
330
17
100
AcDbEntity
  8
VISTA
100
AcDbLine
 10
940.3650272739156
 20
-6.4715170714271215
 30
0.0
 11
940.365
 21
-6.471424658352583
 31
0.0
  0
LINE
  5
A6
330
17
100
AcDbEntity
  8
VISTA
100
AcDbLine
 10
940.365
 20
-6.471424658352583
 30
0.0
 11
940.365
 21
-6.464542273391137
 31
0.0
  0
LINE
  5
A7
330
17
100
AcDbEntity
  8
VISTA
100
AcDbLine
 10
940.442364
 20
-6.447836158140911
 30
0.0
 11
940.443204973918
 21
-6.4504492906930695
 31
0.0
  0
LINE
  5
A8
330
17
100
AcDbEntity
  8
VISTA
100
AcDbLine
 10
940.443338
 20
-6.450862963543592
 30
0.0
 11
940.443204973918
 21
-6.4504492906930695
 31
0.0
  0
LINE
  5
A9
330
17
100
AcDbEntity
  8
VISTA
100
AcDbLine
 10
940.443338
 20
-6.450862963543592
 30
0.0
 11
940.4449201406827
 21
-6.46386943272314
 31
0.0
  0
LINE
  5
AA
330
17
100
AcDbEntity
  8
VISTA
100
AcDbLine
 10
940.445002
 20
-6.464542273391137
 30
0.0
 11
940.4449201406827
 21
-6.46386943272314
 31
0.0
  0
LINE
  5
AB
330
17
100
AcDbEntity
  8
VISTA
100
AcDbLine
 10
940.4433092457164
 20
-6.477097263768271
 30
0.0
 11
940.442364
 21
-6.478307715355805
 31
0.0
  0
LINE
  5
AC
330
17
100
AcDbEntity
  8
VISTA
100
AcDbLine
 10
940.444974709684
 20
-6.4715170714271215
 30
0.0
 11
940.443338
 21
-6.477060424639152
 31
0.0
  0
LINE
  5
AD
330
17
100
AcDbEntity
  8
VISTA
100
AcDbLine
 10
940.445002
 20
-6.471424658352583
 30
0.0
 11
940.444974709684
 21
-6.4715170714271215
 31
0.0
  0
LINE
  5
AE
330
17
100
AcDbEntity
  8
VISTA
100
AcDbLine
 10
940.445002
 20
-6.464542273391137
 30
0.0
 11
940.445002
 21
-6.471424658352583
 31
0.0
  0
LINE
  5
AF
330
17
100
AcDbEntity
  8
VISTA
100
AcDbLine
 10
940.3687499525832
 20
-6.479324926530721
 30
0.0
 11
940.3676379999999
 21
-6.478307715355805
 31
0.0
  0
LINE
  5
B0
330
17
100
AcDbEntity
  8
VISTA
100
AcDbLine
 10
940.3687499525832
 20
-6.479324926530721
 30
0.0
 11
940.36879
 21
-6.4793615761553145
 31
0.0
  0
LINE
  5
B1
330
17
100
AcDbEntity
  8
VISTA
100
AcDbLine
 10
940.3737982331753
 20
-6.481089410121062
 30
0.0
 11
940.36879
 21
-6.4793615761553145
 31
0.0
  0
LINE
  5
B2
330
17
100
AcDbEntity
  8
VISTA
100
AcDbLine
 10
940.3737982331753
 20
-6.481089410121062
 30
0.0
 11
940.374001
 21
-6.48115936441323
 31
0.0
  0
LINE
  5
B3
330
17
100
AcDbEntity
  8
VISTA
100
AcDbLine
 10
940.4335783036198
 20
-6.48115936441323
 30
0.0
 11
940.374001
 21
-6.48115936441323
 31
0.0
  0
LINE
  5
B4
330
17
100
AcDbEntity
  8
VISTA
100
AcDbLine
 10
940.4335783036198
 20
-6.48115936441323
 30
0.0
 11
940.436001
 21
-6.48115936441323
 31
0.0
  0
LINE
  5
B5
330
17
100
AcDbEntity
  8
VISTA
100
AcDbLine
 10
940.4410296274027
 20
-6.479424494465414
 30
0.0
 11
940.436001
 21
-6.48115936441323
 31
0.0
  0
LINE
  5
B6
330
17
100
AcDbEntity
  8
VISTA
100
AcDbLine
 10
940.4410296274027
 20
-6.479424494465414
 30
0.0
 11
940.441212
 21
-6.4793615761553145
 31
0.0
  0
LINE
  5
B7
330
17
100
AcDbEntity
  8
VISTA
100
AcDbLine
 10
940.4423266138741
 20
-6.478341929451528
 30
0.0
 11
940.441212
 21
-6.4793615761553145
 31
0.0
  0
LINE
  5
B8
330
17
100
AcDbEntity
  8
VISTA
100
AcDbLine
 10
940.4423266138741
 20
-6.478341929451528
 30
0.0
 11
940.442364
 21
-6.478307715355805
 31
0.0
  0
LINE
  5
B9
330
17
100
AcDbEntity
  8
VISTA
100
AcDbLine
 10
940.3676379999999
 20
-6.447836158140911
 30
0.0
 11
940.3685970852488
 21
-6.445706539951265
 31
0.0
  0
LINE
  5
BA
330
17
100
AcDbEntity
  8
VISTA
100
AcDbLine
 10
940.3685970852488
 20
-6.445706539951265
 30
0.0
 11
940.36879
 21
-6.44527817890222
 31
0.0
  0
LINE
  5
BB
330
17
100
AcDbEntity
  8
VISTA
100
AcDbLine
 10
940.36879
 20
-6.44527817890222
 30
0.0
 11
940.3729943593514
 21
-6.441757417811175
 31
0.0
  0
LINE
  5
BC
330
17
100
AcDbEntity
  8
VISTA
100
AcDbLine
 10
940.3729943593514
 20
-6.441757417811175
 30
0.0
 11
940.374001
 21
-6.44091444961269
 31
0.0
  0
LINE
  5
BD
330
17
100
AcDbEntity
  8
VISTA
100
AcDbLine
 10
940.374001
 20
-6.44091444961269
 30
0.0
 11
940.4236837568357
 21
-6.44091444961269
 31
0.0
  0
LINE
  5
BE
330
17
100
AcDbEntity
  8
VISTA
100
AcDbLine
 10
940.4236837568357
 20
-6.44091444961269
 30
0.0
 11
940.436001
 21
-6.44091444961269
 31
0.0
  0
LINE
  5
BF
330
17
100
AcDbEntity
  8
VISTA
100
AcDbLine
 10
940.436001
 20
-6.44091444961269
 30
0.0
 11
940.4402988801804
 21
-6.444513525725919
 31
0.0
  0
LINE
  5
C0
330
17
100
AcDbEntity
  8
VISTA
100
AcDbLine
 10
940.4402988801804
 20
-6.444513525725919
 30
0.0
 11
940.441212
 21
-6.44527817890222
 31
0.0
  0
LINE
  5
C1
330
17
100
AcDbEntity
  8
VISTA
100
AcDbLine
 10
940.441212
 20
-6.44527817890222
 30
0.0
 11
940.442184063621
 21
-6.447436615153225
 31
0.0
  0
LINE
  5
C2
330
17
100
AcDbEntity
  8
VISTA
100
AcDbLine
 10
940.442184063621
 20
-6.447436615153225
 30
0.0
 11
940.442364
 21
-6.447836158140911
 31
0.0
  0
LWPOLYLINE
  5
C3
330
17
100
AcDbEntity
  8
VISTA
100
AcDbPolyline
 90
41
 70
1
 10
940.3676065289164
 20
-7.021732563158175
 10
940.366663
 20
-7.022939575360848
 10
940.3666146892753
 20
-7.023103267738896
 10
940.365
 20
-7.028575341647417
 10
940.365
 20
-7.030401320472638
 10
940.365
 20
-7.035457726608863
 10
940.3664585584715
 20
-7.047455650392979
 10
940.366663
 20
-7.049137036456408
 10
940.3674911436963
 20
-7.051707622176293
 10
940.3676379999999
 20
-7.052163841859089
 10
940.3685970852488
 20
-7.054293460048735
 10
940.36879
 20
-7.05472182109778
 10
940.3729943593514
 20
-7.058242582188825
 10
940.374001
 20
-7.05908555038731
 10
940.4236837568357
 20
-7.05908555038731
 10
940.436001
 20
-7.05908555038731
 10
940.4402988801804
 20
-7.055486474274081
 10
940.441212
 20
-7.05472182109778
 10
940.442184063621
 20
-7.052563384846775
 10
940.442364
 20
-7.052163841859089
 10
940.4425107056819
 20
-7.051707622176293
 10
940.443338
 20
-7.049137036456408
 10
940.4435425644639
 20
-7.047455650392979
 10
940.445002
 20
-7.035457726608863
 10
940.445002
 20
-7.030401320472638
 10
940.445002
 20
-7.028575341647417
 10
940.4433863397751
 20
-7.023103267738896
 10
940.443338
 20
-7.022939575360848
 10
940.4423954388055
 20
-7.021732563158175
 10
940.442364
 20
-7.021692284644195
 10
940.4412520474167
 20
-7.020675073469279
 10
940.441212
 20
-7.0206384238446855
 10
940.4362037668246
 20
-7.018910589878938
 10
940.436001
 20
-7.01884063558677
 10
940.3764236963801
 20
-7.01884063558677
 10
940.374001
 20
-7.01884063558677
 10
940.3689723725972
 20
-7.020575505534586
 10
940.36879
 20
-7.0206384238446855
 10
940.3676753861259
 20
-7.021658070548472
 10
940.3676379999999
 20
-7.021692284644195
 10
940.3676065289164
 20
-7.021732563158175
  0
LWPOLYLINE
  5
C4
330
17
100
AcDbEntity
  8
VISTA
100
AcDbPolyline
 90
24
 70
1
 10
940.5010562427634
 20
-10.031629769394057
 10
940.500832
 20
-10.031896
 10
940.500383888846
 20
-10.03329850173678
 10
940.5
 20
-10.0345
 10
940.5
 20
-10.105056501543805
 10
940.5
 20
-10.15
 10
942.0
 20
-10.15
 10
942.0
 20
-10.105056501543805
 10
942.0
 20
-10.0345
 10
941.999616111154
 20
-10.03329850173678
 10
941.999168
 20
-10.031896
 10
941.9989437572366
 20
-10.031629769394057
 10
941.998682
 20
-10.031319
 10
941.998416230799
 20
-10.031093834426862
 10
941.998106
 20
-10.030831
 10
941.996904040332
 20
-10.03044803396372
 10
941.995501
 20
-10.030001
 10
941.3075454264763
 20
-10.030001
 10
940.504499
 20
-10.030001
 10
940.503297040332
 20
-10.030383966036279
 10
940.501894
 20
-10.030831
 10
940.5016282307989
 20
-10.031056165573137
 10
940.501318
 20
-10.031319
 10
940.5010562427634
 20
-10.031629769394057
  0
LWPOLYLINE
  5
C5
330
17
100
AcDbEntity
  8
VISTA
100
AcDbPolyline
 90
41
 70
1
 10
938.1709367285513
 20
-7.241768806610408
 10
938.17083
 20
-7.241895
 10
938.1701799634318
 20
-7.243930270745429
 10
938.169998
 20
-7.2445
 10
938.169998
 20
-7.268720112517581
 10
938.169998
 20
-7.2755
 10
938.1706480365682
 20
-7.277535270745429
 10
938.17083
 20
-7.278105
 10
938.1712112714487
 20
-7.278555806610408
 10
938.171318
 20
-7.278682
 10
938.1717680253165
 20
-7.279063271448663
 10
938.171894
 20
-7.27917
 10
938.1739300520394
 20
-7.27981847398031
 10
938.1745
 20
-7.28
 10
940.1832059697609
 20
-7.28
 10
940.745499
 20
-7.28
 10
940.7475342707454
 20
-7.27935152601969
 10
940.748104
 20
-7.27917
 10
940.7485540253165
 20
-7.278788728551336
 10
940.74868
 20
-7.278682
 10
940.7487867285513
 20
-7.278555806610408
 10
940.749168
 20
-7.278105
 10
940.7493499634318
 20
-7.277535270745429
 10
940.75
 20
-7.2755
 10
940.75
 20
-7.268720112517581
 10
940.75
 20
-7.2445
 10
940.7498180365682
 20
-7.243930270745429
 10
940.749168
 20
-7.241895
 10
940.7490612714487
 20
-7.241768806610408
 10
940.74868
 20
-7.241318
 10
940.7485540253165
 20
-7.241211490154711
 10
940.748104
 20
-7.240831
 10
940.7475342707454
 20
-7.240649255274262
 10
940.745499
 20
-7.24
 10
940.1832059697609
 20
-7.24
 10
938.1745
 20
-7.24
 10
938.1739300520394
 20
-7.240181744725739
 10
938.171894
 20
-7.240831
 10
938.1717680253165
 20
-7.240937509845288
 10
938.171318
 20
-7.241318
 10
938.1709367285513
 20
-7.241768806610408
  0
LWPOLYLINE
  5
C6
330
17
100
AcDbEntity
  8
VISTA
100
AcDbPolyline
 90
13
 70
1
 10
939.030001
 20
-7.548
 10
939.0223471689932
 20
-7.552463308974752
 10
939.0196853640223
 20
-7.554
 10
939.0196853640223
 20
-7.562926617949503
 10
939.0196853640223
 20
-7.566
 10
939.0272897826087
 20
-7.570434782608696
 10
939.030001
 20
-7.572
 10
939.0375554130989
 20
-7.567593381431719
 10
939.040314884175
 20
-7.566
 10
939.040314884175
 20
-7.557186762863438
 10
939.040314884175
 20
-7.554
 10
939.0327116956522
 20
-7.549565217391304
 10
939.030001
 20
-7.548
  0
DIMENSION
  5
C7
330
17
100
AcDbEntity
  8
COTAS
100
AcDbDimension
280
0
  2
*D1
  3
Standard
 10
942.25
 20
-6.15
 30
0.0
 11
942.25
 21
-6.75
 31
0.0
 70
32
 71
5
  1
<>
100
AcDbAlignedDimension
 13
941.8
 23
-6.15
 33
0.0
 14
941.8
 24
-7.35
 34
0.0
 50
90.0
100
AcDbRotatedDimension
1001
ACAD
1000
DSTYLE
1002
{
1070
140
1040
0.13
1070
41
1040
0.09
1002
}
  0
DIMENSION
  5
DB
330
17
100
AcDbEntity
  8
COTAS
100
AcDbDimension
280
0
  2
*D2
  3
Standard
 10
942.25
 20
-7.5
 30
0.0
 11
942.25
 21
-8.15
 31
0.0
 70
32
 71
5
  1
<>
100
AcDbAlignedDimension
 13
941.8
 23
-7.5
 33
0.0
 14
941.8
 24
-8.8
 34
0.0
 50
90.0
100
AcDbRotatedDimension
1001
ACAD
1000
DSTYLE
1002
{
1070
140
1040
0.13
1070
41
1040
0.09
1002
}
  0
DIMENSION
  5
EB
330
17
100
AcDbEntity
  8
COTAS
100
AcDbDimension
280
0
  2
*D3
  3
Standard
 10
942.25
 20
-8.89
 30
0.0
 11
942.25
 21
-9.440000000000001
 31
0.0
 70
32
 71
5
  1
<>
100
AcDbAlignedDimension
 13
941.8
 23
-8.89
 33
0.0
 14
941.8
 24
-9.99
 34
0.0
 50
90.0
100
AcDbRotatedDimension
1001
ACAD
1000
DSTYLE
1002
{
1070
140
1040
0.13
1070
41
1040
0.09
1002
}
  0
TEXT
  5
FB
330
17
100
AcDbEntity
  8
TEXTOS
100
AcDbText
 10
939.3
 20
-6.4
 30
0.0
 40
0.06999999999999999
  1
HORNO
100
AcDbText
  0
TEXT
  5
FC
330
17
100
AcDbEntity
  8
TEXTOS
100
AcDbText
 10
939.3
 20
-8.4
 30
0.0
 40
0.06999999999999999
  1
BACHA
100
AcDbText
  0
TEXT
  5
FD
330
17
100
AcDbEntity
  8
TEXTOS
100
AcDbText
 10
939.3
 20
-9.45
 30
0.0
 40
0.06999999999999999
  1
PARRILLA
100
AcDbText
  0
LWPOLYLINE
  5
FE
330
17
100
AcDbEntity
  8
VISTA
100
AcDbPolyline
 90
13
 70
1
 10
976.7731
 20
-5.982
 10
976.774857
 20
-5.986242
 10
976.779099
 20
-5.988
 10
977.9809
 20
-5.988
 10
977.985142
 20
-5.986242
 10
977.986898
 20
-5.982
 10
977.986898
 20
-5.814
 10
977.985142
 20
-5.809757
 10
977.9809
 20
-5.808
 10
976.779099
 20
-5.808
 10
976.774857
 20
-5.809757
 10
976.7731
 20
-5.814
 10
976.7731
 20
-5.982
  0
LWPOLYLINE
  5
FF
330
17
100
AcDbEntity
  8
VISTA
100
AcDbPolyline
 90
9
 70
1
 10
978.013102
 20
-5.982
 10
978.014858
 20
-5.986242
 10
978.0191
 20
-5.988
 10
978.1
 20
-5.988
 10
978.1
 20
-5.808
 10
978.0191
 20
-5.808
 10
978.014858
 20
-5.809757
 10
978.013102
 20
-5.814
 10
978.013102
 20
-5.982
  0
LWPOLYLINE
  5
100
330
17
100
AcDbEntity
  8
VISTA
100
AcDbPolyline
 90
9
 70
1
 10
975.948374553255
 20
-6.2
 10
977.251999
 20
-6.2
 10
977.251999
 20
-6.1615
 10
977.250828
 20
-6.158672
 10
977.247999
 20
-6.1575
 10
975.951999
 20
-6.1575
 10
975.94917
 20
-6.158672
 10
975.947998
 20
-6.1615
 10
975.948374553255
 20
-6.2
  0
LWPOLYLINE
  5
101
330
17
100
AcDbEntity
  8
VISTA
100
AcDbPolyline
 90
4
 70
1
 10
975.949689
 20
-6.159191
 10
975.949471
 20
-6.159706
 10
975.949471
 20
-6.158973
 10
975.949689
 20
-6.159191
  0
LWPOLYLINE
  5
102
330
17
100
AcDbEntity
  8
VISTA
100
AcDbPolyline
 90
4
 70
1
 10
977.250307
 20
-6.159191
 10
977.249794
 20
-6.158973
 10
977.250526
 20
-6.158973
 10
977.250307
 20
-6.159191
  0
LWPOLYLINE
  5
103
330
17
100
AcDbEntity
  8
VISTA
100
AcDbPolyline
 90
5
 70
1
 10
974.45
 20
-3.96
 10
974.45
 20
-5.84
 10
974.509999
 20
-5.84
 10
974.509999
 20
-3.96
 10
974.45
 20
-3.96
  0
LWPOLYLINE
  5
104
330
17
100
AcDbEntity
  8
VISTA
100
AcDbPolyline
 90
5
 70
1
 10
974.719999
 20
-5.63
 10
974.719999
 20
-5.69
 10
976.84
 20
-5.69
 10
976.84
 20
-5.63
 10
974.719999
 20
-5.63
  0
LWPOLYLINE
  5
105
330
17
100
AcDbEntity
  8
VISTA
100
AcDbPolyline
 90
5
 70
1
 10
974.87
 20
-5.92
 10
974.87
 20
-5.96
 10
975.089999
 20
-5.96
 10
975.089999
 20
-5.92
 10
974.87
 20
-5.92
  0
LWPOLYLINE
  5
106
330
17
100
AcDbEntity
  8
VISTA
100
AcDbPolyline
 90
5
 70
1
 10
975.42
 20
-5.92
 10
975.42
 20
-5.96
 10
975.639999
 20
-5.96
 10
975.639999
 20
-5.92
 10
975.42
 20
-5.92
  0
LWPOLYLINE
  5
107
330
17
100
AcDbEntity
  8
VISTA
100
AcDbPolyline
 90
5
 70
1
 10
975.97
 20
-5.92
 10
975.97
 20
-5.96
 10
976.190001
 20
-5.96
 10
976.190001
 20
-5.92
 10
975.97
 20
-5.92
  0
LWPOLYLINE
  5
108
330
17
100
AcDbEntity
  8
VISTA
100
AcDbPolyline
 90
5
 70
1
 10
976.519999
 20
-5.92
 10
976.519999
 20
-5.96
 10
976.74
 20
-5.96
 10
976.74
 20
-5.92
 10
976.519999
 20
-5.92
  0
LWPOLYLINE
  5
109
330
17
100
AcDbEntity
  8
VISTA
100
AcDbPolyline
 90
6
 70
1
 10
976.133499
 20
-4.01
 10
976.508974
 20
-4.008975
 10
976.508974
 20
-3.631025
 10
976.131025
 20
-3.631025
 10
976.130646
 20
-4.008526
 10
976.133499
 20
-4.01
  0
LWPOLYLINE
  5
10A
330
17
100
AcDbEntity
  8
VISTA
100
AcDbPolyline
 90
4
 70
1
 10
976.131746
 20
-4.008254
 10
976.131746
 20
-4.00897
 10
976.131029
 20
-4.008254
 10
976.131746
 20
-4.008254
  0
LWPOLYLINE
  5
10B
330
17
100
AcDbEntity
  8
VISTA
100
AcDbPolyline
 90
4
 70
1
 10
976.1310268797408
 20
-4.008636176721288
 10
976.131289
 20
-4.008712
 10
976.1310268797408
 20
-4.008636176721289
 10
976.1310268797408
 20
-4.008636176721288
  0
LWPOLYLINE
  5
10C
330
17
100
AcDbEntity
  8
VISTA
100
AcDbPolyline
 90
4
 70
1
 10
976.131746
 20
-3.63103
 10
976.131746
 20
-3.631746
 10
976.131029
 20
-3.631746
 10
976.131746
 20
-3.63103
  0
LWPOLYLINE
  5
10D
330
17
100
AcDbEntity
  8
VISTA
100
AcDbPolyline
 90
4
 70
1
 10
976.50897
 20
-4.008254
 10
976.508253
 20
-4.00897
 10
976.508253
 20
-4.008254
 10
976.50897
 20
-4.008254
  0
LWPOLYLINE
  5
10E
330
17
100
AcDbEntity
  8
VISTA
100
AcDbPolyline
 90
4
 70
1
 10
976.508253
 20
-3.63103
 10
976.50897
 20
-3.631746
 10
976.508253
 20
-3.631746
 10
976.508253
 20
-3.63103
  0
LWPOLYLINE
  5
10F
330
17
100
AcDbEntity
  8
VISTA
100
AcDbPolyline
 90
6
 70
1
 10
977.193499
 20
-4.01
 10
977.568974
 20
-4.008975
 10
977.568974
 20
-3.631025
 10
977.191025
 20
-3.631025
 10
977.190645
 20
-4.008526
 10
977.193499
 20
-4.01
  0
LWPOLYLINE
  5
110
330
17
100
AcDbEntity
  8
VISTA
100
AcDbPolyline
 90
4
 70
1
 10
977.191746
 20
-4.008254
 10
977.191746
 20
-4.00897
 10
977.191029
 20
-4.008254
 10
977.191746
 20
-4.008254
  0
LWPOLYLINE
  5
111
330
17
100
AcDbEntity
  8
VISTA
100
AcDbPolyline
 90
4
 70
1
 10
977.191746
 20
-3.63103
 10
977.191746
 20
-3.631746
 10
977.191029
 20
-3.631746
 10
977.191746
 20
-3.63103
  0
LWPOLYLINE
  5
112
330
17
100
AcDbEntity
  8
VISTA
100
AcDbPolyline
 90
4
 70
1
 10
977.56897
 20
-4.008254
 10
977.568253
 20
-4.00897
 10
977.568253
 20
-4.008254
 10
977.56897
 20
-4.008254
  0
LWPOLYLINE
  5
113
330
17
100
AcDbEntity
  8
VISTA
100
AcDbPolyline
 90
4
 70
1
 10
977.568253
 20
-3.63103
 10
977.56897
 20
-3.631746
 10
977.568253
 20
-3.631746
 10
977.568253
 20
-3.63103
  0
LWPOLYLINE
  5
114
330
17
100
AcDbEntity
  8
VISTA
100
AcDbPolyline
 90
13
 70
1
 10
974.2125
 20
-4.329
 10
974.214257
 20
-4.333242
 10
974.218499
 20
-4.335
 10
974.2415
 20
-4.335
 10
974.245742
 20
-4.333242
 10
974.247499
 20
-4.329
 10
974.247499
 20
-4.031
 10
974.245742
 20
-4.026757
 10
974.2415
 20
-4.025
 10
974.218499
 20
-4.025
 10
974.214257
 20
-4.026757
 10
974.2125
 20
-4.031
 10
974.2125
 20
-4.329
  0
LWPOLYLINE
  5
115
330
17
100
AcDbEntity
  8
VISTA
100
AcDbPolyline
 90
13
 70
1
 10
974.2125
 20
-4.699
 10
974.214257
 20
-4.703243
 10
974.218499
 20
-4.705
 10
974.2415
 20
-4.705
 10
974.245742
 20
-4.703243
 10
974.247499
 20
-4.699
 10
974.247499
 20
-4.401
 10
974.245742
 20
-4.396758
 10
974.2415
 20
-4.395
 10
974.218499
 20
-4.395
 10
974.214257
 20
-4.396758
 10
974.2125
 20
-4.401
 10
974.2125
 20
-4.699
  0
LWPOLYLINE
  5
116
330
17
100
AcDbEntity
  8
VISTA
100
AcDbPolyline
 90
13
 70
1
 10
974.2125
 20
-5.069
 10
974.214257
 20
-5.073243
 10
974.218499
 20
-5.075
 10
974.2415
 20
-5.075
 10
974.245742
 20
-5.073243
 10
974.247499
 20
-5.069
 10
974.247499
 20
-4.771
 10
974.245742
 20
-4.766757
 10
974.2415
 20
-4.765
 10
974.218499
 20
-4.765
 10
974.214257
 20
-4.766757
 10
974.2125
 20
-4.771
 10
974.2125
 20
-5.069
  0
LWPOLYLINE
  5
117
330
17
100
AcDbEntity
  8
VISTA
100
AcDbPolyline
 90
13
 70
1
 10
974.2125
 20
-5.439
 10
974.214257
 20
-5.443243
 10
974.218499
 20
-5.445
 10
974.2415
 20
-5.445
 10
974.245742
 20
-5.443243
 10
974.247499
 20
-5.439
 10
974.247499
 20
-5.141
 10
974.245742
 20
-5.136757
 10
974.2415
 20
-5.135
 10
974.218499
 20
-5.135
 10
974.214257
 20
-5.136757
 10
974.2125
 20
-5.141
 10
974.2125
 20
-5.439
  0
LWPOLYLINE
  5
118
330
17
100
AcDbEntity
  8
VISTA
100
AcDbPolyline
 90
13
 70
1
 10
974.2125
 20
-5.809
 10
974.214257
 20
-5.813242
 10
974.218499
 20
-5.815
 10
974.2415
 20
-5.815
 10
974.245742
 20
-5.813242
 10
974.247499
 20
-5.809
 10
974.247499
 20
-5.511
 10
974.245742
 20
-5.506757
 10
974.2415
 20
-5.505
 10
974.218499
 20
-5.505
 10
974.214257
 20
-5.506757
 10
974.2125
 20
-5.511
 10
974.2125
 20
-5.809
  0
LWPOLYLINE
  5
119
330
17
100
AcDbEntity
  8
VISTA
100
AcDbPolyline
 90
12
 70
1
 10
974.74
 20
-5.9115
 10
974.741756
 20
-5.915743
 10
974.745999
 20
-5.9175
 10
975.214
 20
-5.9175
 10
975.218243
 20
-5.915743
 10
975.219999
 20
-5.9115
 10
975.219999
 20
-5.8885
 10
975.218243
 20
-5.884257
 10
975.214
 20
-5.8825
 10
974.745999
 20
-5.8825
 10
974.741756
 20
-5.884257
 10
974.74
 20
-5.9115
  0
LWPOLYLINE
  5
11A
330
17
100
AcDbEntity
  8
VISTA
100
AcDbPolyline
 90
12
 70
1
 10
975.29
 20
-5.9115
 10
975.291757
 20
-5.915743
 10
975.296
 20
-5.9175
 10
975.764
 20
-5.9175
 10
975.768243
 20
-5.915743
 10
975.77
 20
-5.9115
 10
975.77
 20
-5.8885
 10
975.768243
 20
-5.884257
 10
975.764
 20
-5.8825
 10
975.296
 20
-5.8825
 10
975.291757
 20
-5.884257
 10
975.29
 20
-5.9115
  0
LWPOLYLINE
  5
11B
330
17
100
AcDbEntity
  8
VISTA
100
AcDbPolyline
 90
12
 70
1
 10
975.84
 20
-5.9115
 10
975.841757
 20
-5.915743
 10
975.846
 20
-5.9175
 10
976.313999
 20
-5.9175
 10
976.318243
 20
-5.915743
 10
976.32
 20
-5.9115
 10
976.32
 20
-5.8885
 10
976.318243
 20
-5.884257
 10
976.313999
 20
-5.8825
 10
975.846
 20
-5.8825
 10
975.841757
 20
-5.884257
 10
975.84
 20
-5.9115
  0
LWPOLYLINE
  5
11C
330
17
100
AcDbEntity
  8
VISTA
100
AcDbPolyline
 90
12
 70
1
 10
976.389999
 20
-5.9115
 10
976.391756
 20
-5.915743
 10
976.396
 20
-5.9175
 10
976.863998
 20
-5.9175
 10
976.868242
 20
-5.915743
 10
976.869999
 20
-5.9115
 10
976.869999
 20
-5.8885
 10
976.868242
 20
-5.884257
 10
976.863998
 20
-5.8825
 10
976.396
 20
-5.8825
 10
976.391756
 20
-5.884257
 10
976.389999
 20
-5.9115
  0
LWPOLYLINE
  5
11D
330
17
100
AcDbEntity
  8
VISTA
100
AcDbPolyline
 90
9
 70
1
 10
976.063499
 20
-4.93
 10
977.638527
 20
-4.929354
 10
977.640001
 20
-4.9265
 10
977.639355
 20
-4.171474
 10
977.636501
 20
-4.17
 10
976.061474
 20
-4.170646
 10
976.059999
 20
-4.1735
 10
976.060646
 20
-4.928526
 10
976.063499
 20
-4.93
  0
LWPOLYLINE
  5
11E
330
17
100
AcDbEntity
  8
VISTA
100
AcDbPolyline
 90
4
 70
1
 10
976.061747
 20
-4.928254
 10
976.061747
 20
-4.92897
 10
976.061031
 20
-4.928254
 10
976.061747
 20
-4.928254
  0
LWPOLYLINE
  5
11F
330
17
100
AcDbEntity
  8
VISTA
100
AcDbPolyline
 90
4
 70
1
 10
976.061747
 20
-4.171031
 10
976.061747
 20
-4.171747
 10
976.061031
 20
-4.171747
 10
976.061747
 20
-4.171031
  0
LWPOLYLINE
  5
120
330
17
100
AcDbEntity
  8
VISTA
100
AcDbPolyline
 90
4
 70
1
 10
977.638969
 20
-4.928254
 10
977.638254
 20
-4.92897
 10
977.638254
 20
-4.928254
 10
977.638969
 20
-4.928254
  0
LWPOLYLINE
  5
121
330
17
100
AcDbEntity
  8
VISTA
100
AcDbPolyline
 90
4
 70
1
 10
977.638254
 20
-4.171031
 10
977.638969
 20
-4.171747
 10
977.638254
 20
-4.171747
 10
977.638254
 20
-4.171031
  0
LWPOLYLINE
  5
122
330
17
100
AcDbEntity
  8
VISTA
100
AcDbPolyline
 90
9
 70
1
 10
974.243501
 20
-5.9
 10
975.1965
 20
-5.9
 10
975.199354
 20
-5.898526
 10
975.2
 20
-3.9035
 10
975.198526
 20
-3.900646
 10
974.243501
 20
-3.9
 10
974.240646
 20
-3.901474
 10
974.240646
 20
-5.898526
 10
974.243501
 20
-5.9
  0
LWPOLYLINE
  5
123
330
17
100
AcDbEntity
  8
VISTA
100
AcDbPolyline
 90
4
 70
1
 10
974.241747
 20
-5.898253
 10
974.241747
 20
-5.89897
 10
974.241031
 20
-5.898253
 10
974.241747
 20
-5.898253
  0
LWPOLYLINE
  5
124
330
17
100
AcDbEntity
  8
VISTA
100
AcDbPolyline
 90
4
 70
1
 10
974.241747
 20
-3.90103
 10
974.241747
 20
-3.901747
 10
974.241031
 20
-3.901747
 10
974.241747
 20
-3.90103
  0
LWPOLYLINE
  5
125
330
17
100
AcDbEntity
  8
VISTA
100
AcDbPolyline
 90
4
 70
1
 10
975.19897
 20
-5.898253
 10
975.198254
 20
-5.89897
 10
975.198254
 20
-5.898253
 10
975.19897
 20
-5.898253
  0
LWPOLYLINE
  5
126
330
17
100
AcDbEntity
  8
VISTA
100
AcDbPolyline
 90
4
 70
1
 10
975.198254
 20
-3.90103
 10
975.19897
 20
-3.901747
 10
975.198254
 20
-3.901747
 10
975.198254
 20
-3.90103
  0
LWPOLYLINE
  5
127
330
17
100
AcDbEntity
  8
VISTA
100
AcDbPolyline
 90
9
 70
1
 10
974.643499
 20
-5.9
 10
976.918526
 20
-5.899354
 10
976.92
 20
-5.8965
 10
976.919353
 20
-5.021474
 10
976.9165
 20
-5.02
 10
974.641474
 20
-5.020646
 10
974.639999
 20
-5.0235
 10
974.640646
 20
-5.898526
 10
974.643499
 20
-5.9
  0
LWPOLYLINE
  5
128
330
17
100
AcDbEntity
  8
VISTA
100
AcDbPolyline
 90
4
 70
1
 10
974.641747
 20
-5.898253
 10
974.641747
 20
-5.89897
 10
974.64103
 20
-5.898253
 10
974.641747
 20
-5.898253
  0
LWPOLYLINE
  5
129
330
17
100
AcDbEntity
  8
VISTA
100
AcDbPolyline
 90
4
 70
1
 10
974.641747
 20
-5.02103
 10
974.641747
 20
-5.021747
 10
974.64103
 20
-5.021747
 10
974.641747
 20
-5.02103
  0
LWPOLYLINE
  5
12A
330
17
100
AcDbEntity
  8
VISTA
100
AcDbPolyline
 90
4
 70
1
 10
976.91897
 20
-5.898253
 10
976.918253
 20
-5.89897
 10
976.918253
 20
-5.898253
 10
976.91897
 20
-5.898253
  0
LWPOLYLINE
  5
12B
330
17
100
AcDbEntity
  8
VISTA
100
AcDbPolyline
 90
4
 70
1
 10
976.918253
 20
-5.02103
 10
976.91897
 20
-5.021747
 10
976.918253
 20
-5.021747
 10
976.918253
 20
-5.02103
  0
LWPOLYLINE
  5
12C
330
17
100
AcDbEntity
  8
VISTA
100
AcDbPolyline
 90
13
 70
1
 10
976.0
 20
-4.241
 10
976.002636
 20
-4.247364
 10
976.009001
 20
-4.25
 10
977.691
 20
-4.25
 10
977.697365
 20
-4.247364
 10
977.700001
 20
-4.241
 10
977.700001
 20
-4.039
 10
977.697365
 20
-4.032636
 10
977.691
 20
-4.03
 10
976.009001
 20
-4.03
 10
976.002636
 20
-4.032636
 10
976.0
 20
-4.039
 10
976.0
 20
-4.241
  0
LWPOLYLINE
  5
12D
330
17
100
AcDbEntity
  8
VISTA
100
AcDbPolyline
 90
9
 70
1
 10
975.990001
 20
-5.0055
 10
975.991896
 20
-5.00917
 10
977.7055
 20
-5.01
 10
977.709169
 20
-5.008105
 10
977.710001
 20
-4.0945
 10
977.708105
 20
-4.090831
 10
975.9945
 20
-4.09
 10
975.990001
 20
-4.0945
 10
975.990001
 20
-5.0055
  0
LWPOLYLINE
  5
12E
330
17
100
AcDbEntity
  8
VISTA
100
AcDbPolyline
 90
10
 70
1
 10
975.96
 20
-5.033
 10
975.962948
 20
-5.038708
 10
977.733
 20
-5.04
 10
977.738708
 20
-5.037053
 10
977.74
 20
-4.067
 10
977.737053
 20
-4.061293
 10
975.967
 20
-4.06
 10
975.96205
 20
-4.06205
 10
975.96
 20
-4.067
 10
975.96
 20
-5.033
  0
LWPOLYLINE
  5
12F
330
17
100
AcDbEntity
  8
VISTA
100
AcDbPolyline
 90
9
 70
1
 10
974.07083
 20
-5.938105
 10
974.0745
 20
-5.94
 10
975.168105
 20
-5.939169
 10
975.17
 20
-5.9355
 10
975.169169
 20
-3.861895
 10
975.1655
 20
-3.86
 10
974.0745
 20
-3.86
 10
974.07
 20
-3.8645
 10
974.07083
 20
-5.938105
  0
LWPOLYLINE
  5
130
330
17
100
AcDbEntity
  8
VISTA
100
AcDbPolyline
 90
5
 70
1
 10
975.1
 20
-4.025
 10
975.1
 20
-4.575
 10
974.66
 20
-4.575
 10
974.66
 20
-4.025
 10
975.1
 20
-4.025
  0
LWPOLYLINE
  5
131
330
17
100
AcDbEntity
  8
VISTA
100
AcDbPolyline
 90
9
 70
1
 10
974.599999
 20
-5.8555
 10
974.601894
 20
-5.859169
 10
976.9555
 20
-5.86
 10
976.959169
 20
-5.858105
 10
976.959999
 20
-4.8645
 10
976.958105
 20
-4.860831
 10
974.6045
 20
-4.86
 10
974.599999
 20
-4.8645
 10
974.599999
 20
-5.8555
  0
LWPOLYLINE
  5
132
330
17
100
AcDbEntity
  8
VISTA
100
AcDbPolyline
 90
5
 70
1
 10
976.170715
 20
-5.549686
 10
976.789686
 20
-5.549284
 10
976.789284
 20
-5.130314
 10
976.170715
 20
-5.130314
 10
976.170715
 20
-5.549686
  0
LWPOLYLINE
  5
133
330
17
100
AcDbEntity
  8
VISTA
100
AcDbPolyline
 90
45
 70
1
 10
974.64544
 20
-4.123118
 10
974.639627
 20
-4.157351
 10
974.636155
 20
-4.202106
 10
974.636155
 20
-4.397894
 10
974.639627
 20
-4.442649
 10
974.64544
 20
-4.476882
 10
974.653636
 20
-4.504906
 10
974.664289
 20
-4.528332
 10
974.67752
 20
-4.547935
 10
974.693529
 20
-4.564136
 10
974.71266
 20
-4.577181
 10
974.735546
 20
-4.587217
 10
974.763503
 20
-4.594334
 10
974.800054
 20
-4.598586
 10
974.959947
 20
-4.598586
 10
974.996497
 20
-4.594334
 10
975.024453
 20
-4.587217
 10
975.04734
 20
-4.577181
 10
975.066471
 20
-4.564136
 10
975.08248
 20
-4.547935
 10
975.095711
 20
-4.528332
 10
975.106364
 20
-4.504906
 10
975.11456
 20
-4.476882
 10
975.120373
 20
-4.442649
 10
975.123845
 20
-4.397894
 10
975.123845
 20
-4.202106
 10
975.120373
 20
-4.157351
 10
975.11456
 20
-4.123118
 10
975.106364
 20
-4.095094
 10
975.095711
 20
-4.071668
 10
975.08248
 20
-4.052065
 10
975.066471
 20
-4.035864
 10
975.04734
 20
-4.022819
 10
975.024453
 20
-4.012784
 10
974.996497
 20
-4.005666
 10
974.959947
 20
-4.001414
 10
974.800054
 20
-4.001414
 10
974.763503
 20
-4.005666
 10
974.735546
 20
-4.012784
 10
974.71266
 20
-4.022819
 10
974.693529
 20
-4.035864
 10
974.67752
 20
-4.052065
 10
974.664289
 20
-4.071668
 10
974.653636
 20
-4.095094
 10
974.64544
 20
-4.123118
  0
LWPOLYLINE
  5
134
330
17
100
AcDbEntity
  8
VISTA
100
AcDbPolyline
 90
4
 70
1
 10
974.7505733758115
 20
-4.436999556782314
 10
974.7505733758115
 20
-4.436999556782313
 10
974.7505733758115
 20
-4.436999556782312
 10
974.7505733758115
 20
-4.436999556782314
  0
LINE
  5
135
330
17
100
AcDbEntity
  8
CORTE
100
AcDbLine
 10
974.0
 20
-3.6009027081243725
 30
0.0
 11
974.0
 21
-3.5
 31
0.0
  0
LINE
  5
136
330
17
100
AcDbEntity
  8
CORTE
100
AcDbLine
 10
974.0
 20
-3.6009027081243734
 30
0.0
 11
974.0
 21
-5.9955
 31
0.0
  0
LINE
  5
137
330
17
100
AcDbEntity
  8
CORTE
100
AcDbLine
 10
974.0004994503511
 20
-5.997063783851554
 30
0.0
 11
974.0
 21
-5.9955
 31
0.0
  0
LINE
  5
138
330
17
100
AcDbEntity
  8
CORTE
100
AcDbLine
 10
974.0004994503511
 20
-5.997063783851554
 30
0.0
 11
974.000832
 21
-5.998105
 31
0.0
  0
LINE
  5
139
330
17
100
AcDbEntity
  8
CORTE
100
AcDbLine
 10
974.0011237462387
 20
-5.9984513736208624
 30
0.0
 11
974.000832
 21
-5.998105
 31
0.0
  0
LINE
  5
13A
330
17
100
AcDbEntity
  8
CORTE
100
AcDbLine
 10
974.0011237462387
 20
-5.9984513736208624
 30
0.0
 11
974.001318
 21
-5.998682
 31
0.0
  0
LINE
  5
13B
330
17
100
AcDbEntity
  8
CORTE
100
AcDbLine
 10
974.200001
 20
-3.5
 30
0.0
 11
974.200001
 21
-3.6009027081243725
 31
0.0
  0
LINE
  5
13C
330
17
100
AcDbEntity
  8
CORTE
100
AcDbLine
 10
974.200001
 20
-3.6009027081243725
 30
0.0
 11
974.200001
 21
-3.6009027081243734
 31
0.0
  0
LINE
  5
13D
330
17
100
AcDbEntity
  8
CORTE
100
AcDbLine
 10
974.200001
 20
-5.9955
 30
0.0
 11
974.200001
 21
-3.6009027081243734
 31
0.0
  0
LINE
  5
13E
330
17
100
AcDbEntity
  8
CORTE
100
AcDbLine
 10
974.200001
 20
-5.9955
 30
0.0
 11
974.199501549649
 21
-5.997063783851554
 31
0.0
  0
LINE
  5
13F
330
17
100
AcDbEntity
  8
CORTE
100
AcDbLine
 10
974.199169
 20
-5.998105
 30
0.0
 11
974.199501549649
 21
-5.997063783851554
 31
0.0
  0
LINE
  5
140
330
17
100
AcDbEntity
  8
CORTE
100
AcDbLine
 10
974.199169
 20
-5.998105
 30
0.0
 11
974.1988772537613
 21
-5.9984513736208624
 31
0.0
  0
LINE
  5
141
330
17
100
AcDbEntity
  8
CORTE
100
AcDbLine
 10
974.198683
 20
-5.998682
 30
0.0
 11
974.1988772537613
 21
-5.9984513736208624
 31
0.0
  0
LINE
  5
142
330
17
100
AcDbEntity
  8
CORTE
100
AcDbLine
 10
974.0016643736209
 20
-5.998974346539619
 30
0.0
 11
974.001318
 21
-5.998682
 31
0.0
  0
LINE
  5
143
330
17
100
AcDbEntity
  8
CORTE
100
AcDbLine
 10
974.001895
 20
-5.999169
 30
0.0
 11
974.0016643736209
 21
-5.998974346539619
 31
0.0
  0
LINE
  5
144
330
17
100
AcDbEntity
  8
CORTE
100
AcDbLine
 10
974.0034587838516
 20
-5.999667850050151
 30
0.0
 11
974.001895
 21
-5.999169
 31
0.0
  0
LINE
  5
145
330
17
100
AcDbEntity
  8
CORTE
100
AcDbLine
 10
974.0045
 20
-6.0
 30
0.0
 11
974.0034587838516
 21
-5.999667850050151
 31
0.0
  0
LINE
  5
146
330
17
100
AcDbEntity
  8
CORTE
100
AcDbLine
 10
974.1191574724172
 20
-6.0
 30
0.0
 11
974.0045
 21
-6.0
 31
0.0
  0
LINE
  5
147
330
17
100
AcDbEntity
  8
CORTE
100
AcDbLine
 10
974.1955
 20
-6.0
 30
0.0
 11
974.1191574724172
 21
-6.0
 31
0.0
  0
LINE
  5
148
330
17
100
AcDbEntity
  8
CORTE
100
AcDbLine
 10
974.1970643841524
 20
-5.999501149949849
 30
0.0
 11
974.1955
 21
-6.0
 31
0.0
  0
LINE
  5
149
330
17
100
AcDbEntity
  8
CORTE
100
AcDbLine
 10
974.198106
 20
-5.999169
 30
0.0
 11
974.1970643841524
 21
-5.999501149949849
 31
0.0
  0
LINE
  5
14A
330
17
100
AcDbEntity
  8
CORTE
100
AcDbLine
 10
974.1984523736209
 20
-5.998876653460381
 30
0.0
 11
974.198106
 21
-5.999169
 31
0.0
  0
LINE
  5
14B
330
17
100
AcDbEntity
  8
CORTE
100
AcDbLine
 10
974.198683
 20
-5.998682
 30
0.0
 11
974.1984523736209
 21
-5.998876653460381
 31
0.0
  0
LWPOLYLINE
  5
14C
330
17
100
AcDbEntity
  8
VISTA
100
AcDbPolyline
 90
22
 70
1
 10
975.9899125340314
 20
-6.158977144851658
 10
975.989738
 20
-6.159184
 10
975.9892969703316
 20
-6.160564303664922
 10
975.988998
 20
-6.1615
 10
975.988998
 20
-6.2
 10
976.070999
 20
-6.2
 10
976.070999
 20
-6.1615
 10
976.0707008376963
 20
-6.160564303664922
 10
976.070261
 20
-6.159184
 10
976.0700860619546
 20
-6.158977144851658
 10
976.069828
 20
-6.158672
 10
976.0696207408376
 20
-6.158497061954625
 10
976.069315
 20
-6.158239
 10
976.0683793036649
 20
-6.1579404336823735
 10
976.066999
 20
-6.1575
 10
976.0371019668412
 20
-6.1575
 10
975.992999
 20
-6.1575
 10
975.9920637076789
 20
-6.157798566317626
 10
975.990684
 20
-6.158239
 10
975.9904763368237
 20
-6.158413938045375
 10
975.99017
 20
-6.158672
 10
975.9899125340314
 20
-6.158977144851658
  0
LWPOLYLINE
  5
14D
330
17
100
AcDbEntity
  8
VISTA
100
AcDbPolyline
 90
22
 70
1
 10
977.1299129380453
 20
-6.158977144851658
 10
977.129738
 20
-6.159184
 10
977.1292981623037
 20
-6.160564303664922
 10
977.129
 20
-6.1615
 10
977.129
 20
-6.2
 10
977.211
 20
-6.2
 10
977.211
 20
-6.1615
 10
977.2107018376963
 20
-6.160564303664922
 10
977.2102620000001
 20
-6.159184
 10
977.2100870619546
 20
-6.158977144851658
 10
977.209829
 20
-6.158672
 10
977.2096217408377
 20
-6.158497061954625
 10
977.209316
 20
-6.158239
 10
977.2083807076789
 20
-6.1579404336823735
 10
977.207001
 20
-6.1575
 10
977.1771031588132
 20
-6.1575
 10
977.132999
 20
-6.1575
 10
977.1320637076789
 20
-6.157798566317626
 10
977.130684
 20
-6.158239
 10
977.1304767408377
 20
-6.158413938045375
 10
977.130171
 20
-6.158672
 10
977.1299129380453
 20
-6.158977144851658
  0
LWPOLYLINE
  5
14E
330
17
100
AcDbEntity
  8
VISTA
100
AcDbPolyline
 90
41
 70
1
 10
974.2204076753164
 20
-4.990605015114268
 10
974.220314
 20
-4.990716
 10
974.2201598589638
 20
-4.991199040699263
 10
974.22
 20
-4.9917
 10
974.22
 20
-5.343475371027952
 10
974.22
 20
-5.7083
 10
974.2201541410361
 20
-5.708783040699263
 10
974.220314
 20
-5.709284
 10
974.2204043246836
 20
-5.709391015114267
 10
974.220498
 20
-5.709502
 10
974.2206050151143
 20
-5.709592324683602
 10
974.220716
 20
-5.709686
 10
974.2211990406993
 20
-5.709840141036146
 10
974.2217
 20
-5.71
 10
974.5734753710279
 20
-5.71
 10
974.9383
 20
-5.71
 10
974.9387830406993
 20
-5.709845858963853
 10
974.939284
 20
-5.709686
 10
974.9393910151143
 20
-5.709595675316398
 10
974.939502
 20
-5.709502
 10
974.9395956753164
 20
-5.709391015114267
 10
974.939686
 20
-5.709284
 10
974.9398458589638
 20
-5.708783040699263
 10
974.94
 20
-5.7083
 10
974.94
 20
-5.343475371027952
 10
974.94
 20
-4.9917
 10
974.9398401410361
 20
-4.991199040699263
 10
974.939686
 20
-4.990716
 10
974.9395923246836
 20
-4.990605015114268
 10
974.939502
 20
-4.990498
 10
974.9393910151143
 20
-4.990404324683602
 10
974.939284
 20
-4.990314
 10
974.9387830406993
 20
-4.990154141036147
 10
974.9383
 20
-4.99
 10
974.5734753710279
 20
-4.99
 10
974.2217
 20
-4.99
 10
974.2211990406993
 20
-4.990159858963853
 10
974.220716
 20
-4.990314
 10
974.2206050151143
 20
-4.990407675316398
 10
974.220498
 20
-4.990498
 10
974.2204076753164
 20
-4.990605015114268
  0
LWPOLYLINE
  5
14F
330
17
100
AcDbEntity
  8
CORTE
100
AcDbPolyline
 90
41
 70
1
 10
974.0010256534604
 20
-5.9016643736208625
 10
974.000831
 20
-5.901895
 10
974.0003321499498
 20
-5.903458783851554
 10
974.0
 20
-5.9045
 10
974.0
 20
-6.019157472417252
 10
974.0
 20
-6.0955
 10
974.0004988500501
 20
-6.097063783851555
 10
974.000831
 20
-6.098105
 10
974.0011233465397
 20
-6.098451373620863
 10
974.001318
 20
-6.098682
 10
974.0016643736209
 20
-6.0989743465396185
 10
974.001895
 20
-6.099169
 10
974.0034587838516
 20
-6.09966785005015
 10
974.0045
 20
-6.1
 10
975.6499253746239
 20
-6.1
 10
976.745501
 20
-6.1
 10
976.7470647838516
 20
-6.099501149949849
 10
976.748106
 20
-6.099169
 10
976.74845177332
 20
-6.0988766534603815
 10
976.748682
 20
-6.098682
 10
976.7488762537613
 20
-6.098451373620863
 10
976.749168
 20
-6.098105
 10
976.7495005496489
 20
-6.097063783851555
 10
976.75
 20
-6.0955
 10
976.75
 20
-6.019157472417252
 10
976.75
 20
-5.9045
 10
976.749667450351
 20
-5.903458783851554
 10
976.749168
 20
-5.901895
 10
976.7489737462387
 20
-5.9016643736208625
 10
976.748682
 20
-5.901318
 10
976.74845177332
 20
-5.9011233465396185
 10
976.748106
 20
-5.900831
 10
976.7470647838516
 20
-5.900498850050151
 10
976.745501
 20
-5.9
 10
975.6499253746239
 20
-5.9
 10
974.0045
 20
-5.9
 10
974.0034587838516
 20
-5.90033214994985
 10
974.001895
 20
-5.900831
 10
974.0016643736209
 20
-5.9010256534603815
 10
974.001318
 20
-5.901318
 10
974.0010256534604
 20
-5.9016643736208625
  0
LWPOLYLINE
  5
150
330
17
100
AcDbEntity
  8
CORTE
100
AcDbPolyline
 90
24
 70
1
 10
974.0010256534604
 20
-6.001664373620863
 10
974.000831
 20
-6.001895
 10
974.0003321499498
 20
-6.0034587838515545
 10
974.0
 20
-6.0045
 10
974.0
 20
-6.179187562688064
 10
974.0
 20
-6.2
 10
974.299999
 20
-6.2
 10
974.299999
 20
-6.179187562688064
 10
974.299999
 20
-6.0045
 10
974.2996672497493
 20
-6.0034587838515545
 10
974.299169
 20
-6.001895
 10
974.2989739468405
 20
-6.001664373620863
 10
974.298681
 20
-6.001318
 10
974.2984507733199
 20
-6.001123346539619
 10
974.298105
 20
-6.000831
 10
974.2970637838515
 20
-6.000498850050151
 10
974.2955
 20
-6.0
 10
974.1791871629889
 20
-6.0
 10
974.004499
 20
-6.0
 10
974.0034577838516
 20
-6.000332149949849
 10
974.001894
 20
-6.000831
 10
974.0016637733199
 20
-6.001025653460381
 10
974.001318
 20
-6.001318
 10
974.0010256534604
 20
-6.001664373620863
  0
DIMENSION
  5
151
330
17
100
AcDbEntity
  8
COTAS
100
AcDbDimension
280
0
  2
*D4
  3
Standard
 10
975.99
 20
-3.72
 30
0.0
 11
976.85
 21
-3.72
 31
0.0
 70
32
 71
5
  1
<>
100
AcDbAlignedDimension
 13
975.99
 23
-4.09
 33
0.0
 14
977.71
 24
-4.09
 34
0.0
 50
0.0
100
AcDbRotatedDimension
1001
ACAD
1000
DSTYLE
1002
{
1070
140
1040
0.13
1070
41
1040
0.09
1002
}
  0
DIMENSION
  5
161
330
17
100
AcDbEntity
  8
COTAS
100
AcDbDimension
280
0
  2
*D5
  3
Standard
 10
978.2
 20
-4.09
 30
0.0
 11
978.2
 21
-4.55
 31
0.0
 70
32
 71
5
  1
<>
100
AcDbAlignedDimension
 13
977.71
 23
-4.09
 33
0.0
 14
977.71
 24
-5.01
 34
0.0
 50
90.0
100
AcDbRotatedDimension
1001
ACAD
1000
DSTYLE
1002
{
1070
140
1040
0.13
1070
41
1040
0.09
1002
}
  0
TEXT
  5
171
330
17
100
AcDbEntity
  8
TEXTOS
100
AcDbText
 10
976.85
 20
-5.75
 30
0.0
 40
0.0675
  1
Mesada +1,175
100
AcDbText
  0
LWPOLYLINE
  5
172
330
17
100
AcDbEntity
  8
VISTA
100
AcDbPolyline
 90
15
 70
1
 10
1022.0
 20
-12.0045
 10
1021.995501
 20
-12.0
 10
1018.4
 20
-12.0
 10
1018.4
 20
-12.2
 10
1021.712808509081
 20
-12.2
 10
1021.716087
 20
-12.193564
 10
1021.733566
 20
-12.176087
 10
1021.755589
 20
-12.164866
 10
1021.780001
 20
-12.160999
 10
1021.804413
 20
-12.164866
 10
1021.826435
 20
-12.176087
 10
1021.843914
 20
-12.193564
 10
1021.847192490919
 20
-12.2
 10
1022.0
 20
-12.2
 10
1022.0
 20
-12.0045
  0
LWPOLYLINE
  5
173
330
17
100
AcDbEntity
  8
VISTA
100
AcDbPolyline
 90
9
 70
1
 10
1019.521999
 20
-11.9565
 10
1021.193001
 20
-11.9565
 10
1021.195
 20
-11.9545
 10
1021.195
 20
-11.9135
 10
1021.193001
 20
-11.9115
 10
1019.521999
 20
-11.9115
 10
1019.52
 20
-11.9135
 10
1019.52
 20
-11.9545
 10
1019.521999
 20
-11.9565
  0
LWPOLYLINE
  5
174
330
17
100
AcDbEntity
  8
VISTA
100
AcDbPolyline
 90
5
 70
1
 10
1022.0
 20
-12.1135
 10
1021.9995
 20
-12.102
 10
1018.4
 20
-12.102065699087385
 10
1018.4
 20
-12.113724564035252
 10
1022.0
 20
-12.1135
  0
LWPOLYLINE
  5
175
330
17
100
AcDbEntity
  8
VISTA
100
AcDbPolyline
 90
5
 70
1
 10
1018.4
 20
-11.86
 10
1018.4
 20
-12.099999
 10
1021.4
 20
-12.099999
 10
1021.4
 20
-11.86
 10
1018.4
 20
-11.86
  0
LWPOLYLINE
  5
176
330
17
100
AcDbEntity
  8
VISTA
100
AcDbPolyline
 90
14
 70
1
 10
1021.999001
 20
-12.115
 10
1018.4
 20
-12.115132284171114
 10
1018.4
 20
-12.2
 10
1021.7128093401743
 20
-12.2
 10
1021.716089
 20
-12.193564
 10
1021.733566
 20
-12.176087
 10
1021.755589
 20
-12.164866
 10
1021.780001
 20
-12.160999
 10
1021.804413
 20
-12.164866
 10
1021.826435
 20
-12.176087
 10
1021.843912
 20
-12.193564
 10
1021.8471916598256
 20
-12.2
 10
1021.9990957467071
 20
-12.2
 10
1021.999001
 20
-12.115
  0
LWPOLYLINE
  5
177
330
17
100
AcDbEntity
  8
VISTA
100
AcDbPolyline
 90
4
 70
1
 10
1021.8860110000006
 20
-12.115645999999348
 10
1021.8860109999995
 20
-12.115646000000499
 10
1021.8860110000002
 20
-12.115645999999847
 10
1021.8860110000006
 20
-12.115645999999348
  0
LWPOLYLINE
  5
178
330
17
100
AcDbEntity
  8
VISTA
100
AcDbPolyline
 90
7
 70
1
 10
1021.994999
 20
-12.009999
 10
1022.0
 20
-12.004999
 10
1022.0
 20
-11.795
 10
1021.994999
 20
-11.79
 10
1018.4
 20
-11.79
 10
1018.4
 20
-12.009999
 10
1021.994999
 20
-12.009999
  0
LWPOLYLINE
  5
179
330
17
100
AcDbEntity
  8
VISTA
100
AcDbPolyline
 90
9
 70
1
 10
1021.273001
 20
-12.0445
 10
1021.275829
 20
-12.043329
 10
1021.277
 20
-12.040501
 10
1021.277
 20
-11.9235
 10
1021.275829
 20
-11.920671
 10
1021.273001
 20
-11.9195
 10
1018.4
 20
-11.9195
 10
1018.4
 20
-12.0445
 10
1021.273001
 20
-12.0445
  0
LWPOLYLINE
  5
17A
330
17
100
AcDbEntity
  8
VISTA
100
AcDbPolyline
 90
4
 70
1
 10
1021.275311
 20
-11.921191
 10
1021.274796
 20
-11.920973
 10
1021.275528
 20
-11.920973
 10
1021.275311
 20
-11.921191
  0
LWPOLYLINE
  5
17B
330
17
100
AcDbEntity
  8
VISTA
100
AcDbPolyline
 90
4
 70
1
 10
1021.275528
 20
-12.043028
 10
1021.274796
 20
-12.043028
 10
1021.275311
 20
-12.042809
 10
1021.275528
 20
-12.043028
  0
LWPOLYLINE
  5
17C
330
17
100
AcDbEntity
  8
VISTA
100
AcDbPolyline
 90
5
 70
1
 10
1018.4
 20
-11.9645
 10
1018.4
 20
-11.9995
 10
1021.195
 20
-11.9995
 10
1021.195
 20
-11.9645
 10
1018.4
 20
-11.9645
  0
LWPOLYLINE
  5
17D
330
17
100
AcDbEntity
  8
VISTA
100
AcDbPolyline
 90
5
 70
1
 10
1019.379482
 20
-11.558821
 10
1019.37882
 20
-9.420517
 10
1018.4
 20
-9.420780587865288
 10
1018.4
 20
-11.559084766136234
 10
1019.379482
 20
-11.558821
  0
LWPOLYLINE
  5
17E
330
17
100
AcDbEntity
  8
VISTA
100
AcDbPolyline
 90
19
 70
1
 10
1021.834448
 20
-12.185553
 10
1021.818501
 20
-12.173316
 10
1021.799931
 20
-12.165624
 10
1021.780001
 20
-12.163
 10
1021.760071
 20
-12.165624
 10
1021.741501
 20
-12.173316
 10
1021.725554
 20
-12.185553
 10
1021.7144671256035
 20
-12.2
 10
1021.7207172060085
 20
-12.2
 10
1021.72909
 20
-12.189088
 10
1021.744001
 20
-12.177646
 10
1021.761366
 20
-12.170453
 10
1021.780001
 20
-12.168
 10
1021.798635
 20
-12.170453
 10
1021.816
 20
-12.177646
 10
1021.830912
 20
-12.189088
 10
1021.8392847939914
 20
-12.2
 10
1021.845533968458
 20
-12.2
 10
1021.834448
 20
-12.185553
  0
LWPOLYLINE
  5
17F
330
17
100
AcDbEntity
  8
VISTA
100
AcDbPolyline
 90
5
 70
1
 10
1018.4
 20
-12.089999
 10
1018.4
 20
-12.12
 10
1021.4
 20
-12.12
 10
1021.4
 20
-12.089999
 10
1018.4
 20
-12.089999
  0
LWPOLYLINE
  5
180
330
17
100
AcDbEntity
  8
VISTA
100
AcDbPolyline
 90
5
 70
1
 10
1021.005001
 20
-11.34
 10
1021.735001
 20
-11.34
 10
1021.735001
 20
-9.1
 10
1021.005001
 20
-9.1
 10
1021.005001
 20
-11.34
  0
LWPOLYLINE
  5
181
330
17
100
AcDbEntity
  8
VISTA
100
AcDbPolyline
 90
5
 70
1
 10
1019.73
 20
-9.8
 10
1019.73
 20
-10.36
 10
1020.950001
 20
-10.36
 10
1020.950001
 20
-9.8
 10
1019.73
 20
-9.8
  0
LWPOLYLINE
  5
182
330
17
100
AcDbEntity
  8
VISTA
100
AcDbPolyline
 90
5
 70
1
 10
1018.4
 20
-12.075
 10
1018.4
 20
-12.145
 10
1021.725
 20
-12.145
 10
1021.725
 20
-12.075
 10
1018.4
 20
-12.075
  0
LWPOLYLINE
  5
183
330
17
100
AcDbEntity
  8
VISTA
100
AcDbPolyline
 90
7
 70
1
 10
1020.980001
 20
-10.7833
 10
1020.981701
 20
-10.785001
 10
1021.418301
 20
-10.785001
 10
1021.42
 20
-10.7833
 10
1021.42
 20
-9.1
 10
1020.9806197122494
 20
-9.1
 10
1020.980001
 20
-10.7833
  0
LWPOLYLINE
  5
184
330
17
100
AcDbEntity
  8
VISTA
100
AcDbPolyline
 90
5
 70
1
 10
1021.791
 20
-12.184
 10
1021.790001
 20
-11.995
 10
1021.769001
 20
-11.996
 10
1021.769293
 20
-12.184708
 10
1021.791
 20
-12.184
  0
LWPOLYLINE
  5
185
330
17
100
AcDbEntity
  8
VISTA
100
AcDbPolyline
 90
5
 70
1
 10
1021.7225
 20
-12.179999
 10
1021.7145
 20
-12.181
 10
1021.7145467373174
 20
-12.2
 10
1021.7226679061437
 20
-12.2
 10
1021.7225
 20
-12.179999
  0
LWPOLYLINE
  5
186
330
17
100
AcDbEntity
  8
VISTA
100
AcDbPolyline
 90
5
 70
1
 10
1021.8445
 20
-12.179999
 10
1021.8365
 20
-12.181
 10
1021.8365467373173
 20
-12.2
 10
1021.8446679061436
 20
-12.2
 10
1021.8445
 20
-12.179999
  0
LWPOLYLINE
  5
187
330
17
100
AcDbEntity
  8
VISTA
100
AcDbPolyline
 90
24
 70
1
 10
1019.372358
 20
-9.4735
 10
1019.388584
 20
-9.48314
 10
1019.410486
 20
-9.489796
 10
1019.44286
 20
-9.493708
 10
1019.677139
 20
-9.493708
 10
1019.709513
 20
-9.489796
 10
1019.731415
 20
-9.48314
 10
1019.747641
 20
-9.4735
 10
1019.759872
 20
-9.460434
 10
1019.768898
 20
-9.443103
 10
1019.775127
 20
-9.419707
 10
1019.77879
 20
-9.385126
 10
1019.779999
 20
-9.259998
 10
1019.77879
 20
-9.134872
 10
1019.775127
 20
-9.100291
 10
1019.7750495202393
 20
-9.1
 10
1019.3449494797607
 20
-9.1
 10
1019.344872
 20
-9.100291
 10
1019.341209
 20
-9.134872
 10
1019.341209
 20
-9.385126
 10
1019.344872
 20
-9.419707
 10
1019.351101
 20
-9.443103
 10
1019.360126
 20
-9.460434
 10
1019.372358
 20
-9.4735
  0
LWPOLYLINE
  5
188
330
17
100
AcDbEntity
  8
VISTA
100
AcDbPolyline
 90
36
 70
1
 10
1018.439566
 20
-10.039873
 10
1018.456896
 20
-10.048898
 10
1018.480291
 20
-10.055128
 10
1018.514874
 20
-10.058791
 10
1018.765125
 20
-10.058791
 10
1018.799707
 20
-10.055128
 10
1018.823103
 20
-10.048898
 10
1018.840433
 20
-10.039873
 10
1018.8535
 20
-10.027641
 10
1018.86314
 20
-10.011416
 10
1018.869795
 20
-9.989514
 10
1018.873709
 20
-9.95714
 10
1018.875
 20
-9.84
 10
1018.841782
 20
-9.84
 10
1018.875
 20
-9.839999
 10
1018.873709
 20
-9.72286
 10
1018.869795
 20
-9.690486
 10
1018.86314
 20
-9.668584
 10
1018.8535
 20
-9.652359
 10
1018.840433
 20
-9.640127
 10
1018.823103
 20
-9.631103
 10
1018.799707
 20
-9.624872
 10
1018.765125
 20
-9.621209
 10
1018.514874
 20
-9.621209
 10
1018.480291
 20
-9.624872
 10
1018.456896
 20
-9.631103
 10
1018.439566
 20
-9.640127
 10
1018.426498
 20
-9.652359
 10
1018.416859
 20
-9.668584
 10
1018.410204
 20
-9.690486
 10
1018.40629
 20
-9.72286
 10
1018.40629
 20
-9.95714
 10
1018.410204
 20
-9.989514
 10
1018.416859
 20
-10.011416
 10
1018.426498
 20
-10.027641
 10
1018.439566
 20
-10.039873
  0
LWPOLYLINE
  5
189
330
17
100
AcDbEntity
  8
VISTA
100
AcDbPolyline
 90
4
 70
1
 10
1018.4500058666517
 20
-9.637506527818044
 10
1018.4500058666517
 20
-9.637506527818045
 10
1018.4500058666517
 20
-9.637506527818045
 10
1018.4500058666517
 20
-9.637506527818044
  0
LWPOLYLINE
  5
18A
330
17
100
AcDbEntity
  8
VISTA
100
AcDbPolyline
 90
4
 70
1
 10
1018.4996731385992
 20
-9.70863082043404
 10
1018.4996731385992
 20
-9.708630820434042
 10
1018.4996731385992
 20
-9.70863082043404
 10
1018.4996731385992
 20
-9.70863082043404
  0
LWPOLYLINE
  5
18B
330
17
100
AcDbEntity
  8
VISTA
100
AcDbPolyline
 90
4
 70
1
 10
1018.7614425630194
 20
-9.74013462102923
 10
1018.7614425630194
 20
-9.740134621029231
 10
1018.7614425630193
 20
-9.740134621029233
 10
1018.7614425630194
 20
-9.74013462102923
  0
LWPOLYLINE
  5
18C
330
17
100
AcDbEntity
  8
VISTA
100
AcDbPolyline
 90
4
 70
1
 10
1018.856297560687
 20
-10.017868678336814
 10
1018.856297560687
 20
-10.017868678336818
 10
1018.856297560687
 20
-10.01786867833681
 10
1018.856297560687
 20
-10.017868678336814
  0
LWPOLYLINE
  5
18D
330
17
100
AcDbEntity
  8
VISTA
100
AcDbPolyline
 90
37
 70
1
 10
1018.451674
 20
-11.12
 10
1018.405001
 20
-11.120001
 10
1018.406292
 20
-11.23714
 10
1018.410206
 20
-11.269514
 10
1018.416861
 20
-11.291416
 10
1018.4265
 20
-11.307641
 10
1018.439568
 20
-11.319873
 10
1018.456898
 20
-11.328897
 10
1018.480293
 20
-11.335128
 10
1018.514875
 20
-11.338791
 10
1018.765127
 20
-11.338791
 10
1018.799709
 20
-11.335128
 10
1018.823105
 20
-11.328897
 10
1018.840435
 20
-11.319873
 10
1018.853502
 20
-11.30764
 10
1018.863142
 20
-11.291416
 10
1018.869797
 20
-11.269514
 10
1018.873711
 20
-11.23714
 10
1018.873711
 20
-11.00286
 10
1018.869797
 20
-10.970486
 10
1018.863142
 20
-10.948584
 10
1018.853502
 20
-10.932359
 10
1018.840435
 20
-10.920127
 10
1018.823105
 20
-10.911102
 10
1018.799709
 20
-10.904872
 10
1018.765127
 20
-10.901209
 10
1018.640001
 20
-10.9
 10
1018.514875
 20
-10.901209
 10
1018.480293
 20
-10.904872
 10
1018.456898
 20
-10.911102
 10
1018.439568
 20
-10.920127
 10
1018.4265
 20
-10.93236
 10
1018.416861
 20
-10.948584
 10
1018.410206
 20
-10.970486
 10
1018.406292
 20
-11.00286
 10
1018.405001
 20
-11.12
 10
1018.451674
 20
-11.12
  0
LWPOLYLINE
  5
18E
330
17
100
AcDbEntity
  8
VISTA
100
AcDbPolyline
 90
4
 70
1
 10
1018.4701799695941
 20
-10.909950150909816
 10
1018.4701799695941
 20
-10.909950150909816
 10
1018.4701799695941
 20
-10.909950150909815
 10
1018.4701799695941
 20
-10.909950150909816
  0
LWPOLYLINE
  5
18F
330
17
100
AcDbEntity
  8
VISTA
100
AcDbPolyline
 90
4
 70
1
 10
1018.5312775959687
 20
-11.285630609898124
 10
1018.5312775959687
 20
-11.285630609898126
 10
1018.5312775959687
 20
-11.285630609898126
 10
1018.5312775959687
 20
-11.285630609898124
  0
LWPOLYLINE
  5
190
330
17
100
AcDbEntity
  8
VISTA
100
AcDbPolyline
 90
4
 70
1
 10
1018.78216049154
 20
-11.33655928441479
 10
1018.78216049154
 20
-11.33655928441479
 10
1018.78216049154
 20
-11.336559284414788
 10
1018.78216049154
 20
-11.33655928441479
  0
LWPOLYLINE
  5
191
330
17
100
AcDbEntity
  8
VISTA
100
AcDbPolyline
 90
6
 70
1
 10
1021.066999
 20
-10.5334
 10
1021.073399
 20
-10.535
 10
1021.074999
 20
-10.5334
 10
1021.074999
 20
-10.1066
 10
1021.068097059448
 20
-10.105295
 10
1021.066999
 20
-10.5334
  0
LWPOLYLINE
  5
192
330
17
100
AcDbEntity
  8
VISTA
100
AcDbPolyline
 90
8
 70
1
 10
1021.032499
 20
-10.5083
 10
1021.034201
 20
-10.509999
 10
1021.055799
 20
-10.509999
 10
1021.057501
 20
-10.5083
 10
1021.057501
 20
-10.1317
 10
1021.055799
 20
-10.13
 10
1021.033216
 20
-10.130314
 10
1021.032499
 20
-10.5083
  0
LWPOLYLINE
  5
193
330
17
100
AcDbEntity
  8
VISTA
100
AcDbPolyline
 90
7
 70
1
 10
1021.076
 20
-9.3183
 10
1021.0777
 20
-9.32
 10
1021.098299
 20
-9.32
 10
1021.099998
 20
-9.3183
 10
1021.099998
 20
-9.1
 10
1021.0765237980979
 20
-9.1
 10
1021.076
 20
-9.3183
  0
LWPOLYLINE
  5
194
330
17
100
AcDbEntity
  8
VISTA
100
AcDbPolyline
 90
8
 70
1
 10
1021.076
 20
-9.8883
 10
1021.0777
 20
-9.889999
 10
1021.098299
 20
-9.889999
 10
1021.099998
 20
-9.8883
 10
1021.099998
 20
-9.5917
 10
1021.098299
 20
-9.59
 10
1021.076715
 20
-9.590314
 10
1021.076
 20
-9.8883
  0
LWPOLYLINE
  5
195
330
17
100
AcDbEntity
  8
VISTA
100
AcDbPolyline
 90
8
 70
1
 10
1021.076
 20
-10.458301
 10
1021.0777
 20
-10.46
 10
1021.098299
 20
-10.46
 10
1021.099998
 20
-10.458301
 10
1021.099998
 20
-10.1617
 10
1021.098299
 20
-10.160001
 10
1021.076715
 20
-10.160315
 10
1021.076
 20
-10.458301
  0
LWPOLYLINE
  5
196
330
17
100
AcDbEntity
  8
VISTA
100
AcDbPolyline
 90
8
 70
1
 10
1021.073
 20
-10.5783
 10
1021.074701
 20
-10.58
 10
1021.0893
 20
-10.58
 10
1021.091002
 20
-10.5783
 10
1021.091002
 20
-10.0617
 10
1021.0893
 20
-10.059999
 10
1021.073717
 20
-10.060313
 10
1021.073
 20
-10.5783
  0
LWPOLYLINE
  5
197
330
17
100
AcDbEntity
  8
VISTA
100
AcDbPolyline
 90
9
 70
1
 10
1021.102501
 20
-9.437
 10
1021.10338
 20
-9.439121
 10
1021.105501
 20
-9.440001
 10
1021.134501
 20
-9.440001
 10
1021.136621
 20
-9.439121
 10
1021.137501
 20
-9.437
 10
1021.137501
 20
-9.1
 10
1021.1030535301192
 20
-9.1
 10
1021.102501
 20
-9.437
  0
LWPOLYLINE
  5
198
330
17
100
AcDbEntity
  8
VISTA
100
AcDbPolyline
 90
4
 70
1
 10
1021.103998
 20
-9.438503
 10
1021.103998
 20
-9.439117
 10
1021.10338
 20
-9.439121
 10
1021.103998
 20
-9.438503
  0
LWPOLYLINE
  5
199
330
17
100
AcDbEntity
  8
VISTA
100
AcDbPolyline
 90
4
 70
1
 10
1021.136003
 20
-9.438503
 10
1021.136618
 20
-9.438503
 10
1021.136621
 20
-9.439121
 10
1021.136003
 20
-9.438503
  0
LWPOLYLINE
  5
19A
330
17
100
AcDbEntity
  8
VISTA
100
AcDbPolyline
 90
12
 70
1
 10
1021.102501
 20
-10.007
 10
1021.10338
 20
-10.009121
 10
1021.105501
 20
-10.01
 10
1021.134501
 20
-10.01
 10
1021.136621
 20
-10.009121
 10
1021.137501
 20
-10.007
 10
1021.137501
 20
-9.473
 10
1021.136621
 20
-9.470879
 10
1021.134501
 20
-9.469999
 10
1021.105501
 20
-9.469999
 10
1021.10338
 20
-9.470879
 10
1021.102501
 20
-10.007
  0
LWPOLYLINE
  5
19B
330
17
100
AcDbEntity
  8
VISTA
100
AcDbPolyline
 90
4
 70
1
 10
1021.103998
 20
-10.008503
 10
1021.103998
 20
-10.009117
 10
1021.10338
 20
-10.009121
 10
1021.103998
 20
-10.008503
  0
LWPOLYLINE
  5
19C
330
17
100
AcDbEntity
  8
VISTA
100
AcDbPolyline
 90
4
 70
1
 10
1021.136003
 20
-10.008503
 10
1021.136618
 20
-10.008503
 10
1021.136621
 20
-10.009121
 10
1021.136003
 20
-10.008503
  0
LWPOLYLINE
  5
19D
330
17
100
AcDbEntity
  8
VISTA
100
AcDbPolyline
 90
4
 70
1
 10
1021.136003
 20
-9.471497
 10
1021.136003
 20
-9.470882
 10
1021.136621
 20
-9.470879
 10
1021.136003
 20
-9.471497
  0
LWPOLYLINE
  5
19E
330
17
100
AcDbEntity
  8
VISTA
100
AcDbPolyline
 90
4
 70
1
 10
1021.103998
 20
-9.471497
 10
1021.103384
 20
-9.471497
 10
1021.10338
 20
-9.470879
 10
1021.103998
 20
-9.471497
  0
LWPOLYLINE
  5
19F
330
17
100
AcDbEntity
  8
VISTA
100
AcDbPolyline
 90
12
 70
1
 10
1021.102501
 20
-10.577001
 10
1021.10338
 20
-10.579122
 10
1021.105501
 20
-10.580001
 10
1021.134501
 20
-10.580001
 10
1021.136621
 20
-10.579122
 10
1021.137501
 20
-10.577001
 10
1021.137501
 20
-10.043
 10
1021.136621
 20
-10.040879
 10
1021.134501
 20
-10.04
 10
1021.105501
 20
-10.04
 10
1021.10338
 20
-10.040879
 10
1021.102501
 20
-10.577001
  0
LWPOLYLINE
  5
1A0
330
17
100
AcDbEntity
  8
VISTA
100
AcDbPolyline
 90
4
 70
1
 10
1021.103998
 20
-10.578504
 10
1021.103998
 20
-10.579118
 10
1021.10338
 20
-10.579122
 10
1021.103998
 20
-10.578504
  0
LWPOLYLINE
  5
1A1
330
17
100
AcDbEntity
  8
VISTA
100
AcDbPolyline
 90
4
 70
1
 10
1021.136003
 20
-10.578504
 10
1021.136618
 20
-10.578504
 10
1021.136621
 20
-10.579122
 10
1021.136003
 20
-10.578504
  0
LWPOLYLINE
  5
1A2
330
17
100
AcDbEntity
  8
VISTA
100
AcDbPolyline
 90
4
 70
1
 10
1021.136003
 20
-10.041497
 10
1021.136003
 20
-10.040883
 10
1021.136621
 20
-10.040879
 10
1021.136003
 20
-10.041497
  0
LWPOLYLINE
  5
1A3
330
17
100
AcDbEntity
  8
VISTA
100
AcDbPolyline
 90
4
 70
1
 10
1021.103998
 20
-10.041497
 10
1021.103384
 20
-10.041497
 10
1021.10338
 20
-10.040879
 10
1021.103998
 20
-10.041497
  0
LWPOLYLINE
  5
1A4
330
17
100
AcDbEntity
  8
VISTA
100
AcDbPolyline
 90
9
 70
1
 10
1021.101
 20
-9.252
 10
1021.101879
 20
-9.254121
 10
1021.104
 20
-9.255
 10
1021.125999
 20
-9.255
 10
1021.12812
 20
-9.254121
 10
1021.129
 20
-9.252
 10
1021.129
 20
-9.1
 10
1021.1013135447444
 20
-9.1
 10
1021.101
 20
-9.252
  0
LWPOLYLINE
  5
1A5
330
17
100
AcDbEntity
  8
VISTA
100
AcDbPolyline
 90
4
 70
1
 10
1021.102497
 20
-9.253503
 10
1021.102497
 20
-9.254117
 10
1021.101879
 20
-9.254121
 10
1021.102497
 20
-9.253503
  0
LWPOLYLINE
  5
1A6
330
17
100
AcDbEntity
  8
VISTA
100
AcDbPolyline
 90
4
 70
1
 10
1021.127502
 20
-9.253503
 10
1021.128117
 20
-9.253503
 10
1021.12812
 20
-9.254121
 10
1021.127502
 20
-9.253503
  0
LWPOLYLINE
  5
1A7
330
17
100
AcDbEntity
  8
VISTA
100
AcDbPolyline
 90
12
 70
1
 10
1021.101
 20
-9.742
 10
1021.101879
 20
-9.744121
 10
1021.104
 20
-9.745
 10
1021.125999
 20
-9.745
 10
1021.12812
 20
-9.744121
 10
1021.129
 20
-9.742
 10
1021.129
 20
-9.318
 10
1021.12812
 20
-9.315879
 10
1021.125999
 20
-9.315
 10
1021.104
 20
-9.315
 10
1021.101879
 20
-9.315879
 10
1021.101
 20
-9.742
  0
LWPOLYLINE
  5
1A8
330
17
100
AcDbEntity
  8
VISTA
100
AcDbPolyline
 90
4
 70
1
 10
1021.102497
 20
-9.743503
 10
1021.102497
 20
-9.744117
 10
1021.101879
 20
-9.744121
 10
1021.102497
 20
-9.743503
  0
LWPOLYLINE
  5
1A9
330
17
100
AcDbEntity
  8
VISTA
100
AcDbPolyline
 90
4
 70
1
 10
1021.127502
 20
-9.743503
 10
1021.128117
 20
-9.743503
 10
1021.12812
 20
-9.744121
 10
1021.127502
 20
-9.743503
  0
LWPOLYLINE
  5
1AA
330
17
100
AcDbEntity
  8
VISTA
100
AcDbPolyline
 90
4
 70
1
 10
1021.127502
 20
-9.316497
 10
1021.127502
 20
-9.315883
 10
1021.12812
 20
-9.315879
 10
1021.127502
 20
-9.316497
  0
LWPOLYLINE
  5
1AB
330
17
100
AcDbEntity
  8
VISTA
100
AcDbPolyline
 90
4
 70
1
 10
1021.102497
 20
-9.316497
 10
1021.101883
 20
-9.316497
 10
1021.101879
 20
-9.315879
 10
1021.102497
 20
-9.316497
  0
LWPOLYLINE
  5
1AC
330
17
100
AcDbEntity
  8
VISTA
100
AcDbPolyline
 90
12
 70
1
 10
1021.101
 20
-10.232
 10
1021.101879
 20
-10.234121
 10
1021.104
 20
-10.235001
 10
1021.125999
 20
-10.235001
 10
1021.12812
 20
-10.234121
 10
1021.129
 20
-10.232
 10
1021.129
 20
-9.808001
 10
1021.12812
 20
-9.80588
 10
1021.125999
 20
-9.805
 10
1021.104
 20
-9.805
 10
1021.101879
 20
-9.80588
 10
1021.101
 20
-10.232
  0
LWPOLYLINE
  5
1AD
330
17
100
AcDbEntity
  8
VISTA
100
AcDbPolyline
 90
4
 70
1
 10
1021.102497
 20
-10.233503
 10
1021.102497
 20
-10.234118
 10
1021.101879
 20
-10.234121
 10
1021.102497
 20
-10.233503
  0
LWPOLYLINE
  5
1AE
330
17
100
AcDbEntity
  8
VISTA
100
AcDbPolyline
 90
4
 70
1
 10
1021.127502
 20
-10.233503
 10
1021.128117
 20
-10.233503
 10
1021.12812
 20
-10.234121
 10
1021.127502
 20
-10.233503
  0
LWPOLYLINE
  5
1AF
330
17
100
AcDbEntity
  8
VISTA
100
AcDbPolyline
 90
4
 70
1
 10
1021.127502
 20
-9.806498
 10
1021.127502
 20
-9.805883
 10
1021.12812
 20
-9.80588
 10
1021.127502
 20
-9.806498
  0
LWPOLYLINE
  5
1B0
330
17
100
AcDbEntity
  8
VISTA
100
AcDbPolyline
 90
4
 70
1
 10
1021.102497
 20
-9.806498
 10
1021.101883
 20
-9.806498
 10
1021.101879
 20
-9.80588
 10
1021.102497
 20
-9.806498
  0
LWPOLYLINE
  5
1B1
330
17
100
AcDbEntity
  8
VISTA
100
AcDbPolyline
 90
12
 70
1
 10
1021.101
 20
-10.722
 10
1021.101879
 20
-10.724121
 10
1021.104
 20
-10.725
 10
1021.125999
 20
-10.725
 10
1021.12812
 20
-10.724121
 10
1021.129
 20
-10.722
 10
1021.129
 20
-10.298
 10
1021.12812
 20
-10.295879
 10
1021.125999
 20
-10.295
 10
1021.104
 20
-10.295
 10
1021.101879
 20
-10.295879
 10
1021.101
 20
-10.722
  0
LWPOLYLINE
  5
1B2
330
17
100
AcDbEntity
  8
VISTA
100
AcDbPolyline
 90
4
 70
1
 10
1021.102497
 20
-10.723503
 10
1021.102497
 20
-10.724117
 10
1021.101879
 20
-10.724121
 10
1021.102497
 20
-10.723503
  0
LWPOLYLINE
  5
1B3
330
17
100
AcDbEntity
  8
VISTA
100
AcDbPolyline
 90
4
 70
1
 10
1021.127502
 20
-10.723503
 10
1021.128117
 20
-10.723503
 10
1021.12812
 20
-10.724121
 10
1021.127502
 20
-10.723503
  0
LWPOLYLINE
  5
1B4
330
17
100
AcDbEntity
  8
VISTA
100
AcDbPolyline
 90
4
 70
1
 10
1021.127502
 20
-10.296497
 10
1021.127502
 20
-10.295883
 10
1021.12812
 20
-10.295879
 10
1021.127502
 20
-10.296497
  0
LWPOLYLINE
  5
1B5
330
17
100
AcDbEntity
  8
VISTA
100
AcDbPolyline
 90
4
 70
1
 10
1021.102497
 20
-10.296497
 10
1021.101883
 20
-10.296497
 10
1021.101879
 20
-10.295879
 10
1021.102497
 20
-10.296497
  0
LWPOLYLINE
  5
1B6
330
17
100
AcDbEntity
  8
VISTA
100
AcDbPolyline
 90
7
 70
1
 10
1018.976999
 20
-10.934999
 10
1018.983522
 20
-10.931631
 10
1018.984999
 20
-10.032999
 10
1018.98163
 20
-10.026477
 10
1018.4
 20
-10.02595906199695
 10
1018.4
 20
-10.934485185874486
 10
1018.976999
 20
-10.934999
  0
LWPOLYLINE
  5
1B7
330
17
100
AcDbEntity
  8
VISTA
100
AcDbPolyline
 90
7
 70
1
 10
1021.136106
 20
-10.802474
 10
1021.140999
 20
-10.805
 10
1021.782473
 20
-10.803893
 10
1021.785
 20
-10.799001
 10
1021.7840499531621
 20
-9.1
 10
1021.1351540111311
 20
-9.1
 10
1021.136106
 20
-10.802474
  0
LWPOLYLINE
  5
1B8
330
17
100
AcDbEntity
  8
VISTA
100
AcDbPolyline
 90
7
 70
1
 10
1019.824999
 20
-9.329
 10
1019.827526
 20
-9.333893
 10
1021.0889990000001
 20
-9.335
 10
1021.093891
 20
-9.332474
 10
1021.0943497588953
 20
-9.1
 10
1019.824999
 20
-9.1
 10
1019.824999
 20
-9.329
  0
LWPOLYLINE
  5
1B9
330
17
100
AcDbEntity
  8
VISTA
100
AcDbPolyline
 90
5
 70
1
 10
1020.33
 20
-9.68
 10
1020.33
 20
-10.48
 10
1020.35
 20
-10.48
 10
1020.35
 20
-9.68
 10
1020.33
 20
-9.68
  0
LWPOLYLINE
  5
1BA
330
17
100
AcDbEntity
  8
VISTA
100
AcDbPolyline
 90
7
 70
1
 10
1021.071108
 20
-10.817474
 10
1021.076
 20
-10.820001
 10
1021.787474
 20
-10.818892
 10
1021.790001
 20
-10.814
 10
1021.7890568605281
 20
-9.1
 10
1021.0701619464403
 20
-9.1
 10
1021.071108
 20
-10.817474
  0
LWPOLYLINE
  5
1BB
330
17
100
AcDbEntity
  8
VISTA
100
AcDbPolyline
 90
5
 70
1
 10
1021.205
 20
-9.58
 10
1021.205
 20
-9.219999
 10
1021.635
 20
-9.219999
 10
1021.635
 20
-9.58
 10
1021.205
 20
-9.58
  0
LWPOLYLINE
  5
1BC
330
17
100
AcDbEntity
  8
VISTA
100
AcDbPolyline
 90
7
 70
1
 10
1019.775002
 20
-9.374001
 10
1019.777527
 20
-9.378893
 10
1021.119001
 20
-9.38
 10
1021.123894
 20
-9.377474
 10
1021.1243650644539
 20
-9.1
 10
1019.775002
 20
-9.1
 10
1019.775002
 20
-9.374001
  0
LWPOLYLINE
  5
1BD
330
17
100
AcDbEntity
  8
VISTA
100
AcDbPolyline
 90
15
 70
1
 10
1019.695168
 20
-9.403686
 10
1019.697439
 20
-9.440326
 10
1019.700819
 20
-9.457562
 10
1019.708487
 20
-9.476766
 10
1019.717499
 20
-9.48294
 10
1019.750181
 20
-9.485
 10
1019.782513
 20
-9.48294
 10
1019.790983
 20
-9.476766
 10
1019.799633
 20
-9.457562
 10
1019.804991
 20
-9.403686
 10
1019.805021
 20
-9.116313
 10
1019.8034600134929
 20
-9.1
 10
1019.6965251494104
 20
-9.1
 10
1019.694344
 20
-9.147426
 10
1019.695168
 20
-9.403686
  0
LWPOLYLINE
  5
1BE
330
17
100
AcDbEntity
  8
VISTA
100
AcDbPolyline
 90
5
 70
1
 10
1021.135715
 20
-10.559686
 10
1021.664686
 20
-10.559284
 10
1021.664284
 20
-10.080314
 10
1021.135715
 20
-10.080314
 10
1021.135715
 20
-10.559686
  0
LWPOLYLINE
  5
1BF
330
17
100
AcDbEntity
  8
VISTA
100
AcDbPolyline
 90
44
 70
1
 10
1021.195013
 20
-9.282079
 10
1021.189438
 20
-9.3049
 10
1021.186108
 20
-9.334738
 10
1021.186108
 20
-9.465262
 10
1021.189438
 20
-9.495099
 10
1021.195013
 20
-9.517921
 10
1021.202875
 20
-9.536604
 10
1021.213093
 20
-9.552221
 10
1021.225784
 20
-9.56529
 10
1021.24114
 20
-9.576091
 10
1021.259491
 20
-9.584787
 10
1021.281443
 20
-9.591477
 10
1021.308258
 20
-9.596223
 10
1021.343317
 20
-9.599057
 10
1021.496683
 20
-9.599057
 10
1021.531742
 20
-9.596223
 10
1021.558558
 20
-9.591477
 10
1021.580509
 20
-9.584787
 10
1021.59886
 20
-9.576091
 10
1021.6142159999999
 20
-9.56529
 10
1021.626907
 20
-9.552221
 10
1021.637125
 20
-9.536604
 10
1021.644987
 20
-9.517921
 10
1021.650562
 20
-9.495099
 10
1021.653893
 20
-9.465262
 10
1021.653893
 20
-9.334738
 10
1021.650562
 20
-9.3049
 10
1021.644987
 20
-9.282079
 10
1021.637125
 20
-9.263396
 10
1021.626907
 20
-9.247779
 10
1021.6142159999999
 20
-9.23471
 10
1021.59886
 20
-9.223909
 10
1021.580509
 20
-9.215213
 10
1021.558558
 20
-9.208522
 10
1021.496683
 20
-9.200943
 10
1021.343317
 20
-9.200943
 10
1021.308258
 20
-9.203777
 10
1021.281443
 20
-9.208522
 10
1021.259491
 20
-9.215213
 10
1021.24114
 20
-9.223909
 10
1021.225784
 20
-9.23471
 10
1021.213093
 20
-9.247779
 10
1021.202875
 20
-9.263396
 10
1021.195013
 20
-9.282079
  0
LWPOLYLINE
  5
1C0
330
17
100
AcDbEntity
  8
VISTA
100
AcDbPolyline
 90
4
 70
1
 10
1021.4791708852792
 20
-9.24640350497776
 10
1021.4791708852682
 20
-9.246403505006555
 10
1021.4791708852747
 20
-9.246403504989662
 10
1021.4791708852792
 20
-9.24640350497776
  0
LWPOLYLINE
  5
1C1
330
17
100
AcDbEntity
  8
VISTA
100
AcDbPolyline
 90
4
 70
1
 10
1021.2658887366456
 20
-9.33643315781366
 10
1021.2658887366044
 20
-9.336433157796717
 10
1021.2658887366468
 20
-9.336433157814211
 10
1021.2658887366456
 20
-9.33643315781366
  0
LWPOLYLINE
  5
1C2
330
17
100
AcDbEntity
  8
VISTA
100
AcDbPolyline
 90
29
 70
1
 10
1021.18
 20
-10.2
 10
1021.182257
 20
-10.220027
 10
1021.188913
 20
-10.239049
 10
1021.199636
 20
-10.256114
 10
1021.213886
 20
-10.270365
 10
1021.230951
 20
-10.281087
 10
1021.249973
 20
-10.287744
 10
1021.27
 20
-10.29
 10
1021.290028
 20
-10.287744
 10
1021.30905
 20
-10.281087
 10
1021.326115
 20
-10.270365
 10
1021.340364
 20
-10.256114
 10
1021.351088
 20
-10.239049
 10
1021.357744
 20
-10.220027
 10
1021.360001
 20
-10.2
 10
1021.357744
 20
-10.179973
 10
1021.351088
 20
-10.160951
 10
1021.340364
 20
-10.143886
 10
1021.326115
 20
-10.129635
 10
1021.30905
 20
-10.118913
 10
1021.290028
 20
-10.112256
 10
1021.27
 20
-10.11
 10
1021.249973
 20
-10.112256
 10
1021.230951
 20
-10.118913
 10
1021.213886
 20
-10.129635
 10
1021.199636
 20
-10.143886
 10
1021.188913
 20
-10.160951
 10
1021.182257
 20
-10.179973
 10
1021.18
 20
-10.2
  0
LWPOLYLINE
  5
1C3
330
17
100
AcDbEntity
  8
VISTA
100
AcDbPolyline
 90
29
 70
1
 10
1021.18
 20
-10.43
 10
1021.182257
 20
-10.450027
 10
1021.188913
 20
-10.469049
 10
1021.199636
 20
-10.486115
 10
1021.213886
 20
-10.500365
 10
1021.230951
 20
-10.511087
 10
1021.249973
 20
-10.517744
 10
1021.27
 20
-10.52
 10
1021.290028
 20
-10.517744
 10
1021.30905
 20
-10.511087
 10
1021.326115
 20
-10.500365
 10
1021.340364
 20
-10.486115
 10
1021.351088
 20
-10.469049
 10
1021.357744
 20
-10.450027
 10
1021.360001
 20
-10.43
 10
1021.357744
 20
-10.409973
 10
1021.351088
 20
-10.390951
 10
1021.340364
 20
-10.373886
 10
1021.326115
 20
-10.359635
 10
1021.30905
 20
-10.348913
 10
1021.290028
 20
-10.342257
 10
1021.27
 20
-10.34
 10
1021.249973
 20
-10.342257
 10
1021.230951
 20
-10.348913
 10
1021.213886
 20
-10.359635
 10
1021.199636
 20
-10.373886
 10
1021.188913
 20
-10.390951
 10
1021.182257
 20
-10.409973
 10
1021.18
 20
-10.43
  0
LWPOLYLINE
  5
1C4
330
17
100
AcDbEntity
  8
VISTA
100
AcDbPolyline
 90
29
 70
1
 10
1021.440001
 20
-10.2
 10
1021.442257
 20
-10.220027
 10
1021.448914
 20
-10.239049
 10
1021.459637
 20
-10.256114
 10
1021.473886
 20
-10.270365
 10
1021.490952
 20
-10.281087
 10
1021.509974
 20
-10.287744
 10
1021.530001
 20
-10.29
 10
1021.550028
 20
-10.287744
 10
1021.56905
 20
-10.281087
 10
1021.586115
 20
-10.270365
 10
1021.600365
 20
-10.256114
 10
1021.611088
 20
-10.239049
 10
1021.617744
 20
-10.220027
 10
1021.620001
 20
-10.2
 10
1021.617744
 20
-10.179973
 10
1021.611088
 20
-10.160951
 10
1021.600365
 20
-10.143886
 10
1021.586115
 20
-10.129635
 10
1021.56905
 20
-10.118913
 10
1021.550028
 20
-10.112256
 10
1021.530001
 20
-10.11
 10
1021.509974
 20
-10.112256
 10
1021.490952
 20
-10.118913
 10
1021.473886
 20
-10.129635
 10
1021.459637
 20
-10.143886
 10
1021.448914
 20
-10.160951
 10
1021.442257
 20
-10.179973
 10
1021.440001
 20
-10.2
  0
LWPOLYLINE
  5
1C5
330
17
100
AcDbEntity
  8
VISTA
100
AcDbPolyline
 90
29
 70
1
 10
1021.440001
 20
-10.43
 10
1021.442257
 20
-10.450027
 10
1021.448914
 20
-10.469049
 10
1021.459637
 20
-10.486115
 10
1021.473886
 20
-10.500365
 10
1021.490952
 20
-10.511087
 10
1021.509974
 20
-10.517744
 10
1021.530001
 20
-10.52
 10
1021.550028
 20
-10.517744
 10
1021.56905
 20
-10.511087
 10
1021.586115
 20
-10.500365
 10
1021.600365
 20
-10.486115
 10
1021.611088
 20
-10.469049
 10
1021.617744
 20
-10.450027
 10
1021.620001
 20
-10.43
 10
1021.617744
 20
-10.409973
 10
1021.611088
 20
-10.390951
 10
1021.600365
 20
-10.373886
 10
1021.586115
 20
-10.359635
 10
1021.56905
 20
-10.348913
 10
1021.550028
 20
-10.342257
 10
1021.530001
 20
-10.34
 10
1021.509974
 20
-10.342257
 10
1021.490952
 20
-10.348913
 10
1021.473886
 20
-10.359635
 10
1021.459637
 20
-10.373886
 10
1021.448914
 20
-10.390951
 10
1021.442257
 20
-10.409973
 10
1021.440001
 20
-10.43
  0
LWPOLYLINE
  5
1C6
330
17
100
AcDbEntity
  8
VISTA
100
AcDbPolyline
 90
24
 70
1
 10
1018.414999
 20
-9.650216
 10
1018.417059
 20
-9.682542
 10
1018.423233
 20
-9.691011
 10
1018.42951
 20
-9.694868
 10
1018.459673
 20
-9.70254
 10
1018.527426
 20
-9.705656
 10
1018.8047329999999
 20
-9.704082
 10
1018.846483
 20
-9.696672
 10
1018.856766
 20
-9.691513
 10
1018.86294
 20
-9.682502
 10
1018.865
 20
-9.649818
 10
1018.865
 20
-9.649743
 10
1018.863762
 20
-9.630252
 10
1018.86294
 20
-9.617487
 10
1018.856766
 20
-9.609016
 10
1018.850489
 20
-9.605042
 10
1018.832083
 20
-9.599381
 10
1018.752573
 20
-9.594372
 10
1018.496313
 20
-9.594977
 10
1018.459673
 20
-9.597615
 10
1018.433516
 20
-9.603183
 10
1018.423233
 20
-9.608463
 10
1018.417059
 20
-9.617603
 10
1018.414999
 20
-9.650216
  0
LWPOLYLINE
  5
1C7
330
17
100
AcDbEntity
  8
VISTA
100
AcDbPolyline
 90
4
 70
1
 10
1018.8649961115757
 20
-9.649756545307158
 10
1018.8649961115757
 20
-9.649756545307154
 10
1018.865
 20
-9.649743
 10
1018.8649961115757
 20
-9.649756545307158
  0
LWPOLYLINE
  5
1C8
330
17
100
AcDbEntity
  8
VISTA
100
AcDbPolyline
 90
4
 70
1
 10
1018.809017081227
 20
-9.70313170295199
 10
1018.809017081227
 20
-9.70313170295199
 10
1018.809017081227
 20
-9.703131702951993
 10
1018.809017081227
 20
-9.70313170295199
  0
LWPOLYLINE
  5
1C9
330
17
100
AcDbEntity
  8
VISTA
100
AcDbPolyline
 90
4
 70
1
 10
1018.8078335148651
 20
-9.698363295052403
 10
1018.8078335148651
 20
-9.698363295052404
 10
1018.8078335148651
 20
-9.698363295052403
 10
1018.8078335148651
 20
-9.698363295052403
  0
LWPOLYLINE
  5
1CA
330
17
100
AcDbEntity
  8
VISTA
100
AcDbPolyline
 90
4
 70
1
 10
1018.8459814616249
 20
-9.653087647356688
 10
1018.8459814616249
 20
-9.653087647356687
 10
1018.8459814616249
 20
-9.653087647356687
 10
1018.8459814616249
 20
-9.653087647356688
  0
LWPOLYLINE
  5
1CB
330
17
100
AcDbEntity
  8
VISTA
100
AcDbPolyline
 90
4
 70
1
 10
1018.8588817541234
 20
-9.612039406908693
 10
1018.8588817541234
 20
-9.61203940690869
 10
1018.8588817541234
 20
-9.612039406908691
 10
1018.8588817541234
 20
-9.612039406908693
  0
LWPOLYLINE
  5
1CC
330
17
100
AcDbEntity
  8
VISTA
100
AcDbPolyline
 90
22
 70
1
 10
1018.417061
 20
-11.342512
 10
1018.423235
 20
-11.350983
 10
1018.442438
 20
-11.359632
 10
1018.496315
 20
-11.36499
 10
1018.640001
 20
-11.365602
 10
1018.783688
 20
-11.365022
 10
1018.837564
 20
-11.359173
 10
1018.856768
 20
-11.351536
 10
1018.862942
 20
-11.342396
 10
1018.865002
 20
-11.309783
 10
1018.862942
 20
-11.277457
 10
1018.856768
 20
-11.268988
 10
1018.837564
 20
-11.260388
 10
1018.783688
 20
-11.255177
 10
1018.640001
 20
-11.25422
 10
1018.496315
 20
-11.255167
 10
1018.459675
 20
-11.257439
 10
1018.442438
 20
-11.260818
 10
1018.423235
 20
-11.268486
 10
1018.417061
 20
-11.277497
 10
1018.415001
 20
-11.310181
 10
1018.417061
 20
-11.342512
  0
LWPOLYLINE
  5
1CD
330
17
100
AcDbEntity
  8
VISTA
100
AcDbPolyline
 90
4
 70
1
 10
1018.8306297567998
 20
-11.359060207044344
 10
1018.8306297567998
 20
-11.359060207044342
 10
1018.8306297567998
 20
-11.359060207044346
 10
1018.8306297567998
 20
-11.359060207044344
  0
LWPOLYLINE
  5
1CE
330
17
100
AcDbEntity
  8
VISTA
100
AcDbPolyline
 90
4
 70
1
 10
1018.8322773324006
 20
-11.30153468049177
 10
1018.8322773324006
 20
-11.301534680491764
 10
1018.8322773324006
 20
-11.301534680491773
 10
1018.8322773324006
 20
-11.30153468049177
  0
LWPOLYLINE
  5
1CF
330
17
100
AcDbEntity
  8
VISTA
100
AcDbPolyline
 90
29
 70
1
 10
1018.814999
 20
-9.22
 10
1018.816629
 20
-9.234464
 10
1018.821436
 20
-9.248202
 10
1018.82918
 20
-9.260527
 10
1018.839472
 20
-9.27082
 10
1018.851797
 20
-9.278563
 10
1018.865536
 20
-9.283371
 10
1018.879999
 20
-9.285
 10
1018.894463
 20
-9.283371
 10
1018.908201
 20
-9.278563
 10
1018.920527
 20
-9.27082
 10
1018.930819
 20
-9.260527
 10
1018.938562
 20
-9.248202
 10
1018.943369
 20
-9.234464
 10
1018.945
 20
-9.22
 10
1018.943369
 20
-9.205537
 10
1018.938562
 20
-9.191798
 10
1018.930819
 20
-9.179474
 10
1018.920527
 20
-9.169181
 10
1018.908201
 20
-9.161437
 10
1018.894463
 20
-9.15663
 10
1018.879999
 20
-9.155001
 10
1018.865536
 20
-9.15663
 10
1018.851797
 20
-9.161437
 10
1018.839472
 20
-9.169181
 10
1018.82918
 20
-9.179474
 10
1018.821436
 20
-9.191798
 10
1018.816629
 20
-9.205537
 10
1018.814999
 20
-9.22
  0
LWPOLYLINE
  5
1D0
330
17
100
AcDbEntity
  8
VISTA
100
AcDbPolyline
 90
9
 70
1
 10
1021.66
 20
-9.415
 10
1021.672991
 20
-9.4075
 10
1021.672991
 20
-9.3925
 10
1021.66
 20
-9.385
 10
1021.440001
 20
-9.385
 10
1021.429607
 20
-9.3925
 10
1021.429607
 20
-9.4075
 10
1021.440001
 20
-9.415
 10
1021.66
 20
-9.415
  0
LWPOLYLINE
  5
1D1
330
17
100
AcDbEntity
  8
CORTE
100
AcDbPolyline
 90
24
 70
1
 10
1021.799999
 20
-9.563240957536824
 10
1021.799999
 20
-11.995501
 10
1021.8004932199938
 20
-11.997047813538076
 10
1021.800831
 20
-11.998105
 10
1021.801119691006
 20
-11.998447746317769
 10
1021.801317
 20
-11.998682
 10
1021.8016603403322
 20
-11.998971285020371
 10
1021.801895
 20
-11.999169
 10
1021.803441813538
 20
-11.999662625979317
 10
1021.804499
 20
-12.0
 10
1021.9179569413977
 20
-12.0
 10
1021.995501
 20
-12.0
 10
1021.9970472195237
 20
-11.999506374020683
 10
1021.998104
 20
-11.999169
 10
1021.9984473403322
 20
-11.99887971497963
 10
1021.998682
 20
-11.998682
 10
1021.998879308994
 20
-11.998447746317769
 10
1021.999168
 20
-11.998105
 10
1021.9995057800063
 20
-11.997047813538076
 10
1022.0
 20
-11.995501
 10
1022.0
 20
-9.563240957536824
 10
1022.0
 20
-9.1
 10
1021.799999
 20
-9.1
 10
1021.799999
 20
-9.563240957536824
  0
LWPOLYLINE
  5
1D2
330
17
100
AcDbEntity
  8
CORTE
100
AcDbPolyline
 90
41
 70
1
 10
1021.4010295269508
 20
-11.80165974631777
 10
1021.400831
 20
-11.801894
 10
1021.4003385620496
 20
-11.803442001566907
 10
1021.400002
 20
-11.8045
 10
1021.400002
 20
-11.91795675336885
 10
1021.400002
 20
-11.9955
 10
1021.4004944379504
 20
-11.997047407552492
 10
1021.400831
 20
-11.998105
 10
1021.4011214730492
 20
-11.998447746317769
 10
1021.4013199999999
 20
-11.998682
 10
1021.4016621523034
 20
-11.998970691005955
 10
1021.401896
 20
-11.999168
 10
1021.4034434075525
 20
-11.999662219993732
 10
1021.404501
 20
-12.0
 10
1021.7555635195863
 20
-12.0
 10
1021.995501
 20
-12.0
 10
1021.9970484075525
 20
-11.999505780006267
 10
1021.998106
 20
-11.999168
 10
1021.9984481523034
 20
-11.998879308994045
 10
1021.998682
 20
-11.998682
 10
1021.9988801209652
 20
-11.998447746317769
 10
1021.99917
 20
-11.998105
 10
1021.9995069680351
 20
-11.997047407552492
 10
1022.0
 20
-11.9955
 10
1022.0
 20
-11.91795675336885
 10
1022.0
 20
-11.8045
 10
1021.9996630319649
 20
-11.803442001566907
 10
1021.99917
 20
-11.801894
 10
1021.9989718790348
 20
-11.80165974631777
 10
1021.998682
 20
-11.801317
 10
1021.9984481523034
 20
-11.801119691005955
 10
1021.998106
 20
-11.800831
 10
1021.9970484075525
 20
-11.800493219993733
 10
1021.995501
 20
-11.799999
 10
1021.7555635195863
 20
-11.799999
 10
1021.404501
 20
-11.799999
 10
1021.4034434075525
 20
-11.800336780006267
 10
1021.401896
 20
-11.800831
 10
1021.4016621523034
 20
-11.801028308994045
 10
1021.4013199999999
 20
-11.801317
 10
1021.4010295269508
 20
-11.80165974631777
  0
LWPOLYLINE
  5
1D3
330
17
100
AcDbEntity
  8
VISTA
100
AcDbPolyline
 90
9
 70
1
 10
1021.195
 20
-11.9735
 10
1021.195
 20
-11.968964062992125
 10
1021.195
 20
-11.964499
 10
1020.350905511811
 20
-11.964499
 10
1019.52
 20
-11.964499
 10
1019.52
 20
-11.969034937007875
 10
1019.52
 20
-11.9735
 10
1020.3640944881889
 20
-11.9735
 10
1021.195
 20
-11.9735
  0
LWPOLYLINE
  5
1D4
330
17
100
AcDbEntity
  8
VISTA
100
AcDbPolyline
 90
9
 70
1
 10
1021.192488
 20
-11.9995
 10
1021.192488
 20
-11.99496395636121
 10
1021.192488
 20
-11.990499
 10
1020.3509055078622
 20
-11.990499
 10
1019.522512
 20
-11.990499
 10
1019.522512
 20
-11.99503504363879
 10
1019.522512
 20
-11.9995
 10
1020.3640944921378
 20
-11.9995
 10
1021.192488
 20
-11.9995
  0
LWPOLYLINE
  5
1D5
330
17
100
AcDbEntity
  8
VISTA
100
AcDbPolyline
 90
41
 70
1
 10
1021.1549552101105
 20
-11.920925969984202
 10
1021.154737
 20
-11.921185
 10
1021.154370914692
 20
-11.922333357030016
 10
1021.153999
 20
-11.9235
 10
1021.153999
 20
-11.981538410742496
 10
1021.153999
 20
-12.040501
 10
1021.1543650853081
 20
-12.041649357030016
 10
1021.154737
 20
-12.042816
 10
1021.1549517898894
 20
-12.04307047393365
 10
1021.15517
 20
-12.043329
 10
1021.1554249699842
 20
-12.043543789889416
 10
1021.155684
 20
-12.043762
 10
1021.15683235703
 20
-12.044128085308056
 10
1021.157999
 20
-12.0445
 10
1021.1947072369668
 20
-12.0445
 10
1021.232
 20
-12.0445
 10
1021.2331488530806
 20
-12.044133914691942
 10
1021.234316
 20
-12.043762
 10
1021.2345704739337
 20
-12.043547210110583
 10
1021.234829
 20
-12.043329
 10
1021.2350472101106
 20
-12.04307047393365
 10
1021.235262
 20
-12.042816
 10
1021.2356339146919
 20
-12.041649357030016
 10
1021.236
 20
-12.040501
 10
1021.236
 20
-11.981538410742496
 10
1021.236
 20
-11.9235
 10
1021.235628085308
 20
-11.922333357030016
 10
1021.235262
 20
-11.921185
 10
1021.2350437898895
 20
-11.920925969984202
 10
1021.234829
 20
-11.920671
 10
1021.2345704739337
 20
-11.920452789889415
 10
1021.234316
 20
-11.920238
 10
1021.2331488530806
 20
-11.919866085308056
 10
1021.232
 20
-11.9195
 10
1021.1947072369668
 20
-11.9195
 10
1021.157999
 20
-11.9195
 10
1021.15683235703
 20
-11.919871914691942
 10
1021.155684
 20
-11.920238
 10
1021.1554249699842
 20
-11.920456210110585
 10
1021.15517
 20
-11.920671
 10
1021.1549552101105
 20
-11.920925969984202
  0
LWPOLYLINE
  5
1D6
330
17
100
AcDbEntity
  8
VISTA
100
AcDbPolyline
 90
9
 70
1
 10
1021.173561
 20
-11.9995
 10
1021.173561
 20
-11.98186220472441
 10
1021.173561
 20
-11.9645
 10
1021.1604581338582
 20
-11.9645
 10
1021.14756
 20
-11.9645
 10
1021.14756
 20
-11.98213779527559
 10
1021.14756
 20
-11.9995
 10
1021.1606628661417
 20
-11.9995
 10
1021.173561
 20
-11.9995
  0
LWPOLYLINE
  5
1D7
330
17
100
AcDbEntity
  8
VISTA
100
AcDbPolyline
 90
9
 70
1
 10
1021.195
 20
-12.028501
 10
1021.195
 20
-12.023965062992126
 10
1021.195
 20
-12.0195
 10
1020.350905511811
 20
-12.0195
 10
1019.52
 20
-12.0195
 10
1019.52
 20
-12.024035937007875
 10
1019.52
 20
-12.028501
 10
1020.3640944881889
 20
-12.028501
 10
1021.195
 20
-12.028501
  0
LWPOLYLINE
  5
1D8
330
17
100
AcDbEntity
  8
VISTA
100
AcDbPolyline
 90
9
 70
1
 10
1021.192488
 20
-12.054501
 10
1021.192488
 20
-12.04996495636121
 10
1021.192488
 20
-12.0455
 10
1020.3509055078622
 20
-12.0455
 10
1019.522512
 20
-12.0455
 10
1019.522512
 20
-12.05003604363879
 10
1019.522512
 20
-12.054501
 10
1020.3640944921378
 20
-12.054501
 10
1021.192488
 20
-12.054501
  0
LWPOLYLINE
  5
1D9
330
17
100
AcDbEntity
  8
VISTA
100
AcDbPolyline
 90
57
 70
1
 10
1018.828499
 20
-12.157001
 10
1018.8283484047619
 20
-12.154319857142857
 10
1018.828224
 20
-12.152105
 10
1018.8277782380952
 20
-12.149558571428573
 10
1018.82741
 20
-12.147455
 10
1018.8266920714286
 20
-12.145170880952382
 10
1018.826099
 20
-12.143284
 10
1018.825145595238
 20
-12.141376095238094
 10
1018.824358
 20
-12.1398
 10
1018.8232151190476
 20
-12.13836469047619
 10
1018.822271
 20
-12.137179
 10
1018.8209977857143
 20
-12.136288023809524
 10
1018.819946
 20
-12.135552
 10
1018.8186059761905
 20
-12.135249714285715
 10
1018.817499
 20
-12.135
 10
1018.8161589761905
 20
-12.135302285714285
 10
1018.815052
 20
-12.135552
 10
1018.8137787857142
 20
-12.136442976190477
 10
1018.812727
 20
-12.137179
 10
1018.8115841190477
 20
-12.13861430952381
 10
1018.81064
 20
-12.1398
 10
1018.8096865952381
 20
-12.141707904761905
 10
1018.808899
 20
-12.143284
 10
1018.8081816190477
 20
-12.145568119047619
 10
1018.807589
 20
-12.147455
 10
1018.8071426904762
 20
-12.150001428571429
 10
1018.806774
 20
-12.152105
 10
1018.8066234047619
 20
-12.154786142857143
 10
1018.806499
 20
-12.157001
 10
1018.8066495952381
 20
-12.159681595238094
 10
1018.806774
 20
-12.161896
 10
1018.8072203095238
 20
-12.164442428571428
 10
1018.807589
 20
-12.166546
 10
1018.8083063809523
 20
-12.16883011904762
 10
1018.808899
 20
-12.170717
 10
1018.809852404762
 20
-12.172624904761905
 10
1018.81064
 20
-12.174201
 10
1018.8117828809524
 20
-12.17563630952381
 10
1018.812727
 20
-12.176822
 10
1018.8140002142857
 20
-12.177712976190476
 10
1018.815052
 20
-12.178449
 10
1018.8163920238095
 20
-12.178751285714286
 10
1018.817499
 20
-12.179001
 10
1018.8188390238096
 20
-12.178698714285714
 10
1018.819946
 20
-12.178449
 10
1018.8212192142857
 20
-12.177558023809524
 10
1018.822271
 20
-12.176822
 10
1018.8234138809523
 20
-12.17538669047619
 10
1018.824358
 20
-12.174201
 10
1018.8253114047619
 20
-12.172293095238095
 10
1018.826099
 20
-12.170717
 10
1018.8268169285715
 20
-12.16843288095238
 10
1018.82741
 20
-12.166546
 10
1018.8278557619047
 20
-12.163999571428572
 10
1018.828224
 20
-12.161896
 10
1018.8283745952381
 20
-12.159215404761905
 10
1018.828499
 20
-12.157001
  0
LWPOLYLINE
  5
1DA
330
17
100
AcDbEntity
  8
VISTA
100
AcDbPolyline
 90
57
 70
1
 10
1018.828499
 20
-12.102
 10
1018.8283484047619
 20
-12.099319404761905
 10
1018.828224
 20
-12.097105
 10
1018.8277782380952
 20
-12.094558571428571
 10
1018.82741
 20
-12.092455
 10
1018.8266920714286
 20
-12.09017088095238
 10
1018.826099
 20
-12.088284
 10
1018.825145595238
 20
-12.086376095238094
 10
1018.824358
 20
-12.0848
 10
1018.8232151190476
 20
-12.08336469047619
 10
1018.822271
 20
-12.082179
 10
1018.8209977857143
 20
-12.081288023809524
 10
1018.819946
 20
-12.080552
 10
1018.8186059761905
 20
-12.080249714285715
 10
1018.817499
 20
-12.08
 10
1018.8161589761905
 20
-12.080302285714286
 10
1018.815052
 20
-12.080552
 10
1018.8137787857142
 20
-12.081442976190477
 10
1018.812727
 20
-12.082179
 10
1018.8115841190477
 20
-12.08361430952381
 10
1018.81064
 20
-12.0848
 10
1018.8096865952381
 20
-12.086707904761905
 10
1018.808899
 20
-12.088284
 10
1018.8081816190477
 20
-12.090568119047619
 10
1018.807589
 20
-12.092455
 10
1018.8071426904762
 20
-12.095001428571429
 10
1018.806774
 20
-12.097105
 10
1018.8066234047619
 20
-12.099785595238096
 10
1018.806499
 20
-12.102
 10
1018.8066495952381
 20
-12.104680595238095
 10
1018.806774
 20
-12.106895
 10
1018.8072203095238
 20
-12.109441976190476
 10
1018.807589
 20
-12.111546
 10
1018.8083063809523
 20
-12.11383011904762
 10
1018.808899
 20
-12.115717
 10
1018.809852404762
 20
-12.117624904761906
 10
1018.81064
 20
-12.119201
 10
1018.8117828809524
 20
-12.120635761904762
 10
1018.812727
 20
-12.121821
 10
1018.8140002142857
 20
-12.122711976190477
 10
1018.815052
 20
-12.123448
 10
1018.8163920238095
 20
-12.123750833333332
 10
1018.817499
 20
-12.124001
 10
1018.8188390238096
 20
-12.123698166666667
 10
1018.819946
 20
-12.123448
 10
1018.8212192142857
 20
-12.122557023809524
 10
1018.822271
 20
-12.121821
 10
1018.8234138809523
 20
-12.12038623809524
 10
1018.824358
 20
-12.119201
 10
1018.8253114047619
 20
-12.117293095238095
 10
1018.826099
 20
-12.115717
 10
1018.8268169285715
 20
-12.11343288095238
 10
1018.82741
 20
-12.111546
 10
1018.8278557619047
 20
-12.108999023809524
 10
1018.828224
 20
-12.106895
 10
1018.8283745952381
 20
-12.104214404761905
 10
1018.828499
 20
-12.102
  0
LWPOLYLINE
  5
1DB
330
17
100
AcDbEntity
  8
VISTA
100
AcDbPolyline
 90
24
 70
1
 10
1021.7675
 20
-10.147209554831704
 10
1021.7675
 20
-10.8505
 10
1021.768042471227
 20
-10.852199134636265
 10
1021.768332
 20
-10.853106
 10
1021.7686488762215
 20
-10.853482209011943
 10
1021.768818
 20
-10.853683
 10
1021.7691948610207
 20
-10.854000528230184
 10
1021.769396
 20
-10.85417
 10
1021.7710944826276
 20
-10.854711167209555
 10
1021.772001
 20
-10.855
 10
1021.7824324869707
 20
-10.855
 10
1021.788
 20
-10.855
 10
1021.7896991346363
 20
-10.854458832790446
 10
1021.790606
 20
-10.85417
 10
1021.790982209012
 20
-10.853852471769816
 10
1021.791183
 20
-10.853683
 10
1021.7913524717699
 20
-10.853482209011943
 10
1021.79167
 20
-10.853106
 10
1021.7919591807818
 20
-10.852199134636265
 10
1021.792501
 20
-10.8505
 10
1021.792501
 20
-10.147209554831704
 10
1021.792501
 20
-9.1
 10
1021.7675
 20
-9.1
 10
1021.7675
 20
-10.147209554831704
  0
LWPOLYLINE
  5
1DC
330
17
100
AcDbEntity
  8
VISTA
100
AcDbPolyline
 90
41
 70
1
 10
1021.1159908650793
 20
-10.886386785714285
 10
1021.11574
 20
-10.886684
 10
1021.1154295714285
 20
-10.887658190476191
 10
1021.115002
 20
-10.889
 10
1021.115002
 20
-11.184285714285714
 10
1021.115002
 20
-11.591
 10
1021.1153124285714
 20
-11.59197376984127
 10
1021.11574
 20
-11.593315
 10
1021.1159221349207
 20
-11.593530785714286
 10
1021.116173
 20
-11.593828
 10
1021.1163887857143
 20
-11.594010134920635
 10
1021.116686
 20
-11.594261
 10
1021.1176597698412
 20
-11.594571428571427
 10
1021.119001
 20
-11.594999
 10
1021.3974608968254
 20
-11.594999
 10
1021.781
 20
-11.594999
 10
1021.7819741904761
 20
-11.594688571428572
 10
1021.783316
 20
-11.594261
 10
1021.7835317857143
 20
-11.594078865079364
 10
1021.783829
 20
-11.593828
 10
1021.7840798650793
 20
-11.593530785714286
 10
1021.784262
 20
-11.593315
 10
1021.7846895714285
 20
-11.59197376984127
 10
1021.785
 20
-11.591
 10
1021.785
 20
-11.184285714285714
 10
1021.785
 20
-10.889
 10
1021.7845724285714
 20
-10.887658190476191
 10
1021.784262
 20
-10.886684
 10
1021.7840111349207
 20
-10.886386785714285
 10
1021.783829
 20
-10.886171
 10
1021.7835317857143
 20
-10.885920134920635
 10
1021.783316
 20
-10.885738
 10
1021.7819741904761
 20
-10.885310428571428
 10
1021.781
 20
-10.885
 10
1021.3974608968254
 20
-10.885
 10
1021.119001
 20
-10.885
 10
1021.1176597698412
 20
-10.885427571428572
 10
1021.116686
 20
-10.885738
 10
1021.1163887857143
 20
-10.885988865079364
 10
1021.116173
 20
-10.886171
 10
1021.1159908650793
 20
-10.886386785714285
  0
LWPOLYLINE
  5
1DD
330
17
100
AcDbEntity
  8
VISTA
100
AcDbPolyline
 90
41
 70
1
 10
1021.0879182595108
 20
-10.906473217391305
 10
1021.08774
 20
-10.906684
 10
1021.0873058233695
 20
-10.90804594972826
 10
1021.087002
 20
-10.908999
 10
1021.087002
 20
-11.298464262228261
 10
1021.087002
 20
-11.571
 10
1021.0874361766305
 20
-11.572362538043478
 10
1021.08774
 20
-11.573316
 10
1021.0879947404891
 20
-11.573617217391305
 10
1021.088173
 20
-11.573828
 10
1021.0884748057065
 20
-11.574083328804347
 10
1021.088686
 20
-11.574262
 10
1021.0900485380434
 20
-11.574696176630434
 10
1021.091002
 20
-11.575
 10
1021.1004138668478
 20
-11.575
 10
1021.107
 20
-11.575
 10
1021.1083625380435
 20
-11.574565823369564
 10
1021.109316
 20
-11.574262
 10
1021.1096178057065
 20
-11.574006671195653
 10
1021.109829
 20
-11.573828
 10
1021.1100072595109
 20
-11.573617217391305
 10
1021.110262
 20
-11.573316
 10
1021.1105658233696
 20
-11.572362538043478
 10
1021.111
 20
-11.571
 10
1021.111
 20
-11.298464262228261
 10
1021.111
 20
-10.908999
 10
1021.1106961766304
 20
-10.90804594972826
 10
1021.110262
 20
-10.906684
 10
1021.1100837404891
 20
-10.906473217391305
 10
1021.109829
 20
-10.906172
 10
1021.1096178057065
 20
-10.905993328804348
 10
1021.109316
 20
-10.905738
 10
1021.1083625380435
 20
-10.905434176630434
 10
1021.107
 20
-10.905
 10
1021.1004138668478
 20
-10.905
 10
1021.091002
 20
-10.905
 10
1021.0900485380434
 20
-10.905303823369564
 10
1021.088686
 20
-10.905738
 10
1021.0884748057065
 20
-10.905916671195651
 10
1021.088173
 20
-10.906172
 10
1021.0879182595108
 20
-10.906473217391305
  0
LWPOLYLINE
  5
1DE
330
17
100
AcDbEntity
  8
VISTA
100
AcDbPolyline
 90
41
 70
1
 10
1021.0539232119628
 20
-10.969585497289973
 10
1021.053814
 20
-10.969715
 10
1021.0536869878049
 20
-10.970111761904763
 10
1021.053499
 20
-10.970699
 10
1021.053499
 20
-10.978199170925281
 10
1021.053499
 20
-10.9893
 10
1021.0536260121951
 20
-10.989696761904762
 10
1021.053814
 20
-10.990284
 10
1021.0538877880372
 20
-10.990371497289974
 10
1021.053997
 20
-10.990501
 10
1021.0540853037166
 20
-10.990575191250484
 10
1021.054216
 20
-10.990685
 10
1021.0546131651181
 20
-10.990811608981804
 10
1021.055201
 20
-10.990999
 10
1021.0639096012388
 20
-10.990999
 10
1021.076799
 20
-10.990999
 10
1021.077196165118
 20
-10.990872391018195
 10
1021.077784
 20
-10.990685
 10
1021.0778723037166
 20
-10.990610808749516
 10
1021.078003
 20
-10.990501
 10
1021.0781122119629
 20
-10.990371497289974
 10
1021.078186
 20
-10.990284
 10
1021.0783739878049
 20
-10.989696761904762
 10
1021.078501
 20
-10.9893
 10
1021.078501
 20
-10.978199170925281
 10
1021.078501
 20
-10.970699
 10
1021.0783130121952
 20
-10.970111761904763
 10
1021.078186
 20
-10.969715
 10
1021.0780767880372
 20
-10.969585497289973
 10
1021.078003
 20
-10.969498
 10
1021.0778723037166
 20
-10.969388191250484
 10
1021.077784
 20
-10.969314
 10
1021.077196165118
 20
-10.969126608981805
 10
1021.076799
 20
-10.969
 10
1021.0639096012388
 20
-10.969
 10
1021.055201
 20
-10.969
 10
1021.0546131651181
 20
-10.969187391018195
 10
1021.054216
 20
-10.969314
 10
1021.0540853037166
 20
-10.969423808749516
 10
1021.053997
 20
-10.969498
 10
1021.0539232119628
 20
-10.969585497289973
  0
LWPOLYLINE
  5
1DF
330
17
100
AcDbEntity
  8
VISTA
100
AcDbPolyline
 90
9
 70
1
 10
1021.400002
 20
-12.12
 10
1021.400002
 20
-12.105479515999999
 10
1021.400002
 20
-12.089999
 10
1021.370961032
 20
-12.089999
 10
1021.34
 20
-12.089999
 10
1021.34
 20
-12.104519484
 10
1021.34
 20
-12.12
 10
1021.369040968
 20
-12.12
 10
1021.400002
 20
-12.12
  0
LWPOLYLINE
  5
1E0
330
17
100
AcDbEntity
  8
VISTA
100
AcDbPolyline
 90
9
 70
1
 10
1019.620001
 20
-12.12
 10
1019.620001
 20
-12.105479515999999
 10
1019.620001
 20
-12.089999
 10
1019.600640516
 20
-12.089999
 10
1019.58
 20
-12.089999
 10
1019.58
 20
-12.104519484
 10
1019.58
 20
-12.12
 10
1019.599360484
 20
-12.12
 10
1019.620001
 20
-12.12
  0
LWPOLYLINE
  5
1E1
330
17
100
AcDbEntity
  8
VISTA
100
AcDbPolyline
 90
13
 70
1
 10
1019.500586
 20
-11.912086
 10
1019.5
 20
-11.9135
 10
1019.5
 20
-11.9545
 10
1019.500586
 20
-11.955914
 10
1019.502001
 20
-11.9565
 10
1019.538
 20
-11.9565
 10
1019.539415
 20
-11.955914
 10
1019.540001
 20
-11.9545
 10
1019.540001
 20
-11.9135
 10
1019.539415
 20
-11.912086
 10
1019.538
 20
-11.9115
 10
1019.502001
 20
-11.9115
 10
1019.500586
 20
-11.912086
  0
LWPOLYLINE
  5
1E2
330
17
100
AcDbEntity
  8
VISTA
100
AcDbPolyline
 90
13
 70
1
 10
1021.175585
 20
-11.912086
 10
1021.174999
 20
-11.9135
 10
1021.174999
 20
-11.9545
 10
1021.175585
 20
-11.955914
 10
1021.177
 20
-11.9565
 10
1021.212999
 20
-11.9565
 10
1021.214415
 20
-11.955914
 10
1021.215
 20
-11.9545
 10
1021.215
 20
-11.9135
 10
1021.214415
 20
-11.912086
 10
1021.212999
 20
-11.9115
 10
1021.177
 20
-11.9115
 10
1021.175585
 20
-11.912086
  0
LWPOLYLINE
  5
1E3
330
17
100
AcDbEntity
  8
VISTA
100
AcDbPolyline
 90
13
 70
1
 10
1021.083378
 20
-11.877378
 10
1021.082499
 20
-11.8795
 10
1021.082499
 20
-11.898499
 10
1021.083378
 20
-11.900621
 10
1021.085499
 20
-11.9015
 10
1021.1045
 20
-11.9015
 10
1021.106621
 20
-11.900621
 10
1021.1075
 20
-11.898499
 10
1021.1075
 20
-11.8795
 10
1021.106621
 20
-11.877378
 10
1021.1045
 20
-11.8765
 10
1021.085499
 20
-11.8765
 10
1021.083378
 20
-11.877378
  0
LWPOLYLINE
  5
1E4
330
17
100
AcDbEntity
  8
VISTA
100
AcDbPolyline
 90
8
 70
1
 10
1021.807501
 20
-12.192369
 10
1021.794235
 20
-12.186873
 10
1021.780001
 20
-12.184999
 10
1021.765766
 20
-12.186873
 10
1021.752501
 20
-12.192369
 10
1021.7425553797483
 20
-12.2
 10
1021.8174466202518
 20
-12.2
 10
1021.807501
 20
-12.192369
  0
TEXT
  5
1E5
330
17
100
AcDbEntity
  8
TEXTOS
100
AcDbText
 10
1020.2
 20
-12.0
 30
0.0
 40
0.0675
  1
NPT +3,25
100
AcDbText
  0
ENDSEC
  0
SECTION
  2
OBJECTS
  0
DICTIONARY
  5
A
330
0
100
AcDbDictionary
281
1
  3
ACAD_COLOR
350
B
  3
ACAD_GROUP
350
C
  3
ACAD_LAYOUT
350
D
  3
ACAD_MATERIAL
350
E
  3
ACAD_MLEADERSTYLE
350
F
  3
ACAD_MLINESTYLE
350
10
  3
ACAD_PLOTSETTINGS
350
11
  3
ACAD_PLOTSTYLENAME
350
12
  3
ACAD_SCALELIST
350
14
  3
ACAD_TABLESTYLE
350
15
  3
ACAD_VISUALSTYLE
350
16
  3
EZDXF_META
350
2D
  0
DICTIONARY
  5
B
330
A
100
AcDbDictionary
281
1
  0
DICTIONARY
  5
C
330
A
100
AcDbDictionary
281
1
  0
DICTIONARY
  5
D
330
A
100
AcDbDictionary
281
1
  3
Model
350
1A
  3
Layout1
350
1E
  0
DICTIONARY
  5
E
330
A
100
AcDbDictionary
281
1
  3
ByBlock
350
1F
  3
ByLayer
350
20
  3
Global
350
21
  0
DICTIONARY
  5
F
330
A
100
AcDbDictionary
281
1
  3
Standard
350
2C
  0
DICTIONARY
  5
10
330
A
100
AcDbDictionary
281
1
  3
Standard
350
22
  0
DICTIONARY
  5
11
330
A
100
AcDbDictionary
281
1
  0
ACDBDICTIONARYWDFLT
  5
12
330
A
100
AcDbDictionary
281
1
  3
Normal
350
13
100
AcDbDictionaryWithDefault
340
13
  0
ACDBPLACEHOLDER
  5
13
330
12
  0
DICTIONARY
  5
14
330
A
100
AcDbDictionary
281
1
  0
DICTIONARY
  5
15
330
A
100
AcDbDictionary
281
1
  0
DICTIONARY
  5
16
330
A
100
AcDbDictionary
281
1
  0
LAYOUT
  5
1A
330
D
100
AcDbPlotSettings
  1

  4
A3
  6

 40
7.5
 41
20.0
 42
7.5
 43
20.0
 44
420.0
 45
297.0
 46
0.0
 47
0.0
 48
0.0
 49
0.0
140
0.0
141
0.0
142
1.0
143
1.0
 70
1024
 72
1
 73
0
 74
5
  7

 75
16
 76
0
 77
2
 78
300
147
1.0
148
0.0
149
0.0
100
AcDbLayout
  1
Model
 70
1
 71
0
 10
0.0
 20
0.0
 11
420.0
 21
297.0
 12
0.0
 22
0.0
 32
0.0
 14
1e+20
 24
1e+20
 34
1e+20
 15
-1e+20
 25
-1e+20
 35
-1e+20
146
0.0
 13
0.0
 23
0.0
 33
0.0
 16
1.0
 26
0.0
 36
0.0
 17
0.0
 27
1.0
 37
0.0
 76
1
330
17
  0
LAYOUT
  5
1E
330
D
100
AcDbPlotSettings
  1

  4
A3
  6

 40
7.5
 41
20.0
 42
7.5
 43
20.0
 44
420.0
 45
297.0
 46
0.0
 47
0.0
 48
0.0
 49
0.0
140
0.0
141
0.0
142
1.0
143
1.0
 70
0
 72
1
 73
0
 74
5
  7

 75
16
 76
0
 77
2
 78
300
147
1.0
148
0.0
149
0.0
100
AcDbLayout
  1
Layout1
 70
1
 71
1
 10
0.0
 20
0.0
 11
420.0
 21
297.0
 12
0.0
 22
0.0
 32
0.0
 14
1e+20
 24
1e+20
 34
1e+20
 15
-1e+20
 25
-1e+20
 35
-1e+20
146
0.0
 13
0.0
 23
0.0
 33
0.0
 16
1.0
 26
0.0
 36
0.0
 17
0.0
 27
1.0
 37
0.0
 76
1
330
1B
  0
MATERIAL
  5
1F
102
{ACAD_REACTORS
330
E
102
}
330
E
100
AcDbMaterial
  1
ByBlock
  2

 70
0
 40
1.0
 71
1
 41
1.0
 91
-1023410177
 42
1.0
 72
1
  3

 73
1
 74
1
 75
1
 44
0.5
 73
0
 45
1.0
 46
1.0
 77
1
  4

 78
1
 79
1
170
1
 48
1.0
171
1
  6

172
1
173
1
174
1
140
1.0
141
1.0
175
1
  7

176
1
177
1
178
1
143
1.0
179
1
  8

270
1
271
1
272
1
145
1.0
146
1.0
273
1
  9

274
1
275
1
276
1
 42
1.0
 72
1
  3

 73
1
 74
1
 75
1
 94
63
  0
MATERIAL
  5
20
102
{ACAD_REACTORS
330
E
102
}
330
E
100
AcDbMaterial
  1
ByLayer
  2

 70
0
 40
1.0
 71
1
 41
1.0
 91
-1023410177
 42
1.0
 72
1
  3

 73
1
 74
1
 75
1
 44
0.5
 73
0
 45
1.0
 46
1.0
 77
1
  4

 78
1
 79
1
170
1
 48
1.0
171
1
  6

172
1
173
1
174
1
140
1.0
141
1.0
175
1
  7

176
1
177
1
178
1
143
1.0
179
1
  8

270
1
271
1
272
1
145
1.0
146
1.0
273
1
  9

274
1
275
1
276
1
 42
1.0
 72
1
  3

 73
1
 74
1
 75
1
 94
63
  0
MATERIAL
  5
21
102
{ACAD_REACTORS
330
E
102
}
330
E
100
AcDbMaterial
  1
Global
  2

 70
0
 40
1.0
 71
1
 41
1.0
 91
-1023410177
 42
1.0
 72
1
  3

 73
1
 74
1
 75
1
 44
0.5
 73
0
 45
1.0
 46
1.0
 77
1
  4

 78
1
 79
1
170
1
 48
1.0
171
1
  6

172
1
173
1
174
1
140
1.0
141
1.0
175
1
  7

176
1
177
1
178
1
143
1.0
179
1
  8

270
1
271
1
272
1
145
1.0
146
1.0
273
1
  9

274
1
275
1
276
1
 42
1.0
 72
1
  3

 73
1
 74
1
 75
1
 94
63
  0
MLINESTYLE
  5
22
102
{ACAD_REACTORS
330
10
102
}
330
10
100
AcDbMlineStyle
  2
Standard
 70
0
  3

 62
256
 51
90.0
 52
90.0
 71
2
 49
0.5
 62
256
  6
BYLAYER
 49
-0.5
 62
256
  6
BYLAYER
  0
MLEADERSTYLE
  5
2C
102
{ACAD_REACTORS
330
F
102
}
330
F
100
AcDbMLeaderStyle
179
2
170
2
171
1
172
0
 90
2
 40
0.0
 41
0.0
173
1
 91
-1056964608
 92
-2
290
1
 42
2.0
291
1
 43
8.0
  3
Standard
 44
4.0
300

342
29
174
1
175
1
176
0
178
1
 93
-1056964608
 45
4.0
292
0
297
0
 46
4.0
 94
-1056964608
 47
1.0
 49
1.0
140
1.0
294
1
141
0.0
177
0
142
1.0
295
0
296
0
143
3.75
271
0
272
9
273
9
  0
DICTIONARY
  5
2D
330
A
100
AcDbDictionary
280
1
281
1
  3
CREATED_BY_EZDXF
350
2E
  3
WRITTEN_BY_EZDXF
350
1E8
  0
DICTIONARYVAR
  5
2E
330
2D
100
DictionaryVariables
280
0
  1
1.4.4 @ 2026-09-10T18:24:43.747011+00:00
  0
DICTIONARYVAR
  5
1E8
330
2D
100
DictionaryVariables
280
0
  1
1.4.4 @ 2026-09-10T18:24:44.033608+00:00
  0
ENDSEC
  0
EOF
