  0
SECTION
  2
HEADER
  9
$ACADVER
  1
AC1024
  9
$ACADMAINTVER
 70
6
  9
$DWGCODEPAGE
  3
ANSI_1252
  9
$LASTSAVEDBY
  1
ezdxf
  9
$INSBASE
 10
0.0
 20
0.0
 30
0.0
  9
$EXTMIN
 10
1e+20
 20
1e+20
 30
1e+20
  9
$EXTMAX
 10
-1e+20
 20
-1e+20
 30
-1e+20
  9
$LIMMIN
 10
0.0
 20
0.0
  9
$LIMMAX
 10
420.0
 20
297.0
  9
$ORTHOMODE
 70
0
  9
$REGENMODE
 70
1
  9
$FILLMODE
 70
1
  9
$QTEXTMODE
 70
0
  9
$MIRRTEXT
 70
1
  9
$LTSCALE
 40
1.0
  9
$ATTMODE
 70
1
  9
$TEXTSIZE
 40
2.5
  9
$TRACEWID
 40
1.0
  9
$TEXTSTYLE
  7
Standard
  9
$CLAYER
  8
0
  9
$CELTYPE
  6
ByLayer
  9
$CECOLOR
 62
256
  9
$CELTSCALE
 40
1.0
  9
$DISPSILH
 70
0
  9
$DIMSCALE
 40
1.0
  9
$DIMASZ
 40
2.5
  9
$DIMEXO
 40
0.625
  9
$DIMDLI
 40
3.75
  9
$DIMRND
 40
0.0
  9
$DIMDLE
 40
0.0
  9
$DIMEXE
 40
1.25
  9
$DIMTP
 40
0.0
  9
$DIMTM
 40
0.0
  9
$DIMTXT
 40
2.5
  9
$DIMCEN
 40
2.5
  9
$DIMTSZ
 40
0.0
  9
$DIMTOL
 70
0
  9
$DIMLIM
 70
0
  9
$DIMTIH
 70
0
  9
$DIMTOH
 70
0
  9
$DIMSE1
 70
0
  9
$DIMSE2
 70
0
  9
$DIMTAD
 70
1
  9
$DIMZIN
 70
8
  9
$DIMBLK
  1

  9
$DIMASO
 70
1
  9
$DIMSHO
 70
1
  9
$DIMPOST
  1

  9
$DIMAPOST
  1

  9
$DIMALT
 70
0
  9
$DIMALTD
 70
3
  9
$DIMALTF
 40
0.03937007874
  9
$DIMLFAC
 40
1.0
  9
$DIMTOFL
 70
1
  9
$DIMTVP
 40
0.0
  9
$DIMTIX
 70
0
  9
$DIMSOXD
 70
0
  9
$DIMSAH
 70
0
  9
$DIMBLK1
  1

  9
$DIMBLK2
  1

  9
$DIMSTYLE
  2
ISO-25
  9
$DIMCLRD
 70
0
  9
$DIMCLRE
 70
0
  9
$DIMCLRT
 70
0
  9
$DIMTFAC
 40
1.0
  9
$DIMGAP
 40
0.625
  9
$DIMJUST
 70
0
  9
$DIMSD1
 70
0
  9
$DIMSD2
 70
0
  9
$DIMTOLJ
 70
0
  9
$DIMTZIN
 70
8
  9
$DIMALTZ
 70
0
  9
$DIMALTTZ
 70
0
  9
$DIMUPT
 70
0
  9
$DIMDEC
 70
2
  9
$DIMTDEC
 70
2
  9
$DIMALTU
 70
2
  9
$DIMALTTD
 70
3
  9
$DIMTXSTY
  7
Standard
  9
$DIMAUNIT
 70
0
  9
$DIMADEC
 70
0
  9
$DIMALTRND
 40
0.0
  9
$DIMAZIN
 70
0
  9
$DIMDSEP
 70
44
  9
$DIMATFIT
 70
3
  9
$DIMFRAC
 70
0
  9
$DIMLDRBLK
  1

  9
$DIMLUNIT
 70
2
  9
$DIMLWD
 70
-2
  9
$DIMLWE
 70
-2
  9
$DIMTMOVE
 70
0
  9
$DIMFXL
 40
1.0
  9
$DIMFXLON
 70
0
  9
$DIMJOGANG
 40
0.785398163397
  9
$DIMTFILL
 70
0
  9
$DIMTFILLCLR
 70
0
  9
$DIMARCSYM
 70
0
  9
$DIMLTYPE
  6

  9
$DIMLTEX1
  6

  9
$DIMLTEX2
  6

  9
$DIMTXTDIRECTION
 70
0
  9
$LUNITS
 70
2
  9
$LUPREC
 70
4
  9
$SKETCHINC
 40
1.0
  9
$FILLETRAD
 40
10.0
  9
$AUNITS
 70
0
  9
$AUPREC
 70
2
  9
$MENU
  1
.
  9
$ELEVATION
 40
0.0
  9
$PELEVATION
 40
0.0
  9
$THICKNESS
 40
0.0
  9
$LIMCHECK
 70
0
  9
$CHAMFERA
 40
0.0
  9
$CHAMFERB
 40
0.0
  9
$CHAMFERC
 40
0.0
  9
$CHAMFERD
 40
0.0
  9
$SKPOLY
 70
0
  9
$TDCREATE
 40
2461294.8237962965
  9
$TDUCREATE
 40
2458532.153996898
  9
$TDUPDATE
 40
2461294.8237962965
  9
$TDUUPDATE
 40
2458532.1544311
  9
$TDINDWG
 40
0.0
  9
$TDUSRTIMER
 40
0.0
  9
$USRTIMER
 70
1
  9
$ANGBASE
 50
0.0
  9
$ANGDIR
 70
0
  9
$PDMODE
 70
0
  9
$PDSIZE
 40
0.0
  9
$PLINEWID
 40
0.0
  9
$SPLFRAME
 70
0
  9
$SPLINETYPE
 70
6
  9
$SPLINESEGS
 70
8
  9
$HANDSEED
  5
1D0
  9
$SURFTAB1
 70
6
  9
$SURFTAB2
 70
6
  9
$SURFTYPE
 70
6
  9
$SURFU
 70
6
  9
$SURFV
 70
6
  9
$UCSBASE
  2

  9
$UCSNAME
  2

  9
$UCSORG
 10
0.0
 20
0.0
 30
0.0
  9
$UCSXDIR
 10
1.0
 20
0.0
 30
0.0
  9
$UCSYDIR
 10
0.0
 20
1.0
 30
0.0
  9
$UCSORTHOREF
  2

  9
$UCSORTHOVIEW
 70
0
  9
$UCSORGTOP
 10
0.0
 20
0.0
 30
0.0
  9
$UCSORGBOTTOM
 10
0.0
 20
0.0
 30
0.0
  9
$UCSORGLEFT
 10
0.0
 20
0.0
 30
0.0
  9
$UCSORGRIGHT
 10
0.0
 20
0.0
 30
0.0
  9
$UCSORGFRONT
 10
0.0
 20
0.0
 30
0.0
  9
$UCSORGBACK
 10
0.0
 20
0.0
 30
0.0
  9
$PUCSBASE
  2

  9
$PUCSNAME
  2

  9
$PUCSORG
 10
0.0
 20
0.0
 30
0.0
  9
$PUCSXDIR
 10
1.0
 20
0.0
 30
0.0
  9
$PUCSYDIR
 10
0.0
 20
1.0
 30
0.0
  9
$PUCSORTHOREF
  2

  9
$PUCSORTHOVIEW
 70
0
  9
$PUCSORGTOP
 10
0.0
 20
0.0
 30
0.0
  9
$PUCSORGBOTTOM
 10
0.0
 20
0.0
 30
0.0
  9
$PUCSORGLEFT
 10
0.0
 20
0.0
 30
0.0
  9
$PUCSORGRIGHT
 10
0.0
 20
0.0
 30
0.0
  9
$PUCSORGFRONT
 10
0.0
 20
0.0
 30
0.0
  9
$PUCSORGBACK
 10
0.0
 20
0.0
 30
0.0
  9
$USERI1
 70
0
  9
$USERI2
 70
0
  9
$USERI3
 70
0
  9
$USERI4
 70
0
  9
$USERI5
 70
0
  9
$USERR1
 40
0.0
  9
$USERR2
 40
0.0
  9
$USERR3
 40
0.0
  9
$USERR4
 40
0.0
  9
$USERR5
 40
0.0
  9
$WORLDVIEW
 70
1
  9
$SHADEDGE
 70
3
  9
$SHADEDIF
 70
70
  9
$TILEMODE
 70
1
  9
$MAXACTVP
 70
64
  9
$PINSBASE
 10
0.0
 20
0.0
 30
0.0
  9
$PLIMCHECK
 70
0
  9
$PEXTMIN
 10
1e+20
 20
1e+20
 30
1e+20
  9
$PEXTMAX
 10
-1e+20
 20
-1e+20
 30
-1e+20
  9
$PLIMMIN
 10
0.0
 20
0.0
  9
$PLIMMAX
 10
420.0
 20
297.0
  9
$UNITMODE
 70
0
  9
$VISRETAIN
 70
1
  9
$PLINEGEN
 70
0
  9
$PSLTSCALE
 70
1
  9
$TREEDEPTH
 70
3020
  9
$CMLSTYLE
  2
Standard
  9
$CMLJUST
 70
0
  9
$CMLSCALE
 40
20.0
  9
$PROXYGRAPHICS
 70
1
  9
$MEASUREMENT
 70
1
  9
$CELWEIGHT
370
-1
  9
$ENDCAPS
280
0
  9
$JOINSTYLE
280
0
  9
$LWDISPLAY
290
0
  9
$INSUNITS
 70
6
  9
$HYPERLINKBASE
  1

  9
$STYLESHEET
  1

  9
$XEDIT
290
1
  9
$CEPSNTYPE
380
0
  9
$PSTYLEMODE
290
1
  9
$FINGERPRINTGUID
  2
{DB5A575A-7435-4C0B-995E-00F68C294E21}
  9
$VERSIONGUID
  2
{E1C7074F-70E9-4F41-8292-21D4EAF409C8}
  9
$EXTNAMES
290
1
  9
$PSVPSCALE
 40
0.0
  9
$OLESTARTUP
290
0
  9
$SORTENTS
280
127
  9
$INDEXCTL
280
0
  9
$HIDETEXT
280
1
  9
$XCLIPFRAME
280
1
  9
$HALOGAP
280
0
  9
$OBSCOLOR
 70
257
  9
$OBSLTYPE
280
0
  9
$INTERSECTIONDISPLAY
280
0
  9
$INTERSECTIONCOLOR
 70
257
  9
$DIMASSOC
280
2
  9
$PROJECTNAME
  1

  9
$CAMERADISPLAY
290
0
  9
$LENSLENGTH
 40
50.0
  9
$CAMERAHEIGHT
 40
0.0
  9
$STEPSPERSEC
 40
24.0
  9
$STEPSIZE
 40
100.0
  9
$3DDWFPREC
 40
2.0
  9
$PSOLWIDTH
 40
0.005
  9
$PSOLHEIGHT
 40
0.08
  9
$LOFTANG1
 40
1.570796326795
  9
$LOFTANG2
 40
1.570796326795
  9
$LOFTMAG1
 40
0.0
  9
$LOFTMAG2
 40
0.0
  9
$LOFTPARAM
 70
7
  9
$LOFTNORMALS
280
1
  9
$LATITUDE
 40
37.795
  9
$LONGITUDE
 40
-122.394
  9
$NORTHDIRECTION
 40
0.0
  9
$TIMEZONE
 70
-8000
  9
$LIGHTGLYPHDISPLAY
280
1
  9
$TILEMODELIGHTSYNCH
280
1
  9
$CMATERIAL
347
20
  9
$SOLIDHIST
280
0
  9
$SHOWHIST
280
1
  9
$DWFFRAME
280
2
  9
$DGNFRAME
280
2
  9
$REALWORLDSCALE
290
1
  9
$INTERFERECOLOR
 62
256
  9
$CSHADOW
280
0
  9
$SHADOWPLANELOCATION
 40
0.0
  0
ENDSEC
  0
SECTION
  2
CLASSES
  0
CLASS
  1
ACDBDICTIONARYWDFLT
  2
AcDbDictionaryWithDefault
  3
ObjectDBX Classes
 90
0
 91
0
280
0
281
0
  0
CLASS
  1
SUN
  2
AcDbSun
  3
SCENEOE
 90
1153
 91
0
280
0
281
0
  0
CLASS
  1
VISUALSTYLE
  2
AcDbVisualStyle
  3
ObjectDBX Classes
 90
4095
 91
0
280
0
281
0
  0
CLASS
  1
MATERIAL
  2
AcDbMaterial
  3
ObjectDBX Classes
 90
1153
 91
0
280
0
281
0
  0
CLASS
  1
SCALE
  2
AcDbScale
  3
ObjectDBX Classes
 90
1153
 91
0
280
0
281
0
  0
CLASS
  1
TABLESTYLE
  2
AcDbTableStyle
  3
ObjectDBX Classes
 90
4095
 91
0
280
0
281
0
  0
CLASS
  1
MLEADERSTYLE
  2
AcDbMLeaderStyle
  3
ACDB_MLEADERSTYLE_CLASS
 90
4095
 91
0
280
0
281
0
  0
CLASS
  1
DICTIONARYVAR
  2
AcDbDictionaryVar
  3
ObjectDBX Classes
 90
0
 91
0
280
0
281
0
  0
CLASS
  1
CELLSTYLEMAP
  2
AcDbCellStyleMap
  3
ObjectDBX Classes
 90
1152
 91
0
280
0
281
0
  0
CLASS
  1
MENTALRAYRENDERSETTINGS
  2
AcDbMentalRayRenderSettings
  3
SCENEOE
 90
1024
 91
0
280
0
281
0
  0
CLASS
  1
ACDBDETAILVIEWSTYLE
  2
AcDbDetailViewStyle
  3
ObjectDBX Classes
 90
1025
 91
0
280
0
281
0
  0
CLASS
  1
ACDBSECTIONVIEWSTYLE
  2
AcDbSectionViewStyle
  3
ObjectDBX Classes
 90
1025
 91
0
280
0
281
0
  0
CLASS
  1
RASTERVARIABLES
  2
AcDbRasterVariables
  3
ISM
 90
0
 91
0
280
0
281
0
  0
CLASS
  1
ACDBPLACEHOLDER
  2
AcDbPlaceHolder
  3
ObjectDBX Classes
 90
0
 91
0
280
0
281
0
  0
CLASS
  1
LAYOUT
  2
AcDbLayout
  3
ObjectDBX Classes
 90
0
 91
0
280
0
281
0
  0
ENDSEC
  0
SECTION
  2
TABLES
  0
TABLE
  2
VPORT
  5
8
330
0
100
AcDbSymbolTable
 70
1
  0
VPORT
  5
23
330
8
100
AcDbSymbolTableRecord
100
AcDbViewportTableRecord
  2
*Active
 70
0
 10
0.0
 20
0.0
 11
1.0
 21
1.0
 12
0.0
 22
0.0
 13
0.0
 23
0.0
 14
0.5
 24
0.5
 15
0.5
 25
0.5
 16
0.0
 26
0.0
 36
1.0
 17
0.0
 27
0.0
 37
0.0
 40
1000.0
 41
1.34
 42
50.0
 43
0.0
 44
0.0
 50
0.0
 51
0.0
 71
0
 72
1000
 73
1
 74
3
 75
0
 76
0
 77
0
 78
0
281
0
 65
0
146
0.0
  0
ENDTAB
  0
TABLE
  2
LTYPE
  5
2
330
0
100
AcDbSymbolTable
 70
3
  0
LTYPE
  5
24
330
2
100
AcDbSymbolTableRecord
100
AcDbLinetypeTableRecord
  2
ByBlock
 70
0
  3

 72
65
 73
0
 40
0.0
  0
LTYPE
  5
25
330
2
100
AcDbSymbolTableRecord
100
AcDbLinetypeTableRecord
  2
ByLayer
 70
0
  3

 72
65
 73
0
 40
0.0
  0
LTYPE
  5
26
330
2
100
AcDbSymbolTableRecord
100
AcDbLinetypeTableRecord
  2
Continuous
 70
0
  3

 72
65
 73
0
 40
0.0
  0
ENDTAB
  0
TABLE
  2
LAYER
  5
1
330
0
100
AcDbSymbolTable
 70
7
  0
LAYER
  5
27
330
1
100
AcDbSymbolTableRecord
100
AcDbLayerTableRecord
  2
0
 70
0
 62
7
  6
Continuous
370
-3
390
13
347
21
  0
LAYER
  5
28
330
1
100
AcDbSymbolTableRecord
100
AcDbLayerTableRecord
  2
Defpoints
 70
0
 62
7
  6
Continuous
290
0
370
-3
390
13
347
21
  0
LAYER
  5
2F
330
1
100
AcDbSymbolTableRecord
100
AcDbLayerTableRecord
  2
G_MEDIDO
 70
0
 62
8
  6
Continuous
370
-3
390
13
347
21
  0
LAYER
  5
30
330
1
100
AcDbSymbolTableRecord
100
AcDbLayerTableRecord
  2
P_PROPUESTO
 70
0
 62
5
  6
Continuous
370
-3
390
13
347
21
  0
LAYER
  5
31
330
1
100
AcDbSymbolTableRecord
100
AcDbLayerTableRecord
  2
COTAS
 70
0
 62
4
  6
Continuous
370
-3
390
13
347
21
  0
LAYER
  5
32
330
1
100
AcDbSymbolTableRecord
100
AcDbLayerTableRecord
  2
TEXTOS
 70
0
 62
7
  6
Continuous
370
-3
390
13
347
21
  0
LAYER
  5
33
330
1
100
AcDbSymbolTableRecord
100
AcDbLayerTableRecord
  2
REVISAR
 70
0
 62
30
  6
Continuous
370
-3
390
13
347
21
  0
ENDTAB
  0
TABLE
  2
STYLE
  5
5
330
0
100
AcDbSymbolTable
 70
1
  0
STYLE
  5
29
330
5
100
AcDbSymbolTableRecord
100
AcDbTextStyleTableRecord
  2
Standard
 70
0
 40
0.0
 41
1.0
 50
0.0
 71
0
 42
2.5
  3
txt
  4

  0
ENDTAB
  0
TABLE
  2
VIEW
  5
7
330
0
100
AcDbSymbolTable
 70
0
  0
ENDTAB
  0
TABLE
  2
UCS
  5
6
330
0
100
AcDbSymbolTable
 70
0
  0
ENDTAB
  0
TABLE
  2
APPID
  5
3
330
0
100
AcDbSymbolTable
 70
3
  0
APPID
  5
2A
330
3
100
AcDbSymbolTableRecord
100
AcDbRegAppTableRecord
  2
ACAD
 70
0
  0
APPID
  5
1CD
330
3
100
AcDbSymbolTableRecord
100
AcDbRegAppTableRecord
  2
HATCHBACKGROUNDCOLOR
 70
0
  0
APPID
  5
1CE
330
3
100
AcDbSymbolTableRecord
100
AcDbRegAppTableRecord
  2
EZDXF
 70
0
  0
ENDTAB
  0
TABLE
  2
DIMSTYLE
  5
4
330
0
100
AcDbSymbolTable
 70
1
100
AcDbDimStyleTable
  0
DIMSTYLE
105
2B
330
4
100
AcDbSymbolTableRecord
100
AcDbDimStyleTableRecord
  2
Standard
 70
0
 40
1.0
 41
2.5
 42
0.625
 43
3.75
 44
1.25
 45
0.0
 46
0.0
 47
0.0
 48
0.0
 49
2.5
140
2.5
141
2.5
142
0.0
143
0.03937007874
144
1.0
145
0.0
146
1.0
147
0.625
148
0.0
 69
0
 70
0
 71
0
 72
0
 73
0
 74
0
 75
0
 76
0
 77
1
 78
8
 79
3
170
0
171
3
172
1
173
0
174
0
175
0
176
0
177
0
178
0
179
2
271
2
272
2
273
2
274
3
275
0
276
0
277
2
278
44
279
0
280
0
281
0
282
0
283
0
284
8
285
0
286
0
288
0
289
3
290
0
371
-2
372
-2
  0
ENDTAB
  0
TABLE
  2
BLOCK_RECORD
  5
9
330
0
100
AcDbSymbolTable
 70
10
  0
BLOCK_RECORD
  5
17
330
9
100
AcDbSymbolTableRecord
100
AcDbBlockTableRecord
  2
*Model_Space
340
1A
 70
0
280
1
281
0
  0
BLOCK_RECORD
  5
1B
330
9
100
AcDbSymbolTableRecord
100
AcDbBlockTableRecord
  2
*Paper_Space
340
1E
 70
0
280
1
281
0
  0
BLOCK_RECORD
  5
E0
330
9
100
AcDbSymbolTableRecord
100
AcDbBlockTableRecord
  2
*D1
340
0
 70
0
280
1
281
0
  0
BLOCK_RECORD
  5
E5
330
9
100
AcDbSymbolTableRecord
100
AcDbBlockTableRecord
  2
_CLOSEDFILLED
340
0
 70
0
280
1
281
0
  0
BLOCK_RECORD
  5
F6
330
9
100
AcDbSymbolTableRecord
100
AcDbBlockTableRecord
  2
*D2
340
0
 70
0
280
1
281
0
  0
BLOCK_RECORD
  5
107
330
9
100
AcDbSymbolTableRecord
100
AcDbBlockTableRecord
  2
*D3
340
0
 70
0
280
1
281
0
  0
BLOCK_RECORD
  5
16F
330
9
100
AcDbSymbolTableRecord
100
AcDbBlockTableRecord
  2
*D4
340
0
 70
0
280
1
281
0
  0
BLOCK_RECORD
  5
181
330
9
100
AcDbSymbolTableRecord
100
AcDbBlockTableRecord
  2
*D5
340
0
 70
0
280
1
281
0
  0
BLOCK_RECORD
  5
1AB
330
9
100
AcDbSymbolTableRecord
100
AcDbBlockTableRecord
  2
*D6
340
0
 70
0
280
1
281
0
  0
BLOCK_RECORD
  5
1BC
330
9
100
AcDbSymbolTableRecord
100
AcDbBlockTableRecord
  2
*D7
340
0
 70
0
280
1
281
0
  0
ENDTAB
  0
ENDSEC
  0
SECTION
  2
BLOCKS
  0
BLOCK
  5
18
330
17
100
AcDbEntity
  8
0
100
AcDbBlockBegin
  2
*Model_Space
 70
0
 10
0.0
 20
0.0
 30
0.0
  3
*Model_Space
  1

  0
ENDBLK
  5
19
330
17
100
AcDbEntity
  8
0
100
AcDbBlockEnd
  0
BLOCK
  5
1C
330
1B
100
AcDbEntity
  8
0
100
AcDbBlockBegin
  2
*Paper_Space
 70
0
 10
0.0
 20
0.0
 30
0.0
  3
*Paper_Space
  1

  0
ENDBLK
  5
1D
330
1B
100
AcDbEntity
  8
0
100
AcDbBlockEnd
  0
BLOCK
  5
E1
330
E0
100
AcDbEntity
  8
0
100
AcDbBlockBegin
  2
*D1
 70
1
 10
0.0
 20
0.0
 30
0.0
  3
*D1
  1

  0
LINE
  5
E3
330
E0
100
AcDbEntity
  8
0
100
AcDbLine
 10
0.1675
 20
0.28
 30
0.0
 11
0.1675
 21
0.28
 31
0.0
  0
LINE
  5
E4
330
E0
100
AcDbEntity
  8
0
100
AcDbLine
 10
0.2025
 20
0.28
 30
0.0
 11
0.2025
 21
0.28
 31
0.0
  0
INSERT
  5
E9
330
E0
100
AcDbEntity
  8
COTAS
100
AcDbBlockReference
  2
_CLOSEDFILLED
 10
0.1675
 20
0.28
 30
0.0
 41
0.007
 42
0.007
  0
INSERT
  5
EB
330
E0
100
AcDbEntity
  8
COTAS
100
AcDbBlockReference
  2
_CLOSEDFILLED
 10
0.2025
 20
0.28
 30
0.0
 41
0.007
 42
0.007
 50
180.0
  0
LINE
  5
ED
330
E0
100
AcDbEntity
  8
0
100
AcDbLine
 10
0.1605
 20
0.28
 30
0.0
 11
0.1535
 21
0.28
 31
0.0
  0
LINE
  5
EE
330
E0
100
AcDbEntity
  8
0
100
AcDbLine
 10
0.20950000000000002
 20
0.28
 30
0.0
 11
0.21650000000000003
 21
0.28
 31
0.0
  0
LINE
  5
EF
330
E0
100
AcDbEntity
  8
0
100
AcDbLine
 10
0.1675
 20
0.28
 30
0.0
 11
0.1746
 21
0.28
 31
0.0
  0
LINE
  5
F0
330
E0
100
AcDbEntity
  8
0
100
AcDbLine
 10
0.1954
 20
0.28
 30
0.0
 11
0.2025
 21
0.28
 31
0.0
  0
MTEXT
  5
F1
330
E0
100
AcDbEntity
  8
COTAS
100
AcDbMText
 10
0.185
 20
0.28
 30
0.0
 40
0.0052
 71
5
  1
0,04
  0
POINT
  5
F2
330
E0
100
AcDbEntity
  8
Defpoints
100
AcDbPoint
 10
0.1675
 20
0.28
 30
0.0
  0
POINT
  5
F3
330
E0
100
AcDbEntity
  8
Defpoints
100
AcDbPoint
 10
0.1675
 20
0.28
 30
0.0
  0
POINT
  5
F4
330
E0
100
AcDbEntity
  8
Defpoints
100
AcDbPoint
 10
0.2025
 20
0.28
 30
0.0
  0
ENDBLK
  5
E2
330
E0
100
AcDbEntity
  8
0
100
AcDbBlockEnd
  0
BLOCK
  5
E6
330
E5
100
AcDbEntity
  8
0
100
AcDbBlockBegin
  2
_CLOSEDFILLED
 70
0
 10
0.0
 20
0.0
 30
0.0
  3
_CLOSEDFILLED
  1

  0
SOLID
  5
E8
330
E5
100
AcDbEntity
  8
0
  6
BYBLOCK
 62
0
100
AcDbTrace
 10
-1.0
 20
0.16439898372402537
 30
0.0
 11
0.0
 21
0.0
 31
0.0
 12
-1.0
 22
-0.16439898372402537
 32
0.0
 13
-1.0
 23
-0.16439898372402537
 33
0.0
  0
ENDBLK
  5
E7
330
E5
100
AcDbEntity
  8
0
100
AcDbBlockEnd
  0
BLOCK
  5
F7
330
F6
100
AcDbEntity
  8
0
100
AcDbBlockBegin
  2
*D2
 70
1
 10
0.0
 20
0.0
 30
0.0
  3
*D2
  1

  0
LINE
  5
F9
330
F6
100
AcDbEntity
  8
0
100
AcDbLine
 10
0.285
 20
0.074
 30
0.0
 11
0.285
 21
0.074
 31
0.0
  0
LINE
  5
FA
330
F6
100
AcDbEntity
  8
0
100
AcDbLine
 10
0.285
 20
0.08
 30
0.0
 11
0.285
 21
0.08
 31
0.0
  0
INSERT
  5
FB
330
F6
100
AcDbEntity
  8
COTAS
100
AcDbBlockReference
  2
_CLOSEDFILLED
 10
0.285
 20
0.074
 30
0.0
 41
0.007
 42
0.007
 50
90.0
  0
INSERT
  5
FD
330
F6
100
AcDbEntity
  8
COTAS
100
AcDbBlockReference
  2
_CLOSEDFILLED
 10
0.285
 20
0.08
 30
0.0
 41
0.007
 42
0.007
 50
270.0
  0
LINE
  5
FF
330
F6
100
AcDbEntity
  8
0
100
AcDbLine
 10
0.285
 20
0.06699999999999999
 30
0.0
 11
0.285
 21
0.06
 31
0.0
  0
LINE
  5
100
330
F6
100
AcDbEntity
  8
0
100
AcDbLine
 10
0.285
 20
0.08700000000000001
 30
0.0
 11
0.285
 21
0.094
 31
0.0
  0
LINE
  5
101
330
F6
100
AcDbEntity
  8
0
100
AcDbLine
 10
0.285
 20
0.074
 30
0.0
 11
0.285
 21
0.08
 31
0.0
  0
MTEXT
  5
102
330
F6
100
AcDbEntity
  8
COTAS
100
AcDbMText
 10
-0.34260000000000007
 20
0.077
 30
0.0
 40
0.0052
 71
5
  1
0,01
 50
90.0
  0
POINT
  5
103
330
F6
100
AcDbEntity
  8
Defpoints
100
AcDbPoint
 10
0.285
 20
0.074
 30
0.0
  0
POINT
  5
104
330
F6
100
AcDbEntity
  8
Defpoints
100
AcDbPoint
 10
0.285
 20
0.074
 30
0.0
  0
POINT
  5
105
330
F6
100
AcDbEntity
  8
Defpoints
100
AcDbPoint
 10
0.285
 20
0.08
 30
0.0
  0
ENDBLK
  5
F8
330
F6
100
AcDbEntity
  8
0
100
AcDbBlockEnd
  0
BLOCK
  5
108
330
107
100
AcDbEntity
  8
0
100
AcDbBlockBegin
  2
*D3
 70
1
 10
0.0
 20
0.0
 30
0.0
  3
*D3
  1

  0
LINE
  5
10A
330
107
100
AcDbEntity
  8
0
100
AcDbLine
 10
0.285
 20
0.03600027084350587
 30
0.0
 11
0.285
 21
0.03600027084350587
 31
0.0
  0
LINE
  5
10B
330
107
100
AcDbEntity
  8
0
100
AcDbLine
 10
0.285
 20
0.03900005340576173
 30
0.0
 11
0.285
 21
0.03900005340576173
 31
0.0
  0
INSERT
  5
10C
330
107
100
AcDbEntity
  8
COTAS
100
AcDbBlockReference
  2
_CLOSEDFILLED
 10
0.285
 20
0.03600027084350587
 30
0.0
 41
0.007
 42
0.007
 50
90.0
  0
INSERT
  5
10E
330
107
100
AcDbEntity
  8
COTAS
100
AcDbBlockReference
  2
_CLOSEDFILLED
 10
0.285
 20
0.03900005340576173
 30
0.0
 41
0.007
 42
0.007
 50
270.0
  0
LINE
  5
110
330
107
100
AcDbEntity
  8
0
100
AcDbLine
 10
0.285
 20
0.02900027084350587
 30
0.0
 11
0.285
 21
0.02200027084350587
 31
0.0
  0
LINE
  5
111
330
107
100
AcDbEntity
  8
0
100
AcDbLine
 10
0.285
 20
0.04600005340576173
 30
0.0
 11
0.285
 21
0.05300005340576173
 31
0.0
  0
LINE
  5
112
330
107
100
AcDbEntity
  8
0
100
AcDbLine
 10
0.285
 20
0.03600027084350587
 30
0.0
 11
0.285
 21
0.03900005340576173
 31
0.0
  0
MTEXT
  5
113
330
107
100
AcDbEntity
  8
COTAS
100
AcDbMText
 10
-0.34260000000000007
 20
0.0375001621246338
 30
0.0
 40
0.0052
 71
5
  1
0
 50
90.0
  0
POINT
  5
114
330
107
100
AcDbEntity
  8
Defpoints
100
AcDbPoint
 10
0.285
 20
0.03600027084350587
 30
0.0
  0
POINT
  5
115
330
107
100
AcDbEntity
  8
Defpoints
100
AcDbPoint
 10
0.285
 20
0.03600027084350587
 30
0.0
  0
POINT
  5
116
330
107
100
AcDbEntity
  8
Defpoints
100
AcDbPoint
 10
0.285
 20
0.03900005340576173
 30
0.0
  0
ENDBLK
  5
109
330
107
100
AcDbEntity
  8
0
100
AcDbBlockEnd
  0
BLOCK
  5
170
330
16F
100
AcDbEntity
  8
0
100
AcDbBlockBegin
  2
*D4
 70
1
 10
0.0
 20
0.0
 30
0.0
  3
*D4
  1

  0
LINE
  5
172
330
16F
100
AcDbEntity
  8
0
100
AcDbLine
 10
10.1655
 20
0.28
 30
0.0
 11
10.1655
 21
0.28
 31
0.0
  0
LINE
  5
173
330
16F
100
AcDbEntity
  8
0
100
AcDbLine
 10
10.2045
 20
0.28
 30
0.0
 11
10.2045
 21
0.28
 31
0.0
  0
INSERT
  5
174
330
16F
100
AcDbEntity
  8
COTAS
100
AcDbBlockReference
  2
_CLOSEDFILLED
 10
10.1655
 20
0.28
 30
0.0
 41
0.007
 42
0.007
  0
INSERT
  5
176
330
16F
100
AcDbEntity
  8
COTAS
100
AcDbBlockReference
  2
_CLOSEDFILLED
 10
10.2045
 20
0.28
 30
0.0
 41
0.007
 42
0.007
 50
180.0
  0
LINE
  5
178
330
16F
100
AcDbEntity
  8
0
100
AcDbLine
 10
10.1585
 20
0.28
 30
0.0
 11
10.1515
 21
0.28
 31
0.0
  0
LINE
  5
179
330
16F
100
AcDbEntity
  8
0
100
AcDbLine
 10
10.2115
 20
0.28
 30
0.0
 11
10.218499999999999
 21
0.28
 31
0.0
  0
LINE
  5
17A
330
16F
100
AcDbEntity
  8
0
100
AcDbLine
 10
10.1655
 20
0.28
 30
0.0
 11
10.174599999999998
 21
0.28
 31
0.0
  0
LINE
  5
17B
330
16F
100
AcDbEntity
  8
0
100
AcDbLine
 10
10.1954
 20
0.28
 30
0.0
 11
10.2045
 21
0.28
 31
0.0
  0
MTEXT
  5
17C
330
16F
100
AcDbEntity
  8
COTAS
100
AcDbMText
 10
10.184999999999999
 20
0.28
 30
0.0
 40
0.0052
 71
5
  1
0,04
  0
POINT
  5
17D
330
16F
100
AcDbEntity
  8
Defpoints
100
AcDbPoint
 10
10.1655
 20
0.28
 30
0.0
  0
POINT
  5
17E
330
16F
100
AcDbEntity
  8
Defpoints
100
AcDbPoint
 10
10.1655
 20
0.28
 30
0.0
  0
POINT
  5
17F
330
16F
100
AcDbEntity
  8
Defpoints
100
AcDbPoint
 10
10.2045
 20
0.28
 30
0.0
  0
ENDBLK
  5
171
330
16F
100
AcDbEntity
  8
0
100
AcDbBlockEnd
  0
BLOCK
  5
182
330
181
100
AcDbEntity
  8
0
100
AcDbBlockBegin
  2
*D5
 70
1
 10
0.0
 20
0.0
 30
0.0
  3
*D5
  1

  0
LINE
  5
184
330
181
100
AcDbEntity
  8
0
100
AcDbLine
 10
10.1765
 20
0.33
 30
0.0
 11
10.1765
 21
0.33
 31
0.0
  0
LINE
  5
185
330
181
100
AcDbEntity
  8
0
100
AcDbLine
 10
10.1935
 20
0.33
 30
0.0
 11
10.1935
 21
0.33
 31
0.0
  0
INSERT
  5
186
330
181
100
AcDbEntity
  8
COTAS
100
AcDbBlockReference
  2
_CLOSEDFILLED
 10
10.1765
 20
0.33
 30
0.0
 41
0.007
 42
0.007
  0
INSERT
  5
188
330
181
100
AcDbEntity
  8
COTAS
100
AcDbBlockReference
  2
_CLOSEDFILLED
 10
10.1935
 20
0.33
 30
0.0
 41
0.007
 42
0.007
 50
180.0
  0
LINE
  5
18A
330
181
100
AcDbEntity
  8
0
100
AcDbLine
 10
10.169500000000001
 20
0.33
 30
0.0
 11
10.162500000000001
 21
0.33
 31
0.0
  0
LINE
  5
18B
330
181
100
AcDbEntity
  8
0
100
AcDbLine
 10
10.2005
 20
0.33
 30
0.0
 11
10.2075
 21
0.33
 31
0.0
  0
LINE
  5
18C
330
181
100
AcDbEntity
  8
0
100
AcDbLine
 10
10.1765
 20
0.33
 30
0.0
 11
10.1935
 21
0.33
 31
0.0
  0
MTEXT
  5
18D
330
181
100
AcDbEntity
  8
COTAS
100
AcDbMText
 10
10.185
 20
0.9576
 30
0.0
 40
0.0052
 71
5
  1
0,02
  0
POINT
  5
18E
330
181
100
AcDbEntity
  8
Defpoints
100
AcDbPoint
 10
10.1765
 20
0.33
 30
0.0
  0
POINT
  5
18F
330
181
100
AcDbEntity
  8
Defpoints
100
AcDbPoint
 10
10.1765
 20
0.33
 30
0.0
  0
POINT
  5
190
330
181
100
AcDbEntity
  8
Defpoints
100
AcDbPoint
 10
10.1935
 20
0.33
 30
0.0
  0
ENDBLK
  5
183
330
181
100
AcDbEntity
  8
0
100
AcDbBlockEnd
  0
BLOCK
  5
1AC
330
1AB
100
AcDbEntity
  8
0
100
AcDbBlockBegin
  2
*D6
 70
1
 10
0.0
 20
0.0
 30
0.0
  3
*D6
  1

  0
LINE
  5
1AE
330
1AB
100
AcDbEntity
  8
0
100
AcDbLine
 10
20.3
 20
0.34
 30
0.0
 11
20.3
 21
0.34
 31
0.0
  0
LINE
  5
1AF
330
1AB
100
AcDbEntity
  8
0
100
AcDbLine
 10
20.315
 20
0.34
 30
0.0
 11
20.315
 21
0.34
 31
0.0
  0
INSERT
  5
1B0
330
1AB
100
AcDbEntity
  8
COTAS
100
AcDbBlockReference
  2
_CLOSEDFILLED
 10
20.3
 20
0.34
 30
0.0
 41
0.007
 42
0.007
  0
INSERT
  5
1B2
330
1AB
100
AcDbEntity
  8
COTAS
100
AcDbBlockReference
  2
_CLOSEDFILLED
 10
20.315
 20
0.34
 30
0.0
 41
0.007
 42
0.007
 50
180.0
  0
LINE
  5
1B4
330
1AB
100
AcDbEntity
  8
0
100
AcDbLine
 10
20.293
 20
0.34
 30
0.0
 11
20.286
 21
0.34
 31
0.0
  0
LINE
  5
1B5
330
1AB
100
AcDbEntity
  8
0
100
AcDbLine
 10
20.322000000000003
 20
0.34
 30
0.0
 11
20.329
 21
0.34
 31
0.0
  0
LINE
  5
1B6
330
1AB
100
AcDbEntity
  8
0
100
AcDbLine
 10
20.3
 20
0.34
 30
0.0
 11
20.315
 21
0.34
 31
0.0
  0
MTEXT
  5
1B7
330
1AB
100
AcDbEntity
  8
COTAS
100
AcDbMText
 10
20.3075
 20
0.9715
 30
0.0
 40
0.013
 71
5
  1
0,02
  0
POINT
  5
1B8
330
1AB
100
AcDbEntity
  8
Defpoints
100
AcDbPoint
 10
20.3
 20
0.34
 30
0.0
  0
POINT
  5
1B9
330
1AB
100
AcDbEntity
  8
Defpoints
100
AcDbPoint
 10
20.3
 20
0.34
 30
0.0
  0
POINT
  5
1BA
330
1AB
100
AcDbEntity
  8
Defpoints
100
AcDbPoint
 10
20.315
 20
0.34
 30
0.0
  0
ENDBLK
  5
1AD
330
1AB
100
AcDbEntity
  8
0
100
AcDbBlockEnd
  0
BLOCK
  5
1BD
330
1BC
100
AcDbEntity
  8
0
100
AcDbBlockBegin
  2
*D7
 70
1
 10
0.0
 20
0.0
 30
0.0
  3
*D7
  1

  0
LINE
  5
1BF
330
1BC
100
AcDbEntity
  8
0
100
AcDbLine
 10
20.26
 20
0.3
 30
0.0
 11
20.26
 21
0.3
 31
0.0
  0
LINE
  5
1C0
330
1BC
100
AcDbEntity
  8
0
100
AcDbLine
 10
20.51
 20
0.3
 30
0.0
 11
20.51
 21
0.3
 31
0.0
  0
INSERT
  5
1C1
330
1BC
100
AcDbEntity
  8
COTAS
100
AcDbBlockReference
  2
_CLOSEDFILLED
 10
20.26
 20
0.3
 30
0.0
 41
0.007
 42
0.007
  0
INSERT
  5
1C3
330
1BC
100
AcDbEntity
  8
COTAS
100
AcDbBlockReference
  2
_CLOSEDFILLED
 10
20.51
 20
0.3
 30
0.0
 41
0.007
 42
0.007
 50
180.0
  0
LINE
  5
1C5
330
1BC
100
AcDbEntity
  8
0
100
AcDbLine
 10
20.253
 20
0.3
 30
0.0
 11
20.246000000000002
 21
0.3
 31
0.0
  0
LINE
  5
1C6
330
1BC
100
AcDbEntity
  8
0
100
AcDbLine
 10
20.517000000000003
 20
0.3
 30
0.0
 11
20.524
 21
0.3
 31
0.0
  0
LINE
  5
1C7
330
1BC
100
AcDbEntity
  8
0
100
AcDbLine
 10
20.26
 20
0.3
 30
0.0
 11
20.359
 21
0.3
 31
0.0
  0
LINE
  5
1C8
330
1BC
100
AcDbEntity
  8
0
100
AcDbLine
 10
20.411
 20
0.3
 30
0.0
 11
20.51
 21
0.3
 31
0.0
  0
MTEXT
  5
1C9
330
1BC
100
AcDbEntity
  8
COTAS
100
AcDbMText
 10
20.385
 20
0.3
 30
0.0
 40
0.013
 71
5
  1
0,25
  0
POINT
  5
1CA
330
1BC
100
AcDbEntity
  8
Defpoints
100
AcDbPoint
 10
20.26
 20
0.3
 30
0.0
  0
POINT
  5
1CB
330
1BC
100
AcDbEntity
  8
Defpoints
100
AcDbPoint
 10
20.26
 20
0.3
 30
0.0
  0
POINT
  5
1CC
330
1BC
100
AcDbEntity
  8
Defpoints
100
AcDbPoint
 10
20.51
 20
0.3
 30
0.0
  0
ENDBLK
  5
1BE
330
1BC
100
AcDbEntity
  8
0
100
AcDbBlockEnd
  0
ENDSEC
  0
SECTION
  2
ENTITIES
  0
LINE
  5
34
330
17
100
AcDbEntity
  8
G_MEDIDO
100
AcDbLine
 10
0.2
 20
0.0
 30
0.0
 11
0.2
 21
0.0025
 31
0.0
  0
LINE
  5
35
330
17
100
AcDbEntity
  8
G_MEDIDO
100
AcDbLine
 10
0.2
 20
0.0025
 30
0.0
 11
0.2
 21
0.036
 31
0.0
  0
LINE
  5
36
330
17
100
AcDbEntity
  8
G_MEDIDO
100
AcDbLine
 10
0.2485
 20
0.06
 30
0.0
 11
0.347893788
 21
0.06
 31
0.0
  0
LINE
  5
37
330
17
100
AcDbEntity
  8
G_MEDIDO
100
AcDbLine
 10
0.347893788
 20
0.06
 30
0.0
 11
0.36
 21
0.06
 31
0.0
  0
LINE
  5
38
330
17
100
AcDbEntity
  8
G_MEDIDO
100
AcDbLine
 10
0.2
 20
0.036
 30
0.0
 11
0.21
 21
0.036
 31
0.0
  0
LINE
  5
39
330
17
100
AcDbEntity
  8
G_MEDIDO
100
AcDbLine
 10
0.21
 20
0.036
 30
0.0
 11
0.2475
 21
0.036
 31
0.0
  0
LINE
  5
3A
330
17
100
AcDbEntity
  8
G_MEDIDO
100
AcDbLine
 10
0.2475
 20
0.036
 30
0.0
 11
0.2485
 21
0.036
 31
0.0
  0
LINE
  5
3B
330
17
100
AcDbEntity
  8
G_MEDIDO
100
AcDbLine
 10
0.2485
 20
0.036
 30
0.0
 11
0.2485
 21
0.0475
 31
0.0
  0
LINE
  5
3C
330
17
100
AcDbEntity
  8
G_MEDIDO
100
AcDbLine
 10
0.2485
 20
0.0475
 30
0.0
 11
0.2485
 21
0.06
 31
0.0
  0
LINE
  5
3D
330
17
100
AcDbEntity
  8
G_MEDIDO
100
AcDbLine
 10
0.16975025
 20
0.08
 30
0.0
 11
0.176501
 21
0.08
 31
0.0
  0
LINE
  5
3E
330
17
100
AcDbEntity
  8
G_MEDIDO
100
AcDbLine
 10
0.1675
 20
0.08
 30
0.0
 11
0.16975025
 21
0.08
 31
0.0
  0
LINE
  5
3F
330
17
100
AcDbEntity
  8
G_MEDIDO
100
AcDbLine
 10
0.176501
 20
0.08
 30
0.0
 11
0.176501
 21
0.092
 31
0.0
  0
LINE
  5
40
330
17
100
AcDbEntity
  8
G_MEDIDO
100
AcDbLine
 10
0.176501
 20
0.092
 30
0.0
 11
0.176501
 21
0.3
 31
0.0
  0
LINE
  5
41
330
17
100
AcDbEntity
  8
G_MEDIDO
100
AcDbLine
 10
0.1675
 20
0.08
 30
0.0
 11
0.1675
 21
0.092
 31
0.0
  0
LINE
  5
42
330
17
100
AcDbEntity
  8
G_MEDIDO
100
AcDbLine
 10
0.1675
 20
0.092
 30
0.0
 11
0.1675
 21
0.3
 31
0.0
  0
LINE
  5
43
330
17
100
AcDbEntity
  8
G_MEDIDO
100
AcDbLine
 10
0.195743479
 20
0.08258
 30
0.0
 11
0.20250100000000001
 21
0.08258
 31
0.0
  0
LINE
  5
44
330
17
100
AcDbEntity
  8
G_MEDIDO
100
AcDbLine
 10
0.1935
 20
0.08258
 30
0.0
 11
0.195743479
 21
0.08258
 31
0.0
  0
LINE
  5
45
330
17
100
AcDbEntity
  8
G_MEDIDO
100
AcDbLine
 10
0.20250100000000001
 20
0.08258
 30
0.0
 11
0.20250100000000001
 21
0.09458
 31
0.0
  0
LINE
  5
46
330
17
100
AcDbEntity
  8
G_MEDIDO
100
AcDbLine
 10
0.20250100000000001
 20
0.09458
 30
0.0
 11
0.20250100000000001
 21
0.3
 31
0.0
  0
LINE
  5
47
330
17
100
AcDbEntity
  8
G_MEDIDO
100
AcDbLine
 10
0.1935
 20
0.08258
 30
0.0
 11
0.1935
 21
0.09458
 31
0.0
  0
LINE
  5
48
330
17
100
AcDbEntity
  8
G_MEDIDO
100
AcDbLine
 10
0.1935
 20
0.09458
 30
0.0
 11
0.1935
 21
0.3
 31
0.0
  0
LINE
  5
49
330
17
100
AcDbEntity
  8
G_MEDIDO
100
AcDbLine
 10
0.123671
 20
0.040172
 30
0.0
 11
0.123351601
 21
0.040549673
 31
0.0
  0
LINE
  5
4A
330
17
100
AcDbEntity
  8
G_MEDIDO
100
AcDbLine
 10
0.123351601
 20
0.040549673
 30
0.0
 11
0.123238
 21
0.040684
 31
0.0
  0
LINE
  5
4B
330
17
100
AcDbEntity
  8
G_MEDIDO
100
AcDbLine
 10
0.123238
 20
0.040684
 30
0.0
 11
0.12269361999999999
 21
0.04239238
 31
0.0
  0
LINE
  5
4C
330
17
100
AcDbEntity
  8
G_MEDIDO
100
AcDbLine
 10
0.12269361999999999
 20
0.04239238
 30
0.0
 11
0.1225
 21
0.043
 31
0.0
  0
LINE
  5
4D
330
17
100
AcDbEntity
  8
G_MEDIDO
100
AcDbLine
 10
0.1225
 20
0.043
 30
0.0
 11
0.1225
 21
0.0475
 31
0.0
  0
LINE
  5
4E
330
17
100
AcDbEntity
  8
G_MEDIDO
100
AcDbLine
 10
0.1225
 20
0.0475
 30
0.0
 11
0.1225
 21
0.09758555099999999
 31
0.0
  0
LINE
  5
4F
330
17
100
AcDbEntity
  8
G_MEDIDO
100
AcDbLine
 10
0.1225
 20
0.09758555099999999
 30
0.0
 11
0.1225
 21
0.117
 31
0.0
  0
LINE
  5
50
330
17
100
AcDbEntity
  8
G_MEDIDO
100
AcDbLine
 10
0.1225
 20
0.117
 30
0.0
 11
0.12304438000000001
 21
0.11870838
 31
0.0
  0
LINE
  5
51
330
17
100
AcDbEntity
  8
G_MEDIDO
100
AcDbLine
 10
0.12304438000000001
 20
0.11870838
 30
0.0
 11
0.123238
 21
0.119316
 31
0.0
  0
LINE
  5
52
330
17
100
AcDbEntity
  8
G_MEDIDO
100
AcDbLine
 10
0.123238
 20
0.119316
 30
0.0
 11
0.123557399
 21
0.119693673
 31
0.0
  0
LINE
  5
53
330
17
100
AcDbEntity
  8
G_MEDIDO
100
AcDbLine
 10
0.123557399
 20
0.119693673
 30
0.0
 11
0.123671
 21
0.119828
 31
0.0
  0
LINE
  5
54
330
17
100
AcDbEntity
  8
G_MEDIDO
100
AcDbLine
 10
0.24632900000000002
 20
0.040172
 30
0.0
 11
0.24664839900000002
 21
0.040549673
 31
0.0
  0
LINE
  5
55
330
17
100
AcDbEntity
  8
G_MEDIDO
100
AcDbLine
 10
0.24664839900000002
 20
0.040549673
 30
0.0
 11
0.246762
 21
0.040684
 31
0.0
  0
LINE
  5
56
330
17
100
AcDbEntity
  8
G_MEDIDO
100
AcDbLine
 10
0.246762
 20
0.040684
 30
0.0
 11
0.24730638
 21
0.04239238
 31
0.0
  0
LINE
  5
57
330
17
100
AcDbEntity
  8
G_MEDIDO
100
AcDbLine
 10
0.24730638
 20
0.04239238
 30
0.0
 11
0.2475
 21
0.043
 31
0.0
  0
LINE
  5
58
330
17
100
AcDbEntity
  8
G_MEDIDO
100
AcDbLine
 10
0.2475
 20
0.043
 30
0.0
 11
0.2475
 21
0.0475
 31
0.0
  0
LINE
  5
59
330
17
100
AcDbEntity
  8
G_MEDIDO
100
AcDbLine
 10
0.2475
 20
0.0475
 30
0.0
 11
0.2475
 21
0.09758555099999999
 31
0.0
  0
LINE
  5
5A
330
17
100
AcDbEntity
  8
G_MEDIDO
100
AcDbLine
 10
0.2475
 20
0.09758555099999999
 30
0.0
 11
0.2475
 21
0.117
 31
0.0
  0
LINE
  5
5B
330
17
100
AcDbEntity
  8
G_MEDIDO
100
AcDbLine
 10
0.2475
 20
0.117
 30
0.0
 11
0.24695562000000001
 21
0.11870838
 31
0.0
  0
LINE
  5
5C
330
17
100
AcDbEntity
  8
G_MEDIDO
100
AcDbLine
 10
0.24695562000000001
 20
0.11870838
 30
0.0
 11
0.246762
 21
0.119316
 31
0.0
  0
LINE
  5
5D
330
17
100
AcDbEntity
  8
G_MEDIDO
100
AcDbLine
 10
0.246762
 20
0.119316
 30
0.0
 11
0.24644260099999998
 21
0.119693673
 31
0.0
  0
LINE
  5
5E
330
17
100
AcDbEntity
  8
G_MEDIDO
100
AcDbLine
 10
0.24644260099999998
 20
0.119693673
 30
0.0
 11
0.24632900000000002
 21
0.119828
 31
0.0
  0
LINE
  5
5F
330
17
100
AcDbEntity
  8
G_MEDIDO
100
AcDbLine
 10
0.123671
 20
0.040172
 30
0.0
 11
0.12404941100000001
 21
0.039851863
 31
0.0
  0
LINE
  5
60
330
17
100
AcDbEntity
  8
G_MEDIDO
100
AcDbLine
 10
0.12404941100000001
 20
0.039851863
 30
0.0
 11
0.124184
 21
0.039738
 31
0.0
  0
LINE
  5
61
330
17
100
AcDbEntity
  8
G_MEDIDO
100
AcDbLine
 10
0.124184
 20
0.039738
 30
0.0
 11
0.125891643
 21
0.039193620000000005
 31
0.0
  0
LINE
  5
62
330
17
100
AcDbEntity
  8
G_MEDIDO
100
AcDbLine
 10
0.125891643
 20
0.039193620000000005
 30
0.0
 11
0.126499
 21
0.039
 31
0.0
  0
LINE
  5
63
330
17
100
AcDbEntity
  8
G_MEDIDO
100
AcDbLine
 10
0.126499
 20
0.039
 30
0.0
 11
0.21280392
 21
0.039
 31
0.0
  0
LINE
  5
64
330
17
100
AcDbEntity
  8
G_MEDIDO
100
AcDbLine
 10
0.21280392
 20
0.039
 30
0.0
 11
0.2435
 21
0.039
 31
0.0
  0
LINE
  5
65
330
17
100
AcDbEntity
  8
G_MEDIDO
100
AcDbLine
 10
0.2435
 20
0.039
 30
0.0
 11
0.245207643
 21
0.03954438
 31
0.0
  0
LINE
  5
66
330
17
100
AcDbEntity
  8
G_MEDIDO
100
AcDbLine
 10
0.245207643
 20
0.03954438
 30
0.0
 11
0.245815
 21
0.039738
 31
0.0
  0
LINE
  5
67
330
17
100
AcDbEntity
  8
G_MEDIDO
100
AcDbLine
 10
0.245815
 20
0.039738
 30
0.0
 11
0.246194148
 21
0.040058137
 31
0.0
  0
LINE
  5
68
330
17
100
AcDbEntity
  8
G_MEDIDO
100
AcDbLine
 10
0.246194148
 20
0.040058137
 30
0.0
 11
0.24632900000000002
 21
0.040172
 31
0.0
  0
LINE
  5
69
330
17
100
AcDbEntity
  8
G_MEDIDO
100
AcDbLine
 10
0.123671
 20
0.119828
 30
0.0
 11
0.12404941100000001
 21
0.120148137
 31
0.0
  0
LINE
  5
6A
330
17
100
AcDbEntity
  8
G_MEDIDO
100
AcDbLine
 10
0.12404941100000001
 20
0.120148137
 30
0.0
 11
0.124184
 21
0.120262
 31
0.0
  0
LINE
  5
6B
330
17
100
AcDbEntity
  8
G_MEDIDO
100
AcDbLine
 10
0.124184
 20
0.120262
 30
0.0
 11
0.125891643
 21
0.12080638
 31
0.0
  0
LINE
  5
6C
330
17
100
AcDbEntity
  8
G_MEDIDO
100
AcDbLine
 10
0.125891643
 20
0.12080638
 30
0.0
 11
0.126499
 21
0.121
 31
0.0
  0
LINE
  5
6D
330
17
100
AcDbEntity
  8
G_MEDIDO
100
AcDbLine
 10
0.126499
 20
0.121
 30
0.0
 11
0.1655
 21
0.121
 31
0.0
  0
LINE
  5
6E
330
17
100
AcDbEntity
  8
G_MEDIDO
100
AcDbLine
 10
0.2045
 20
0.121
 30
0.0
 11
0.21280359899999998
 21
0.121
 31
0.0
  0
LINE
  5
6F
330
17
100
AcDbEntity
  8
G_MEDIDO
100
AcDbLine
 10
0.21280359899999998
 20
0.121
 30
0.0
 11
0.2435
 21
0.121
 31
0.0
  0
LINE
  5
70
330
17
100
AcDbEntity
  8
G_MEDIDO
100
AcDbLine
 10
0.2435
 20
0.121
 30
0.0
 11
0.245207643
 21
0.12045562
 31
0.0
  0
LINE
  5
71
330
17
100
AcDbEntity
  8
G_MEDIDO
100
AcDbLine
 10
0.245207643
 20
0.12045562
 30
0.0
 11
0.245815
 21
0.120262
 31
0.0
  0
LINE
  5
72
330
17
100
AcDbEntity
  8
G_MEDIDO
100
AcDbLine
 10
0.245815
 20
0.120262
 30
0.0
 11
0.246194148
 21
0.119941863
 31
0.0
  0
LINE
  5
73
330
17
100
AcDbEntity
  8
G_MEDIDO
100
AcDbLine
 10
0.246194148
 20
0.119941863
 30
0.0
 11
0.24632900000000002
 21
0.119828
 31
0.0
  0
LINE
  5
74
330
17
100
AcDbEntity
  8
G_MEDIDO
100
AcDbLine
 10
0.1655
 20
0.074
 30
0.0
 11
0.1675
 21
0.074
 31
0.0
  0
LINE
  5
75
330
17
100
AcDbEntity
  8
G_MEDIDO
100
AcDbLine
 10
0.1675
 20
0.074
 30
0.0
 11
0.176501
 21
0.074
 31
0.0
  0
LINE
  5
76
330
17
100
AcDbEntity
  8
G_MEDIDO
100
AcDbLine
 10
0.176501
 20
0.074
 30
0.0
 11
0.1935
 21
0.074
 31
0.0
  0
LINE
  5
77
330
17
100
AcDbEntity
  8
G_MEDIDO
100
AcDbLine
 10
0.1935
 20
0.074
 30
0.0
 11
0.20250100000000001
 21
0.074
 31
0.0
  0
LINE
  5
78
330
17
100
AcDbEntity
  8
G_MEDIDO
100
AcDbLine
 10
0.20250100000000001
 20
0.074
 30
0.0
 11
0.2045
 21
0.074
 31
0.0
  0
LINE
  5
79
330
17
100
AcDbEntity
  8
G_MEDIDO
100
AcDbLine
 10
0.2045
 20
0.074
 30
0.0
 11
0.2045
 21
0.08258
 31
0.0
  0
LINE
  5
7A
330
17
100
AcDbEntity
  8
G_MEDIDO
100
AcDbLine
 10
0.2045
 20
0.08258
 30
0.0
 11
0.2045
 21
0.09458
 31
0.0
  0
LINE
  5
7B
330
17
100
AcDbEntity
  8
G_MEDIDO
100
AcDbLine
 10
0.2045
 20
0.09458
 30
0.0
 11
0.2045
 21
0.121
 31
0.0
  0
LINE
  5
7C
330
17
100
AcDbEntity
  8
G_MEDIDO
100
AcDbLine
 10
0.1655
 20
0.074
 30
0.0
 11
0.1655
 21
0.08
 31
0.0
  0
LINE
  5
7D
330
17
100
AcDbEntity
  8
G_MEDIDO
100
AcDbLine
 10
0.1655
 20
0.08
 30
0.0
 11
0.1655
 21
0.092
 31
0.0
  0
LINE
  5
7E
330
17
100
AcDbEntity
  8
G_MEDIDO
100
AcDbLine
 10
0.1655
 20
0.092
 30
0.0
 11
0.1655
 21
0.121
 31
0.0
  0
LINE
  5
7F
330
17
100
AcDbEntity
  8
G_MEDIDO
100
AcDbLine
 10
0.114758
 20
0.0042569999999999995
 30
0.0
 11
0.11427378
 21
0.004830615
 31
0.0
  0
LINE
  5
80
330
17
100
AcDbEntity
  8
G_MEDIDO
100
AcDbLine
 10
0.11427378
 20
0.004830615
 30
0.0
 11
0.114108
 21
0.005027
 31
0.0
  0
LINE
  5
81
330
17
100
AcDbEntity
  8
G_MEDIDO
100
AcDbLine
 10
0.114108
 20
0.005027
 30
0.0
 11
0.113282591
 21
0.0076142250000000005
 31
0.0
  0
LINE
  5
82
330
17
100
AcDbEntity
  8
G_MEDIDO
100
AcDbLine
 10
0.113282591
 20
0.0076142250000000005
 30
0.0
 11
0.113
 21
0.0085
 31
0.0
  0
LINE
  5
83
330
17
100
AcDbEntity
  8
G_MEDIDO
100
AcDbLine
 10
0.113
 20
0.0085
 30
0.0
 11
0.113
 21
0.01
 31
0.0
  0
LINE
  5
84
330
17
100
AcDbEntity
  8
G_MEDIDO
100
AcDbLine
 10
0.113
 20
0.01
 30
0.0
 11
0.113
 21
0.03308348
 31
0.0
  0
LINE
  5
85
330
17
100
AcDbEntity
  8
G_MEDIDO
100
AcDbLine
 10
0.113
 20
0.03308348
 30
0.0
 11
0.113
 21
0.0415
 31
0.0
  0
LINE
  5
86
330
17
100
AcDbEntity
  8
G_MEDIDO
100
AcDbLine
 10
0.113
 20
0.0415
 30
0.0
 11
0.11382540899999999
 21
0.04408797
 31
0.0
  0
LINE
  5
87
330
17
100
AcDbEntity
  8
G_MEDIDO
100
AcDbLine
 10
0.11382540899999999
 20
0.04408797
 30
0.0
 11
0.114108
 21
0.044974
 31
0.0
  0
LINE
  5
88
330
17
100
AcDbEntity
  8
G_MEDIDO
100
AcDbLine
 10
0.114108
 20
0.044974
 30
0.0
 11
0.11459222
 21
0.045546869999999996
 31
0.0
  0
LINE
  5
89
330
17
100
AcDbEntity
  8
G_MEDIDO
100
AcDbLine
 10
0.11459222
 20
0.045546869999999996
 30
0.0
 11
0.114758
 21
0.045743
 31
0.0
  0
LINE
  5
8A
330
17
100
AcDbEntity
  8
G_MEDIDO
100
AcDbLine
 10
0.291243
 20
0.0042569999999999995
 30
0.0
 11
0.291726475
 21
0.004830615
 31
0.0
  0
LINE
  5
8B
330
17
100
AcDbEntity
  8
G_MEDIDO
100
AcDbLine
 10
0.291726475
 20
0.004830615
 30
0.0
 11
0.291892
 21
0.005027
 31
0.0
  0
LINE
  5
8C
330
17
100
AcDbEntity
  8
G_MEDIDO
100
AcDbLine
 10
0.291892
 20
0.005027
 30
0.0
 11
0.292717409
 21
0.0076142250000000005
 31
0.0
  0
LINE
  5
8D
330
17
100
AcDbEntity
  8
G_MEDIDO
100
AcDbLine
 10
0.292717409
 20
0.0076142250000000005
 30
0.0
 11
0.293
 21
0.0085
 31
0.0
  0
LINE
  5
8E
330
17
100
AcDbEntity
  8
G_MEDIDO
100
AcDbLine
 10
0.293
 20
0.0085
 30
0.0
 11
0.293
 21
0.03308348
 31
0.0
  0
LINE
  5
8F
330
17
100
AcDbEntity
  8
G_MEDIDO
100
AcDbLine
 10
0.293
 20
0.03308348
 30
0.0
 11
0.293
 21
0.0415
 31
0.0
  0
LINE
  5
90
330
17
100
AcDbEntity
  8
G_MEDIDO
100
AcDbLine
 10
0.293
 20
0.0415
 30
0.0
 11
0.29217459100000004
 21
0.04408797
 31
0.0
  0
LINE
  5
91
330
17
100
AcDbEntity
  8
G_MEDIDO
100
AcDbLine
 10
0.29217459100000004
 20
0.04408797
 30
0.0
 11
0.291892
 21
0.044974
 31
0.0
  0
LINE
  5
92
330
17
100
AcDbEntity
  8
G_MEDIDO
100
AcDbLine
 10
0.291892
 20
0.044974
 30
0.0
 11
0.291408525
 21
0.045546869999999996
 31
0.0
  0
LINE
  5
93
330
17
100
AcDbEntity
  8
G_MEDIDO
100
AcDbLine
 10
0.291408525
 20
0.045546869999999996
 30
0.0
 11
0.291243
 21
0.045743
 31
0.0
  0
LINE
  5
94
330
17
100
AcDbEntity
  8
G_MEDIDO
100
AcDbLine
 10
0.114758
 20
0.0042569999999999995
 30
0.0
 11
0.11533012499999999
 21
0.003773525
 31
0.0
  0
LINE
  5
95
330
17
100
AcDbEntity
  8
G_MEDIDO
100
AcDbLine
 10
0.11533012499999999
 20
0.003773525
 30
0.0
 11
0.11552599999999999
 21
0.003608
 31
0.0
  0
LINE
  5
96
330
17
100
AcDbEntity
  8
G_MEDIDO
100
AcDbLine
 10
0.11552599999999999
 20
0.003608
 30
0.0
 11
0.11811471500000001
 21
0.002782591
 31
0.0
  0
LINE
  5
97
330
17
100
AcDbEntity
  8
G_MEDIDO
100
AcDbLine
 10
0.11811471500000001
 20
0.002782591
 30
0.0
 11
0.11900100000000001
 21
0.0025
 31
0.0
  0
LINE
  5
98
330
17
100
AcDbEntity
  8
G_MEDIDO
100
AcDbLine
 10
0.11900100000000001
 20
0.0025
 30
0.0
 11
0.2
 21
0.0025
 31
0.0
  0
LINE
  5
99
330
17
100
AcDbEntity
  8
G_MEDIDO
100
AcDbLine
 10
0.2
 20
0.0025
 30
0.0
 11
0.21
 21
0.0025
 31
0.0
  0
LINE
  5
9A
330
17
100
AcDbEntity
  8
G_MEDIDO
100
AcDbLine
 10
0.21
 20
0.0025
 30
0.0
 11
0.24415251799999999
 21
0.0025
 31
0.0
  0
LINE
  5
9B
330
17
100
AcDbEntity
  8
G_MEDIDO
100
AcDbLine
 10
0.24415251799999999
 20
0.0025
 30
0.0
 11
0.287
 21
0.0025
 31
0.0
  0
LINE
  5
9C
330
17
100
AcDbEntity
  8
G_MEDIDO
100
AcDbLine
 10
0.287
 20
0.0025
 30
0.0
 11
0.28958797
 21
0.003325409
 31
0.0
  0
LINE
  5
9D
330
17
100
AcDbEntity
  8
G_MEDIDO
100
AcDbLine
 10
0.28958797
 20
0.003325409
 30
0.0
 11
0.290474
 21
0.003608
 31
0.0
  0
LINE
  5
9E
330
17
100
AcDbEntity
  8
G_MEDIDO
100
AcDbLine
 10
0.290474
 20
0.003608
 30
0.0
 11
0.29104687
 21
0.004091475
 31
0.0
  0
LINE
  5
9F
330
17
100
AcDbEntity
  8
G_MEDIDO
100
AcDbLine
 10
0.29104687
 20
0.004091475
 30
0.0
 11
0.291243
 21
0.0042569999999999995
 31
0.0
  0
LINE
  5
A0
330
17
100
AcDbEntity
  8
G_MEDIDO
100
AcDbLine
 10
0.114758
 20
0.045743
 30
0.0
 11
0.11533012499999999
 21
0.046226475
 31
0.0
  0
LINE
  5
A1
330
17
100
AcDbEntity
  8
G_MEDIDO
100
AcDbLine
 10
0.11533012499999999
 20
0.046226475
 30
0.0
 11
0.11552599999999999
 21
0.046392
 31
0.0
  0
LINE
  5
A2
330
17
100
AcDbEntity
  8
G_MEDIDO
100
AcDbLine
 10
0.11552599999999999
 20
0.046392
 30
0.0
 11
0.11811471500000001
 21
0.047217409
 31
0.0
  0
LINE
  5
A3
330
17
100
AcDbEntity
  8
G_MEDIDO
100
AcDbLine
 10
0.11811471500000001
 20
0.047217409
 30
0.0
 11
0.11900100000000001
 21
0.0475
 31
0.0
  0
LINE
  5
A4
330
17
100
AcDbEntity
  8
G_MEDIDO
100
AcDbLine
 10
0.11900100000000001
 20
0.0475
 30
0.0
 11
0.12
 21
0.0475
 31
0.0
  0
LINE
  5
A5
330
17
100
AcDbEntity
  8
G_MEDIDO
100
AcDbLine
 10
0.12
 20
0.0475
 30
0.0
 11
0.121499
 21
0.0475
 31
0.0
  0
LINE
  5
A6
330
17
100
AcDbEntity
  8
G_MEDIDO
100
AcDbLine
 10
0.2485
 20
0.0475
 30
0.0
 11
0.287
 21
0.0475
 31
0.0
  0
LINE
  5
A7
330
17
100
AcDbEntity
  8
G_MEDIDO
100
AcDbLine
 10
0.287
 20
0.0475
 30
0.0
 11
0.28958797
 21
0.046674591
 31
0.0
  0
LINE
  5
A8
330
17
100
AcDbEntity
  8
G_MEDIDO
100
AcDbLine
 10
0.28958797
 20
0.046674591
 30
0.0
 11
0.290474
 21
0.046392
 31
0.0
  0
LINE
  5
A9
330
17
100
AcDbEntity
  8
G_MEDIDO
100
AcDbLine
 10
0.290474
 20
0.046392
 30
0.0
 11
0.29104687
 21
0.045908525
 31
0.0
  0
LINE
  5
AA
330
17
100
AcDbEntity
  8
G_MEDIDO
100
AcDbLine
 10
0.29104687
 20
0.045908525
 30
0.0
 11
0.291243
 21
0.045743
 31
0.0
  0
LINE
  5
AB
330
17
100
AcDbEntity
  8
G_MEDIDO
100
AcDbLine
 10
0.121499
 20
0.036
 30
0.0
 11
0.1225
 21
0.036
 31
0.0
  0
LINE
  5
AC
330
17
100
AcDbEntity
  8
G_MEDIDO
100
AcDbLine
 10
0.1225
 20
0.036
 30
0.0
 11
0.2
 21
0.036
 31
0.0
  0
LINE
  5
AD
330
17
100
AcDbEntity
  8
G_MEDIDO
100
AcDbLine
 10
0.121499
 20
0.036
 30
0.0
 11
0.121499
 21
0.0475
 31
0.0
  0
LINE
  5
AE
330
17
100
AcDbEntity
  8
G_MEDIDO
100
AcDbLine
 10
0.21
 20
0.0
 30
0.0
 11
0.21
 21
0.0025
 31
0.0
  0
LINE
  5
AF
330
17
100
AcDbEntity
  8
G_MEDIDO
100
AcDbLine
 10
0.21
 20
0.0025
 30
0.0
 11
0.21
 21
0.032390653
 31
0.0
  0
LINE
  5
B0
330
17
100
AcDbEntity
  8
G_MEDIDO
100
AcDbLine
 10
0.21
 20
0.032390653
 30
0.0
 11
0.21
 21
0.036
 31
0.0
  0
LINE
  5
B1
330
17
100
AcDbEntity
  8
G_MEDIDO
100
AcDbLine
 10
0.0
 20
0.0525
 30
0.0
 11
0.089999
 21
0.0525
 31
0.0
  0
LINE
  5
B2
330
17
100
AcDbEntity
  8
G_MEDIDO
100
AcDbLine
 10
0.089999
 20
0.0525
 30
0.0
 11
0.12
 21
0.0525
 31
0.0
  0
LINE
  5
B3
330
17
100
AcDbEntity
  8
G_MEDIDO
100
AcDbLine
 10
0.12
 20
0.0525
 30
0.0
 11
0.121499
 21
0.0525
 31
0.0
  0
LINE
  5
B4
330
17
100
AcDbEntity
  8
G_MEDIDO
100
AcDbLine
 10
0.121499
 20
0.0475
 30
0.0
 11
0.121499
 21
0.0525
 31
0.0
  0
LINE
  5
B5
330
17
100
AcDbEntity
  8
G_MEDIDO
100
AcDbLine
 10
0.112401062
 20
0.09
 30
0.0
 11
0.12
 21
0.09
 31
0.0
  0
LINE
  5
B6
330
17
100
AcDbEntity
  8
G_MEDIDO
100
AcDbLine
 10
0.089999
 20
0.09
 30
0.0
 11
0.112401062
 21
0.09
 31
0.0
  0
LINE
  5
B7
330
17
100
AcDbEntity
  8
G_MEDIDO
100
AcDbLine
 10
0.097597938
 20
0.01
 30
0.0
 11
0.113
 21
0.01
 31
0.0
  0
LINE
  5
B8
330
17
100
AcDbEntity
  8
G_MEDIDO
100
AcDbLine
 10
0.113
 20
0.01
 30
0.0
 11
0.12
 21
0.01
 31
0.0
  0
LINE
  5
B9
330
17
100
AcDbEntity
  8
G_MEDIDO
100
AcDbLine
 10
0.089999
 20
0.01
 30
0.0
 11
0.097597938
 21
0.01
 31
0.0
  0
LINE
  5
BA
330
17
100
AcDbEntity
  8
G_MEDIDO
100
AcDbLine
 10
0.12
 20
0.01
 30
0.0
 11
0.12
 21
0.0475
 31
0.0
  0
LINE
  5
BB
330
17
100
AcDbEntity
  8
G_MEDIDO
100
AcDbLine
 10
0.12
 20
0.0475
 30
0.0
 11
0.12
 21
0.0525
 31
0.0
  0
LINE
  5
BC
330
17
100
AcDbEntity
  8
G_MEDIDO
100
AcDbLine
 10
0.12
 20
0.0525
 30
0.0
 11
0.12
 21
0.069736842
 31
0.0
  0
LINE
  5
BD
330
17
100
AcDbEntity
  8
G_MEDIDO
100
AcDbLine
 10
0.12
 20
0.069736842
 30
0.0
 11
0.12
 21
0.09
 31
0.0
  0
LINE
  5
BE
330
17
100
AcDbEntity
  8
G_MEDIDO
100
AcDbLine
 10
0.089999
 20
0.01
 30
0.0
 11
0.089999
 21
0.030263158000000002
 31
0.0
  0
LINE
  5
BF
330
17
100
AcDbEntity
  8
G_MEDIDO
100
AcDbLine
 10
0.089999
 20
0.030263158000000002
 30
0.0
 11
0.089999
 21
0.0525
 31
0.0
  0
LINE
  5
C0
330
17
100
AcDbEntity
  8
G_MEDIDO
100
AcDbLine
 10
0.089999
 20
0.0525
 30
0.0
 11
0.089999
 21
0.09
 31
0.0
  0
LINE
  5
C1
330
17
100
AcDbEntity
  8
G_MEDIDO
100
AcDbLine
 10
0.1655
 20
0.08
 30
0.0
 11
0.1675
 21
0.08
 31
0.0
  0
LINE
  5
C2
330
17
100
AcDbEntity
  8
G_MEDIDO
100
AcDbLine
 10
0.1655
 20
0.092
 30
0.0
 11
0.1675
 21
0.092
 31
0.0
  0
LINE
  5
C3
330
17
100
AcDbEntity
  8
G_MEDIDO
100
AcDbLine
 10
0.176501
 20
0.08
 30
0.0
 11
0.1785
 21
0.08
 31
0.0
  0
LINE
  5
C4
330
17
100
AcDbEntity
  8
G_MEDIDO
100
AcDbLine
 10
0.1785
 20
0.08
 30
0.0
 11
0.1785
 21
0.08258
 31
0.0
  0
LINE
  5
C5
330
17
100
AcDbEntity
  8
G_MEDIDO
100
AcDbLine
 10
0.1785
 20
0.08258
 30
0.0
 11
0.1785
 21
0.08857999999999999
 31
0.0
  0
LINE
  5
C6
330
17
100
AcDbEntity
  8
G_MEDIDO
100
AcDbLine
 10
0.1785
 20
0.08857999999999999
 30
0.0
 11
0.1785
 21
0.092
 31
0.0
  0
LINE
  5
C7
330
17
100
AcDbEntity
  8
G_MEDIDO
100
AcDbLine
 10
0.176501
 20
0.092
 30
0.0
 11
0.1785
 21
0.092
 31
0.0
  0
LINE
  5
C8
330
17
100
AcDbEntity
  8
G_MEDIDO
100
AcDbLine
 10
0.176501
 20
0.074
 30
0.0
 11
0.176501
 21
0.08
 31
0.0
  0
LINE
  5
C9
330
17
100
AcDbEntity
  8
G_MEDIDO
100
AcDbLine
 10
0.1675
 20
0.074
 30
0.0
 11
0.1675
 21
0.08
 31
0.0
  0
LINE
  5
CA
330
17
100
AcDbEntity
  8
G_MEDIDO
100
AcDbLine
 10
0.1915
 20
0.08258
 30
0.0
 11
0.1935
 21
0.08258
 31
0.0
  0
LINE
  5
CB
330
17
100
AcDbEntity
  8
G_MEDIDO
100
AcDbLine
 10
0.1915
 20
0.09458
 30
0.0
 11
0.1935
 21
0.09458
 31
0.0
  0
LINE
  5
CC
330
17
100
AcDbEntity
  8
G_MEDIDO
100
AcDbLine
 10
0.1915
 20
0.08258
 30
0.0
 11
0.1915
 21
0.08857999999999999
 31
0.0
  0
LINE
  5
CD
330
17
100
AcDbEntity
  8
G_MEDIDO
100
AcDbLine
 10
0.1915
 20
0.08857999999999999
 30
0.0
 11
0.1915
 21
0.09458
 31
0.0
  0
LINE
  5
CE
330
17
100
AcDbEntity
  8
G_MEDIDO
100
AcDbLine
 10
0.20250100000000001
 20
0.08258
 30
0.0
 11
0.2045
 21
0.08258
 31
0.0
  0
LINE
  5
CF
330
17
100
AcDbEntity
  8
G_MEDIDO
100
AcDbLine
 10
0.20250100000000001
 20
0.09458
 30
0.0
 11
0.2045
 21
0.09458
 31
0.0
  0
LINE
  5
D0
330
17
100
AcDbEntity
  8
G_MEDIDO
100
AcDbLine
 10
0.1935
 20
0.07658
 30
0.0
 11
0.20250100000000001
 21
0.07658
 31
0.0
  0
LINE
  5
D1
330
17
100
AcDbEntity
  8
G_MEDIDO
100
AcDbLine
 10
0.20250100000000001
 20
0.07658
 30
0.0
 11
0.20250100000000001
 21
0.08258
 31
0.0
  0
LINE
  5
D2
330
17
100
AcDbEntity
  8
G_MEDIDO
100
AcDbLine
 10
0.1935
 20
0.07658
 30
0.0
 11
0.1935
 21
0.08258
 31
0.0
  0
LINE
  5
D3
330
17
100
AcDbEntity
  8
G_MEDIDO
100
AcDbLine
 10
0.20250100000000001
 20
0.074
 30
0.0
 11
0.20250100000000001
 21
0.07658
 31
0.0
  0
LINE
  5
D4
330
17
100
AcDbEntity
  8
G_MEDIDO
100
AcDbLine
 10
0.1935
 20
0.074
 30
0.0
 11
0.1935
 21
0.07658
 31
0.0
  0
LINE
  5
D5
330
17
100
AcDbEntity
  8
G_MEDIDO
100
AcDbLine
 10
0.1785
 20
0.08258
 30
0.0
 11
0.1915
 21
0.08258
 31
0.0
  0
LINE
  5
D6
330
17
100
AcDbEntity
  8
G_MEDIDO
100
AcDbLine
 10
0.1785
 20
0.08857999999999999
 30
0.0
 11
0.1915
 21
0.08857999999999999
 31
0.0
  0
LINE
  5
D7
330
17
100
AcDbEntity
  8
G_MEDIDO
100
AcDbLine
 10
0.2475
 20
0.036
 30
0.0
 11
0.2475
 21
0.039
 31
0.0
  0
LINE
  5
D8
330
17
100
AcDbEntity
  8
G_MEDIDO
100
AcDbLine
 10
0.1225
 20
0.039
 30
0.0
 11
0.126499
 21
0.039
 31
0.0
  0
LINE
  5
D9
330
17
100
AcDbEntity
  8
G_MEDIDO
100
AcDbLine
 10
0.2435
 20
0.039
 30
0.0
 11
0.2475
 21
0.039
 31
0.0
  0
LINE
  5
DA
330
17
100
AcDbEntity
  8
G_MEDIDO
100
AcDbLine
 10
0.1225
 20
0.036
 30
0.0
 11
0.1225
 21
0.039
 31
0.0
  0
LINE
  5
DB
330
17
100
AcDbEntity
  8
G_MEDIDO
100
AcDbLine
 10
0.1225
 20
0.039
 30
0.0
 11
0.1225
 21
0.043
 31
0.0
  0
LINE
  5
DC
330
17
100
AcDbEntity
  8
G_MEDIDO
100
AcDbLine
 10
0.121499
 20
0.0475
 30
0.0
 11
0.1225
 21
0.0475
 31
0.0
  0
LINE
  5
DD
330
17
100
AcDbEntity
  8
G_MEDIDO
100
AcDbLine
 10
0.2475
 20
0.0475
 30
0.0
 11
0.2485
 21
0.0475
 31
0.0
  0
LINE
  5
DE
330
17
100
AcDbEntity
  8
G_MEDIDO
100
AcDbLine
 10
0.2475
 20
0.039
 30
0.0
 11
0.2475
 21
0.043
 31
0.0
  0
DIMENSION
  5
DF
330
17
100
AcDbEntity
  8
COTAS
100
AcDbDimension
280
0
  2
*D1
  3
Standard
 10
0.1675
 20
0.28
 30
0.0
 11
0.185
 21
0.28
 31
0.0
 70
32
 71
5
  1
<>
100
AcDbAlignedDimension
 13
0.1675
 23
0.28
 33
0.0
 14
0.2025
 24
0.28
 34
0.0
 50
0.0
100
AcDbRotatedDimension
1001
ACAD
1000
DSTYLE
1002
{
1070
140
1040
0.0052
1070
41
1040
0.007
1002
}
  0
DIMENSION
  5
F5
330
17
100
AcDbEntity
  8
COTAS
100
AcDbDimension
280
0
  2
*D2
  3
Standard
 10
0.285
 20
0.074
 30
0.0
 11
-0.34260000000000007
 21
0.077
 31
0.0
 70
32
 71
5
  1
<>
100
AcDbAlignedDimension
 13
0.285
 23
0.074
 33
0.0
 14
0.285
 24
0.08
 34
0.0
 50
90.0
100
AcDbRotatedDimension
1001
ACAD
1000
DSTYLE
1002
{
1070
140
1040
0.0052
1070
41
1040
0.007
1002
}
  0
DIMENSION
  5
106
330
17
100
AcDbEntity
  8
COTAS
100
AcDbDimension
280
0
  2
*D3
  3
Standard
 10
0.285
 20
0.03600027084350587
 30
0.0
 11
-0.34260000000000007
 21
0.0375001621246338
 31
0.0
 70
32
 71
5
  1
<>
100
AcDbAlignedDimension
 13
0.285
 23
0.03600027084350587
 33
0.0
 14
0.285
 24
0.03900005340576173
 34
0.0
 50
90.0
100
AcDbRotatedDimension
1001
ACAD
1000
DSTYLE
1002
{
1070
140
1040
0.0052
1070
41
1040
0.007
1002
}
  0
LINE
  5
117
330
17
100
AcDbEntity
  8
G_MEDIDO
100
AcDbLine
 10
10.2
 20
0.0
 30
0.0
 11
10.2
 21
0.108
 31
0.0
  0
LINE
  5
118
330
17
100
AcDbEntity
  8
G_MEDIDO
100
AcDbLine
 10
10.2485
 20
0.15
 30
0.0
 11
10.294014642
 21
0.15
 31
0.0
  0
LINE
  5
119
330
17
100
AcDbEntity
  8
G_MEDIDO
100
AcDbLine
 10
10.294014642
 20
0.15
 30
0.0
 11
10.36
 21
0.15
 31
0.0
  0
LINE
  5
11A
330
17
100
AcDbEntity
  8
G_MEDIDO
100
AcDbLine
 10
10.2
 20
0.108
 30
0.0
 11
10.2485
 21
0.108
 31
0.0
  0
LINE
  5
11B
330
17
100
AcDbEntity
  8
G_MEDIDO
100
AcDbLine
 10
10.2485
 20
0.108
 30
0.0
 11
10.2485
 21
0.15
 31
0.0
  0
LINE
  5
11C
330
17
100
AcDbEntity
  8
G_MEDIDO
100
AcDbLine
 10
10.1675
 20
0.15
 30
0.0
 11
10.172105163
 21
0.15
 31
0.0
  0
LINE
  5
11D
330
17
100
AcDbEntity
  8
G_MEDIDO
100
AcDbLine
 10
10.172105163
 20
0.15
 30
0.0
 11
10.176501
 21
0.15
 31
0.0
  0
LINE
  5
11E
330
17
100
AcDbEntity
  8
G_MEDIDO
100
AcDbLine
 10
10.176501
 20
0.15
 30
0.0
 11
10.176501
 21
0.162
 31
0.0
  0
LINE
  5
11F
330
17
100
AcDbEntity
  8
G_MEDIDO
100
AcDbLine
 10
10.176501
 20
0.162
 30
0.0
 11
10.176501
 21
0.3
 31
0.0
  0
LINE
  5
120
330
17
100
AcDbEntity
  8
G_MEDIDO
100
AcDbLine
 10
10.1675
 20
0.15
 30
0.0
 11
10.1675
 21
0.162
 31
0.0
  0
LINE
  5
121
330
17
100
AcDbEntity
  8
G_MEDIDO
100
AcDbLine
 10
10.1675
 20
0.162
 30
0.0
 11
10.1675
 21
0.3
 31
0.0
  0
LINE
  5
122
330
17
100
AcDbEntity
  8
G_MEDIDO
100
AcDbLine
 10
10.1935
 20
0.1545
 30
0.0
 11
10.198105478
 21
0.1545
 31
0.0
  0
LINE
  5
123
330
17
100
AcDbEntity
  8
G_MEDIDO
100
AcDbLine
 10
10.198105478
 20
0.1545
 30
0.0
 11
10.202501
 21
0.1545
 31
0.0
  0
LINE
  5
124
330
17
100
AcDbEntity
  8
G_MEDIDO
100
AcDbLine
 10
10.202501
 20
0.1545
 30
0.0
 11
10.202501
 21
0.1665
 31
0.0
  0
LINE
  5
125
330
17
100
AcDbEntity
  8
G_MEDIDO
100
AcDbLine
 10
10.202501
 20
0.1665
 30
0.0
 11
10.202501
 21
0.3
 31
0.0
  0
LINE
  5
126
330
17
100
AcDbEntity
  8
G_MEDIDO
100
AcDbLine
 10
10.1935
 20
0.1545
 30
0.0
 11
10.1935
 21
0.1665
 31
0.0
  0
LINE
  5
127
330
17
100
AcDbEntity
  8
G_MEDIDO
100
AcDbLine
 10
10.1935
 20
0.1665
 30
0.0
 11
10.1935
 21
0.3
 31
0.0
  0
LINE
  5
128
330
17
100
AcDbEntity
  8
G_MEDIDO
100
AcDbLine
 10
10.123671
 20
0.11017199999999999
 30
0.0
 11
10.123449442
 21
0.110433981
 31
0.0
  0
LINE
  5
129
330
17
100
AcDbEntity
  8
G_MEDIDO
100
AcDbLine
 10
10.123449442
 20
0.110433981
 30
0.0
 11
10.123238
 21
0.11068399999999999
 31
0.0
  0
LINE
  5
12A
330
17
100
AcDbEntity
  8
G_MEDIDO
100
AcDbLine
 10
10.123238
 20
0.11068399999999999
 30
0.0
 11
10.122860379
 21
0.111869056
 31
0.0
  0
LINE
  5
12B
330
17
100
AcDbEntity
  8
G_MEDIDO
100
AcDbLine
 10
10.122860379
 20
0.111869056
 30
0.0
 11
10.1225
 21
0.113
 31
0.0
  0
LINE
  5
12C
330
17
100
AcDbEntity
  8
G_MEDIDO
100
AcDbLine
 10
10.1225
 20
0.113
 30
0.0
 11
10.1225
 21
0.150864486
 31
0.0
  0
LINE
  5
12D
330
17
100
AcDbEntity
  8
G_MEDIDO
100
AcDbLine
 10
10.1225
 20
0.150864486
 30
0.0
 11
10.1225
 21
0.187
 31
0.0
  0
LINE
  5
12E
330
17
100
AcDbEntity
  8
G_MEDIDO
100
AcDbLine
 10
10.1225
 20
0.187
 30
0.0
 11
10.122877621
 21
0.188185056
 31
0.0
  0
LINE
  5
12F
330
17
100
AcDbEntity
  8
G_MEDIDO
100
AcDbLine
 10
10.122877621
 20
0.188185056
 30
0.0
 11
10.123238
 21
0.189316
 31
0.0
  0
LINE
  5
130
330
17
100
AcDbEntity
  8
G_MEDIDO
100
AcDbLine
 10
10.123238
 20
0.189316
 30
0.0
 11
10.123459558
 21
0.189577981
 31
0.0
  0
LINE
  5
131
330
17
100
AcDbEntity
  8
G_MEDIDO
100
AcDbLine
 10
10.123459558
 20
0.189577981
 30
0.0
 11
10.123671
 21
0.189828
 31
0.0
  0
LINE
  5
132
330
17
100
AcDbEntity
  8
G_MEDIDO
100
AcDbLine
 10
10.246329
 20
0.11017199999999999
 30
0.0
 11
10.246550558
 21
0.110433981
 31
0.0
  0
LINE
  5
133
330
17
100
AcDbEntity
  8
G_MEDIDO
100
AcDbLine
 10
10.246550558
 20
0.110433981
 30
0.0
 11
10.246762
 21
0.11068399999999999
 31
0.0
  0
LINE
  5
134
330
17
100
AcDbEntity
  8
G_MEDIDO
100
AcDbLine
 10
10.246762
 20
0.11068399999999999
 30
0.0
 11
10.247139621
 21
0.111869056
 31
0.0
  0
LINE
  5
135
330
17
100
AcDbEntity
  8
G_MEDIDO
100
AcDbLine
 10
10.247139621
 20
0.111869056
 30
0.0
 11
10.2475
 21
0.113
 31
0.0
  0
LINE
  5
136
330
17
100
AcDbEntity
  8
G_MEDIDO
100
AcDbLine
 10
10.2475
 20
0.113
 30
0.0
 11
10.2475
 21
0.150864486
 31
0.0
  0
LINE
  5
137
330
17
100
AcDbEntity
  8
G_MEDIDO
100
AcDbLine
 10
10.2475
 20
0.150864486
 30
0.0
 11
10.2475
 21
0.187
 31
0.0
  0
LINE
  5
138
330
17
100
AcDbEntity
  8
G_MEDIDO
100
AcDbLine
 10
10.2475
 20
0.187
 30
0.0
 11
10.247122379
 21
0.188185056
 31
0.0
  0
LINE
  5
139
330
17
100
AcDbEntity
  8
G_MEDIDO
100
AcDbLine
 10
10.247122379
 20
0.188185056
 30
0.0
 11
10.246762
 21
0.189316
 31
0.0
  0
LINE
  5
13A
330
17
100
AcDbEntity
  8
G_MEDIDO
100
AcDbLine
 10
10.246762
 20
0.189316
 30
0.0
 11
10.246540442
 21
0.189577981
 31
0.0
  0
LINE
  5
13B
330
17
100
AcDbEntity
  8
G_MEDIDO
100
AcDbLine
 10
10.246540442
 20
0.189577981
 30
0.0
 11
10.246329
 21
0.189828
 31
0.0
  0
LINE
  5
13C
330
17
100
AcDbEntity
  8
G_MEDIDO
100
AcDbLine
 10
10.123671
 20
0.11017199999999999
 30
0.0
 11
10.123933493
 21
0.10994993
 31
0.0
  0
LINE
  5
13D
330
17
100
AcDbEntity
  8
G_MEDIDO
100
AcDbLine
 10
10.123933493
 20
0.10994993
 30
0.0
 11
10.124184
 21
0.109738
 31
0.0
  0
LINE
  5
13E
330
17
100
AcDbEntity
  8
G_MEDIDO
100
AcDbLine
 10
10.124184
 20
0.109738
 30
0.0
 11
10.125368544
 21
0.109360379
 31
0.0
  0
LINE
  5
13F
330
17
100
AcDbEntity
  8
G_MEDIDO
100
AcDbLine
 10
10.125368544
 20
0.109360379
 30
0.0
 11
10.126499
 21
0.109
 31
0.0
  0
LINE
  5
140
330
17
100
AcDbEntity
  8
G_MEDIDO
100
AcDbLine
 10
10.126499
 20
0.109
 30
0.0
 11
10.186366334
 21
0.109
 31
0.0
  0
LINE
  5
141
330
17
100
AcDbEntity
  8
G_MEDIDO
100
AcDbLine
 10
10.186366334
 20
0.109
 30
0.0
 11
10.2435
 21
0.109
 31
0.0
  0
LINE
  5
142
330
17
100
AcDbEntity
  8
G_MEDIDO
100
AcDbLine
 10
10.2435
 20
0.109
 30
0.0
 11
10.244684544
 21
0.10937762100000001
 31
0.0
  0
LINE
  5
143
330
17
100
AcDbEntity
  8
G_MEDIDO
100
AcDbLine
 10
10.244684544
 20
0.10937762100000001
 30
0.0
 11
10.245815
 21
0.109738
 31
0.0
  0
LINE
  5
144
330
17
100
AcDbEntity
  8
G_MEDIDO
100
AcDbLine
 10
10.245815
 20
0.109738
 30
0.0
 11
10.246078005
 21
0.10996007000000001
 31
0.0
  0
LINE
  5
145
330
17
100
AcDbEntity
  8
G_MEDIDO
100
AcDbLine
 10
10.246078005
 20
0.10996007000000001
 30
0.0
 11
10.246329
 21
0.11017199999999999
 31
0.0
  0
LINE
  5
146
330
17
100
AcDbEntity
  8
G_MEDIDO
100
AcDbLine
 10
10.123671
 20
0.189828
 30
0.0
 11
10.123933493
 21
0.19005007000000002
 31
0.0
  0
LINE
  5
147
330
17
100
AcDbEntity
  8
G_MEDIDO
100
AcDbLine
 10
10.123933493
 20
0.19005007000000002
 30
0.0
 11
10.124184
 21
0.190262
 31
0.0
  0
LINE
  5
148
330
17
100
AcDbEntity
  8
G_MEDIDO
100
AcDbLine
 10
10.124184
 20
0.190262
 30
0.0
 11
10.125368544
 21
0.190639621
 31
0.0
  0
LINE
  5
149
330
17
100
AcDbEntity
  8
G_MEDIDO
100
AcDbLine
 10
10.125368544
 20
0.190639621
 30
0.0
 11
10.126499
 21
0.191
 31
0.0
  0
LINE
  5
14A
330
17
100
AcDbEntity
  8
G_MEDIDO
100
AcDbLine
 10
10.126499
 20
0.191
 30
0.0
 11
10.1655
 21
0.191
 31
0.0
  0
LINE
  5
14B
330
17
100
AcDbEntity
  8
G_MEDIDO
100
AcDbLine
 10
10.2045
 20
0.191
 30
0.0
 11
10.2435
 21
0.191
 31
0.0
  0
LINE
  5
14C
330
17
100
AcDbEntity
  8
G_MEDIDO
100
AcDbLine
 10
10.2435
 20
0.191
 30
0.0
 11
10.244684544
 21
0.190622379
 31
0.0
  0
LINE
  5
14D
330
17
100
AcDbEntity
  8
G_MEDIDO
100
AcDbLine
 10
10.244684544
 20
0.190622379
 30
0.0
 11
10.245815
 21
0.190262
 31
0.0
  0
LINE
  5
14E
330
17
100
AcDbEntity
  8
G_MEDIDO
100
AcDbLine
 10
10.245815
 20
0.190262
 30
0.0
 11
10.246078005
 21
0.19003993
 31
0.0
  0
LINE
  5
14F
330
17
100
AcDbEntity
  8
G_MEDIDO
100
AcDbLine
 10
10.246078005
 20
0.19003993
 30
0.0
 11
10.246329
 21
0.189828
 31
0.0
  0
LINE
  5
150
330
17
100
AcDbEntity
  8
G_MEDIDO
100
AcDbLine
 10
10.1655
 20
0.148
 30
0.0
 11
10.2045
 21
0.148
 31
0.0
  0
LINE
  5
151
330
17
100
AcDbEntity
  8
G_MEDIDO
100
AcDbLine
 10
10.2045
 20
0.148
 30
0.0
 11
10.2045
 21
0.1545
 31
0.0
  0
LINE
  5
152
330
17
100
AcDbEntity
  8
G_MEDIDO
100
AcDbLine
 10
10.2045
 20
0.1545
 30
0.0
 11
10.2045
 21
0.1665
 31
0.0
  0
LINE
  5
153
330
17
100
AcDbEntity
  8
G_MEDIDO
100
AcDbLine
 10
10.2045
 20
0.1665
 30
0.0
 11
10.2045
 21
0.191
 31
0.0
  0
LINE
  5
154
330
17
100
AcDbEntity
  8
G_MEDIDO
100
AcDbLine
 10
10.1655
 20
0.148
 30
0.0
 11
10.1655
 21
0.15
 31
0.0
  0
LINE
  5
155
330
17
100
AcDbEntity
  8
G_MEDIDO
100
AcDbLine
 10
10.1655
 20
0.15
 30
0.0
 11
10.1655
 21
0.162
 31
0.0
  0
LINE
  5
156
330
17
100
AcDbEntity
  8
G_MEDIDO
100
AcDbLine
 10
10.1655
 20
0.162
 30
0.0
 11
10.1655
 21
0.191
 31
0.0
  0
LINE
  5
157
330
17
100
AcDbEntity
  8
G_MEDIDO
100
AcDbLine
 10
10.1049995
 20
0.19
 30
0.0
 11
10.12
 21
0.19
 31
0.0
  0
LINE
  5
158
330
17
100
AcDbEntity
  8
G_MEDIDO
100
AcDbLine
 10
10.089999
 20
0.19
 30
0.0
 11
10.1049995
 21
0.19
 31
0.0
  0
LINE
  5
159
330
17
100
AcDbEntity
  8
G_MEDIDO
100
AcDbLine
 10
10.089999
 20
0.11
 30
0.0
 11
10.1049995
 21
0.11
 31
0.0
  0
LINE
  5
15A
330
17
100
AcDbEntity
  8
G_MEDIDO
100
AcDbLine
 10
10.1049995
 20
0.11
 30
0.0
 11
10.12
 21
0.11
 31
0.0
  0
LINE
  5
15B
330
17
100
AcDbEntity
  8
G_MEDIDO
100
AcDbLine
 10
10.12
 20
0.11
 30
0.0
 11
10.12
 21
0.15
 31
0.0
  0
LINE
  5
15C
330
17
100
AcDbEntity
  8
G_MEDIDO
100
AcDbLine
 10
10.12
 20
0.15
 30
0.0
 11
10.12
 21
0.19
 31
0.0
  0
LINE
  5
15D
330
17
100
AcDbEntity
  8
G_MEDIDO
100
AcDbLine
 10
10.089999
 20
0.15
 30
0.0
 11
10.089999
 21
0.19
 31
0.0
  0
LINE
  5
15E
330
17
100
AcDbEntity
  8
G_MEDIDO
100
AcDbLine
 10
10.089999
 20
0.11
 30
0.0
 11
10.089999
 21
0.15
 31
0.0
  0
LINE
  5
15F
330
17
100
AcDbEntity
  8
G_MEDIDO
100
AcDbLine
 10
10.1655
 20
0.15
 30
0.0
 11
10.1675
 21
0.15
 31
0.0
  0
LINE
  5
160
330
17
100
AcDbEntity
  8
G_MEDIDO
100
AcDbLine
 10
10.1655
 20
0.162
 30
0.0
 11
10.1675
 21
0.162
 31
0.0
  0
LINE
  5
161
330
17
100
AcDbEntity
  8
G_MEDIDO
100
AcDbLine
 10
10.176501
 20
0.15
 30
0.0
 11
10.1785
 21
0.15
 31
0.0
  0
LINE
  5
162
330
17
100
AcDbEntity
  8
G_MEDIDO
100
AcDbLine
 10
10.176501
 20
0.162
 30
0.0
 11
10.1785
 21
0.162
 31
0.0
  0
LINE
  5
163
330
17
100
AcDbEntity
  8
G_MEDIDO
100
AcDbLine
 10
10.1785
 20
0.15
 30
0.0
 11
10.1785
 21
0.1545
 31
0.0
  0
LINE
  5
164
330
17
100
AcDbEntity
  8
G_MEDIDO
100
AcDbLine
 10
10.1785
 20
0.1545
 30
0.0
 11
10.1785
 21
0.1605
 31
0.0
  0
LINE
  5
165
330
17
100
AcDbEntity
  8
G_MEDIDO
100
AcDbLine
 10
10.1785
 20
0.1605
 30
0.0
 11
10.1785
 21
0.162
 31
0.0
  0
LINE
  5
166
330
17
100
AcDbEntity
  8
G_MEDIDO
100
AcDbLine
 10
10.1915
 20
0.1545
 30
0.0
 11
10.1935
 21
0.1545
 31
0.0
  0
LINE
  5
167
330
17
100
AcDbEntity
  8
G_MEDIDO
100
AcDbLine
 10
10.1915
 20
0.1665
 30
0.0
 11
10.1935
 21
0.1665
 31
0.0
  0
LINE
  5
168
330
17
100
AcDbEntity
  8
G_MEDIDO
100
AcDbLine
 10
10.1915
 20
0.1545
 30
0.0
 11
10.1915
 21
0.1605
 31
0.0
  0
LINE
  5
169
330
17
100
AcDbEntity
  8
G_MEDIDO
100
AcDbLine
 10
10.1915
 20
0.1605
 30
0.0
 11
10.1915
 21
0.1665
 31
0.0
  0
LINE
  5
16A
330
17
100
AcDbEntity
  8
G_MEDIDO
100
AcDbLine
 10
10.202501
 20
0.1545
 30
0.0
 11
10.2045
 21
0.1545
 31
0.0
  0
LINE
  5
16B
330
17
100
AcDbEntity
  8
G_MEDIDO
100
AcDbLine
 10
10.202501
 20
0.1665
 30
0.0
 11
10.2045
 21
0.1665
 31
0.0
  0
LINE
  5
16C
330
17
100
AcDbEntity
  8
G_MEDIDO
100
AcDbLine
 10
10.1785
 20
0.1545
 30
0.0
 11
10.1915
 21
0.1545
 31
0.0
  0
LINE
  5
16D
330
17
100
AcDbEntity
  8
G_MEDIDO
100
AcDbLine
 10
10.1785
 20
0.1605
 30
0.0
 11
10.1915
 21
0.1605
 31
0.0
  0
DIMENSION
  5
16E
330
17
100
AcDbEntity
  8
COTAS
100
AcDbDimension
280
0
  2
*D4
  3
Standard
 10
10.1655
 20
0.28
 30
0.0
 11
10.184999999999999
 21
0.28
 31
0.0
 70
32
 71
5
  1
<>
100
AcDbAlignedDimension
 13
10.1655
 23
0.28
 33
0.0
 14
10.2045
 24
0.28
 34
0.0
 50
0.0
100
AcDbRotatedDimension
1001
ACAD
1000
DSTYLE
1002
{
1070
140
1040
0.0052
1070
41
1040
0.007
1002
}
  0
DIMENSION
  5
180
330
17
100
AcDbEntity
  8
COTAS
100
AcDbDimension
280
0
  2
*D5
  3
Standard
 10
10.1765
 20
0.33
 30
0.0
 11
10.185
 21
0.9576
 31
0.0
 70
32
 71
5
  1
<>
100
AcDbAlignedDimension
 13
10.1765
 23
0.33
 33
0.0
 14
10.1935
 24
0.33
 34
0.0
 50
0.0
100
AcDbRotatedDimension
1001
ACAD
1000
DSTYLE
1002
{
1070
140
1040
0.0052
1070
41
1040
0.007
1002
}
  0
LWPOLYLINE
  5
191
330
17
100
AcDbEntity
  8
G_MEDIDO
100
AcDbPolyline
 90
4
 70
1
 10
20.08
 20
0.0
 10
20.3
 20
0.0
 10
20.3
 20
0.23
 10
20.08
 20
0.23
  0
LINE
  5
192
330
17
100
AcDbEntity
  8
G_MEDIDO
100
AcDbLine
 10
20.08
 20
0.23
 30
0.0
 11
20.08
 21
0.23
 31
0.0
  0
LINE
  5
193
330
17
100
AcDbEntity
  8
G_MEDIDO
100
AcDbLine
 10
20.08
 20
0.19
 30
0.0
 11
20.12
 21
0.23
 31
0.0
  0
LINE
  5
194
330
17
100
AcDbEntity
  8
G_MEDIDO
100
AcDbLine
 10
20.08
 20
0.15
 30
0.0
 11
20.16
 21
0.23
 31
0.0
  0
LINE
  5
195
330
17
100
AcDbEntity
  8
G_MEDIDO
100
AcDbLine
 10
20.08
 20
0.11
 30
0.0
 11
20.2
 21
0.23
 31
0.0
  0
LINE
  5
196
330
17
100
AcDbEntity
  8
G_MEDIDO
100
AcDbLine
 10
20.08
 20
0.07
 30
0.0
 11
20.24
 21
0.23
 31
0.0
  0
LINE
  5
197
330
17
100
AcDbEntity
  8
G_MEDIDO
100
AcDbLine
 10
20.08
 20
0.03
 30
0.0
 11
20.28
 21
0.23
 31
0.0
  0
LINE
  5
198
330
17
100
AcDbEntity
  8
G_MEDIDO
100
AcDbLine
 10
20.09
 20
0.0
 30
0.0
 11
20.3
 21
0.21
 31
0.0
  0
LINE
  5
199
330
17
100
AcDbEntity
  8
G_MEDIDO
100
AcDbLine
 10
20.13
 20
0.0
 30
0.0
 11
20.3
 21
0.17
 31
0.0
  0
LINE
  5
19A
330
17
100
AcDbEntity
  8
G_MEDIDO
100
AcDbLine
 10
20.17
 20
0.0
 30
0.0
 11
20.3
 21
0.13
 31
0.0
  0
LINE
  5
19B
330
17
100
AcDbEntity
  8
G_MEDIDO
100
AcDbLine
 10
20.21
 20
0.0
 30
0.0
 11
20.3
 21
0.09
 31
0.0
  0
LINE
  5
19C
330
17
100
AcDbEntity
  8
G_MEDIDO
100
AcDbLine
 10
20.25
 20
0.0
 30
0.0
 11
20.3
 21
0.05
 31
0.0
  0
LINE
  5
19D
330
17
100
AcDbEntity
  8
G_MEDIDO
100
AcDbLine
 10
20.29
 20
0.0
 30
0.0
 11
20.3
 21
0.01
 31
0.0
  0
LWPOLYLINE
  5
19E
330
17
100
AcDbEntity
  8
P_PROPUESTO
100
AcDbPolyline
 90
4
 70
1
 10
20.26
 20
0.06
 10
20.51
 20
0.06
 10
20.51
 20
0.072
 10
20.26
 20
0.072
  0
LWPOLYLINE
  5
19F
330
17
100
AcDbEntity
  8
P_PROPUESTO
100
AcDbPolyline
 90
4
 70
1
 10
20.29
 20
0.0
 10
20.3
 20
0.0
 10
20.3
 20
0.06
 10
20.29
 20
0.06
  0
LWPOLYLINE
  5
1A0
330
17
100
AcDbEntity
  8
P_PROPUESTO
100
AcDbPolyline
 90
4
 70
1
 10
20.245
 20
0.014
 10
20.305
 20
0.014
 10
20.305
 20
0.022
 10
20.245
 20
0.022
  0
LWPOLYLINE
  5
1A1
330
17
100
AcDbEntity
  8
P_PROPUESTO
100
AcDbPolyline
 90
4
 70
1
 10
20.3
 20
0.011
 10
20.305
 20
0.011
 10
20.305
 20
0.025
 10
20.3
 20
0.025
  0
LWPOLYLINE
  5
1A2
330
17
100
AcDbEntity
  8
P_PROPUESTO
100
AcDbPolyline
 90
4
 70
1
 10
20.245
 20
0.04
 10
20.305
 20
0.04
 10
20.305
 20
0.048
 10
20.245
 20
0.048
  0
LWPOLYLINE
  5
1A3
330
17
100
AcDbEntity
  8
P_PROPUESTO
100
AcDbPolyline
 90
4
 70
1
 10
20.3
 20
0.037
 10
20.305
 20
0.037
 10
20.305
 20
0.051
 10
20.3
 20
0.051
  0
LWPOLYLINE
  5
1A4
330
17
100
AcDbEntity
  8
P_PROPUESTO
100
AcDbPolyline
 90
4
 70
1
 10
20.315
 20
0.072
 10
20.44
 20
0.072
 10
20.44
 20
0.075
 10
20.315
 20
0.075
  0
LWPOLYLINE
  5
1A5
330
17
100
AcDbEntity
  8
G_MEDIDO
100
AcDbPolyline
 90
4
 70
1
 10
20.315
 20
0.075
 10
20.44
 20
0.075
 10
20.44
 20
0.245
 10
20.315
 20
0.245
  0
LWPOLYLINE
  5
1A6
330
17
100
AcDbEntity
  8
P_PROPUESTO
100
AcDbPolyline
 90
40
 70
1
 10
20.3135
 20
0.085
 10
20.313422301575827
 20
0.08596246768514657
 10
20.31319121865168
 20
0.08690000796280883
 10
20.31281273615392
 20
0.08778833903226262
 10
20.312296656580422
 20
0.08860445358542787
 10
20.311656346121058
 20
0.08932721468406288
 10
20.310908388480385
 20
0.08993790319536193
 10
20.310072155368417
 20
0.09042070260766229
 10
20.3091693047835
 20
0.09076310866978823
 10
20.308223220081533
 20
0.09095625324458832
 10
20.307258404359345
 20
0.0909951339890294
 10
20.306299845837344
 20
0.09087874391225362
 10
20.305372370677745
 20
0.09061009745611248
 10
20.3045
 20
0.09019615242270664
 10
20.303705327746428
 20
0.08964762977096592
 10
20.303008935510974
 20
0.08897873594944476
 10
20.30242885948674
 20
0.08820679495676681
 10
20.301980123338048
 20
0.08735179965916044
 10
20.301674349095443
 20
0.08643589398572535
 10
20.301519456151194
 20
0.08548279941230036
 10
20.301519456151194
 20
0.08451720058769965
 10
20.301674349095443
 20
0.08356410601427465
 10
20.301980123338048
 20
0.08264820034083956
 10
20.30242885948674
 20
0.0817932050432332
 10
20.303008935510974
 20
0.08102126405055524
 10
20.303705327746428
 20
0.08035237022903408
 10
20.3045
 20
0.07980384757729336
 10
20.305372370677745
 20
0.07938990254388752
 10
20.306299845837344
 20
0.0791212560877464
 10
20.307258404359345
 20
0.07900486601097059
 10
20.308223220081533
 20
0.07904374675541168
 10
20.3091693047835
 20
0.07923689133021176
 10
20.310072155368417
 20
0.07957929739233771
 10
20.310908388480385
 20
0.08006209680463806
 10
20.311656346121058
 20
0.08067278531593712
 10
20.312296656580422
 20
0.08139554641457213
 10
20.31281273615392
 20
0.08221166096773738
 10
20.31319121865168
 20
0.08309999203719115
 10
20.313422301575827
 20
0.08403753231485343
 10
20.3135
 20
0.085
  0
LWPOLYLINE
  5
1A7
330
17
100
AcDbEntity
  8
P_PROPUESTO
100
AcDbPolyline
 90
4
 70
1
 10
20.3
 20
0.08
 10
20.315
 20
0.08
 10
20.315
 20
0.09
 10
20.3
 20
0.09
  0
LWPOLYLINE
  5
1A8
330
17
100
AcDbEntity
  8
P_PROPUESTO
100
AcDbPolyline
 90
40
 70
1
 10
20.3135
 20
0.225
 10
20.313422301575827
 20
0.22596246768514655
 10
20.31319121865168
 20
0.22690000796280885
 10
20.31281273615392
 20
0.2277883390322626
 10
20.312296656580422
 20
0.22860445358542789
 10
20.311656346121058
 20
0.2293272146840629
 10
20.310908388480385
 20
0.22993790319536195
 10
20.310072155368417
 20
0.2304207026076623
 10
20.3091693047835
 20
0.23076310866978825
 10
20.308223220081533
 20
0.23095625324458832
 10
20.307258404359345
 20
0.23099513398902943
 10
20.306299845837344
 20
0.2308787439122536
 10
20.305372370677745
 20
0.2306100974561125
 10
20.3045
 20
0.23019615242270663
 10
20.303705327746428
 20
0.22964762977096592
 10
20.303008935510974
 20
0.22897873594944476
 10
20.30242885948674
 20
0.2282067949567668
 10
20.301980123338048
 20
0.22735179965916047
 10
20.301674349095443
 20
0.22643589398572536
 10
20.301519456151194
 20
0.22548279941230034
 10
20.301519456151194
 20
0.22451720058769964
 10
20.301674349095443
 20
0.22356410601427465
 10
20.301980123338048
 20
0.22264820034083954
 10
20.30242885948674
 20
0.2217932050432332
 10
20.303008935510974
 20
0.22102126405055522
 10
20.303705327746428
 20
0.2203523702290341
 10
20.3045
 20
0.21980384757729338
 10
20.305372370677745
 20
0.2193899025438875
 10
20.306299845837344
 20
0.21912125608774638
 10
20.307258404359345
 20
0.21900486601097058
 10
20.308223220081533
 20
0.2190437467554117
 10
20.3091693047835
 20
0.21923689133021176
 10
20.310072155368417
 20
0.2195792973923377
 10
20.310908388480385
 20
0.22006209680463806
 10
20.311656346121058
 20
0.22067278531593712
 10
20.312296656580422
 20
0.22139554641457213
 10
20.31281273615392
 20
0.22221166096773737
 10
20.31319121865168
 20
0.22309999203719116
 10
20.313422301575827
 20
0.22403753231485343
 10
20.3135
 20
0.225
  0
LWPOLYLINE
  5
1A9
330
17
100
AcDbEntity
  8
P_PROPUESTO
100
AcDbPolyline
 90
4
 70
1
 10
20.3
 20
0.22
 10
20.315
 20
0.22
 10
20.315
 20
0.23
 10
20.3
 20
0.23
  0
DIMENSION
  5
1AA
330
17
100
AcDbEntity
  8
COTAS
100
AcDbDimension
280
0
  2
*D6
  3
Standard
 10
20.3
 20
0.34
 30
0.0
 11
20.3075
 21
0.9715
 31
0.0
 70
32
 71
5
  1
<>
100
AcDbAlignedDimension
 13
20.3
 23
0.34
 33
0.0
 14
20.315
 24
0.34
 34
0.0
 50
0.0
100
AcDbRotatedDimension
1001
ACAD
1000
DSTYLE
1002
{
1070
140
1040
0.013
1070
41
1040
0.007
1002
}
  0
DIMENSION
  5
1BB
330
17
100
AcDbEntity
  8
COTAS
100
AcDbDimension
280
0
  2
*D7
  3
Standard
 10
20.26
 20
0.3
 30
0.0
 11
20.385
 21
0.3
 31
0.0
 70
32
 71
5
  1
<>
100
AcDbAlignedDimension
 13
20.26
 23
0.3
 33
0.0
 14
20.51
 24
0.3
 34
0.0
 50
0.0
100
AcDbRotatedDimension
1001
ACAD
1000
DSTYLE
1002
{
1070
140
1040
0.013
1070
41
1040
0.007
1002
}
  0
ENDSEC
  0
SECTION
  2
OBJECTS
  0
DICTIONARY
  5
A
330
0
100
AcDbDictionary
281
1
  3
ACAD_COLOR
350
B
  3
ACAD_GROUP
350
C
  3
ACAD_LAYOUT
350
D
  3
ACAD_MATERIAL
350
E
  3
ACAD_MLEADERSTYLE
350
F
  3
ACAD_MLINESTYLE
350
10
  3
ACAD_PLOTSETTINGS
350
11
  3
ACAD_PLOTSTYLENAME
350
12
  3
ACAD_SCALELIST
350
14
  3
ACAD_TABLESTYLE
350
15
  3
ACAD_VISUALSTYLE
350
16
  3
EZDXF_META
350
2D
  0
DICTIONARY
  5
B
330
A
100
AcDbDictionary
281
1
  0
DICTIONARY
  5
C
330
A
100
AcDbDictionary
281
1
  0
DICTIONARY
  5
D
330
A
100
AcDbDictionary
281
1
  3
Model
350
1A
  3
Layout1
350
1E
  0
DICTIONARY
  5
E
330
A
100
AcDbDictionary
281
1
  3
ByBlock
350
1F
  3
ByLayer
350
20
  3
Global
350
21
  0
DICTIONARY
  5
F
330
A
100
AcDbDictionary
281
1
  3
Standard
350
2C
  0
DICTIONARY
  5
10
330
A
100
AcDbDictionary
281
1
  3
Standard
350
22
  0
DICTIONARY
  5
11
330
A
100
AcDbDictionary
281
1
  0
ACDBDICTIONARYWDFLT
  5
12
330
A
100
AcDbDictionary
281
1
  3
Normal
350
13
100
AcDbDictionaryWithDefault
340
13
  0
ACDBPLACEHOLDER
  5
13
330
12
  0
DICTIONARY
  5
14
330
A
100
AcDbDictionary
281
1
  0
DICTIONARY
  5
15
330
A
100
AcDbDictionary
281
1
  0
DICTIONARY
  5
16
330
A
100
AcDbDictionary
281
1
  0
LAYOUT
  5
1A
330
D
100
AcDbPlotSettings
  1

  4
A3
  6

 40
7.5
 41
20.0
 42
7.5
 43
20.0
 44
420.0
 45
297.0
 46
0.0
 47
0.0
 48
0.0
 49
0.0
140
0.0
141
0.0
142
1.0
143
1.0
 70
1024
 72
1
 73
0
 74
5
  7

 75
16
 76
0
 77
2
 78
300
147
1.0
148
0.0
149
0.0
100
AcDbLayout
  1
Model
 70
1
 71
0
 10
0.0
 20
0.0
 11
420.0
 21
297.0
 12
0.0
 22
0.0
 32
0.0
 14
1e+20
 24
1e+20
 34
1e+20
 15
-1e+20
 25
-1e+20
 35
-1e+20
146
0.0
 13
0.0
 23
0.0
 33
0.0
 16
1.0
 26
0.0
 36
0.0
 17
0.0
 27
1.0
 37
0.0
 76
1
330
17
  0
LAYOUT
  5
1E
330
D
100
AcDbPlotSettings
  1

  4
A3
  6

 40
7.5
 41
20.0
 42
7.5
 43
20.0
 44
420.0
 45
297.0
 46
0.0
 47
0.0
 48
0.0
 49
0.0
140
0.0
141
0.0
142
1.0
143
1.0
 70
0
 72
1
 73
0
 74
5
  7

 75
16
 76
0
 77
2
 78
300
147
1.0
148
0.0
149
0.0
100
AcDbLayout
  1
Layout1
 70
1
 71
1
 10
0.0
 20
0.0
 11
420.0
 21
297.0
 12
0.0
 22
0.0
 32
0.0
 14
1e+20
 24
1e+20
 34
1e+20
 15
-1e+20
 25
-1e+20
 35
-1e+20
146
0.0
 13
0.0
 23
0.0
 33
0.0
 16
1.0
 26
0.0
 36
0.0
 17
0.0
 27
1.0
 37
0.0
 76
1
330
1B
  0
MATERIAL
  5
1F
102
{ACAD_REACTORS
330
E
102
}
330
E
100
AcDbMaterial
  1
ByBlock
  2

 70
0
 40
1.0
 71
1
 41
1.0
 91
-1023410177
 42
1.0
 72
1
  3

 73
1
 74
1
 75
1
 44
0.5
 73
0
 45
1.0
 46
1.0
 77
1
  4

 78
1
 79
1
170
1
 48
1.0
171
1
  6

172
1
173
1
174
1
140
1.0
141
1.0
175
1
  7

176
1
177
1
178
1
143
1.0
179
1
  8

270
1
271
1
272
1
145
1.0
146
1.0
273
1
  9

274
1
275
1
276
1
 42
1.0
 72
1
  3

 73
1
 74
1
 75
1
 94
63
  0
MATERIAL
  5
20
102
{ACAD_REACTORS
330
E
102
}
330
E
100
AcDbMaterial
  1
ByLayer
  2

 70
0
 40
1.0
 71
1
 41
1.0
 91
-1023410177
 42
1.0
 72
1
  3

 73
1
 74
1
 75
1
 44
0.5
 73
0
 45
1.0
 46
1.0
 77
1
  4

 78
1
 79
1
170
1
 48
1.0
171
1
  6

172
1
173
1
174
1
140
1.0
141
1.0
175
1
  7

176
1
177
1
178
1
143
1.0
179
1
  8

270
1
271
1
272
1
145
1.0
146
1.0
273
1
  9

274
1
275
1
276
1
 42
1.0
 72
1
  3

 73
1
 74
1
 75
1
 94
63
  0
MATERIAL
  5
21
102
{ACAD_REACTORS
330
E
102
}
330
E
100
AcDbMaterial
  1
Global
  2

 70
0
 40
1.0
 71
1
 41
1.0
 91
-1023410177
 42
1.0
 72
1
  3

 73
1
 74
1
 75
1
 44
0.5
 73
0
 45
1.0
 46
1.0
 77
1
  4

 78
1
 79
1
170
1
 48
1.0
171
1
  6

172
1
173
1
174
1
140
1.0
141
1.0
175
1
  7

176
1
177
1
178
1
143
1.0
179
1
  8

270
1
271
1
272
1
145
1.0
146
1.0
273
1
  9

274
1
275
1
276
1
 42
1.0
 72
1
  3

 73
1
 74
1
 75
1
 94
63
  0
MLINESTYLE
  5
22
102
{ACAD_REACTORS
330
10
102
}
330
10
100
AcDbMlineStyle
  2
Standard
 70
0
  3

 62
256
 51
90.0
 52
90.0
 71
2
 49
0.5
 62
256
  6
BYLAYER
 49
-0.5
 62
256
  6
BYLAYER
  0
MLEADERSTYLE
  5
2C
102
{ACAD_REACTORS
330
F
102
}
330
F
100
AcDbMLeaderStyle
179
2
170
2
171
1
172
0
 90
2
 40
0.0
 41
0.0
173
1
 91
-1056964608
 92
-2
290
1
 42
2.0
291
1
 43
8.0
  3
Standard
 44
4.0
300

342
29
174
1
175
1
176
0
178
1
 93
-1056964608
 45
4.0
292
0
297
0
 46
4.0
 94
-1056964608
 47
1.0
 49
1.0
140
1.0
294
1
141
0.0
177
0
142
1.0
295
0
296
0
143
3.75
271
0
272
9
273
9
  0
DICTIONARY
  5
2D
330
A
100
AcDbDictionary
280
1
281
1
  3
CREATED_BY_EZDXF
350
2E
  3
WRITTEN_BY_EZDXF
350
1CF
  0
DICTIONARYVAR
  5
2E
330
2D
100
DictionaryVariables
280
0
  1
1.4.4 @ 2026-09-10T22:46:16.617170+00:00
  0
DICTIONARYVAR
  5
1CF
330
2D
100
DictionaryVariables
280
0
  1
1.4.4 @ 2026-09-10T22:46:16.726048+00:00
  0
ENDSEC
  0
EOF
