  0
SECTION
  2
HEADER
  9
$ACADVER
  1
AC1024
  9
$ACADMAINTVER
 70
6
  9
$DWGCODEPAGE
  3
ANSI_1252
  9
$LASTSAVEDBY
  1
ezdxf
  9
$INSBASE
 10
0.0
 20
0.0
 30
0.0
  9
$EXTMIN
 10
1e+20
 20
1e+20
 30
1e+20
  9
$EXTMAX
 10
-1e+20
 20
-1e+20
 30
-1e+20
  9
$LIMMIN
 10
0.0
 20
0.0
  9
$LIMMAX
 10
420.0
 20
297.0
  9
$ORTHOMODE
 70
0
  9
$REGENMODE
 70
1
  9
$FILLMODE
 70
1
  9
$QTEXTMODE
 70
0
  9
$MIRRTEXT
 70
1
  9
$LTSCALE
 40
1.0
  9
$ATTMODE
 70
1
  9
$TEXTSIZE
 40
2.5
  9
$TRACEWID
 40
1.0
  9
$TEXTSTYLE
  7
Standard
  9
$CLAYER
  8
0
  9
$CELTYPE
  6
ByLayer
  9
$CECOLOR
 62
256
  9
$CELTSCALE
 40
1.0
  9
$DISPSILH
 70
0
  9
$DIMSCALE
 40
1.0
  9
$DIMASZ
 40
2.5
  9
$DIMEXO
 40
0.625
  9
$DIMDLI
 40
3.75
  9
$DIMRND
 40
0.0
  9
$DIMDLE
 40
0.0
  9
$DIMEXE
 40
1.25
  9
$DIMTP
 40
0.0
  9
$DIMTM
 40
0.0
  9
$DIMTXT
 40
2.5
  9
$DIMCEN
 40
2.5
  9
$DIMTSZ
 40
0.0
  9
$DIMTOL
 70
0
  9
$DIMLIM
 70
0
  9
$DIMTIH
 70
0
  9
$DIMTOH
 70
0
  9
$DIMSE1
 70
0
  9
$DIMSE2
 70
0
  9
$DIMTAD
 70
1
  9
$DIMZIN
 70
8
  9
$DIMBLK
  1

  9
$DIMASO
 70
1
  9
$DIMSHO
 70
1
  9
$DIMPOST
  1

  9
$DIMAPOST
  1

  9
$DIMALT
 70
0
  9
$DIMALTD
 70
3
  9
$DIMALTF
 40
0.03937007874
  9
$DIMLFAC
 40
1.0
  9
$DIMTOFL
 70
1
  9
$DIMTVP
 40
0.0
  9
$DIMTIX
 70
0
  9
$DIMSOXD
 70
0
  9
$DIMSAH
 70
0
  9
$DIMBLK1
  1

  9
$DIMBLK2
  1

  9
$DIMSTYLE
  2
ISO-25
  9
$DIMCLRD
 70
0
  9
$DIMCLRE
 70
0
  9
$DIMCLRT
 70
0
  9
$DIMTFAC
 40
1.0
  9
$DIMGAP
 40
0.625
  9
$DIMJUST
 70
0
  9
$DIMSD1
 70
0
  9
$DIMSD2
 70
0
  9
$DIMTOLJ
 70
0
  9
$DIMTZIN
 70
8
  9
$DIMALTZ
 70
0
  9
$DIMALTTZ
 70
0
  9
$DIMUPT
 70
0
  9
$DIMDEC
 70
2
  9
$DIMTDEC
 70
2
  9
$DIMALTU
 70
2
  9
$DIMALTTD
 70
3
  9
$DIMTXSTY
  7
Standard
  9
$DIMAUNIT
 70
0
  9
$DIMADEC
 70
0
  9
$DIMALTRND
 40
0.0
  9
$DIMAZIN
 70
0
  9
$DIMDSEP
 70
44
  9
$DIMATFIT
 70
3
  9
$DIMFRAC
 70
0
  9
$DIMLDRBLK
  1

  9
$DIMLUNIT
 70
2
  9
$DIMLWD
 70
-2
  9
$DIMLWE
 70
-2
  9
$DIMTMOVE
 70
0
  9
$DIMFXL
 40
1.0
  9
$DIMFXLON
 70
0
  9
$DIMJOGANG
 40
0.785398163397
  9
$DIMTFILL
 70
0
  9
$DIMTFILLCLR
 70
0
  9
$DIMARCSYM
 70
0
  9
$DIMLTYPE
  6

  9
$DIMLTEX1
  6

  9
$DIMLTEX2
  6

  9
$DIMTXTDIRECTION
 70
0
  9
$LUNITS
 70
2
  9
$LUPREC
 70
4
  9
$SKETCHINC
 40
1.0
  9
$FILLETRAD
 40
10.0
  9
$AUNITS
 70
0
  9
$AUPREC
 70
2
  9
$MENU
  1
.
  9
$ELEVATION
 40
0.0
  9
$PELEVATION
 40
0.0
  9
$THICKNESS
 40
0.0
  9
$LIMCHECK
 70
0
  9
$CHAMFERA
 40
0.0
  9
$CHAMFERB
 40
0.0
  9
$CHAMFERC
 40
0.0
  9
$CHAMFERD
 40
0.0
  9
$SKPOLY
 70
0
  9
$TDCREATE
 40
2461294.8237962965
  9
$TDUCREATE
 40
2458532.153996898
  9
$TDUPDATE
 40
2461294.8237962965
  9
$TDUUPDATE
 40
2458532.1544311
  9
$TDINDWG
 40
0.0
  9
$TDUSRTIMER
 40
0.0
  9
$USRTIMER
 70
1
  9
$ANGBASE
 50
0.0
  9
$ANGDIR
 70
0
  9
$PDMODE
 70
0
  9
$PDSIZE
 40
0.0
  9
$PLINEWID
 40
0.0
  9
$SPLFRAME
 70
0
  9
$SPLINETYPE
 70
6
  9
$SPLINESEGS
 70
8
  9
$HANDSEED
  5
ED
  9
$SURFTAB1
 70
6
  9
$SURFTAB2
 70
6
  9
$SURFTYPE
 70
6
  9
$SURFU
 70
6
  9
$SURFV
 70
6
  9
$UCSBASE
  2

  9
$UCSNAME
  2

  9
$UCSORG
 10
0.0
 20
0.0
 30
0.0
  9
$UCSXDIR
 10
1.0
 20
0.0
 30
0.0
  9
$UCSYDIR
 10
0.0
 20
1.0
 30
0.0
  9
$UCSORTHOREF
  2

  9
$UCSORTHOVIEW
 70
0
  9
$UCSORGTOP
 10
0.0
 20
0.0
 30
0.0
  9
$UCSORGBOTTOM
 10
0.0
 20
0.0
 30
0.0
  9
$UCSORGLEFT
 10
0.0
 20
0.0
 30
0.0
  9
$UCSORGRIGHT
 10
0.0
 20
0.0
 30
0.0
  9
$UCSORGFRONT
 10
0.0
 20
0.0
 30
0.0
  9
$UCSORGBACK
 10
0.0
 20
0.0
 30
0.0
  9
$PUCSBASE
  2

  9
$PUCSNAME
  2

  9
$PUCSORG
 10
0.0
 20
0.0
 30
0.0
  9
$PUCSXDIR
 10
1.0
 20
0.0
 30
0.0
  9
$PUCSYDIR
 10
0.0
 20
1.0
 30
0.0
  9
$PUCSORTHOREF
  2

  9
$PUCSORTHOVIEW
 70
0
  9
$PUCSORGTOP
 10
0.0
 20
0.0
 30
0.0
  9
$PUCSORGBOTTOM
 10
0.0
 20
0.0
 30
0.0
  9
$PUCSORGLEFT
 10
0.0
 20
0.0
 30
0.0
  9
$PUCSORGRIGHT
 10
0.0
 20
0.0
 30
0.0
  9
$PUCSORGFRONT
 10
0.0
 20
0.0
 30
0.0
  9
$PUCSORGBACK
 10
0.0
 20
0.0
 30
0.0
  9
$USERI1
 70
0
  9
$USERI2
 70
0
  9
$USERI3
 70
0
  9
$USERI4
 70
0
  9
$USERI5
 70
0
  9
$USERR1
 40
0.0
  9
$USERR2
 40
0.0
  9
$USERR3
 40
0.0
  9
$USERR4
 40
0.0
  9
$USERR5
 40
0.0
  9
$WORLDVIEW
 70
1
  9
$SHADEDGE
 70
3
  9
$SHADEDIF
 70
70
  9
$TILEMODE
 70
1
  9
$MAXACTVP
 70
64
  9
$PINSBASE
 10
0.0
 20
0.0
 30
0.0
  9
$PLIMCHECK
 70
0
  9
$PEXTMIN
 10
1e+20
 20
1e+20
 30
1e+20
  9
$PEXTMAX
 10
-1e+20
 20
-1e+20
 30
-1e+20
  9
$PLIMMIN
 10
0.0
 20
0.0
  9
$PLIMMAX
 10
420.0
 20
297.0
  9
$UNITMODE
 70
0
  9
$VISRETAIN
 70
1
  9
$PLINEGEN
 70
0
  9
$PSLTSCALE
 70
1
  9
$TREEDEPTH
 70
3020
  9
$CMLSTYLE
  2
Standard
  9
$CMLJUST
 70
0
  9
$CMLSCALE
 40
20.0
  9
$PROXYGRAPHICS
 70
1
  9
$MEASUREMENT
 70
1
  9
$CELWEIGHT
370
-1
  9
$ENDCAPS
280
0
  9
$JOINSTYLE
280
0
  9
$LWDISPLAY
290
0
  9
$INSUNITS
 70
6
  9
$HYPERLINKBASE
  1

  9
$STYLESHEET
  1

  9
$XEDIT
290
1
  9
$CEPSNTYPE
380
0
  9
$PSTYLEMODE
290
1
  9
$FINGERPRINTGUID
  2
{88463A89-E7B3-49A0-A974-CFFD438AE353}
  9
$VERSIONGUID
  2
{3BB0AD94-F630-4424-985F-9BD71220B180}
  9
$EXTNAMES
290
1
  9
$PSVPSCALE
 40
0.0
  9
$OLESTARTUP
290
0
  9
$SORTENTS
280
127
  9
$INDEXCTL
280
0
  9
$HIDETEXT
280
1
  9
$XCLIPFRAME
280
1
  9
$HALOGAP
280
0
  9
$OBSCOLOR
 70
257
  9
$OBSLTYPE
280
0
  9
$INTERSECTIONDISPLAY
280
0
  9
$INTERSECTIONCOLOR
 70
257
  9
$DIMASSOC
280
2
  9
$PROJECTNAME
  1

  9
$CAMERADISPLAY
290
0
  9
$LENSLENGTH
 40
50.0
  9
$CAMERAHEIGHT
 40
0.0
  9
$STEPSPERSEC
 40
24.0
  9
$STEPSIZE
 40
100.0
  9
$3DDWFPREC
 40
2.0
  9
$PSOLWIDTH
 40
0.005
  9
$PSOLHEIGHT
 40
0.08
  9
$LOFTANG1
 40
1.570796326795
  9
$LOFTANG2
 40
1.570796326795
  9
$LOFTMAG1
 40
0.0
  9
$LOFTMAG2
 40
0.0
  9
$LOFTPARAM
 70
7
  9
$LOFTNORMALS
280
1
  9
$LATITUDE
 40
37.795
  9
$LONGITUDE
 40
-122.394
  9
$NORTHDIRECTION
 40
0.0
  9
$TIMEZONE
 70
-8000
  9
$LIGHTGLYPHDISPLAY
280
1
  9
$TILEMODELIGHTSYNCH
280
1
  9
$CMATERIAL
347
20
  9
$SOLIDHIST
280
0
  9
$SHOWHIST
280
1
  9
$DWFFRAME
280
2
  9
$DGNFRAME
280
2
  9
$REALWORLDSCALE
290
1
  9
$INTERFERECOLOR
 62
256
  9
$CSHADOW
280
0
  9
$SHADOWPLANELOCATION
 40
0.0
  0
ENDSEC
  0
SECTION
  2
CLASSES
  0
CLASS
  1
ACDBDICTIONARYWDFLT
  2
AcDbDictionaryWithDefault
  3
ObjectDBX Classes
 90
0
 91
0
280
0
281
0
  0
CLASS
  1
SUN
  2
AcDbSun
  3
SCENEOE
 90
1153
 91
0
280
0
281
0
  0
CLASS
  1
VISUALSTYLE
  2
AcDbVisualStyle
  3
ObjectDBX Classes
 90
4095
 91
0
280
0
281
0
  0
CLASS
  1
MATERIAL
  2
AcDbMaterial
  3
ObjectDBX Classes
 90
1153
 91
0
280
0
281
0
  0
CLASS
  1
SCALE
  2
AcDbScale
  3
ObjectDBX Classes
 90
1153
 91
0
280
0
281
0
  0
CLASS
  1
TABLESTYLE
  2
AcDbTableStyle
  3
ObjectDBX Classes
 90
4095
 91
0
280
0
281
0
  0
CLASS
  1
MLEADERSTYLE
  2
AcDbMLeaderStyle
  3
ACDB_MLEADERSTYLE_CLASS
 90
4095
 91
0
280
0
281
0
  0
CLASS
  1
DICTIONARYVAR
  2
AcDbDictionaryVar
  3
ObjectDBX Classes
 90
0
 91
0
280
0
281
0
  0
CLASS
  1
CELLSTYLEMAP
  2
AcDbCellStyleMap
  3
ObjectDBX Classes
 90
1152
 91
0
280
0
281
0
  0
CLASS
  1
MENTALRAYRENDERSETTINGS
  2
AcDbMentalRayRenderSettings
  3
SCENEOE
 90
1024
 91
0
280
0
281
0
  0
CLASS
  1
ACDBDETAILVIEWSTYLE
  2
AcDbDetailViewStyle
  3
ObjectDBX Classes
 90
1025
 91
0
280
0
281
0
  0
CLASS
  1
ACDBSECTIONVIEWSTYLE
  2
AcDbSectionViewStyle
  3
ObjectDBX Classes
 90
1025
 91
0
280
0
281
0
  0
CLASS
  1
RASTERVARIABLES
  2
AcDbRasterVariables
  3
ISM
 90
0
 91
0
280
0
281
0
  0
CLASS
  1
ACDBPLACEHOLDER
  2
AcDbPlaceHolder
  3
ObjectDBX Classes
 90
0
 91
0
280
0
281
0
  0
CLASS
  1
LAYOUT
  2
AcDbLayout
  3
ObjectDBX Classes
 90
0
 91
0
280
0
281
0
  0
ENDSEC
  0
SECTION
  2
TABLES
  0
TABLE
  2
VPORT
  5
8
330
0
100
AcDbSymbolTable
 70
1
  0
VPORT
  5
23
330
8
100
AcDbSymbolTableRecord
100
AcDbViewportTableRecord
  2
*Active
 70
0
 10
0.0
 20
0.0
 11
1.0
 21
1.0
 12
0.0
 22
0.0
 13
0.0
 23
0.0
 14
0.5
 24
0.5
 15
0.5
 25
0.5
 16
0.0
 26
0.0
 36
1.0
 17
0.0
 27
0.0
 37
0.0
 40
1000.0
 41
1.34
 42
50.0
 43
0.0
 44
0.0
 50
0.0
 51
0.0
 71
0
 72
1000
 73
1
 74
3
 75
0
 76
0
 77
0
 78
0
281
0
 65
0
146
0.0
  0
ENDTAB
  0
TABLE
  2
LTYPE
  5
2
330
0
100
AcDbSymbolTable
 70
3
  0
LTYPE
  5
24
330
2
100
AcDbSymbolTableRecord
100
AcDbLinetypeTableRecord
  2
ByBlock
 70
0
  3

 72
65
 73
0
 40
0.0
  0
LTYPE
  5
25
330
2
100
AcDbSymbolTableRecord
100
AcDbLinetypeTableRecord
  2
ByLayer
 70
0
  3

 72
65
 73
0
 40
0.0
  0
LTYPE
  5
26
330
2
100
AcDbSymbolTableRecord
100
AcDbLinetypeTableRecord
  2
Continuous
 70
0
  3

 72
65
 73
0
 40
0.0
  0
ENDTAB
  0
TABLE
  2
LAYER
  5
1
330
0
100
AcDbSymbolTable
 70
7
  0
LAYER
  5
27
330
1
100
AcDbSymbolTableRecord
100
AcDbLayerTableRecord
  2
0
 70
0
 62
7
  6
Continuous
370
-3
390
13
347
21
  0
LAYER
  5
28
330
1
100
AcDbSymbolTableRecord
100
AcDbLayerTableRecord
  2
Defpoints
 70
0
 62
7
  6
Continuous
290
0
370
-3
390
13
347
21
  0
LAYER
  5
2F
330
1
100
AcDbSymbolTableRecord
100
AcDbLayerTableRecord
  2
G_MEDIDO
 70
0
 62
8
  6
Continuous
370
-3
390
13
347
21
  0
LAYER
  5
30
330
1
100
AcDbSymbolTableRecord
100
AcDbLayerTableRecord
  2
P_PROPUESTO
 70
0
 62
5
  6
Continuous
370
-3
390
13
347
21
  0
LAYER
  5
31
330
1
100
AcDbSymbolTableRecord
100
AcDbLayerTableRecord
  2
COTAS
 70
0
 62
4
  6
Continuous
370
-3
390
13
347
21
  0
LAYER
  5
32
330
1
100
AcDbSymbolTableRecord
100
AcDbLayerTableRecord
  2
TEXTOS
 70
0
 62
7
  6
Continuous
370
-3
390
13
347
21
  0
LAYER
  5
33
330
1
100
AcDbSymbolTableRecord
100
AcDbLayerTableRecord
  2
REVISAR
 70
0
 62
30
  6
Continuous
370
-3
390
13
347
21
  0
ENDTAB
  0
TABLE
  2
STYLE
  5
5
330
0
100
AcDbSymbolTable
 70
1
  0
STYLE
  5
29
330
5
100
AcDbSymbolTableRecord
100
AcDbTextStyleTableRecord
  2
Standard
 70
0
 40
0.0
 41
1.0
 50
0.0
 71
0
 42
2.5
  3
txt
  4

  0
ENDTAB
  0
TABLE
  2
VIEW
  5
7
330
0
100
AcDbSymbolTable
 70
0
  0
ENDTAB
  0
TABLE
  2
UCS
  5
6
330
0
100
AcDbSymbolTable
 70
0
  0
ENDTAB
  0
TABLE
  2
APPID
  5
3
330
0
100
AcDbSymbolTable
 70
3
  0
APPID
  5
2A
330
3
100
AcDbSymbolTableRecord
100
AcDbRegAppTableRecord
  2
ACAD
 70
0
  0
APPID
  5
EA
330
3
100
AcDbSymbolTableRecord
100
AcDbRegAppTableRecord
  2
HATCHBACKGROUNDCOLOR
 70
0
  0
APPID
  5
EB
330
3
100
AcDbSymbolTableRecord
100
AcDbRegAppTableRecord
  2
EZDXF
 70
0
  0
ENDTAB
  0
TABLE
  2
DIMSTYLE
  5
4
330
0
100
AcDbSymbolTable
 70
1
100
AcDbDimStyleTable
  0
DIMSTYLE
105
2B
330
4
100
AcDbSymbolTableRecord
100
AcDbDimStyleTableRecord
  2
Standard
 70
0
 40
1.0
 41
2.5
 42
0.625
 43
3.75
 44
1.25
 45
0.0
 46
0.0
 47
0.0
 48
0.0
 49
2.5
140
2.5
141
2.5
142
0.0
143
0.03937007874
144
1.0
145
0.0
146
1.0
147
0.625
148
0.0
 69
0
 70
0
 71
0
 72
0
 73
0
 74
0
 75
0
 76
0
 77
1
 78
8
 79
3
170
0
171
3
172
1
173
0
174
0
175
0
176
0
177
0
178
0
179
2
271
2
272
2
273
2
274
3
275
0
276
0
277
2
278
44
279
0
280
0
281
0
282
0
283
0
284
8
285
0
286
0
288
0
289
3
290
0
371
-2
372
-2
  0
ENDTAB
  0
TABLE
  2
BLOCK_RECORD
  5
9
330
0
100
AcDbSymbolTable
 70
12
  0
BLOCK_RECORD
  5
17
330
9
100
AcDbSymbolTableRecord
100
AcDbBlockTableRecord
  2
*Model_Space
340
1A
 70
0
280
1
281
0
  0
BLOCK_RECORD
  5
1B
330
9
100
AcDbSymbolTableRecord
100
AcDbBlockTableRecord
  2
*Paper_Space
340
1E
 70
0
280
1
281
0
  0
BLOCK_RECORD
  5
3B
330
9
100
AcDbSymbolTableRecord
100
AcDbBlockTableRecord
  2
*D1
340
0
 70
0
280
1
281
0
  0
BLOCK_RECORD
  5
40
330
9
100
AcDbSymbolTableRecord
100
AcDbBlockTableRecord
  2
_CLOSEDFILLED
340
0
 70
0
280
1
281
0
  0
BLOCK_RECORD
  5
51
330
9
100
AcDbSymbolTableRecord
100
AcDbBlockTableRecord
  2
*D2
340
0
 70
0
280
1
281
0
  0
BLOCK_RECORD
  5
63
330
9
100
AcDbSymbolTableRecord
100
AcDbBlockTableRecord
  2
*D3
340
0
 70
0
280
1
281
0
  0
BLOCK_RECORD
  5
82
330
9
100
AcDbSymbolTableRecord
100
AcDbBlockTableRecord
  2
*D4
340
0
 70
0
280
1
281
0
  0
BLOCK_RECORD
  5
93
330
9
100
AcDbSymbolTableRecord
100
AcDbBlockTableRecord
  2
*D5
340
0
 70
0
280
1
281
0
  0
BLOCK_RECORD
  5
A5
330
9
100
AcDbSymbolTableRecord
100
AcDbBlockTableRecord
  2
*D6
340
0
 70
0
280
1
281
0
  0
BLOCK_RECORD
  5
B6
330
9
100
AcDbSymbolTableRecord
100
AcDbBlockTableRecord
  2
*D7
340
0
 70
0
280
1
281
0
  0
BLOCK_RECORD
  5
C7
330
9
100
AcDbSymbolTableRecord
100
AcDbBlockTableRecord
  2
*D8
340
0
 70
0
280
1
281
0
  0
BLOCK_RECORD
  5
D9
330
9
100
AcDbSymbolTableRecord
100
AcDbBlockTableRecord
  2
*D9
340
0
 70
0
280
1
281
0
  0
ENDTAB
  0
ENDSEC
  0
SECTION
  2
BLOCKS
  0
BLOCK
  5
18
330
17
100
AcDbEntity
  8
0
100
AcDbBlockBegin
  2
*Model_Space
 70
0
 10
0.0
 20
0.0
 30
0.0
  3
*Model_Space
  1

  0
ENDBLK
  5
19
330
17
100
AcDbEntity
  8
0
100
AcDbBlockEnd
  0
BLOCK
  5
1C
330
1B
100
AcDbEntity
  8
0
100
AcDbBlockBegin
  2
*Paper_Space
 70
0
 10
0.0
 20
0.0
 30
0.0
  3
*Paper_Space
  1

  0
ENDBLK
  5
1D
330
1B
100
AcDbEntity
  8
0
100
AcDbBlockEnd
  0
BLOCK
  5
3C
330
3B
100
AcDbEntity
  8
0
100
AcDbBlockBegin
  2
*D1
 70
1
 10
0.0
 20
0.0
 30
0.0
  3
*D1
  1

  0
LINE
  5
3E
330
3B
100
AcDbEntity
  8
0
100
AcDbLine
 10
0.305
 20
0.695
 30
0.0
 11
0.305
 21
0.695
 31
0.0
  0
LINE
  5
3F
330
3B
100
AcDbEntity
  8
0
100
AcDbLine
 10
0.515
 20
0.695
 30
0.0
 11
0.515
 21
0.695
 31
0.0
  0
INSERT
  5
44
330
3B
100
AcDbEntity
  8
COTAS
100
AcDbBlockReference
  2
_CLOSEDFILLED
 10
0.305
 20
0.695
 30
0.0
 41
0.007
 42
0.007
  0
INSERT
  5
46
330
3B
100
AcDbEntity
  8
COTAS
100
AcDbBlockReference
  2
_CLOSEDFILLED
 10
0.515
 20
0.695
 30
0.0
 41
0.007
 42
0.007
 50
180.0
  0
LINE
  5
48
330
3B
100
AcDbEntity
  8
0
100
AcDbLine
 10
0.298
 20
0.695
 30
0.0
 11
0.291
 21
0.695
 31
0.0
  0
LINE
  5
49
330
3B
100
AcDbEntity
  8
0
100
AcDbLine
 10
0.522
 20
0.695
 30
0.0
 11
0.529
 21
0.695
 31
0.0
  0
LINE
  5
4A
330
3B
100
AcDbEntity
  8
0
100
AcDbLine
 10
0.305
 20
0.695
 30
0.0
 11
0.384
 21
0.695
 31
0.0
  0
LINE
  5
4B
330
3B
100
AcDbEntity
  8
0
100
AcDbLine
 10
0.43600000000000005
 20
0.695
 30
0.0
 11
0.515
 21
0.695
 31
0.0
  0
MTEXT
  5
4C
330
3B
100
AcDbEntity
  8
COTAS
100
AcDbMText
 10
0.41000000000000003
 20
0.695
 30
0.0
 40
0.013
 71
5
  1
0,21
  0
POINT
  5
4D
330
3B
100
AcDbEntity
  8
Defpoints
100
AcDbPoint
 10
0.305
 20
0.695
 30
0.0
  0
POINT
  5
4E
330
3B
100
AcDbEntity
  8
Defpoints
100
AcDbPoint
 10
0.305
 20
0.695
 30
0.0
  0
POINT
  5
4F
330
3B
100
AcDbEntity
  8
Defpoints
100
AcDbPoint
 10
0.515
 20
0.695
 30
0.0
  0
ENDBLK
  5
3D
330
3B
100
AcDbEntity
  8
0
100
AcDbBlockEnd
  0
BLOCK
  5
41
330
40
100
AcDbEntity
  8
0
100
AcDbBlockBegin
  2
_CLOSEDFILLED
 70
0
 10
0.0
 20
0.0
 30
0.0
  3
_CLOSEDFILLED
  1

  0
SOLID
  5
43
330
40
100
AcDbEntity
  8
0
  6
BYBLOCK
 62
0
100
AcDbTrace
 10
-1.0
 20
0.16439898372402537
 30
0.0
 11
0.0
 21
0.0
 31
0.0
 12
-1.0
 22
-0.16439898372402537
 32
0.0
 13
-1.0
 23
-0.16439898372402537
 33
0.0
  0
ENDBLK
  5
42
330
40
100
AcDbEntity
  8
0
100
AcDbBlockEnd
  0
BLOCK
  5
52
330
51
100
AcDbEntity
  8
0
100
AcDbBlockBegin
  2
*D2
 70
1
 10
0.0
 20
0.0
 30
0.0
  3
*D2
  1

  0
LINE
  5
54
330
51
100
AcDbEntity
  8
0
100
AcDbLine
 10
0.68
 20
0.2088
 30
0.0
 11
0.68
 21
0.2088
 31
0.0
  0
LINE
  5
55
330
51
100
AcDbEntity
  8
0
100
AcDbLine
 10
0.68
 20
0.44
 30
0.0
 11
0.68
 21
0.44
 31
0.0
  0
INSERT
  5
56
330
51
100
AcDbEntity
  8
COTAS
100
AcDbBlockReference
  2
_CLOSEDFILLED
 10
0.68
 20
0.2088
 30
0.0
 41
0.007
 42
0.007
 50
90.0
  0
INSERT
  5
58
330
51
100
AcDbEntity
  8
COTAS
100
AcDbBlockReference
  2
_CLOSEDFILLED
 10
0.68
 20
0.44
 30
0.0
 41
0.007
 42
0.007
 50
270.0
  0
LINE
  5
5A
330
51
100
AcDbEntity
  8
0
100
AcDbLine
 10
0.68
 20
0.2018
 30
0.0
 11
0.68
 21
0.1948
 31
0.0
  0
LINE
  5
5B
330
51
100
AcDbEntity
  8
0
100
AcDbLine
 10
0.68
 20
0.447
 30
0.0
 11
0.68
 21
0.454
 31
0.0
  0
LINE
  5
5C
330
51
100
AcDbEntity
  8
0
100
AcDbLine
 10
0.68
 20
0.2088
 30
0.0
 11
0.68
 21
0.2984
 31
0.0
  0
LINE
  5
5D
330
51
100
AcDbEntity
  8
0
100
AcDbLine
 10
0.68
 20
0.35040000000000004
 30
0.0
 11
0.68
 21
0.44
 31
0.0
  0
MTEXT
  5
5E
330
51
100
AcDbEntity
  8
COTAS
100
AcDbMText
 10
0.68
 20
0.3244
 30
0.0
 40
0.013
 71
5
  1
0,23
 50
90.0
  0
POINT
  5
5F
330
51
100
AcDbEntity
  8
Defpoints
100
AcDbPoint
 10
0.68
 20
0.2088
 30
0.0
  0
POINT
  5
60
330
51
100
AcDbEntity
  8
Defpoints
100
AcDbPoint
 10
0.68
 20
0.2088
 30
0.0
  0
POINT
  5
61
330
51
100
AcDbEntity
  8
Defpoints
100
AcDbPoint
 10
0.68
 20
0.44
 30
0.0
  0
ENDBLK
  5
53
330
51
100
AcDbEntity
  8
0
100
AcDbBlockEnd
  0
BLOCK
  5
64
330
63
100
AcDbEntity
  8
0
100
AcDbBlockBegin
  2
*D3
 70
1
 10
0.0
 20
0.0
 30
0.0
  3
*D3
  1

  0
LINE
  5
66
330
63
100
AcDbEntity
  8
0
100
AcDbLine
 10
0.8
 20
0.26
 30
0.0
 11
0.8
 21
0.26
 31
0.0
  0
LINE
  5
67
330
63
100
AcDbEntity
  8
0
100
AcDbLine
 10
0.8
 20
0.35
 30
0.0
 11
0.8
 21
0.35
 31
0.0
  0
INSERT
  5
68
330
63
100
AcDbEntity
  8
COTAS
100
AcDbBlockReference
  2
_CLOSEDFILLED
 10
0.8
 20
0.26
 30
0.0
 41
0.007
 42
0.007
 50
90.0
  0
INSERT
  5
6A
330
63
100
AcDbEntity
  8
COTAS
100
AcDbBlockReference
  2
_CLOSEDFILLED
 10
0.8
 20
0.35
 30
0.0
 41
0.007
 42
0.007
 50
270.0
  0
LINE
  5
6C
330
63
100
AcDbEntity
  8
0
100
AcDbLine
 10
0.8
 20
0.253
 30
0.0
 11
0.8
 21
0.246
 31
0.0
  0
LINE
  5
6D
330
63
100
AcDbEntity
  8
0
100
AcDbLine
 10
0.8
 20
0.357
 30
0.0
 11
0.8
 21
0.364
 31
0.0
  0
LINE
  5
6E
330
63
100
AcDbEntity
  8
0
100
AcDbLine
 10
0.8
 20
0.26
 30
0.0
 11
0.8
 21
0.27899999999999997
 31
0.0
  0
LINE
  5
6F
330
63
100
AcDbEntity
  8
0
100
AcDbLine
 10
0.8
 20
0.331
 30
0.0
 11
0.8
 21
0.35
 31
0.0
  0
MTEXT
  5
70
330
63
100
AcDbEntity
  8
COTAS
100
AcDbMText
 10
0.8
 20
0.305
 30
0.0
 40
0.013
 71
5
  1
0,09
 50
90.0
  0
POINT
  5
71
330
63
100
AcDbEntity
  8
Defpoints
100
AcDbPoint
 10
0.8
 20
0.26
 30
0.0
  0
POINT
  5
72
330
63
100
AcDbEntity
  8
Defpoints
100
AcDbPoint
 10
0.8
 20
0.26
 30
0.0
  0
POINT
  5
73
330
63
100
AcDbEntity
  8
Defpoints
100
AcDbPoint
 10
0.8
 20
0.35
 30
0.0
  0
ENDBLK
  5
65
330
63
100
AcDbEntity
  8
0
100
AcDbBlockEnd
  0
BLOCK
  5
83
330
82
100
AcDbEntity
  8
0
100
AcDbBlockBegin
  2
*D4
 70
1
 10
0.0
 20
0.0
 30
0.0
  3
*D4
  1

  0
LINE
  5
85
330
82
100
AcDbEntity
  8
0
100
AcDbLine
 10
10.388
 20
0.74
 30
0.0
 11
10.388
 21
0.74
 31
0.0
  0
LINE
  5
86
330
82
100
AcDbEntity
  8
0
100
AcDbLine
 10
10.398
 20
0.74
 30
0.0
 11
10.398
 21
0.74
 31
0.0
  0
INSERT
  5
87
330
82
100
AcDbEntity
  8
COTAS
100
AcDbBlockReference
  2
_CLOSEDFILLED
 10
10.388
 20
0.74
 30
0.0
 41
0.007
 42
0.007
  0
INSERT
  5
89
330
82
100
AcDbEntity
  8
COTAS
100
AcDbBlockReference
  2
_CLOSEDFILLED
 10
10.398
 20
0.74
 30
0.0
 41
0.007
 42
0.007
 50
180.0
  0
LINE
  5
8B
330
82
100
AcDbEntity
  8
0
100
AcDbLine
 10
10.381
 20
0.74
 30
0.0
 11
10.374
 21
0.74
 31
0.0
  0
LINE
  5
8C
330
82
100
AcDbEntity
  8
0
100
AcDbLine
 10
10.405
 20
0.74
 30
0.0
 11
10.411999999999999
 21
0.74
 31
0.0
  0
LINE
  5
8D
330
82
100
AcDbEntity
  8
0
100
AcDbLine
 10
10.388
 20
0.74
 30
0.0
 11
10.398
 21
0.74
 31
0.0
  0
MTEXT
  5
8E
330
82
100
AcDbEntity
  8
COTAS
100
AcDbMText
 10
10.393
 20
1.3715
 30
0.0
 40
0.013
 71
5
  1
0,01
  0
POINT
  5
8F
330
82
100
AcDbEntity
  8
Defpoints
100
AcDbPoint
 10
10.388
 20
0.74
 30
0.0
  0
POINT
  5
90
330
82
100
AcDbEntity
  8
Defpoints
100
AcDbPoint
 10
10.388
 20
0.74
 30
0.0
  0
POINT
  5
91
330
82
100
AcDbEntity
  8
Defpoints
100
AcDbPoint
 10
10.398
 20
0.74
 30
0.0
  0
ENDBLK
  5
84
330
82
100
AcDbEntity
  8
0
100
AcDbBlockEnd
  0
BLOCK
  5
94
330
93
100
AcDbEntity
  8
0
100
AcDbBlockBegin
  2
*D5
 70
1
 10
0.0
 20
0.0
 30
0.0
  3
*D5
  1

  0
LINE
  5
96
330
93
100
AcDbEntity
  8
0
100
AcDbLine
 10
10.4
 20
0.79
 30
0.0
 11
10.4
 21
0.79
 31
0.0
  0
LINE
  5
97
330
93
100
AcDbEntity
  8
0
100
AcDbLine
 10
10.48
 20
0.79
 30
0.0
 11
10.48
 21
0.79
 31
0.0
  0
INSERT
  5
98
330
93
100
AcDbEntity
  8
COTAS
100
AcDbBlockReference
  2
_CLOSEDFILLED
 10
10.4
 20
0.79
 30
0.0
 41
0.007
 42
0.007
  0
INSERT
  5
9A
330
93
100
AcDbEntity
  8
COTAS
100
AcDbBlockReference
  2
_CLOSEDFILLED
 10
10.48
 20
0.79
 30
0.0
 41
0.007
 42
0.007
 50
180.0
  0
LINE
  5
9C
330
93
100
AcDbEntity
  8
0
100
AcDbLine
 10
10.393
 20
0.79
 30
0.0
 11
10.386000000000001
 21
0.79
 31
0.0
  0
LINE
  5
9D
330
93
100
AcDbEntity
  8
0
100
AcDbLine
 10
10.487
 20
0.79
 30
0.0
 11
10.494
 21
0.79
 31
0.0
  0
LINE
  5
9E
330
93
100
AcDbEntity
  8
0
100
AcDbLine
 10
10.4
 20
0.79
 30
0.0
 11
10.414000000000001
 21
0.79
 31
0.0
  0
LINE
  5
9F
330
93
100
AcDbEntity
  8
0
100
AcDbLine
 10
10.466000000000001
 20
0.79
 30
0.0
 11
10.48
 21
0.79
 31
0.0
  0
MTEXT
  5
A0
330
93
100
AcDbEntity
  8
COTAS
100
AcDbMText
 10
10.440000000000001
 20
0.79
 30
0.0
 40
0.013
 71
5
  1
0,08
  0
POINT
  5
A1
330
93
100
AcDbEntity
  8
Defpoints
100
AcDbPoint
 10
10.4
 20
0.79
 30
0.0
  0
POINT
  5
A2
330
93
100
AcDbEntity
  8
Defpoints
100
AcDbPoint
 10
10.4
 20
0.79
 30
0.0
  0
POINT
  5
A3
330
93
100
AcDbEntity
  8
Defpoints
100
AcDbPoint
 10
10.48
 20
0.79
 30
0.0
  0
ENDBLK
  5
95
330
93
100
AcDbEntity
  8
0
100
AcDbBlockEnd
  0
BLOCK
  5
A6
330
A5
100
AcDbEntity
  8
0
100
AcDbBlockBegin
  2
*D6
 70
1
 10
0.0
 20
0.0
 30
0.0
  3
*D6
  1

  0
LINE
  5
A8
330
A5
100
AcDbEntity
  8
0
100
AcDbLine
 10
10.482
 20
0.74
 30
0.0
 11
10.482
 21
0.74
 31
0.0
  0
LINE
  5
A9
330
A5
100
AcDbEntity
  8
0
100
AcDbLine
 10
10.492
 20
0.74
 30
0.0
 11
10.492
 21
0.74
 31
0.0
  0
INSERT
  5
AA
330
A5
100
AcDbEntity
  8
COTAS
100
AcDbBlockReference
  2
_CLOSEDFILLED
 10
10.482
 20
0.74
 30
0.0
 41
0.007
 42
0.007
  0
INSERT
  5
AC
330
A5
100
AcDbEntity
  8
COTAS
100
AcDbBlockReference
  2
_CLOSEDFILLED
 10
10.492
 20
0.74
 30
0.0
 41
0.007
 42
0.007
 50
180.0
  0
LINE
  5
AE
330
A5
100
AcDbEntity
  8
0
100
AcDbLine
 10
10.475
 20
0.74
 30
0.0
 11
10.468
 21
0.74
 31
0.0
  0
LINE
  5
AF
330
A5
100
AcDbEntity
  8
0
100
AcDbLine
 10
10.499
 20
0.74
 30
0.0
 11
10.506
 21
0.74
 31
0.0
  0
LINE
  5
B0
330
A5
100
AcDbEntity
  8
0
100
AcDbLine
 10
10.482
 20
0.74
 30
0.0
 11
10.492
 21
0.74
 31
0.0
  0
MTEXT
  5
B1
330
A5
100
AcDbEntity
  8
COTAS
100
AcDbMText
 10
10.487
 20
1.3715
 30
0.0
 40
0.013
 71
5
  1
0,01
  0
POINT
  5
B2
330
A5
100
AcDbEntity
  8
Defpoints
100
AcDbPoint
 10
10.482
 20
0.74
 30
0.0
  0
POINT
  5
B3
330
A5
100
AcDbEntity
  8
Defpoints
100
AcDbPoint
 10
10.482
 20
0.74
 30
0.0
  0
POINT
  5
B4
330
A5
100
AcDbEntity
  8
Defpoints
100
AcDbPoint
 10
10.492
 20
0.74
 30
0.0
  0
ENDBLK
  5
A7
330
A5
100
AcDbEntity
  8
0
100
AcDbBlockEnd
  0
BLOCK
  5
B7
330
B6
100
AcDbEntity
  8
0
100
AcDbBlockBegin
  2
*D7
 70
1
 10
0.0
 20
0.0
 30
0.0
  3
*D7
  1

  0
LINE
  5
B9
330
B6
100
AcDbEntity
  8
0
100
AcDbLine
 10
10.398
 20
0.69
 30
0.0
 11
10.398
 21
0.69
 31
0.0
  0
LINE
  5
BA
330
B6
100
AcDbEntity
  8
0
100
AcDbLine
 10
10.4
 20
0.69
 30
0.0
 11
10.4
 21
0.69
 31
0.0
  0
INSERT
  5
BB
330
B6
100
AcDbEntity
  8
COTAS
100
AcDbBlockReference
  2
_CLOSEDFILLED
 10
10.398
 20
0.69
 30
0.0
 41
0.007
 42
0.007
  0
INSERT
  5
BD
330
B6
100
AcDbEntity
  8
COTAS
100
AcDbBlockReference
  2
_CLOSEDFILLED
 10
10.4
 20
0.69
 30
0.0
 41
0.007
 42
0.007
 50
180.0
  0
LINE
  5
BF
330
B6
100
AcDbEntity
  8
0
100
AcDbLine
 10
10.391
 20
0.69
 30
0.0
 11
10.384
 21
0.69
 31
0.0
  0
LINE
  5
C0
330
B6
100
AcDbEntity
  8
0
100
AcDbLine
 10
10.407
 20
0.69
 30
0.0
 11
10.414
 21
0.69
 31
0.0
  0
LINE
  5
C1
330
B6
100
AcDbEntity
  8
0
100
AcDbLine
 10
10.398
 20
0.69
 30
0.0
 11
10.4
 21
0.69
 31
0.0
  0
MTEXT
  5
C2
330
B6
100
AcDbEntity
  8
COTAS
100
AcDbMText
 10
10.399000000000001
 20
1.3215
 30
0.0
 40
0.013
 71
5
  1
0
  0
POINT
  5
C3
330
B6
100
AcDbEntity
  8
Defpoints
100
AcDbPoint
 10
10.398
 20
0.69
 30
0.0
  0
POINT
  5
C4
330
B6
100
AcDbEntity
  8
Defpoints
100
AcDbPoint
 10
10.398
 20
0.69
 30
0.0
  0
POINT
  5
C5
330
B6
100
AcDbEntity
  8
Defpoints
100
AcDbPoint
 10
10.4
 20
0.69
 30
0.0
  0
ENDBLK
  5
B8
330
B6
100
AcDbEntity
  8
0
100
AcDbBlockEnd
  0
BLOCK
  5
C8
330
C7
100
AcDbEntity
  8
0
100
AcDbBlockBegin
  2
*D8
 70
1
 10
0.0
 20
0.0
 30
0.0
  3
*D8
  1

  0
LINE
  5
CA
330
C7
100
AcDbEntity
  8
0
100
AcDbLine
 10
10.77
 20
0.41
 30
0.0
 11
10.77
 21
0.41
 31
0.0
  0
LINE
  5
CB
330
C7
100
AcDbEntity
  8
0
100
AcDbLine
 10
10.77
 20
0.5
 30
0.0
 11
10.77
 21
0.5
 31
0.0
  0
INSERT
  5
CC
330
C7
100
AcDbEntity
  8
COTAS
100
AcDbBlockReference
  2
_CLOSEDFILLED
 10
10.77
 20
0.41
 30
0.0
 41
0.007
 42
0.007
 50
90.0
  0
INSERT
  5
CE
330
C7
100
AcDbEntity
  8
COTAS
100
AcDbBlockReference
  2
_CLOSEDFILLED
 10
10.77
 20
0.5
 30
0.0
 41
0.007
 42
0.007
 50
270.0
  0
LINE
  5
D0
330
C7
100
AcDbEntity
  8
0
100
AcDbLine
 10
10.77
 20
0.40299999999999997
 30
0.0
 11
10.77
 21
0.39599999999999996
 31
0.0
  0
LINE
  5
D1
330
C7
100
AcDbEntity
  8
0
100
AcDbLine
 10
10.77
 20
0.507
 30
0.0
 11
10.77
 21
0.514
 31
0.0
  0
LINE
  5
D2
330
C7
100
AcDbEntity
  8
0
100
AcDbLine
 10
10.77
 20
0.41
 30
0.0
 11
10.77
 21
0.42899999999999994
 31
0.0
  0
LINE
  5
D3
330
C7
100
AcDbEntity
  8
0
100
AcDbLine
 10
10.77
 20
0.481
 30
0.0
 11
10.77
 21
0.5
 31
0.0
  0
MTEXT
  5
D4
330
C7
100
AcDbEntity
  8
COTAS
100
AcDbMText
 10
10.77
 20
0.45499999999999996
 30
0.0
 40
0.013
 71
5
  1
0,09
 50
90.0
  0
POINT
  5
D5
330
C7
100
AcDbEntity
  8
Defpoints
100
AcDbPoint
 10
10.77
 20
0.41
 30
0.0
  0
POINT
  5
D6
330
C7
100
AcDbEntity
  8
Defpoints
100
AcDbPoint
 10
10.77
 20
0.41
 30
0.0
  0
POINT
  5
D7
330
C7
100
AcDbEntity
  8
Defpoints
100
AcDbPoint
 10
10.77
 20
0.5
 30
0.0
  0
ENDBLK
  5
C9
330
C7
100
AcDbEntity
  8
0
100
AcDbBlockEnd
  0
BLOCK
  5
DA
330
D9
100
AcDbEntity
  8
0
100
AcDbBlockBegin
  2
*D9
 70
1
 10
0.0
 20
0.0
 30
0.0
  3
*D9
  1

  0
LINE
  5
DC
330
D9
100
AcDbEntity
  8
0
100
AcDbLine
 10
10.95
 20
0.33
 30
0.0
 11
10.95
 21
0.33
 31
0.0
  0
LINE
  5
DD
330
D9
100
AcDbEntity
  8
0
100
AcDbLine
 10
10.95
 20
0.66
 30
0.0
 11
10.95
 21
0.66
 31
0.0
  0
INSERT
  5
DE
330
D9
100
AcDbEntity
  8
COTAS
100
AcDbBlockReference
  2
_CLOSEDFILLED
 10
10.95
 20
0.33
 30
0.0
 41
0.007
 42
0.007
 50
90.0
  0
INSERT
  5
E0
330
D9
100
AcDbEntity
  8
COTAS
100
AcDbBlockReference
  2
_CLOSEDFILLED
 10
10.95
 20
0.66
 30
0.0
 41
0.007
 42
0.007
 50
270.0
  0
LINE
  5
E2
330
D9
100
AcDbEntity
  8
0
100
AcDbLine
 10
10.95
 20
0.323
 30
0.0
 11
10.95
 21
0.316
 31
0.0
  0
LINE
  5
E3
330
D9
100
AcDbEntity
  8
0
100
AcDbLine
 10
10.95
 20
0.667
 30
0.0
 11
10.95
 21
0.674
 31
0.0
  0
LINE
  5
E4
330
D9
100
AcDbEntity
  8
0
100
AcDbLine
 10
10.95
 20
0.33
 30
0.0
 11
10.95
 21
0.469
 31
0.0
  0
LINE
  5
E5
330
D9
100
AcDbEntity
  8
0
100
AcDbLine
 10
10.95
 20
0.521
 30
0.0
 11
10.95
 21
0.66
 31
0.0
  0
MTEXT
  5
E6
330
D9
100
AcDbEntity
  8
COTAS
100
AcDbMText
 10
10.95
 20
0.495
 30
0.0
 40
0.013
 71
5
  1
0,33
 50
90.0
  0
POINT
  5
E7
330
D9
100
AcDbEntity
  8
Defpoints
100
AcDbPoint
 10
10.95
 20
0.33
 30
0.0
  0
POINT
  5
E8
330
D9
100
AcDbEntity
  8
Defpoints
100
AcDbPoint
 10
10.95
 20
0.33
 30
0.0
  0
POINT
  5
E9
330
D9
100
AcDbEntity
  8
Defpoints
100
AcDbPoint
 10
10.95
 20
0.66
 30
0.0
  0
ENDBLK
  5
DB
330
D9
100
AcDbEntity
  8
0
100
AcDbBlockEnd
  0
ENDSEC
  0
SECTION
  2
ENTITIES
  0
LWPOLYLINE
  5
34
330
17
100
AcDbEntity
  8
G_MEDIDO
100
AcDbPolyline
 90
21
 70
1
 10
0.3055540000000001
 20
0.21001999999999998
 10
0.305
 20
0.21175
 10
0.305
 20
0.43575
 10
0.3055540000000001
 20
0.43749399999999966
 10
0.3058789999999999
 20
0.43788300000000024
 10
0.3062629999999999
 20
0.4382130000000002
 10
0.308
 20
0.43878999999999996
 10
0.512
 20
0.44
 10
0.5137370000000001
 20
0.4394459999999999
 10
0.514121
 20
0.4391210000000001
 10
0.514446
 20
0.4387370000000001
 10
0.515
 20
0.437
 10
0.515
 20
0.213
 10
0.514446
 20
0.21126299999999992
 10
0.514121
 20
0.2108789999999999
 10
0.5137370000000001
 20
0.21055400000000007
 10
0.512
 20
0.21
 10
0.308
 20
0.20878999999999998
 10
0.3062629999999999
 20
0.20932000000000017
 10
0.3058789999999999
 20
0.20963999999999988
 10
0.3055540000000001
 20
0.21001999999999998
  0
LWPOLYLINE
  5
35
330
17
100
AcDbEntity
  8
G_MEDIDO
100
AcDbPolyline
 90
14
 70
1
 10
0.34772999999999954
 20
0.4099000000000001
 10
0.3486890000000003
 20
0.410297
 10
0.3489740000000002
 20
0.410297
 10
0.3492550000000001
 20
0.41025099999999975
 10
0.35012399999999977
 20
0.409703
 10
0.4498760000000002
 20
0.28964000000000034
 10
0.4502609999999995
 20
0.28868199999999977
 10
0.4502570000000005
 20
0.28839699999999996
 10
0.45020700000000036
 20
0.288116
 10
0.44964800000000016
 20
0.2872470000000003
 10
0.10740281155622865
 20
0.0
 10
0.0
 20
0.0
 10
0.0
 20
0.11804958783150214
 10
0.34772999999999954
 20
0.4099000000000001
  0
LWPOLYLINE
  5
36
330
17
100
AcDbEntity
  8
G_MEDIDO
100
AcDbPolyline
 90
21
 70
1
 10
0.4273139999999994
 20
0.24771599999999988
 10
0.427
 20
0.24870000000000028
 10
0.427
 20
0.2712999999999997
 10
0.4273139999999994
 20
0.27228399999999964
 10
0.4274979999999996
 20
0.27250199999999997
 10
0.42771599999999943
 20
0.27268600000000015
 10
0.4286999999999998
 20
0.273
 10
0.4513000000000002
 20
0.273
 10
0.4522840000000006
 20
0.27268600000000015
 10
0.4525019999999995
 20
0.27250199999999997
 10
0.4526859999999997
 20
0.27228399999999964
 10
0.453
 20
0.2712999999999997
 10
0.453
 20
0.24870000000000028
 10
0.4526859999999997
 20
0.24771599999999988
 10
0.4525019999999995
 20
0.24749800000000005
 10
0.4522840000000006
 20
0.2473140000000003
 10
0.4513000000000002
 20
0.247
 10
0.4286999999999998
 20
0.247
 10
0.42771599999999943
 20
0.2473140000000003
 10
0.4274979999999996
 20
0.24749800000000005
 10
0.4273139999999994
 20
0.24771599999999988
  0
LWPOLYLINE
  5
37
330
17
100
AcDbEntity
  8
G_MEDIDO
100
AcDbPolyline
 90
21
 70
1
 10
0.4273139999999994
 20
0.33771600000000035
 10
0.427
 20
0.33869999999999983
 10
0.427
 20
0.3613000000000002
 10
0.4273139999999994
 20
0.3622840000000001
 10
0.4274979999999996
 20
0.36250199999999994
 10
0.42771599999999943
 20
0.3626859999999997
 10
0.4286999999999998
 20
0.363
 10
0.4513000000000002
 20
0.363
 10
0.4522840000000006
 20
0.3626859999999997
 10
0.4525019999999995
 20
0.36250199999999994
 10
0.4526859999999997
 20
0.3622840000000001
 10
0.453
 20
0.3613000000000002
 10
0.453
 20
0.33869999999999983
 10
0.4526859999999997
 20
0.33771600000000035
 10
0.4525019999999995
 20
0.337498
 10
0.4522840000000006
 20
0.33731399999999984
 10
0.4513000000000002
 20
0.337
 10
0.4286999999999998
 20
0.337
 10
0.42771599999999943
 20
0.33731399999999984
 10
0.4274979999999996
 20
0.337498
 10
0.4273139999999994
 20
0.33771600000000035
  0
LWPOLYLINE
  5
38
330
17
100
AcDbEntity
  8
G_MEDIDO
100
AcDbPolyline
 90
4
 70
1
 10
0.4
 20
0.24
 10
1.15
 20
0.24
 10
1.15
 20
0.4
 10
0.4
 20
0.4
  0
LINE
  5
39
330
17
100
AcDbEntity
  8
G_MEDIDO
100
AcDbLine
 10
0.4
 20
0.45
 30
0.0
 11
1.1
 21
0.45
 31
0.0
  0
DIMENSION
  5
3A
330
17
100
AcDbEntity
  8
COTAS
100
AcDbDimension
280
0
  2
*D1
  3
Standard
 10
0.305
 20
0.695
 30
0.0
 11
0.41000000000000003
 21
0.695
 31
0.0
 70
32
 71
5
  1
<>
100
AcDbAlignedDimension
 13
0.305
 23
0.695
 33
0.0
 14
0.515
 24
0.695
 34
0.0
 50
0.0
100
AcDbRotatedDimension
1001
ACAD
1000
DSTYLE
1002
{
1070
140
1040
0.013
1070
41
1040
0.007
1002
}
  0
DIMENSION
  5
50
330
17
100
AcDbEntity
  8
COTAS
100
AcDbDimension
280
0
  2
*D2
  3
Standard
 10
0.68
 20
0.2088
 30
0.0
 11
0.68
 21
0.3244
 31
0.0
 70
32
 71
5
  1
<>
100
AcDbAlignedDimension
 13
0.68
 23
0.2088
 33
0.0
 14
0.68
 24
0.44
 34
0.0
 50
90.0
100
AcDbRotatedDimension
1001
ACAD
1000
DSTYLE
1002
{
1070
140
1040
0.013
1070
41
1040
0.007
1002
}
  0
DIMENSION
  5
62
330
17
100
AcDbEntity
  8
COTAS
100
AcDbDimension
280
0
  2
*D3
  3
Standard
 10
0.8
 20
0.26
 30
0.0
 11
0.8
 21
0.305
 31
0.0
 70
32
 71
5
  1
<>
100
AcDbAlignedDimension
 13
0.8
 23
0.26
 33
0.0
 14
0.8
 24
0.35
 34
0.0
 50
90.0
100
AcDbRotatedDimension
1001
ACAD
1000
DSTYLE
1002
{
1070
140
1040
0.013
1070
41
1040
0.007
1002
}
  0
LWPOLYLINE
  5
74
330
17
100
AcDbEntity
  8
G_MEDIDO
100
AcDbPolyline
 90
4
 70
1
 10
10.4
 20
0.33
 10
10.48
 20
0.33
 10
10.48
 20
0.66
 10
10.4
 20
0.66
  0
LWPOLYLINE
  5
75
330
17
100
AcDbEntity
  8
P_PROPUESTO
100
AcDbPolyline
 90
4
 70
1
 10
10.388
 20
0.33
 10
10.398
 20
0.33
 10
10.398
 20
0.66
 10
10.388
 20
0.66
  0
LWPOLYLINE
  5
76
330
17
100
AcDbEntity
  8
P_PROPUESTO
100
AcDbPolyline
 90
4
 70
1
 10
10.482
 20
0.33
 10
10.492
 20
0.33
 10
10.492
 20
0.66
 10
10.482
 20
0.66
  0
LWPOLYLINE
  5
77
330
17
100
AcDbEntity
  8
P_PROPUESTO
100
AcDbPolyline
 90
4
 70
1
 10
10.37
 20
0.402
 10
10.515
 20
0.402
 10
10.515
 20
0.418
 10
10.37
 20
0.418
  0
LWPOLYLINE
  5
78
330
17
100
AcDbEntity
  8
P_PROPUESTO
100
AcDbPolyline
 90
4
 70
1
 10
10.366
 20
0.395
 10
10.37
 20
0.395
 10
10.37
 20
0.425
 10
10.366
 20
0.425
  0
LWPOLYLINE
  5
79
330
17
100
AcDbEntity
  8
P_PROPUESTO
100
AcDbPolyline
 90
4
 70
1
 10
10.356
 20
0.398
 10
10.366
 20
0.398
 10
10.366
 20
0.422
 10
10.356
 20
0.422
  0
LWPOLYLINE
  5
7A
330
17
100
AcDbEntity
  8
P_PROPUESTO
100
AcDbPolyline
 90
4
 70
1
 10
10.498
 20
0.395
 10
10.502
 20
0.395
 10
10.502
 20
0.425
 10
10.498
 20
0.425
  0
LWPOLYLINE
  5
7B
330
17
100
AcDbEntity
  8
P_PROPUESTO
100
AcDbPolyline
 90
4
 70
1
 10
10.502
 20
0.398
 10
10.515
 20
0.398
 10
10.515
 20
0.422
 10
10.502
 20
0.422
  0
LWPOLYLINE
  5
7C
330
17
100
AcDbEntity
  8
P_PROPUESTO
100
AcDbPolyline
 90
4
 70
1
 10
10.37
 20
0.492
 10
10.515
 20
0.492
 10
10.515
 20
0.508
 10
10.37
 20
0.508
  0
LWPOLYLINE
  5
7D
330
17
100
AcDbEntity
  8
P_PROPUESTO
100
AcDbPolyline
 90
4
 70
1
 10
10.366
 20
0.485
 10
10.37
 20
0.485
 10
10.37
 20
0.515
 10
10.366
 20
0.515
  0
LWPOLYLINE
  5
7E
330
17
100
AcDbEntity
  8
P_PROPUESTO
100
AcDbPolyline
 90
4
 70
1
 10
10.356
 20
0.488
 10
10.366
 20
0.488
 10
10.366
 20
0.512
 10
10.356
 20
0.512
  0
LWPOLYLINE
  5
7F
330
17
100
AcDbEntity
  8
P_PROPUESTO
100
AcDbPolyline
 90
4
 70
1
 10
10.498
 20
0.485
 10
10.502
 20
0.485
 10
10.502
 20
0.515
 10
10.498
 20
0.515
  0
LWPOLYLINE
  5
80
330
17
100
AcDbEntity
  8
P_PROPUESTO
100
AcDbPolyline
 90
4
 70
1
 10
10.502
 20
0.488
 10
10.515
 20
0.488
 10
10.515
 20
0.512
 10
10.502
 20
0.512
  0
DIMENSION
  5
81
330
17
100
AcDbEntity
  8
COTAS
100
AcDbDimension
280
0
  2
*D4
  3
Standard
 10
10.388
 20
0.74
 30
0.0
 11
10.393
 21
1.3715
 31
0.0
 70
32
 71
5
  1
<>
100
AcDbAlignedDimension
 13
10.388
 23
0.74
 33
0.0
 14
10.398
 24
0.74
 34
0.0
 50
0.0
100
AcDbRotatedDimension
1001
ACAD
1000
DSTYLE
1002
{
1070
140
1040
0.013
1070
41
1040
0.007
1002
}
  0
DIMENSION
  5
92
330
17
100
AcDbEntity
  8
COTAS
100
AcDbDimension
280
0
  2
*D5
  3
Standard
 10
10.4
 20
0.79
 30
0.0
 11
10.440000000000001
 21
0.79
 31
0.0
 70
32
 71
5
  1
<>
100
AcDbAlignedDimension
 13
10.4
 23
0.79
 33
0.0
 14
10.48
 24
0.79
 34
0.0
 50
0.0
100
AcDbRotatedDimension
1001
ACAD
1000
DSTYLE
1002
{
1070
140
1040
0.013
1070
41
1040
0.007
1002
}
  0
DIMENSION
  5
A4
330
17
100
AcDbEntity
  8
COTAS
100
AcDbDimension
280
0
  2
*D6
  3
Standard
 10
10.482
 20
0.74
 30
0.0
 11
10.487
 21
1.3715
 31
0.0
 70
32
 71
5
  1
<>
100
AcDbAlignedDimension
 13
10.482
 23
0.74
 33
0.0
 14
10.492
 24
0.74
 34
0.0
 50
0.0
100
AcDbRotatedDimension
1001
ACAD
1000
DSTYLE
1002
{
1070
140
1040
0.013
1070
41
1040
0.007
1002
}
  0
DIMENSION
  5
B5
330
17
100
AcDbEntity
  8
COTAS
100
AcDbDimension
280
0
  2
*D7
  3
Standard
 10
10.398
 20
0.69
 30
0.0
 11
10.399000000000001
 21
1.3215
 31
0.0
 70
32
 71
5
  1
<>
100
AcDbAlignedDimension
 13
10.398
 23
0.69
 33
0.0
 14
10.4
 24
0.69
 34
0.0
 50
0.0
100
AcDbRotatedDimension
1001
ACAD
1000
DSTYLE
1002
{
1070
140
1040
0.013
1070
41
1040
0.007
1002
}
  0
DIMENSION
  5
C6
330
17
100
AcDbEntity
  8
COTAS
100
AcDbDimension
280
0
  2
*D8
  3
Standard
 10
10.77
 20
0.41
 30
0.0
 11
10.77
 21
0.45499999999999996
 31
0.0
 70
32
 71
5
  1
<>
100
AcDbAlignedDimension
 13
10.77
 23
0.41
 33
0.0
 14
10.77
 24
0.5
 34
0.0
 50
90.0
100
AcDbRotatedDimension
1001
ACAD
1000
DSTYLE
1002
{
1070
140
1040
0.013
1070
41
1040
0.007
1002
}
  0
DIMENSION
  5
D8
330
17
100
AcDbEntity
  8
COTAS
100
AcDbDimension
280
0
  2
*D9
  3
Standard
 10
10.95
 20
0.33
 30
0.0
 11
10.95
 21
0.495
 31
0.0
 70
32
 71
5
  1
<>
100
AcDbAlignedDimension
 13
10.95
 23
0.33
 33
0.0
 14
10.95
 24
0.66
 34
0.0
 50
90.0
100
AcDbRotatedDimension
1001
ACAD
1000
DSTYLE
1002
{
1070
140
1040
0.013
1070
41
1040
0.007
1002
}
  0
ENDSEC
  0
SECTION
  2
OBJECTS
  0
DICTIONARY
  5
A
330
0
100
AcDbDictionary
281
1
  3
ACAD_COLOR
350
B
  3
ACAD_GROUP
350
C
  3
ACAD_LAYOUT
350
D
  3
ACAD_MATERIAL
350
E
  3
ACAD_MLEADERSTYLE
350
F
  3
ACAD_MLINESTYLE
350
10
  3
ACAD_PLOTSETTINGS
350
11
  3
ACAD_PLOTSTYLENAME
350
12
  3
ACAD_SCALELIST
350
14
  3
ACAD_TABLESTYLE
350
15
  3
ACAD_VISUALSTYLE
350
16
  3
EZDXF_META
350
2D
  0
DICTIONARY
  5
B
330
A
100
AcDbDictionary
281
1
  0
DICTIONARY
  5
C
330
A
100
AcDbDictionary
281
1
  0
DICTIONARY
  5
D
330
A
100
AcDbDictionary
281
1
  3
Model
350
1A
  3
Layout1
350
1E
  0
DICTIONARY
  5
E
330
A
100
AcDbDictionary
281
1
  3
ByBlock
350
1F
  3
ByLayer
350
20
  3
Global
350
21
  0
DICTIONARY
  5
F
330
A
100
AcDbDictionary
281
1
  3
Standard
350
2C
  0
DICTIONARY
  5
10
330
A
100
AcDbDictionary
281
1
  3
Standard
350
22
  0
DICTIONARY
  5
11
330
A
100
AcDbDictionary
281
1
  0
ACDBDICTIONARYWDFLT
  5
12
330
A
100
AcDbDictionary
281
1
  3
Normal
350
13
100
AcDbDictionaryWithDefault
340
13
  0
ACDBPLACEHOLDER
  5
13
330
12
  0
DICTIONARY
  5
14
330
A
100
AcDbDictionary
281
1
  0
DICTIONARY
  5
15
330
A
100
AcDbDictionary
281
1
  0
DICTIONARY
  5
16
330
A
100
AcDbDictionary
281
1
  0
LAYOUT
  5
1A
330
D
100
AcDbPlotSettings
  1

  4
A3
  6

 40
7.5
 41
20.0
 42
7.5
 43
20.0
 44
420.0
 45
297.0
 46
0.0
 47
0.0
 48
0.0
 49
0.0
140
0.0
141
0.0
142
1.0
143
1.0
 70
1024
 72
1
 73
0
 74
5
  7

 75
16
 76
0
 77
2
 78
300
147
1.0
148
0.0
149
0.0
100
AcDbLayout
  1
Model
 70
1
 71
0
 10
0.0
 20
0.0
 11
420.0
 21
297.0
 12
0.0
 22
0.0
 32
0.0
 14
1e+20
 24
1e+20
 34
1e+20
 15
-1e+20
 25
-1e+20
 35
-1e+20
146
0.0
 13
0.0
 23
0.0
 33
0.0
 16
1.0
 26
0.0
 36
0.0
 17
0.0
 27
1.0
 37
0.0
 76
1
330
17
  0
LAYOUT
  5
1E
330
D
100
AcDbPlotSettings
  1

  4
A3
  6

 40
7.5
 41
20.0
 42
7.5
 43
20.0
 44
420.0
 45
297.0
 46
0.0
 47
0.0
 48
0.0
 49
0.0
140
0.0
141
0.0
142
1.0
143
1.0
 70
0
 72
1
 73
0
 74
5
  7

 75
16
 76
0
 77
2
 78
300
147
1.0
148
0.0
149
0.0
100
AcDbLayout
  1
Layout1
 70
1
 71
1
 10
0.0
 20
0.0
 11
420.0
 21
297.0
 12
0.0
 22
0.0
 32
0.0
 14
1e+20
 24
1e+20
 34
1e+20
 15
-1e+20
 25
-1e+20
 35
-1e+20
146
0.0
 13
0.0
 23
0.0
 33
0.0
 16
1.0
 26
0.0
 36
0.0
 17
0.0
 27
1.0
 37
0.0
 76
1
330
1B
  0
MATERIAL
  5
1F
102
{ACAD_REACTORS
330
E
102
}
330
E
100
AcDbMaterial
  1
ByBlock
  2

 70
0
 40
1.0
 71
1
 41
1.0
 91
-1023410177
 42
1.0
 72
1
  3

 73
1
 74
1
 75
1
 44
0.5
 73
0
 45
1.0
 46
1.0
 77
1
  4

 78
1
 79
1
170
1
 48
1.0
171
1
  6

172
1
173
1
174
1
140
1.0
141
1.0
175
1
  7

176
1
177
1
178
1
143
1.0
179
1
  8

270
1
271
1
272
1
145
1.0
146
1.0
273
1
  9

274
1
275
1
276
1
 42
1.0
 72
1
  3

 73
1
 74
1
 75
1
 94
63
  0
MATERIAL
  5
20
102
{ACAD_REACTORS
330
E
102
}
330
E
100
AcDbMaterial
  1
ByLayer
  2

 70
0
 40
1.0
 71
1
 41
1.0
 91
-1023410177
 42
1.0
 72
1
  3

 73
1
 74
1
 75
1
 44
0.5
 73
0
 45
1.0
 46
1.0
 77
1
  4

 78
1
 79
1
170
1
 48
1.0
171
1
  6

172
1
173
1
174
1
140
1.0
141
1.0
175
1
  7

176
1
177
1
178
1
143
1.0
179
1
  8

270
1
271
1
272
1
145
1.0
146
1.0
273
1
  9

274
1
275
1
276
1
 42
1.0
 72
1
  3

 73
1
 74
1
 75
1
 94
63
  0
MATERIAL
  5
21
102
{ACAD_REACTORS
330
E
102
}
330
E
100
AcDbMaterial
  1
Global
  2

 70
0
 40
1.0
 71
1
 41
1.0
 91
-1023410177
 42
1.0
 72
1
  3

 73
1
 74
1
 75
1
 44
0.5
 73
0
 45
1.0
 46
1.0
 77
1
  4

 78
1
 79
1
170
1
 48
1.0
171
1
  6

172
1
173
1
174
1
140
1.0
141
1.0
175
1
  7

176
1
177
1
178
1
143
1.0
179
1
  8

270
1
271
1
272
1
145
1.0
146
1.0
273
1
  9

274
1
275
1
276
1
 42
1.0
 72
1
  3

 73
1
 74
1
 75
1
 94
63
  0
MLINESTYLE
  5
22
102
{ACAD_REACTORS
330
10
102
}
330
10
100
AcDbMlineStyle
  2
Standard
 70
0
  3

 62
256
 51
90.0
 52
90.0
 71
2
 49
0.5
 62
256
  6
BYLAYER
 49
-0.5
 62
256
  6
BYLAYER
  0
MLEADERSTYLE
  5
2C
102
{ACAD_REACTORS
330
F
102
}
330
F
100
AcDbMLeaderStyle
179
2
170
2
171
1
172
0
 90
2
 40
0.0
 41
0.0
173
1
 91
-1056964608
 92
-2
290
1
 42
2.0
291
1
 43
8.0
  3
Standard
 44
4.0
300

342
29
174
1
175
1
176
0
178
1
 93
-1056964608
 45
4.0
292
0
297
0
 46
4.0
 94
-1056964608
 47
1.0
 49
1.0
140
1.0
294
1
141
0.0
177
0
142
1.0
295
0
296
0
143
3.75
271
0
272
9
273
9
  0
DICTIONARY
  5
2D
330
A
100
AcDbDictionary
280
1
281
1
  3
CREATED_BY_EZDXF
350
2E
  3
WRITTEN_BY_EZDXF
350
EC
  0
DICTIONARYVAR
  5
2E
330
2D
100
DictionaryVariables
280
0
  1
1.4.4 @ 2026-09-10T22:46:16.787804+00:00
  0
DICTIONARYVAR
  5
EC
330
2D
100
DictionaryVariables
280
0
  1
1.4.4 @ 2026-09-10T22:46:16.872468+00:00
  0
ENDSEC
  0
EOF
