  0
SECTION
  2
HEADER
  9
$ACADVER
  1
AC1024
  9
$ACADMAINTVER
 70
6
  9
$DWGCODEPAGE
  3
ANSI_1252
  9
$LASTSAVEDBY
  1
ezdxf
  9
$INSBASE
 10
0.0
 20
0.0
 30
0.0
  9
$EXTMIN
 10
1e+20
 20
1e+20
 30
1e+20
  9
$EXTMAX
 10
-1e+20
 20
-1e+20
 30
-1e+20
  9
$LIMMIN
 10
0.0
 20
0.0
  9
$LIMMAX
 10
420.0
 20
297.0
  9
$ORTHOMODE
 70
0
  9
$REGENMODE
 70
1
  9
$FILLMODE
 70
1
  9
$QTEXTMODE
 70
0
  9
$MIRRTEXT
 70
1
  9
$LTSCALE
 40
1.0
  9
$ATTMODE
 70
1
  9
$TEXTSIZE
 40
2.5
  9
$TRACEWID
 40
1.0
  9
$TEXTSTYLE
  7
Standard
  9
$CLAYER
  8
0
  9
$CELTYPE
  6
ByLayer
  9
$CECOLOR
 62
256
  9
$CELTSCALE
 40
1.0
  9
$DISPSILH
 70
0
  9
$DIMSCALE
 40
1.0
  9
$DIMASZ
 40
2.5
  9
$DIMEXO
 40
0.625
  9
$DIMDLI
 40
3.75
  9
$DIMRND
 40
0.0
  9
$DIMDLE
 40
0.0
  9
$DIMEXE
 40
1.25
  9
$DIMTP
 40
0.0
  9
$DIMTM
 40
0.0
  9
$DIMTXT
 40
2.5
  9
$DIMCEN
 40
2.5
  9
$DIMTSZ
 40
0.0
  9
$DIMTOL
 70
0
  9
$DIMLIM
 70
0
  9
$DIMTIH
 70
0
  9
$DIMTOH
 70
0
  9
$DIMSE1
 70
0
  9
$DIMSE2
 70
0
  9
$DIMTAD
 70
1
  9
$DIMZIN
 70
8
  9
$DIMBLK
  1

  9
$DIMASO
 70
1
  9
$DIMSHO
 70
1
  9
$DIMPOST
  1

  9
$DIMAPOST
  1

  9
$DIMALT
 70
0
  9
$DIMALTD
 70
3
  9
$DIMALTF
 40
0.03937007874
  9
$DIMLFAC
 40
1.0
  9
$DIMTOFL
 70
1
  9
$DIMTVP
 40
0.0
  9
$DIMTIX
 70
0
  9
$DIMSOXD
 70
0
  9
$DIMSAH
 70
0
  9
$DIMBLK1
  1

  9
$DIMBLK2
  1

  9
$DIMSTYLE
  2
ISO-25
  9
$DIMCLRD
 70
0
  9
$DIMCLRE
 70
0
  9
$DIMCLRT
 70
0
  9
$DIMTFAC
 40
1.0
  9
$DIMGAP
 40
0.625
  9
$DIMJUST
 70
0
  9
$DIMSD1
 70
0
  9
$DIMSD2
 70
0
  9
$DIMTOLJ
 70
0
  9
$DIMTZIN
 70
8
  9
$DIMALTZ
 70
0
  9
$DIMALTTZ
 70
0
  9
$DIMUPT
 70
0
  9
$DIMDEC
 70
2
  9
$DIMTDEC
 70
2
  9
$DIMALTU
 70
2
  9
$DIMALTTD
 70
3
  9
$DIMTXSTY
  7
Standard
  9
$DIMAUNIT
 70
0
  9
$DIMADEC
 70
0
  9
$DIMALTRND
 40
0.0
  9
$DIMAZIN
 70
0
  9
$DIMDSEP
 70
44
  9
$DIMATFIT
 70
3
  9
$DIMFRAC
 70
0
  9
$DIMLDRBLK
  1

  9
$DIMLUNIT
 70
2
  9
$DIMLWD
 70
-2
  9
$DIMLWE
 70
-2
  9
$DIMTMOVE
 70
0
  9
$DIMFXL
 40
1.0
  9
$DIMFXLON
 70
0
  9
$DIMJOGANG
 40
0.785398163397
  9
$DIMTFILL
 70
0
  9
$DIMTFILLCLR
 70
0
  9
$DIMARCSYM
 70
0
  9
$DIMLTYPE
  6

  9
$DIMLTEX1
  6

  9
$DIMLTEX2
  6

  9
$DIMTXTDIRECTION
 70
0
  9
$LUNITS
 70
2
  9
$LUPREC
 70
4
  9
$SKETCHINC
 40
1.0
  9
$FILLETRAD
 40
10.0
  9
$AUNITS
 70
0
  9
$AUPREC
 70
2
  9
$MENU
  1
.
  9
$ELEVATION
 40
0.0
  9
$PELEVATION
 40
0.0
  9
$THICKNESS
 40
0.0
  9
$LIMCHECK
 70
0
  9
$CHAMFERA
 40
0.0
  9
$CHAMFERB
 40
0.0
  9
$CHAMFERC
 40
0.0
  9
$CHAMFERD
 40
0.0
  9
$SKPOLY
 70
0
  9
$TDCREATE
 40
2461294.8238078705
  9
$TDUCREATE
 40
2458532.153996898
  9
$TDUPDATE
 40
2461294.8238078705
  9
$TDUUPDATE
 40
2458532.1544311
  9
$TDINDWG
 40
0.0
  9
$TDUSRTIMER
 40
0.0
  9
$USRTIMER
 70
1
  9
$ANGBASE
 50
0.0
  9
$ANGDIR
 70
0
  9
$PDMODE
 70
0
  9
$PDSIZE
 40
0.0
  9
$PLINEWID
 40
0.0
  9
$SPLFRAME
 70
0
  9
$SPLINETYPE
 70
6
  9
$SPLINESEGS
 70
8
  9
$HANDSEED
  5
25F
  9
$SURFTAB1
 70
6
  9
$SURFTAB2
 70
6
  9
$SURFTYPE
 70
6
  9
$SURFU
 70
6
  9
$SURFV
 70
6
  9
$UCSBASE
  2

  9
$UCSNAME
  2

  9
$UCSORG
 10
0.0
 20
0.0
 30
0.0
  9
$UCSXDIR
 10
1.0
 20
0.0
 30
0.0
  9
$UCSYDIR
 10
0.0
 20
1.0
 30
0.0
  9
$UCSORTHOREF
  2

  9
$UCSORTHOVIEW
 70
0
  9
$UCSORGTOP
 10
0.0
 20
0.0
 30
0.0
  9
$UCSORGBOTTOM
 10
0.0
 20
0.0
 30
0.0
  9
$UCSORGLEFT
 10
0.0
 20
0.0
 30
0.0
  9
$UCSORGRIGHT
 10
0.0
 20
0.0
 30
0.0
  9
$UCSORGFRONT
 10
0.0
 20
0.0
 30
0.0
  9
$UCSORGBACK
 10
0.0
 20
0.0
 30
0.0
  9
$PUCSBASE
  2

  9
$PUCSNAME
  2

  9
$PUCSORG
 10
0.0
 20
0.0
 30
0.0
  9
$PUCSXDIR
 10
1.0
 20
0.0
 30
0.0
  9
$PUCSYDIR
 10
0.0
 20
1.0
 30
0.0
  9
$PUCSORTHOREF
  2

  9
$PUCSORTHOVIEW
 70
0
  9
$PUCSORGTOP
 10
0.0
 20
0.0
 30
0.0
  9
$PUCSORGBOTTOM
 10
0.0
 20
0.0
 30
0.0
  9
$PUCSORGLEFT
 10
0.0
 20
0.0
 30
0.0
  9
$PUCSORGRIGHT
 10
0.0
 20
0.0
 30
0.0
  9
$PUCSORGFRONT
 10
0.0
 20
0.0
 30
0.0
  9
$PUCSORGBACK
 10
0.0
 20
0.0
 30
0.0
  9
$USERI1
 70
0
  9
$USERI2
 70
0
  9
$USERI3
 70
0
  9
$USERI4
 70
0
  9
$USERI5
 70
0
  9
$USERR1
 40
0.0
  9
$USERR2
 40
0.0
  9
$USERR3
 40
0.0
  9
$USERR4
 40
0.0
  9
$USERR5
 40
0.0
  9
$WORLDVIEW
 70
1
  9
$SHADEDGE
 70
3
  9
$SHADEDIF
 70
70
  9
$TILEMODE
 70
1
  9
$MAXACTVP
 70
64
  9
$PINSBASE
 10
0.0
 20
0.0
 30
0.0
  9
$PLIMCHECK
 70
0
  9
$PEXTMIN
 10
1e+20
 20
1e+20
 30
1e+20
  9
$PEXTMAX
 10
-1e+20
 20
-1e+20
 30
-1e+20
  9
$PLIMMIN
 10
0.0
 20
0.0
  9
$PLIMMAX
 10
420.0
 20
297.0
  9
$UNITMODE
 70
0
  9
$VISRETAIN
 70
1
  9
$PLINEGEN
 70
0
  9
$PSLTSCALE
 70
1
  9
$TREEDEPTH
 70
3020
  9
$CMLSTYLE
  2
Standard
  9
$CMLJUST
 70
0
  9
$CMLSCALE
 40
20.0
  9
$PROXYGRAPHICS
 70
1
  9
$MEASUREMENT
 70
1
  9
$CELWEIGHT
370
-1
  9
$ENDCAPS
280
0
  9
$JOINSTYLE
280
0
  9
$LWDISPLAY
290
0
  9
$INSUNITS
 70
6
  9
$HYPERLINKBASE
  1

  9
$STYLESHEET
  1

  9
$XEDIT
290
1
  9
$CEPSNTYPE
380
0
  9
$PSTYLEMODE
290
1
  9
$FINGERPRINTGUID
  2
{E3975361-AD05-4D23-9B50-88FE66997344}
  9
$VERSIONGUID
  2
{10F952E0-7F45-4DA1-B65D-2731E9E6C07A}
  9
$EXTNAMES
290
1
  9
$PSVPSCALE
 40
0.0
  9
$OLESTARTUP
290
0
  9
$SORTENTS
280
127
  9
$INDEXCTL
280
0
  9
$HIDETEXT
280
1
  9
$XCLIPFRAME
280
1
  9
$HALOGAP
280
0
  9
$OBSCOLOR
 70
257
  9
$OBSLTYPE
280
0
  9
$INTERSECTIONDISPLAY
280
0
  9
$INTERSECTIONCOLOR
 70
257
  9
$DIMASSOC
280
2
  9
$PROJECTNAME
  1

  9
$CAMERADISPLAY
290
0
  9
$LENSLENGTH
 40
50.0
  9
$CAMERAHEIGHT
 40
0.0
  9
$STEPSPERSEC
 40
24.0
  9
$STEPSIZE
 40
100.0
  9
$3DDWFPREC
 40
2.0
  9
$PSOLWIDTH
 40
0.005
  9
$PSOLHEIGHT
 40
0.08
  9
$LOFTANG1
 40
1.570796326795
  9
$LOFTANG2
 40
1.570796326795
  9
$LOFTMAG1
 40
0.0
  9
$LOFTMAG2
 40
0.0
  9
$LOFTPARAM
 70
7
  9
$LOFTNORMALS
280
1
  9
$LATITUDE
 40
37.795
  9
$LONGITUDE
 40
-122.394
  9
$NORTHDIRECTION
 40
0.0
  9
$TIMEZONE
 70
-8000
  9
$LIGHTGLYPHDISPLAY
280
1
  9
$TILEMODELIGHTSYNCH
280
1
  9
$CMATERIAL
347
20
  9
$SOLIDHIST
280
0
  9
$SHOWHIST
280
1
  9
$DWFFRAME
280
2
  9
$DGNFRAME
280
2
  9
$REALWORLDSCALE
290
1
  9
$INTERFERECOLOR
 62
256
  9
$CSHADOW
280
0
  9
$SHADOWPLANELOCATION
 40
0.0
  0
ENDSEC
  0
SECTION
  2
CLASSES
  0
CLASS
  1
ACDBDICTIONARYWDFLT
  2
AcDbDictionaryWithDefault
  3
ObjectDBX Classes
 90
0
 91
0
280
0
281
0
  0
CLASS
  1
SUN
  2
AcDbSun
  3
SCENEOE
 90
1153
 91
0
280
0
281
0
  0
CLASS
  1
VISUALSTYLE
  2
AcDbVisualStyle
  3
ObjectDBX Classes
 90
4095
 91
0
280
0
281
0
  0
CLASS
  1
MATERIAL
  2
AcDbMaterial
  3
ObjectDBX Classes
 90
1153
 91
0
280
0
281
0
  0
CLASS
  1
SCALE
  2
AcDbScale
  3
ObjectDBX Classes
 90
1153
 91
0
280
0
281
0
  0
CLASS
  1
TABLESTYLE
  2
AcDbTableStyle
  3
ObjectDBX Classes
 90
4095
 91
0
280
0
281
0
  0
CLASS
  1
MLEADERSTYLE
  2
AcDbMLeaderStyle
  3
ACDB_MLEADERSTYLE_CLASS
 90
4095
 91
0
280
0
281
0
  0
CLASS
  1
DICTIONARYVAR
  2
AcDbDictionaryVar
  3
ObjectDBX Classes
 90
0
 91
0
280
0
281
0
  0
CLASS
  1
CELLSTYLEMAP
  2
AcDbCellStyleMap
  3
ObjectDBX Classes
 90
1152
 91
0
280
0
281
0
  0
CLASS
  1
MENTALRAYRENDERSETTINGS
  2
AcDbMentalRayRenderSettings
  3
SCENEOE
 90
1024
 91
0
280
0
281
0
  0
CLASS
  1
ACDBDETAILVIEWSTYLE
  2
AcDbDetailViewStyle
  3
ObjectDBX Classes
 90
1025
 91
0
280
0
281
0
  0
CLASS
  1
ACDBSECTIONVIEWSTYLE
  2
AcDbSectionViewStyle
  3
ObjectDBX Classes
 90
1025
 91
0
280
0
281
0
  0
CLASS
  1
RASTERVARIABLES
  2
AcDbRasterVariables
  3
ISM
 90
0
 91
0
280
0
281
0
  0
CLASS
  1
ACDBPLACEHOLDER
  2
AcDbPlaceHolder
  3
ObjectDBX Classes
 90
0
 91
0
280
0
281
0
  0
CLASS
  1
LAYOUT
  2
AcDbLayout
  3
ObjectDBX Classes
 90
0
 91
0
280
0
281
0
  0
ENDSEC
  0
SECTION
  2
TABLES
  0
TABLE
  2
VPORT
  5
8
330
0
100
AcDbSymbolTable
 70
1
  0
VPORT
  5
23
330
8
100
AcDbSymbolTableRecord
100
AcDbViewportTableRecord
  2
*Active
 70
0
 10
0.0
 20
0.0
 11
1.0
 21
1.0
 12
0.0
 22
0.0
 13
0.0
 23
0.0
 14
0.5
 24
0.5
 15
0.5
 25
0.5
 16
0.0
 26
0.0
 36
1.0
 17
0.0
 27
0.0
 37
0.0
 40
1000.0
 41
1.34
 42
50.0
 43
0.0
 44
0.0
 50
0.0
 51
0.0
 71
0
 72
1000
 73
1
 74
3
 75
0
 76
0
 77
0
 78
0
281
0
 65
0
146
0.0
  0
ENDTAB
  0
TABLE
  2
LTYPE
  5
2
330
0
100
AcDbSymbolTable
 70
3
  0
LTYPE
  5
24
330
2
100
AcDbSymbolTableRecord
100
AcDbLinetypeTableRecord
  2
ByBlock
 70
0
  3

 72
65
 73
0
 40
0.0
  0
LTYPE
  5
25
330
2
100
AcDbSymbolTableRecord
100
AcDbLinetypeTableRecord
  2
ByLayer
 70
0
  3

 72
65
 73
0
 40
0.0
  0
LTYPE
  5
26
330
2
100
AcDbSymbolTableRecord
100
AcDbLinetypeTableRecord
  2
Continuous
 70
0
  3

 72
65
 73
0
 40
0.0
  0
ENDTAB
  0
TABLE
  2
LAYER
  5
1
330
0
100
AcDbSymbolTable
 70
7
  0
LAYER
  5
27
330
1
100
AcDbSymbolTableRecord
100
AcDbLayerTableRecord
  2
0
 70
0
 62
7
  6
Continuous
370
-3
390
13
347
21
  0
LAYER
  5
28
330
1
100
AcDbSymbolTableRecord
100
AcDbLayerTableRecord
  2
Defpoints
 70
0
 62
7
  6
Continuous
290
0
370
-3
390
13
347
21
  0
LAYER
  5
2F
330
1
100
AcDbSymbolTableRecord
100
AcDbLayerTableRecord
  2
G_MEDIDO
 70
0
 62
8
  6
Continuous
370
-3
390
13
347
21
  0
LAYER
  5
30
330
1
100
AcDbSymbolTableRecord
100
AcDbLayerTableRecord
  2
P_PROPUESTO
 70
0
 62
5
  6
Continuous
370
-3
390
13
347
21
  0
LAYER
  5
31
330
1
100
AcDbSymbolTableRecord
100
AcDbLayerTableRecord
  2
COTAS
 70
0
 62
4
  6
Continuous
370
-3
390
13
347
21
  0
LAYER
  5
32
330
1
100
AcDbSymbolTableRecord
100
AcDbLayerTableRecord
  2
TEXTOS
 70
0
 62
7
  6
Continuous
370
-3
390
13
347
21
  0
LAYER
  5
33
330
1
100
AcDbSymbolTableRecord
100
AcDbLayerTableRecord
  2
REVISAR
 70
0
 62
30
  6
Continuous
370
-3
390
13
347
21
  0
ENDTAB
  0
TABLE
  2
STYLE
  5
5
330
0
100
AcDbSymbolTable
 70
1
  0
STYLE
  5
29
330
5
100
AcDbSymbolTableRecord
100
AcDbTextStyleTableRecord
  2
Standard
 70
0
 40
0.0
 41
1.0
 50
0.0
 71
0
 42
2.5
  3
txt
  4

  0
ENDTAB
  0
TABLE
  2
VIEW
  5
7
330
0
100
AcDbSymbolTable
 70
0
  0
ENDTAB
  0
TABLE
  2
UCS
  5
6
330
0
100
AcDbSymbolTable
 70
0
  0
ENDTAB
  0
TABLE
  2
APPID
  5
3
330
0
100
AcDbSymbolTable
 70
3
  0
APPID
  5
2A
330
3
100
AcDbSymbolTableRecord
100
AcDbRegAppTableRecord
  2
ACAD
 70
0
  0
APPID
  5
25C
330
3
100
AcDbSymbolTableRecord
100
AcDbRegAppTableRecord
  2
HATCHBACKGROUNDCOLOR
 70
0
  0
APPID
  5
25D
330
3
100
AcDbSymbolTableRecord
100
AcDbRegAppTableRecord
  2
EZDXF
 70
0
  0
ENDTAB
  0
TABLE
  2
DIMSTYLE
  5
4
330
0
100
AcDbSymbolTable
 70
1
100
AcDbDimStyleTable
  0
DIMSTYLE
105
2B
330
4
100
AcDbSymbolTableRecord
100
AcDbDimStyleTableRecord
  2
Standard
 70
0
 40
1.0
 41
2.5
 42
0.625
 43
3.75
 44
1.25
 45
0.0
 46
0.0
 47
0.0
 48
0.0
 49
2.5
140
2.5
141
2.5
142
0.0
143
0.03937007874
144
1.0
145
0.0
146
1.0
147
0.625
148
0.0
 69
0
 70
0
 71
0
 72
0
 73
0
 74
0
 75
0
 76
0
 77
1
 78
8
 79
3
170
0
171
3
172
1
173
0
174
0
175
0
176
0
177
0
178
0
179
2
271
2
272
2
273
2
274
3
275
0
276
0
277
2
278
44
279
0
280
0
281
0
282
0
283
0
284
8
285
0
286
0
288
0
289
3
290
0
371
-2
372
-2
  0
ENDTAB
  0
TABLE
  2
BLOCK_RECORD
  5
9
330
0
100
AcDbSymbolTable
 70
11
  0
BLOCK_RECORD
  5
17
330
9
100
AcDbSymbolTableRecord
100
AcDbBlockTableRecord
  2
*Model_Space
340
1A
 70
0
280
1
281
0
  0
BLOCK_RECORD
  5
1B
330
9
100
AcDbSymbolTableRecord
100
AcDbBlockTableRecord
  2
*Paper_Space
340
1E
 70
0
280
1
281
0
  0
BLOCK_RECORD
  5
3B
330
9
100
AcDbSymbolTableRecord
100
AcDbBlockTableRecord
  2
*D1
340
0
 70
0
280
1
281
0
  0
BLOCK_RECORD
  5
40
330
9
100
AcDbSymbolTableRecord
100
AcDbBlockTableRecord
  2
_CLOSEDFILLED
340
0
 70
0
280
1
281
0
  0
BLOCK_RECORD
  5
4F
330
9
100
AcDbSymbolTableRecord
100
AcDbBlockTableRecord
  2
*D2
340
0
 70
0
280
1
281
0
  0
BLOCK_RECORD
  5
156
330
9
100
AcDbSymbolTableRecord
100
AcDbBlockTableRecord
  2
*D3
340
0
 70
0
280
1
281
0
  0
BLOCK_RECORD
  5
168
330
9
100
AcDbSymbolTableRecord
100
AcDbBlockTableRecord
  2
*D4
340
0
 70
0
280
1
281
0
  0
BLOCK_RECORD
  5
179
330
9
100
AcDbSymbolTableRecord
100
AcDbBlockTableRecord
  2
*D5
340
0
 70
0
280
1
281
0
  0
BLOCK_RECORD
  5
227
330
9
100
AcDbSymbolTableRecord
100
AcDbBlockTableRecord
  2
*D6
340
0
 70
0
280
1
281
0
  0
BLOCK_RECORD
  5
239
330
9
100
AcDbSymbolTableRecord
100
AcDbBlockTableRecord
  2
*D7
340
0
 70
0
280
1
281
0
  0
BLOCK_RECORD
  5
24B
330
9
100
AcDbSymbolTableRecord
100
AcDbBlockTableRecord
  2
*D8
340
0
 70
0
280
1
281
0
  0
ENDTAB
  0
ENDSEC
  0
SECTION
  2
BLOCKS
  0
BLOCK
  5
18
330
17
100
AcDbEntity
  8
0
100
AcDbBlockBegin
  2
*Model_Space
 70
0
 10
0.0
 20
0.0
 30
0.0
  3
*Model_Space
  1

  0
ENDBLK
  5
19
330
17
100
AcDbEntity
  8
0
100
AcDbBlockEnd
  0
BLOCK
  5
1C
330
1B
100
AcDbEntity
  8
0
100
AcDbBlockBegin
  2
*Paper_Space
 70
0
 10
0.0
 20
0.0
 30
0.0
  3
*Paper_Space
  1

  0
ENDBLK
  5
1D
330
1B
100
AcDbEntity
  8
0
100
AcDbBlockEnd
  0
BLOCK
  5
3C
330
3B
100
AcDbEntity
  8
0
100
AcDbBlockBegin
  2
*D1
 70
1
 10
0.0
 20
0.0
 30
0.0
  3
*D1
  1

  0
LINE
  5
3E
330
3B
100
AcDbEntity
  8
0
100
AcDbLine
 10
0.08
 20
1.55
 30
0.0
 11
0.08
 21
1.6
 31
0.0
  0
LINE
  5
3F
330
3B
100
AcDbEntity
  8
0
100
AcDbLine
 10
0.98
 20
1.55
 30
0.0
 11
0.98
 21
1.6
 31
0.0
  0
INSERT
  5
44
330
3B
100
AcDbEntity
  8
COTAS
100
AcDbBlockReference
  2
_CLOSEDFILLED
 10
0.08
 20
1.6
 30
0.0
 41
0.007
 42
0.007
 50
180.0
  0
INSERT
  5
46
330
3B
100
AcDbEntity
  8
COTAS
100
AcDbBlockReference
  2
_CLOSEDFILLED
 10
0.98
 20
1.6
 30
0.0
 41
0.007
 42
0.007
  0
LINE
  5
48
330
3B
100
AcDbEntity
  8
0
100
AcDbLine
 10
0.08700000000000001
 20
1.6
 30
0.0
 11
0.49100000000000005
 21
1.6
 31
0.0
  0
LINE
  5
49
330
3B
100
AcDbEntity
  8
0
100
AcDbLine
 10
0.5690000000000001
 20
1.6
 30
0.0
 11
0.973
 21
1.6
 31
0.0
  0
MTEXT
  5
4A
330
3B
100
AcDbEntity
  8
COTAS
100
AcDbMText
 10
0.53
 20
1.6
 30
0.0
 40
0.026
 71
5
  1
0,9
  0
POINT
  5
4B
330
3B
100
AcDbEntity
  8
Defpoints
100
AcDbPoint
 10
0.08
 20
1.6
 30
0.0
  0
POINT
  5
4C
330
3B
100
AcDbEntity
  8
Defpoints
100
AcDbPoint
 10
0.08
 20
1.55
 30
0.0
  0
POINT
  5
4D
330
3B
100
AcDbEntity
  8
Defpoints
100
AcDbPoint
 10
0.98
 20
1.55
 30
0.0
  0
ENDBLK
  5
3D
330
3B
100
AcDbEntity
  8
0
100
AcDbBlockEnd
  0
BLOCK
  5
41
330
40
100
AcDbEntity
  8
0
100
AcDbBlockBegin
  2
_CLOSEDFILLED
 70
0
 10
0.0
 20
0.0
 30
0.0
  3
_CLOSEDFILLED
  1

  0
SOLID
  5
43
330
40
100
AcDbEntity
  8
0
  6
BYBLOCK
 62
0
100
AcDbTrace
 10
-1.0
 20
0.16439898372402537
 30
0.0
 11
0.0
 21
0.0
 31
0.0
 12
-1.0
 22
-0.16439898372402537
 32
0.0
 13
-1.0
 23
-0.16439898372402537
 33
0.0
  0
ENDBLK
  5
42
330
40
100
AcDbEntity
  8
0
100
AcDbBlockEnd
  0
BLOCK
  5
50
330
4F
100
AcDbEntity
  8
0
100
AcDbBlockBegin
  2
*D2
 70
1
 10
0.0
 20
0.0
 30
0.0
  3
*D2
  1

  0
LINE
  5
52
330
4F
100
AcDbEntity
  8
0
100
AcDbLine
 10
0.08
 20
0.1
 30
0.0
 11
0.0
 21
0.1
 31
0.0
  0
LINE
  5
53
330
4F
100
AcDbEntity
  8
0
100
AcDbLine
 10
0.08
 20
1.55
 30
0.0
 11
0.0
 21
1.55
 31
0.0
  0
INSERT
  5
54
330
4F
100
AcDbEntity
  8
COTAS
100
AcDbBlockReference
  2
_CLOSEDFILLED
 10
0.0
 20
0.1
 30
0.0
 41
0.007
 42
0.007
 50
270.0
  0
INSERT
  5
56
330
4F
100
AcDbEntity
  8
COTAS
100
AcDbBlockReference
  2
_CLOSEDFILLED
 10
0.0
 20
1.55
 30
0.0
 41
0.007
 42
0.007
 50
90.0
  0
LINE
  5
58
330
4F
100
AcDbEntity
  8
0
100
AcDbLine
 10
1.2858791391047207e-18
 20
0.10700000000000001
 30
0.0
 11
4.907115377641972e-19
 21
0.7729999999999999
 31
0.0
  0
LINE
  5
59
330
4F
100
AcDbEntity
  8
0
100
AcDbLine
 10
3.6654122163895e-19
 20
0.8770000000000001
 30
0.0
 11
-4.2862637970157364e-19
 21
1.5430000000000001
 31
0.0
  0
MTEXT
  5
5A
330
4F
100
AcDbEntity
  8
COTAS
100
AcDbMText
 10
0.0
 20
0.825
 30
0.0
 40
0.026
 71
5
  1
1,45
 50
90.0
  0
POINT
  5
5B
330
4F
100
AcDbEntity
  8
Defpoints
100
AcDbPoint
 10
0.0
 20
0.1
 30
0.0
  0
POINT
  5
5C
330
4F
100
AcDbEntity
  8
Defpoints
100
AcDbPoint
 10
0.08
 20
0.1
 30
0.0
  0
POINT
  5
5D
330
4F
100
AcDbEntity
  8
Defpoints
100
AcDbPoint
 10
0.08
 20
1.55
 30
0.0
  0
ENDBLK
  5
51
330
4F
100
AcDbEntity
  8
0
100
AcDbBlockEnd
  0
BLOCK
  5
157
330
156
100
AcDbEntity
  8
0
100
AcDbBlockBegin
  2
*D3
 70
1
 10
0.0
 20
0.0
 30
0.0
  3
*D3
  1

  0
LINE
  5
159
330
156
100
AcDbEntity
  8
0
100
AcDbLine
 10
10.2
 20
2.44
 30
0.0
 11
10.2
 21
2.44
 31
0.0
  0
LINE
  5
15A
330
156
100
AcDbEntity
  8
0
100
AcDbLine
 10
10.399999809265136
 20
2.44
 30
0.0
 11
10.399999809265136
 21
2.44
 31
0.0
  0
INSERT
  5
15B
330
156
100
AcDbEntity
  8
COTAS
100
AcDbBlockReference
  2
_CLOSEDFILLED
 10
10.2
 20
2.44
 30
0.0
 41
0.007
 42
0.007
  0
INSERT
  5
15D
330
156
100
AcDbEntity
  8
COTAS
100
AcDbBlockReference
  2
_CLOSEDFILLED
 10
10.399999809265136
 20
2.44
 30
0.0
 41
0.007
 42
0.007
 50
180.0
  0
LINE
  5
15F
330
156
100
AcDbEntity
  8
0
100
AcDbLine
 10
10.193
 20
2.44
 30
0.0
 11
10.186
 21
2.44
 31
0.0
  0
LINE
  5
160
330
156
100
AcDbEntity
  8
0
100
AcDbLine
 10
10.406999809265136
 20
2.44
 30
0.0
 11
10.413999809265135
 21
2.44
 31
0.0
  0
LINE
  5
161
330
156
100
AcDbEntity
  8
0
100
AcDbLine
 10
10.2
 20
2.44
 30
0.0
 11
10.260999904632568
 21
2.44
 31
0.0
  0
LINE
  5
162
330
156
100
AcDbEntity
  8
0
100
AcDbLine
 10
10.338999904632567
 20
2.44
 30
0.0
 11
10.399999809265136
 21
2.44
 31
0.0
  0
MTEXT
  5
163
330
156
100
AcDbEntity
  8
COTAS
100
AcDbMText
 10
10.299999904632568
 20
2.44
 30
0.0
 40
0.026
 71
5
  1
0,2
  0
POINT
  5
164
330
156
100
AcDbEntity
  8
Defpoints
100
AcDbPoint
 10
10.2
 20
2.44
 30
0.0
  0
POINT
  5
165
330
156
100
AcDbEntity
  8
Defpoints
100
AcDbPoint
 10
10.2
 20
2.44
 30
0.0
  0
POINT
  5
166
330
156
100
AcDbEntity
  8
Defpoints
100
AcDbPoint
 10
10.399999809265136
 20
2.44
 30
0.0
  0
ENDBLK
  5
158
330
156
100
AcDbEntity
  8
0
100
AcDbBlockEnd
  0
BLOCK
  5
169
330
168
100
AcDbEntity
  8
0
100
AcDbBlockBegin
  2
*D4
 70
1
 10
0.0
 20
0.0
 30
0.0
  3
*D4
  1

  0
LINE
  5
16B
330
168
100
AcDbEntity
  8
0
100
AcDbLine
 10
10.8
 20
2.309999942779541
 30
0.0
 11
10.8
 21
2.309999942779541
 31
0.0
  0
LINE
  5
16C
330
168
100
AcDbEntity
  8
0
100
AcDbLine
 10
10.8
 20
2.322000026702881
 30
0.0
 11
10.8
 21
2.322000026702881
 31
0.0
  0
INSERT
  5
16D
330
168
100
AcDbEntity
  8
COTAS
100
AcDbBlockReference
  2
_CLOSEDFILLED
 10
10.8
 20
2.309999942779541
 30
0.0
 41
0.007
 42
0.007
 50
90.0
  0
INSERT
  5
16F
330
168
100
AcDbEntity
  8
COTAS
100
AcDbBlockReference
  2
_CLOSEDFILLED
 10
10.8
 20
2.322000026702881
 30
0.0
 41
0.007
 42
0.007
 50
270.0
  0
LINE
  5
171
330
168
100
AcDbEntity
  8
0
100
AcDbLine
 10
10.8
 20
2.302999942779541
 30
0.0
 11
10.8
 21
2.2959999427795412
 31
0.0
  0
LINE
  5
172
330
168
100
AcDbEntity
  8
0
100
AcDbLine
 10
10.8
 20
2.329000026702881
 30
0.0
 11
10.8
 21
2.3360000267028806
 31
0.0
  0
LINE
  5
173
330
168
100
AcDbEntity
  8
0
100
AcDbLine
 10
10.8
 20
2.309999942779541
 30
0.0
 11
10.8
 21
2.322000026702881
 31
0.0
  0
MTEXT
  5
174
330
168
100
AcDbEntity
  8
COTAS
100
AcDbMText
 10
10.162
 20
2.315999984741211
 30
0.0
 40
0.026
 71
5
  1
0,01
 50
90.0
  0
POINT
  5
175
330
168
100
AcDbEntity
  8
Defpoints
100
AcDbPoint
 10
10.8
 20
2.309999942779541
 30
0.0
  0
POINT
  5
176
330
168
100
AcDbEntity
  8
Defpoints
100
AcDbPoint
 10
10.8
 20
2.309999942779541
 30
0.0
  0
POINT
  5
177
330
168
100
AcDbEntity
  8
Defpoints
100
AcDbPoint
 10
10.8
 20
2.322000026702881
 30
0.0
  0
ENDBLK
  5
16A
330
168
100
AcDbEntity
  8
0
100
AcDbBlockEnd
  0
BLOCK
  5
17A
330
179
100
AcDbEntity
  8
0
100
AcDbBlockBegin
  2
*D5
 70
1
 10
0.0
 20
0.0
 30
0.0
  3
*D5
  1

  0
LINE
  5
17C
330
179
100
AcDbEntity
  8
0
100
AcDbLine
 10
10.6
 20
0.21
 30
0.0
 11
11.09
 21
0.21
 31
0.0
  0
LINE
  5
17D
330
179
100
AcDbEntity
  8
0
100
AcDbLine
 10
10.6
 20
2.3099000453948975
 30
0.0
 11
11.09
 21
2.3099000453948975
 31
0.0
  0
INSERT
  5
17E
330
179
100
AcDbEntity
  8
COTAS
100
AcDbBlockReference
  2
_CLOSEDFILLED
 10
11.09
 20
0.21
 30
0.0
 41
0.007
 42
0.007
 50
270.0
  0
INSERT
  5
180
330
179
100
AcDbEntity
  8
COTAS
100
AcDbBlockReference
  2
_CLOSEDFILLED
 10
11.09
 20
2.3099000453948975
 30
0.0
 41
0.007
 42
0.007
 50
90.0
  0
LINE
  5
182
330
179
100
AcDbEntity
  8
0
100
AcDbLine
 10
11.09
 20
0.217
 30
0.0
 11
11.09
 21
1.2209500226974488
 31
0.0
  0
LINE
  5
183
330
179
100
AcDbEntity
  8
0
100
AcDbLine
 10
11.09
 20
1.2989500226974486
 30
0.0
 11
11.09
 21
2.3029000453948973
 31
0.0
  0
MTEXT
  5
184
330
179
100
AcDbEntity
  8
COTAS
100
AcDbMText
 10
11.09
 20
1.2599500226974487
 30
0.0
 40
0.026
 71
5
  1
2,1
 50
90.0
  0
POINT
  5
185
330
179
100
AcDbEntity
  8
Defpoints
100
AcDbPoint
 10
11.09
 20
0.21
 30
0.0
  0
POINT
  5
186
330
179
100
AcDbEntity
  8
Defpoints
100
AcDbPoint
 10
10.6
 20
0.21
 30
0.0
  0
POINT
  5
187
330
179
100
AcDbEntity
  8
Defpoints
100
AcDbPoint
 10
10.6
 20
2.3099000453948975
 30
0.0
  0
ENDBLK
  5
17B
330
179
100
AcDbEntity
  8
0
100
AcDbBlockEnd
  0
BLOCK
  5
228
330
227
100
AcDbEntity
  8
0
100
AcDbBlockBegin
  2
*D6
 70
1
 10
0.0
 20
0.0
 30
0.0
  3
*D6
  1

  0
LINE
  5
22A
330
227
100
AcDbEntity
  8
0
100
AcDbLine
 10
20.47
 20
0.217
 30
0.0
 11
20.47
 21
0.217
 31
0.0
  0
LINE
  5
22B
330
227
100
AcDbEntity
  8
0
100
AcDbLine
 10
20.47
 20
0.267
 30
0.0
 11
20.47
 21
0.267
 31
0.0
  0
INSERT
  5
22C
330
227
100
AcDbEntity
  8
COTAS
100
AcDbBlockReference
  2
_CLOSEDFILLED
 10
20.47
 20
0.217
 30
0.0
 41
0.007
 42
0.007
 50
90.0
  0
INSERT
  5
22E
330
227
100
AcDbEntity
  8
COTAS
100
AcDbBlockReference
  2
_CLOSEDFILLED
 10
20.47
 20
0.267
 30
0.0
 41
0.007
 42
0.007
 50
270.0
  0
LINE
  5
230
330
227
100
AcDbEntity
  8
0
100
AcDbLine
 10
20.47
 20
0.21
 30
0.0
 11
20.47
 21
0.20299999999999999
 31
0.0
  0
LINE
  5
231
330
227
100
AcDbEntity
  8
0
100
AcDbLine
 10
20.47
 20
0.274
 30
0.0
 11
20.47
 21
0.281
 31
0.0
  0
LINE
  5
232
330
227
100
AcDbEntity
  8
0
100
AcDbLine
 10
20.47
 20
0.217
 30
0.0
 11
20.47
 21
0.2316
 31
0.0
  0
LINE
  5
233
330
227
100
AcDbEntity
  8
0
100
AcDbLine
 10
20.47
 20
0.2524
 30
0.0
 11
20.47
 21
0.267
 31
0.0
  0
MTEXT
  5
234
330
227
100
AcDbEntity
  8
COTAS
100
AcDbMText
 10
20.47
 20
0.242
 30
0.0
 40
0.0052
 71
5
  1
0,05
 50
90.0
  0
POINT
  5
235
330
227
100
AcDbEntity
  8
Defpoints
100
AcDbPoint
 10
20.47
 20
0.217
 30
0.0
  0
POINT
  5
236
330
227
100
AcDbEntity
  8
Defpoints
100
AcDbPoint
 10
20.47
 20
0.217
 30
0.0
  0
POINT
  5
237
330
227
100
AcDbEntity
  8
Defpoints
100
AcDbPoint
 10
20.47
 20
0.267
 30
0.0
  0
ENDBLK
  5
229
330
227
100
AcDbEntity
  8
0
100
AcDbBlockEnd
  0
BLOCK
  5
23A
330
239
100
AcDbEntity
  8
0
100
AcDbBlockBegin
  2
*D7
 70
1
 10
0.0
 20
0.0
 30
0.0
  3
*D7
  1

  0
LINE
  5
23C
330
239
100
AcDbEntity
  8
0
100
AcDbLine
 10
20.21
 20
0.475
 30
0.0
 11
20.21
 21
0.475
 31
0.0
  0
LINE
  5
23D
330
239
100
AcDbEntity
  8
0
100
AcDbLine
 10
20.31
 20
0.475
 30
0.0
 11
20.31
 21
0.475
 31
0.0
  0
INSERT
  5
23E
330
239
100
AcDbEntity
  8
COTAS
100
AcDbBlockReference
  2
_CLOSEDFILLED
 10
20.21
 20
0.475
 30
0.0
 41
0.007
 42
0.007
  0
INSERT
  5
240
330
239
100
AcDbEntity
  8
COTAS
100
AcDbBlockReference
  2
_CLOSEDFILLED
 10
20.31
 20
0.475
 30
0.0
 41
0.007
 42
0.007
 50
180.0
  0
LINE
  5
242
330
239
100
AcDbEntity
  8
0
100
AcDbLine
 10
20.203
 20
0.475
 30
0.0
 11
20.196
 21
0.475
 31
0.0
  0
LINE
  5
243
330
239
100
AcDbEntity
  8
0
100
AcDbLine
 10
20.317
 20
0.475
 30
0.0
 11
20.323999999999998
 21
0.475
 31
0.0
  0
LINE
  5
244
330
239
100
AcDbEntity
  8
0
100
AcDbLine
 10
20.21
 20
0.475
 30
0.0
 11
20.2522
 21
0.475
 31
0.0
  0
LINE
  5
245
330
239
100
AcDbEntity
  8
0
100
AcDbLine
 10
20.267799999999998
 20
0.475
 30
0.0
 11
20.31
 21
0.475
 31
0.0
  0
MTEXT
  5
246
330
239
100
AcDbEntity
  8
COTAS
100
AcDbMText
 10
20.259999999999998
 20
0.475
 30
0.0
 40
0.0052
 71
5
  1
0,1
  0
POINT
  5
247
330
239
100
AcDbEntity
  8
Defpoints
100
AcDbPoint
 10
20.21
 20
0.475
 30
0.0
  0
POINT
  5
248
330
239
100
AcDbEntity
  8
Defpoints
100
AcDbPoint
 10
20.21
 20
0.475
 30
0.0
  0
POINT
  5
249
330
239
100
AcDbEntity
  8
Defpoints
100
AcDbPoint
 10
20.31
 20
0.475
 30
0.0
  0
ENDBLK
  5
23B
330
239
100
AcDbEntity
  8
0
100
AcDbBlockEnd
  0
BLOCK
  5
24C
330
24B
100
AcDbEntity
  8
0
100
AcDbBlockBegin
  2
*D8
 70
1
 10
0.0
 20
0.0
 30
0.0
  3
*D8
  1

  0
LINE
  5
24E
330
24B
100
AcDbEntity
  8
0
100
AcDbLine
 10
20.04
 20
0.31
 30
0.0
 11
20.04
 21
0.31
 31
0.0
  0
LINE
  5
24F
330
24B
100
AcDbEntity
  8
0
100
AcDbLine
 10
20.04
 20
0.36
 30
0.0
 11
20.04
 21
0.36
 31
0.0
  0
INSERT
  5
250
330
24B
100
AcDbEntity
  8
COTAS
100
AcDbBlockReference
  2
_CLOSEDFILLED
 10
20.04
 20
0.31
 30
0.0
 41
0.007
 42
0.007
 50
90.0
  0
INSERT
  5
252
330
24B
100
AcDbEntity
  8
COTAS
100
AcDbBlockReference
  2
_CLOSEDFILLED
 10
20.04
 20
0.36
 30
0.0
 41
0.007
 42
0.007
 50
270.0
  0
LINE
  5
254
330
24B
100
AcDbEntity
  8
0
100
AcDbLine
 10
20.04
 20
0.303
 30
0.0
 11
20.04
 21
0.296
 31
0.0
  0
LINE
  5
255
330
24B
100
AcDbEntity
  8
0
100
AcDbLine
 10
20.04
 20
0.367
 30
0.0
 11
20.04
 21
0.374
 31
0.0
  0
LINE
  5
256
330
24B
100
AcDbEntity
  8
0
100
AcDbLine
 10
20.04
 20
0.31
 30
0.0
 11
20.04
 21
0.32459999999999994
 31
0.0
  0
LINE
  5
257
330
24B
100
AcDbEntity
  8
0
100
AcDbLine
 10
20.04
 20
0.3454
 30
0.0
 11
20.04
 21
0.36
 31
0.0
  0
MTEXT
  5
258
330
24B
100
AcDbEntity
  8
COTAS
100
AcDbMText
 10
20.04
 20
0.33499999999999996
 30
0.0
 40
0.0052
 71
5
  1
0,05
 50
90.0
  0
POINT
  5
259
330
24B
100
AcDbEntity
  8
Defpoints
100
AcDbPoint
 10
20.04
 20
0.31
 30
0.0
  0
POINT
  5
25A
330
24B
100
AcDbEntity
  8
Defpoints
100
AcDbPoint
 10
20.04
 20
0.31
 30
0.0
  0
POINT
  5
25B
330
24B
100
AcDbEntity
  8
Defpoints
100
AcDbPoint
 10
20.04
 20
0.36
 30
0.0
  0
ENDBLK
  5
24D
330
24B
100
AcDbEntity
  8
0
100
AcDbBlockEnd
  0
ENDSEC
  0
SECTION
  2
ENTITIES
  0
LWPOLYLINE
  5
34
330
17
100
AcDbEntity
  8
G_MEDIDO
100
AcDbPolyline
 90
4
 70
1
 10
0.08
 20
0.1
 10
0.98
 20
0.1
 10
0.98
 20
1.55
 10
0.08
 20
1.55
  0
LWPOLYLINE
  5
35
330
17
100
AcDbEntity
  8
G_MEDIDO
100
AcDbPolyline
 90
4
 70
1
 10
0.48
 20
0.775
 10
0.58
 20
0.775
 10
0.58
 20
0.875
 10
0.48
 20
0.875
  0
LINE
  5
36
330
17
100
AcDbEntity
  8
G_MEDIDO
100
AcDbLine
 10
0.08
 20
0.1
 30
0.0
 11
0.48
 21
0.775
 31
0.0
  0
LINE
  5
37
330
17
100
AcDbEntity
  8
G_MEDIDO
100
AcDbLine
 10
0.98
 20
0.1
 30
0.0
 11
0.58
 21
0.775
 31
0.0
  0
LINE
  5
38
330
17
100
AcDbEntity
  8
G_MEDIDO
100
AcDbLine
 10
0.98
 20
1.55
 30
0.0
 11
0.58
 21
0.875
 31
0.0
  0
LINE
  5
39
330
17
100
AcDbEntity
  8
G_MEDIDO
100
AcDbLine
 10
0.08
 20
1.55
 30
0.0
 11
0.48
 21
0.875
 31
0.0
  0
DIMENSION
  5
3A
330
17
100
AcDbEntity
  8
COTAS
100
AcDbDimension
280
0
  2
*D1
  3
Standard
 10
0.08
 20
1.6
 30
0.0
 11
0.53
 21
1.6
 31
0.0
 70
32
 71
5
  1
<>
100
AcDbAlignedDimension
 13
0.08
 23
1.55
 33
0.0
 14
0.98
 24
1.55
 34
0.0
 50
0.0
100
AcDbRotatedDimension
1001
ACAD
1000
DSTYLE
1002
{
1070
140
1040
0.026
1070
41
1040
0.007
1002
}
  0
DIMENSION
  5
4E
330
17
100
AcDbEntity
  8
COTAS
100
AcDbDimension
280
0
  2
*D2
  3
Standard
 10
0.0
 20
0.1
 30
0.0
 11
0.0
 21
0.825
 31
0.0
 70
32
 71
5
  1
<>
100
AcDbAlignedDimension
 13
0.08
 23
0.1
 33
0.0
 14
0.08
 24
1.55
 34
0.0
 50
90.0
100
AcDbRotatedDimension
1001
ACAD
1000
DSTYLE
1002
{
1070
140
1040
0.026
1070
41
1040
0.007
1002
}
  0
LINE
  5
5E
330
17
100
AcDbEntity
  8
G_MEDIDO
100
AcDbLine
 10
0.2
 20
0.82
 30
0.0
 11
0.44
 21
0.82
 31
0.0
  0
LWPOLYLINE
  5
5F
330
17
100
AcDbEntity
  8
G_MEDIDO
100
AcDbPolyline
 90
3
 70
1
 10
0.44
 20
0.82
 10
0.41
 20
0.83
 10
0.41
 20
0.81
  0
LINE
  5
60
330
17
100
AcDbEntity
  8
G_MEDIDO
100
AcDbLine
 10
0.86
 20
0.82
 30
0.0
 11
0.62
 21
0.82
 31
0.0
  0
LWPOLYLINE
  5
61
330
17
100
AcDbEntity
  8
G_MEDIDO
100
AcDbPolyline
 90
3
 70
1
 10
0.62
 20
0.82
 10
0.65
 20
0.81
 10
0.65
 20
0.83
  0
LINE
  5
62
330
17
100
AcDbEntity
  8
G_MEDIDO
100
AcDbLine
 10
0.53
 20
1.35
 30
0.0
 11
0.53
 21
0.93
 31
0.0
  0
LWPOLYLINE
  5
63
330
17
100
AcDbEntity
  8
G_MEDIDO
100
AcDbPolyline
 90
3
 70
1
 10
0.53
 20
0.93
 10
0.54
 20
0.96
 10
0.52
 20
0.96
  0
LINE
  5
64
330
17
100
AcDbEntity
  8
G_MEDIDO
100
AcDbLine
 10
0.53
 20
0.3
 30
0.0
 11
0.53
 21
0.71
 31
0.0
  0
LWPOLYLINE
  5
65
330
17
100
AcDbEntity
  8
G_MEDIDO
100
AcDbPolyline
 90
3
 70
1
 10
0.53
 20
0.71
 10
0.52
 20
0.68
 10
0.54
 20
0.68
  0
TEXT
  5
66
330
17
100
AcDbEntity
  8
TEXTOS
100
AcDbText
 10
0.53
 20
1.26
 30
0.0
 40
0.026
  1
2,15% G
100
AcDbText
  0
TEXT
  5
67
330
17
100
AcDbEntity
  8
TEXTOS
100
AcDbText
 10
0.53
 20
0.405
 30
0.0
 40
0.026
  1
2,15% G
100
AcDbText
  0
TEXT
  5
68
330
17
100
AcDbEntity
  8
TEXTOS
100
AcDbText
 10
0.53
 20
0.03
 30
0.0
 40
0.026
  1
Laterales3,63% G
100
AcDbText
  0
LINE
  5
69
330
17
100
AcDbEntity
  8
G_MEDIDO
100
AcDbLine
 10
10.0
 20
0.0
 30
0.0
 11
10.048001
 21
0.0
 31
0.0
  0
LINE
  5
6A
330
17
100
AcDbEntity
  8
G_MEDIDO
100
AcDbLine
 10
10.048001
 20
0.0
 30
0.0
 11
11.19
 21
0.0
 31
0.0
  0
LINE
  5
6B
330
17
100
AcDbEntity
  8
G_MEDIDO
100
AcDbLine
 10
10.723
 20
0.16
 30
0.0
 11
10.725
 21
0.16
 31
0.0
  0
LINE
  5
6C
330
17
100
AcDbEntity
  8
G_MEDIDO
100
AcDbLine
 10
10.725
 20
0.16
 30
0.0
 11
10.73
 21
0.16
 31
0.0
  0
LINE
  5
6D
330
17
100
AcDbEntity
  8
G_MEDIDO
100
AcDbLine
 10
10.73
 20
0.16
 30
0.0
 11
10.735
 21
0.16
 31
0.0
  0
LINE
  5
6E
330
17
100
AcDbEntity
  8
G_MEDIDO
100
AcDbLine
 10
10.735
 20
0.16
 30
0.0
 11
10.755
 21
0.16
 31
0.0
  0
LINE
  5
6F
330
17
100
AcDbEntity
  8
G_MEDIDO
100
AcDbLine
 10
10.755
 20
0.16
 30
0.0
 11
10.759
 21
0.16
 31
0.0
  0
LINE
  5
70
330
17
100
AcDbEntity
  8
G_MEDIDO
100
AcDbLine
 10
10.759
 20
0.16
 30
0.0
 11
10.791
 21
0.16
 31
0.0
  0
LINE
  5
71
330
17
100
AcDbEntity
  8
G_MEDIDO
100
AcDbLine
 10
10.791
 20
0.16
 30
0.0
 11
10.795
 21
0.16
 31
0.0
  0
LINE
  5
72
330
17
100
AcDbEntity
  8
G_MEDIDO
100
AcDbLine
 10
10.795
 20
0.16
 30
0.0
 11
10.815
 21
0.16
 31
0.0
  0
LINE
  5
73
330
17
100
AcDbEntity
  8
G_MEDIDO
100
AcDbLine
 10
10.815
 20
0.16
 30
0.0
 11
10.82
 21
0.16
 31
0.0
  0
LINE
  5
74
330
17
100
AcDbEntity
  8
G_MEDIDO
100
AcDbLine
 10
10.82
 20
0.16
 30
0.0
 11
10.825
 21
0.16
 31
0.0
  0
LINE
  5
75
330
17
100
AcDbEntity
  8
G_MEDIDO
100
AcDbLine
 10
10.825
 20
0.16
 30
0.0
 11
10.827
 21
0.16
 31
0.0
  0
LINE
  5
76
330
17
100
AcDbEntity
  8
G_MEDIDO
100
AcDbLine
 10
10.0
 20
0.16
 30
0.0
 11
10.05
 21
0.16
 31
0.0
  0
LINE
  5
77
330
17
100
AcDbEntity
  8
G_MEDIDO
100
AcDbLine
 10
10.05
 20
0.16
 30
0.0
 11
10.723
 21
0.16
 31
0.0
  0
LINE
  5
78
330
17
100
AcDbEntity
  8
G_MEDIDO
100
AcDbLine
 10
10.827
 20
0.04
 30
0.0
 11
10.827
 21
0.16
 31
0.0
  0
LINE
  5
79
330
17
100
AcDbEntity
  8
G_MEDIDO
100
AcDbLine
 10
10.723
 20
0.04
 30
0.0
 11
10.723
 21
0.16
 31
0.0
  0
LINE
  5
7A
330
17
100
AcDbEntity
  8
G_MEDIDO
100
AcDbLine
 10
10.723
 20
0.04
 30
0.0
 11
10.827
 21
0.04
 31
0.0
  0
LINE
  5
7B
330
17
100
AcDbEntity
  8
G_MEDIDO
100
AcDbLine
 10
10.048001
 20
0.0
 30
0.0
 11
10.049422
 21
0.00042472
 31
0.0
  0
LINE
  5
7C
330
17
100
AcDbEntity
  8
G_MEDIDO
100
AcDbLine
 10
10.049422
 20
0.00042472
 30
0.0
 11
10.05
 21
0.0014204460000000001
 31
0.0
  0
LINE
  5
7D
330
17
100
AcDbEntity
  8
G_MEDIDO
100
AcDbLine
 10
10.05
 20
2.597494302
 30
0.0
 11
10.049412005
 21
2.5991936460000002
 31
0.0
  0
LINE
  5
7E
330
17
100
AcDbEntity
  8
G_MEDIDO
100
AcDbLine
 10
10.048001
 20
2.6
 30
0.0
 11
10.049412005
 21
2.5991936460000002
 31
0.0
  0
LINE
  5
7F
330
17
100
AcDbEntity
  8
G_MEDIDO
100
AcDbLine
 10
10.046586
 20
0.190586
 30
0.0
 11
10.048
 21
0.19
 31
0.0
  0
LINE
  5
80
330
17
100
AcDbEntity
  8
G_MEDIDO
100
AcDbLine
 10
10.046586
 20
0.190586
 30
0.0
 11
10.046
 21
0.192
 31
0.0
  0
LINE
  5
81
330
17
100
AcDbEntity
  8
G_MEDIDO
100
AcDbLine
 10
10.046586
 20
0.359414
 30
0.0
 11
10.048
 21
0.36
 31
0.0
  0
LINE
  5
82
330
17
100
AcDbEntity
  8
G_MEDIDO
100
AcDbLine
 10
10.046
 20
0.358
 30
0.0
 11
10.046586
 21
0.359414
 31
0.0
  0
LINE
  5
83
330
17
100
AcDbEntity
  8
G_MEDIDO
100
AcDbLine
 10
10.049414
 20
0.190586
 30
0.0
 11
10.05
 21
0.192
 31
0.0
  0
LINE
  5
84
330
17
100
AcDbEntity
  8
G_MEDIDO
100
AcDbLine
 10
10.048
 20
0.19
 30
0.0
 11
10.049414
 21
0.190586
 31
0.0
  0
LINE
  5
85
330
17
100
AcDbEntity
  8
G_MEDIDO
100
AcDbLine
 10
10.05
 20
0.358
 30
0.0
 11
10.049414
 21
0.359414
 31
0.0
  0
LINE
  5
86
330
17
100
AcDbEntity
  8
G_MEDIDO
100
AcDbLine
 10
10.048
 20
0.36
 30
0.0
 11
10.049414
 21
0.359414
 31
0.0
  0
LINE
  5
87
330
17
100
AcDbEntity
  8
G_MEDIDO
100
AcDbLine
 10
10.046
 20
0.192
 30
0.0
 11
10.046
 21
0.358
 31
0.0
  0
LINE
  5
88
330
17
100
AcDbEntity
  8
G_MEDIDO
100
AcDbLine
 10
10.05
 20
0.0014204460000000001
 30
0.0
 11
10.05
 21
0.16
 31
0.0
  0
LINE
  5
89
330
17
100
AcDbEntity
  8
G_MEDIDO
100
AcDbLine
 10
10.05
 20
0.16
 30
0.0
 11
10.05
 21
0.19
 31
0.0
  0
LINE
  5
8A
330
17
100
AcDbEntity
  8
G_MEDIDO
100
AcDbLine
 10
10.05
 20
0.19
 30
0.0
 11
10.05
 21
0.192
 31
0.0
  0
LINE
  5
8B
330
17
100
AcDbEntity
  8
G_MEDIDO
100
AcDbLine
 10
10.05
 20
0.192
 30
0.0
 11
10.05
 21
0.2
 31
0.0
  0
LINE
  5
8C
330
17
100
AcDbEntity
  8
G_MEDIDO
100
AcDbLine
 10
10.05
 20
0.2
 30
0.0
 11
10.05
 21
0.21
 31
0.0
  0
LINE
  5
8D
330
17
100
AcDbEntity
  8
G_MEDIDO
100
AcDbLine
 10
10.05
 20
0.21
 30
0.0
 11
10.05
 21
0.358
 31
0.0
  0
LINE
  5
8E
330
17
100
AcDbEntity
  8
G_MEDIDO
100
AcDbLine
 10
10.05
 20
0.358
 30
0.0
 11
10.05
 21
0.36
 31
0.0
  0
LINE
  5
8F
330
17
100
AcDbEntity
  8
G_MEDIDO
100
AcDbLine
 10
10.05
 20
0.36
 30
0.0
 11
10.05
 21
1.285
 31
0.0
  0
LINE
  5
90
330
17
100
AcDbEntity
  8
G_MEDIDO
100
AcDbLine
 10
10.05
 20
1.285
 30
0.0
 11
10.05
 21
1.29
 31
0.0
  0
LINE
  5
91
330
17
100
AcDbEntity
  8
G_MEDIDO
100
AcDbLine
 10
10.05
 20
1.29
 30
0.0
 11
10.05
 21
1.303
 31
0.0
  0
LINE
  5
92
330
17
100
AcDbEntity
  8
G_MEDIDO
100
AcDbLine
 10
10.05
 20
1.303
 30
0.0
 11
10.05
 21
1.317
 31
0.0
  0
LINE
  5
93
330
17
100
AcDbEntity
  8
G_MEDIDO
100
AcDbLine
 10
10.05
 20
1.317
 30
0.0
 11
10.05
 21
1.33
 31
0.0
  0
LINE
  5
94
330
17
100
AcDbEntity
  8
G_MEDIDO
100
AcDbLine
 10
10.05
 20
1.33
 30
0.0
 11
10.05
 21
1.335
 31
0.0
  0
LINE
  5
95
330
17
100
AcDbEntity
  8
G_MEDIDO
100
AcDbLine
 10
10.05
 20
1.335
 30
0.0
 11
10.05
 21
2.21
 31
0.0
  0
LINE
  5
96
330
17
100
AcDbEntity
  8
G_MEDIDO
100
AcDbLine
 10
10.05
 20
2.21
 30
0.0
 11
10.05
 21
2.223
 31
0.0
  0
LINE
  5
97
330
17
100
AcDbEntity
  8
G_MEDIDO
100
AcDbLine
 10
10.05
 20
2.223
 30
0.0
 11
10.05
 21
2.237
 31
0.0
  0
LINE
  5
98
330
17
100
AcDbEntity
  8
G_MEDIDO
100
AcDbLine
 10
10.05
 20
2.237
 30
0.0
 11
10.05
 21
2.25
 31
0.0
  0
LINE
  5
99
330
17
100
AcDbEntity
  8
G_MEDIDO
100
AcDbLine
 10
10.05
 20
2.25
 30
0.0
 11
10.05
 21
2.597494302
 31
0.0
  0
LINE
  5
9A
330
17
100
AcDbEntity
  8
G_MEDIDO
100
AcDbLine
 10
10.0
 20
2.6
 30
0.0
 11
10.048001
 21
2.6
 31
0.0
  0
LINE
  5
9B
330
17
100
AcDbEntity
  8
G_MEDIDO
100
AcDbLine
 10
10.202
 20
2.31
 30
0.0
 11
10.2986
 21
2.31
 31
0.0
  0
LINE
  5
9C
330
17
100
AcDbEntity
  8
G_MEDIDO
100
AcDbLine
 10
10.2986
 20
2.31
 30
0.0
 11
10.3014
 21
2.31
 31
0.0
  0
LINE
  5
9D
330
17
100
AcDbEntity
  8
G_MEDIDO
100
AcDbLine
 10
10.3014
 20
2.31
 30
0.0
 11
10.398
 21
2.31
 31
0.0
  0
LINE
  5
9E
330
17
100
AcDbEntity
  8
G_MEDIDO
100
AcDbLine
 10
10.398
 20
2.31
 30
0.0
 11
10.4
 21
2.312
 31
0.0
  0
LINE
  5
9F
330
17
100
AcDbEntity
  8
G_MEDIDO
100
AcDbLine
 10
10.2
 20
2.312
 30
0.0
 11
10.202
 21
2.31
 31
0.0
  0
LINE
  5
A0
330
17
100
AcDbEntity
  8
G_MEDIDO
100
AcDbLine
 10
10.4
 20
2.312
 30
0.0
 11
10.4
 21
2.32
 31
0.0
  0
LINE
  5
A1
330
17
100
AcDbEntity
  8
G_MEDIDO
100
AcDbLine
 10
10.2
 20
2.312
 30
0.0
 11
10.2
 21
2.32
 31
0.0
  0
LINE
  5
A2
330
17
100
AcDbEntity
  8
G_MEDIDO
100
AcDbLine
 10
10.398
 20
2.322
 30
0.0
 11
10.4
 21
2.32
 31
0.0
  0
LINE
  5
A3
330
17
100
AcDbEntity
  8
G_MEDIDO
100
AcDbLine
 10
10.2
 20
2.32
 30
0.0
 11
10.202
 21
2.322
 31
0.0
  0
LINE
  5
A4
330
17
100
AcDbEntity
  8
G_MEDIDO
100
AcDbLine
 10
10.202
 20
2.322
 30
0.0
 11
10.293
 21
2.322
 31
0.0
  0
LINE
  5
A5
330
17
100
AcDbEntity
  8
G_MEDIDO
100
AcDbLine
 10
10.293
 20
2.322
 30
0.0
 11
10.307
 21
2.322
 31
0.0
  0
LINE
  5
A6
330
17
100
AcDbEntity
  8
G_MEDIDO
100
AcDbLine
 10
10.307
 20
2.322
 30
0.0
 11
10.398
 21
2.322
 31
0.0
  0
LINE
  5
A7
330
17
100
AcDbEntity
  8
G_MEDIDO
100
AcDbLine
 10
10.2986
 20
2.3099000000000003
 30
0.0
 11
10.3014
 21
2.3099000000000003
 31
0.0
  0
LINE
  5
A8
330
17
100
AcDbEntity
  8
G_MEDIDO
100
AcDbLine
 10
10.2986
 20
2.312
 30
0.0
 11
10.3014
 21
2.312
 31
0.0
  0
LINE
  5
A9
330
17
100
AcDbEntity
  8
G_MEDIDO
100
AcDbLine
 10
10.2986
 20
2.3099000000000003
 30
0.0
 11
10.2986
 21
2.31
 31
0.0
  0
LINE
  5
AA
330
17
100
AcDbEntity
  8
G_MEDIDO
100
AcDbLine
 10
10.2986
 20
2.31
 30
0.0
 11
10.2986
 21
2.312
 31
0.0
  0
LINE
  5
AB
330
17
100
AcDbEntity
  8
G_MEDIDO
100
AcDbLine
 10
10.3014
 20
2.3099000000000003
 30
0.0
 11
10.3014
 21
2.31
 31
0.0
  0
LINE
  5
AC
330
17
100
AcDbEntity
  8
G_MEDIDO
100
AcDbLine
 10
10.3014
 20
2.31
 30
0.0
 11
10.3014
 21
2.312
 31
0.0
  0
LINE
  5
AD
330
17
100
AcDbEntity
  8
G_MEDIDO
100
AcDbLine
 10
10.293
 20
2.37
 30
0.0
 11
10.3
 21
2.37
 31
0.0
  0
LINE
  5
AE
330
17
100
AcDbEntity
  8
G_MEDIDO
100
AcDbLine
 10
10.3
 20
2.37
 30
0.0
 11
10.307
 21
2.37
 31
0.0
  0
LINE
  5
AF
330
17
100
AcDbEntity
  8
G_MEDIDO
100
AcDbLine
 10
10.293
 20
2.322
 30
0.0
 11
10.293
 21
2.36
 31
0.0
  0
LINE
  5
B0
330
17
100
AcDbEntity
  8
G_MEDIDO
100
AcDbLine
 10
10.293
 20
2.36
 30
0.0
 11
10.293
 21
2.37
 31
0.0
  0
LINE
  5
B1
330
17
100
AcDbEntity
  8
G_MEDIDO
100
AcDbLine
 10
10.307
 20
2.322
 30
0.0
 11
10.307
 21
2.37
 31
0.0
  0
LINE
  5
B2
330
17
100
AcDbEntity
  8
G_MEDIDO
100
AcDbLine
 10
10.05
 20
0.19
 30
0.0
 11
10.715
 21
0.175715
 31
0.0
  0
LINE
  5
B3
330
17
100
AcDbEntity
  8
G_MEDIDO
100
AcDbLine
 10
10.725
 20
0.16
 30
0.0
 11
10.725
 21
0.1725
 31
0.0
  0
LINE
  5
B4
330
17
100
AcDbEntity
  8
G_MEDIDO
100
AcDbLine
 10
10.715
 20
0.1725
 30
0.0
 11
10.715
 21
0.1745
 31
0.0
  0
LINE
  5
B5
330
17
100
AcDbEntity
  8
G_MEDIDO
100
AcDbLine
 10
10.715
 20
0.1745
 30
0.0
 11
10.715
 21
0.175715
 31
0.0
  0
LINE
  5
B6
330
17
100
AcDbEntity
  8
G_MEDIDO
100
AcDbLine
 10
10.715
 20
0.1725
 30
0.0
 11
10.725
 21
0.1725
 31
0.0
  0
LINE
  5
B7
330
17
100
AcDbEntity
  8
G_MEDIDO
100
AcDbLine
 10
10.827
 20
0.16
 30
0.0
 11
11.19
 21
0.16
 31
0.0
  0
LINE
  5
B8
330
17
100
AcDbEntity
  8
G_MEDIDO
100
AcDbLine
 10
10.835
 20
0.175715
 30
0.0
 11
11.19
 21
0.1833408270676692
 31
0.0
  0
LINE
  5
B9
330
17
100
AcDbEntity
  8
G_MEDIDO
100
AcDbLine
 10
10.825
 20
0.16
 30
0.0
 11
10.825
 21
0.1725
 31
0.0
  0
LINE
  5
BA
330
17
100
AcDbEntity
  8
G_MEDIDO
100
AcDbLine
 10
10.835
 20
0.1725
 30
0.0
 11
10.835
 21
0.1745
 31
0.0
  0
LINE
  5
BB
330
17
100
AcDbEntity
  8
G_MEDIDO
100
AcDbLine
 10
10.835
 20
0.1745
 30
0.0
 11
10.835
 21
0.175715
 31
0.0
  0
LINE
  5
BC
330
17
100
AcDbEntity
  8
G_MEDIDO
100
AcDbLine
 10
10.825
 20
0.1725
 30
0.0
 11
10.835
 21
0.1725
 31
0.0
  0
LINE
  5
BD
330
17
100
AcDbEntity
  8
G_MEDIDO
100
AcDbLine
 10
10.05
 20
0.192
 30
0.0
 11
10.715
 21
0.177715
 31
0.0
  0
LINE
  5
BE
330
17
100
AcDbEntity
  8
G_MEDIDO
100
AcDbLine
 10
10.715
 20
0.175715
 30
0.0
 11
10.715
 21
0.177715
 31
0.0
  0
LINE
  5
BF
330
17
100
AcDbEntity
  8
G_MEDIDO
100
AcDbLine
 10
10.835
 20
0.177715
 30
0.0
 11
11.19
 21
0.1853408270676692
 31
0.0
  0
LINE
  5
C0
330
17
100
AcDbEntity
  8
G_MEDIDO
100
AcDbLine
 10
10.835
 20
0.175715
 30
0.0
 11
10.835
 21
0.177715
 31
0.0
  0
LINE
  5
C1
330
17
100
AcDbEntity
  8
G_MEDIDO
100
AcDbLine
 10
10.05
 20
0.2
 30
0.0
 11
10.725
 21
0.1855
 31
0.0
  0
LINE
  5
C2
330
17
100
AcDbEntity
  8
G_MEDIDO
100
AcDbLine
 10
10.725
 20
0.1785
 30
0.0
 11
10.725
 21
0.1855
 31
0.0
  0
LINE
  5
C3
330
17
100
AcDbEntity
  8
G_MEDIDO
100
AcDbLine
 10
10.715
 20
0.177715
 30
0.0
 11
10.715
 21
0.1785
 31
0.0
  0
LINE
  5
C4
330
17
100
AcDbEntity
  8
G_MEDIDO
100
AcDbLine
 10
10.715
 20
0.1785
 30
0.0
 11
10.725
 21
0.1785
 31
0.0
  0
LINE
  5
C5
330
17
100
AcDbEntity
  8
G_MEDIDO
100
AcDbLine
 10
10.825
 20
0.1855
 30
0.0
 11
11.19
 21
0.19334074074074073
 31
0.0
  0
LINE
  5
C6
330
17
100
AcDbEntity
  8
G_MEDIDO
100
AcDbLine
 10
10.825
 20
0.1785
 30
0.0
 11
10.825
 21
0.1855
 31
0.0
  0
LINE
  5
C7
330
17
100
AcDbEntity
  8
G_MEDIDO
100
AcDbLine
 10
10.835
 20
0.177715
 30
0.0
 11
10.835
 21
0.1785
 31
0.0
  0
LINE
  5
C8
330
17
100
AcDbEntity
  8
G_MEDIDO
100
AcDbLine
 10
10.825
 20
0.1785
 30
0.0
 11
10.835
 21
0.1785
 31
0.0
  0
LINE
  5
C9
330
17
100
AcDbEntity
  8
G_MEDIDO
100
AcDbLine
 10
10.05
 20
0.21
 30
0.0
 11
10.725
 21
0.1955
 31
0.0
  0
LINE
  5
CA
330
17
100
AcDbEntity
  8
G_MEDIDO
100
AcDbLine
 10
10.725
 20
0.1855
 30
0.0
 11
10.725
 21
0.188
 31
0.0
  0
LINE
  5
CB
330
17
100
AcDbEntity
  8
G_MEDIDO
100
AcDbLine
 10
10.725
 20
0.188
 30
0.0
 11
10.725
 21
0.1915
 31
0.0
  0
LINE
  5
CC
330
17
100
AcDbEntity
  8
G_MEDIDO
100
AcDbLine
 10
10.725
 20
0.1915
 30
0.0
 11
10.725
 21
0.1955
 31
0.0
  0
LINE
  5
CD
330
17
100
AcDbEntity
  8
G_MEDIDO
100
AcDbLine
 10
10.825
 20
0.1955
 30
0.0
 11
11.19
 21
0.20334074074074074
 31
0.0
  0
LINE
  5
CE
330
17
100
AcDbEntity
  8
G_MEDIDO
100
AcDbLine
 10
10.825
 20
0.1855
 30
0.0
 11
10.825
 21
0.188
 31
0.0
  0
LINE
  5
CF
330
17
100
AcDbEntity
  8
G_MEDIDO
100
AcDbLine
 10
10.825
 20
0.188
 30
0.0
 11
10.825
 21
0.1915
 31
0.0
  0
LINE
  5
D0
330
17
100
AcDbEntity
  8
G_MEDIDO
100
AcDbLine
 10
10.825
 20
0.1915
 30
0.0
 11
10.825
 21
0.1955
 31
0.0
  0
LINE
  5
D1
330
17
100
AcDbEntity
  8
G_MEDIDO
100
AcDbLine
 10
10.046
 20
0.19
 30
0.0
 11
10.046
 21
0.192
 31
0.0
  0
LINE
  5
D2
330
17
100
AcDbEntity
  8
G_MEDIDO
100
AcDbLine
 10
10.046
 20
0.358
 30
0.0
 11
10.046
 21
0.36
 31
0.0
  0
LINE
  5
D3
330
17
100
AcDbEntity
  8
G_MEDIDO
100
AcDbLine
 10
10.048
 20
0.19
 30
0.0
 11
10.048
 21
0.192
 31
0.0
  0
LINE
  5
D4
330
17
100
AcDbEntity
  8
G_MEDIDO
100
AcDbLine
 10
10.048
 20
0.192
 30
0.0
 11
10.048
 21
0.36
 31
0.0
  0
LINE
  5
D5
330
17
100
AcDbEntity
  8
G_MEDIDO
100
AcDbLine
 10
10.046
 20
0.19
 30
0.0
 11
10.048
 21
0.19
 31
0.0
  0
LINE
  5
D6
330
17
100
AcDbEntity
  8
G_MEDIDO
100
AcDbLine
 10
10.046
 20
0.36
 30
0.0
 11
10.048
 21
0.36
 31
0.0
  0
LINE
  5
D7
330
17
100
AcDbEntity
  8
G_MEDIDO
100
AcDbLine
 10
10.82
 20
0.055
 30
0.0
 11
10.82
 21
0.16
 31
0.0
  0
LINE
  5
D8
330
17
100
AcDbEntity
  8
G_MEDIDO
100
AcDbLine
 10
10.82
 20
0.16
 30
0.0
 11
10.82
 21
0.1725
 31
0.0
  0
LINE
  5
D9
330
17
100
AcDbEntity
  8
G_MEDIDO
100
AcDbLine
 10
10.82
 20
0.1725
 30
0.0
 11
10.82
 21
0.1745
 31
0.0
  0
LINE
  5
DA
330
17
100
AcDbEntity
  8
G_MEDIDO
100
AcDbLine
 10
10.82
 20
0.1745
 30
0.0
 11
10.82
 21
0.1785
 31
0.0
  0
LINE
  5
DB
330
17
100
AcDbEntity
  8
G_MEDIDO
100
AcDbLine
 10
10.82
 20
0.1785
 30
0.0
 11
10.82
 21
0.184
 31
0.0
  0
LINE
  5
DC
330
17
100
AcDbEntity
  8
G_MEDIDO
100
AcDbLine
 10
10.82
 20
0.184
 30
0.0
 11
10.82
 21
0.1875
 31
0.0
  0
LINE
  5
DD
330
17
100
AcDbEntity
  8
G_MEDIDO
100
AcDbLine
 10
10.73
 20
0.055
 30
0.0
 11
10.73
 21
0.16
 31
0.0
  0
LINE
  5
DE
330
17
100
AcDbEntity
  8
G_MEDIDO
100
AcDbLine
 10
10.73
 20
0.16
 30
0.0
 11
10.73
 21
0.1725
 31
0.0
  0
LINE
  5
DF
330
17
100
AcDbEntity
  8
G_MEDIDO
100
AcDbLine
 10
10.73
 20
0.1725
 30
0.0
 11
10.73
 21
0.1745
 31
0.0
  0
LINE
  5
E0
330
17
100
AcDbEntity
  8
G_MEDIDO
100
AcDbLine
 10
10.73
 20
0.1745
 30
0.0
 11
10.73
 21
0.1785
 31
0.0
  0
LINE
  5
E1
330
17
100
AcDbEntity
  8
G_MEDIDO
100
AcDbLine
 10
10.73
 20
0.1785
 30
0.0
 11
10.73
 21
0.184
 31
0.0
  0
LINE
  5
E2
330
17
100
AcDbEntity
  8
G_MEDIDO
100
AcDbLine
 10
10.73
 20
0.184
 30
0.0
 11
10.73
 21
0.1875
 31
0.0
  0
LINE
  5
E3
330
17
100
AcDbEntity
  8
G_MEDIDO
100
AcDbLine
 10
10.73
 20
0.1875
 30
0.0
 11
10.735
 21
0.1875
 31
0.0
  0
LINE
  5
E4
330
17
100
AcDbEntity
  8
G_MEDIDO
100
AcDbLine
 10
10.815
 20
0.1875
 30
0.0
 11
10.82
 21
0.1875
 31
0.0
  0
LINE
  5
E5
330
17
100
AcDbEntity
  8
G_MEDIDO
100
AcDbLine
 10
10.73
 20
0.055
 30
0.0
 11
10.735
 21
0.055
 31
0.0
  0
LINE
  5
E6
330
17
100
AcDbEntity
  8
G_MEDIDO
100
AcDbLine
 10
10.815
 20
0.055
 30
0.0
 11
10.82
 21
0.055
 31
0.0
  0
LINE
  5
E7
330
17
100
AcDbEntity
  8
G_MEDIDO
100
AcDbLine
 10
10.815
 20
0.055
 30
0.0
 11
10.815
 21
0.16
 31
0.0
  0
LINE
  5
E8
330
17
100
AcDbEntity
  8
G_MEDIDO
100
AcDbLine
 10
10.815
 20
0.16
 30
0.0
 11
10.815
 21
0.184
 31
0.0
  0
LINE
  5
E9
330
17
100
AcDbEntity
  8
G_MEDIDO
100
AcDbLine
 10
10.815
 20
0.184
 30
0.0
 11
10.815
 21
0.1875
 31
0.0
  0
LINE
  5
EA
330
17
100
AcDbEntity
  8
G_MEDIDO
100
AcDbLine
 10
10.735
 20
0.055
 30
0.0
 11
10.735
 21
0.16
 31
0.0
  0
LINE
  5
EB
330
17
100
AcDbEntity
  8
G_MEDIDO
100
AcDbLine
 10
10.735
 20
0.16
 30
0.0
 11
10.735
 21
0.184
 31
0.0
  0
LINE
  5
EC
330
17
100
AcDbEntity
  8
G_MEDIDO
100
AcDbLine
 10
10.735
 20
0.184
 30
0.0
 11
10.735
 21
0.1875
 31
0.0
  0
LINE
  5
ED
330
17
100
AcDbEntity
  8
G_MEDIDO
100
AcDbLine
 10
10.82
 20
0.045
 30
0.0
 11
10.82
 21
0.055
 31
0.0
  0
LINE
  5
EE
330
17
100
AcDbEntity
  8
G_MEDIDO
100
AcDbLine
 10
10.73
 20
0.045
 30
0.0
 11
10.73
 21
0.055
 31
0.0
  0
LINE
  5
EF
330
17
100
AcDbEntity
  8
G_MEDIDO
100
AcDbLine
 10
10.735
 20
0.055
 30
0.0
 11
10.815
 21
0.055
 31
0.0
  0
LINE
  5
F0
330
17
100
AcDbEntity
  8
G_MEDIDO
100
AcDbLine
 10
10.73
 20
0.045
 30
0.0
 11
10.82
 21
0.045
 31
0.0
  0
LINE
  5
F1
330
17
100
AcDbEntity
  8
G_MEDIDO
100
AcDbLine
 10
10.795
 20
0.067
 30
0.0
 11
10.795
 21
0.16
 31
0.0
  0
LINE
  5
F2
330
17
100
AcDbEntity
  8
G_MEDIDO
100
AcDbLine
 10
10.795
 20
0.16
 30
0.0
 11
10.795
 21
0.184
 31
0.0
  0
LINE
  5
F3
330
17
100
AcDbEntity
  8
G_MEDIDO
100
AcDbLine
 10
10.795
 20
0.184
 30
0.0
 11
10.795
 21
0.188
 31
0.0
  0
LINE
  5
F4
330
17
100
AcDbEntity
  8
G_MEDIDO
100
AcDbLine
 10
10.755
 20
0.067
 30
0.0
 11
10.755
 21
0.16
 31
0.0
  0
LINE
  5
F5
330
17
100
AcDbEntity
  8
G_MEDIDO
100
AcDbLine
 10
10.755
 20
0.16
 30
0.0
 11
10.755
 21
0.184
 31
0.0
  0
LINE
  5
F6
330
17
100
AcDbEntity
  8
G_MEDIDO
100
AcDbLine
 10
10.755
 20
0.184
 30
0.0
 11
10.755
 21
0.188
 31
0.0
  0
LINE
  5
F7
330
17
100
AcDbEntity
  8
G_MEDIDO
100
AcDbLine
 10
10.791
 20
0.188
 30
0.0
 11
10.795
 21
0.188
 31
0.0
  0
LINE
  5
F8
330
17
100
AcDbEntity
  8
G_MEDIDO
100
AcDbLine
 10
10.755
 20
0.188
 30
0.0
 11
10.759
 21
0.188
 31
0.0
  0
LINE
  5
F9
330
17
100
AcDbEntity
  8
G_MEDIDO
100
AcDbLine
 10
10.755
 20
0.067
 30
0.0
 11
10.759
 21
0.067
 31
0.0
  0
LINE
  5
FA
330
17
100
AcDbEntity
  8
G_MEDIDO
100
AcDbLine
 10
10.791
 20
0.067
 30
0.0
 11
10.795
 21
0.067
 31
0.0
  0
LINE
  5
FB
330
17
100
AcDbEntity
  8
G_MEDIDO
100
AcDbLine
 10
10.791
 20
0.067
 30
0.0
 11
10.791
 21
0.16
 31
0.0
  0
LINE
  5
FC
330
17
100
AcDbEntity
  8
G_MEDIDO
100
AcDbLine
 10
10.791
 20
0.16
 30
0.0
 11
10.791
 21
0.188
 31
0.0
  0
LINE
  5
FD
330
17
100
AcDbEntity
  8
G_MEDIDO
100
AcDbLine
 10
10.759
 20
0.067
 30
0.0
 11
10.759
 21
0.16
 31
0.0
  0
LINE
  5
FE
330
17
100
AcDbEntity
  8
G_MEDIDO
100
AcDbLine
 10
10.759
 20
0.16
 30
0.0
 11
10.759
 21
0.188
 31
0.0
  0
LINE
  5
FF
330
17
100
AcDbEntity
  8
G_MEDIDO
100
AcDbLine
 10
10.82
 20
0.1875
 30
0.0
 11
10.82
 21
0.188
 31
0.0
  0
LINE
  5
100
330
17
100
AcDbEntity
  8
G_MEDIDO
100
AcDbLine
 10
10.73
 20
0.1875
 30
0.0
 11
10.73
 21
0.188
 31
0.0
  0
LINE
  5
101
330
17
100
AcDbEntity
  8
G_MEDIDO
100
AcDbLine
 10
10.73
 20
0.188
 30
0.0
 11
10.735
 21
0.188
 31
0.0
  0
LINE
  5
102
330
17
100
AcDbEntity
  8
G_MEDIDO
100
AcDbLine
 10
10.735
 20
0.188
 30
0.0
 11
10.755
 21
0.188
 31
0.0
  0
LINE
  5
103
330
17
100
AcDbEntity
  8
G_MEDIDO
100
AcDbLine
 10
10.795
 20
0.188
 30
0.0
 11
10.815
 21
0.188
 31
0.0
  0
LINE
  5
104
330
17
100
AcDbEntity
  8
G_MEDIDO
100
AcDbLine
 10
10.815
 20
0.188
 30
0.0
 11
10.82
 21
0.188
 31
0.0
  0
LINE
  5
105
330
17
100
AcDbEntity
  8
G_MEDIDO
100
AcDbLine
 10
10.795
 20
0.184
 30
0.0
 11
10.815
 21
0.184
 31
0.0
  0
LINE
  5
106
330
17
100
AcDbEntity
  8
G_MEDIDO
100
AcDbLine
 10
10.815
 20
0.184
 30
0.0
 11
10.82
 21
0.184
 31
0.0
  0
LINE
  5
107
330
17
100
AcDbEntity
  8
G_MEDIDO
100
AcDbLine
 10
10.73
 20
0.184
 30
0.0
 11
10.735
 21
0.184
 31
0.0
  0
LINE
  5
108
330
17
100
AcDbEntity
  8
G_MEDIDO
100
AcDbLine
 10
10.735
 20
0.184
 30
0.0
 11
10.755
 21
0.184
 31
0.0
  0
LINE
  5
109
330
17
100
AcDbEntity
  8
G_MEDIDO
100
AcDbLine
 10
10.729
 20
0.1915
 30
0.0
 11
10.729
 21
0.1955
 31
0.0
  0
LINE
  5
10A
330
17
100
AcDbEntity
  8
G_MEDIDO
100
AcDbLine
 10
10.725
 20
0.1915
 30
0.0
 11
10.729
 21
0.1915
 31
0.0
  0
LINE
  5
10B
330
17
100
AcDbEntity
  8
G_MEDIDO
100
AcDbLine
 10
10.725
 20
0.1955
 30
0.0
 11
10.729
 21
0.1955
 31
0.0
  0
LINE
  5
10C
330
17
100
AcDbEntity
  8
G_MEDIDO
100
AcDbLine
 10
10.821
 20
0.1915
 30
0.0
 11
10.821
 21
0.1955
 31
0.0
  0
LINE
  5
10D
330
17
100
AcDbEntity
  8
G_MEDIDO
100
AcDbLine
 10
10.821
 20
0.1915
 30
0.0
 11
10.825
 21
0.1915
 31
0.0
  0
LINE
  5
10E
330
17
100
AcDbEntity
  8
G_MEDIDO
100
AcDbLine
 10
10.821
 20
0.1955
 30
0.0
 11
10.825
 21
0.1955
 31
0.0
  0
LINE
  5
10F
330
17
100
AcDbEntity
  8
G_MEDIDO
100
AcDbLine
 10
10.729
 20
0.1915
 30
0.0
 11
10.735
 21
0.1915
 31
0.0
  0
LINE
  5
110
330
17
100
AcDbEntity
  8
G_MEDIDO
100
AcDbLine
 10
10.735
 20
0.1915
 30
0.0
 11
10.815
 21
0.1915
 31
0.0
  0
LINE
  5
111
330
17
100
AcDbEntity
  8
G_MEDIDO
100
AcDbLine
 10
10.815
 20
0.1915
 30
0.0
 11
10.821
 21
0.1915
 31
0.0
  0
LINE
  5
112
330
17
100
AcDbEntity
  8
G_MEDIDO
100
AcDbLine
 10
10.729
 20
0.1955
 30
0.0
 11
10.821
 21
0.1955
 31
0.0
  0
LINE
  5
113
330
17
100
AcDbEntity
  8
G_MEDIDO
100
AcDbLine
 10
10.11
 20
1.31
 30
0.0
 11
10.11
 21
1.335
 31
0.0
  0
LINE
  5
114
330
17
100
AcDbEntity
  8
G_MEDIDO
100
AcDbLine
 10
10.11
 20
1.335
 30
0.0
 11
10.11
 21
2.36
 31
0.0
  0
LINE
  5
115
330
17
100
AcDbEntity
  8
G_MEDIDO
100
AcDbLine
 10
10.11
 20
2.36
 30
0.0
 11
10.11
 21
2.37
 31
0.0
  0
LINE
  5
116
330
17
100
AcDbEntity
  8
G_MEDIDO
100
AcDbLine
 10
10.09
 20
1.31
 30
0.0
 11
10.09
 21
1.317
 31
0.0
  0
LINE
  5
117
330
17
100
AcDbEntity
  8
G_MEDIDO
100
AcDbLine
 10
10.09
 20
1.317
 30
0.0
 11
10.09
 21
1.335
 31
0.0
  0
LINE
  5
118
330
17
100
AcDbEntity
  8
G_MEDIDO
100
AcDbLine
 10
10.09
 20
1.335
 30
0.0
 11
10.09
 21
2.223
 31
0.0
  0
LINE
  5
119
330
17
100
AcDbEntity
  8
G_MEDIDO
100
AcDbLine
 10
10.09
 20
2.223
 30
0.0
 11
10.09
 21
2.237
 31
0.0
  0
LINE
  5
11A
330
17
100
AcDbEntity
  8
G_MEDIDO
100
AcDbLine
 10
10.09
 20
2.237
 30
0.0
 11
10.09
 21
2.37
 31
0.0
  0
LINE
  5
11B
330
17
100
AcDbEntity
  8
G_MEDIDO
100
AcDbLine
 10
10.09
 20
2.37
 30
0.0
 11
10.1
 21
2.37
 31
0.0
  0
LINE
  5
11C
330
17
100
AcDbEntity
  8
G_MEDIDO
100
AcDbLine
 10
10.1
 20
2.37
 30
0.0
 11
10.11
 21
2.37
 31
0.0
  0
LINE
  5
11D
330
17
100
AcDbEntity
  8
G_MEDIDO
100
AcDbLine
 10
10.09
 20
1.31
 30
0.0
 11
10.1
 21
1.31
 31
0.0
  0
LINE
  5
11E
330
17
100
AcDbEntity
  8
G_MEDIDO
100
AcDbLine
 10
10.1
 20
1.31
 30
0.0
 11
10.11
 21
1.31
 31
0.0
  0
LINE
  5
11F
330
17
100
AcDbEntity
  8
G_MEDIDO
100
AcDbLine
 10
10.1
 20
2.38
 30
0.0
 11
10.3
 21
2.38
 31
0.0
  0
LINE
  5
120
330
17
100
AcDbEntity
  8
G_MEDIDO
100
AcDbLine
 10
10.1
 20
2.36
 30
0.0
 11
10.11
 21
2.36
 31
0.0
  0
LINE
  5
121
330
17
100
AcDbEntity
  8
G_MEDIDO
100
AcDbLine
 10
10.11
 20
2.36
 30
0.0
 11
10.293
 21
2.36
 31
0.0
  0
LINE
  5
122
330
17
100
AcDbEntity
  8
G_MEDIDO
100
AcDbLine
 10
10.293
 20
2.36
 30
0.0
 11
10.3
 21
2.36
 31
0.0
  0
LINE
  5
123
330
17
100
AcDbEntity
  8
G_MEDIDO
100
AcDbLine
 10
10.3
 20
2.36
 30
0.0
 11
10.3
 21
2.37
 31
0.0
  0
LINE
  5
124
330
17
100
AcDbEntity
  8
G_MEDIDO
100
AcDbLine
 10
10.3
 20
2.37
 30
0.0
 11
10.3
 21
2.38
 31
0.0
  0
LINE
  5
125
330
17
100
AcDbEntity
  8
G_MEDIDO
100
AcDbLine
 10
10.1
 20
2.36
 30
0.0
 11
10.1
 21
2.37
 31
0.0
  0
LINE
  5
126
330
17
100
AcDbEntity
  8
G_MEDIDO
100
AcDbLine
 10
10.1
 20
2.37
 30
0.0
 11
10.1
 21
2.38
 31
0.0
  0
LINE
  5
127
330
17
100
AcDbEntity
  8
G_MEDIDO
100
AcDbLine
 10
10.05
 20
1.335
 30
0.0
 11
10.09
 21
1.335
 31
0.0
  0
LINE
  5
128
330
17
100
AcDbEntity
  8
G_MEDIDO
100
AcDbLine
 10
10.09
 20
1.335
 30
0.0
 11
10.11
 21
1.335
 31
0.0
  0
LINE
  5
129
330
17
100
AcDbEntity
  8
G_MEDIDO
100
AcDbLine
 10
10.11
 20
1.335
 30
0.0
 11
10.14
 21
1.335
 31
0.0
  0
LINE
  5
12A
330
17
100
AcDbEntity
  8
G_MEDIDO
100
AcDbLine
 10
10.05
 20
1.285
 30
0.0
 11
10.14
 21
1.285
 31
0.0
  0
LINE
  5
12B
330
17
100
AcDbEntity
  8
G_MEDIDO
100
AcDbLine
 10
10.14
 20
1.285
 30
0.0
 11
10.14
 21
1.335
 31
0.0
  0
LINE
  5
12C
330
17
100
AcDbEntity
  8
G_MEDIDO
100
AcDbLine
 10
10.05
 20
1.317
 30
0.0
 11
10.055999675
 21
1.317
 31
0.0
  0
LINE
  5
12D
330
17
100
AcDbEntity
  8
G_MEDIDO
100
AcDbLine
 10
10.055999675
 20
1.317
 30
0.0
 11
10.09
 21
1.317
 31
0.0
  0
LINE
  5
12E
330
17
100
AcDbEntity
  8
G_MEDIDO
100
AcDbLine
 10
10.09
 20
1.317
 30
0.0
 11
10.1
 21
1.317
 31
0.0
  0
LINE
  5
12F
330
17
100
AcDbEntity
  8
G_MEDIDO
100
AcDbLine
 10
10.05
 20
1.303
 30
0.0
 11
10.055999325
 21
1.303
 31
0.0
  0
LINE
  5
130
330
17
100
AcDbEntity
  8
G_MEDIDO
100
AcDbLine
 10
10.055999325
 20
1.303
 30
0.0
 11
10.1
 21
1.303
 31
0.0
  0
LINE
  5
131
330
17
100
AcDbEntity
  8
G_MEDIDO
100
AcDbLine
 10
10.1
 20
1.303
 30
0.0
 11
10.1
 21
1.31
 31
0.0
  0
LINE
  5
132
330
17
100
AcDbEntity
  8
G_MEDIDO
100
AcDbLine
 10
10.1
 20
1.31
 30
0.0
 11
10.1
 21
1.317
 31
0.0
  0
LINE
  5
133
330
17
100
AcDbEntity
  8
G_MEDIDO
100
AcDbLine
 10
10.05
 20
1.33
 30
0.0
 11
10.056
 21
1.33
 31
0.0
  0
LINE
  5
134
330
17
100
AcDbEntity
  8
G_MEDIDO
100
AcDbLine
 10
10.049999
 20
1.29
 30
0.0
 11
10.05
 21
1.29
 31
0.0
  0
LINE
  5
135
330
17
100
AcDbEntity
  8
G_MEDIDO
100
AcDbLine
 10
10.05
 20
1.29
 30
0.0
 11
10.055999
 21
1.29
 31
0.0
  0
LINE
  5
136
330
17
100
AcDbEntity
  8
G_MEDIDO
100
AcDbLine
 10
10.055999
 20
1.29
 30
0.0
 11
10.055999325
 21
1.303
 31
0.0
  0
LINE
  5
137
330
17
100
AcDbEntity
  8
G_MEDIDO
100
AcDbLine
 10
10.055999325
 20
1.303
 30
0.0
 11
10.055999675
 21
1.317
 31
0.0
  0
LINE
  5
138
330
17
100
AcDbEntity
  8
G_MEDIDO
100
AcDbLine
 10
10.055999675
 20
1.317
 30
0.0
 11
10.056
 21
1.33
 31
0.0
  0
LINE
  5
139
330
17
100
AcDbEntity
  8
G_MEDIDO
100
AcDbLine
 10
10.049999
 20
1.29
 30
0.0
 11
10.05
 21
1.33
 31
0.0
  0
LINE
  5
13A
330
17
100
AcDbEntity
  8
G_MEDIDO
100
AcDbLine
 10
10.05
 20
2.237
 30
0.0
 11
10.055999675
 21
2.237
 31
0.0
  0
LINE
  5
13B
330
17
100
AcDbEntity
  8
G_MEDIDO
100
AcDbLine
 10
10.055999675
 20
2.237
 30
0.0
 11
10.09
 21
2.237
 31
0.0
  0
LINE
  5
13C
330
17
100
AcDbEntity
  8
G_MEDIDO
100
AcDbLine
 10
10.09
 20
2.237
 30
0.0
 11
10.1
 21
2.237
 31
0.0
  0
LINE
  5
13D
330
17
100
AcDbEntity
  8
G_MEDIDO
100
AcDbLine
 10
10.05
 20
2.223
 30
0.0
 11
10.055999325
 21
2.223
 31
0.0
  0
LINE
  5
13E
330
17
100
AcDbEntity
  8
G_MEDIDO
100
AcDbLine
 10
10.055999325
 20
2.223
 30
0.0
 11
10.09
 21
2.223
 31
0.0
  0
LINE
  5
13F
330
17
100
AcDbEntity
  8
G_MEDIDO
100
AcDbLine
 10
10.09
 20
2.223
 30
0.0
 11
10.1
 21
2.223
 31
0.0
  0
LINE
  5
140
330
17
100
AcDbEntity
  8
G_MEDIDO
100
AcDbLine
 10
10.1
 20
2.223
 30
0.0
 11
10.1
 21
2.237
 31
0.0
  0
LINE
  5
141
330
17
100
AcDbEntity
  8
G_MEDIDO
100
AcDbLine
 10
10.05
 20
2.25
 30
0.0
 11
10.056
 21
2.25
 31
0.0
  0
LINE
  5
142
330
17
100
AcDbEntity
  8
G_MEDIDO
100
AcDbLine
 10
10.049999
 20
2.21
 30
0.0
 11
10.05
 21
2.21
 31
0.0
  0
LINE
  5
143
330
17
100
AcDbEntity
  8
G_MEDIDO
100
AcDbLine
 10
10.05
 20
2.21
 30
0.0
 11
10.055999
 21
2.21
 31
0.0
  0
LINE
  5
144
330
17
100
AcDbEntity
  8
G_MEDIDO
100
AcDbLine
 10
10.055999
 20
2.21
 30
0.0
 11
10.055999325
 21
2.223
 31
0.0
  0
LINE
  5
145
330
17
100
AcDbEntity
  8
G_MEDIDO
100
AcDbLine
 10
10.055999325
 20
2.223
 30
0.0
 11
10.055999675
 21
2.237
 31
0.0
  0
LINE
  5
146
330
17
100
AcDbEntity
  8
G_MEDIDO
100
AcDbLine
 10
10.055999675
 20
2.237
 30
0.0
 11
10.056
 21
2.25
 31
0.0
  0
LINE
  5
147
330
17
100
AcDbEntity
  8
G_MEDIDO
100
AcDbLine
 10
10.049999
 20
2.21
 30
0.0
 11
10.05
 21
2.25
 31
0.0
  0
LINE
  5
148
330
17
100
AcDbEntity
  8
G_MEDIDO
100
AcDbLine
 10
10.048
 20
0.19
 30
0.0
 11
10.05
 21
0.19
 31
0.0
  0
LINE
  5
149
330
17
100
AcDbEntity
  8
G_MEDIDO
100
AcDbLine
 10
10.048
 20
0.192
 30
0.0
 11
10.05
 21
0.192
 31
0.0
  0
LINE
  5
14A
330
17
100
AcDbEntity
  8
G_MEDIDO
100
AcDbLine
 10
10.048
 20
0.36
 30
0.0
 11
10.05
 21
0.36
 31
0.0
  0
LINE
  5
14B
330
17
100
AcDbEntity
  8
G_MEDIDO
100
AcDbLine
 10
10.735
 20
0.188
 30
0.0
 11
10.735
 21
0.1915
 31
0.0
  0
LINE
  5
14C
330
17
100
AcDbEntity
  8
G_MEDIDO
100
AcDbLine
 10
10.725
 20
0.188
 30
0.0
 11
10.73
 21
0.188
 31
0.0
  0
LINE
  5
14D
330
17
100
AcDbEntity
  8
G_MEDIDO
100
AcDbLine
 10
10.815
 20
0.188
 30
0.0
 11
10.815
 21
0.1915
 31
0.0
  0
LINE
  5
14E
330
17
100
AcDbEntity
  8
G_MEDIDO
100
AcDbLine
 10
10.82
 20
0.188
 30
0.0
 11
10.825
 21
0.188
 31
0.0
  0
LINE
  5
14F
330
17
100
AcDbEntity
  8
G_MEDIDO
100
AcDbLine
 10
10.82
 20
0.1725
 30
0.0
 11
10.825
 21
0.1725
 31
0.0
  0
LINE
  5
150
330
17
100
AcDbEntity
  8
G_MEDIDO
100
AcDbLine
 10
10.725
 20
0.1725
 30
0.0
 11
10.73
 21
0.1725
 31
0.0
  0
LINE
  5
151
330
17
100
AcDbEntity
  8
G_MEDIDO
100
AcDbLine
 10
10.82
 20
0.1745
 30
0.0
 11
10.835
 21
0.1745
 31
0.0
  0
LINE
  5
152
330
17
100
AcDbEntity
  8
G_MEDIDO
100
AcDbLine
 10
10.715
 20
0.1745
 30
0.0
 11
10.73
 21
0.1745
 31
0.0
  0
LINE
  5
153
330
17
100
AcDbEntity
  8
G_MEDIDO
100
AcDbLine
 10
10.82
 20
0.1785
 30
0.0
 11
10.825
 21
0.1785
 31
0.0
  0
LINE
  5
154
330
17
100
AcDbEntity
  8
G_MEDIDO
100
AcDbLine
 10
10.725
 20
0.1785
 30
0.0
 11
10.73
 21
0.1785
 31
0.0
  0
DIMENSION
  5
155
330
17
100
AcDbEntity
  8
COTAS
100
AcDbDimension
280
0
  2
*D3
  3
Standard
 10
10.2
 20
2.44
 30
0.0
 11
10.299999904632568
 21
2.44
 31
0.0
 70
32
 71
5
  1
<>
100
AcDbAlignedDimension
 13
10.2
 23
2.44
 33
0.0
 14
10.399999809265136
 24
2.44
 34
0.0
 50
0.0
100
AcDbRotatedDimension
1001
ACAD
1000
DSTYLE
1002
{
1070
140
1040
0.026
1070
41
1040
0.007
1002
}
  0
DIMENSION
  5
167
330
17
100
AcDbEntity
  8
COTAS
100
AcDbDimension
280
0
  2
*D4
  3
Standard
 10
10.8
 20
2.309999942779541
 30
0.0
 11
10.162
 21
2.315999984741211
 31
0.0
 70
32
 71
5
  1
<>
100
AcDbAlignedDimension
 13
10.8
 23
2.309999942779541
 33
0.0
 14
10.8
 24
2.322000026702881
 34
0.0
 50
90.0
100
AcDbRotatedDimension
1001
ACAD
1000
DSTYLE
1002
{
1070
140
1040
0.026
1070
41
1040
0.007
1002
}
  0
DIMENSION
  5
178
330
17
100
AcDbEntity
  8
COTAS
100
AcDbDimension
280
0
  2
*D5
  3
Standard
 10
11.09
 20
0.21
 30
0.0
 11
11.09
 21
1.2599500226974487
 31
0.0
 70
32
 71
5
  1
<>
100
AcDbAlignedDimension
 13
10.6
 23
0.21
 33
0.0
 14
10.6
 24
2.3099000453948975
 34
0.0
 50
90.0
100
AcDbRotatedDimension
1001
ACAD
1000
DSTYLE
1002
{
1070
140
1040
0.026
1070
41
1040
0.007
1002
}
  0
TEXT
  5
188
330
17
100
AcDbEntity
  8
TEXTOS
100
AcDbText
 10
10.63
 20
0.15
 30
0.0
 40
0.026
  1
Piso +0,21 G
100
AcDbText
  0
TEXT
  5
189
330
17
100
AcDbEntity
  8
TEXTOS
100
AcDbText
 10
10.6
 20
2.52
 30
0.0
 40
0.026
  1
Cara +2.31 G
100
AcDbText
  0
LINE
  5
18A
330
17
100
AcDbEntity
  8
G_MEDIDO
100
AcDbLine
 10
20.0
 20
0.15
 30
0.0
 11
20.52
 21
0.15
 31
0.0
  0
LINE
  5
18B
330
17
100
AcDbEntity
  8
G_MEDIDO
100
AcDbLine
 10
20.312
 20
0.31
 30
0.0
 11
20.52
 21
0.31
 31
0.0
  0
LINE
  5
18C
330
17
100
AcDbEntity
  8
G_MEDIDO
100
AcDbLine
 10
20.0
 20
0.31
 30
0.0
 11
20.208
 21
0.31
 31
0.0
  0
LINE
  5
18D
330
17
100
AcDbEntity
  8
G_MEDIDO
100
AcDbLine
 10
20.208
 20
0.19
 30
0.0
 11
20.208
 21
0.31
 31
0.0
  0
LINE
  5
18E
330
17
100
AcDbEntity
  8
G_MEDIDO
100
AcDbLine
 10
20.312
 20
0.30467
 30
0.0
 11
20.312
 21
0.3047746486731015
 31
0.0
  0
LINE
  5
18F
330
17
100
AcDbEntity
  8
G_MEDIDO
100
AcDbLine
 10
20.312
 20
0.3047746486731015
 30
0.0
 11
20.312
 21
0.31
 31
0.0
  0
LINE
  5
190
330
17
100
AcDbEntity
  8
G_MEDIDO
100
AcDbLine
 10
20.312
 20
0.19
 30
0.0
 11
20.312
 21
0.26466300000000004
 31
0.0
  0
LINE
  5
191
330
17
100
AcDbEntity
  8
G_MEDIDO
100
AcDbLine
 10
20.208
 20
0.19
 30
0.0
 11
20.312
 21
0.19
 31
0.0
  0
LINE
  5
192
330
17
100
AcDbEntity
  8
G_MEDIDO
100
AcDbLine
 10
20.312
 20
0.30467
 30
0.0
 11
20.508847259982147
 21
0.30102519490893576
 31
0.0
  0
LINE
  5
193
330
17
100
AcDbEntity
  8
G_MEDIDO
100
AcDbLine
 10
20.508847259982147
 20
0.30102519490893576
 30
0.0
 11
20.51037
 21
0.300997
 31
0.0
  0
LINE
  5
194
330
17
100
AcDbEntity
  8
G_MEDIDO
100
AcDbLine
 10
20.312
 20
0.26466300000000004
 30
0.0
 11
20.50963
 21
0.261003
 31
0.0
  0
LINE
  5
195
330
17
100
AcDbEntity
  8
G_MEDIDO
100
AcDbLine
 10
20.50963
 20
0.261003
 30
0.0
 11
20.510332997621894
 21
0.29899717147305216
 31
0.0
  0
LINE
  5
196
330
17
100
AcDbEntity
  8
G_MEDIDO
100
AcDbLine
 10
20.510332997621894
 20
0.29899717147305216
 30
0.0
 11
20.510369985026824
 21
0.30099619076048545
 31
0.0
  0
LINE
  5
197
330
17
100
AcDbEntity
  8
G_MEDIDO
100
AcDbLine
 10
20.510369985026824
 20
0.30099619076048545
 30
0.0
 11
20.51037
 21
0.300997
 31
0.0
  0
LINE
  5
198
330
17
100
AcDbEntity
  8
G_MEDIDO
100
AcDbLine
 10
20.31
 20
0.31
 30
0.0
 11
20.312
 21
0.31
 31
0.0
  0
LINE
  5
199
330
17
100
AcDbEntity
  8
G_MEDIDO
100
AcDbLine
 10
20.32
 20
0.325863
 30
0.0
 11
20.52
 21
0.3331127621788774
 31
0.0
  0
LINE
  5
19A
330
17
100
AcDbEntity
  8
G_MEDIDO
100
AcDbLine
 10
20.31
 20
0.31
 30
0.0
 11
20.31
 21
0.3225
 31
0.0
  0
LINE
  5
19B
330
17
100
AcDbEntity
  8
G_MEDIDO
100
AcDbLine
 10
20.31
 20
0.3225
 30
0.0
 11
20.32
 21
0.3225
 31
0.0
  0
LINE
  5
19C
330
17
100
AcDbEntity
  8
G_MEDIDO
100
AcDbLine
 10
20.32
 20
0.3225
 30
0.0
 11
20.32
 21
0.3245
 31
0.0
  0
LINE
  5
19D
330
17
100
AcDbEntity
  8
G_MEDIDO
100
AcDbLine
 10
20.32
 20
0.3245
 30
0.0
 11
20.32
 21
0.325863
 31
0.0
  0
LINE
  5
19E
330
17
100
AcDbEntity
  8
G_MEDIDO
100
AcDbLine
 10
20.208
 20
0.31
 30
0.0
 11
20.209999
 21
0.31
 31
0.0
  0
LINE
  5
19F
330
17
100
AcDbEntity
  8
G_MEDIDO
100
AcDbLine
 10
20.0
 20
0.3331122740710921
 30
0.0
 11
20.200001
 21
0.32586200000000004
 31
0.0
  0
LINE
  5
1A0
330
17
100
AcDbEntity
  8
G_MEDIDO
100
AcDbLine
 10
20.209999
 20
0.31
 30
0.0
 11
20.209999
 21
0.3225
 31
0.0
  0
LINE
  5
1A1
330
17
100
AcDbEntity
  8
G_MEDIDO
100
AcDbLine
 10
20.200001
 20
0.3225
 30
0.0
 11
20.209999
 21
0.3225
 31
0.0
  0
LINE
  5
1A2
330
17
100
AcDbEntity
  8
G_MEDIDO
100
AcDbLine
 10
20.200001
 20
0.3225
 30
0.0
 11
20.200001
 21
0.3245
 31
0.0
  0
LINE
  5
1A3
330
17
100
AcDbEntity
  8
G_MEDIDO
100
AcDbLine
 10
20.200001
 20
0.3245
 30
0.0
 11
20.200001
 21
0.32586200000000004
 31
0.0
  0
LINE
  5
1A4
330
17
100
AcDbEntity
  8
G_MEDIDO
100
AcDbLine
 10
20.32
 20
0.327863
 30
0.0
 11
20.52
 21
0.3351127621788774
 31
0.0
  0
LINE
  5
1A5
330
17
100
AcDbEntity
  8
G_MEDIDO
100
AcDbLine
 10
20.32
 20
0.325863
 30
0.0
 11
20.32
 21
0.327863
 31
0.0
  0
LINE
  5
1A6
330
17
100
AcDbEntity
  8
G_MEDIDO
100
AcDbLine
 10
20.0
 20
0.3351122740710921
 30
0.0
 11
20.200001
 21
0.32786200000000004
 31
0.0
  0
LINE
  5
1A7
330
17
100
AcDbEntity
  8
G_MEDIDO
100
AcDbLine
 10
20.200001
 20
0.32586200000000004
 30
0.0
 11
20.200001
 21
0.32786200000000004
 31
0.0
  0
LINE
  5
1A8
330
17
100
AcDbEntity
  8
G_MEDIDO
100
AcDbLine
 10
20.31
 20
0.3355
 30
0.0
 11
20.52
 21
0.3431125190312975
 31
0.0
  0
LINE
  5
1A9
330
17
100
AcDbEntity
  8
G_MEDIDO
100
AcDbLine
 10
20.31
 20
0.3285
 30
0.0
 11
20.31
 21
0.3355
 31
0.0
  0
LINE
  5
1AA
330
17
100
AcDbEntity
  8
G_MEDIDO
100
AcDbLine
 10
20.32
 20
0.327863
 30
0.0
 11
20.32
 21
0.3285
 31
0.0
  0
LINE
  5
1AB
330
17
100
AcDbEntity
  8
G_MEDIDO
100
AcDbLine
 10
20.31
 20
0.3285
 30
0.0
 11
20.32
 21
0.3285
 31
0.0
  0
LINE
  5
1AC
330
17
100
AcDbEntity
  8
G_MEDIDO
100
AcDbLine
 10
20.0
 20
0.34311248278120693
 30
0.0
 11
20.209999
 21
0.3355
 31
0.0
  0
LINE
  5
1AD
330
17
100
AcDbEntity
  8
G_MEDIDO
100
AcDbLine
 10
20.209999
 20
0.3285
 30
0.0
 11
20.209999
 21
0.3355
 31
0.0
  0
LINE
  5
1AE
330
17
100
AcDbEntity
  8
G_MEDIDO
100
AcDbLine
 10
20.200001
 20
0.3285
 30
0.0
 11
20.209999
 21
0.3285
 31
0.0
  0
LINE
  5
1AF
330
17
100
AcDbEntity
  8
G_MEDIDO
100
AcDbLine
 10
20.200001
 20
0.32786200000000004
 30
0.0
 11
20.200001
 21
0.3285
 31
0.0
  0
LINE
  5
1B0
330
17
100
AcDbEntity
  8
G_MEDIDO
100
AcDbLine
 10
20.31
 20
0.3455
 30
0.0
 11
20.52
 21
0.35311251903129753
 31
0.0
  0
LINE
  5
1B1
330
17
100
AcDbEntity
  8
G_MEDIDO
100
AcDbLine
 10
20.31
 20
0.3355
 30
0.0
 11
20.31
 21
0.338
 31
0.0
  0
LINE
  5
1B2
330
17
100
AcDbEntity
  8
G_MEDIDO
100
AcDbLine
 10
20.31
 20
0.338
 30
0.0
 11
20.31
 21
0.3415
 31
0.0
  0
LINE
  5
1B3
330
17
100
AcDbEntity
  8
G_MEDIDO
100
AcDbLine
 10
20.31
 20
0.3415
 30
0.0
 11
20.31
 21
0.3455
 31
0.0
  0
LINE
  5
1B4
330
17
100
AcDbEntity
  8
G_MEDIDO
100
AcDbLine
 10
20.0
 20
0.35311248278120694
 30
0.0
 11
20.209999
 21
0.3455
 31
0.0
  0
LINE
  5
1B5
330
17
100
AcDbEntity
  8
G_MEDIDO
100
AcDbLine
 10
20.209999
 20
0.3355
 30
0.0
 11
20.209999
 21
0.338
 31
0.0
  0
LINE
  5
1B6
330
17
100
AcDbEntity
  8
G_MEDIDO
100
AcDbLine
 10
20.209999
 20
0.338
 30
0.0
 11
20.209999
 21
0.3415
 31
0.0
  0
LINE
  5
1B7
330
17
100
AcDbEntity
  8
G_MEDIDO
100
AcDbLine
 10
20.209999
 20
0.3415
 30
0.0
 11
20.209999
 21
0.3455
 31
0.0
  0
LINE
  5
1B8
330
17
100
AcDbEntity
  8
G_MEDIDO
100
AcDbLine
 10
20.215
 20
0.205
 30
0.0
 11
20.215
 21
0.3225
 31
0.0
  0
LINE
  5
1B9
330
17
100
AcDbEntity
  8
G_MEDIDO
100
AcDbLine
 10
20.215
 20
0.3225
 30
0.0
 11
20.215
 21
0.3245
 31
0.0
  0
LINE
  5
1BA
330
17
100
AcDbEntity
  8
G_MEDIDO
100
AcDbLine
 10
20.215
 20
0.3245
 30
0.0
 11
20.215
 21
0.3285
 31
0.0
  0
LINE
  5
1BB
330
17
100
AcDbEntity
  8
G_MEDIDO
100
AcDbLine
 10
20.215
 20
0.3285
 30
0.0
 11
20.215
 21
0.334
 31
0.0
  0
LINE
  5
1BC
330
17
100
AcDbEntity
  8
G_MEDIDO
100
AcDbLine
 10
20.215
 20
0.334
 30
0.0
 11
20.215
 21
0.3375
 31
0.0
  0
LINE
  5
1BD
330
17
100
AcDbEntity
  8
G_MEDIDO
100
AcDbLine
 10
20.305
 20
0.3048
 30
0.0
 11
20.305
 21
0.30490798137151726
 31
0.0
  0
LINE
  5
1BE
330
17
100
AcDbEntity
  8
G_MEDIDO
100
AcDbLine
 10
20.305
 20
0.30490798137151726
 30
0.0
 11
20.305
 21
0.3225
 31
0.0
  0
LINE
  5
1BF
330
17
100
AcDbEntity
  8
G_MEDIDO
100
AcDbLine
 10
20.305
 20
0.3225
 30
0.0
 11
20.305
 21
0.3245
 31
0.0
  0
LINE
  5
1C0
330
17
100
AcDbEntity
  8
G_MEDIDO
100
AcDbLine
 10
20.305
 20
0.3245
 30
0.0
 11
20.305
 21
0.3285
 31
0.0
  0
LINE
  5
1C1
330
17
100
AcDbEntity
  8
G_MEDIDO
100
AcDbLine
 10
20.305
 20
0.3285
 30
0.0
 11
20.305
 21
0.334
 31
0.0
  0
LINE
  5
1C2
330
17
100
AcDbEntity
  8
G_MEDIDO
100
AcDbLine
 10
20.305
 20
0.334
 30
0.0
 11
20.305
 21
0.3375
 31
0.0
  0
LINE
  5
1C3
330
17
100
AcDbEntity
  8
G_MEDIDO
100
AcDbLine
 10
20.305
 20
0.205
 30
0.0
 11
20.305
 21
0.264793
 31
0.0
  0
LINE
  5
1C4
330
17
100
AcDbEntity
  8
G_MEDIDO
100
AcDbLine
 10
20.215
 20
0.3375
 30
0.0
 11
20.219999
 21
0.3375
 31
0.0
  0
LINE
  5
1C5
330
17
100
AcDbEntity
  8
G_MEDIDO
100
AcDbLine
 10
20.300001
 20
0.3375
 30
0.0
 11
20.305
 21
0.3375
 31
0.0
  0
LINE
  5
1C6
330
17
100
AcDbEntity
  8
G_MEDIDO
100
AcDbLine
 10
20.215
 20
0.205
 30
0.0
 11
20.219999
 21
0.205
 31
0.0
  0
LINE
  5
1C7
330
17
100
AcDbEntity
  8
G_MEDIDO
100
AcDbLine
 10
20.300001
 20
0.205
 30
0.0
 11
20.305
 21
0.205
 31
0.0
  0
LINE
  5
1C8
330
17
100
AcDbEntity
  8
G_MEDIDO
100
AcDbLine
 10
20.219999
 20
0.205
 30
0.0
 11
20.219999
 21
0.334
 31
0.0
  0
LINE
  5
1C9
330
17
100
AcDbEntity
  8
G_MEDIDO
100
AcDbLine
 10
20.219999
 20
0.334
 30
0.0
 11
20.219999
 21
0.3375
 31
0.0
  0
LINE
  5
1CA
330
17
100
AcDbEntity
  8
G_MEDIDO
100
AcDbLine
 10
20.300001
 20
0.304892
 30
0.0
 11
20.300001
 21
0.334
 31
0.0
  0
LINE
  5
1CB
330
17
100
AcDbEntity
  8
G_MEDIDO
100
AcDbLine
 10
20.300001
 20
0.334
 30
0.0
 11
20.300001
 21
0.3375
 31
0.0
  0
LINE
  5
1CC
330
17
100
AcDbEntity
  8
G_MEDIDO
100
AcDbLine
 10
20.300001
 20
0.205
 30
0.0
 11
20.300001
 21
0.264885
 31
0.0
  0
LINE
  5
1CD
330
17
100
AcDbEntity
  8
G_MEDIDO
100
AcDbLine
 10
20.300001
 20
0.304892
 30
0.0
 11
20.300376891507796
 21
0.3048850822126991
 31
0.0
  0
LINE
  5
1CE
330
17
100
AcDbEntity
  8
G_MEDIDO
100
AcDbLine
 10
20.300376891507796
 20
0.3048850822126991
 30
0.0
 11
20.305
 21
0.3048
 31
0.0
  0
LINE
  5
1CF
330
17
100
AcDbEntity
  8
G_MEDIDO
100
AcDbLine
 10
20.300001
 20
0.264885
 30
0.0
 11
20.305
 21
0.264793
 31
0.0
  0
LINE
  5
1D0
330
17
100
AcDbEntity
  8
G_MEDIDO
100
AcDbLine
 10
20.215
 20
0.195
 30
0.0
 11
20.215
 21
0.205
 31
0.0
  0
LINE
  5
1D1
330
17
100
AcDbEntity
  8
G_MEDIDO
100
AcDbLine
 10
20.305
 20
0.195
 30
0.0
 11
20.305
 21
0.205
 31
0.0
  0
LINE
  5
1D2
330
17
100
AcDbEntity
  8
G_MEDIDO
100
AcDbLine
 10
20.219999
 20
0.205
 30
0.0
 11
20.300001
 21
0.205
 31
0.0
  0
LINE
  5
1D3
330
17
100
AcDbEntity
  8
G_MEDIDO
100
AcDbLine
 10
20.215
 20
0.195
 30
0.0
 11
20.305
 21
0.195
 31
0.0
  0
LINE
  5
1D4
330
17
100
AcDbEntity
  8
G_MEDIDO
100
AcDbLine
 10
20.24
 20
0.217
 30
0.0
 11
20.24
 21
0.334
 31
0.0
  0
LINE
  5
1D5
330
17
100
AcDbEntity
  8
G_MEDIDO
100
AcDbLine
 10
20.24
 20
0.334
 30
0.0
 11
20.24
 21
0.338
 31
0.0
  0
LINE
  5
1D6
330
17
100
AcDbEntity
  8
G_MEDIDO
100
AcDbLine
 10
20.280001
 20
0.217
 30
0.0
 11
20.280001
 21
0.334
 31
0.0
  0
LINE
  5
1D7
330
17
100
AcDbEntity
  8
G_MEDIDO
100
AcDbLine
 10
20.280001
 20
0.334
 30
0.0
 11
20.280001
 21
0.338
 31
0.0
  0
LINE
  5
1D8
330
17
100
AcDbEntity
  8
G_MEDIDO
100
AcDbLine
 10
20.24
 20
0.338
 30
0.0
 11
20.244
 21
0.338
 31
0.0
  0
LINE
  5
1D9
330
17
100
AcDbEntity
  8
G_MEDIDO
100
AcDbLine
 10
20.276001
 20
0.338
 30
0.0
 11
20.280001
 21
0.338
 31
0.0
  0
LINE
  5
1DA
330
17
100
AcDbEntity
  8
G_MEDIDO
100
AcDbLine
 10
20.276001
 20
0.217
 30
0.0
 11
20.280001
 21
0.217
 31
0.0
  0
LINE
  5
1DB
330
17
100
AcDbEntity
  8
G_MEDIDO
100
AcDbLine
 10
20.24
 20
0.217
 30
0.0
 11
20.244
 21
0.217
 31
0.0
  0
LINE
  5
1DC
330
17
100
AcDbEntity
  8
G_MEDIDO
100
AcDbLine
 10
20.244
 20
0.217
 30
0.0
 11
20.244
 21
0.338
 31
0.0
  0
LINE
  5
1DD
330
17
100
AcDbEntity
  8
G_MEDIDO
100
AcDbLine
 10
20.276001
 20
0.217
 30
0.0
 11
20.276001
 21
0.338
 31
0.0
  0
LINE
  5
1DE
330
17
100
AcDbEntity
  8
G_MEDIDO
100
AcDbLine
 10
20.215
 20
0.3375
 30
0.0
 11
20.215
 21
0.338
 31
0.0
  0
LINE
  5
1DF
330
17
100
AcDbEntity
  8
G_MEDIDO
100
AcDbLine
 10
20.305
 20
0.3375
 30
0.0
 11
20.305
 21
0.338
 31
0.0
  0
LINE
  5
1E0
330
17
100
AcDbEntity
  8
G_MEDIDO
100
AcDbLine
 10
20.280001
 20
0.338
 30
0.0
 11
20.299999
 21
0.338
 31
0.0
  0
LINE
  5
1E1
330
17
100
AcDbEntity
  8
G_MEDIDO
100
AcDbLine
 10
20.299999
 20
0.338
 30
0.0
 11
20.305
 21
0.338
 31
0.0
  0
LINE
  5
1E2
330
17
100
AcDbEntity
  8
G_MEDIDO
100
AcDbLine
 10
20.215
 20
0.338
 30
0.0
 11
20.219999
 21
0.338
 31
0.0
  0
LINE
  5
1E3
330
17
100
AcDbEntity
  8
G_MEDIDO
100
AcDbLine
 10
20.219999
 20
0.338
 30
0.0
 11
20.24
 21
0.338
 31
0.0
  0
LINE
  5
1E4
330
17
100
AcDbEntity
  8
G_MEDIDO
100
AcDbLine
 10
20.215
 20
0.334
 30
0.0
 11
20.219999
 21
0.334
 31
0.0
  0
LINE
  5
1E5
330
17
100
AcDbEntity
  8
G_MEDIDO
100
AcDbLine
 10
20.219999
 20
0.334
 30
0.0
 11
20.24
 21
0.334
 31
0.0
  0
LINE
  5
1E6
330
17
100
AcDbEntity
  8
G_MEDIDO
100
AcDbLine
 10
20.280001
 20
0.334
 30
0.0
 11
20.300001
 21
0.334
 31
0.0
  0
LINE
  5
1E7
330
17
100
AcDbEntity
  8
G_MEDIDO
100
AcDbLine
 10
20.300001
 20
0.334
 30
0.0
 11
20.305
 21
0.334
 31
0.0
  0
LINE
  5
1E8
330
17
100
AcDbEntity
  8
G_MEDIDO
100
AcDbLine
 10
20.300379
 20
0.304996
 30
0.0
 11
20.305
 21
0.30490798137151726
 31
0.0
  0
LINE
  5
1E9
330
17
100
AcDbEntity
  8
G_MEDIDO
100
AcDbLine
 10
20.305
 20
0.30490798137151726
 30
0.0
 11
20.312
 21
0.3047746486731015
 31
0.0
  0
LINE
  5
1EA
330
17
100
AcDbEntity
  8
G_MEDIDO
100
AcDbLine
 10
20.312
 20
0.3047746486731015
 30
0.0
 11
20.508847259982147
 21
0.30102519490893576
 31
0.0
  0
LINE
  5
1EB
330
17
100
AcDbEntity
  8
G_MEDIDO
100
AcDbLine
 10
20.508847259982147
 20
0.30102519490893576
 30
0.0
 11
20.510369985026824
 21
0.30099619076048545
 31
0.0
  0
LINE
  5
1EC
330
17
100
AcDbEntity
  8
G_MEDIDO
100
AcDbLine
 10
20.510369985026824
 20
0.30099619076048545
 30
0.0
 11
20.51038
 21
0.300996
 31
0.0
  0
LINE
  5
1ED
330
17
100
AcDbEntity
  8
G_MEDIDO
100
AcDbLine
 10
20.299618
 20
0.265004
 30
0.0
 11
20.509619
 21
0.261004
 31
0.0
  0
LINE
  5
1EE
330
17
100
AcDbEntity
  8
G_MEDIDO
100
AcDbLine
 10
20.510342
 20
0.298997
 30
0.0
 11
20.51038
 21
0.300996
 31
0.0
  0
LINE
  5
1EF
330
17
100
AcDbEntity
  8
G_MEDIDO
100
AcDbLine
 10
20.509619
 20
0.261004
 30
0.0
 11
20.509657
 21
0.263003
 31
0.0
  0
LINE
  5
1F0
330
17
100
AcDbEntity
  8
G_MEDIDO
100
AcDbLine
 10
20.299618
 20
0.265004
 30
0.0
 11
20.299656
 21
0.267003
 31
0.0
  0
LINE
  5
1F1
330
17
100
AcDbEntity
  8
G_MEDIDO
100
AcDbLine
 10
20.300341
 20
0.302997
 30
0.0
 11
20.300376891507796
 21
0.3048850822126991
 31
0.0
  0
LINE
  5
1F2
330
17
100
AcDbEntity
  8
G_MEDIDO
100
AcDbLine
 10
20.300376891507796
 20
0.3048850822126991
 30
0.0
 11
20.300379
 21
0.304996
 31
0.0
  0
LINE
  5
1F3
330
17
100
AcDbEntity
  8
G_MEDIDO
100
AcDbLine
 10
20.300341
 20
0.302997
 30
0.0
 11
20.510332997621894
 21
0.29899717147305216
 31
0.0
  0
LINE
  5
1F4
330
17
100
AcDbEntity
  8
G_MEDIDO
100
AcDbLine
 10
20.510332997621894
 20
0.29899717147305216
 30
0.0
 11
20.510342
 21
0.298997
 31
0.0
  0
LINE
  5
1F5
330
17
100
AcDbEntity
  8
G_MEDIDO
100
AcDbLine
 10
20.299656
 20
0.267003
 30
0.0
 11
20.509657
 21
0.263003
 31
0.0
  0
LINE
  5
1F6
330
17
100
AcDbEntity
  8
G_MEDIDO
100
AcDbLine
 10
20.209999
 20
0.3415
 30
0.0
 11
20.214001
 21
0.3415
 31
0.0
  0
LINE
  5
1F7
330
17
100
AcDbEntity
  8
G_MEDIDO
100
AcDbLine
 10
20.214001
 20
0.3415
 30
0.0
 11
20.214001
 21
0.3455
 31
0.0
  0
LINE
  5
1F8
330
17
100
AcDbEntity
  8
G_MEDIDO
100
AcDbLine
 10
20.209999
 20
0.3455
 30
0.0
 11
20.214001
 21
0.3455
 31
0.0
  0
LINE
  5
1F9
330
17
100
AcDbEntity
  8
G_MEDIDO
100
AcDbLine
 10
20.306
 20
0.3415
 30
0.0
 11
20.31
 21
0.3415
 31
0.0
  0
LINE
  5
1FA
330
17
100
AcDbEntity
  8
G_MEDIDO
100
AcDbLine
 10
20.306
 20
0.3455
 30
0.0
 11
20.31
 21
0.3455
 31
0.0
  0
LINE
  5
1FB
330
17
100
AcDbEntity
  8
G_MEDIDO
100
AcDbLine
 10
20.306
 20
0.3415
 30
0.0
 11
20.306
 21
0.3455
 31
0.0
  0
LINE
  5
1FC
330
17
100
AcDbEntity
  8
G_MEDIDO
100
AcDbLine
 10
20.2185
 20
0.3415
 30
0.0
 11
20.219999
 21
0.3415
 31
0.0
  0
LINE
  5
1FD
330
17
100
AcDbEntity
  8
G_MEDIDO
100
AcDbLine
 10
20.219999
 20
0.3415
 30
0.0
 11
20.223499
 21
0.3415
 31
0.0
  0
LINE
  5
1FE
330
17
100
AcDbEntity
  8
G_MEDIDO
100
AcDbLine
 10
20.223499
 20
0.3415
 30
0.0
 11
20.223499
 21
0.3455
 31
0.0
  0
LINE
  5
1FF
330
17
100
AcDbEntity
  8
G_MEDIDO
100
AcDbLine
 10
20.2185
 20
0.3455
 30
0.0
 11
20.223499
 21
0.3455
 31
0.0
  0
LINE
  5
200
330
17
100
AcDbEntity
  8
G_MEDIDO
100
AcDbLine
 10
20.2185
 20
0.3415
 30
0.0
 11
20.2185
 21
0.3455
 31
0.0
  0
LINE
  5
201
330
17
100
AcDbEntity
  8
G_MEDIDO
100
AcDbLine
 10
20.231501
 20
0.3415
 30
0.0
 11
20.2365
 21
0.3415
 31
0.0
  0
LINE
  5
202
330
17
100
AcDbEntity
  8
G_MEDIDO
100
AcDbLine
 10
20.2365
 20
0.3415
 30
0.0
 11
20.2365
 21
0.3455
 31
0.0
  0
LINE
  5
203
330
17
100
AcDbEntity
  8
G_MEDIDO
100
AcDbLine
 10
20.231501
 20
0.3455
 30
0.0
 11
20.2365
 21
0.3455
 31
0.0
  0
LINE
  5
204
330
17
100
AcDbEntity
  8
G_MEDIDO
100
AcDbLine
 10
20.231501
 20
0.3415
 30
0.0
 11
20.231501
 21
0.3455
 31
0.0
  0
LINE
  5
205
330
17
100
AcDbEntity
  8
G_MEDIDO
100
AcDbLine
 10
20.244499
 20
0.3415
 30
0.0
 11
20.2495
 21
0.3415
 31
0.0
  0
LINE
  5
206
330
17
100
AcDbEntity
  8
G_MEDIDO
100
AcDbLine
 10
20.2495
 20
0.3415
 30
0.0
 11
20.2495
 21
0.3455
 31
0.0
  0
LINE
  5
207
330
17
100
AcDbEntity
  8
G_MEDIDO
100
AcDbLine
 10
20.244499
 20
0.3455
 30
0.0
 11
20.2495
 21
0.3455
 31
0.0
  0
LINE
  5
208
330
17
100
AcDbEntity
  8
G_MEDIDO
100
AcDbLine
 10
20.244499
 20
0.3415
 30
0.0
 11
20.244499
 21
0.3455
 31
0.0
  0
LINE
  5
209
330
17
100
AcDbEntity
  8
G_MEDIDO
100
AcDbLine
 10
20.2575
 20
0.3415
 30
0.0
 11
20.262501
 21
0.3415
 31
0.0
  0
LINE
  5
20A
330
17
100
AcDbEntity
  8
G_MEDIDO
100
AcDbLine
 10
20.262501
 20
0.3415
 30
0.0
 11
20.262501
 21
0.3455
 31
0.0
  0
LINE
  5
20B
330
17
100
AcDbEntity
  8
G_MEDIDO
100
AcDbLine
 10
20.2575
 20
0.3455
 30
0.0
 11
20.262501
 21
0.3455
 31
0.0
  0
LINE
  5
20C
330
17
100
AcDbEntity
  8
G_MEDIDO
100
AcDbLine
 10
20.2575
 20
0.3415
 30
0.0
 11
20.2575
 21
0.3455
 31
0.0
  0
LINE
  5
20D
330
17
100
AcDbEntity
  8
G_MEDIDO
100
AcDbLine
 10
20.2705
 20
0.3415
 30
0.0
 11
20.275499
 21
0.3415
 31
0.0
  0
LINE
  5
20E
330
17
100
AcDbEntity
  8
G_MEDIDO
100
AcDbLine
 10
20.275499
 20
0.3415
 30
0.0
 11
20.275499
 21
0.3455
 31
0.0
  0
LINE
  5
20F
330
17
100
AcDbEntity
  8
G_MEDIDO
100
AcDbLine
 10
20.2705
 20
0.3455
 30
0.0
 11
20.275499
 21
0.3455
 31
0.0
  0
LINE
  5
210
330
17
100
AcDbEntity
  8
G_MEDIDO
100
AcDbLine
 10
20.2705
 20
0.3415
 30
0.0
 11
20.2705
 21
0.3455
 31
0.0
  0
LINE
  5
211
330
17
100
AcDbEntity
  8
G_MEDIDO
100
AcDbLine
 10
20.283501
 20
0.3415
 30
0.0
 11
20.2885
 21
0.3415
 31
0.0
  0
LINE
  5
212
330
17
100
AcDbEntity
  8
G_MEDIDO
100
AcDbLine
 10
20.2885
 20
0.3415
 30
0.0
 11
20.2885
 21
0.3455
 31
0.0
  0
LINE
  5
213
330
17
100
AcDbEntity
  8
G_MEDIDO
100
AcDbLine
 10
20.283501
 20
0.3455
 30
0.0
 11
20.2885
 21
0.3455
 31
0.0
  0
LINE
  5
214
330
17
100
AcDbEntity
  8
G_MEDIDO
100
AcDbLine
 10
20.283501
 20
0.3415
 30
0.0
 11
20.283501
 21
0.3455
 31
0.0
  0
LINE
  5
215
330
17
100
AcDbEntity
  8
G_MEDIDO
100
AcDbLine
 10
20.296499
 20
0.3415
 30
0.0
 11
20.299999
 21
0.3415
 31
0.0
  0
LINE
  5
216
330
17
100
AcDbEntity
  8
G_MEDIDO
100
AcDbLine
 10
20.299999
 20
0.3415
 30
0.0
 11
20.3015
 21
0.3415
 31
0.0
  0
LINE
  5
217
330
17
100
AcDbEntity
  8
G_MEDIDO
100
AcDbLine
 10
20.3015
 20
0.3415
 30
0.0
 11
20.3015
 21
0.3455
 31
0.0
  0
LINE
  5
218
330
17
100
AcDbEntity
  8
G_MEDIDO
100
AcDbLine
 10
20.296499
 20
0.3455
 30
0.0
 11
20.3015
 21
0.3455
 31
0.0
  0
LINE
  5
219
330
17
100
AcDbEntity
  8
G_MEDIDO
100
AcDbLine
 10
20.296499
 20
0.3415
 30
0.0
 11
20.296499
 21
0.3455
 31
0.0
  0
LINE
  5
21A
330
17
100
AcDbEntity
  8
G_MEDIDO
100
AcDbLine
 10
20.209999
 20
0.338
 30
0.0
 11
20.215
 21
0.338
 31
0.0
  0
LINE
  5
21B
330
17
100
AcDbEntity
  8
G_MEDIDO
100
AcDbLine
 10
20.219999
 20
0.338
 30
0.0
 11
20.219999
 21
0.3415
 31
0.0
  0
LINE
  5
21C
330
17
100
AcDbEntity
  8
G_MEDIDO
100
AcDbLine
 10
20.214001
 20
0.3415
 30
0.0
 11
20.2185
 21
0.3415
 31
0.0
  0
LINE
  5
21D
330
17
100
AcDbEntity
  8
G_MEDIDO
100
AcDbLine
 10
20.305
 20
0.338
 30
0.0
 11
20.31
 21
0.338
 31
0.0
  0
LINE
  5
21E
330
17
100
AcDbEntity
  8
G_MEDIDO
100
AcDbLine
 10
20.3015
 20
0.3415
 30
0.0
 11
20.306
 21
0.3415
 31
0.0
  0
LINE
  5
21F
330
17
100
AcDbEntity
  8
G_MEDIDO
100
AcDbLine
 10
20.299999
 20
0.338
 30
0.0
 11
20.299999
 21
0.3415
 31
0.0
  0
LINE
  5
220
330
17
100
AcDbEntity
  8
G_MEDIDO
100
AcDbLine
 10
20.209999
 20
0.3225
 30
0.0
 11
20.215
 21
0.3225
 31
0.0
  0
LINE
  5
221
330
17
100
AcDbEntity
  8
G_MEDIDO
100
AcDbLine
 10
20.305
 20
0.3225
 30
0.0
 11
20.31
 21
0.3225
 31
0.0
  0
LINE
  5
222
330
17
100
AcDbEntity
  8
G_MEDIDO
100
AcDbLine
 10
20.200001
 20
0.3245
 30
0.0
 11
20.215
 21
0.3245
 31
0.0
  0
LINE
  5
223
330
17
100
AcDbEntity
  8
G_MEDIDO
100
AcDbLine
 10
20.305
 20
0.3245
 30
0.0
 11
20.32
 21
0.3245
 31
0.0
  0
LINE
  5
224
330
17
100
AcDbEntity
  8
G_MEDIDO
100
AcDbLine
 10
20.209999
 20
0.3285
 30
0.0
 11
20.215
 21
0.3285
 31
0.0
  0
LINE
  5
225
330
17
100
AcDbEntity
  8
G_MEDIDO
100
AcDbLine
 10
20.305
 20
0.3285
 30
0.0
 11
20.31
 21
0.3285
 31
0.0
  0
DIMENSION
  5
226
330
17
100
AcDbEntity
  8
COTAS
100
AcDbDimension
280
0
  2
*D6
  3
Standard
 10
20.47
 20
0.217
 30
0.0
 11
20.47
 21
0.242
 31
0.0
 70
32
 71
5
  1
<>
100
AcDbAlignedDimension
 13
20.47
 23
0.217
 33
0.0
 14
20.47
 24
0.267
 34
0.0
 50
90.0
100
AcDbRotatedDimension
1001
ACAD
1000
DSTYLE
1002
{
1070
140
1040
0.0052
1070
41
1040
0.007
1002
}
  0
DIMENSION
  5
238
330
17
100
AcDbEntity
  8
COTAS
100
AcDbDimension
280
0
  2
*D7
  3
Standard
 10
20.21
 20
0.475
 30
0.0
 11
20.259999999999998
 21
0.475
 31
0.0
 70
32
 71
5
  1
<>
100
AcDbAlignedDimension
 13
20.21
 23
0.475
 33
0.0
 14
20.31
 24
0.475
 34
0.0
 50
0.0
100
AcDbRotatedDimension
1001
ACAD
1000
DSTYLE
1002
{
1070
140
1040
0.0052
1070
41
1040
0.007
1002
}
  0
DIMENSION
  5
24A
330
17
100
AcDbEntity
  8
COTAS
100
AcDbDimension
280
0
  2
*D8
  3
Standard
 10
20.04
 20
0.31
 30
0.0
 11
20.04
 21
0.33499999999999996
 31
0.0
 70
32
 71
5
  1
<>
100
AcDbAlignedDimension
 13
20.04
 23
0.31
 33
0.0
 14
20.04
 24
0.36
 34
0.0
 50
90.0
100
AcDbRotatedDimension
1001
ACAD
1000
DSTYLE
1002
{
1070
140
1040
0.0052
1070
41
1040
0.007
1002
}
  0
ENDSEC
  0
SECTION
  2
OBJECTS
  0
DICTIONARY
  5
A
330
0
100
AcDbDictionary
281
1
  3
ACAD_COLOR
350
B
  3
ACAD_GROUP
350
C
  3
ACAD_LAYOUT
350
D
  3
ACAD_MATERIAL
350
E
  3
ACAD_MLEADERSTYLE
350
F
  3
ACAD_MLINESTYLE
350
10
  3
ACAD_PLOTSETTINGS
350
11
  3
ACAD_PLOTSTYLENAME
350
12
  3
ACAD_SCALELIST
350
14
  3
ACAD_TABLESTYLE
350
15
  3
ACAD_VISUALSTYLE
350
16
  3
EZDXF_META
350
2D
  0
DICTIONARY
  5
B
330
A
100
AcDbDictionary
281
1
  0
DICTIONARY
  5
C
330
A
100
AcDbDictionary
281
1
  0
DICTIONARY
  5
D
330
A
100
AcDbDictionary
281
1
  3
Model
350
1A
  3
Layout1
350
1E
  0
DICTIONARY
  5
E
330
A
100
AcDbDictionary
281
1
  3
ByBlock
350
1F
  3
ByLayer
350
20
  3
Global
350
21
  0
DICTIONARY
  5
F
330
A
100
AcDbDictionary
281
1
  3
Standard
350
2C
  0
DICTIONARY
  5
10
330
A
100
AcDbDictionary
281
1
  3
Standard
350
22
  0
DICTIONARY
  5
11
330
A
100
AcDbDictionary
281
1
  0
ACDBDICTIONARYWDFLT
  5
12
330
A
100
AcDbDictionary
281
1
  3
Normal
350
13
100
AcDbDictionaryWithDefault
340
13
  0
ACDBPLACEHOLDER
  5
13
330
12
  0
DICTIONARY
  5
14
330
A
100
AcDbDictionary
281
1
  0
DICTIONARY
  5
15
330
A
100
AcDbDictionary
281
1
  0
DICTIONARY
  5
16
330
A
100
AcDbDictionary
281
1
  0
LAYOUT
  5
1A
330
D
100
AcDbPlotSettings
  1

  4
A3
  6

 40
7.5
 41
20.0
 42
7.5
 43
20.0
 44
420.0
 45
297.0
 46
0.0
 47
0.0
 48
0.0
 49
0.0
140
0.0
141
0.0
142
1.0
143
1.0
 70
1024
 72
1
 73
0
 74
5
  7

 75
16
 76
0
 77
2
 78
300
147
1.0
148
0.0
149
0.0
100
AcDbLayout
  1
Model
 70
1
 71
0
 10
0.0
 20
0.0
 11
420.0
 21
297.0
 12
0.0
 22
0.0
 32
0.0
 14
1e+20
 24
1e+20
 34
1e+20
 15
-1e+20
 25
-1e+20
 35
-1e+20
146
0.0
 13
0.0
 23
0.0
 33
0.0
 16
1.0
 26
0.0
 36
0.0
 17
0.0
 27
1.0
 37
0.0
 76
1
330
17
  0
LAYOUT
  5
1E
330
D
100
AcDbPlotSettings
  1

  4
A3
  6

 40
7.5
 41
20.0
 42
7.5
 43
20.0
 44
420.0
 45
297.0
 46
0.0
 47
0.0
 48
0.0
 49
0.0
140
0.0
141
0.0
142
1.0
143
1.0
 70
0
 72
1
 73
0
 74
5
  7

 75
16
 76
0
 77
2
 78
300
147
1.0
148
0.0
149
0.0
100
AcDbLayout
  1
Layout1
 70
1
 71
1
 10
0.0
 20
0.0
 11
420.0
 21
297.0
 12
0.0
 22
0.0
 32
0.0
 14
1e+20
 24
1e+20
 34
1e+20
 15
-1e+20
 25
-1e+20
 35
-1e+20
146
0.0
 13
0.0
 23
0.0
 33
0.0
 16
1.0
 26
0.0
 36
0.0
 17
0.0
 27
1.0
 37
0.0
 76
1
330
1B
  0
MATERIAL
  5
1F
102
{ACAD_REACTORS
330
E
102
}
330
E
100
AcDbMaterial
  1
ByBlock
  2

 70
0
 40
1.0
 71
1
 41
1.0
 91
-1023410177
 42
1.0
 72
1
  3

 73
1
 74
1
 75
1
 44
0.5
 73
0
 45
1.0
 46
1.0
 77
1
  4

 78
1
 79
1
170
1
 48
1.0
171
1
  6

172
1
173
1
174
1
140
1.0
141
1.0
175
1
  7

176
1
177
1
178
1
143
1.0
179
1
  8

270
1
271
1
272
1
145
1.0
146
1.0
273
1
  9

274
1
275
1
276
1
 42
1.0
 72
1
  3

 73
1
 74
1
 75
1
 94
63
  0
MATERIAL
  5
20
102
{ACAD_REACTORS
330
E
102
}
330
E
100
AcDbMaterial
  1
ByLayer
  2

 70
0
 40
1.0
 71
1
 41
1.0
 91
-1023410177
 42
1.0
 72
1
  3

 73
1
 74
1
 75
1
 44
0.5
 73
0
 45
1.0
 46
1.0
 77
1
  4

 78
1
 79
1
170
1
 48
1.0
171
1
  6

172
1
173
1
174
1
140
1.0
141
1.0
175
1
  7

176
1
177
1
178
1
143
1.0
179
1
  8

270
1
271
1
272
1
145
1.0
146
1.0
273
1
  9

274
1
275
1
276
1
 42
1.0
 72
1
  3

 73
1
 74
1
 75
1
 94
63
  0
MATERIAL
  5
21
102
{ACAD_REACTORS
330
E
102
}
330
E
100
AcDbMaterial
  1
Global
  2

 70
0
 40
1.0
 71
1
 41
1.0
 91
-1023410177
 42
1.0
 72
1
  3

 73
1
 74
1
 75
1
 44
0.5
 73
0
 45
1.0
 46
1.0
 77
1
  4

 78
1
 79
1
170
1
 48
1.0
171
1
  6

172
1
173
1
174
1
140
1.0
141
1.0
175
1
  7

176
1
177
1
178
1
143
1.0
179
1
  8

270
1
271
1
272
1
145
1.0
146
1.0
273
1
  9

274
1
275
1
276
1
 42
1.0
 72
1
  3

 73
1
 74
1
 75
1
 94
63
  0
MLINESTYLE
  5
22
102
{ACAD_REACTORS
330
10
102
}
330
10
100
AcDbMlineStyle
  2
Standard
 70
0
  3

 62
256
 51
90.0
 52
90.0
 71
2
 49
0.5
 62
256
  6
BYLAYER
 49
-0.5
 62
256
  6
BYLAYER
  0
MLEADERSTYLE
  5
2C
102
{ACAD_REACTORS
330
F
102
}
330
F
100
AcDbMLeaderStyle
179
2
170
2
171
1
172
0
 90
2
 40
0.0
 41
0.0
173
1
 91
-1056964608
 92
-2
290
1
 42
2.0
291
1
 43
8.0
  3
Standard
 44
4.0
300

342
29
174
1
175
1
176
0
178
1
 93
-1056964608
 45
4.0
292
0
297
0
 46
4.0
 94
-1056964608
 47
1.0
 49
1.0
140
1.0
294
1
141
0.0
177
0
142
1.0
295
0
296
0
143
3.75
271
0
272
9
273
9
  0
DICTIONARY
  5
2D
330
A
100
AcDbDictionary
280
1
281
1
  3
CREATED_BY_EZDXF
350
2E
  3
WRITTEN_BY_EZDXF
350
25E
  0
DICTIONARYVAR
  5
2E
330
2D
100
DictionaryVariables
280
0
  1
1.4.4 @ 2026-09-10T22:46:17.523621+00:00
  0
DICTIONARYVAR
  5
25E
330
2D
100
DictionaryVariables
280
0
  1
1.4.4 @ 2026-09-10T22:46:17.694996+00:00
  0
ENDSEC
  0
EOF
