  0
SECTION
  2
HEADER
  9
$ACADVER
  1
AC1024
  9
$ACADMAINTVER
 70
6
  9
$DWGCODEPAGE
  3
ANSI_1252
  9
$LASTSAVEDBY
  1
ezdxf
  9
$INSBASE
 10
0.0
 20
0.0
 30
0.0
  9
$EXTMIN
 10
1e+20
 20
1e+20
 30
1e+20
  9
$EXTMAX
 10
-1e+20
 20
-1e+20
 30
-1e+20
  9
$LIMMIN
 10
0.0
 20
0.0
  9
$LIMMAX
 10
420.0
 20
297.0
  9
$ORTHOMODE
 70
0
  9
$REGENMODE
 70
1
  9
$FILLMODE
 70
1
  9
$QTEXTMODE
 70
0
  9
$MIRRTEXT
 70
1
  9
$LTSCALE
 40
1.0
  9
$ATTMODE
 70
1
  9
$TEXTSIZE
 40
2.5
  9
$TRACEWID
 40
1.0
  9
$TEXTSTYLE
  7
Standard
  9
$CLAYER
  8
0
  9
$CELTYPE
  6
ByLayer
  9
$CECOLOR
 62
256
  9
$CELTSCALE
 40
1.0
  9
$DISPSILH
 70
0
  9
$DIMSCALE
 40
1.0
  9
$DIMASZ
 40
2.5
  9
$DIMEXO
 40
0.625
  9
$DIMDLI
 40
3.75
  9
$DIMRND
 40
0.0
  9
$DIMDLE
 40
0.0
  9
$DIMEXE
 40
1.25
  9
$DIMTP
 40
0.0
  9
$DIMTM
 40
0.0
  9
$DIMTXT
 40
2.5
  9
$DIMCEN
 40
2.5
  9
$DIMTSZ
 40
0.0
  9
$DIMTOL
 70
0
  9
$DIMLIM
 70
0
  9
$DIMTIH
 70
0
  9
$DIMTOH
 70
0
  9
$DIMSE1
 70
0
  9
$DIMSE2
 70
0
  9
$DIMTAD
 70
1
  9
$DIMZIN
 70
8
  9
$DIMBLK
  1

  9
$DIMASO
 70
1
  9
$DIMSHO
 70
1
  9
$DIMPOST
  1

  9
$DIMAPOST
  1

  9
$DIMALT
 70
0
  9
$DIMALTD
 70
3
  9
$DIMALTF
 40
0.03937007874
  9
$DIMLFAC
 40
1.0
  9
$DIMTOFL
 70
1
  9
$DIMTVP
 40
0.0
  9
$DIMTIX
 70
0
  9
$DIMSOXD
 70
0
  9
$DIMSAH
 70
0
  9
$DIMBLK1
  1

  9
$DIMBLK2
  1

  9
$DIMSTYLE
  2
ISO-25
  9
$DIMCLRD
 70
0
  9
$DIMCLRE
 70
0
  9
$DIMCLRT
 70
0
  9
$DIMTFAC
 40
1.0
  9
$DIMGAP
 40
0.625
  9
$DIMJUST
 70
0
  9
$DIMSD1
 70
0
  9
$DIMSD2
 70
0
  9
$DIMTOLJ
 70
0
  9
$DIMTZIN
 70
8
  9
$DIMALTZ
 70
0
  9
$DIMALTTZ
 70
0
  9
$DIMUPT
 70
0
  9
$DIMDEC
 70
2
  9
$DIMTDEC
 70
2
  9
$DIMALTU
 70
2
  9
$DIMALTTD
 70
3
  9
$DIMTXSTY
  7
Standard
  9
$DIMAUNIT
 70
0
  9
$DIMADEC
 70
0
  9
$DIMALTRND
 40
0.0
  9
$DIMAZIN
 70
0
  9
$DIMDSEP
 70
44
  9
$DIMATFIT
 70
3
  9
$DIMFRAC
 70
0
  9
$DIMLDRBLK
  1

  9
$DIMLUNIT
 70
2
  9
$DIMLWD
 70
-2
  9
$DIMLWE
 70
-2
  9
$DIMTMOVE
 70
0
  9
$DIMFXL
 40
1.0
  9
$DIMFXLON
 70
0
  9
$DIMJOGANG
 40
0.785398163397
  9
$DIMTFILL
 70
0
  9
$DIMTFILLCLR
 70
0
  9
$DIMARCSYM
 70
0
  9
$DIMLTYPE
  6

  9
$DIMLTEX1
  6

  9
$DIMLTEX2
  6

  9
$DIMTXTDIRECTION
 70
0
  9
$LUNITS
 70
2
  9
$LUPREC
 70
4
  9
$SKETCHINC
 40
1.0
  9
$FILLETRAD
 40
10.0
  9
$AUNITS
 70
0
  9
$AUPREC
 70
2
  9
$MENU
  1
.
  9
$ELEVATION
 40
0.0
  9
$PELEVATION
 40
0.0
  9
$THICKNESS
 40
0.0
  9
$LIMCHECK
 70
0
  9
$CHAMFERA
 40
0.0
  9
$CHAMFERB
 40
0.0
  9
$CHAMFERC
 40
0.0
  9
$CHAMFERD
 40
0.0
  9
$SKPOLY
 70
0
  9
$TDCREATE
 40
2461294.6418634257
  9
$TDUCREATE
 40
2458532.153996898
  9
$TDUPDATE
 40
2461294.6418634257
  9
$TDUUPDATE
 40
2458532.1544311
  9
$TDINDWG
 40
0.0
  9
$TDUSRTIMER
 40
0.0
  9
$USRTIMER
 70
1
  9
$ANGBASE
 50
0.0
  9
$ANGDIR
 70
0
  9
$PDMODE
 70
0
  9
$PDSIZE
 40
0.0
  9
$PLINEWID
 40
0.0
  9
$SPLFRAME
 70
0
  9
$SPLINETYPE
 70
6
  9
$SPLINESEGS
 70
8
  9
$HANDSEED
  5
11D
  9
$SURFTAB1
 70
6
  9
$SURFTAB2
 70
6
  9
$SURFTYPE
 70
6
  9
$SURFU
 70
6
  9
$SURFV
 70
6
  9
$UCSBASE
  2

  9
$UCSNAME
  2

  9
$UCSORG
 10
0.0
 20
0.0
 30
0.0
  9
$UCSXDIR
 10
1.0
 20
0.0
 30
0.0
  9
$UCSYDIR
 10
0.0
 20
1.0
 30
0.0
  9
$UCSORTHOREF
  2

  9
$UCSORTHOVIEW
 70
0
  9
$UCSORGTOP
 10
0.0
 20
0.0
 30
0.0
  9
$UCSORGBOTTOM
 10
0.0
 20
0.0
 30
0.0
  9
$UCSORGLEFT
 10
0.0
 20
0.0
 30
0.0
  9
$UCSORGRIGHT
 10
0.0
 20
0.0
 30
0.0
  9
$UCSORGFRONT
 10
0.0
 20
0.0
 30
0.0
  9
$UCSORGBACK
 10
0.0
 20
0.0
 30
0.0
  9
$PUCSBASE
  2

  9
$PUCSNAME
  2

  9
$PUCSORG
 10
0.0
 20
0.0
 30
0.0
  9
$PUCSXDIR
 10
1.0
 20
0.0
 30
0.0
  9
$PUCSYDIR
 10
0.0
 20
1.0
 30
0.0
  9
$PUCSORTHOREF
  2

  9
$PUCSORTHOVIEW
 70
0
  9
$PUCSORGTOP
 10
0.0
 20
0.0
 30
0.0
  9
$PUCSORGBOTTOM
 10
0.0
 20
0.0
 30
0.0
  9
$PUCSORGLEFT
 10
0.0
 20
0.0
 30
0.0
  9
$PUCSORGRIGHT
 10
0.0
 20
0.0
 30
0.0
  9
$PUCSORGFRONT
 10
0.0
 20
0.0
 30
0.0
  9
$PUCSORGBACK
 10
0.0
 20
0.0
 30
0.0
  9
$USERI1
 70
0
  9
$USERI2
 70
0
  9
$USERI3
 70
0
  9
$USERI4
 70
0
  9
$USERI5
 70
0
  9
$USERR1
 40
0.0
  9
$USERR2
 40
0.0
  9
$USERR3
 40
0.0
  9
$USERR4
 40
0.0
  9
$USERR5
 40
0.0
  9
$WORLDVIEW
 70
1
  9
$SHADEDGE
 70
3
  9
$SHADEDIF
 70
70
  9
$TILEMODE
 70
1
  9
$MAXACTVP
 70
64
  9
$PINSBASE
 10
0.0
 20
0.0
 30
0.0
  9
$PLIMCHECK
 70
0
  9
$PEXTMIN
 10
1e+20
 20
1e+20
 30
1e+20
  9
$PEXTMAX
 10
-1e+20
 20
-1e+20
 30
-1e+20
  9
$PLIMMIN
 10
0.0
 20
0.0
  9
$PLIMMAX
 10
420.0
 20
297.0
  9
$UNITMODE
 70
0
  9
$VISRETAIN
 70
1
  9
$PLINEGEN
 70
0
  9
$PSLTSCALE
 70
1
  9
$TREEDEPTH
 70
3020
  9
$CMLSTYLE
  2
Standard
  9
$CMLJUST
 70
0
  9
$CMLSCALE
 40
20.0
  9
$PROXYGRAPHICS
 70
1
  9
$MEASUREMENT
 70
1
  9
$CELWEIGHT
370
-1
  9
$ENDCAPS
280
0
  9
$JOINSTYLE
280
0
  9
$LWDISPLAY
290
0
  9
$INSUNITS
 70
6
  9
$HYPERLINKBASE
  1

  9
$STYLESHEET
  1

  9
$XEDIT
290
1
  9
$CEPSNTYPE
380
0
  9
$PSTYLEMODE
290
1
  9
$FINGERPRINTGUID
  2
{40B66369-5615-4EF4-B583-33AE18F8B6B9}
  9
$VERSIONGUID
  2
{305EA8A1-903B-423D-BE15-09F4FBD2DE89}
  9
$EXTNAMES
290
1
  9
$PSVPSCALE
 40
0.0
  9
$OLESTARTUP
290
0
  9
$SORTENTS
280
127
  9
$INDEXCTL
280
0
  9
$HIDETEXT
280
1
  9
$XCLIPFRAME
280
1
  9
$HALOGAP
280
0
  9
$OBSCOLOR
 70
257
  9
$OBSLTYPE
280
0
  9
$INTERSECTIONDISPLAY
280
0
  9
$INTERSECTIONCOLOR
 70
257
  9
$DIMASSOC
280
2
  9
$PROJECTNAME
  1

  9
$CAMERADISPLAY
290
0
  9
$LENSLENGTH
 40
50.0
  9
$CAMERAHEIGHT
 40
0.0
  9
$STEPSPERSEC
 40
24.0
  9
$STEPSIZE
 40
100.0
  9
$3DDWFPREC
 40
2.0
  9
$PSOLWIDTH
 40
0.005
  9
$PSOLHEIGHT
 40
0.08
  9
$LOFTANG1
 40
1.570796326795
  9
$LOFTANG2
 40
1.570796326795
  9
$LOFTMAG1
 40
0.0
  9
$LOFTMAG2
 40
0.0
  9
$LOFTPARAM
 70
7
  9
$LOFTNORMALS
280
1
  9
$LATITUDE
 40
37.795
  9
$LONGITUDE
 40
-122.394
  9
$NORTHDIRECTION
 40
0.0
  9
$TIMEZONE
 70
-8000
  9
$LIGHTGLYPHDISPLAY
280
1
  9
$TILEMODELIGHTSYNCH
280
1
  9
$CMATERIAL
347
20
  9
$SOLIDHIST
280
0
  9
$SHOWHIST
280
1
  9
$DWFFRAME
280
2
  9
$DGNFRAME
280
2
  9
$REALWORLDSCALE
290
1
  9
$INTERFERECOLOR
 62
256
  9
$CSHADOW
280
0
  9
$SHADOWPLANELOCATION
 40
0.0
  0
ENDSEC
  0
SECTION
  2
CLASSES
  0
CLASS
  1
ACDBDICTIONARYWDFLT
  2
AcDbDictionaryWithDefault
  3
ObjectDBX Classes
 90
0
 91
0
280
0
281
0
  0
CLASS
  1
SUN
  2
AcDbSun
  3
SCENEOE
 90
1153
 91
0
280
0
281
0
  0
CLASS
  1
VISUALSTYLE
  2
AcDbVisualStyle
  3
ObjectDBX Classes
 90
4095
 91
0
280
0
281
0
  0
CLASS
  1
MATERIAL
  2
AcDbMaterial
  3
ObjectDBX Classes
 90
1153
 91
0
280
0
281
0
  0
CLASS
  1
SCALE
  2
AcDbScale
  3
ObjectDBX Classes
 90
1153
 91
0
280
0
281
0
  0
CLASS
  1
TABLESTYLE
  2
AcDbTableStyle
  3
ObjectDBX Classes
 90
4095
 91
0
280
0
281
0
  0
CLASS
  1
MLEADERSTYLE
  2
AcDbMLeaderStyle
  3
ACDB_MLEADERSTYLE_CLASS
 90
4095
 91
0
280
0
281
0
  0
CLASS
  1
DICTIONARYVAR
  2
AcDbDictionaryVar
  3
ObjectDBX Classes
 90
0
 91
0
280
0
281
0
  0
CLASS
  1
CELLSTYLEMAP
  2
AcDbCellStyleMap
  3
ObjectDBX Classes
 90
1152
 91
0
280
0
281
0
  0
CLASS
  1
MENTALRAYRENDERSETTINGS
  2
AcDbMentalRayRenderSettings
  3
SCENEOE
 90
1024
 91
0
280
0
281
0
  0
CLASS
  1
ACDBDETAILVIEWSTYLE
  2
AcDbDetailViewStyle
  3
ObjectDBX Classes
 90
1025
 91
0
280
0
281
0
  0
CLASS
  1
ACDBSECTIONVIEWSTYLE
  2
AcDbSectionViewStyle
  3
ObjectDBX Classes
 90
1025
 91
0
280
0
281
0
  0
CLASS
  1
RASTERVARIABLES
  2
AcDbRasterVariables
  3
ISM
 90
0
 91
0
280
0
281
0
  0
CLASS
  1
ACDBPLACEHOLDER
  2
AcDbPlaceHolder
  3
ObjectDBX Classes
 90
0
 91
0
280
0
281
0
  0
CLASS
  1
LAYOUT
  2
AcDbLayout
  3
ObjectDBX Classes
 90
0
 91
0
280
0
281
0
  0
ENDSEC
  0
SECTION
  2
TABLES
  0
TABLE
  2
VPORT
  5
8
330
0
100
AcDbSymbolTable
 70
1
  0
VPORT
  5
23
330
8
100
AcDbSymbolTableRecord
100
AcDbViewportTableRecord
  2
*Active
 70
0
 10
0.0
 20
0.0
 11
1.0
 21
1.0
 12
0.0
 22
0.0
 13
0.0
 23
0.0
 14
0.5
 24
0.5
 15
0.5
 25
0.5
 16
0.0
 26
0.0
 36
1.0
 17
0.0
 27
0.0
 37
0.0
 40
1000.0
 41
1.34
 42
50.0
 43
0.0
 44
0.0
 50
0.0
 51
0.0
 71
0
 72
1000
 73
1
 74
3
 75
0
 76
0
 77
0
 78
0
281
0
 65
0
146
0.0
  0
ENDTAB
  0
TABLE
  2
LTYPE
  5
2
330
0
100
AcDbSymbolTable
 70
3
  0
LTYPE
  5
24
330
2
100
AcDbSymbolTableRecord
100
AcDbLinetypeTableRecord
  2
ByBlock
 70
0
  3

 72
65
 73
0
 40
0.0
  0
LTYPE
  5
25
330
2
100
AcDbSymbolTableRecord
100
AcDbLinetypeTableRecord
  2
ByLayer
 70
0
  3

 72
65
 73
0
 40
0.0
  0
LTYPE
  5
26
330
2
100
AcDbSymbolTableRecord
100
AcDbLinetypeTableRecord
  2
Continuous
 70
0
  3

 72
65
 73
0
 40
0.0
  0
ENDTAB
  0
TABLE
  2
LAYER
  5
1
330
0
100
AcDbSymbolTable
 70
8
  0
LAYER
  5
27
330
1
100
AcDbSymbolTableRecord
100
AcDbLayerTableRecord
  2
0
 70
0
 62
7
  6
Continuous
370
-3
390
13
347
21
  0
LAYER
  5
28
330
1
100
AcDbSymbolTableRecord
100
AcDbLayerTableRecord
  2
Defpoints
 70
0
 62
7
  6
Continuous
290
0
370
-3
390
13
347
21
  0
LAYER
  5
2F
330
1
100
AcDbSymbolTableRecord
100
AcDbLayerTableRecord
  2
CORTE
 70
0
 62
7
  6
Continuous
370
-3
390
13
347
21
  0
LAYER
  5
30
330
1
100
AcDbSymbolTableRecord
100
AcDbLayerTableRecord
  2
VISTA
 70
0
 62
8
  6
Continuous
370
-3
390
13
347
21
  0
LAYER
  5
31
330
1
100
AcDbSymbolTableRecord
100
AcDbLayerTableRecord
  2
COTAS
 70
0
 62
4
  6
Continuous
370
-3
390
13
347
21
  0
LAYER
  5
32
330
1
100
AcDbSymbolTableRecord
100
AcDbLayerTableRecord
  2
TEXTOS
 70
0
 62
7
  6
Continuous
370
-3
390
13
347
21
  0
LAYER
  5
33
330
1
100
AcDbSymbolTableRecord
100
AcDbLayerTableRecord
  2
EJES
 70
0
 62
3
  6
Continuous
370
-3
390
13
347
21
  0
LAYER
  5
34
330
1
100
AcDbSymbolTableRecord
100
AcDbLayerTableRecord
  2
SISTEMAS
 70
0
 62
5
  6
Continuous
370
-3
390
13
347
21
  0
ENDTAB
  0
TABLE
  2
STYLE
  5
5
330
0
100
AcDbSymbolTable
 70
1
  0
STYLE
  5
29
330
5
100
AcDbSymbolTableRecord
100
AcDbTextStyleTableRecord
  2
Standard
 70
0
 40
0.0
 41
1.0
 50
0.0
 71
0
 42
2.5
  3
txt
  4

  0
ENDTAB
  0
TABLE
  2
VIEW
  5
7
330
0
100
AcDbSymbolTable
 70
0
  0
ENDTAB
  0
TABLE
  2
UCS
  5
6
330
0
100
AcDbSymbolTable
 70
0
  0
ENDTAB
  0
TABLE
  2
APPID
  5
3
330
0
100
AcDbSymbolTable
 70
3
  0
APPID
  5
2A
330
3
100
AcDbSymbolTableRecord
100
AcDbRegAppTableRecord
  2
ACAD
 70
0
  0
APPID
  5
11A
330
3
100
AcDbSymbolTableRecord
100
AcDbRegAppTableRecord
  2
HATCHBACKGROUNDCOLOR
 70
0
  0
APPID
  5
11B
330
3
100
AcDbSymbolTableRecord
100
AcDbRegAppTableRecord
  2
EZDXF
 70
0
  0
ENDTAB
  0
TABLE
  2
DIMSTYLE
  5
4
330
0
100
AcDbSymbolTable
 70
1
100
AcDbDimStyleTable
  0
DIMSTYLE
105
2B
330
4
100
AcDbSymbolTableRecord
100
AcDbDimStyleTableRecord
  2
Standard
 70
0
 40
1.0
 41
2.5
 42
0.625
 43
3.75
 44
1.25
 45
0.0
 46
0.0
 47
0.0
 48
0.0
 49
2.5
140
2.5
141
2.5
142
0.0
143
0.03937007874
144
1.0
145
0.0
146
1.0
147
0.625
148
0.0
 69
0
 70
0
 71
0
 72
0
 73
0
 74
0
 75
0
 76
0
 77
1
 78
8
 79
3
170
0
171
3
172
1
173
0
174
0
175
0
176
0
177
0
178
0
179
2
271
2
272
2
273
2
274
3
275
0
276
0
277
2
278
44
279
0
280
0
281
0
282
0
283
0
284
8
285
0
286
0
288
0
289
3
290
0
371
-2
372
-2
  0
ENDTAB
  0
TABLE
  2
BLOCK_RECORD
  5
9
330
0
100
AcDbSymbolTable
 70
15
  0
BLOCK_RECORD
  5
17
330
9
100
AcDbSymbolTableRecord
100
AcDbBlockTableRecord
  2
*Model_Space
340
1A
 70
0
280
1
281
0
  0
BLOCK_RECORD
  5
1B
330
9
100
AcDbSymbolTableRecord
100
AcDbBlockTableRecord
  2
*Paper_Space
340
1E
 70
0
280
1
281
0
  0
BLOCK_RECORD
  5
4E
330
9
100
AcDbSymbolTableRecord
100
AcDbBlockTableRecord
  2
*D1
340
0
 70
0
280
1
281
0
  0
BLOCK_RECORD
  5
53
330
9
100
AcDbSymbolTableRecord
100
AcDbBlockTableRecord
  2
_CLOSEDFILLED
340
0
 70
0
280
1
281
0
  0
BLOCK_RECORD
  5
62
330
9
100
AcDbSymbolTableRecord
100
AcDbBlockTableRecord
  2
*D2
340
0
 70
0
280
1
281
0
  0
BLOCK_RECORD
  5
72
330
9
100
AcDbSymbolTableRecord
100
AcDbBlockTableRecord
  2
*D3
340
0
 70
0
280
1
281
0
  0
BLOCK_RECORD
  5
82
330
9
100
AcDbSymbolTableRecord
100
AcDbBlockTableRecord
  2
*D4
340
0
 70
0
280
1
281
0
  0
BLOCK_RECORD
  5
92
330
9
100
AcDbSymbolTableRecord
100
AcDbBlockTableRecord
  2
*D5
340
0
 70
0
280
1
281
0
  0
BLOCK_RECORD
  5
A2
330
9
100
AcDbSymbolTableRecord
100
AcDbBlockTableRecord
  2
*D6
340
0
 70
0
280
1
281
0
  0
BLOCK_RECORD
  5
B2
330
9
100
AcDbSymbolTableRecord
100
AcDbBlockTableRecord
  2
*D7
340
0
 70
0
280
1
281
0
  0
BLOCK_RECORD
  5
C2
330
9
100
AcDbSymbolTableRecord
100
AcDbBlockTableRecord
  2
*D8
340
0
 70
0
280
1
281
0
  0
BLOCK_RECORD
  5
DA
330
9
100
AcDbSymbolTableRecord
100
AcDbBlockTableRecord
  2
*D9
340
0
 70
0
280
1
281
0
  0
BLOCK_RECORD
  5
EA
330
9
100
AcDbSymbolTableRecord
100
AcDbBlockTableRecord
  2
*D10
340
0
 70
0
280
1
281
0
  0
BLOCK_RECORD
  5
FA
330
9
100
AcDbSymbolTableRecord
100
AcDbBlockTableRecord
  2
*D11
340
0
 70
0
280
1
281
0
  0
BLOCK_RECORD
  5
10A
330
9
100
AcDbSymbolTableRecord
100
AcDbBlockTableRecord
  2
*D12
340
0
 70
0
280
1
281
0
  0
ENDTAB
  0
ENDSEC
  0
SECTION
  2
BLOCKS
  0
BLOCK
  5
18
330
17
100
AcDbEntity
  8
0
100
AcDbBlockBegin
  2
*Model_Space
 70
0
 10
0.0
 20
0.0
 30
0.0
  3
*Model_Space
  1

  0
ENDBLK
  5
19
330
17
100
AcDbEntity
  8
0
100
AcDbBlockEnd
  0
BLOCK
  5
1C
330
1B
100
AcDbEntity
  8
0
100
AcDbBlockBegin
  2
*Paper_Space
 70
0
 10
0.0
 20
0.0
 30
0.0
  3
*Paper_Space
  1

  0
ENDBLK
  5
1D
330
1B
100
AcDbEntity
  8
0
100
AcDbBlockEnd
  0
BLOCK
  5
4F
330
4E
100
AcDbEntity
  8
0
100
AcDbBlockBegin
  2
*D1
 70
1
 10
0.0
 20
0.0
 30
0.0
  3
*D1
  1

  0
LINE
  5
51
330
4E
100
AcDbEntity
  8
0
100
AcDbLine
 10
0.0
 20
0.0
 30
0.0
 11
0.0
 21
1.65
 31
0.0
  0
LINE
  5
52
330
4E
100
AcDbEntity
  8
0
100
AcDbLine
 10
22.0
 20
0.0
 30
0.0
 11
22.0
 21
1.65
 31
0.0
  0
INSERT
  5
57
330
4E
100
AcDbEntity
  8
COTAS
100
AcDbBlockReference
  2
_CLOSEDFILLED
 10
0.0
 20
1.65
 30
0.0
 41
0.09
 42
0.09
 50
180.0
  0
INSERT
  5
59
330
4E
100
AcDbEntity
  8
COTAS
100
AcDbBlockReference
  2
_CLOSEDFILLED
 10
22.0
 20
1.65
 30
0.0
 41
0.09
 42
0.09
  0
LINE
  5
5B
330
4E
100
AcDbEntity
  8
0
100
AcDbLine
 10
0.09
 20
1.65
 30
0.0
 11
10.87
 21
1.65
 31
0.0
  0
LINE
  5
5C
330
4E
100
AcDbEntity
  8
0
100
AcDbLine
 10
11.129999999999999
 20
1.65
 30
0.0
 11
21.91
 21
1.65
 31
0.0
  0
MTEXT
  5
5D
330
4E
100
AcDbEntity
  8
COTAS
100
AcDbMText
 10
11.0
 20
1.65
 30
0.0
 40
0.13
 71
5
  1
22
  0
POINT
  5
5E
330
4E
100
AcDbEntity
  8
Defpoints
100
AcDbPoint
 10
0.0
 20
1.65
 30
0.0
  0
POINT
  5
5F
330
4E
100
AcDbEntity
  8
Defpoints
100
AcDbPoint
 10
0.0
 20
0.0
 30
0.0
  0
POINT
  5
60
330
4E
100
AcDbEntity
  8
Defpoints
100
AcDbPoint
 10
22.0
 20
0.0
 30
0.0
  0
ENDBLK
  5
50
330
4E
100
AcDbEntity
  8
0
100
AcDbBlockEnd
  0
BLOCK
  5
54
330
53
100
AcDbEntity
  8
0
100
AcDbBlockBegin
  2
_CLOSEDFILLED
 70
0
 10
0.0
 20
0.0
 30
0.0
  3
_CLOSEDFILLED
  1

  0
SOLID
  5
56
330
53
100
AcDbEntity
  8
0
  6
BYBLOCK
 62
0
100
AcDbTrace
 10
-1.0
 20
0.16439898372402537
 30
0.0
 11
0.0
 21
0.0
 31
0.0
 12
-1.0
 22
-0.16439898372402537
 32
0.0
 13
-1.0
 23
-0.16439898372402537
 33
0.0
  0
ENDBLK
  5
55
330
53
100
AcDbEntity
  8
0
100
AcDbBlockEnd
  0
BLOCK
  5
63
330
62
100
AcDbEntity
  8
0
100
AcDbBlockBegin
  2
*D2
 70
1
 10
0.0
 20
0.0
 30
0.0
  3
*D2
  1

  0
LINE
  5
65
330
62
100
AcDbEntity
  8
0
100
AcDbLine
 10
22.0
 20
0.0
 30
0.0
 11
23.0
 21
0.0
 31
0.0
  0
LINE
  5
66
330
62
100
AcDbEntity
  8
0
100
AcDbLine
 10
22.0
 20
-20.0
 30
0.0
 11
23.0
 21
-20.0
 31
0.0
  0
INSERT
  5
67
330
62
100
AcDbEntity
  8
COTAS
100
AcDbBlockReference
  2
_CLOSEDFILLED
 10
23.0
 20
0.0
 30
0.0
 41
0.09
 42
0.09
 50
270.0
  0
INSERT
  5
69
330
62
100
AcDbEntity
  8
COTAS
100
AcDbBlockReference
  2
_CLOSEDFILLED
 10
23.0
 20
-20.0
 30
0.0
 41
0.09
 42
0.09
 50
90.0
  0
LINE
  5
6B
330
62
100
AcDbEntity
  8
0
100
AcDbLine
 10
23.0
 20
0.09
 30
0.0
 11
23.0
 21
-9.87
 31
0.0
  0
LINE
  5
6C
330
62
100
AcDbEntity
  8
0
100
AcDbLine
 10
23.0
 20
-10.129999999999999
 30
0.0
 11
23.0
 21
-20.09
 31
0.0
  0
MTEXT
  5
6D
330
62
100
AcDbEntity
  8
COTAS
100
AcDbMText
 10
23.0
 20
-10.0
 30
0.0
 40
0.13
 71
5
  1
20
 50
90.0
  0
POINT
  5
6E
330
62
100
AcDbEntity
  8
Defpoints
100
AcDbPoint
 10
23.0
 20
0.0
 30
0.0
  0
POINT
  5
6F
330
62
100
AcDbEntity
  8
Defpoints
100
AcDbPoint
 10
22.0
 20
0.0
 30
0.0
  0
POINT
  5
70
330
62
100
AcDbEntity
  8
Defpoints
100
AcDbPoint
 10
22.0
 20
-20.0
 30
0.0
  0
ENDBLK
  5
64
330
62
100
AcDbEntity
  8
0
100
AcDbBlockEnd
  0
BLOCK
  5
73
330
72
100
AcDbEntity
  8
0
100
AcDbBlockBegin
  2
*D3
 70
1
 10
0.0
 20
0.0
 30
0.0
  3
*D3
  1

  0
LINE
  5
75
330
72
100
AcDbEntity
  8
0
100
AcDbLine
 10
0.0
 20
-20.0
 30
0.0
 11
0.0
 21
-20.75
 31
0.0
  0
LINE
  5
76
330
72
100
AcDbEntity
  8
0
100
AcDbLine
 10
14.0
 20
-20.0
 30
0.0
 11
14.0
 21
-20.75
 31
0.0
  0
INSERT
  5
77
330
72
100
AcDbEntity
  8
COTAS
100
AcDbBlockReference
  2
_CLOSEDFILLED
 10
0.0
 20
-20.75
 30
0.0
 41
0.09
 42
0.09
 50
180.0
  0
INSERT
  5
79
330
72
100
AcDbEntity
  8
COTAS
100
AcDbBlockReference
  2
_CLOSEDFILLED
 10
14.0
 20
-20.75
 30
0.0
 41
0.09
 42
0.09
  0
LINE
  5
7B
330
72
100
AcDbEntity
  8
0
100
AcDbLine
 10
0.09
 20
-20.75
 30
0.0
 11
6.87
 21
-20.75
 31
0.0
  0
LINE
  5
7C
330
72
100
AcDbEntity
  8
0
100
AcDbLine
 10
7.129999999999999
 20
-20.75
 30
0.0
 11
13.91
 21
-20.75
 31
0.0
  0
MTEXT
  5
7D
330
72
100
AcDbEntity
  8
COTAS
100
AcDbMText
 10
7.0
 20
-20.75
 30
0.0
 40
0.13
 71
5
  1
14
  0
POINT
  5
7E
330
72
100
AcDbEntity
  8
Defpoints
100
AcDbPoint
 10
0.0
 20
-20.75
 30
0.0
  0
POINT
  5
7F
330
72
100
AcDbEntity
  8
Defpoints
100
AcDbPoint
 10
0.0
 20
-20.0
 30
0.0
  0
POINT
  5
80
330
72
100
AcDbEntity
  8
Defpoints
100
AcDbPoint
 10
14.0
 20
-20.0
 30
0.0
  0
ENDBLK
  5
74
330
72
100
AcDbEntity
  8
0
100
AcDbBlockEnd
  0
BLOCK
  5
83
330
82
100
AcDbEntity
  8
0
100
AcDbBlockBegin
  2
*D4
 70
1
 10
0.0
 20
0.0
 30
0.0
  3
*D4
  1

  0
LINE
  5
85
330
82
100
AcDbEntity
  8
0
100
AcDbLine
 10
14.0
 20
-20.0
 30
0.0
 11
14.0
 21
-20.75
 31
0.0
  0
LINE
  5
86
330
82
100
AcDbEntity
  8
0
100
AcDbLine
 10
22.0
 20
-20.0
 30
0.0
 11
22.0
 21
-20.75
 31
0.0
  0
INSERT
  5
87
330
82
100
AcDbEntity
  8
COTAS
100
AcDbBlockReference
  2
_CLOSEDFILLED
 10
14.0
 20
-20.75
 30
0.0
 41
0.09
 42
0.09
 50
180.0
  0
INSERT
  5
89
330
82
100
AcDbEntity
  8
COTAS
100
AcDbBlockReference
  2
_CLOSEDFILLED
 10
22.0
 20
-20.75
 30
0.0
 41
0.09
 42
0.09
  0
LINE
  5
8B
330
82
100
AcDbEntity
  8
0
100
AcDbLine
 10
14.09
 20
-20.75
 30
0.0
 11
17.935
 21
-20.75
 31
0.0
  0
LINE
  5
8C
330
82
100
AcDbEntity
  8
0
100
AcDbLine
 10
18.065
 20
-20.75
 30
0.0
 11
21.91
 21
-20.75
 31
0.0
  0
MTEXT
  5
8D
330
82
100
AcDbEntity
  8
COTAS
100
AcDbMText
 10
18.0
 20
-20.75
 30
0.0
 40
0.13
 71
5
  1
8
  0
POINT
  5
8E
330
82
100
AcDbEntity
  8
Defpoints
100
AcDbPoint
 10
14.0
 20
-20.75
 30
0.0
  0
POINT
  5
8F
330
82
100
AcDbEntity
  8
Defpoints
100
AcDbPoint
 10
14.0
 20
-20.0
 30
0.0
  0
POINT
  5
90
330
82
100
AcDbEntity
  8
Defpoints
100
AcDbPoint
 10
22.0
 20
-20.0
 30
0.0
  0
ENDBLK
  5
84
330
82
100
AcDbEntity
  8
0
100
AcDbBlockEnd
  0
BLOCK
  5
93
330
92
100
AcDbEntity
  8
0
100
AcDbBlockBegin
  2
*D5
 70
1
 10
0.0
 20
0.0
 30
0.0
  3
*D5
  1

  0
LINE
  5
95
330
92
100
AcDbEntity
  8
0
100
AcDbLine
 10
22.0
 20
-12.0
 30
0.0
 11
22.5
 21
-12.0
 31
0.0
  0
LINE
  5
96
330
92
100
AcDbEntity
  8
0
100
AcDbLine
 10
22.0
 20
-15.0
 30
0.0
 11
22.5
 21
-15.0
 31
0.0
  0
INSERT
  5
97
330
92
100
AcDbEntity
  8
COTAS
100
AcDbBlockReference
  2
_CLOSEDFILLED
 10
22.5
 20
-12.0
 30
0.0
 41
0.09
 42
0.09
 50
270.0
  0
INSERT
  5
99
330
92
100
AcDbEntity
  8
COTAS
100
AcDbBlockReference
  2
_CLOSEDFILLED
 10
22.5
 20
-15.0
 30
0.0
 41
0.09
 42
0.09
 50
90.0
  0
LINE
  5
9B
330
92
100
AcDbEntity
  8
0
100
AcDbLine
 10
22.5
 20
-11.91
 30
0.0
 11
22.5
 21
-13.435
 31
0.0
  0
LINE
  5
9C
330
92
100
AcDbEntity
  8
0
100
AcDbLine
 10
22.5
 20
-13.565
 30
0.0
 11
22.5
 21
-15.09
 31
0.0
  0
MTEXT
  5
9D
330
92
100
AcDbEntity
  8
COTAS
100
AcDbMText
 10
22.5
 20
-13.5
 30
0.0
 40
0.13
 71
5
  1
3
 50
90.0
  0
POINT
  5
9E
330
92
100
AcDbEntity
  8
Defpoints
100
AcDbPoint
 10
22.5
 20
-12.0
 30
0.0
  0
POINT
  5
9F
330
92
100
AcDbEntity
  8
Defpoints
100
AcDbPoint
 10
22.0
 20
-12.0
 30
0.0
  0
POINT
  5
A0
330
92
100
AcDbEntity
  8
Defpoints
100
AcDbPoint
 10
22.0
 20
-15.0
 30
0.0
  0
ENDBLK
  5
94
330
92
100
AcDbEntity
  8
0
100
AcDbBlockEnd
  0
BLOCK
  5
A3
330
A2
100
AcDbEntity
  8
0
100
AcDbBlockBegin
  2
*D6
 70
1
 10
0.0
 20
0.0
 30
0.0
  3
*D6
  1

  0
LINE
  5
A5
330
A2
100
AcDbEntity
  8
0
100
AcDbLine
 10
22.0
 20
-18.0
 30
0.0
 11
22.5
 21
-18.0
 31
0.0
  0
LINE
  5
A6
330
A2
100
AcDbEntity
  8
0
100
AcDbLine
 10
22.0
 20
-20.0
 30
0.0
 11
22.5
 21
-20.0
 31
0.0
  0
INSERT
  5
A7
330
A2
100
AcDbEntity
  8
COTAS
100
AcDbBlockReference
  2
_CLOSEDFILLED
 10
22.5
 20
-18.0
 30
0.0
 41
0.09
 42
0.09
 50
270.0
  0
INSERT
  5
A9
330
A2
100
AcDbEntity
  8
COTAS
100
AcDbBlockReference
  2
_CLOSEDFILLED
 10
22.5
 20
-20.0
 30
0.0
 41
0.09
 42
0.09
 50
90.0
  0
LINE
  5
AB
330
A2
100
AcDbEntity
  8
0
100
AcDbLine
 10
22.5
 20
-17.91
 30
0.0
 11
22.5
 21
-18.935
 31
0.0
  0
LINE
  5
AC
330
A2
100
AcDbEntity
  8
0
100
AcDbLine
 10
22.5
 20
-19.065
 30
0.0
 11
22.5
 21
-20.09
 31
0.0
  0
MTEXT
  5
AD
330
A2
100
AcDbEntity
  8
COTAS
100
AcDbMText
 10
22.5
 20
-19.0
 30
0.0
 40
0.13
 71
5
  1
2
 50
90.0
  0
POINT
  5
AE
330
A2
100
AcDbEntity
  8
Defpoints
100
AcDbPoint
 10
22.5
 20
-18.0
 30
0.0
  0
POINT
  5
AF
330
A2
100
AcDbEntity
  8
Defpoints
100
AcDbPoint
 10
22.0
 20
-18.0
 30
0.0
  0
POINT
  5
B0
330
A2
100
AcDbEntity
  8
Defpoints
100
AcDbPoint
 10
22.0
 20
-20.0
 30
0.0
  0
ENDBLK
  5
A4
330
A2
100
AcDbEntity
  8
0
100
AcDbBlockEnd
  0
BLOCK
  5
B3
330
B2
100
AcDbEntity
  8
0
100
AcDbBlockBegin
  2
*D7
 70
1
 10
0.0
 20
0.0
 30
0.0
  3
*D7
  1

  0
LINE
  5
B5
330
B2
100
AcDbEntity
  8
0
100
AcDbLine
 10
20.0
 20
-18.0
 30
0.0
 11
20.0
 21
-19.75
 31
0.0
  0
LINE
  5
B6
330
B2
100
AcDbEntity
  8
0
100
AcDbLine
 10
22.0
 20
-18.0
 30
0.0
 11
22.0
 21
-19.75
 31
0.0
  0
INSERT
  5
B7
330
B2
100
AcDbEntity
  8
COTAS
100
AcDbBlockReference
  2
_CLOSEDFILLED
 10
20.0
 20
-19.75
 30
0.0
 41
0.09
 42
0.09
 50
180.0
  0
INSERT
  5
B9
330
B2
100
AcDbEntity
  8
COTAS
100
AcDbBlockReference
  2
_CLOSEDFILLED
 10
22.0
 20
-19.75
 30
0.0
 41
0.09
 42
0.09
  0
LINE
  5
BB
330
B2
100
AcDbEntity
  8
0
100
AcDbLine
 10
20.09
 20
-19.75
 30
0.0
 11
20.935
 21
-19.75
 31
0.0
  0
LINE
  5
BC
330
B2
100
AcDbEntity
  8
0
100
AcDbLine
 10
21.065
 20
-19.75
 30
0.0
 11
21.91
 21
-19.75
 31
0.0
  0
MTEXT
  5
BD
330
B2
100
AcDbEntity
  8
COTAS
100
AcDbMText
 10
21.0
 20
-19.75
 30
0.0
 40
0.13
 71
5
  1
2
  0
POINT
  5
BE
330
B2
100
AcDbEntity
  8
Defpoints
100
AcDbPoint
 10
20.0
 20
-19.75
 30
0.0
  0
POINT
  5
BF
330
B2
100
AcDbEntity
  8
Defpoints
100
AcDbPoint
 10
20.0
 20
-18.0
 30
0.0
  0
POINT
  5
C0
330
B2
100
AcDbEntity
  8
Defpoints
100
AcDbPoint
 10
22.0
 20
-18.0
 30
0.0
  0
ENDBLK
  5
B4
330
B2
100
AcDbEntity
  8
0
100
AcDbBlockEnd
  0
BLOCK
  5
C3
330
C2
100
AcDbEntity
  8
0
100
AcDbBlockBegin
  2
*D8
 70
1
 10
0.0
 20
0.0
 30
0.0
  3
*D8
  1

  0
LINE
  5
C5
330
C2
100
AcDbEntity
  8
0
100
AcDbLine
 10
11.0
 20
0.0
 30
0.0
 11
11.0
 21
0.2
 31
0.0
  0
LINE
  5
C6
330
C2
100
AcDbEntity
  8
0
100
AcDbLine
 10
14.0
 20
0.0
 30
0.0
 11
14.0
 21
0.2
 31
0.0
  0
INSERT
  5
C7
330
C2
100
AcDbEntity
  8
COTAS
100
AcDbBlockReference
  2
_CLOSEDFILLED
 10
11.0
 20
0.2
 30
0.0
 41
0.09
 42
0.09
 50
180.0
  0
INSERT
  5
C9
330
C2
100
AcDbEntity
  8
COTAS
100
AcDbBlockReference
  2
_CLOSEDFILLED
 10
14.0
 20
0.2
 30
0.0
 41
0.09
 42
0.09
  0
LINE
  5
CB
330
C2
100
AcDbEntity
  8
0
100
AcDbLine
 10
11.09
 20
0.2
 30
0.0
 11
12.435
 21
0.2
 31
0.0
  0
LINE
  5
CC
330
C2
100
AcDbEntity
  8
0
100
AcDbLine
 10
12.565
 20
0.2
 30
0.0
 11
13.91
 21
0.2
 31
0.0
  0
MTEXT
  5
CD
330
C2
100
AcDbEntity
  8
COTAS
100
AcDbMText
 10
12.5
 20
0.2
 30
0.0
 40
0.13
 71
5
  1
3
  0
POINT
  5
CE
330
C2
100
AcDbEntity
  8
Defpoints
100
AcDbPoint
 10
11.0
 20
0.2
 30
0.0
  0
POINT
  5
CF
330
C2
100
AcDbEntity
  8
Defpoints
100
AcDbPoint
 10
11.0
 20
0.0
 30
0.0
  0
POINT
  5
D0
330
C2
100
AcDbEntity
  8
Defpoints
100
AcDbPoint
 10
14.0
 20
0.0
 30
0.0
  0
ENDBLK
  5
C4
330
C2
100
AcDbEntity
  8
0
100
AcDbBlockEnd
  0
BLOCK
  5
DB
330
DA
100
AcDbEntity
  8
0
100
AcDbBlockBegin
  2
*D9
 70
1
 10
0.0
 20
0.0
 30
0.0
  3
*D9
  1

  0
LINE
  5
DD
330
DA
100
AcDbEntity
  8
0
100
AcDbLine
 10
42.05
 20
-3.675
 30
0.0
 11
42.05
 21
-3.45
 31
0.0
  0
LINE
  5
DE
330
DA
100
AcDbEntity
  8
0
100
AcDbLine
 10
44.25
 20
-3.675
 30
0.0
 11
44.25
 21
-3.45
 31
0.0
  0
INSERT
  5
DF
330
DA
100
AcDbEntity
  8
COTAS
100
AcDbBlockReference
  2
_CLOSEDFILLED
 10
42.05
 20
-3.45
 30
0.0
 41
0.09
 42
0.09
 50
180.0
  0
INSERT
  5
E1
330
DA
100
AcDbEntity
  8
COTAS
100
AcDbBlockReference
  2
_CLOSEDFILLED
 10
44.25
 20
-3.45
 30
0.0
 41
0.09
 42
0.09
  0
LINE
  5
E3
330
DA
100
AcDbEntity
  8
0
100
AcDbLine
 10
42.14
 20
-3.45
 30
0.0
 11
42.955
 21
-3.45
 31
0.0
  0
LINE
  5
E4
330
DA
100
AcDbEntity
  8
0
100
AcDbLine
 10
43.345
 20
-3.45
 30
0.0
 11
44.16
 21
-3.45
 31
0.0
  0
MTEXT
  5
E5
330
DA
100
AcDbEntity
  8
COTAS
100
AcDbMText
 10
43.15
 20
-3.45
 30
0.0
 40
0.13
 71
5
  1
2,2
  0
POINT
  5
E6
330
DA
100
AcDbEntity
  8
Defpoints
100
AcDbPoint
 10
42.05
 20
-3.45
 30
0.0
  0
POINT
  5
E7
330
DA
100
AcDbEntity
  8
Defpoints
100
AcDbPoint
 10
42.05
 20
-3.675
 30
0.0
  0
POINT
  5
E8
330
DA
100
AcDbEntity
  8
Defpoints
100
AcDbPoint
 10
44.25
 20
-3.675
 30
0.0
  0
ENDBLK
  5
DC
330
DA
100
AcDbEntity
  8
0
100
AcDbBlockEnd
  0
BLOCK
  5
EB
330
EA
100
AcDbEntity
  8
0
100
AcDbBlockBegin
  2
*D10
 70
1
 10
0.0
 20
0.0
 30
0.0
  3
*D10
  1

  0
LINE
  5
ED
330
EA
100
AcDbEntity
  8
0
100
AcDbLine
 10
45.05
 20
-3.675
 30
0.0
 11
45.05
 21
-3.45
 31
0.0
  0
LINE
  5
EE
330
EA
100
AcDbEntity
  8
0
100
AcDbLine
 10
47.25
 20
-3.675
 30
0.0
 11
47.25
 21
-3.45
 31
0.0
  0
INSERT
  5
EF
330
EA
100
AcDbEntity
  8
COTAS
100
AcDbBlockReference
  2
_CLOSEDFILLED
 10
45.05
 20
-3.45
 30
0.0
 41
0.09
 42
0.09
 50
180.0
  0
INSERT
  5
F1
330
EA
100
AcDbEntity
  8
COTAS
100
AcDbBlockReference
  2
_CLOSEDFILLED
 10
47.25
 20
-3.45
 30
0.0
 41
0.09
 42
0.09
  0
LINE
  5
F3
330
EA
100
AcDbEntity
  8
0
100
AcDbLine
 10
45.14
 20
-3.45
 30
0.0
 11
45.955
 21
-3.45
 31
0.0
  0
LINE
  5
F4
330
EA
100
AcDbEntity
  8
0
100
AcDbLine
 10
46.345
 20
-3.45
 30
0.0
 11
47.16
 21
-3.45
 31
0.0
  0
MTEXT
  5
F5
330
EA
100
AcDbEntity
  8
COTAS
100
AcDbMText
 10
46.15
 20
-3.45
 30
0.0
 40
0.13
 71
5
  1
2,2
  0
POINT
  5
F6
330
EA
100
AcDbEntity
  8
Defpoints
100
AcDbPoint
 10
45.05
 20
-3.45
 30
0.0
  0
POINT
  5
F7
330
EA
100
AcDbEntity
  8
Defpoints
100
AcDbPoint
 10
45.05
 20
-3.675
 30
0.0
  0
POINT
  5
F8
330
EA
100
AcDbEntity
  8
Defpoints
100
AcDbPoint
 10
47.25
 20
-3.675
 30
0.0
  0
ENDBLK
  5
EC
330
EA
100
AcDbEntity
  8
0
100
AcDbBlockEnd
  0
BLOCK
  5
FB
330
FA
100
AcDbEntity
  8
0
100
AcDbBlockBegin
  2
*D11
 70
1
 10
0.0
 20
0.0
 30
0.0
  3
*D11
  1

  0
LINE
  5
FD
330
FA
100
AcDbEntity
  8
0
100
AcDbLine
 10
47.25
 20
-3.675
 30
0.0
 11
47.8
 21
-3.675
 31
0.0
  0
LINE
  5
FE
330
FA
100
AcDbEntity
  8
0
100
AcDbLine
 10
47.25
 20
-4.725
 30
0.0
 11
47.8
 21
-4.725
 31
0.0
  0
INSERT
  5
FF
330
FA
100
AcDbEntity
  8
COTAS
100
AcDbBlockReference
  2
_CLOSEDFILLED
 10
47.8
 20
-3.675
 30
0.0
 41
0.09
 42
0.09
 50
270.0
  0
INSERT
  5
101
330
FA
100
AcDbEntity
  8
COTAS
100
AcDbBlockReference
  2
_CLOSEDFILLED
 10
47.8
 20
-4.725
 30
0.0
 41
0.09
 42
0.09
 50
90.0
  0
LINE
  5
103
330
FA
100
AcDbEntity
  8
0
100
AcDbLine
 10
47.8
 20
-3.585
 30
0.0
 11
47.8
 21
-3.9399999999999995
 31
0.0
  0
LINE
  5
104
330
FA
100
AcDbEntity
  8
0
100
AcDbLine
 10
47.8
 20
-4.459999999999999
 30
0.0
 11
47.8
 21
-4.8149999999999995
 31
0.0
  0
MTEXT
  5
105
330
FA
100
AcDbEntity
  8
COTAS
100
AcDbMText
 10
47.8
 20
-4.199999999999999
 30
0.0
 40
0.13
 71
5
  1
1,05
 50
90.0
  0
POINT
  5
106
330
FA
100
AcDbEntity
  8
Defpoints
100
AcDbPoint
 10
47.8
 20
-3.675
 30
0.0
  0
POINT
  5
107
330
FA
100
AcDbEntity
  8
Defpoints
100
AcDbPoint
 10
47.25
 20
-3.675
 30
0.0
  0
POINT
  5
108
330
FA
100
AcDbEntity
  8
Defpoints
100
AcDbPoint
 10
47.25
 20
-4.725
 30
0.0
  0
ENDBLK
  5
FC
330
FA
100
AcDbEntity
  8
0
100
AcDbBlockEnd
  0
BLOCK
  5
10B
330
10A
100
AcDbEntity
  8
0
100
AcDbBlockBegin
  2
*D12
 70
1
 10
0.0
 20
0.0
 30
0.0
  3
*D12
  1

  0
LINE
  5
10D
330
10A
100
AcDbEntity
  8
0
100
AcDbLine
 10
47.25
 20
-6.625
 30
0.0
 11
47.8
 21
-6.625
 31
0.0
  0
LINE
  5
10E
330
10A
100
AcDbEntity
  8
0
100
AcDbLine
 10
47.25
 20
-7.675
 30
0.0
 11
47.8
 21
-7.675
 31
0.0
  0
INSERT
  5
10F
330
10A
100
AcDbEntity
  8
COTAS
100
AcDbBlockReference
  2
_CLOSEDFILLED
 10
47.8
 20
-6.625
 30
0.0
 41
0.09
 42
0.09
 50
270.0
  0
INSERT
  5
111
330
10A
100
AcDbEntity
  8
COTAS
100
AcDbBlockReference
  2
_CLOSEDFILLED
 10
47.8
 20
-7.675
 30
0.0
 41
0.09
 42
0.09
 50
90.0
  0
LINE
  5
113
330
10A
100
AcDbEntity
  8
0
100
AcDbLine
 10
47.8
 20
-6.535
 30
0.0
 11
47.8
 21
-6.890000000000001
 31
0.0
  0
LINE
  5
114
330
10A
100
AcDbEntity
  8
0
100
AcDbLine
 10
47.8
 20
-7.41
 30
0.0
 11
47.8
 21
-7.765
 31
0.0
  0
MTEXT
  5
115
330
10A
100
AcDbEntity
  8
COTAS
100
AcDbMText
 10
47.8
 20
-7.15
 30
0.0
 40
0.13
 71
5
  1
1,05
 50
90.0
  0
POINT
  5
116
330
10A
100
AcDbEntity
  8
Defpoints
100
AcDbPoint
 10
47.8
 20
-6.625
 30
0.0
  0
POINT
  5
117
330
10A
100
AcDbEntity
  8
Defpoints
100
AcDbPoint
 10
47.25
 20
-6.625
 30
0.0
  0
POINT
  5
118
330
10A
100
AcDbEntity
  8
Defpoints
100
AcDbPoint
 10
47.25
 20
-7.675
 30
0.0
  0
ENDBLK
  5
10C
330
10A
100
AcDbEntity
  8
0
100
AcDbBlockEnd
  0
ENDSEC
  0
SECTION
  2
ENTITIES
  0
LWPOLYLINE
  5
35
330
17
100
AcDbEntity
  8
VISTA
100
AcDbPolyline
 90
4
 70
1
 10
0.0
 20
0.0
 10
22.0
 20
0.0
 10
22.0
 20
-20.0
 10
0.0
 20
-20.0
  0
LWPOLYLINE
  5
36
330
17
100
AcDbEntity
  8
VISTA
100
AcDbPolyline
 90
4
 70
1
 10
14.0
 20
0.0
 10
22.0
 20
0.0
 10
22.0
 20
-12.0
 10
14.0
 20
-12.0
  0
LWPOLYLINE
  5
37
330
17
100
AcDbEntity
  8
VISTA
100
AcDbPolyline
 90
6
 70
1
 10
13.0
 20
-5.0
 10
14.0
 20
-5.0
 10
14.0
 20
-12.0
 10
22.0
 20
-12.0
 10
22.0
 20
-13.0
 10
13.0
 20
-13.0
  0
LWPOLYLINE
  5
38
330
17
100
AcDbEntity
  8
VISTA
100
AcDbPolyline
 90
4
 70
1
 10
12.0
 20
-14.0
 10
21.0
 20
-14.0
 10
21.0
 20
-19.0
 10
12.0
 20
-19.0
  0
LWPOLYLINE
  5
39
330
17
100
AcDbEntity
  8
VISTA
100
AcDbPolyline
 90
4
 70
1
 10
13.0
 20
-15.0
 10
20.0
 20
-15.0
 10
20.0
 20
-18.0
 10
13.0
 20
-18.0
  0
LWPOLYLINE
  5
3A
330
17
100
AcDbEntity
  8
VISTA
100
AcDbPolyline
 90
4
 70
1
 10
1.9000000953674316
 20
-4.690000057220459
 10
7.400000095367432
 20
-4.690000057220459
 10
7.400000095367432
 20
-5.410000324249268
 10
1.9000000953674316
 20
-5.410000324249268
  0
LWPOLYLINE
  5
3B
330
17
100
AcDbEntity
  8
VISTA
100
AcDbPolyline
 90
4
 70
1
 10
4.289999961853027
 20
-4.900000095367432
 10
5.010000228881836
 20
-4.900000095367432
 10
5.010000228881836
 20
-8.199999809265137
 10
4.289999961853027
 20
-8.199999809265137
  0
LWPOLYLINE
  5
3C
330
17
100
AcDbEntity
  8
VISTA
100
AcDbPolyline
 90
4
 70
1
 10
2.0500001907348633
 20
-3.674999713897705
 10
4.25
 20
-3.674999713897705
 10
4.25
 20
-4.724999904632568
 10
2.0500001907348633
 20
-4.724999904632568
  0
LWPOLYLINE
  5
3D
330
17
100
AcDbEntity
  8
VISTA
100
AcDbPolyline
 90
4
 70
1
 10
5.050000190734863
 20
-3.674999713897705
 10
7.25
 20
-3.674999713897705
 10
7.25
 20
-4.724999904632568
 10
5.050000190734863
 20
-4.724999904632568
  0
LWPOLYLINE
  5
3E
330
17
100
AcDbEntity
  8
VISTA
100
AcDbPolyline
 90
4
 70
1
 10
2.0500001907348633
 20
-6.625
 10
4.25
 20
-6.625
 10
4.25
 20
-7.675000190734863
 10
2.0500001907348633
 20
-7.675000190734863
  0
LWPOLYLINE
  5
3F
330
17
100
AcDbEntity
  8
VISTA
100
AcDbPolyline
 90
4
 70
1
 10
5.050000190734863
 20
-6.625
 10
7.25
 20
-6.625
 10
7.25
 20
-7.675000190734863
 10
5.050000190734863
 20
-7.675000190734863
  0
LWPOLYLINE
  5
40
330
17
100
AcDbEntity
  8
VISTA
100
AcDbPolyline
 90
4
 70
1
 10
7.324999809265137
 20
-6.340000152587891
 10
8.574999809265137
 20
-6.340000152587891
 10
8.574999809265137
 20
-6.760000228881836
 10
7.324999809265137
 20
-6.760000228881836
  0
LWPOLYLINE
  5
41
330
17
100
AcDbEntity
  8
VISTA
100
AcDbPolyline
 90
4
 70
1
 10
7.424999713897705
 20
-6.390000343322754
 10
8.47499942779541
 20
-6.390000343322754
 10
8.47499942779541
 20
-6.710000038146973
 10
7.424999713897705
 20
-6.710000038146973
  0
LWPOLYLINE
  5
42
330
17
100
AcDbEntity
  8
VISTA
100
AcDbPolyline
 90
40
 70
1
 10
3.1094876289367677
 20
-11.701213359832764
 10
3.0952429178384717
 20
-11.8776657687763
 10
3.052877715078628
 20
-12.049548153014383
 10
2.9834892571552984
 20
-12.212408849080909
 10
2.888874668680619
 20
-12.36202985049454
 10
2.771484417797327
 20
-12.49453605191096
 10
2.634358850341039
 20
-12.606495612315786
 10
2.481049446480127
 20
-12.695008837904185
 10
2.315526839244866
 20
-12.757783282627273
 10
2.1420779772176233
 20
-12.793193121340623
 10
1.9651950948164112
 20
-12.80032125782149
 10
1.7894593657831188
 20
-12.778983077079259
 10
1.6194222531899785
 20
-12.72973122678672
 10
1.4594876289367678
 20
-12.653841303995646
 10
1.3137977157818526
 20
-12.553278817843184
 10
1.1861258059485564
 20
-12.43064828389764
 10
1.0797785348385935
 20
-12.289125768573346
 10
0.9975102409120609
 20
-12.132376630678847
 10
0.9414516297681104
 20
-11.964460590549077
 10
0.9130545899891365
 20
-11.789726585421162
 10
0.9130545899891365
 20
-11.612700134244365
 10
0.9414516297681101
 20
-11.43796612911645
 10
0.9975102409120609
 20
-11.27005008898668
 10
1.079778534838593
 20
-11.113300951092183
 10
1.186125805948556
 20
-10.97177843576789
 10
1.3137977157818521
 20
-10.849147901822343
 10
1.459487628936767
 20
-10.748585415669881
 10
1.619422253189978
 20
-10.672695492878807
 10
1.7894593657831186
 20
-10.623443642586269
 10
1.965195094816411
 20
-10.602105461844037
 10
2.142077977217622
 20
-10.609233598324904
 10
2.315526839244865
 20
-10.644643437038255
 10
2.4810494464801267
 20
-10.707417881761343
 10
2.6343588503410387
 20
-10.795931107349741
 10
2.7714844177973266
 20
-10.907890667754568
 10
2.8888746686806184
 20
-11.040396869170985
 10
2.9834892571552984
 20
-11.190017870584617
 10
3.0528777150786275
 20
-11.352878566651142
 10
3.0952429178384717
 20
-11.524760950889227
 10
3.1094876289367677
 20
-11.701213359832764
  0
LWPOLYLINE
  5
43
330
17
100
AcDbEntity
  8
VISTA
100
AcDbPolyline
 90
40
 70
1
 10
5.412236070632934
 20
-16.813859939575195
 10
5.397991359534639
 20
-16.99031234851873
 10
5.355626156774795
 20
-17.162194732756817
 10
5.286237698851465
 20
-17.32505542882334
 10
5.191623110376786
 20
-17.474676430236972
 10
5.0742328594934945
 20
-17.60718263165339
 10
4.937107292037206
 20
-17.719142192058218
 10
4.783797888176294
 20
-17.807655417646615
 10
4.618275280941033
 20
-17.870429862369704
 10
4.44482641891379
 20
-17.905839701083053
 10
4.267943536512578
 20
-17.912967837563922
 10
4.092207807479285
 20
-17.89162965682169
 10
3.9221706948861454
 20
-17.84237780652915
 10
3.7622360706329347
 20
-17.76648788373808
 10
3.6165461574780196
 20
-17.665925397585614
 10
3.4888742476447234
 20
-17.54329486364007
 10
3.3825269765347605
 20
-17.401772348315777
 10
3.300258682608228
 20
-17.245023210421277
 10
3.2442000714642774
 20
-17.07710717029151
 10
3.2158030316853035
 20
-16.902373165163596
 10
3.2158030316853035
 20
-16.7253467139868
 10
3.2442000714642774
 20
-16.550612708858882
 10
3.300258682608228
 20
-16.382696668729114
 10
3.38252697653476
 20
-16.225947530834613
 10
3.488874247644723
 20
-16.08442501551032
 10
3.616546157478019
 20
-15.961794481564775
 10
3.762236070632934
 20
-15.861231995412313
 10
3.922170694886145
 20
-15.785342072621239
 10
4.092207807479285
 20
-15.7360902223287
 10
4.267943536512578
 20
-15.714752041586468
 10
4.444826418913789
 20
-15.721880178067336
 10
4.618275280941032
 20
-15.757290016780686
 10
4.783797888176294
 20
-15.820064461503774
 10
4.937107292037206
 20
-15.908577687092173
 10
5.074232859493494
 20
-16.020537247497
 10
5.191623110376785
 20
-16.15304344891342
 10
5.286237698851465
 20
-16.30266445032705
 10
5.355626156774795
 20
-16.465525146393574
 10
5.397991359534639
 20
-16.63740753063166
 10
5.412236070632934
 20
-16.813859939575195
  0
LWPOLYLINE
  5
44
330
17
100
AcDbEntity
  8
VISTA
100
AcDbPolyline
 90
40
 70
1
 10
9.310763692855835
 20
-13.560089111328125
 10
9.29651898175754
 20
-13.736541520271661
 10
9.254153778997695
 20
-13.908423904509744
 10
9.184765321074366
 20
-14.07128460057627
 10
9.090150732599687
 20
-14.220905601989902
 10
8.972760481716394
 20
-14.35341180340632
 10
8.835634914260106
 20
-14.465371363811148
 10
8.682325510399195
 20
-14.553884589399546
 10
8.516802903163933
 20
-14.616659034122634
 10
8.34335404113669
 20
-14.652068872835985
 10
8.166471158735478
 20
-14.659197009316852
 10
7.990735429702186
 20
-14.63785882857462
 10
7.820698317109046
 20
-14.588606978282082
 10
7.660763692855835
 20
-14.512717055491008
 10
7.51507377970092
 20
-14.412154569338545
 10
7.387401869867624
 20
-14.289524035393
 10
7.2810545987576605
 20
-14.148001520068707
 10
7.1987863048311285
 20
-13.991252382174208
 10
7.142727693687178
 20
-13.823336342044438
 10
7.114330653908204
 20
-13.648602336916523
 10
7.114330653908204
 20
-13.471575885739727
 10
7.142727693687178
 20
-13.296841880611812
 10
7.1987863048311285
 20
-13.128925840482042
 10
7.2810545987576605
 20
-12.972176702587545
 10
7.387401869867624
 20
-12.830654187263251
 10
7.515073779700919
 20
-12.708023653317705
 10
7.660763692855834
 20
-12.607461167165242
 10
7.820698317109046
 20
-12.531571244374168
 10
7.990735429702186
 20
-12.48231939408163
 10
8.166471158735478
 20
-12.460981213339398
 10
8.34335404113669
 20
-12.468109349820265
 10
8.516802903163931
 20
-12.503519188533616
 10
8.682325510399194
 20
-12.566293633256704
 10
8.835634914260106
 20
-12.654806858845102
 10
8.972760481716394
 20
-12.76676641924993
 10
9.090150732599685
 20
-12.899272620666347
 10
9.184765321074366
 20
-13.048893622079978
 10
9.254153778997695
 20
-13.211754318146504
 10
9.29651898175754
 20
-13.383636702384589
 10
9.310763692855835
 20
-13.560089111328125
  0
LWPOLYLINE
  5
45
330
17
100
AcDbEntity
  8
VISTA
100
AcDbPolyline
 90
40
 70
1
 10
10.945808506011963
 20
-17.84597682952881
 10
10.931563794913668
 20
-18.022429238472345
 10
10.889198592153823
 20
-18.19431162271043
 10
10.819810134230494
 20
-18.357172318776954
 10
10.725195545755815
 20
-18.506793320190585
 10
10.607805294872522
 20
-18.639299521607004
 10
10.470679727416234
 20
-18.75125908201183
 10
10.317370323555323
 20
-18.839772307600228
 10
10.151847716320061
 20
-18.902546752323317
 10
9.978398854292818
 20
-18.937956591036667
 10
9.801515971891606
 20
-18.945084727517536
 10
9.625780242858314
 20
-18.923746546775302
 10
9.455743130265175
 20
-18.874494696482763
 10
9.295808506011962
 20
-18.798604773691693
 10
9.150118592857048
 20
-18.698042287539227
 10
9.022446683023752
 20
-18.575411753593684
 10
8.91609941191379
 20
-18.43388923826939
 10
8.833831117987256
 20
-18.27714010037489
 10
8.777772506843306
 20
-18.109224060245122
 10
8.749375467064333
 20
-17.93449005511721
 10
8.749375467064333
 20
-17.757463603940412
 10
8.777772506843306
 20
-17.582729598812495
 10
8.833831117987256
 20
-17.414813558682727
 10
8.916099411913788
 20
-17.258064420788227
 10
9.022446683023752
 20
-17.116541905463933
 10
9.150118592857048
 20
-16.99391137151839
 10
9.295808506011962
 20
-16.893348885365928
 10
9.455743130265173
 20
-16.817458962574854
 10
9.625780242858314
 20
-16.768207112282315
 10
9.801515971891606
 20
-16.74686893154008
 10
9.978398854292818
 20
-16.75399706802095
 10
10.15184771632006
 20
-16.7894069067343
 10
10.317370323555322
 20
-16.85218135145739
 10
10.470679727416234
 20
-16.940694577045786
 10
10.607805294872522
 20
-17.052654137450613
 10
10.725195545755813
 20
-17.185160338867032
 10
10.819810134230494
 20
-17.334781340280664
 10
10.889198592153823
 20
-17.497642036347187
 10
10.931563794913668
 20
-17.669524420585272
 10
10.945808506011963
 20
-17.84597682952881
  0
LWPOLYLINE
  5
46
330
17
100
AcDbEntity
  8
VISTA
100
AcDbPolyline
 90
40
 70
1
 10
10.306804752349853
 20
-4.390520811080933
 10
10.292560041251559
 20
-4.566973220024469
 10
10.250194838491714
 20
-4.738855604262552
 10
10.180806380568384
 20
-4.901716300329078
 10
10.086191792093706
 20
-5.051337301742709
 10
9.968801541210413
 20
-5.183843503159128
 10
9.831675973754125
 20
-5.295803063563954
 10
9.678366569893214
 20
-5.384316289152353
 10
9.512843962657952
 20
-5.447090733875442
 10
9.339395100630709
 20
-5.482500572588792
 10
9.162512218229496
 20
-5.48962870906966
 10
8.986776489196204
 20
-5.468290528327428
 10
8.816739376603065
 20
-5.419038678034889
 10
8.656804752349853
 20
-5.343148755243815
 10
8.511114839194938
 20
-5.242586269091353
 10
8.383442929361642
 20
-5.119955735145807
 10
8.27709565825168
 20
-4.978433219821514
 10
8.194827364325146
 20
-4.821684081927016
 10
8.138768753181196
 20
-4.653768041797247
 10
8.110371713402223
 20
-4.479034036669331
 10
8.110371713402223
 20
-4.302007585492535
 10
8.138768753181196
 20
-4.127273580364619
 10
8.194827364325146
 20
-3.95935754023485
 10
8.277095658251678
 20
-3.802608402340352
 10
8.383442929361642
 20
-3.661085887016058
 10
8.511114839194938
 20
-3.538455353070513
 10
8.656804752349853
 20
-3.43789286691805
 10
8.816739376603064
 20
-3.362002944126976
 10
8.986776489196204
 20
-3.312751093834438
 10
9.162512218229496
 20
-3.291412913092206
 10
9.339395100630709
 20
-3.298541049573073
 10
9.51284396265795
 20
-3.333950888286423
 10
9.678366569893212
 20
-3.396725333009512
 10
9.831675973754125
 20
-3.4852385585979104
 10
9.968801541210413
 20
-3.5971981190027367
 10
10.086191792093704
 20
-3.729704320419155
 10
10.180806380568384
 20
-3.8793253218327863
 10
10.250194838491714
 20
-4.042186017899312
 10
10.292560041251559
 20
-4.2140684021373955
 10
10.306804752349853
 20
-4.390520811080933
  0
LWPOLYLINE
  5
47
330
17
100
AcDbEntity
  8
VISTA
100
AcDbPolyline
 90
40
 70
1
 10
3.0441661834716798
 20
-17.196425437927246
 10
3.029921472373384
 20
-17.372877846870782
 10
2.98755626961354
 20
-17.544760231108867
 10
2.9181678116902106
 20
-17.70762092717539
 10
2.823553223215531
 20
-17.857241928589023
 10
2.706162972332239
 20
-17.98974813000544
 10
2.5690374048759512
 20
-18.10170769041027
 10
2.4157280010150393
 20
-18.190220915998665
 10
2.250205393779778
 20
-18.252995360721755
 10
2.0767565317525354
 20
-18.288405199435104
 10
1.8998736493513233
 20
-18.295533335915973
 10
1.724137920318031
 20
-18.27419515517374
 10
1.5541008077248906
 20
-18.2249433048812
 10
1.3941661834716799
 20
-18.14905338209013
 10
1.2484762703167647
 20
-18.048490895937665
 10
1.1208043604834685
 20
-17.92586036199212
 10
1.0144570893735056
 20
-17.784337846667828
 10
0.932188795446973
 20
-17.627588708773327
 10
0.8761301843030225
 20
-17.45967266864356
 10
0.8477331445240486
 20
-17.284938663515646
 10
0.8477331445240486
 20
-17.10791221233885
 10
0.8761301843030223
 20
-16.933178207210933
 10
0.932188795446973
 20
-16.765262167081165
 10
1.0144570893735052
 20
-16.608513029186664
 10
1.120804360483468
 20
-16.46699051386237
 10
1.2484762703167642
 20
-16.344359979916828
 10
1.3941661834716792
 20
-16.243797493764365
 10
1.5541008077248901
 20
-16.16790757097329
 10
1.7241379203180307
 20
-16.118655720680753
 10
1.899873649351323
 20
-16.09731753993852
 10
2.076756531752534
 20
-16.104445676419388
 10
2.250205393779777
 20
-16.139855515132737
 10
2.415728001015039
 20
-16.202629959855827
 10
2.569037404875951
 20
-16.291143185444223
 10
2.7061629723322387
 20
-16.40310274584905
 10
2.8235532232155305
 20
-16.53560894726547
 10
2.9181678116902106
 20
-16.6852299486791
 10
2.9875562696135396
 20
-16.848090644745625
 10
3.029921472373384
 20
-17.01997302898371
 10
3.0441661834716798
 20
-17.196425437927246
  0
TEXT
  5
48
330
17
100
AcDbEntity
  8
TEXTOS
100
AcDbText
 10
11.0
 20
0.85
 30
0.0
 40
0.33999999999999997
  1
CALLE CEDRO MISIONERO
100
AcDbText
  0
TEXT
  5
49
330
17
100
AcDbEntity
  8
TEXTOS
100
AcDbText
 10
18.0
 20
-2.5
 30
0.0
 40
0.3
  1
CASA 8,00 x 12,00
100
AcDbText
  0
TEXT
  5
4A
330
17
100
AcDbEntity
  8
TEXTOS
100
AcDbText
 10
18.0
 20
-4.0
 30
0.0
 40
0.27
  1
PB + PA
100
AcDbText
  0
TEXT
  5
4B
330
17
100
AcDbEntity
  8
TEXTOS
100
AcDbText
 10
16.5
 20
-16.5
 30
0.0
 40
0.27
  1
PILETA 7,00 x 3,00
100
AcDbText
  0
TEXT
  5
4C
330
17
100
AcDbEntity
  8
TEXTOS
100
AcDbText
 10
4.7
 20
-8.5
 30
0.0
 40
0.27
  1
HUERTA
100
AcDbText
  0
DIMENSION
  5
4D
330
17
100
AcDbEntity
  8
COTAS
100
AcDbDimension
280
0
  2
*D1
  3
Standard
 10
0.0
 20
1.65
 30
0.0
 11
11.0
 21
1.65
 31
0.0
 70
32
 71
5
  1
<>
100
AcDbAlignedDimension
 13
0.0
 23
0.0
 33
0.0
 14
22.0
 24
0.0
 34
0.0
 50
0.0
100
AcDbRotatedDimension
1001
ACAD
1000
DSTYLE
1002
{
1070
140
1040
0.13
1070
41
1040
0.09
1002
}
  0
DIMENSION
  5
61
330
17
100
AcDbEntity
  8
COTAS
100
AcDbDimension
280
0
  2
*D2
  3
Standard
 10
23.0
 20
0.0
 30
0.0
 11
23.0
 21
-10.0
 31
0.0
 70
32
 71
5
  1
<>
100
AcDbAlignedDimension
 13
22.0
 23
0.0
 33
0.0
 14
22.0
 24
-20.0
 34
0.0
 50
90.0
100
AcDbRotatedDimension
1001
ACAD
1000
DSTYLE
1002
{
1070
140
1040
0.13
1070
41
1040
0.09
1002
}
  0
DIMENSION
  5
71
330
17
100
AcDbEntity
  8
COTAS
100
AcDbDimension
280
0
  2
*D3
  3
Standard
 10
0.0
 20
-20.75
 30
0.0
 11
7.0
 21
-20.75
 31
0.0
 70
32
 71
5
  1
<>
100
AcDbAlignedDimension
 13
0.0
 23
-20.0
 33
0.0
 14
14.0
 24
-20.0
 34
0.0
 50
0.0
100
AcDbRotatedDimension
1001
ACAD
1000
DSTYLE
1002
{
1070
140
1040
0.13
1070
41
1040
0.09
1002
}
  0
DIMENSION
  5
81
330
17
100
AcDbEntity
  8
COTAS
100
AcDbDimension
280
0
  2
*D4
  3
Standard
 10
14.0
 20
-20.75
 30
0.0
 11
18.0
 21
-20.75
 31
0.0
 70
32
 71
5
  1
<>
100
AcDbAlignedDimension
 13
14.0
 23
-20.0
 33
0.0
 14
22.0
 24
-20.0
 34
0.0
 50
0.0
100
AcDbRotatedDimension
1001
ACAD
1000
DSTYLE
1002
{
1070
140
1040
0.13
1070
41
1040
0.09
1002
}
  0
DIMENSION
  5
91
330
17
100
AcDbEntity
  8
COTAS
100
AcDbDimension
280
0
  2
*D5
  3
Standard
 10
22.5
 20
-12.0
 30
0.0
 11
22.5
 21
-13.5
 31
0.0
 70
32
 71
5
  1
<>
100
AcDbAlignedDimension
 13
22.0
 23
-12.0
 33
0.0
 14
22.0
 24
-15.0
 34
0.0
 50
90.0
100
AcDbRotatedDimension
1001
ACAD
1000
DSTYLE
1002
{
1070
140
1040
0.13
1070
41
1040
0.09
1002
}
  0
DIMENSION
  5
A1
330
17
100
AcDbEntity
  8
COTAS
100
AcDbDimension
280
0
  2
*D6
  3
Standard
 10
22.5
 20
-18.0
 30
0.0
 11
22.5
 21
-19.0
 31
0.0
 70
32
 71
5
  1
<>
100
AcDbAlignedDimension
 13
22.0
 23
-18.0
 33
0.0
 14
22.0
 24
-20.0
 34
0.0
 50
90.0
100
AcDbRotatedDimension
1001
ACAD
1000
DSTYLE
1002
{
1070
140
1040
0.13
1070
41
1040
0.09
1002
}
  0
DIMENSION
  5
B1
330
17
100
AcDbEntity
  8
COTAS
100
AcDbDimension
280
0
  2
*D7
  3
Standard
 10
20.0
 20
-19.75
 30
0.0
 11
21.0
 21
-19.75
 31
0.0
 70
32
 71
5
  1
<>
100
AcDbAlignedDimension
 13
20.0
 23
-18.0
 33
0.0
 14
22.0
 24
-18.0
 34
0.0
 50
0.0
100
AcDbRotatedDimension
1001
ACAD
1000
DSTYLE
1002
{
1070
140
1040
0.13
1070
41
1040
0.09
1002
}
  0
DIMENSION
  5
C1
330
17
100
AcDbEntity
  8
COTAS
100
AcDbDimension
280
0
  2
*D8
  3
Standard
 10
11.0
 20
0.2
 30
0.0
 11
12.5
 21
0.2
 31
0.0
 70
32
 71
5
  1
<>
100
AcDbAlignedDimension
 13
11.0
 23
0.0
 33
0.0
 14
14.0
 24
0.0
 34
0.0
 50
0.0
100
AcDbRotatedDimension
1001
ACAD
1000
DSTYLE
1002
{
1070
140
1040
0.13
1070
41
1040
0.09
1002
}
  0
LWPOLYLINE
  5
D1
330
17
100
AcDbEntity
  8
VISTA
100
AcDbPolyline
 90
4
 70
1
 10
41.90000009536743
 20
-4.690000057220459
 10
47.40000009536743
 20
-4.690000057220459
 10
47.40000009536743
 20
-5.410000324249268
 10
41.90000009536743
 20
-5.410000324249268
  0
LWPOLYLINE
  5
D2
330
17
100
AcDbEntity
  8
VISTA
100
AcDbPolyline
 90
4
 70
1
 10
44.28999996185303
 20
-4.900000095367432
 10
45.010000228881836
 20
-4.900000095367432
 10
45.010000228881836
 20
-8.199999809265137
 10
44.28999996185303
 20
-8.199999809265137
  0
LWPOLYLINE
  5
D3
330
17
100
AcDbEntity
  8
VISTA
100
AcDbPolyline
 90
4
 70
1
 10
42.05000019073486
 20
-3.674999713897705
 10
44.25
 20
-3.674999713897705
 10
44.25
 20
-4.724999904632568
 10
42.05000019073486
 20
-4.724999904632568
  0
LWPOLYLINE
  5
D4
330
17
100
AcDbEntity
  8
VISTA
100
AcDbPolyline
 90
4
 70
1
 10
45.05000019073486
 20
-3.674999713897705
 10
47.25
 20
-3.674999713897705
 10
47.25
 20
-4.724999904632568
 10
45.05000019073486
 20
-4.724999904632568
  0
LWPOLYLINE
  5
D5
330
17
100
AcDbEntity
  8
VISTA
100
AcDbPolyline
 90
4
 70
1
 10
42.05000019073486
 20
-6.625
 10
44.25
 20
-6.625
 10
44.25
 20
-7.675000190734863
 10
42.05000019073486
 20
-7.675000190734863
  0
LWPOLYLINE
  5
D6
330
17
100
AcDbEntity
  8
VISTA
100
AcDbPolyline
 90
4
 70
1
 10
45.05000019073486
 20
-6.625
 10
47.25
 20
-6.625
 10
47.25
 20
-7.675000190734863
 10
45.05000019073486
 20
-7.675000190734863
  0
LWPOLYLINE
  5
D7
330
17
100
AcDbEntity
  8
VISTA
100
AcDbPolyline
 90
4
 70
1
 10
47.32499980926514
 20
-6.340000152587891
 10
48.57499980926514
 20
-6.340000152587891
 10
48.57499980926514
 20
-6.760000228881836
 10
47.32499980926514
 20
-6.760000228881836
  0
LWPOLYLINE
  5
D8
330
17
100
AcDbEntity
  8
VISTA
100
AcDbPolyline
 90
4
 70
1
 10
47.424999713897705
 20
-6.390000343322754
 10
48.47499942779541
 20
-6.390000343322754
 10
48.47499942779541
 20
-6.710000038146973
 10
47.424999713897705
 20
-6.710000038146973
  0
DIMENSION
  5
D9
330
17
100
AcDbEntity
  8
COTAS
100
AcDbDimension
280
0
  2
*D9
  3
Standard
 10
42.05
 20
-3.45
 30
0.0
 11
43.15
 21
-3.45
 31
0.0
 70
32
 71
5
  1
<>
100
AcDbAlignedDimension
 13
42.05
 23
-3.675
 33
0.0
 14
44.25
 24
-3.675
 34
0.0
 50
0.0
100
AcDbRotatedDimension
1001
ACAD
1000
DSTYLE
1002
{
1070
140
1040
0.13
1070
41
1040
0.09
1002
}
  0
DIMENSION
  5
E9
330
17
100
AcDbEntity
  8
COTAS
100
AcDbDimension
280
0
  2
*D10
  3
Standard
 10
45.05
 20
-3.45
 30
0.0
 11
46.15
 21
-3.45
 31
0.0
 70
32
 71
5
  1
<>
100
AcDbAlignedDimension
 13
45.05
 23
-3.675
 33
0.0
 14
47.25
 24
-3.675
 34
0.0
 50
0.0
100
AcDbRotatedDimension
1001
ACAD
1000
DSTYLE
1002
{
1070
140
1040
0.13
1070
41
1040
0.09
1002
}
  0
DIMENSION
  5
F9
330
17
100
AcDbEntity
  8
COTAS
100
AcDbDimension
280
0
  2
*D11
  3
Standard
 10
47.8
 20
-3.675
 30
0.0
 11
47.8
 21
-4.199999999999999
 31
0.0
 70
32
 71
5
  1
<>
100
AcDbAlignedDimension
 13
47.25
 23
-3.675
 33
0.0
 14
47.25
 24
-4.725
 34
0.0
 50
90.0
100
AcDbRotatedDimension
1001
ACAD
1000
DSTYLE
1002
{
1070
140
1040
0.13
1070
41
1040
0.09
1002
}
  0
DIMENSION
  5
109
330
17
100
AcDbEntity
  8
COTAS
100
AcDbDimension
280
0
  2
*D12
  3
Standard
 10
47.8
 20
-6.625
 30
0.0
 11
47.8
 21
-7.15
 31
0.0
 70
32
 71
5
  1
<>
100
AcDbAlignedDimension
 13
47.25
 23
-6.625
 33
0.0
 14
47.25
 24
-7.675
 34
0.0
 50
90.0
100
AcDbRotatedDimension
1001
ACAD
1000
DSTYLE
1002
{
1070
140
1040
0.13
1070
41
1040
0.09
1002
}
  0
TEXT
  5
119
330
17
100
AcDbEntity
  8
TEXTOS
100
AcDbText
 10
44.65
 20
-5.7
 30
0.0
 40
0.135
  1
Paso 0,72 m
100
AcDbText
  0
ENDSEC
  0
SECTION
  2
OBJECTS
  0
DICTIONARY
  5
A
330
0
100
AcDbDictionary
281
1
  3
ACAD_COLOR
350
B
  3
ACAD_GROUP
350
C
  3
ACAD_LAYOUT
350
D
  3
ACAD_MATERIAL
350
E
  3
ACAD_MLEADERSTYLE
350
F
  3
ACAD_MLINESTYLE
350
10
  3
ACAD_PLOTSETTINGS
350
11
  3
ACAD_PLOTSTYLENAME
350
12
  3
ACAD_SCALELIST
350
14
  3
ACAD_TABLESTYLE
350
15
  3
ACAD_VISUALSTYLE
350
16
  3
EZDXF_META
350
2D
  0
DICTIONARY
  5
B
330
A
100
AcDbDictionary
281
1
  0
DICTIONARY
  5
C
330
A
100
AcDbDictionary
281
1
  0
DICTIONARY
  5
D
330
A
100
AcDbDictionary
281
1
  3
Model
350
1A
  3
Layout1
350
1E
  0
DICTIONARY
  5
E
330
A
100
AcDbDictionary
281
1
  3
ByBlock
350
1F
  3
ByLayer
350
20
  3
Global
350
21
  0
DICTIONARY
  5
F
330
A
100
AcDbDictionary
281
1
  3
Standard
350
2C
  0
DICTIONARY
  5
10
330
A
100
AcDbDictionary
281
1
  3
Standard
350
22
  0
DICTIONARY
  5
11
330
A
100
AcDbDictionary
281
1
  0
ACDBDICTIONARYWDFLT
  5
12
330
A
100
AcDbDictionary
281
1
  3
Normal
350
13
100
AcDbDictionaryWithDefault
340
13
  0
ACDBPLACEHOLDER
  5
13
330
12
  0
DICTIONARY
  5
14
330
A
100
AcDbDictionary
281
1
  0
DICTIONARY
  5
15
330
A
100
AcDbDictionary
281
1
  0
DICTIONARY
  5
16
330
A
100
AcDbDictionary
281
1
  0
LAYOUT
  5
1A
330
D
100
AcDbPlotSettings
  1

  4
A3
  6

 40
7.5
 41
20.0
 42
7.5
 43
20.0
 44
420.0
 45
297.0
 46
0.0
 47
0.0
 48
0.0
 49
0.0
140
0.0
141
0.0
142
1.0
143
1.0
 70
1024
 72
1
 73
0
 74
5
  7

 75
16
 76
0
 77
2
 78
300
147
1.0
148
0.0
149
0.0
100
AcDbLayout
  1
Model
 70
1
 71
0
 10
0.0
 20
0.0
 11
420.0
 21
297.0
 12
0.0
 22
0.0
 32
0.0
 14
1e+20
 24
1e+20
 34
1e+20
 15
-1e+20
 25
-1e+20
 35
-1e+20
146
0.0
 13
0.0
 23
0.0
 33
0.0
 16
1.0
 26
0.0
 36
0.0
 17
0.0
 27
1.0
 37
0.0
 76
1
330
17
  0
LAYOUT
  5
1E
330
D
100
AcDbPlotSettings
  1

  4
A3
  6

 40
7.5
 41
20.0
 42
7.5
 43
20.0
 44
420.0
 45
297.0
 46
0.0
 47
0.0
 48
0.0
 49
0.0
140
0.0
141
0.0
142
1.0
143
1.0
 70
0
 72
1
 73
0
 74
5
  7

 75
16
 76
0
 77
2
 78
300
147
1.0
148
0.0
149
0.0
100
AcDbLayout
  1
Layout1
 70
1
 71
1
 10
0.0
 20
0.0
 11
420.0
 21
297.0
 12
0.0
 22
0.0
 32
0.0
 14
1e+20
 24
1e+20
 34
1e+20
 15
-1e+20
 25
-1e+20
 35
-1e+20
146
0.0
 13
0.0
 23
0.0
 33
0.0
 16
1.0
 26
0.0
 36
0.0
 17
0.0
 27
1.0
 37
0.0
 76
1
330
1B
  0
MATERIAL
  5
1F
102
{ACAD_REACTORS
330
E
102
}
330
E
100
AcDbMaterial
  1
ByBlock
  2

 70
0
 40
1.0
 71
1
 41
1.0
 91
-1023410177
 42
1.0
 72
1
  3

 73
1
 74
1
 75
1
 44
0.5
 73
0
 45
1.0
 46
1.0
 77
1
  4

 78
1
 79
1
170
1
 48
1.0
171
1
  6

172
1
173
1
174
1
140
1.0
141
1.0
175
1
  7

176
1
177
1
178
1
143
1.0
179
1
  8

270
1
271
1
272
1
145
1.0
146
1.0
273
1
  9

274
1
275
1
276
1
 42
1.0
 72
1
  3

 73
1
 74
1
 75
1
 94
63
  0
MATERIAL
  5
20
102
{ACAD_REACTORS
330
E
102
}
330
E
100
AcDbMaterial
  1
ByLayer
  2

 70
0
 40
1.0
 71
1
 41
1.0
 91
-1023410177
 42
1.0
 72
1
  3

 73
1
 74
1
 75
1
 44
0.5
 73
0
 45
1.0
 46
1.0
 77
1
  4

 78
1
 79
1
170
1
 48
1.0
171
1
  6

172
1
173
1
174
1
140
1.0
141
1.0
175
1
  7

176
1
177
1
178
1
143
1.0
179
1
  8

270
1
271
1
272
1
145
1.0
146
1.0
273
1
  9

274
1
275
1
276
1
 42
1.0
 72
1
  3

 73
1
 74
1
 75
1
 94
63
  0
MATERIAL
  5
21
102
{ACAD_REACTORS
330
E
102
}
330
E
100
AcDbMaterial
  1
Global
  2

 70
0
 40
1.0
 71
1
 41
1.0
 91
-1023410177
 42
1.0
 72
1
  3

 73
1
 74
1
 75
1
 44
0.5
 73
0
 45
1.0
 46
1.0
 77
1
  4

 78
1
 79
1
170
1
 48
1.0
171
1
  6

172
1
173
1
174
1
140
1.0
141
1.0
175
1
  7

176
1
177
1
178
1
143
1.0
179
1
  8

270
1
271
1
272
1
145
1.0
146
1.0
273
1
  9

274
1
275
1
276
1
 42
1.0
 72
1
  3

 73
1
 74
1
 75
1
 94
63
  0
MLINESTYLE
  5
22
102
{ACAD_REACTORS
330
10
102
}
330
10
100
AcDbMlineStyle
  2
Standard
 70
0
  3

 62
256
 51
90.0
 52
90.0
 71
2
 49
0.5
 62
256
  6
BYLAYER
 49
-0.5
 62
256
  6
BYLAYER
  0
MLEADERSTYLE
  5
2C
102
{ACAD_REACTORS
330
F
102
}
330
F
100
AcDbMLeaderStyle
179
2
170
2
171
1
172
0
 90
2
 40
0.0
 41
0.0
173
1
 91
-1056964608
 92
-2
290
1
 42
2.0
291
1
 43
8.0
  3
Standard
 44
4.0
300

342
29
174
1
175
1
176
0
178
1
 93
-1056964608
 45
4.0
292
0
297
0
 46
4.0
 94
-1056964608
 47
1.0
 49
1.0
140
1.0
294
1
141
0.0
177
0
142
1.0
295
0
296
0
143
3.75
271
0
272
9
273
9
  0
DICTIONARY
  5
2D
330
A
100
AcDbDictionary
280
1
281
1
  3
CREATED_BY_EZDXF
350
2E
  3
WRITTEN_BY_EZDXF
350
11C
  0
DICTIONARYVAR
  5
2E
330
2D
100
DictionaryVariables
280
0
  1
1.4.4 @ 2026-09-10T18:24:17.126102+00:00
  0
DICTIONARYVAR
  5
11C
330
2D
100
DictionaryVariables
280
0
  1
1.4.4 @ 2026-09-10T18:24:17.147808+00:00
  0
ENDSEC
  0
EOF
