  0
SECTION
  2
HEADER
  9
$ACADVER
  1
AC1024
  9
$ACADMAINTVER
 70
6
  9
$DWGCODEPAGE
  3
ANSI_1252
  9
$LASTSAVEDBY
  1
ezdxf
  9
$INSBASE
 10
0.0
 20
0.0
 30
0.0
  9
$EXTMIN
 10
1e+20
 20
1e+20
 30
1e+20
  9
$EXTMAX
 10
-1e+20
 20
-1e+20
 30
-1e+20
  9
$LIMMIN
 10
0.0
 20
0.0
  9
$LIMMAX
 10
420.0
 20
297.0
  9
$ORTHOMODE
 70
0
  9
$REGENMODE
 70
1
  9
$FILLMODE
 70
1
  9
$QTEXTMODE
 70
0
  9
$MIRRTEXT
 70
1
  9
$LTSCALE
 40
1.0
  9
$ATTMODE
 70
1
  9
$TEXTSIZE
 40
2.5
  9
$TRACEWID
 40
1.0
  9
$TEXTSTYLE
  7
Standard
  9
$CLAYER
  8
0
  9
$CELTYPE
  6
ByLayer
  9
$CECOLOR
 62
256
  9
$CELTSCALE
 40
1.0
  9
$DISPSILH
 70
0
  9
$DIMSCALE
 40
1.0
  9
$DIMASZ
 40
2.5
  9
$DIMEXO
 40
0.625
  9
$DIMDLI
 40
3.75
  9
$DIMRND
 40
0.0
  9
$DIMDLE
 40
0.0
  9
$DIMEXE
 40
1.25
  9
$DIMTP
 40
0.0
  9
$DIMTM
 40
0.0
  9
$DIMTXT
 40
2.5
  9
$DIMCEN
 40
2.5
  9
$DIMTSZ
 40
0.0
  9
$DIMTOL
 70
0
  9
$DIMLIM
 70
0
  9
$DIMTIH
 70
0
  9
$DIMTOH
 70
0
  9
$DIMSE1
 70
0
  9
$DIMSE2
 70
0
  9
$DIMTAD
 70
1
  9
$DIMZIN
 70
8
  9
$DIMBLK
  1

  9
$DIMASO
 70
1
  9
$DIMSHO
 70
1
  9
$DIMPOST
  1

  9
$DIMAPOST
  1

  9
$DIMALT
 70
0
  9
$DIMALTD
 70
3
  9
$DIMALTF
 40
0.03937007874
  9
$DIMLFAC
 40
1.0
  9
$DIMTOFL
 70
1
  9
$DIMTVP
 40
0.0
  9
$DIMTIX
 70
0
  9
$DIMSOXD
 70
0
  9
$DIMSAH
 70
0
  9
$DIMBLK1
  1

  9
$DIMBLK2
  1

  9
$DIMSTYLE
  2
ISO-25
  9
$DIMCLRD
 70
0
  9
$DIMCLRE
 70
0
  9
$DIMCLRT
 70
0
  9
$DIMTFAC
 40
1.0
  9
$DIMGAP
 40
0.625
  9
$DIMJUST
 70
0
  9
$DIMSD1
 70
0
  9
$DIMSD2
 70
0
  9
$DIMTOLJ
 70
0
  9
$DIMTZIN
 70
8
  9
$DIMALTZ
 70
0
  9
$DIMALTTZ
 70
0
  9
$DIMUPT
 70
0
  9
$DIMDEC
 70
2
  9
$DIMTDEC
 70
2
  9
$DIMALTU
 70
2
  9
$DIMALTTD
 70
3
  9
$DIMTXSTY
  7
Standard
  9
$DIMAUNIT
 70
0
  9
$DIMADEC
 70
0
  9
$DIMALTRND
 40
0.0
  9
$DIMAZIN
 70
0
  9
$DIMDSEP
 70
44
  9
$DIMATFIT
 70
3
  9
$DIMFRAC
 70
0
  9
$DIMLDRBLK
  1

  9
$DIMLUNIT
 70
2
  9
$DIMLWD
 70
-2
  9
$DIMLWE
 70
-2
  9
$DIMTMOVE
 70
0
  9
$DIMFXL
 40
1.0
  9
$DIMFXLON
 70
0
  9
$DIMJOGANG
 40
0.785398163397
  9
$DIMTFILL
 70
0
  9
$DIMTFILLCLR
 70
0
  9
$DIMARCSYM
 70
0
  9
$DIMLTYPE
  6

  9
$DIMLTEX1
  6

  9
$DIMLTEX2
  6

  9
$DIMTXTDIRECTION
 70
0
  9
$LUNITS
 70
2
  9
$LUPREC
 70
4
  9
$SKETCHINC
 40
1.0
  9
$FILLETRAD
 40
10.0
  9
$AUNITS
 70
0
  9
$AUPREC
 70
2
  9
$MENU
  1
.
  9
$ELEVATION
 40
0.0
  9
$PELEVATION
 40
0.0
  9
$THICKNESS
 40
0.0
  9
$LIMCHECK
 70
0
  9
$CHAMFERA
 40
0.0
  9
$CHAMFERB
 40
0.0
  9
$CHAMFERC
 40
0.0
  9
$CHAMFERD
 40
0.0
  9
$SKPOLY
 70
0
  9
$TDCREATE
 40
2461294.6419675928
  9
$TDUCREATE
 40
2458532.153996898
  9
$TDUPDATE
 40
2461294.641979167
  9
$TDUUPDATE
 40
2458532.1544311
  9
$TDINDWG
 40
0.0
  9
$TDUSRTIMER
 40
0.0
  9
$USRTIMER
 70
1
  9
$ANGBASE
 50
0.0
  9
$ANGDIR
 70
0
  9
$PDMODE
 70
0
  9
$PDSIZE
 40
0.0
  9
$PLINEWID
 40
0.0
  9
$SPLFRAME
 70
0
  9
$SPLINETYPE
 70
6
  9
$SPLINESEGS
 70
8
  9
$HANDSEED
  5
EF
  9
$SURFTAB1
 70
6
  9
$SURFTAB2
 70
6
  9
$SURFTYPE
 70
6
  9
$SURFU
 70
6
  9
$SURFV
 70
6
  9
$UCSBASE
  2

  9
$UCSNAME
  2

  9
$UCSORG
 10
0.0
 20
0.0
 30
0.0
  9
$UCSXDIR
 10
1.0
 20
0.0
 30
0.0
  9
$UCSYDIR
 10
0.0
 20
1.0
 30
0.0
  9
$UCSORTHOREF
  2

  9
$UCSORTHOVIEW
 70
0
  9
$UCSORGTOP
 10
0.0
 20
0.0
 30
0.0
  9
$UCSORGBOTTOM
 10
0.0
 20
0.0
 30
0.0
  9
$UCSORGLEFT
 10
0.0
 20
0.0
 30
0.0
  9
$UCSORGRIGHT
 10
0.0
 20
0.0
 30
0.0
  9
$UCSORGFRONT
 10
0.0
 20
0.0
 30
0.0
  9
$UCSORGBACK
 10
0.0
 20
0.0
 30
0.0
  9
$PUCSBASE
  2

  9
$PUCSNAME
  2

  9
$PUCSORG
 10
0.0
 20
0.0
 30
0.0
  9
$PUCSXDIR
 10
1.0
 20
0.0
 30
0.0
  9
$PUCSYDIR
 10
0.0
 20
1.0
 30
0.0
  9
$PUCSORTHOREF
  2

  9
$PUCSORTHOVIEW
 70
0
  9
$PUCSORGTOP
 10
0.0
 20
0.0
 30
0.0
  9
$PUCSORGBOTTOM
 10
0.0
 20
0.0
 30
0.0
  9
$PUCSORGLEFT
 10
0.0
 20
0.0
 30
0.0
  9
$PUCSORGRIGHT
 10
0.0
 20
0.0
 30
0.0
  9
$PUCSORGFRONT
 10
0.0
 20
0.0
 30
0.0
  9
$PUCSORGBACK
 10
0.0
 20
0.0
 30
0.0
  9
$USERI1
 70
0
  9
$USERI2
 70
0
  9
$USERI3
 70
0
  9
$USERI4
 70
0
  9
$USERI5
 70
0
  9
$USERR1
 40
0.0
  9
$USERR2
 40
0.0
  9
$USERR3
 40
0.0
  9
$USERR4
 40
0.0
  9
$USERR5
 40
0.0
  9
$WORLDVIEW
 70
1
  9
$SHADEDGE
 70
3
  9
$SHADEDIF
 70
70
  9
$TILEMODE
 70
1
  9
$MAXACTVP
 70
64
  9
$PINSBASE
 10
0.0
 20
0.0
 30
0.0
  9
$PLIMCHECK
 70
0
  9
$PEXTMIN
 10
1e+20
 20
1e+20
 30
1e+20
  9
$PEXTMAX
 10
-1e+20
 20
-1e+20
 30
-1e+20
  9
$PLIMMIN
 10
0.0
 20
0.0
  9
$PLIMMAX
 10
420.0
 20
297.0
  9
$UNITMODE
 70
0
  9
$VISRETAIN
 70
1
  9
$PLINEGEN
 70
0
  9
$PSLTSCALE
 70
1
  9
$TREEDEPTH
 70
3020
  9
$CMLSTYLE
  2
Standard
  9
$CMLJUST
 70
0
  9
$CMLSCALE
 40
20.0
  9
$PROXYGRAPHICS
 70
1
  9
$MEASUREMENT
 70
1
  9
$CELWEIGHT
370
-1
  9
$ENDCAPS
280
0
  9
$JOINSTYLE
280
0
  9
$LWDISPLAY
290
0
  9
$INSUNITS
 70
6
  9
$HYPERLINKBASE
  1

  9
$STYLESHEET
  1

  9
$XEDIT
290
1
  9
$CEPSNTYPE
380
0
  9
$PSTYLEMODE
290
1
  9
$FINGERPRINTGUID
  2
{93DBFB16-FAD2-4637-912A-A999F71CF951}
  9
$VERSIONGUID
  2
{3B9621C4-116F-482A-8317-4B8BB2FB4809}
  9
$EXTNAMES
290
1
  9
$PSVPSCALE
 40
0.0
  9
$OLESTARTUP
290
0
  9
$SORTENTS
280
127
  9
$INDEXCTL
280
0
  9
$HIDETEXT
280
1
  9
$XCLIPFRAME
280
1
  9
$HALOGAP
280
0
  9
$OBSCOLOR
 70
257
  9
$OBSLTYPE
280
0
  9
$INTERSECTIONDISPLAY
280
0
  9
$INTERSECTIONCOLOR
 70
257
  9
$DIMASSOC
280
2
  9
$PROJECTNAME
  1

  9
$CAMERADISPLAY
290
0
  9
$LENSLENGTH
 40
50.0
  9
$CAMERAHEIGHT
 40
0.0
  9
$STEPSPERSEC
 40
24.0
  9
$STEPSIZE
 40
100.0
  9
$3DDWFPREC
 40
2.0
  9
$PSOLWIDTH
 40
0.005
  9
$PSOLHEIGHT
 40
0.08
  9
$LOFTANG1
 40
1.570796326795
  9
$LOFTANG2
 40
1.570796326795
  9
$LOFTMAG1
 40
0.0
  9
$LOFTMAG2
 40
0.0
  9
$LOFTPARAM
 70
7
  9
$LOFTNORMALS
280
1
  9
$LATITUDE
 40
37.795
  9
$LONGITUDE
 40
-122.394
  9
$NORTHDIRECTION
 40
0.0
  9
$TIMEZONE
 70
-8000
  9
$LIGHTGLYPHDISPLAY
280
1
  9
$TILEMODELIGHTSYNCH
280
1
  9
$CMATERIAL
347
20
  9
$SOLIDHIST
280
0
  9
$SHOWHIST
280
1
  9
$DWFFRAME
280
2
  9
$DGNFRAME
280
2
  9
$REALWORLDSCALE
290
1
  9
$INTERFERECOLOR
 62
256
  9
$CSHADOW
280
0
  9
$SHADOWPLANELOCATION
 40
0.0
  0
ENDSEC
  0
SECTION
  2
CLASSES
  0
CLASS
  1
ACDBDICTIONARYWDFLT
  2
AcDbDictionaryWithDefault
  3
ObjectDBX Classes
 90
0
 91
0
280
0
281
0
  0
CLASS
  1
SUN
  2
AcDbSun
  3
SCENEOE
 90
1153
 91
0
280
0
281
0
  0
CLASS
  1
VISUALSTYLE
  2
AcDbVisualStyle
  3
ObjectDBX Classes
 90
4095
 91
0
280
0
281
0
  0
CLASS
  1
MATERIAL
  2
AcDbMaterial
  3
ObjectDBX Classes
 90
1153
 91
0
280
0
281
0
  0
CLASS
  1
SCALE
  2
AcDbScale
  3
ObjectDBX Classes
 90
1153
 91
0
280
0
281
0
  0
CLASS
  1
TABLESTYLE
  2
AcDbTableStyle
  3
ObjectDBX Classes
 90
4095
 91
0
280
0
281
0
  0
CLASS
  1
MLEADERSTYLE
  2
AcDbMLeaderStyle
  3
ACDB_MLEADERSTYLE_CLASS
 90
4095
 91
0
280
0
281
0
  0
CLASS
  1
DICTIONARYVAR
  2
AcDbDictionaryVar
  3
ObjectDBX Classes
 90
0
 91
0
280
0
281
0
  0
CLASS
  1
CELLSTYLEMAP
  2
AcDbCellStyleMap
  3
ObjectDBX Classes
 90
1152
 91
0
280
0
281
0
  0
CLASS
  1
MENTALRAYRENDERSETTINGS
  2
AcDbMentalRayRenderSettings
  3
SCENEOE
 90
1024
 91
0
280
0
281
0
  0
CLASS
  1
ACDBDETAILVIEWSTYLE
  2
AcDbDetailViewStyle
  3
ObjectDBX Classes
 90
1025
 91
0
280
0
281
0
  0
CLASS
  1
ACDBSECTIONVIEWSTYLE
  2
AcDbSectionViewStyle
  3
ObjectDBX Classes
 90
1025
 91
0
280
0
281
0
  0
CLASS
  1
RASTERVARIABLES
  2
AcDbRasterVariables
  3
ISM
 90
0
 91
0
280
0
281
0
  0
CLASS
  1
ACDBPLACEHOLDER
  2
AcDbPlaceHolder
  3
ObjectDBX Classes
 90
0
 91
0
280
0
281
0
  0
CLASS
  1
LAYOUT
  2
AcDbLayout
  3
ObjectDBX Classes
 90
0
 91
0
280
0
281
0
  0
ENDSEC
  0
SECTION
  2
TABLES
  0
TABLE
  2
VPORT
  5
8
330
0
100
AcDbSymbolTable
 70
1
  0
VPORT
  5
23
330
8
100
AcDbSymbolTableRecord
100
AcDbViewportTableRecord
  2
*Active
 70
0
 10
0.0
 20
0.0
 11
1.0
 21
1.0
 12
0.0
 22
0.0
 13
0.0
 23
0.0
 14
0.5
 24
0.5
 15
0.5
 25
0.5
 16
0.0
 26
0.0
 36
1.0
 17
0.0
 27
0.0
 37
0.0
 40
1000.0
 41
1.34
 42
50.0
 43
0.0
 44
0.0
 50
0.0
 51
0.0
 71
0
 72
1000
 73
1
 74
3
 75
0
 76
0
 77
0
 78
0
281
0
 65
0
146
0.0
  0
ENDTAB
  0
TABLE
  2
LTYPE
  5
2
330
0
100
AcDbSymbolTable
 70
3
  0
LTYPE
  5
24
330
2
100
AcDbSymbolTableRecord
100
AcDbLinetypeTableRecord
  2
ByBlock
 70
0
  3

 72
65
 73
0
 40
0.0
  0
LTYPE
  5
25
330
2
100
AcDbSymbolTableRecord
100
AcDbLinetypeTableRecord
  2
ByLayer
 70
0
  3

 72
65
 73
0
 40
0.0
  0
LTYPE
  5
26
330
2
100
AcDbSymbolTableRecord
100
AcDbLinetypeTableRecord
  2
Continuous
 70
0
  3

 72
65
 73
0
 40
0.0
  0
ENDTAB
  0
TABLE
  2
LAYER
  5
1
330
0
100
AcDbSymbolTable
 70
8
  0
LAYER
  5
27
330
1
100
AcDbSymbolTableRecord
100
AcDbLayerTableRecord
  2
0
 70
0
 62
7
  6
Continuous
370
-3
390
13
347
21
  0
LAYER
  5
28
330
1
100
AcDbSymbolTableRecord
100
AcDbLayerTableRecord
  2
Defpoints
 70
0
 62
7
  6
Continuous
290
0
370
-3
390
13
347
21
  0
LAYER
  5
2F
330
1
100
AcDbSymbolTableRecord
100
AcDbLayerTableRecord
  2
CORTE
 70
0
 62
7
  6
Continuous
370
-3
390
13
347
21
  0
LAYER
  5
30
330
1
100
AcDbSymbolTableRecord
100
AcDbLayerTableRecord
  2
VISTA
 70
0
 62
8
  6
Continuous
370
-3
390
13
347
21
  0
LAYER
  5
31
330
1
100
AcDbSymbolTableRecord
100
AcDbLayerTableRecord
  2
COTAS
 70
0
 62
4
  6
Continuous
370
-3
390
13
347
21
  0
LAYER
  5
32
330
1
100
AcDbSymbolTableRecord
100
AcDbLayerTableRecord
  2
TEXTOS
 70
0
 62
7
  6
Continuous
370
-3
390
13
347
21
  0
LAYER
  5
33
330
1
100
AcDbSymbolTableRecord
100
AcDbLayerTableRecord
  2
EJES
 70
0
 62
3
  6
Continuous
370
-3
390
13
347
21
  0
LAYER
  5
34
330
1
100
AcDbSymbolTableRecord
100
AcDbLayerTableRecord
  2
SISTEMAS
 70
0
 62
5
  6
Continuous
370
-3
390
13
347
21
  0
ENDTAB
  0
TABLE
  2
STYLE
  5
5
330
0
100
AcDbSymbolTable
 70
1
  0
STYLE
  5
29
330
5
100
AcDbSymbolTableRecord
100
AcDbTextStyleTableRecord
  2
Standard
 70
0
 40
0.0
 41
1.0
 50
0.0
 71
0
 42
2.5
  3
txt
  4

  0
ENDTAB
  0
TABLE
  2
VIEW
  5
7
330
0
100
AcDbSymbolTable
 70
0
  0
ENDTAB
  0
TABLE
  2
UCS
  5
6
330
0
100
AcDbSymbolTable
 70
0
  0
ENDTAB
  0
TABLE
  2
APPID
  5
3
330
0
100
AcDbSymbolTable
 70
3
  0
APPID
  5
2A
330
3
100
AcDbSymbolTableRecord
100
AcDbRegAppTableRecord
  2
ACAD
 70
0
  0
APPID
  5
EC
330
3
100
AcDbSymbolTableRecord
100
AcDbRegAppTableRecord
  2
HATCHBACKGROUNDCOLOR
 70
0
  0
APPID
  5
ED
330
3
100
AcDbSymbolTableRecord
100
AcDbRegAppTableRecord
  2
EZDXF
 70
0
  0
ENDTAB
  0
TABLE
  2
DIMSTYLE
  5
4
330
0
100
AcDbSymbolTable
 70
1
100
AcDbDimStyleTable
  0
DIMSTYLE
105
2B
330
4
100
AcDbSymbolTableRecord
100
AcDbDimStyleTableRecord
  2
Standard
 70
0
 40
1.0
 41
2.5
 42
0.625
 43
3.75
 44
1.25
 45
0.0
 46
0.0
 47
0.0
 48
0.0
 49
2.5
140
2.5
141
2.5
142
0.0
143
0.03937007874
144
1.0
145
0.0
146
1.0
147
0.625
148
0.0
 69
0
 70
0
 71
0
 72
0
 73
0
 74
0
 75
0
 76
0
 77
1
 78
8
 79
3
170
0
171
3
172
1
173
0
174
0
175
0
176
0
177
0
178
0
179
2
271
2
272
2
273
2
274
3
275
0
276
0
277
2
278
44
279
0
280
0
281
0
282
0
283
0
284
8
285
0
286
0
288
0
289
3
290
0
371
-2
372
-2
  0
ENDTAB
  0
TABLE
  2
BLOCK_RECORD
  5
9
330
0
100
AcDbSymbolTable
 70
7
  0
BLOCK_RECORD
  5
17
330
9
100
AcDbSymbolTableRecord
100
AcDbBlockTableRecord
  2
*Model_Space
340
1A
 70
0
280
1
281
0
  0
BLOCK_RECORD
  5
1B
330
9
100
AcDbSymbolTableRecord
100
AcDbBlockTableRecord
  2
*Paper_Space
340
1E
 70
0
280
1
281
0
  0
BLOCK_RECORD
  5
5D
330
9
100
AcDbSymbolTableRecord
100
AcDbBlockTableRecord
  2
*D1
340
0
 70
0
280
1
281
0
  0
BLOCK_RECORD
  5
62
330
9
100
AcDbSymbolTableRecord
100
AcDbBlockTableRecord
  2
_CLOSEDFILLED
340
0
 70
0
280
1
281
0
  0
BLOCK_RECORD
  5
71
330
9
100
AcDbSymbolTableRecord
100
AcDbBlockTableRecord
  2
*D2
340
0
 70
0
280
1
281
0
  0
BLOCK_RECORD
  5
81
330
9
100
AcDbSymbolTableRecord
100
AcDbBlockTableRecord
  2
*D3
340
0
 70
0
280
1
281
0
  0
BLOCK_RECORD
  5
91
330
9
100
AcDbSymbolTableRecord
100
AcDbBlockTableRecord
  2
*D4
340
0
 70
0
280
1
281
0
  0
ENDTAB
  0
ENDSEC
  0
SECTION
  2
BLOCKS
  0
BLOCK
  5
18
330
17
100
AcDbEntity
  8
0
100
AcDbBlockBegin
  2
*Model_Space
 70
0
 10
0.0
 20
0.0
 30
0.0
  3
*Model_Space
  1

  0
ENDBLK
  5
19
330
17
100
AcDbEntity
  8
0
100
AcDbBlockEnd
  0
BLOCK
  5
1C
330
1B
100
AcDbEntity
  8
0
100
AcDbBlockBegin
  2
*Paper_Space
 70
0
 10
0.0
 20
0.0
 30
0.0
  3
*Paper_Space
  1

  0
ENDBLK
  5
1D
330
1B
100
AcDbEntity
  8
0
100
AcDbBlockEnd
  0
BLOCK
  5
5E
330
5D
100
AcDbEntity
  8
0
100
AcDbBlockBegin
  2
*D1
 70
1
 10
0.0
 20
0.0
 30
0.0
  3
*D1
  1

  0
LINE
  5
60
330
5D
100
AcDbEntity
  8
0
100
AcDbLine
 10
173.7
 20
0.0
 30
0.0
 11
173.7
 21
0.55
 31
0.0
  0
LINE
  5
61
330
5D
100
AcDbEntity
  8
0
100
AcDbLine
 10
182.3
 20
0.0
 30
0.0
 11
182.3
 21
0.55
 31
0.0
  0
INSERT
  5
66
330
5D
100
AcDbEntity
  8
COTAS
100
AcDbBlockReference
  2
_CLOSEDFILLED
 10
173.7
 20
0.55
 30
0.0
 41
0.09
 42
0.09
 50
180.0
  0
INSERT
  5
68
330
5D
100
AcDbEntity
  8
COTAS
100
AcDbBlockReference
  2
_CLOSEDFILLED
 10
182.3
 20
0.55
 30
0.0
 41
0.09
 42
0.09
  0
LINE
  5
6A
330
5D
100
AcDbEntity
  8
0
100
AcDbLine
 10
173.79
 20
0.55
 30
0.0
 11
177.805
 21
0.55
 31
0.0
  0
LINE
  5
6B
330
5D
100
AcDbEntity
  8
0
100
AcDbLine
 10
178.195
 20
0.55
 30
0.0
 11
182.21
 21
0.55
 31
0.0
  0
MTEXT
  5
6C
330
5D
100
AcDbEntity
  8
COTAS
100
AcDbMText
 10
178.0
 20
0.55
 30
0.0
 40
0.13
 71
5
  1
8,6
  0
POINT
  5
6D
330
5D
100
AcDbEntity
  8
Defpoints
100
AcDbPoint
 10
173.7
 20
0.55
 30
0.0
  0
POINT
  5
6E
330
5D
100
AcDbEntity
  8
Defpoints
100
AcDbPoint
 10
173.7
 20
0.0
 30
0.0
  0
POINT
  5
6F
330
5D
100
AcDbEntity
  8
Defpoints
100
AcDbPoint
 10
182.3
 20
0.0
 30
0.0
  0
ENDBLK
  5
5F
330
5D
100
AcDbEntity
  8
0
100
AcDbBlockEnd
  0
BLOCK
  5
63
330
62
100
AcDbEntity
  8
0
100
AcDbBlockBegin
  2
_CLOSEDFILLED
 70
0
 10
0.0
 20
0.0
 30
0.0
  3
_CLOSEDFILLED
  1

  0
SOLID
  5
65
330
62
100
AcDbEntity
  8
0
  6
BYBLOCK
 62
0
100
AcDbTrace
 10
-1.0
 20
0.16439898372402537
 30
0.0
 11
0.0
 21
0.0
 31
0.0
 12
-1.0
 22
-0.16439898372402537
 32
0.0
 13
-1.0
 23
-0.16439898372402537
 33
0.0
  0
ENDBLK
  5
64
330
62
100
AcDbEntity
  8
0
100
AcDbBlockEnd
  0
BLOCK
  5
72
330
71
100
AcDbEntity
  8
0
100
AcDbBlockBegin
  2
*D2
 70
1
 10
0.0
 20
0.0
 30
0.0
  3
*D2
  1

  0
LINE
  5
74
330
71
100
AcDbEntity
  8
0
100
AcDbLine
 10
182.0
 20
0.0
 30
0.0
 11
183.0
 21
0.0
 31
0.0
  0
LINE
  5
75
330
71
100
AcDbEntity
  8
0
100
AcDbLine
 10
182.0
 20
-6.0
 30
0.0
 11
183.0
 21
-6.0
 31
0.0
  0
INSERT
  5
76
330
71
100
AcDbEntity
  8
COTAS
100
AcDbBlockReference
  2
_CLOSEDFILLED
 10
183.0
 20
0.0
 30
0.0
 41
0.09
 42
0.09
 50
270.0
  0
INSERT
  5
78
330
71
100
AcDbEntity
  8
COTAS
100
AcDbBlockReference
  2
_CLOSEDFILLED
 10
183.0
 20
-6.0
 30
0.0
 41
0.09
 42
0.09
 50
90.0
  0
LINE
  5
7A
330
71
100
AcDbEntity
  8
0
100
AcDbLine
 10
183.0
 20
0.09
 30
0.0
 11
183.0
 21
-2.935
 31
0.0
  0
LINE
  5
7B
330
71
100
AcDbEntity
  8
0
100
AcDbLine
 10
183.0
 20
-3.065
 30
0.0
 11
183.0
 21
-6.09
 31
0.0
  0
MTEXT
  5
7C
330
71
100
AcDbEntity
  8
COTAS
100
AcDbMText
 10
183.0
 20
-3.0
 30
0.0
 40
0.13
 71
5
  1
6
 50
90.0
  0
POINT
  5
7D
330
71
100
AcDbEntity
  8
Defpoints
100
AcDbPoint
 10
183.0
 20
0.0
 30
0.0
  0
POINT
  5
7E
330
71
100
AcDbEntity
  8
Defpoints
100
AcDbPoint
 10
182.0
 20
0.0
 30
0.0
  0
POINT
  5
7F
330
71
100
AcDbEntity
  8
Defpoints
100
AcDbPoint
 10
182.0
 20
-6.0
 30
0.0
  0
ENDBLK
  5
73
330
71
100
AcDbEntity
  8
0
100
AcDbBlockEnd
  0
BLOCK
  5
82
330
81
100
AcDbEntity
  8
0
100
AcDbBlockBegin
  2
*D3
 70
1
 10
0.0
 20
0.0
 30
0.0
  3
*D3
  1

  0
LINE
  5
84
330
81
100
AcDbEntity
  8
0
100
AcDbLine
 10
182.0
 20
-6.0
 30
0.0
 11
183.0
 21
-6.0
 31
0.0
  0
LINE
  5
85
330
81
100
AcDbEntity
  8
0
100
AcDbLine
 10
182.0
 20
-12.0
 30
0.0
 11
183.0
 21
-12.0
 31
0.0
  0
INSERT
  5
86
330
81
100
AcDbEntity
  8
COTAS
100
AcDbBlockReference
  2
_CLOSEDFILLED
 10
183.0
 20
-6.0
 30
0.0
 41
0.09
 42
0.09
 50
270.0
  0
INSERT
  5
88
330
81
100
AcDbEntity
  8
COTAS
100
AcDbBlockReference
  2
_CLOSEDFILLED
 10
183.0
 20
-12.0
 30
0.0
 41
0.09
 42
0.09
 50
90.0
  0
LINE
  5
8A
330
81
100
AcDbEntity
  8
0
100
AcDbLine
 10
183.0
 20
-5.91
 30
0.0
 11
183.0
 21
-8.935
 31
0.0
  0
LINE
  5
8B
330
81
100
AcDbEntity
  8
0
100
AcDbLine
 10
183.0
 20
-9.065
 30
0.0
 11
183.0
 21
-12.09
 31
0.0
  0
MTEXT
  5
8C
330
81
100
AcDbEntity
  8
COTAS
100
AcDbMText
 10
183.0
 20
-9.0
 30
0.0
 40
0.13
 71
5
  1
6
 50
90.0
  0
POINT
  5
8D
330
81
100
AcDbEntity
  8
Defpoints
100
AcDbPoint
 10
183.0
 20
-6.0
 30
0.0
  0
POINT
  5
8E
330
81
100
AcDbEntity
  8
Defpoints
100
AcDbPoint
 10
182.0
 20
-6.0
 30
0.0
  0
POINT
  5
8F
330
81
100
AcDbEntity
  8
Defpoints
100
AcDbPoint
 10
182.0
 20
-12.0
 30
0.0
  0
ENDBLK
  5
83
330
81
100
AcDbEntity
  8
0
100
AcDbBlockEnd
  0
BLOCK
  5
92
330
91
100
AcDbEntity
  8
0
100
AcDbBlockBegin
  2
*D4
 70
1
 10
0.0
 20
0.0
 30
0.0
  3
*D4
  1

  0
LINE
  5
94
330
91
100
AcDbEntity
  8
0
100
AcDbLine
 10
173.7
 20
-12.0
 30
0.0
 11
173.7
 21
-12.8
 31
0.0
  0
LINE
  5
95
330
91
100
AcDbEntity
  8
0
100
AcDbLine
 10
174.0
 20
-12.0
 30
0.0
 11
174.0
 21
-12.8
 31
0.0
  0
INSERT
  5
96
330
91
100
AcDbEntity
  8
COTAS
100
AcDbBlockReference
  2
_CLOSEDFILLED
 10
173.7
 20
-12.8
 30
0.0
 41
0.09
 42
0.09
  0
INSERT
  5
98
330
91
100
AcDbEntity
  8
COTAS
100
AcDbBlockReference
  2
_CLOSEDFILLED
 10
174.0
 20
-12.8
 30
0.0
 41
0.09
 42
0.09
 50
180.0
  0
LINE
  5
9A
330
91
100
AcDbEntity
  8
0
100
AcDbLine
 10
173.60999999999999
 20
-12.8
 30
0.0
 11
173.51999999999998
 21
-12.8
 31
0.0
  0
LINE
  5
9B
330
91
100
AcDbEntity
  8
0
100
AcDbLine
 10
174.09
 20
-12.8
 30
0.0
 11
174.18
 21
-12.8
 31
0.0
  0
LINE
  5
9C
330
91
100
AcDbEntity
  8
0
100
AcDbLine
 10
173.7
 20
-12.8
 30
0.0
 11
174.0
 21
-12.8
 31
0.0
  0
MTEXT
  5
9D
330
91
100
AcDbEntity
  8
COTAS
100
AcDbMText
 10
173.85
 20
-12.110000000000001
 30
0.0
 40
0.13
 71
5
  1
0,3
  0
POINT
  5
9E
330
91
100
AcDbEntity
  8
Defpoints
100
AcDbPoint
 10
173.7
 20
-12.8
 30
0.0
  0
POINT
  5
9F
330
91
100
AcDbEntity
  8
Defpoints
100
AcDbPoint
 10
173.7
 20
-12.0
 30
0.0
  0
POINT
  5
A0
330
91
100
AcDbEntity
  8
Defpoints
100
AcDbPoint
 10
174.0
 20
-12.0
 30
0.0
  0
ENDBLK
  5
93
330
91
100
AcDbEntity
  8
0
100
AcDbBlockEnd
  0
ENDSEC
  0
SECTION
  2
ENTITIES
  0
LWPOLYLINE
  5
35
330
17
100
AcDbEntity
  8
VISTA
100
AcDbPolyline
 90
26
 70
1
 10
172.520009
 20
-13.360027
 10
172.523001
 20
-13.404138
 10
172.532864
 20
-13.446556
 10
172.551095
 20
-13.486479
 10
172.578438
 20
-13.521573
 10
172.613531
 20
-13.548914
 10
172.653453
 20
-13.567145
 10
172.695872
 20
-13.577008
 10
172.739978
 20
-13.58
 10
181.65
 20
-13.58
 10
181.65
 20
-13.42
 10
172.740018
 20
-13.42
 10
172.704045
 20
-13.415355
 10
172.695843
 20
-13.411713
 10
172.688279
 20
-13.40415
 10
172.681376
 20
-13.381494
 10
172.679992
 20
-13.359982
 10
172.679992
 20
-0.758242
 10
172.663733
 20
-0.718541
 10
172.661528
 20
-0.7
 10
172.664377
 20
-0.681459
 10
172.679992
 20
-0.642131
 10
172.679992
 20
-0.099961
 10
172.598824
 20
-0.097335
 10
172.520009
 20
-0.100039
 10
172.520009
 20
-13.360027
  0
LWPOLYLINE
  5
36
330
17
100
AcDbEntity
  8
VISTA
100
AcDbPolyline
 90
4
 70
1
 10
172.55339378166187
 20
-13.485303145834516
 10
172.55339378166187
 20
-13.485303145834514
 10
172.55339378166187
 20
-13.485303145834516
 10
172.55339378166187
 20
-13.485303145834516
  0
LWPOLYLINE
  5
37
330
17
100
AcDbEntity
  8
VISTA
100
AcDbPolyline
 90
25
 70
1
 10
181.713316
 20
-12.2785
 10
181.725554
 20
-12.294447
 10
181.741501
 20
-12.306684
 10
181.760071
 20
-12.314376
 10
181.780001
 20
-12.316999
 10
181.79993100000002
 20
-12.314376
 10
181.818501
 20
-12.306684
 10
181.834448
 20
-12.294447
 10
181.846685
 20
-12.2785
 10
181.854378
 20
-12.259929
 10
181.857
 20
-12.24
 10
181.854378
 20
-12.220071
 10
181.846685
 20
-12.2015
 10
181.834448
 20
-12.185553
 10
181.818501
 20
-12.173316
 10
181.79993100000002
 20
-12.165624
 10
181.780001
 20
-12.163
 10
181.760071
 20
-12.165624
 10
181.741501
 20
-12.173316
 10
181.725554
 20
-12.185553
 10
181.713316
 20
-12.2015
 10
181.705624
 20
-12.220071
 10
181.703001
 20
-12.24
 10
181.705624
 20
-12.259929
 10
181.713316
 20
-12.2785
  0
LWPOLYLINE
  5
38
330
17
100
AcDbEntity
  8
VISTA
100
AcDbPolyline
 90
25
 70
1
 10
181.717648
 20
-12.276
 10
181.710455
 20
-12.258635
 10
181.708
 20
-12.24
 10
181.710455
 20
-12.221365
 10
181.717648
 20
-12.204
 10
181.72908999999999
 20
-12.189088
 10
181.744001
 20
-12.177646
 10
181.761366
 20
-12.170453
 10
181.780001
 20
-12.168
 10
181.798635
 20
-12.170453
 10
181.816
 20
-12.177646
 10
181.830912
 20
-12.189088
 10
181.842354
 20
-12.204
 10
181.849546
 20
-12.221365
 10
181.852001
 20
-12.24
 10
181.849546
 20
-12.258635
 10
181.842354
 20
-12.276
 10
181.830912
 20
-12.290912
 10
181.816
 20
-12.302354
 10
181.798635
 20
-12.309546
 10
181.780001
 20
-12.311999
 10
181.761366
 20
-12.309546
 10
181.744001
 20
-12.302354
 10
181.72908999999999
 20
-12.290912
 10
181.717648
 20
-12.276
  0
LWPOLYLINE
  5
39
330
17
100
AcDbEntity
  8
VISTA
100
AcDbPolyline
 90
22
 70
1
 10
181.724789
 20
-12.388435
 10
181.71973
 20
-12.456546
 10
181.59561
 20
-13.493693
 10
181.640612
 20
-13.501378
 10
181.69953
 20
-13.50702
 10
181.70439
 20
-13.506307
 10
181.823671
 20
-12.514719
 10
181.834084
 20
-12.403858
 10
181.835001
 20
-12.08
 10
181.833126
 20
-12.065764
 10
181.827633
 20
-12.0525
 10
181.818892
 20
-12.041109
 10
181.807501
 20
-12.032369
 10
181.79423500000001
 20
-12.026874
 10
181.780001
 20
-12.025
 10
181.76576599999999
 20
-12.026874
 10
181.752501
 20
-12.032369
 10
181.74111
 20
-12.041109
 10
181.732368
 20
-12.0525
 10
181.726875
 20
-12.065764
 10
181.725
 20
-12.08
 10
181.724789
 20
-12.388435
  0
LWPOLYLINE
  5
3A
330
17
100
AcDbEntity
  8
VISTA
100
AcDbPolyline
 90
5
 70
1
 10
173.675
 20
-12.0
 10
173.675
 20
-12.16
 10
182.325001
 20
-12.16
 10
182.325001
 20
-12.0
 10
173.675
 20
-12.0
  0
LWPOLYLINE
  5
3B
330
17
100
AcDbEntity
  8
VISTA
100
AcDbPolyline
 90
21
 70
1
 10
181.747379
 20
-12.124901
 10
181.7351
 20
-12.112622
 10
181.727217
 20
-12.097151
 10
181.724501
 20
-12.08
 10
181.727217
 20
-12.062849
 10
181.7351
 20
-12.047378
 10
181.747379
 20
-12.035099
 10
181.76285000000001
 20
-12.027216
 10
181.780001
 20
-12.0245
 10
181.797152
 20
-12.027216
 10
181.812622
 20
-12.035099
 10
181.824902
 20
-12.047378
 10
181.832785
 20
-12.062849
 10
181.835501
 20
-12.08
 10
181.832785
 20
-12.097151
 10
181.824902
 20
-12.112622
 10
181.812622
 20
-12.124901
 10
181.797152
 20
-12.132784
 10
181.780001
 20
-12.1355
 10
181.76285000000001
 20
-12.132784
 10
181.747379
 20
-12.124901
  0
LWPOLYLINE
  5
3C
330
17
100
AcDbEntity
  8
VISTA
100
AcDbPolyline
 90
5
 70
1
 10
181.295292
 20
-10.653269
 10
181.624702
 20
-10.653269
 10
181.624706
 20
-10.326731
 10
181.296
 20
-10.326443
 10
181.295292
 20
-10.653269
  0
LWPOLYLINE
  5
3D
330
17
100
AcDbEntity
  8
VISTA
100
AcDbPolyline
 90
21
 70
1
 10
181.372501
 20
-10.461571
 10
181.385569
 20
-10.435924
 10
181.405922
 20
-10.41557
 10
181.43157
 20
-10.402503
 10
181.459999
 20
-10.398
 10
181.488428
 20
-10.402503
 10
181.514076
 20
-10.41557
 10
181.53443
 20
-10.435924
 10
181.547497
 20
-10.461571
 10
181.551998
 20
-10.49
 10
181.547497
 20
-10.51843
 10
181.53443
 20
-10.544076
 10
181.514076
 20
-10.564429
 10
181.488428
 20
-10.577497
 10
181.459999
 20
-10.582
 10
181.43157
 20
-10.577497
 10
181.405922
 20
-10.564429
 10
181.385569
 20
-10.544076
 10
181.372501
 20
-10.51843
 10
181.368
 20
-10.49
 10
181.372501
 20
-10.461571
  0
LWPOLYLINE
  5
3E
330
17
100
AcDbEntity
  8
VISTA
100
AcDbPolyline
 90
34
 70
1
 10
173.565388
 20
-0.705834
 10
173.568937
 20
-0.718278
 10
173.575966
 20
-0.729476
 10
173.585996
 20
-0.738665
 10
173.598343
 20
-0.745219
 10
173.612166
 20
-0.748692
 10
173.626523
 20
-0.748846
 10
173.640435
 20
-0.745672
 10
173.652955
 20
-0.739385
 10
173.663229
 20
-0.730414
 10
173.670557
 20
-0.71937
 10
173.674439
 20
-0.707007
 10
173.67492322898636
 20
0.02500089623821211
 10
173.8
 20
0.025
 10
173.814236
 20
0.026874
 10
173.8275
 20
0.032369
 10
173.838891
 20
0.041109
 10
173.847631
 20
0.0525
 10
173.853127
 20
0.065765
 10
173.855
 20
0.08
 10
173.853127
 20
0.094235
 10
173.847631
 20
0.1075
 10
173.838891
 20
0.118891
 10
173.8275
 20
0.127631
 10
173.814236
 20
0.133126
 10
173.8
 20
0.135
 10
173.647966
 20
0.133637
 10
173.62338
 20
0.127303
 10
173.601427
 20
0.114025
 10
173.589943
 20
0.102265
 10
173.576026
 20
0.080638
 10
173.57023900000002
 20
0.063935
 10
173.565114
 20
0.022277
 10
173.565388
 20
-0.705834
  0
LWPOLYLINE
  5
3F
330
17
100
AcDbEntity
  8
VISTA
100
AcDbPolyline
 90
8
 70
1
 10
181.997999
 20
-0.2
 10
182.0
 20
-0.198
 10
182.0
 20
-0.002
 10
181.997999
 20
0.0
 10
174.002
 20
0.0
 10
174.0
 20
-0.002
 10
174.000586
 20
-0.199414
 10
181.997999
 20
-0.2
  0
LWPOLYLINE
  5
40
330
17
100
AcDbEntity
  8
VISTA
100
AcDbPolyline
 90
5
 70
1
 10
173.675
 20
0.16
 10
173.675
 20
0.0
 10
182.325001
 20
0.0
 10
182.325001
 20
0.16
 10
173.675
 20
0.16
  0
LWPOLYLINE
  5
41
330
17
100
AcDbEntity
  8
VISTA
100
AcDbPolyline
 90
21
 70
1
 10
173.767378
 20
0.0351
 10
173.755099
 20
0.047378
 10
173.747216
 20
0.06285
 10
173.7445
 20
0.08
 10
173.747216
 20
0.09715
 10
173.755099
 20
0.112622
 10
173.767378
 20
0.1249
 10
173.782849
 20
0.132784
 10
173.8
 20
0.1355
 10
173.817151
 20
0.132784
 10
173.832623
 20
0.1249
 10
173.844901
 20
0.112622
 10
173.85278399999999
 20
0.09715
 10
173.8555
 20
0.08
 10
173.85278399999999
 20
0.06285
 10
173.844901
 20
0.047378
 10
173.832623
 20
0.0351
 10
173.817151
 20
0.027216
 10
173.8
 20
0.0245
 10
173.782849
 20
0.027216
 10
173.767378
 20
0.0351
  0
LWPOLYLINE
  5
42
330
17
100
AcDbEntity
  8
VISTA
100
AcDbPolyline
 90
8
 70
1
 10
182.308001
 20
-6.32
 10
182.309999
 20
-6.318
 10
182.309999
 20
-6.002
 10
182.308001
 20
-6.0
 10
173.691999
 20
-6.0
 10
173.690001
 20
-6.002
 10
173.690585
 20
-6.319414
 10
182.308001
 20
-6.32
  0
LWPOLYLINE
  5
43
330
17
100
AcDbEntity
  8
VISTA
100
AcDbPolyline
 90
5
 70
1
 10
182.299999
 20
-12.098443
 10
182.299999
 20
-5.921249
 10
173.7
 20
-5.921249
 10
173.7
 20
-12.098299
 10
182.299999
 20
-12.098443
  0
LWPOLYLINE
  5
44
330
17
100
AcDbEntity
  8
VISTA
100
AcDbPolyline
 90
21
 70
1
 10
181.394167
 20
-10.580611
 10
181.369389
 20
-10.555833
 10
181.353481
 20
-10.524611
 10
181.348
 20
-10.490001
 10
181.353481
 20
-10.455391
 10
181.369389
 20
-10.42417
 10
181.394167
 20
-10.399391
 10
181.425388
 20
-10.383483
 10
181.459999
 20
-10.378001
 10
181.49461
 20
-10.383483
 10
181.525831
 20
-10.399391
 10
181.55061
 20
-10.42417
 10
181.566517
 20
-10.455391
 10
181.571999
 20
-10.490001
 10
181.566517
 20
-10.524611
 10
181.55061
 20
-10.555833
 10
181.525831
 20
-10.580611
 10
181.49461
 20
-10.596519
 10
181.459999
 20
-10.602001
 10
181.425388
 20
-10.596519
 10
181.394167
 20
-10.580611
  0
LWPOLYLINE
  5
45
330
17
100
AcDbEntity
  8
VISTA
100
AcDbPolyline
 90
25
 70
1
 10
181.383196
 20
-10.530997
 10
181.39989500000001
 20
-10.550104
 10
181.4175
 20
-10.563612
 10
181.438
 20
-10.572104
 10
181.459999
 20
-10.575
 10
181.481998
 20
-10.572104
 10
181.502499
 20
-10.563612
 10
181.525297
 20
-10.544415
 10
181.533611
 20
-10.532499
 10
181.627546
 20
-10.328955
 10
181.630009
 20
-10.308638
 10
181.626335
 20
-10.288413
 10
181.616779
 20
-10.269661
 10
181.60010499999999
 20
-10.249896
 10
181.5825
 20
-10.236388
 10
181.562
 20
-10.227897
 10
181.540001
 20
-10.225
 10
181.518002
 20
-10.227897
 10
181.497501
 20
-10.236388
 10
181.474703
 20
-10.255585
 10
181.466389
 20
-10.267501
 10
181.372442
 20
-10.471387
 10
181.369976
 20
-10.491844
 10
181.373642
 20
-10.512177
 10
181.383196
 20
-10.530997
  0
LWPOLYLINE
  5
46
330
17
100
AcDbEntity
  8
VISTA
100
AcDbPolyline
 90
21
 70
1
 10
181.500172
 20
-10.613637
 10
181.536411
 20
-10.595172
 10
181.565172
 20
-10.566412
 10
181.583637
 20
-10.530172
 10
181.589998
 20
-10.49
 10
181.583637
 20
-10.449827
 10
181.565172
 20
-10.413588
 10
181.536411
 20
-10.384828
 10
181.500172
 20
-10.366363
 10
181.459999
 20
-10.36
 10
181.419827
 20
-10.366363
 10
181.383587
 20
-10.384828
 10
181.354826
 20
-10.413588
 10
181.336361
 20
-10.449827
 10
181.32999999999998
 20
-10.49
 10
181.336361
 20
-10.530172
 10
181.354826
 20
-10.566412
 10
181.383587
 20
-10.595172
 10
181.419827
 20
-10.613637
 10
181.459999
 20
-10.62
 10
181.500172
 20
-10.613637
  0
LWPOLYLINE
  5
47
330
17
100
AcDbEntity
  8
VISTA
100
AcDbPolyline
 90
5
 70
1
 10
181.32529399999999
 20
-5.373105
 10
181.674707
 20
-5.373105
 10
181.674707
 20
-5.026895
 10
181.325001
 20
-5.02759
 10
181.32529399999999
 20
-5.373105
  0
LWPOLYLINE
  5
48
330
17
100
AcDbEntity
  8
VISTA
100
AcDbPolyline
 90
21
 70
1
 10
181.392529
 20
-5.165081
 10
181.408579
 20
-5.13358
 10
181.433578
 20
-5.108581
 10
181.465078
 20
-5.09253
 10
181.499998
 20
-5.086999
 10
181.534918
 20
-5.09253
 10
181.566418
 20
-5.108581
 10
181.591417
 20
-5.13358
 10
181.607468
 20
-5.165081
 10
181.612999
 20
-5.199999
 10
181.607468
 20
-5.234919
 10
181.591417
 20
-5.266419
 10
181.566418
 20
-5.291419
 10
181.534918
 20
-5.307469
 10
181.499998
 20
-5.313
 10
181.465078
 20
-5.307469
 10
181.433578
 20
-5.291419
 10
181.408579
 20
-5.266419
 10
181.392529
 20
-5.234919
 10
181.386997
 20
-5.199999
 10
181.392529
 20
-5.165081
  0
LWPOLYLINE
  5
49
330
17
100
AcDbEntity
  8
VISTA
100
AcDbPolyline
 90
8
 70
1
 10
181.818001
 20
-6.08
 10
181.82
 20
-6.078
 10
181.82
 20
-5.922
 10
181.818001
 20
-5.92
 10
174.182
 20
-5.92
 10
174.18
 20
-5.922
 10
174.180586
 20
-6.079414
 10
181.818001
 20
-6.08
  0
LWPOLYLINE
  5
4A
330
17
100
AcDbEntity
  8
VISTA
100
AcDbPolyline
 90
5
 70
1
 10
181.270294
 20
-5.797204
 10
181.729708
 20
-5.797204
 10
181.729708
 20
-5.342796
 10
181.27
 20
-5.343492
 10
181.270294
 20
-5.797204
  0
LWPOLYLINE
  5
4B
330
17
100
AcDbEntity
  8
VISTA
100
AcDbPolyline
 90
21
 70
1
 10
181.34022099999999
 20
-5.518085
 10
181.364082
 20
-5.471252
 10
181.401251
 20
-5.434085
 10
181.448084
 20
-5.410223
 10
181.499998
 20
-5.402
 10
181.55191200000002
 20
-5.410223
 10
181.598745
 20
-5.434085
 10
181.635914
 20
-5.471252
 10
181.659775
 20
-5.518085
 10
181.667997
 20
-5.57
 10
181.659775
 20
-5.621915
 10
181.635914
 20
-5.668748
 10
181.598745
 20
-5.705915
 10
181.55191200000002
 20
-5.729778
 10
181.499998
 20
-5.738
 10
181.448084
 20
-5.729778
 10
181.401251
 20
-5.705915
 10
181.364082
 20
-5.668748
 10
181.34022099999999
 20
-5.621915
 10
181.331999
 20
-5.57
 10
181.34022099999999
 20
-5.518085
  0
LWPOLYLINE
  5
4C
330
17
100
AcDbEntity
  8
VISTA
100
AcDbPolyline
 90
8
 70
1
 10
182.308001
 20
-6.116
 10
182.309999
 20
-6.114
 10
182.309999
 20
-6.096
 10
182.308001
 20
-6.094
 10
173.691999
 20
-6.094
 10
173.690001
 20
-6.096
 10
173.690585
 20
-6.115414
 10
182.308001
 20
-6.116
  0
LWPOLYLINE
  5
4D
330
17
100
AcDbEntity
  8
VISTA
100
AcDbPolyline
 90
5
 70
1
 10
182.299999
 20
-6.078751
 10
182.299999
 20
0.098443
 10
173.7
 20
0.098443
 10
173.7
 20
-6.078751
 10
182.299999
 20
-6.078751
  0
LWPOLYLINE
  5
4E
330
17
100
AcDbEntity
  8
VISTA
100
AcDbPolyline
 90
21
 70
1
 10
181.459209
 20
-5.32554
 10
181.422413
 20
-5.30679
 10
181.393209
 20
-5.277588
 10
181.37446
 20
-5.24079
 10
181.368
 20
-5.2
 10
181.37446
 20
-5.15921
 10
181.393209
 20
-5.122412
 10
181.422413
 20
-5.09321
 10
181.459209
 20
-5.074461
 10
181.5
 20
-5.068
 10
181.540791
 20
-5.074461
 10
181.577587
 20
-5.09321
 10
181.606791
 20
-5.122412
 10
181.62554
 20
-5.15921
 10
181.632
 20
-5.2
 10
181.62554
 20
-5.24079
 10
181.606791
 20
-5.277588
 10
181.577587
 20
-5.30679
 10
181.540791
 20
-5.32554
 10
181.5
 20
-5.332
 10
181.459209
 20
-5.32554
  0
LWPOLYLINE
  5
4F
330
17
100
AcDbEntity
  8
VISTA
100
AcDbPolyline
 90
21
 70
1
 10
181.609917
 20
-5.418714
 10
181.651287
 20
-5.460084
 10
181.67784699999999
 20
-5.512214
 10
181.687
 20
-5.57
 10
181.67784699999999
 20
-5.627786
 10
181.651287
 20
-5.679916
 10
181.609917
 20
-5.721286
 10
181.557787
 20
-5.747848
 10
181.5
 20
-5.757
 10
181.442213
 20
-5.747848
 10
181.390083
 20
-5.721286
 10
181.348713
 20
-5.679916
 10
181.32215300000001
 20
-5.627786
 10
181.313
 20
-5.57
 10
181.32215300000001
 20
-5.512214
 10
181.348713
 20
-5.460084
 10
181.390083
 20
-5.418714
 10
181.442213
 20
-5.392152
 10
181.5
 20
-5.383
 10
181.557787
 20
-5.392152
 10
181.609917
 20
-5.418714
  0
LWPOLYLINE
  5
50
330
17
100
AcDbEntity
  8
VISTA
100
AcDbPolyline
 90
8
 70
1
 10
173.639999
 20
-6.0883
 10
173.64170000000001
 20
-6.09
 10
182.358299
 20
-6.09
 10
182.360001
 20
-6.0883
 10
182.360001
 20
-5.9117
 10
182.358299
 20
-5.91
 10
173.640716
 20
-5.910314
 10
173.639999
 20
-6.0883
  0
LWPOLYLINE
  5
51
330
17
100
AcDbEntity
  8
VISTA
100
AcDbPolyline
 90
34
 70
1
 10
181.055246
 20
-5.462803
 10
181.055258
 20
-6.567365
 10
181.159067
 20
-6.8025
 10
181.175755
 20
-6.824246
 10
181.1975
 20
-6.840933
 10
181.222824
 20
-6.851422
 10
181.25
 20
-6.855
 10
181.277176
 20
-6.851422
 10
181.3025
 20
-6.840933
 10
181.324245
 20
-6.824246
 10
181.340933
 20
-6.8025
 10
181.351421
 20
-6.777176
 10
181.355
 20
-6.75
 10
181.351421
 20
-6.722824
 10
181.344893
 20
-6.705051
 10
181.264742
 20
-6.552635
 10
181.26475299999998
 20
-5.477197
 10
181.31638826092308
 20
-5.333276442257769
 10
181.520592
 20
-5.302961
 10
181.5525
 20
-5.290933
 10
181.574245
 20
-5.274246
 10
181.590933
 20
-5.2525
 10
181.601421
 20
-5.227176
 10
181.605
 20
-5.2
 10
181.601421
 20
-5.172824
 10
181.590933
 20
-5.1475
 10
181.574245
 20
-5.125753
 10
181.5525
 20
-5.109067
 10
181.527176
 20
-5.098577
 10
181.5
 20
-5.095
 10
181.4767699475596
 20
-5.098057620605657
 10
181.479408
 20
-5.097039
 10
181.18470200000002
 20
-5.167773
 10
181.055246
 20
-5.462803
  0
LWPOLYLINE
  5
52
330
17
100
AcDbEntity
  8
VISTA
100
AcDbPolyline
 90
5
 70
1
 10
181.18443860754186
 20
-6.812763090329228
 10
181.25165297059777
 20
-6.8407823598070765
 10
181.226448
 20
-6.837899
 10
181.2045
 20
-6.828808
 10
181.18443860754186
 20
-6.812763090329228
  0
LWPOLYLINE
  5
53
330
17
100
AcDbEntity
  8
VISTA
100
AcDbPolyline
 90
14
 70
1
 10
181.564346
 20
-5.135653
 10
181.578808
 20
-5.1545
 10
181.5879
 20
-5.176447
 10
181.591
 20
-5.2
 10
181.5879
 20
-5.223552
 10
181.578808
 20
-5.2455
 10
181.57302473544604
 20
-5.2530367989938105
 10
181.578241
 20
-5.237891
 10
181.581112
 20
-5.211492
 10
181.57845700000001
 20
-5.184309
 10
181.570454
 20
-5.158195
 10
181.55765
 20
-5.13493
 10
181.5455
 20
-5.121192
 10
181.564346
 20
-5.135653
  0
LWPOLYLINE
  5
54
330
17
100
AcDbEntity
  8
VISTA
100
AcDbPolyline
 90
26
 70
1
 10
181.340059
 20
-5.675677
 10
181.330029
 20
-5.936924
 10
181.32999999999998
 20
-9.44
 10
181.65
 20
-9.44
 10
181.649971
 20
-5.943077
 10
181.659941
 20
-5.684323
 10
181.6551
 20
-5.661654
 10
181.64154129043953
 20
-5.642810631191576
 10
181.654549
 20
-5.611411
 10
181.66
 20
-5.57
 10
181.654549
 20
-5.528589
 10
181.638563
 20
-5.49
 10
181.613136
 20
-5.456863
 10
181.57999999999998
 20
-5.431436
 10
181.54140999999998
 20
-5.415452
 10
181.5
 20
-5.41
 10
181.45859000000002
 20
-5.415452
 10
181.42000000000002
 20
-5.431436
 10
181.386864
 20
-5.456863
 10
181.361437
 20
-5.49
 10
181.345451
 20
-5.528589
 10
181.34
 20
-5.57
 10
181.345451
 20
-5.611411
 10
181.3571350290968
 20
-5.6396153662465265
 10
181.346117
 20
-5.653303
 10
181.340059
 20
-5.675677
  0
LWPOLYLINE
  5
55
330
17
100
AcDbEntity
  8
VISTA
100
AcDbPolyline
 90
4
 70
1
 10
181.34448158155948
 20
-5.6963866677074915
 10
181.34448158155948
 20
-5.696386667707485
 10
181.346117
 20
-5.653303
 10
181.34448158155948
 20
-5.6963866677074915
  0
LWPOLYLINE
  5
56
330
17
100
AcDbEntity
  8
VISTA
100
AcDbPolyline
 90
12
 70
1
 10
181.5
 20
-5.430717
 10
181.537788
 20
-5.435463
 10
181.573
 20
-5.449378
 10
181.603237
 20
-5.471512
 10
181.62644
 20
-5.500359
 10
181.641026
 20
-5.533951
 10
181.64600000000002
 20
-5.57
 10
181.641026
 20
-5.60605
 10
181.63004183312074
 20
-5.631346869176447
 10
181.43088661253756
 20
-5.447842097084513
 10
181.462212
 20
-5.435463
 10
181.5
 20
-5.430717
  0
LWPOLYLINE
  5
57
330
17
100
AcDbEntity
  8
VISTA
100
AcDbPolyline
 90
4
 70
1
 10
181.36191111450924
 20
-5.652744374008213
 10
181.36191111450924
 20
-5.652744374008217
 10
181.36198733801186
 20
-5.65071721204622
 10
181.36191111450924
 20
-5.652744374008213
  0
LWPOLYLINE
  5
58
330
17
100
AcDbEntity
  8
VISTA
100
AcDbPolyline
 90
4
 70
1
 10
181.62644
 20
-5.497
 10
181.63654175517948
 20
-5.4911670967370805
 10
181.63654175517948
 20
-5.491167096737081
 10
181.62644
 20
-5.497
  0
LWPOLYLINE
  5
59
330
17
100
AcDbEntity
  8
VISTA
100
AcDbPolyline
 90
4
 70
1
 10
181.57816767551117
 20
-5.595923910806876
 10
181.614759
 20
-5.621527
 10
181.57816767551117
 20
-5.595923910806877
 10
181.57816767551117
 20
-5.595923910806876
  0
LWPOLYLINE
  5
5A
330
17
100
AcDbEntity
  8
VISTA
100
AcDbPolyline
 90
33
 70
1
 10
181.386864
 20
-5.086863
 10
181.366964
 20
-5.111109
 10
181.352179
 20
-5.138771
 10
181.343075
 20
-5.168786
 10
181.34
 20
-5.2
 10
181.343075
 20
-5.231214
 10
181.352179
 20
-5.261229
 10
181.366964
 20
-5.288891
 10
181.386864
 20
-5.313137
 10
181.411108
 20
-5.333035
 10
181.43877
 20
-5.34782
 10
181.468786
 20
-5.356925
 10
181.5
 20
-5.36
 10
181.531214
 20
-5.356925
 10
181.56123
 20
-5.34782
 10
181.588892
 20
-5.333035
 10
181.613136
 20
-5.313137
 10
181.633036
 20
-5.288891
 10
181.647821
 20
-5.261229
 10
181.656925
 20
-5.231214
 10
181.66
 20
-5.2
 10
181.656925
 20
-5.168786
 10
181.647821
 20
-5.138771
 10
181.633036
 20
-5.111109
 10
181.613136
 20
-5.086863
 10
181.588892
 20
-5.066965
 10
181.56123
 20
-5.052179
 10
181.531214
 20
-5.043074
 10
181.5
 20
-5.04
 10
181.468786
 20
-5.043074
 10
181.43877
 20
-5.052179
 10
181.411108
 20
-5.066965
 10
181.386864
 20
-5.086863
  0
LWPOLYLINE
  5
5B
330
17
100
AcDbEntity
  8
VISTA
100
AcDbPolyline
 90
33
 70
1
 10
181.347973
 20
-5.417972
 10
181.321234
 20
-5.450552
 10
181.301367
 20
-5.487723
 10
181.289131
 20
-5.528056
 10
181.285
 20
-5.57
 10
181.289131
 20
-5.611945
 10
181.301367
 20
-5.652277
 10
181.321234
 20
-5.689448
 10
181.347973
 20
-5.722028
 10
181.380552
 20
-5.748766
 10
181.417723
 20
-5.768634
 10
181.458055
 20
-5.780869
 10
181.5
 20
-5.785
 10
181.541945
 20
-5.780869
 10
181.582277
 20
-5.768634
 10
181.619448
 20
-5.748766
 10
181.652027
 20
-5.722028
 10
181.678766
 20
-5.689448
 10
181.698633
 20
-5.652277
 10
181.710869
 20
-5.611945
 10
181.715
 20
-5.57
 10
181.710869
 20
-5.528056
 10
181.698633
 20
-5.487723
 10
181.678766
 20
-5.450552
 10
181.652027
 20
-5.417972
 10
181.619448
 20
-5.391234
 10
181.582277
 20
-5.371366
 10
181.541945
 20
-5.359131
 10
181.5
 20
-5.355
 10
181.458055
 20
-5.359131
 10
181.417723
 20
-5.371366
 10
181.380552
 20
-5.391234
 10
181.347973
 20
-5.417972
  0
DIMENSION
  5
5C
330
17
100
AcDbEntity
  8
COTAS
100
AcDbDimension
280
0
  2
*D1
  3
Standard
 10
173.7
 20
0.55
 30
0.0
 11
178.0
 21
0.55
 31
0.0
 70
32
 71
5
  1
<>
100
AcDbAlignedDimension
 13
173.7
 23
0.0
 33
0.0
 14
182.3
 24
0.0
 34
0.0
 50
0.0
100
AcDbRotatedDimension
1001
ACAD
1000
DSTYLE
1002
{
1070
140
1040
0.13
1070
41
1040
0.09
1002
}
  0
DIMENSION
  5
70
330
17
100
AcDbEntity
  8
COTAS
100
AcDbDimension
280
0
  2
*D2
  3
Standard
 10
183.0
 20
0.0
 30
0.0
 11
183.0
 21
-3.0
 31
0.0
 70
32
 71
5
  1
<>
100
AcDbAlignedDimension
 13
182.0
 23
0.0
 33
0.0
 14
182.0
 24
-6.0
 34
0.0
 50
90.0
100
AcDbRotatedDimension
1001
ACAD
1000
DSTYLE
1002
{
1070
140
1040
0.13
1070
41
1040
0.09
1002
}
  0
DIMENSION
  5
80
330
17
100
AcDbEntity
  8
COTAS
100
AcDbDimension
280
0
  2
*D3
  3
Standard
 10
183.0
 20
-6.0
 30
0.0
 11
183.0
 21
-9.0
 31
0.0
 70
32
 71
5
  1
<>
100
AcDbAlignedDimension
 13
182.0
 23
-6.0
 33
0.0
 14
182.0
 24
-12.0
 34
0.0
 50
90.0
100
AcDbRotatedDimension
1001
ACAD
1000
DSTYLE
1002
{
1070
140
1040
0.13
1070
41
1040
0.09
1002
}
  0
DIMENSION
  5
90
330
17
100
AcDbEntity
  8
COTAS
100
AcDbDimension
280
0
  2
*D4
  3
Standard
 10
173.7
 20
-12.8
 30
0.0
 11
173.85
 21
-12.110000000000001
 31
0.0
 70
32
 71
5
  1
<>
100
AcDbAlignedDimension
 13
173.7
 23
-12.0
 33
0.0
 14
174.0
 24
-12.0
 34
0.0
 50
0.0
100
AcDbRotatedDimension
1001
ACAD
1000
DSTYLE
1002
{
1070
140
1040
0.13
1070
41
1040
0.09
1002
}
  0
TEXT
  5
A1
330
17
100
AcDbEntity
  8
TEXTOS
100
AcDbText
 10
177.6
 20
-2.65
 30
0.0
 40
0.155
  1
CUBIERTA ESTUDIO
100
AcDbText
  0
TEXT
  5
A2
330
17
100
AcDbEntity
  8
TEXTOS
100
AcDbText
 10
177.6
 20
-9.25
 30
0.0
 40
0.155
  1
CUBIERTA VIVIENDA
100
AcDbText
  0
LINE
  5
A3
330
17
100
AcDbEntity
  8
VISTA
100
AcDbLine
 10
178.0
 20
-4.5
 30
0.0
 11
178.0
 21
-1.0
 31
0.0
  0
LWPOLYLINE
  5
A4
330
17
100
AcDbEntity
  8
VISTA
100
AcDbPolyline
 90
3
 70
1
 10
178.0
 20
-1.0
 10
177.9
 20
-1.25
 10
178.1
 20
-1.25
  0
TEXT
  5
A5
330
17
100
AcDbEntity
  8
TEXTOS
100
AcDbText
 10
178.0
 20
-4.5
 30
0.0
 40
0.135
  1
Pendiente G ~18,33 %
100
AcDbText
  0
LINE
  5
A6
330
17
100
AcDbEntity
  8
VISTA
100
AcDbLine
 10
178.0
 20
-7.5
 30
0.0
 11
178.0
 21
-11.0
 31
0.0
  0
LWPOLYLINE
  5
A7
330
17
100
AcDbEntity
  8
VISTA
100
AcDbPolyline
 90
3
 70
1
 10
178.0
 20
-11.0
 10
177.9
 20
-10.75
 10
178.1
 20
-10.75
  0
TEXT
  5
A8
330
17
100
AcDbEntity
  8
TEXTOS
100
AcDbText
 10
178.0
 20
-7.5
 30
0.0
 40
0.135
  1
Pendiente G ~18,33 %
100
AcDbText
  0
TEXT
  5
A9
330
17
100
AcDbEntity
  8
TEXTOS
100
AcDbText
 10
177.5
 20
-5.55
 30
0.0
 40
0.135
  1
Escalon entre cubiertas +0,60 m
100
AcDbText
  0
TEXT
  5
AA
330
17
100
AcDbEntity
  8
TEXTOS
100
AcDbText
 10
177.5
 20
0.18
 30
0.0
 40
0.13
  1
Canaleta frontal C1
100
AcDbText
  0
TEXT
  5
AB
330
17
100
AcDbEntity
  8
TEXTOS
100
AcDbText
 10
177.5
 20
-12.25
 30
0.0
 40
0.13
  1
Canaleta posterior C2
100
AcDbText
  0
LWPOLYLINE
  5
AC
330
17
100
AcDbEntity
  8
VISTA
100
AcDbPolyline
 90
4
 70
1
 10
173.52
 20
-0.4
 10
173.72
 20
-0.4
 10
173.72
 20
-0.6
 10
173.52
 20
-0.6
  0
TEXT
  5
AD
330
17
100
AcDbEntity
  8
TEXTOS
100
AcDbText
 10
173.02
 20
-0.85
 30
0.0
 40
0.125
  1
BP
100
AcDbText
  0
LWPOLYLINE
  5
AE
330
17
100
AcDbEntity
  8
VISTA
100
AcDbPolyline
 90
4
 70
1
 10
181.68
 20
-12.14
 10
181.88
 20
-12.14
 10
181.88
 20
-12.34
 10
181.68
 20
-12.34
  0
TEXT
  5
AF
330
17
100
AcDbEntity
  8
TEXTOS
100
AcDbText
 10
181.18
 20
-12.59
 30
0.0
 40
0.125
  1
BP
100
AcDbText
  0
LWPOLYLINE
  5
B0
330
17
100
AcDbEntity
  8
VISTA
100
AcDbPolyline
 90
5
 70
1
 10
200.009
 20
6.93275
 10
200.01
 20
6.92575
 10
199.831
 20
6.92475
 10
199.830293
 20
6.932457
 10
200.009
 20
6.93275
  0
LWPOLYLINE
  5
B1
330
17
100
AcDbEntity
  8
VISTA
100
AcDbPolyline
 90
5
 70
1
 10
200.009
 20
6.928
 10
200.01
 20
6.921
 10
199.831
 20
6.92
 10
199.830293
 20
6.927707
 10
200.009
 20
6.928
  0
LWPOLYLINE
  5
B2
330
17
100
AcDbEntity
  8
VISTA
100
AcDbPolyline
 90
5
 70
1
 10
200.009
 20
6.922
 10
200.01
 20
6.915
 10
199.831
 20
6.914
 10
199.830293
 20
6.921707
 10
200.009
 20
6.922
  0
LWPOLYLINE
  5
B3
330
17
100
AcDbEntity
  8
VISTA
100
AcDbPolyline
 90
5
 70
1
 10
200.009
 20
6.916
 10
200.01
 20
6.909
 10
199.831
 20
6.908
 10
199.830293
 20
6.915707
 10
200.009
 20
6.916
  0
LWPOLYLINE
  5
B4
330
17
100
AcDbEntity
  8
VISTA
100
AcDbPolyline
 90
7
 70
1
 10
199.84
 20
6.895
 10
199.84
 20
7.077625
 10
199.8412
 20
6.938825
 10
199.9988
 20
6.938825
 10
200.0
 20
7.077625
 10
200.0
 20
6.895
 10
199.84
 20
6.895
  0
LWPOLYLINE
  5
B5
330
17
100
AcDbEntity
  8
VISTA
100
AcDbPolyline
 90
5
 70
1
 10
200.009
 20
6.91
 10
200.01
 20
6.903
 10
199.831
 20
6.902
 10
199.830293
 20
6.909707
 10
200.009
 20
6.91
  0
LWPOLYLINE
  5
B6
330
17
100
AcDbEntity
  8
VISTA
100
AcDbPolyline
 90
8
 70
1
 10
200.097335
 20
-0.490053
 10
200.733619
 20
-0.470249
 10
201.2
 20
-0.4665845331070264
 10
201.2
 20
-0.6260788522625402
 10
200.840621
 20
-0.628895
 10
200.632198
 20
-0.632518
 10
200.102665
 20
-0.649947
 10
200.097335
 20
-0.490053
  0
LWPOLYLINE
  5
B7
330
17
100
AcDbEntity
  8
VISTA
100
AcDbPolyline
 90
5
 70
1
 10
200.009
 20
6.904
 10
200.01
 20
6.897
 10
199.831
 20
6.896
 10
199.830293
 20
6.903707
 10
200.009
 20
6.904
  0
LWPOLYLINE
  5
B8
330
17
100
AcDbEntity
  8
VISTA
100
AcDbPolyline
 90
5
 70
1
 10
200.009
 20
6.898
 10
200.01
 20
6.891
 10
199.831
 20
6.89
 10
199.830293
 20
6.897707
 10
200.009
 20
6.898
  0
LWPOLYLINE
  5
B9
330
17
100
AcDbEntity
  8
VISTA
100
AcDbPolyline
 90
5
 70
1
 10
200.009
 20
6.892
 10
200.01
 20
6.885
 10
199.831
 20
6.884
 10
199.830293
 20
6.891707
 10
200.009
 20
6.892
  0
LWPOLYLINE
  5
BA
330
17
100
AcDbEntity
  8
VISTA
100
AcDbPolyline
 90
5
 70
1
 10
200.939414
 20
0.059414
 10
200.939414
 20
-0.519414
 10
200.460586
 20
-0.519414
 10
200.460586
 20
0.059414
 10
200.939414
 20
0.059414
  0
LWPOLYLINE
  5
BB
330
17
100
AcDbEntity
  8
VISTA
100
AcDbPolyline
 90
5
 70
1
 10
200.929
 20
0.06
 10
200.93
 20
0.037
 10
200.471
 20
0.036
 10
200.470293
 20
0.059707
 10
200.929
 20
0.06
  0
LWPOLYLINE
  5
BC
330
17
100
AcDbEntity
  8
VISTA
100
AcDbPolyline
 90
5
 70
1
 10
200.509707
 20
0.559707
 10
200.509707
 20
0.540293
 10
200.490293
 20
0.540293
 10
200.490293
 20
0.559707
 10
200.509707
 20
0.559707
  0
LWPOLYLINE
  5
BD
330
17
100
AcDbEntity
  8
VISTA
100
AcDbPolyline
 90
5
 70
1
 10
200.509707
 20
1.809707
 10
200.509707
 20
1.790293
 10
200.490293
 20
1.790293
 10
200.490293
 20
1.809707
 10
200.509707
 20
1.809707
  0
LWPOLYLINE
  5
BE
330
17
100
AcDbEntity
  8
VISTA
100
AcDbPolyline
 90
5
 70
1
 10
200.509707
 20
3.309707
 10
200.509707
 20
3.290293
 10
200.490293
 20
3.290293
 10
200.490293
 20
3.309707
 10
200.509707
 20
3.309707
  0
LWPOLYLINE
  5
BF
330
17
100
AcDbEntity
  8
VISTA
100
AcDbPolyline
 90
5
 70
1
 10
200.509707
 20
4.709707
 10
200.509707
 20
4.690293
 10
200.490293
 20
4.690293
 10
200.490293
 20
4.709707
 10
200.509707
 20
4.709707
  0
LWPOLYLINE
  5
C0
330
17
100
AcDbEntity
  8
VISTA
100
AcDbPolyline
 90
5
 70
1
 10
200.509707
 20
6.009707
 10
200.509707
 20
5.990293
 10
200.490293
 20
5.990293
 10
200.490293
 20
6.009707
 10
200.509707
 20
6.009707
  0
LWPOLYLINE
  5
C1
330
17
100
AcDbEntity
  8
VISTA
100
AcDbPolyline
 90
5
 70
1
 10
200.899
 20
0.06
 10
200.9
 20
0.053
 10
200.501
 20
0.052
 10
200.500293
 20
0.059707
 10
200.899
 20
0.06
  0
LWPOLYLINE
  5
C2
330
17
100
AcDbEntity
  8
VISTA
100
AcDbPolyline
 90
5
 70
1
 10
200.899
 20
0.06
 10
200.9
 20
0.053
 10
200.501
 20
0.052
 10
200.500293
 20
0.059707
 10
200.899
 20
0.06
  0
LWPOLYLINE
  5
C3
330
17
100
AcDbEntity
  8
VISTA
100
AcDbPolyline
 90
5
 70
1
 10
200.899
 20
0.06
 10
200.9
 20
0.053
 10
200.501
 20
0.052
 10
200.500293
 20
0.059707
 10
200.899
 20
0.06
  0
LWPOLYLINE
  5
C4
330
17
100
AcDbEntity
  8
VISTA
100
AcDbPolyline
 90
5
 70
1
 10
200.899
 20
0.06
 10
200.9
 20
0.053
 10
200.501
 20
0.052
 10
200.500293
 20
0.059707
 10
200.899
 20
0.06
  0
LWPOLYLINE
  5
C5
330
17
100
AcDbEntity
  8
VISTA
100
AcDbPolyline
 90
41
 70
1
 10
199.865
 20
6.897
 10
199.975
 20
6.897
 10
199.9749990190348
 20
6.622995371613641
 10
199.9931
 20
6.614781
 10
200.382807
 20
6.493838
 10
200.420557
 20
6.479436
 10
200.454983
 20
6.460385
 10
200.485288
 20
6.436496
 10
200.510682
 20
6.407869
 10
200.530427
 20
6.375099
 10
200.544191
 20
6.339069
 10
200.552125
 20
6.300558
 10
200.554652
 20
6.260019
 10
200.55531
 20
0.283766
 10
200.565171
 20
0.215385
 10
200.586904
 20
0.1498
 10
200.748846
 20
-0.175577
 10
200.651154
 20
-0.224423
 10
200.486596
 20
0.106554
 10
200.466416
 20
0.161932
 10
200.458829
 20
0.190281
 10
200.452927
 20
0.219028
 10
200.44619
 20
0.277585
 10
200.445348
 20
6.259981
 10
200.443696
 20
6.286365
 10
200.439096
 20
6.308619
 10
200.431968
 20
6.327197
 10
200.422464
 20
6.342879
 10
200.410252
 20
6.356548
 10
200.394595
 20
6.368799
 10
200.374701
 20
6.37973
 10
200.349775
 20
6.389154
 10
199.960402
 20
6.509994
 10
199.924952
 20
6.524777
 10
199.909205
 20
6.534835
 10
199.895652
 20
6.546624
 10
199.880371
 20
6.566463
 10
199.872557
 20
6.581233
 10
199.868219
 20
6.595973
 10
199.865001
 20
6.620599
 10
199.865
 20
6.897
  0
LWPOLYLINE
  5
C6
330
17
100
AcDbEntity
  8
VISTA
100
AcDbPolyline
 90
5
 70
1
 10
200.899
 20
0.06
 10
200.9
 20
0.053
 10
200.501
 20
0.052
 10
200.500293
 20
0.059707
 10
200.899
 20
0.06
  0
LWPOLYLINE
  5
C7
330
17
100
AcDbEntity
  8
VISTA
100
AcDbPolyline
 90
5
 70
1
 10
200.559
 20
0.562
 10
200.56
 20
0.539
 10
200.441
 20
0.538
 10
200.440293
 20
0.561707
 10
200.559
 20
0.562
  0
LWPOLYLINE
  5
C8
330
17
100
AcDbEntity
  8
VISTA
100
AcDbPolyline
 90
5
 70
1
 10
200.559
 20
1.812
 10
200.56
 20
1.789
 10
200.441
 20
1.788
 10
200.440293
 20
1.811707
 10
200.559
 20
1.812
  0
LWPOLYLINE
  5
C9
330
17
100
AcDbEntity
  8
VISTA
100
AcDbPolyline
 90
5
 70
1
 10
200.559
 20
3.312
 10
200.56
 20
3.289
 10
200.441
 20
3.288
 10
200.440293
 20
3.311707
 10
200.559
 20
3.312
  0
LWPOLYLINE
  5
CA
330
17
100
AcDbEntity
  8
VISTA
100
AcDbPolyline
 90
5
 70
1
 10
200.559
 20
4.712
 10
200.56
 20
4.689
 10
200.441
 20
4.688
 10
200.440293
 20
4.711707
 10
200.559
 20
4.712
  0
LWPOLYLINE
  5
CB
330
17
100
AcDbEntity
  8
VISTA
100
AcDbPolyline
 90
5
 70
1
 10
200.559
 20
6.012
 10
200.56
 20
5.989
 10
200.441
 20
5.988
 10
200.440293
 20
6.011707
 10
200.559
 20
6.012
  0
LWPOLYLINE
  5
CC
330
17
100
AcDbEntity
  8
VISTA
100
AcDbPolyline
 90
5
 70
1
 10
200.619
 20
0.06
 10
200.62
 20
0.053
 10
200.501
 20
0.052
 10
200.500293
 20
0.059707
 10
200.619
 20
0.06
  0
LWPOLYLINE
  5
CD
330
17
100
AcDbEntity
  8
VISTA
100
AcDbPolyline
 90
5
 70
1
 10
200.899
 20
0.06
 10
200.9
 20
0.053
 10
200.781
 20
0.052
 10
200.780293
 20
0.059707
 10
200.899
 20
0.06
  0
LWPOLYLINE
  5
CE
330
17
100
AcDbEntity
  8
VISTA
100
AcDbPolyline
 90
5
 70
1
 10
200.619
 20
0.06
 10
200.62
 20
0.053
 10
200.501
 20
0.052
 10
200.500293
 20
0.059707
 10
200.619
 20
0.06
  0
LWPOLYLINE
  5
CF
330
17
100
AcDbEntity
  8
VISTA
100
AcDbPolyline
 90
5
 70
1
 10
200.899
 20
0.06
 10
200.9
 20
0.053
 10
200.781
 20
0.052
 10
200.780293
 20
0.059707
 10
200.899
 20
0.06
  0
LWPOLYLINE
  5
D0
330
17
100
AcDbEntity
  8
VISTA
100
AcDbPolyline
 90
8
 70
1
 10
200.493
 20
0.06
 10
200.495
 20
0.058
 10
200.495
 20
-0.518
 10
200.493
 20
-0.52
 10
200.462
 20
-0.52
 10
200.46
 20
-0.518
 10
200.460586
 20
0.059414
 10
200.493
 20
0.06
  0
LWPOLYLINE
  5
D1
330
17
100
AcDbEntity
  8
VISTA
100
AcDbPolyline
 90
8
 70
1
 10
200.938
 20
0.06
 10
200.94
 20
0.058
 10
200.94
 20
-0.518
 10
200.938
 20
-0.52
 10
200.907
 20
-0.52
 10
200.905
 20
-0.518
 10
200.905586
 20
0.059414
 10
200.938
 20
0.06
  0
LWPOLYLINE
  5
D2
330
17
100
AcDbEntity
  8
VISTA
100
AcDbPolyline
 90
5
 70
1
 10
200.939
 20
-0.52
 10
200.94
 20
-0.549
 10
200.461
 20
-0.55
 10
200.460293
 20
-0.520293
 10
200.939
 20
-0.52
  0
LWPOLYLINE
  5
D3
330
17
100
AcDbEntity
  8
VISTA
100
AcDbPolyline
 90
5
 70
1
 10
200.492207
 20
0.059707
 10
200.492207
 20
0.036293
 10
200.467793
 20
0.036293
 10
200.467793
 20
0.059707
 10
200.492207
 20
0.059707
  0
LWPOLYLINE
  5
D4
330
17
100
AcDbEntity
  8
VISTA
100
AcDbPolyline
 90
5
 70
1
 10
200.932207
 20
0.059707
 10
200.932207
 20
0.036293
 10
200.907793
 20
0.036293
 10
200.907793
 20
0.059707
 10
200.932207
 20
0.059707
  0
LWPOLYLINE
  5
D5
330
17
100
AcDbEntity
  8
VISTA
100
AcDbPolyline
 90
5
 70
1
 10
200.619
 20
0.06
 10
200.62
 20
0.053
 10
200.501
 20
0.052
 10
200.500293
 20
0.059707
 10
200.619
 20
0.06
  0
LWPOLYLINE
  5
D6
330
17
100
AcDbEntity
  8
VISTA
100
AcDbPolyline
 90
5
 70
1
 10
200.899
 20
0.06
 10
200.9
 20
0.053
 10
200.781
 20
0.052
 10
200.780293
 20
0.059707
 10
200.899
 20
0.06
  0
LWPOLYLINE
  5
D7
330
17
100
AcDbEntity
  8
VISTA
100
AcDbPolyline
 90
5
 70
1
 10
200.619
 20
0.06
 10
200.62
 20
0.053
 10
200.501
 20
0.052
 10
200.500293
 20
0.059707
 10
200.619
 20
0.06
  0
LWPOLYLINE
  5
D8
330
17
100
AcDbEntity
  8
VISTA
100
AcDbPolyline
 90
5
 70
1
 10
200.899
 20
0.06
 10
200.9
 20
0.053
 10
200.781
 20
0.052
 10
200.780293
 20
0.059707
 10
200.899
 20
0.06
  0
LWPOLYLINE
  5
D9
330
17
100
AcDbEntity
  8
VISTA
100
AcDbPolyline
 90
5
 70
1
 10
200.559
 20
0.562
 10
200.56
 20
0.539
 10
200.441
 20
0.538
 10
200.440293
 20
0.561707
 10
200.559
 20
0.562
  0
LWPOLYLINE
  5
DA
330
17
100
AcDbEntity
  8
VISTA
100
AcDbPolyline
 90
5
 70
1
 10
200.559
 20
1.812
 10
200.56
 20
1.789
 10
200.441
 20
1.788
 10
200.440293
 20
1.811707
 10
200.559
 20
1.812
  0
LWPOLYLINE
  5
DB
330
17
100
AcDbEntity
  8
VISTA
100
AcDbPolyline
 90
5
 70
1
 10
200.559
 20
3.312
 10
200.56
 20
3.289
 10
200.441
 20
3.288
 10
200.440293
 20
3.311707
 10
200.559
 20
3.312
  0
LWPOLYLINE
  5
DC
330
17
100
AcDbEntity
  8
VISTA
100
AcDbPolyline
 90
5
 70
1
 10
200.559
 20
4.712
 10
200.56
 20
4.689
 10
200.441
 20
4.688
 10
200.440293
 20
4.711707
 10
200.559
 20
4.712
  0
LWPOLYLINE
  5
DD
330
17
100
AcDbEntity
  8
VISTA
100
AcDbPolyline
 90
5
 70
1
 10
200.559
 20
6.012
 10
200.56
 20
5.989
 10
200.441
 20
5.988
 10
200.440293
 20
6.011707
 10
200.559
 20
6.012
  0
LWPOLYLINE
  5
DE
330
17
100
AcDbEntity
  8
VISTA
100
AcDbPolyline
 90
5
 70
1
 10
200.899
 20
0.06
 10
200.9
 20
0.053
 10
200.501
 20
0.052
 10
200.500293
 20
0.059707
 10
200.899
 20
0.06
  0
LWPOLYLINE
  5
DF
330
17
100
AcDbEntity
  8
VISTA
100
AcDbPolyline
 90
5
 70
1
 10
200.899
 20
0.06
 10
200.9
 20
0.053
 10
200.501
 20
0.052
 10
200.500293
 20
0.059707
 10
200.899
 20
0.06
  0
LWPOLYLINE
  5
E0
330
17
100
AcDbEntity
  8
VISTA
100
AcDbPolyline
 90
5
 70
1
 10
200.899
 20
0.06
 10
200.9
 20
0.053
 10
200.501
 20
0.052
 10
200.500293
 20
0.059707
 10
200.899
 20
0.06
  0
LWPOLYLINE
  5
E1
330
17
100
AcDbEntity
  8
VISTA
100
AcDbPolyline
 90
5
 70
1
 10
200.899
 20
0.06
 10
200.9
 20
0.053
 10
200.501
 20
0.052
 10
200.500293
 20
0.059707
 10
200.899
 20
0.06
  0
LWPOLYLINE
  5
E2
330
17
100
AcDbEntity
  8
VISTA
100
AcDbPolyline
 90
5
 70
1
 10
200.899
 20
0.06
 10
200.9
 20
0.053
 10
200.501
 20
0.052
 10
200.500293
 20
0.059707
 10
200.899
 20
0.06
  0
LWPOLYLINE
  5
E3
330
17
100
AcDbEntity
  8
VISTA
100
AcDbPolyline
 90
5
 70
1
 10
200.929
 20
0.06
 10
200.93
 20
0.037
 10
200.471
 20
0.036
 10
200.470293
 20
0.059707
 10
200.929
 20
0.06
  0
LWPOLYLINE
  5
E4
330
17
100
AcDbEntity
  8
VISTA
100
AcDbPolyline
 90
6
 70
1
 10
200.46
 20
-0.518
 10
200.460541
 20
0.059414
 10
200.93946
 20
0.059414
 10
200.939414
 20
-0.519414
 10
200.462
 20
-0.52
 10
200.46
 20
-0.518
  0
LWPOLYLINE
  5
E5
330
17
100
AcDbEntity
  8
VISTA
100
AcDbPolyline
 90
4
 70
1
 10
200.93942474916474
 20
0.05938806259565021
 10
200.93942474916474
 20
0.05938806259565018
 10
200.93946
 20
0.059414
 10
200.93942474916474
 20
0.05938806259565021
  0
LWPOLYLINE
  5
E6
330
17
100
AcDbEntity
  8
VISTA
100
AcDbPolyline
 90
21
 70
1
 10
200.661206
 20
-0.373287
 10
200.646605
 20
-0.388067
 10
200.63723
 20
-0.40669
 10
200.63438066264624
 20
-0.4249019410738938
 10
200.63723
 20
-0.443113
 10
200.646605
 20
-0.461737
 10
200.661206
 20
-0.476517
 10
200.679605
 20
-0.486006
 10
200.7
 20
-0.489275
 10
200.720395
 20
-0.486006
 10
200.738794
 20
-0.476517
 10
200.753395
 20
-0.461737
 10
200.76277
 20
-0.443113
 10
200.76561933735377
 20
-0.4249019410738938
 10
200.76277
 20
-0.40669
 10
200.753395
 20
-0.388067
 10
200.738794
 20
-0.373287
 10
200.720395
 20
-0.363798
 10
200.7
 20
-0.360528
 10
200.679605
 20
-0.363798
 10
200.661206
 20
-0.373287
  0
LWPOLYLINE
  5
E7
330
17
100
AcDbEntity
  8
VISTA
100
AcDbPolyline
 90
4
 70
1
 10
200.9391154893617
 20
0.05916051063829743
 10
200.9391154893617
 20
0.05916051063829716
 10
200.9391154893617
 20
0.059160510638297234
 10
200.9391154893617
 20
0.05916051063829743
  0
LWPOLYLINE
  5
E8
330
17
100
AcDbEntity
  8
VISTA
100
AcDbPolyline
 90
27
 70
1
 10
200.643708
 20
-0.571737
 10
200.637215
 20
-0.555461
 10
200.635
 20
-0.538768
 10
200.635
 20
-0.39
 10
200.637215
 20
-0.37338
 10
200.643708
 20
-0.357893
 10
200.654038
 20
-0.344593
 10
200.6675
 20
-0.334388
 10
200.683177
 20
-0.327973
 10
200.7
 20
-0.325785
 10
200.716823
 20
-0.327973
 10
200.7325
 20
-0.334388
 10
200.745962
 20
-0.344593
 10
200.756292
 20
-0.357893
 10
200.762785
 20
-0.37338
 10
200.765
 20
-0.39
 10
200.765
 20
-0.538703
 10
200.762785
 20
-0.555527
 10
200.756292
 20
-0.571797
 10
200.745962
 20
-0.586441
 10
200.7325
 20
-0.598
 10
200.716823
 20
-0.605735
 10
200.7
 20
-0.608329
 10
200.683177
 20
-0.605605
 10
200.6675
 20
-0.597749
 10
200.654038
 20
-0.586275
 10
200.643708
 20
-0.571737
  0
TEXT
  5
E9
330
17
100
AcDbEntity
  8
TEXTOS
100
AcDbText
 10
201.1
 20
0.1
 30
0.0
 40
0.13
  1
+0.00
100
AcDbText
  0
TEXT
  5
EA
330
17
100
AcDbEntity
  8
TEXTOS
100
AcDbText
 10
201.1
 20
-0.47
 30
0.0
 40
0.13
  1
Salida P -0,57
100
AcDbText
  0
TEXT
  5
EB
330
17
100
AcDbEntity
  8
TEXTOS
100
AcDbText
 10
201.1
 20
7.05
 30
0.0
 40
0.13
  1
+6.95
100
AcDbText
  0
ENDSEC
  0
SECTION
  2
OBJECTS
  0
DICTIONARY
  5
A
330
0
100
AcDbDictionary
281
1
  3
ACAD_COLOR
350
B
  3
ACAD_GROUP
350
C
  3
ACAD_LAYOUT
350
D
  3
ACAD_MATERIAL
350
E
  3
ACAD_MLEADERSTYLE
350
F
  3
ACAD_MLINESTYLE
350
10
  3
ACAD_PLOTSETTINGS
350
11
  3
ACAD_PLOTSTYLENAME
350
12
  3
ACAD_SCALELIST
350
14
  3
ACAD_TABLESTYLE
350
15
  3
ACAD_VISUALSTYLE
350
16
  3
EZDXF_META
350
2D
  0
DICTIONARY
  5
B
330
A
100
AcDbDictionary
281
1
  0
DICTIONARY
  5
C
330
A
100
AcDbDictionary
281
1
  0
DICTIONARY
  5
D
330
A
100
AcDbDictionary
281
1
  3
Model
350
1A
  3
Layout1
350
1E
  0
DICTIONARY
  5
E
330
A
100
AcDbDictionary
281
1
  3
ByBlock
350
1F
  3
ByLayer
350
20
  3
Global
350
21
  0
DICTIONARY
  5
F
330
A
100
AcDbDictionary
281
1
  3
Standard
350
2C
  0
DICTIONARY
  5
10
330
A
100
AcDbDictionary
281
1
  3
Standard
350
22
  0
DICTIONARY
  5
11
330
A
100
AcDbDictionary
281
1
  0
ACDBDICTIONARYWDFLT
  5
12
330
A
100
AcDbDictionary
281
1
  3
Normal
350
13
100
AcDbDictionaryWithDefault
340
13
  0
ACDBPLACEHOLDER
  5
13
330
12
  0
DICTIONARY
  5
14
330
A
100
AcDbDictionary
281
1
  0
DICTIONARY
  5
15
330
A
100
AcDbDictionary
281
1
  0
DICTIONARY
  5
16
330
A
100
AcDbDictionary
281
1
  0
LAYOUT
  5
1A
330
D
100
AcDbPlotSettings
  1

  4
A3
  6

 40
7.5
 41
20.0
 42
7.5
 43
20.0
 44
420.0
 45
297.0
 46
0.0
 47
0.0
 48
0.0
 49
0.0
140
0.0
141
0.0
142
1.0
143
1.0
 70
1024
 72
1
 73
0
 74
5
  7

 75
16
 76
0
 77
2
 78
300
147
1.0
148
0.0
149
0.0
100
AcDbLayout
  1
Model
 70
1
 71
0
 10
0.0
 20
0.0
 11
420.0
 21
297.0
 12
0.0
 22
0.0
 32
0.0
 14
1e+20
 24
1e+20
 34
1e+20
 15
-1e+20
 25
-1e+20
 35
-1e+20
146
0.0
 13
0.0
 23
0.0
 33
0.0
 16
1.0
 26
0.0
 36
0.0
 17
0.0
 27
1.0
 37
0.0
 76
1
330
17
  0
LAYOUT
  5
1E
330
D
100
AcDbPlotSettings
  1

  4
A3
  6

 40
7.5
 41
20.0
 42
7.5
 43
20.0
 44
420.0
 45
297.0
 46
0.0
 47
0.0
 48
0.0
 49
0.0
140
0.0
141
0.0
142
1.0
143
1.0
 70
0
 72
1
 73
0
 74
5
  7

 75
16
 76
0
 77
2
 78
300
147
1.0
148
0.0
149
0.0
100
AcDbLayout
  1
Layout1
 70
1
 71
1
 10
0.0
 20
0.0
 11
420.0
 21
297.0
 12
0.0
 22
0.0
 32
0.0
 14
1e+20
 24
1e+20
 34
1e+20
 15
-1e+20
 25
-1e+20
 35
-1e+20
146
0.0
 13
0.0
 23
0.0
 33
0.0
 16
1.0
 26
0.0
 36
0.0
 17
0.0
 27
1.0
 37
0.0
 76
1
330
1B
  0
MATERIAL
  5
1F
102
{ACAD_REACTORS
330
E
102
}
330
E
100
AcDbMaterial
  1
ByBlock
  2

 70
0
 40
1.0
 71
1
 41
1.0
 91
-1023410177
 42
1.0
 72
1
  3

 73
1
 74
1
 75
1
 44
0.5
 73
0
 45
1.0
 46
1.0
 77
1
  4

 78
1
 79
1
170
1
 48
1.0
171
1
  6

172
1
173
1
174
1
140
1.0
141
1.0
175
1
  7

176
1
177
1
178
1
143
1.0
179
1
  8

270
1
271
1
272
1
145
1.0
146
1.0
273
1
  9

274
1
275
1
276
1
 42
1.0
 72
1
  3

 73
1
 74
1
 75
1
 94
63
  0
MATERIAL
  5
20
102
{ACAD_REACTORS
330
E
102
}
330
E
100
AcDbMaterial
  1
ByLayer
  2

 70
0
 40
1.0
 71
1
 41
1.0
 91
-1023410177
 42
1.0
 72
1
  3

 73
1
 74
1
 75
1
 44
0.5
 73
0
 45
1.0
 46
1.0
 77
1
  4

 78
1
 79
1
170
1
 48
1.0
171
1
  6

172
1
173
1
174
1
140
1.0
141
1.0
175
1
  7

176
1
177
1
178
1
143
1.0
179
1
  8

270
1
271
1
272
1
145
1.0
146
1.0
273
1
  9

274
1
275
1
276
1
 42
1.0
 72
1
  3

 73
1
 74
1
 75
1
 94
63
  0
MATERIAL
  5
21
102
{ACAD_REACTORS
330
E
102
}
330
E
100
AcDbMaterial
  1
Global
  2

 70
0
 40
1.0
 71
1
 41
1.0
 91
-1023410177
 42
1.0
 72
1
  3

 73
1
 74
1
 75
1
 44
0.5
 73
0
 45
1.0
 46
1.0
 77
1
  4

 78
1
 79
1
170
1
 48
1.0
171
1
  6

172
1
173
1
174
1
140
1.0
141
1.0
175
1
  7

176
1
177
1
178
1
143
1.0
179
1
  8

270
1
271
1
272
1
145
1.0
146
1.0
273
1
  9

274
1
275
1
276
1
 42
1.0
 72
1
  3

 73
1
 74
1
 75
1
 94
63
  0
MLINESTYLE
  5
22
102
{ACAD_REACTORS
330
10
102
}
330
10
100
AcDbMlineStyle
  2
Standard
 70
0
  3

 62
256
 51
90.0
 52
90.0
 71
2
 49
0.5
 62
256
  6
BYLAYER
 49
-0.5
 62
256
  6
BYLAYER
  0
MLEADERSTYLE
  5
2C
102
{ACAD_REACTORS
330
F
102
}
330
F
100
AcDbMLeaderStyle
179
2
170
2
171
1
172
0
 90
2
 40
0.0
 41
0.0
173
1
 91
-1056964608
 92
-2
290
1
 42
2.0
291
1
 43
8.0
  3
Standard
 44
4.0
300

342
29
174
1
175
1
176
0
178
1
 93
-1056964608
 45
4.0
292
0
297
0
 46
4.0
 94
-1056964608
 47
1.0
 49
1.0
140
1.0
294
1
141
0.0
177
0
142
1.0
295
0
296
0
143
3.75
271
0
272
9
273
9
  0
DICTIONARY
  5
2D
330
A
100
AcDbDictionary
280
1
281
1
  3
CREATED_BY_EZDXF
350
2E
  3
WRITTEN_BY_EZDXF
350
EE
  0
DICTIONARYVAR
  5
2E
330
2D
100
DictionaryVariables
280
0
  1
1.4.4 @ 2026-09-10T18:24:26.487036+00:00
  0
DICTIONARYVAR
  5
EE
330
2D
100
DictionaryVariables
280
0
  1
1.4.4 @ 2026-09-10T18:24:27.503701+00:00
  0
ENDSEC
  0
EOF
