  0
SECTION
  2
HEADER
  9
$ACADVER
  1
AC1024
  9
$ACADMAINTVER
 70
6
  9
$DWGCODEPAGE
  3
ANSI_1252
  9
$LASTSAVEDBY
  1
ezdxf
  9
$INSBASE
 10
0.0
 20
0.0
 30
0.0
  9
$EXTMIN
 10
1e+20
 20
1e+20
 30
1e+20
  9
$EXTMAX
 10
-1e+20
 20
-1e+20
 30
-1e+20
  9
$LIMMIN
 10
0.0
 20
0.0
  9
$LIMMAX
 10
420.0
 20
297.0
  9
$ORTHOMODE
 70
0
  9
$REGENMODE
 70
1
  9
$FILLMODE
 70
1
  9
$QTEXTMODE
 70
0
  9
$MIRRTEXT
 70
1
  9
$LTSCALE
 40
1.0
  9
$ATTMODE
 70
1
  9
$TEXTSIZE
 40
2.5
  9
$TRACEWID
 40
1.0
  9
$TEXTSTYLE
  7
Standard
  9
$CLAYER
  8
0
  9
$CELTYPE
  6
ByLayer
  9
$CECOLOR
 62
256
  9
$CELTSCALE
 40
1.0
  9
$DISPSILH
 70
0
  9
$DIMSCALE
 40
1.0
  9
$DIMASZ
 40
2.5
  9
$DIMEXO
 40
0.625
  9
$DIMDLI
 40
3.75
  9
$DIMRND
 40
0.0
  9
$DIMDLE
 40
0.0
  9
$DIMEXE
 40
1.25
  9
$DIMTP
 40
0.0
  9
$DIMTM
 40
0.0
  9
$DIMTXT
 40
2.5
  9
$DIMCEN
 40
2.5
  9
$DIMTSZ
 40
0.0
  9
$DIMTOL
 70
0
  9
$DIMLIM
 70
0
  9
$DIMTIH
 70
0
  9
$DIMTOH
 70
0
  9
$DIMSE1
 70
0
  9
$DIMSE2
 70
0
  9
$DIMTAD
 70
1
  9
$DIMZIN
 70
8
  9
$DIMBLK
  1

  9
$DIMASO
 70
1
  9
$DIMSHO
 70
1
  9
$DIMPOST
  1

  9
$DIMAPOST
  1

  9
$DIMALT
 70
0
  9
$DIMALTD
 70
3
  9
$DIMALTF
 40
0.03937007874
  9
$DIMLFAC
 40
1.0
  9
$DIMTOFL
 70
1
  9
$DIMTVP
 40
0.0
  9
$DIMTIX
 70
0
  9
$DIMSOXD
 70
0
  9
$DIMSAH
 70
0
  9
$DIMBLK1
  1

  9
$DIMBLK2
  1

  9
$DIMSTYLE
  2
ISO-25
  9
$DIMCLRD
 70
0
  9
$DIMCLRE
 70
0
  9
$DIMCLRT
 70
0
  9
$DIMTFAC
 40
1.0
  9
$DIMGAP
 40
0.625
  9
$DIMJUST
 70
0
  9
$DIMSD1
 70
0
  9
$DIMSD2
 70
0
  9
$DIMTOLJ
 70
0
  9
$DIMTZIN
 70
8
  9
$DIMALTZ
 70
0
  9
$DIMALTTZ
 70
0
  9
$DIMUPT
 70
0
  9
$DIMDEC
 70
2
  9
$DIMTDEC
 70
2
  9
$DIMALTU
 70
2
  9
$DIMALTTD
 70
3
  9
$DIMTXSTY
  7
Standard
  9
$DIMAUNIT
 70
0
  9
$DIMADEC
 70
0
  9
$DIMALTRND
 40
0.0
  9
$DIMAZIN
 70
0
  9
$DIMDSEP
 70
44
  9
$DIMATFIT
 70
3
  9
$DIMFRAC
 70
0
  9
$DIMLDRBLK
  1

  9
$DIMLUNIT
 70
2
  9
$DIMLWD
 70
-2
  9
$DIMLWE
 70
-2
  9
$DIMTMOVE
 70
0
  9
$DIMFXL
 40
1.0
  9
$DIMFXLON
 70
0
  9
$DIMJOGANG
 40
0.785398163397
  9
$DIMTFILL
 70
0
  9
$DIMTFILLCLR
 70
0
  9
$DIMARCSYM
 70
0
  9
$DIMLTYPE
  6

  9
$DIMLTEX1
  6

  9
$DIMLTEX2
  6

  9
$DIMTXTDIRECTION
 70
0
  9
$LUNITS
 70
2
  9
$LUPREC
 70
4
  9
$SKETCHINC
 40
1.0
  9
$FILLETRAD
 40
10.0
  9
$AUNITS
 70
0
  9
$AUPREC
 70
2
  9
$MENU
  1
.
  9
$ELEVATION
 40
0.0
  9
$PELEVATION
 40
0.0
  9
$THICKNESS
 40
0.0
  9
$LIMCHECK
 70
0
  9
$CHAMFERA
 40
0.0
  9
$CHAMFERB
 40
0.0
  9
$CHAMFERC
 40
0.0
  9
$CHAMFERD
 40
0.0
  9
$SKPOLY
 70
0
  9
$TDCREATE
 40
2461294.642152778
  9
$TDUCREATE
 40
2458532.153996898
  9
$TDUPDATE
 40
2461294.642152778
  9
$TDUUPDATE
 40
2458532.1544311
  9
$TDINDWG
 40
0.0
  9
$TDUSRTIMER
 40
0.0
  9
$USRTIMER
 70
1
  9
$ANGBASE
 50
0.0
  9
$ANGDIR
 70
0
  9
$PDMODE
 70
0
  9
$PDSIZE
 40
0.0
  9
$PLINEWID
 40
0.0
  9
$SPLFRAME
 70
0
  9
$SPLINETYPE
 70
6
  9
$SPLINESEGS
 70
8
  9
$HANDSEED
  5
283
  9
$SURFTAB1
 70
6
  9
$SURFTAB2
 70
6
  9
$SURFTYPE
 70
6
  9
$SURFU
 70
6
  9
$SURFV
 70
6
  9
$UCSBASE
  2

  9
$UCSNAME
  2

  9
$UCSORG
 10
0.0
 20
0.0
 30
0.0
  9
$UCSXDIR
 10
1.0
 20
0.0
 30
0.0
  9
$UCSYDIR
 10
0.0
 20
1.0
 30
0.0
  9
$UCSORTHOREF
  2

  9
$UCSORTHOVIEW
 70
0
  9
$UCSORGTOP
 10
0.0
 20
0.0
 30
0.0
  9
$UCSORGBOTTOM
 10
0.0
 20
0.0
 30
0.0
  9
$UCSORGLEFT
 10
0.0
 20
0.0
 30
0.0
  9
$UCSORGRIGHT
 10
0.0
 20
0.0
 30
0.0
  9
$UCSORGFRONT
 10
0.0
 20
0.0
 30
0.0
  9
$UCSORGBACK
 10
0.0
 20
0.0
 30
0.0
  9
$PUCSBASE
  2

  9
$PUCSNAME
  2

  9
$PUCSORG
 10
0.0
 20
0.0
 30
0.0
  9
$PUCSXDIR
 10
1.0
 20
0.0
 30
0.0
  9
$PUCSYDIR
 10
0.0
 20
1.0
 30
0.0
  9
$PUCSORTHOREF
  2

  9
$PUCSORTHOVIEW
 70
0
  9
$PUCSORGTOP
 10
0.0
 20
0.0
 30
0.0
  9
$PUCSORGBOTTOM
 10
0.0
 20
0.0
 30
0.0
  9
$PUCSORGLEFT
 10
0.0
 20
0.0
 30
0.0
  9
$PUCSORGRIGHT
 10
0.0
 20
0.0
 30
0.0
  9
$PUCSORGFRONT
 10
0.0
 20
0.0
 30
0.0
  9
$PUCSORGBACK
 10
0.0
 20
0.0
 30
0.0
  9
$USERI1
 70
0
  9
$USERI2
 70
0
  9
$USERI3
 70
0
  9
$USERI4
 70
0
  9
$USERI5
 70
0
  9
$USERR1
 40
0.0
  9
$USERR2
 40
0.0
  9
$USERR3
 40
0.0
  9
$USERR4
 40
0.0
  9
$USERR5
 40
0.0
  9
$WORLDVIEW
 70
1
  9
$SHADEDGE
 70
3
  9
$SHADEDIF
 70
70
  9
$TILEMODE
 70
1
  9
$MAXACTVP
 70
64
  9
$PINSBASE
 10
0.0
 20
0.0
 30
0.0
  9
$PLIMCHECK
 70
0
  9
$PEXTMIN
 10
1e+20
 20
1e+20
 30
1e+20
  9
$PEXTMAX
 10
-1e+20
 20
-1e+20
 30
-1e+20
  9
$PLIMMIN
 10
0.0
 20
0.0
  9
$PLIMMAX
 10
420.0
 20
297.0
  9
$UNITMODE
 70
0
  9
$VISRETAIN
 70
1
  9
$PLINEGEN
 70
0
  9
$PSLTSCALE
 70
1
  9
$TREEDEPTH
 70
3020
  9
$CMLSTYLE
  2
Standard
  9
$CMLJUST
 70
0
  9
$CMLSCALE
 40
20.0
  9
$PROXYGRAPHICS
 70
1
  9
$MEASUREMENT
 70
1
  9
$CELWEIGHT
370
-1
  9
$ENDCAPS
280
0
  9
$JOINSTYLE
280
0
  9
$LWDISPLAY
290
0
  9
$INSUNITS
 70
6
  9
$HYPERLINKBASE
  1

  9
$STYLESHEET
  1

  9
$XEDIT
290
1
  9
$CEPSNTYPE
380
0
  9
$PSTYLEMODE
290
1
  9
$FINGERPRINTGUID
  2
{B7F82F6B-5EEF-4E8E-86CD-2A1CED1C190A}
  9
$VERSIONGUID
  2
{4BC0984A-BB66-4CCF-B7D1-E6EE42760B46}
  9
$EXTNAMES
290
1
  9
$PSVPSCALE
 40
0.0
  9
$OLESTARTUP
290
0
  9
$SORTENTS
280
127
  9
$INDEXCTL
280
0
  9
$HIDETEXT
280
1
  9
$XCLIPFRAME
280
1
  9
$HALOGAP
280
0
  9
$OBSCOLOR
 70
257
  9
$OBSLTYPE
280
0
  9
$INTERSECTIONDISPLAY
280
0
  9
$INTERSECTIONCOLOR
 70
257
  9
$DIMASSOC
280
2
  9
$PROJECTNAME
  1

  9
$CAMERADISPLAY
290
0
  9
$LENSLENGTH
 40
50.0
  9
$CAMERAHEIGHT
 40
0.0
  9
$STEPSPERSEC
 40
24.0
  9
$STEPSIZE
 40
100.0
  9
$3DDWFPREC
 40
2.0
  9
$PSOLWIDTH
 40
0.005
  9
$PSOLHEIGHT
 40
0.08
  9
$LOFTANG1
 40
1.570796326795
  9
$LOFTANG2
 40
1.570796326795
  9
$LOFTMAG1
 40
0.0
  9
$LOFTMAG2
 40
0.0
  9
$LOFTPARAM
 70
7
  9
$LOFTNORMALS
280
1
  9
$LATITUDE
 40
37.795
  9
$LONGITUDE
 40
-122.394
  9
$NORTHDIRECTION
 40
0.0
  9
$TIMEZONE
 70
-8000
  9
$LIGHTGLYPHDISPLAY
280
1
  9
$TILEMODELIGHTSYNCH
280
1
  9
$CMATERIAL
347
20
  9
$SOLIDHIST
280
0
  9
$SHOWHIST
280
1
  9
$DWFFRAME
280
2
  9
$DGNFRAME
280
2
  9
$REALWORLDSCALE
290
1
  9
$INTERFERECOLOR
 62
256
  9
$CSHADOW
280
0
  9
$SHADOWPLANELOCATION
 40
0.0
  0
ENDSEC
  0
SECTION
  2
CLASSES
  0
CLASS
  1
ACDBDICTIONARYWDFLT
  2
AcDbDictionaryWithDefault
  3
ObjectDBX Classes
 90
0
 91
0
280
0
281
0
  0
CLASS
  1
SUN
  2
AcDbSun
  3
SCENEOE
 90
1153
 91
0
280
0
281
0
  0
CLASS
  1
VISUALSTYLE
  2
AcDbVisualStyle
  3
ObjectDBX Classes
 90
4095
 91
0
280
0
281
0
  0
CLASS
  1
MATERIAL
  2
AcDbMaterial
  3
ObjectDBX Classes
 90
1153
 91
0
280
0
281
0
  0
CLASS
  1
SCALE
  2
AcDbScale
  3
ObjectDBX Classes
 90
1153
 91
0
280
0
281
0
  0
CLASS
  1
TABLESTYLE
  2
AcDbTableStyle
  3
ObjectDBX Classes
 90
4095
 91
0
280
0
281
0
  0
CLASS
  1
MLEADERSTYLE
  2
AcDbMLeaderStyle
  3
ACDB_MLEADERSTYLE_CLASS
 90
4095
 91
0
280
0
281
0
  0
CLASS
  1
DICTIONARYVAR
  2
AcDbDictionaryVar
  3
ObjectDBX Classes
 90
0
 91
0
280
0
281
0
  0
CLASS
  1
CELLSTYLEMAP
  2
AcDbCellStyleMap
  3
ObjectDBX Classes
 90
1152
 91
0
280
0
281
0
  0
CLASS
  1
MENTALRAYRENDERSETTINGS
  2
AcDbMentalRayRenderSettings
  3
SCENEOE
 90
1024
 91
0
280
0
281
0
  0
CLASS
  1
ACDBDETAILVIEWSTYLE
  2
AcDbDetailViewStyle
  3
ObjectDBX Classes
 90
1025
 91
0
280
0
281
0
  0
CLASS
  1
ACDBSECTIONVIEWSTYLE
  2
AcDbSectionViewStyle
  3
ObjectDBX Classes
 90
1025
 91
0
280
0
281
0
  0
CLASS
  1
RASTERVARIABLES
  2
AcDbRasterVariables
  3
ISM
 90
0
 91
0
280
0
281
0
  0
CLASS
  1
ACDBPLACEHOLDER
  2
AcDbPlaceHolder
  3
ObjectDBX Classes
 90
0
 91
0
280
0
281
0
  0
CLASS
  1
LAYOUT
  2
AcDbLayout
  3
ObjectDBX Classes
 90
0
 91
0
280
0
281
0
  0
ENDSEC
  0
SECTION
  2
TABLES
  0
TABLE
  2
VPORT
  5
8
330
0
100
AcDbSymbolTable
 70
1
  0
VPORT
  5
23
330
8
100
AcDbSymbolTableRecord
100
AcDbViewportTableRecord
  2
*Active
 70
0
 10
0.0
 20
0.0
 11
1.0
 21
1.0
 12
0.0
 22
0.0
 13
0.0
 23
0.0
 14
0.5
 24
0.5
 15
0.5
 25
0.5
 16
0.0
 26
0.0
 36
1.0
 17
0.0
 27
0.0
 37
0.0
 40
1000.0
 41
1.34
 42
50.0
 43
0.0
 44
0.0
 50
0.0
 51
0.0
 71
0
 72
1000
 73
1
 74
3
 75
0
 76
0
 77
0
 78
0
281
0
 65
0
146
0.0
  0
ENDTAB
  0
TABLE
  2
LTYPE
  5
2
330
0
100
AcDbSymbolTable
 70
3
  0
LTYPE
  5
24
330
2
100
AcDbSymbolTableRecord
100
AcDbLinetypeTableRecord
  2
ByBlock
 70
0
  3

 72
65
 73
0
 40
0.0
  0
LTYPE
  5
25
330
2
100
AcDbSymbolTableRecord
100
AcDbLinetypeTableRecord
  2
ByLayer
 70
0
  3

 72
65
 73
0
 40
0.0
  0
LTYPE
  5
26
330
2
100
AcDbSymbolTableRecord
100
AcDbLinetypeTableRecord
  2
Continuous
 70
0
  3

 72
65
 73
0
 40
0.0
  0
ENDTAB
  0
TABLE
  2
LAYER
  5
1
330
0
100
AcDbSymbolTable
 70
8
  0
LAYER
  5
27
330
1
100
AcDbSymbolTableRecord
100
AcDbLayerTableRecord
  2
0
 70
0
 62
7
  6
Continuous
370
-3
390
13
347
21
  0
LAYER
  5
28
330
1
100
AcDbSymbolTableRecord
100
AcDbLayerTableRecord
  2
Defpoints
 70
0
 62
7
  6
Continuous
290
0
370
-3
390
13
347
21
  0
LAYER
  5
2F
330
1
100
AcDbSymbolTableRecord
100
AcDbLayerTableRecord
  2
CORTE
 70
0
 62
7
  6
Continuous
370
-3
390
13
347
21
  0
LAYER
  5
30
330
1
100
AcDbSymbolTableRecord
100
AcDbLayerTableRecord
  2
VISTA
 70
0
 62
8
  6
Continuous
370
-3
390
13
347
21
  0
LAYER
  5
31
330
1
100
AcDbSymbolTableRecord
100
AcDbLayerTableRecord
  2
COTAS
 70
0
 62
4
  6
Continuous
370
-3
390
13
347
21
  0
LAYER
  5
32
330
1
100
AcDbSymbolTableRecord
100
AcDbLayerTableRecord
  2
TEXTOS
 70
0
 62
7
  6
Continuous
370
-3
390
13
347
21
  0
LAYER
  5
33
330
1
100
AcDbSymbolTableRecord
100
AcDbLayerTableRecord
  2
EJES
 70
0
 62
3
  6
Continuous
370
-3
390
13
347
21
  0
LAYER
  5
34
330
1
100
AcDbSymbolTableRecord
100
AcDbLayerTableRecord
  2
SISTEMAS
 70
0
 62
5
  6
Continuous
370
-3
390
13
347
21
  0
ENDTAB
  0
TABLE
  2
STYLE
  5
5
330
0
100
AcDbSymbolTable
 70
1
  0
STYLE
  5
29
330
5
100
AcDbSymbolTableRecord
100
AcDbTextStyleTableRecord
  2
Standard
 70
0
 40
0.0
 41
1.0
 50
0.0
 71
0
 42
2.5
  3
txt
  4

  0
ENDTAB
  0
TABLE
  2
VIEW
  5
7
330
0
100
AcDbSymbolTable
 70
0
  0
ENDTAB
  0
TABLE
  2
UCS
  5
6
330
0
100
AcDbSymbolTable
 70
0
  0
ENDTAB
  0
TABLE
  2
APPID
  5
3
330
0
100
AcDbSymbolTable
 70
3
  0
APPID
  5
2A
330
3
100
AcDbSymbolTableRecord
100
AcDbRegAppTableRecord
  2
ACAD
 70
0
  0
APPID
  5
280
330
3
100
AcDbSymbolTableRecord
100
AcDbRegAppTableRecord
  2
HATCHBACKGROUNDCOLOR
 70
0
  0
APPID
  5
281
330
3
100
AcDbSymbolTableRecord
100
AcDbRegAppTableRecord
  2
EZDXF
 70
0
  0
ENDTAB
  0
TABLE
  2
DIMSTYLE
  5
4
330
0
100
AcDbSymbolTable
 70
1
100
AcDbDimStyleTable
  0
DIMSTYLE
105
2B
330
4
100
AcDbSymbolTableRecord
100
AcDbDimStyleTableRecord
  2
Standard
 70
0
 40
1.0
 41
2.5
 42
0.625
 43
3.75
 44
1.25
 45
0.0
 46
0.0
 47
0.0
 48
0.0
 49
2.5
140
2.5
141
2.5
142
0.0
143
0.03937007874
144
1.0
145
0.0
146
1.0
147
0.625
148
0.0
 69
0
 70
0
 71
0
 72
0
 73
0
 74
0
 75
0
 76
0
 77
1
 78
8
 79
3
170
0
171
3
172
1
173
0
174
0
175
0
176
0
177
0
178
0
179
2
271
2
272
2
273
2
274
3
275
0
276
0
277
2
278
44
279
0
280
0
281
0
282
0
283
0
284
8
285
0
286
0
288
0
289
3
290
0
371
-2
372
-2
  0
ENDTAB
  0
TABLE
  2
BLOCK_RECORD
  5
9
330
0
100
AcDbSymbolTable
 70
8
  0
BLOCK_RECORD
  5
17
330
9
100
AcDbSymbolTableRecord
100
AcDbBlockTableRecord
  2
*Model_Space
340
1A
 70
0
280
1
281
0
  0
BLOCK_RECORD
  5
1B
330
9
100
AcDbSymbolTableRecord
100
AcDbBlockTableRecord
  2
*Paper_Space
340
1E
 70
0
280
1
281
0
  0
BLOCK_RECORD
  5
B1
330
9
100
AcDbSymbolTableRecord
100
AcDbBlockTableRecord
  2
*D1
340
0
 70
0
280
1
281
0
  0
BLOCK_RECORD
  5
B6
330
9
100
AcDbSymbolTableRecord
100
AcDbBlockTableRecord
  2
_CLOSEDFILLED
340
0
 70
0
280
1
281
0
  0
BLOCK_RECORD
  5
C5
330
9
100
AcDbSymbolTableRecord
100
AcDbBlockTableRecord
  2
*D2
340
0
 70
0
280
1
281
0
  0
BLOCK_RECORD
  5
246
330
9
100
AcDbSymbolTableRecord
100
AcDbBlockTableRecord
  2
*D3
340
0
 70
0
280
1
281
0
  0
BLOCK_RECORD
  5
256
330
9
100
AcDbSymbolTableRecord
100
AcDbBlockTableRecord
  2
*D4
340
0
 70
0
280
1
281
0
  0
BLOCK_RECORD
  5
270
330
9
100
AcDbSymbolTableRecord
100
AcDbBlockTableRecord
  2
*D5
340
0
 70
0
280
1
281
0
  0
ENDTAB
  0
ENDSEC
  0
SECTION
  2
BLOCKS
  0
BLOCK
  5
18
330
17
100
AcDbEntity
  8
0
100
AcDbBlockBegin
  2
*Model_Space
 70
0
 10
0.0
 20
0.0
 30
0.0
  3
*Model_Space
  1

  0
ENDBLK
  5
19
330
17
100
AcDbEntity
  8
0
100
AcDbBlockEnd
  0
BLOCK
  5
1C
330
1B
100
AcDbEntity
  8
0
100
AcDbBlockBegin
  2
*Paper_Space
 70
0
 10
0.0
 20
0.0
 30
0.0
  3
*Paper_Space
  1

  0
ENDBLK
  5
1D
330
1B
100
AcDbEntity
  8
0
100
AcDbBlockEnd
  0
BLOCK
  5
B2
330
B1
100
AcDbEntity
  8
0
100
AcDbBlockBegin
  2
*D1
 70
1
 10
0.0
 20
0.0
 30
0.0
  3
*D1
  1

  0
LINE
  5
B4
330
B1
100
AcDbEntity
  8
0
100
AcDbLine
 10
492.98
 20
-1.194
 30
0.0
 11
492.98
 21
-0.95
 31
0.0
  0
LINE
  5
B5
330
B1
100
AcDbEntity
  8
0
100
AcDbLine
 10
493.98
 20
-1.194
 30
0.0
 11
493.98
 21
-0.95
 31
0.0
  0
INSERT
  5
BA
330
B1
100
AcDbEntity
  8
COTAS
100
AcDbBlockReference
  2
_CLOSEDFILLED
 10
492.98
 20
-0.95
 30
0.0
 41
0.09
 42
0.09
 50
180.0
  0
INSERT
  5
BC
330
B1
100
AcDbEntity
  8
COTAS
100
AcDbBlockReference
  2
_CLOSEDFILLED
 10
493.98
 20
-0.95
 30
0.0
 41
0.09
 42
0.09
  0
LINE
  5
BE
330
B1
100
AcDbEntity
  8
0
100
AcDbLine
 10
493.07
 20
-0.95
 30
0.0
 11
493.415
 21
-0.95
 31
0.0
  0
LINE
  5
BF
330
B1
100
AcDbEntity
  8
0
100
AcDbLine
 10
493.545
 20
-0.95
 30
0.0
 11
493.89000000000004
 21
-0.95
 31
0.0
  0
MTEXT
  5
C0
330
B1
100
AcDbEntity
  8
COTAS
100
AcDbMText
 10
493.48
 20
-0.95
 30
0.0
 40
0.13
 71
5
  1
1
  0
POINT
  5
C1
330
B1
100
AcDbEntity
  8
Defpoints
100
AcDbPoint
 10
492.98
 20
-0.95
 30
0.0
  0
POINT
  5
C2
330
B1
100
AcDbEntity
  8
Defpoints
100
AcDbPoint
 10
492.98
 20
-1.194
 30
0.0
  0
POINT
  5
C3
330
B1
100
AcDbEntity
  8
Defpoints
100
AcDbPoint
 10
493.98
 20
-1.194
 30
0.0
  0
ENDBLK
  5
B3
330
B1
100
AcDbEntity
  8
0
100
AcDbBlockEnd
  0
BLOCK
  5
B7
330
B6
100
AcDbEntity
  8
0
100
AcDbBlockBegin
  2
_CLOSEDFILLED
 70
0
 10
0.0
 20
0.0
 30
0.0
  3
_CLOSEDFILLED
  1

  0
SOLID
  5
B9
330
B6
100
AcDbEntity
  8
0
  6
BYBLOCK
 62
0
100
AcDbTrace
 10
-1.0
 20
0.16439898372402537
 30
0.0
 11
0.0
 21
0.0
 31
0.0
 12
-1.0
 22
-0.16439898372402537
 32
0.0
 13
-1.0
 23
-0.16439898372402537
 33
0.0
  0
ENDBLK
  5
B8
330
B6
100
AcDbEntity
  8
0
100
AcDbBlockEnd
  0
BLOCK
  5
C6
330
C5
100
AcDbEntity
  8
0
100
AcDbBlockBegin
  2
*D2
 70
1
 10
0.0
 20
0.0
 30
0.0
  3
*D2
  1

  0
LINE
  5
C8
330
C5
100
AcDbEntity
  8
0
100
AcDbLine
 10
494.0
 20
-5.0
 30
0.0
 11
494.4
 21
-5.0
 31
0.0
  0
LINE
  5
C9
330
C5
100
AcDbEntity
  8
0
100
AcDbLine
 10
494.0
 20
-6.0
 30
0.0
 11
494.4
 21
-6.0
 31
0.0
  0
INSERT
  5
CA
330
C5
100
AcDbEntity
  8
COTAS
100
AcDbBlockReference
  2
_CLOSEDFILLED
 10
494.4
 20
-5.0
 30
0.0
 41
0.09
 42
0.09
 50
270.0
  0
INSERT
  5
CC
330
C5
100
AcDbEntity
  8
COTAS
100
AcDbBlockReference
  2
_CLOSEDFILLED
 10
494.4
 20
-6.0
 30
0.0
 41
0.09
 42
0.09
 50
90.0
  0
LINE
  5
CE
330
C5
100
AcDbEntity
  8
0
100
AcDbLine
 10
494.4
 20
-4.91
 30
0.0
 11
494.4
 21
-5.435
 31
0.0
  0
LINE
  5
CF
330
C5
100
AcDbEntity
  8
0
100
AcDbLine
 10
494.4
 20
-5.565
 30
0.0
 11
494.4
 21
-6.09
 31
0.0
  0
MTEXT
  5
D0
330
C5
100
AcDbEntity
  8
COTAS
100
AcDbMText
 10
494.4
 20
-5.5
 30
0.0
 40
0.13
 71
5
  1
1
 50
90.0
  0
POINT
  5
D1
330
C5
100
AcDbEntity
  8
Defpoints
100
AcDbPoint
 10
494.4
 20
-5.0
 30
0.0
  0
POINT
  5
D2
330
C5
100
AcDbEntity
  8
Defpoints
100
AcDbPoint
 10
494.0
 20
-5.0
 30
0.0
  0
POINT
  5
D3
330
C5
100
AcDbEntity
  8
Defpoints
100
AcDbPoint
 10
494.0
 20
-6.0
 30
0.0
  0
ENDBLK
  5
C7
330
C5
100
AcDbEntity
  8
0
100
AcDbBlockEnd
  0
BLOCK
  5
247
330
246
100
AcDbEntity
  8
0
100
AcDbBlockBegin
  2
*D3
 70
1
 10
0.0
 20
0.0
 30
0.0
  3
*D3
  1

  0
LINE
  5
249
330
246
100
AcDbEntity
  8
0
100
AcDbLine
 10
525.8
 20
0.23722222447395325
 30
0.0
 11
525.8
 21
0.23722222447395325
 31
0.0
  0
LINE
  5
24A
330
246
100
AcDbEntity
  8
0
100
AcDbLine
 10
525.8
 20
3.249999761581421
 30
0.0
 11
525.8
 21
3.249999761581421
 31
0.0
  0
INSERT
  5
24B
330
246
100
AcDbEntity
  8
COTAS
100
AcDbBlockReference
  2
_CLOSEDFILLED
 10
525.8
 20
0.23722222447395325
 30
0.0
 41
0.09
 42
0.09
 50
270.0
  0
INSERT
  5
24D
330
246
100
AcDbEntity
  8
COTAS
100
AcDbBlockReference
  2
_CLOSEDFILLED
 10
525.8
 20
3.249999761581421
 30
0.0
 41
0.09
 42
0.09
 50
90.0
  0
LINE
  5
24F
330
246
100
AcDbEntity
  8
0
100
AcDbLine
 10
525.8
 20
0.3272222244739532
 30
0.0
 11
525.8
 21
1.4836109930276868
 31
0.0
  0
LINE
  5
250
330
246
100
AcDbEntity
  8
0
100
AcDbLine
 10
525.8
 20
2.003610993027687
 30
0.0
 11
525.8
 21
3.159999761581421
 31
0.0
  0
MTEXT
  5
251
330
246
100
AcDbEntity
  8
COTAS
100
AcDbMText
 10
525.8
 20
1.743610993027687
 30
0.0
 40
0.13
 71
5
  1
3,01
 50
90.0
  0
POINT
  5
252
330
246
100
AcDbEntity
  8
Defpoints
100
AcDbPoint
 10
525.8
 20
0.23722222447395325
 30
0.0
  0
POINT
  5
253
330
246
100
AcDbEntity
  8
Defpoints
100
AcDbPoint
 10
525.8
 20
0.23722222447395325
 30
0.0
  0
POINT
  5
254
330
246
100
AcDbEntity
  8
Defpoints
100
AcDbPoint
 10
525.8
 20
3.249999761581421
 30
0.0
  0
ENDBLK
  5
248
330
246
100
AcDbEntity
  8
0
100
AcDbBlockEnd
  0
BLOCK
  5
257
330
256
100
AcDbEntity
  8
0
100
AcDbBlockBegin
  2
*D4
 70
1
 10
0.0
 20
0.0
 30
0.0
  3
*D4
  1

  0
LINE
  5
259
330
256
100
AcDbEntity
  8
0
100
AcDbLine
 10
521.194000005722
 20
-0.1
 30
0.0
 11
521.194000005722
 21
-0.1
 31
0.0
  0
LINE
  5
25A
330
256
100
AcDbEntity
  8
0
100
AcDbLine
 10
524.7828888893127
 20
-0.1
 30
0.0
 11
524.7828888893127
 21
-0.1
 31
0.0
  0
INSERT
  5
25B
330
256
100
AcDbEntity
  8
COTAS
100
AcDbBlockReference
  2
_CLOSEDFILLED
 10
521.194000005722
 20
-0.1
 30
0.0
 41
0.09
 42
0.09
 50
180.0
  0
INSERT
  5
25D
330
256
100
AcDbEntity
  8
COTAS
100
AcDbBlockReference
  2
_CLOSEDFILLED
 10
524.7828888893127
 20
-0.1
 30
0.0
 41
0.09
 42
0.09
  0
LINE
  5
25F
330
256
100
AcDbEntity
  8
0
100
AcDbLine
 10
521.2840000057221
 20
-0.10000000000000002
 30
0.0
 11
522.7284444475174
 21
-0.10000000000000002
 31
0.0
  0
LINE
  5
260
330
256
100
AcDbEntity
  8
0
100
AcDbLine
 10
523.2484444475174
 20
-0.1
 30
0.0
 11
524.6928888893127
 21
-0.1
 31
0.0
  0
MTEXT
  5
261
330
256
100
AcDbEntity
  8
COTAS
100
AcDbMText
 10
522.9884444475174
 20
-0.1
 30
0.0
 40
0.13
 71
5
  1
3,59
  0
POINT
  5
262
330
256
100
AcDbEntity
  8
Defpoints
100
AcDbPoint
 10
521.194000005722
 20
-0.1
 30
0.0
  0
POINT
  5
263
330
256
100
AcDbEntity
  8
Defpoints
100
AcDbPoint
 10
521.194000005722
 20
-0.1
 30
0.0
  0
POINT
  5
264
330
256
100
AcDbEntity
  8
Defpoints
100
AcDbPoint
 10
524.7828888893127
 20
-0.1
 30
0.0
  0
ENDBLK
  5
258
330
256
100
AcDbEntity
  8
0
100
AcDbBlockEnd
  0
BLOCK
  5
271
330
270
100
AcDbEntity
  8
0
100
AcDbBlockBegin
  2
*D5
 70
1
 10
0.0
 20
0.0
 30
0.0
  3
*D5
  1

  0
LINE
  5
273
330
270
100
AcDbEntity
  8
0
100
AcDbLine
 10
574.25
 20
3.2
 30
0.0
 11
574.25
 21
3.2
 31
0.0
  0
LINE
  5
274
330
270
100
AcDbEntity
  8
0
100
AcDbLine
 10
574.25
 20
3.25
 30
0.0
 11
574.25
 21
3.25
 31
0.0
  0
INSERT
  5
275
330
270
100
AcDbEntity
  8
COTAS
100
AcDbBlockReference
  2
_CLOSEDFILLED
 10
574.25
 20
3.2
 30
0.0
 41
0.09
 42
0.09
 50
90.0
  0
INSERT
  5
277
330
270
100
AcDbEntity
  8
COTAS
100
AcDbBlockReference
  2
_CLOSEDFILLED
 10
574.25
 20
3.25
 30
0.0
 41
0.09
 42
0.09
 50
270.0
  0
LINE
  5
279
330
270
100
AcDbEntity
  8
0
100
AcDbLine
 10
574.25
 20
3.1100000000000003
 30
0.0
 11
574.25
 21
3.02
 31
0.0
  0
LINE
  5
27A
330
270
100
AcDbEntity
  8
0
100
AcDbLine
 10
574.25
 20
3.34
 30
0.0
 11
574.25
 21
3.43
 31
0.0
  0
LINE
  5
27B
330
270
100
AcDbEntity
  8
0
100
AcDbLine
 10
574.25
 20
3.2
 30
0.0
 11
574.25
 21
3.25
 31
0.0
  0
MTEXT
  5
27C
330
270
100
AcDbEntity
  8
COTAS
100
AcDbMText
 10
573.56
 20
3.225
 30
0.0
 40
0.13
 71
5
  1
0,05
 50
90.0
  0
POINT
  5
27D
330
270
100
AcDbEntity
  8
Defpoints
100
AcDbPoint
 10
574.25
 20
3.2
 30
0.0
  0
POINT
  5
27E
330
270
100
AcDbEntity
  8
Defpoints
100
AcDbPoint
 10
574.25
 20
3.2
 30
0.0
  0
POINT
  5
27F
330
270
100
AcDbEntity
  8
Defpoints
100
AcDbPoint
 10
574.25
 20
3.25
 30
0.0
  0
ENDBLK
  5
272
330
270
100
AcDbEntity
  8
0
100
AcDbBlockEnd
  0
ENDSEC
  0
SECTION
  2
ENTITIES
  0
LWPOLYLINE
  5
35
330
17
100
AcDbEntity
  8
VISTA
100
AcDbPolyline
 90
6
 70
1
 10
493.000878
 20
-5.999121
 10
493.999122
 20
-5.999121
 10
493.999122
 20
-5.000879
 10
493.003
 20
-5.0
 10
493.000878
 20
-5.000879
 10
493.000878
 20
-5.999121
  0
LWPOLYLINE
  5
36
330
17
100
AcDbEntity
  8
VISTA
100
AcDbPolyline
 90
4
 70
1
 10
493.001497
 20
-5.998503
 10
493.001497
 20
-5.999117
 10
493.000878
 20
-5.999121
 10
493.001497
 20
-5.998503
  0
LWPOLYLINE
  5
37
330
17
100
AcDbEntity
  8
VISTA
100
AcDbPolyline
 90
4
 70
1
 10
493.998503
 20
-5.998503
 10
493.999117
 20
-5.998503
 10
493.999122
 20
-5.999121
 10
493.998503
 20
-5.998503
  0
LWPOLYLINE
  5
38
330
17
100
AcDbEntity
  8
VISTA
100
AcDbPolyline
 90
4
 70
1
 10
493.998503
 20
-5.001497
 10
493.998503
 20
-5.000883
 10
493.999122
 20
-5.000879
 10
493.998503
 20
-5.001497
  0
LWPOLYLINE
  5
39
330
17
100
AcDbEntity
  8
VISTA
100
AcDbPolyline
 90
4
 70
1
 10
493.001497
 20
-5.001497
 10
493.000883
 20
-5.001497
 10
493.000878
 20
-5.000879
 10
493.001497
 20
-5.001497
  0
LWPOLYLINE
  5
3A
330
17
100
AcDbEntity
  8
VISTA
100
AcDbPolyline
 90
12
 70
1
 10
492.9835
 20
-5.006
 10
493.9765
 20
-5.006
 10
493.978974
 20
-5.004975
 10
493.98
 20
-5.0025
 10
493.98
 20
-4.786389
 10
493.978974
 20
-4.783914
 10
493.9765
 20
-4.782889
 10
492.9835
 20
-4.782889
 10
492.981025
 20
-4.783914
 10
492.98
 20
-4.786389
 10
492.980646
 20
-5.004526
 10
492.9835
 20
-5.006
  0
LWPOLYLINE
  5
3B
330
17
100
AcDbEntity
  8
VISTA
100
AcDbPolyline
 90
4
 70
1
 10
492.981746
 20
-5.004253
 10
492.981746
 20
-5.00497
 10
492.98103
 20
-5.004253
 10
492.981746
 20
-5.004253
  0
LWPOLYLINE
  5
3C
330
17
100
AcDbEntity
  8
VISTA
100
AcDbPolyline
 90
4
 70
1
 10
492.981746
 20
-4.783919
 10
492.981746
 20
-4.784636
 10
492.98103
 20
-4.784636
 10
492.981746
 20
-4.783919
  0
LWPOLYLINE
  5
3D
330
17
100
AcDbEntity
  8
VISTA
100
AcDbPolyline
 90
4
 70
1
 10
493.97897
 20
-5.004253
 10
493.978253
 20
-5.00497
 10
493.978253
 20
-5.004253
 10
493.97897
 20
-5.004253
  0
LWPOLYLINE
  5
3E
330
17
100
AcDbEntity
  8
VISTA
100
AcDbPolyline
 90
4
 70
1
 10
493.978253
 20
-4.783919
 10
493.97897
 20
-4.784636
 10
493.978253
 20
-4.784636
 10
493.978253
 20
-4.783919
  0
LWPOLYLINE
  5
3F
330
17
100
AcDbEntity
  8
VISTA
100
AcDbPolyline
 90
12
 70
1
 10
492.9835
 20
-4.794889
 10
493.9765
 20
-4.794889
 10
493.978974
 20
-4.793864
 10
493.98
 20
-4.791389
 10
493.98
 20
-4.575278
 10
493.978974
 20
-4.572803
 10
493.9765
 20
-4.571778
 10
492.9835
 20
-4.571778
 10
492.981025
 20
-4.572803
 10
492.98
 20
-4.575278
 10
492.980646
 20
-4.793415
 10
492.9835
 20
-4.794889
  0
LWPOLYLINE
  5
40
330
17
100
AcDbEntity
  8
VISTA
100
AcDbPolyline
 90
4
 70
1
 10
492.981746
 20
-4.793142
 10
492.981746
 20
-4.793859
 10
492.98103
 20
-4.793142
 10
492.981746
 20
-4.793142
  0
LWPOLYLINE
  5
41
330
17
100
AcDbEntity
  8
VISTA
100
AcDbPolyline
 90
4
 70
1
 10
492.981746
 20
-4.572808
 10
492.981746
 20
-4.573524
 10
492.98103
 20
-4.573524
 10
492.981746
 20
-4.572808
  0
LWPOLYLINE
  5
42
330
17
100
AcDbEntity
  8
VISTA
100
AcDbPolyline
 90
4
 70
1
 10
493.97897
 20
-4.793142
 10
493.978253
 20
-4.793859
 10
493.978253
 20
-4.793142
 10
493.97897
 20
-4.793142
  0
LWPOLYLINE
  5
43
330
17
100
AcDbEntity
  8
VISTA
100
AcDbPolyline
 90
4
 70
1
 10
493.978253
 20
-4.572808
 10
493.97897
 20
-4.573524
 10
493.978253
 20
-4.573524
 10
493.978253
 20
-4.572808
  0
LWPOLYLINE
  5
44
330
17
100
AcDbEntity
  8
VISTA
100
AcDbPolyline
 90
12
 70
1
 10
492.9835
 20
-4.583778
 10
493.9765
 20
-4.583778
 10
493.978974
 20
-4.582753
 10
493.98
 20
-4.580278
 10
493.98
 20
-4.364167
 10
493.978974
 20
-4.361692
 10
493.9765
 20
-4.360667
 10
492.9835
 20
-4.360667
 10
492.981025
 20
-4.361692
 10
492.98
 20
-4.364167
 10
492.980646
 20
-4.582304
 10
492.9835
 20
-4.583778
  0
LWPOLYLINE
  5
45
330
17
100
AcDbEntity
  8
VISTA
100
AcDbPolyline
 90
4
 70
1
 10
492.981746
 20
-4.582031
 10
492.981746
 20
-4.582747
 10
492.98103
 20
-4.582031
 10
492.981746
 20
-4.582031
  0
LWPOLYLINE
  5
46
330
17
100
AcDbEntity
  8
VISTA
100
AcDbPolyline
 90
4
 70
1
 10
492.981746
 20
-4.361697
 10
492.981746
 20
-4.362413
 10
492.98103
 20
-4.362413
 10
492.981746
 20
-4.361697
  0
LWPOLYLINE
  5
47
330
17
100
AcDbEntity
  8
VISTA
100
AcDbPolyline
 90
4
 70
1
 10
493.97897
 20
-4.582031
 10
493.978253
 20
-4.582747
 10
493.978253
 20
-4.582031
 10
493.97897
 20
-4.582031
  0
LWPOLYLINE
  5
48
330
17
100
AcDbEntity
  8
VISTA
100
AcDbPolyline
 90
4
 70
1
 10
493.978253
 20
-4.361697
 10
493.97897
 20
-4.362413
 10
493.978253
 20
-4.362413
 10
493.978253
 20
-4.361697
  0
LWPOLYLINE
  5
49
330
17
100
AcDbEntity
  8
VISTA
100
AcDbPolyline
 90
12
 70
1
 10
492.9835
 20
-4.372667
 10
493.9765
 20
-4.372667
 10
493.978974
 20
-4.371642
 10
493.98
 20
-4.369167
 10
493.98
 20
-4.153056
 10
493.978974
 20
-4.150581
 10
493.9765
 20
-4.149556
 10
492.9835
 20
-4.149556
 10
492.981025
 20
-4.150581
 10
492.98
 20
-4.153056
 10
492.980646
 20
-4.371193
 10
492.9835
 20
-4.372667
  0
LWPOLYLINE
  5
4A
330
17
100
AcDbEntity
  8
VISTA
100
AcDbPolyline
 90
4
 70
1
 10
492.981746
 20
-4.37092
 10
492.981746
 20
-4.371636
 10
492.98103
 20
-4.37092
 10
492.981746
 20
-4.37092
  0
LWPOLYLINE
  5
4B
330
17
100
AcDbEntity
  8
VISTA
100
AcDbPolyline
 90
4
 70
1
 10
492.981746
 20
-4.150586
 10
492.981746
 20
-4.151302
 10
492.98103
 20
-4.151302
 10
492.981746
 20
-4.150586
  0
LWPOLYLINE
  5
4C
330
17
100
AcDbEntity
  8
VISTA
100
AcDbPolyline
 90
4
 70
1
 10
493.97897
 20
-4.37092
 10
493.978253
 20
-4.371636
 10
493.978253
 20
-4.37092
 10
493.97897
 20
-4.37092
  0
LWPOLYLINE
  5
4D
330
17
100
AcDbEntity
  8
VISTA
100
AcDbPolyline
 90
4
 70
1
 10
493.978253
 20
-4.150586
 10
493.97897
 20
-4.151302
 10
493.978253
 20
-4.151302
 10
493.978253
 20
-4.150586
  0
LWPOLYLINE
  5
4E
330
17
100
AcDbEntity
  8
VISTA
100
AcDbPolyline
 90
12
 70
1
 10
492.9835
 20
-4.161556
 10
493.9765
 20
-4.161556
 10
493.978974
 20
-4.160531
 10
493.98
 20
-4.158056
 10
493.98
 20
-3.941945
 10
493.978974
 20
-3.93947
 10
493.9765
 20
-3.938445
 10
492.9835
 20
-3.938445
 10
492.981025
 20
-3.93947
 10
492.98
 20
-3.941945
 10
492.980646
 20
-4.160082
 10
492.9835
 20
-4.161556
  0
LWPOLYLINE
  5
4F
330
17
100
AcDbEntity
  8
VISTA
100
AcDbPolyline
 90
4
 70
1
 10
492.981746
 20
-4.159809
 10
492.981746
 20
-4.160525
 10
492.98103
 20
-4.159809
 10
492.981746
 20
-4.159809
  0
LWPOLYLINE
  5
50
330
17
100
AcDbEntity
  8
VISTA
100
AcDbPolyline
 90
4
 70
1
 10
492.981746
 20
-3.939475
 10
492.981746
 20
-3.940191
 10
492.98103
 20
-3.940191
 10
492.981746
 20
-3.939475
  0
LWPOLYLINE
  5
51
330
17
100
AcDbEntity
  8
VISTA
100
AcDbPolyline
 90
4
 70
1
 10
492.981027347546
 20
-3.9398085161315355
 10
492.981288
 20
-3.939733
 10
492.981027347546
 20
-3.939808516131536
 10
492.981027347546
 20
-3.9398085161315355
  0
LWPOLYLINE
  5
52
330
17
100
AcDbEntity
  8
VISTA
100
AcDbPolyline
 90
4
 70
1
 10
493.97897
 20
-4.159809
 10
493.978253
 20
-4.160525
 10
493.978253
 20
-4.159809
 10
493.97897
 20
-4.159809
  0
LWPOLYLINE
  5
53
330
17
100
AcDbEntity
  8
VISTA
100
AcDbPolyline
 90
4
 70
1
 10
493.978253
 20
-3.939475
 10
493.97897
 20
-3.940191
 10
493.978253
 20
-3.940191
 10
493.978253
 20
-3.939475
  0
LWPOLYLINE
  5
54
330
17
100
AcDbEntity
  8
VISTA
100
AcDbPolyline
 90
12
 70
1
 10
492.9835
 20
-3.950444
 10
493.9765
 20
-3.950444
 10
493.978974
 20
-3.949419
 10
493.98
 20
-3.946944
 10
493.98
 20
-3.730833
 10
493.978974
 20
-3.728359
 10
493.9765
 20
-3.727333
 10
492.9835
 20
-3.727333
 10
492.981025
 20
-3.728359
 10
492.98
 20
-3.730833
 10
492.980646
 20
-3.948971
 10
492.9835
 20
-3.950444
  0
LWPOLYLINE
  5
55
330
17
100
AcDbEntity
  8
VISTA
100
AcDbPolyline
 90
4
 70
1
 10
492.981746
 20
-3.948698
 10
492.981746
 20
-3.949414
 10
492.98103
 20
-3.948698
 10
492.981746
 20
-3.948698
  0
LWPOLYLINE
  5
56
330
17
100
AcDbEntity
  8
VISTA
100
AcDbPolyline
 90
4
 70
1
 10
492.981746
 20
-3.728364
 10
492.981746
 20
-3.72908
 10
492.98103
 20
-3.72908
 10
492.981746
 20
-3.728364
  0
LWPOLYLINE
  5
57
330
17
100
AcDbEntity
  8
VISTA
100
AcDbPolyline
 90
4
 70
1
 10
493.97897
 20
-3.948698
 10
493.978253
 20
-3.949414
 10
493.978253
 20
-3.948698
 10
493.97897
 20
-3.948698
  0
LWPOLYLINE
  5
58
330
17
100
AcDbEntity
  8
VISTA
100
AcDbPolyline
 90
4
 70
1
 10
493.978253
 20
-3.728364
 10
493.97897
 20
-3.72908
 10
493.978253
 20
-3.72908
 10
493.978253
 20
-3.728364
  0
LWPOLYLINE
  5
59
330
17
100
AcDbEntity
  8
VISTA
100
AcDbPolyline
 90
12
 70
1
 10
492.9835
 20
-3.739333
 10
493.9765
 20
-3.739333
 10
493.978974
 20
-3.738308
 10
493.98
 20
-3.735833
 10
493.98
 20
-3.519722
 10
493.978974
 20
-3.517247
 10
493.9765
 20
-3.516222
 10
492.9835
 20
-3.516222
 10
492.981025
 20
-3.517247
 10
492.98
 20
-3.519722
 10
492.980646
 20
-3.737859
 10
492.9835
 20
-3.739333
  0
LWPOLYLINE
  5
5A
330
17
100
AcDbEntity
  8
VISTA
100
AcDbPolyline
 90
4
 70
1
 10
492.981746
 20
-3.737587
 10
492.981746
 20
-3.738303
 10
492.98103
 20
-3.737587
 10
492.981746
 20
-3.737587
  0
LWPOLYLINE
  5
5B
330
17
100
AcDbEntity
  8
VISTA
100
AcDbPolyline
 90
4
 70
1
 10
492.981746
 20
-3.517252
 10
492.981746
 20
-3.517969
 10
492.98103
 20
-3.517969
 10
492.981746
 20
-3.517252
  0
LWPOLYLINE
  5
5C
330
17
100
AcDbEntity
  8
VISTA
100
AcDbPolyline
 90
4
 70
1
 10
493.97897
 20
-3.737587
 10
493.978253
 20
-3.738303
 10
493.978253
 20
-3.737587
 10
493.97897
 20
-3.737587
  0
LWPOLYLINE
  5
5D
330
17
100
AcDbEntity
  8
VISTA
100
AcDbPolyline
 90
4
 70
1
 10
493.978253
 20
-3.517252
 10
493.97897
 20
-3.517969
 10
493.978253
 20
-3.517969
 10
493.978253
 20
-3.517252
  0
LWPOLYLINE
  5
5E
330
17
100
AcDbEntity
  8
VISTA
100
AcDbPolyline
 90
12
 70
1
 10
492.9835
 20
-3.528222
 10
493.9765
 20
-3.528222
 10
493.978974
 20
-3.527197
 10
493.98
 20
-3.524722
 10
493.98
 20
-3.308611
 10
493.978974
 20
-3.306136
 10
493.9765
 20
-3.305111
 10
492.9835
 20
-3.305111
 10
492.981025
 20
-3.306136
 10
492.98
 20
-3.308611
 10
492.980646
 20
-3.526748
 10
492.9835
 20
-3.528222
  0
LWPOLYLINE
  5
5F
330
17
100
AcDbEntity
  8
VISTA
100
AcDbPolyline
 90
4
 70
1
 10
492.981746
 20
-3.526476
 10
492.981746
 20
-3.527192
 10
492.98103
 20
-3.526476
 10
492.981746
 20
-3.526476
  0
LWPOLYLINE
  5
60
330
17
100
AcDbEntity
  8
VISTA
100
AcDbPolyline
 90
4
 70
1
 10
492.981746
 20
-3.306141
 10
492.981746
 20
-3.306858
 10
492.98103
 20
-3.306858
 10
492.981746
 20
-3.306141
  0
LWPOLYLINE
  5
61
330
17
100
AcDbEntity
  8
VISTA
100
AcDbPolyline
 90
4
 70
1
 10
493.97897
 20
-3.526476
 10
493.978253
 20
-3.527192
 10
493.978253
 20
-3.526476
 10
493.97897
 20
-3.526476
  0
LWPOLYLINE
  5
62
330
17
100
AcDbEntity
  8
VISTA
100
AcDbPolyline
 90
4
 70
1
 10
493.978253
 20
-3.306141
 10
493.97897
 20
-3.306858
 10
493.978253
 20
-3.306858
 10
493.978253
 20
-3.306141
  0
LWPOLYLINE
  5
63
330
17
100
AcDbEntity
  8
VISTA
100
AcDbPolyline
 90
12
 70
1
 10
492.9835
 20
-3.317111
 10
493.9765
 20
-3.317111
 10
493.978974
 20
-3.316086
 10
493.98
 20
-3.313611
 10
493.98
 20
-3.0975
 10
493.978974
 20
-3.095025
 10
493.9765
 20
-3.094
 10
492.9835
 20
-3.094
 10
492.981025
 20
-3.095025
 10
492.98
 20
-3.0975
 10
492.980646
 20
-3.315637
 10
492.9835
 20
-3.317111
  0
LWPOLYLINE
  5
64
330
17
100
AcDbEntity
  8
VISTA
100
AcDbPolyline
 90
4
 70
1
 10
492.981746
 20
-3.315365
 10
492.981746
 20
-3.316081
 10
492.98103
 20
-3.315365
 10
492.981746
 20
-3.315365
  0
LWPOLYLINE
  5
65
330
17
100
AcDbEntity
  8
VISTA
100
AcDbPolyline
 90
4
 70
1
 10
492.981746
 20
-3.09503
 10
492.981746
 20
-3.095746
 10
492.98103
 20
-3.095746
 10
492.981746
 20
-3.09503
  0
LWPOLYLINE
  5
66
330
17
100
AcDbEntity
  8
VISTA
100
AcDbPolyline
 90
4
 70
1
 10
493.97897
 20
-3.315365
 10
493.978253
 20
-3.316081
 10
493.978253
 20
-3.315365
 10
493.97897
 20
-3.315365
  0
LWPOLYLINE
  5
67
330
17
100
AcDbEntity
  8
VISTA
100
AcDbPolyline
 90
4
 70
1
 10
493.978253
 20
-3.09503
 10
493.97897
 20
-3.095746
 10
493.978253
 20
-3.095746
 10
493.978253
 20
-3.09503
  0
LWPOLYLINE
  5
68
330
17
100
AcDbEntity
  8
VISTA
100
AcDbPolyline
 90
12
 70
1
 10
492.9835
 20
-3.106
 10
493.9765
 20
-3.106
 10
493.978974
 20
-3.104975
 10
493.98
 20
-3.1025
 10
493.98
 20
-2.886389
 10
493.978974
 20
-2.883914
 10
493.9765
 20
-2.882889
 10
492.9835
 20
-2.882889
 10
492.981025
 20
-2.883914
 10
492.98
 20
-2.886389
 10
492.980646
 20
-3.104526
 10
492.9835
 20
-3.106
  0
LWPOLYLINE
  5
69
330
17
100
AcDbEntity
  8
VISTA
100
AcDbPolyline
 90
4
 70
1
 10
492.981746
 20
-3.104254
 10
492.981746
 20
-3.10497
 10
492.98103
 20
-3.104254
 10
492.981746
 20
-3.104254
  0
LWPOLYLINE
  5
6A
330
17
100
AcDbEntity
  8
VISTA
100
AcDbPolyline
 90
4
 70
1
 10
492.981746
 20
-2.883919
 10
492.981746
 20
-2.884635
 10
492.98103
 20
-2.884635
 10
492.981746
 20
-2.883919
  0
LWPOLYLINE
  5
6B
330
17
100
AcDbEntity
  8
VISTA
100
AcDbPolyline
 90
4
 70
1
 10
493.97897
 20
-3.104254
 10
493.978253
 20
-3.10497
 10
493.978253
 20
-3.104254
 10
493.97897
 20
-3.104254
  0
LWPOLYLINE
  5
6C
330
17
100
AcDbEntity
  8
VISTA
100
AcDbPolyline
 90
4
 70
1
 10
493.978253
 20
-2.883919
 10
493.97897
 20
-2.884635
 10
493.978253
 20
-2.884635
 10
493.978253
 20
-2.883919
  0
LWPOLYLINE
  5
6D
330
17
100
AcDbEntity
  8
VISTA
100
AcDbPolyline
 90
12
 70
1
 10
492.9835
 20
-2.894889
 10
493.9765
 20
-2.894889
 10
493.978974
 20
-2.893864
 10
493.98
 20
-2.891389
 10
493.98
 20
-2.675278
 10
493.978974
 20
-2.672803
 10
493.9765
 20
-2.671778
 10
492.9835
 20
-2.671778
 10
492.981025
 20
-2.672803
 10
492.98
 20
-2.675278
 10
492.980646
 20
-2.893415
 10
492.9835
 20
-2.894889
  0
LWPOLYLINE
  5
6E
330
17
100
AcDbEntity
  8
VISTA
100
AcDbPolyline
 90
4
 70
1
 10
492.981746
 20
-2.893142
 10
492.981746
 20
-2.893859
 10
492.98103
 20
-2.893142
 10
492.981746
 20
-2.893142
  0
LWPOLYLINE
  5
6F
330
17
100
AcDbEntity
  8
VISTA
100
AcDbPolyline
 90
4
 70
1
 10
492.981746
 20
-2.672808
 10
492.981746
 20
-2.673524
 10
492.98103
 20
-2.673524
 10
492.981746
 20
-2.672808
  0
LWPOLYLINE
  5
70
330
17
100
AcDbEntity
  8
VISTA
100
AcDbPolyline
 90
4
 70
1
 10
492.981027347546
 20
-2.6731415161315355
 10
492.981288
 20
-2.673066
 10
492.981027347546
 20
-2.673141516131536
 10
492.981027347546
 20
-2.6731415161315355
  0
LWPOLYLINE
  5
71
330
17
100
AcDbEntity
  8
VISTA
100
AcDbPolyline
 90
4
 70
1
 10
493.97897
 20
-2.893142
 10
493.978253
 20
-2.893859
 10
493.978253
 20
-2.893142
 10
493.97897
 20
-2.893142
  0
LWPOLYLINE
  5
72
330
17
100
AcDbEntity
  8
VISTA
100
AcDbPolyline
 90
4
 70
1
 10
493.978253
 20
-2.672808
 10
493.97897
 20
-2.673524
 10
493.978253
 20
-2.673524
 10
493.978253
 20
-2.672808
  0
LWPOLYLINE
  5
73
330
17
100
AcDbEntity
  8
VISTA
100
AcDbPolyline
 90
12
 70
1
 10
492.9835
 20
-2.683778
 10
493.9765
 20
-2.683778
 10
493.978974
 20
-2.682753
 10
493.98
 20
-2.680278
 10
493.98
 20
-2.464167
 10
493.978974
 20
-2.461692
 10
493.9765
 20
-2.460667
 10
492.9835
 20
-2.460667
 10
492.981025
 20
-2.461692
 10
492.98
 20
-2.464167
 10
492.980646
 20
-2.682304
 10
492.9835
 20
-2.683778
  0
LWPOLYLINE
  5
74
330
17
100
AcDbEntity
  8
VISTA
100
AcDbPolyline
 90
4
 70
1
 10
492.981746
 20
-2.682031
 10
492.981746
 20
-2.682748
 10
492.98103
 20
-2.682031
 10
492.981746
 20
-2.682031
  0
LWPOLYLINE
  5
75
330
17
100
AcDbEntity
  8
VISTA
100
AcDbPolyline
 90
4
 70
1
 10
492.981746
 20
-2.461697
 10
492.981746
 20
-2.462413
 10
492.98103
 20
-2.462413
 10
492.981746
 20
-2.461697
  0
LWPOLYLINE
  5
76
330
17
100
AcDbEntity
  8
VISTA
100
AcDbPolyline
 90
4
 70
1
 10
493.97897
 20
-2.682031
 10
493.978253
 20
-2.682748
 10
493.978253
 20
-2.682031
 10
493.97897
 20
-2.682031
  0
LWPOLYLINE
  5
77
330
17
100
AcDbEntity
  8
VISTA
100
AcDbPolyline
 90
4
 70
1
 10
493.978253
 20
-2.461697
 10
493.97897
 20
-2.462413
 10
493.978253
 20
-2.462413
 10
493.978253
 20
-2.461697
  0
LWPOLYLINE
  5
78
330
17
100
AcDbEntity
  8
VISTA
100
AcDbPolyline
 90
12
 70
1
 10
492.9835
 20
-2.472667
 10
493.9765
 20
-2.472667
 10
493.978974
 20
-2.471642
 10
493.98
 20
-2.469167
 10
493.98
 20
-2.253056
 10
493.978974
 20
-2.250581
 10
493.9765
 20
-2.249556
 10
492.9835
 20
-2.249556
 10
492.981025
 20
-2.250581
 10
492.98
 20
-2.253056
 10
492.980646
 20
-2.471193
 10
492.9835
 20
-2.472667
  0
LWPOLYLINE
  5
79
330
17
100
AcDbEntity
  8
VISTA
100
AcDbPolyline
 90
4
 70
1
 10
492.981746
 20
-2.47092
 10
492.981746
 20
-2.471637
 10
492.98103
 20
-2.47092
 10
492.981746
 20
-2.47092
  0
LWPOLYLINE
  5
7A
330
17
100
AcDbEntity
  8
VISTA
100
AcDbPolyline
 90
4
 70
1
 10
492.981746
 20
-2.250586
 10
492.981746
 20
-2.251302
 10
492.98103
 20
-2.251302
 10
492.981746
 20
-2.250586
  0
LWPOLYLINE
  5
7B
330
17
100
AcDbEntity
  8
VISTA
100
AcDbPolyline
 90
4
 70
1
 10
493.97897
 20
-2.47092
 10
493.978253
 20
-2.471637
 10
493.978253
 20
-2.47092
 10
493.97897
 20
-2.47092
  0
LWPOLYLINE
  5
7C
330
17
100
AcDbEntity
  8
VISTA
100
AcDbPolyline
 90
4
 70
1
 10
493.978253
 20
-2.250586
 10
493.97897
 20
-2.251302
 10
493.978253
 20
-2.251302
 10
493.978253
 20
-2.250586
  0
LWPOLYLINE
  5
7D
330
17
100
AcDbEntity
  8
VISTA
100
AcDbPolyline
 90
12
 70
1
 10
492.9835
 20
-2.261556
 10
493.9765
 20
-2.261556
 10
493.978974
 20
-2.26053
 10
493.98
 20
-2.258056
 10
493.98
 20
-2.041945
 10
493.978974
 20
-2.03947
 10
493.9765
 20
-2.038445
 10
492.9835
 20
-2.038445
 10
492.981025
 20
-2.03947
 10
492.98
 20
-2.041945
 10
492.980646
 20
-2.260082
 10
492.9835
 20
-2.261556
  0
LWPOLYLINE
  5
7E
330
17
100
AcDbEntity
  8
VISTA
100
AcDbPolyline
 90
4
 70
1
 10
492.981746
 20
-2.259809
 10
492.981746
 20
-2.260525
 10
492.98103
 20
-2.259809
 10
492.981746
 20
-2.259809
  0
LWPOLYLINE
  5
7F
330
17
100
AcDbEntity
  8
VISTA
100
AcDbPolyline
 90
4
 70
1
 10
492.98102734473605
 20
-2.260191889059458
 10
492.981288
 20
-2.260267
 10
492.98102734473605
 20
-2.2601918890594583
 10
492.98102734473605
 20
-2.260191889059458
  0
LWPOLYLINE
  5
80
330
17
100
AcDbEntity
  8
VISTA
100
AcDbPolyline
 90
4
 70
1
 10
492.981746
 20
-2.039475
 10
492.981746
 20
-2.040191
 10
492.98103
 20
-2.040191
 10
492.981746
 20
-2.039475
  0
LWPOLYLINE
  5
81
330
17
100
AcDbEntity
  8
VISTA
100
AcDbPolyline
 90
4
 70
1
 10
493.97897
 20
-2.259809
 10
493.978253
 20
-2.260525
 10
493.978253
 20
-2.259809
 10
493.97897
 20
-2.259809
  0
LWPOLYLINE
  5
82
330
17
100
AcDbEntity
  8
VISTA
100
AcDbPolyline
 90
4
 70
1
 10
493.978253
 20
-2.039475
 10
493.97897
 20
-2.040191
 10
493.978253
 20
-2.040191
 10
493.978253
 20
-2.039475
  0
LWPOLYLINE
  5
83
330
17
100
AcDbEntity
  8
VISTA
100
AcDbPolyline
 90
12
 70
1
 10
492.9835
 20
-2.050444
 10
493.9765
 20
-2.050444
 10
493.978974
 20
-2.049419
 10
493.98
 20
-2.046944
 10
493.98
 20
-1.830833
 10
493.978974
 20
-1.828359
 10
493.9765
 20
-1.827333
 10
492.9835
 20
-1.827333
 10
492.981025
 20
-1.828359
 10
492.98
 20
-1.830833
 10
492.980646
 20
-2.048971
 10
492.9835
 20
-2.050444
  0
LWPOLYLINE
  5
84
330
17
100
AcDbEntity
  8
VISTA
100
AcDbPolyline
 90
4
 70
1
 10
492.981746
 20
-2.048698
 10
492.981746
 20
-2.049414
 10
492.98103
 20
-2.048698
 10
492.981746
 20
-2.048698
  0
LWPOLYLINE
  5
85
330
17
100
AcDbEntity
  8
VISTA
100
AcDbPolyline
 90
4
 70
1
 10
492.981746
 20
-1.828364
 10
492.981746
 20
-1.82908
 10
492.98103
 20
-1.82908
 10
492.981746
 20
-1.828364
  0
LWPOLYLINE
  5
86
330
17
100
AcDbEntity
  8
VISTA
100
AcDbPolyline
 90
4
 70
1
 10
493.97897
 20
-2.048698
 10
493.978253
 20
-2.049414
 10
493.978253
 20
-2.048698
 10
493.97897
 20
-2.048698
  0
LWPOLYLINE
  5
87
330
17
100
AcDbEntity
  8
VISTA
100
AcDbPolyline
 90
4
 70
1
 10
493.978253
 20
-1.828364
 10
493.97897
 20
-1.82908
 10
493.978253
 20
-1.82908
 10
493.978253
 20
-1.828364
  0
LWPOLYLINE
  5
88
330
17
100
AcDbEntity
  8
VISTA
100
AcDbPolyline
 90
12
 70
1
 10
492.9835
 20
-1.839333
 10
493.9765
 20
-1.839333
 10
493.978974
 20
-1.838308
 10
493.98
 20
-1.835833
 10
493.98
 20
-1.619722
 10
493.978974
 20
-1.617247
 10
493.9765
 20
-1.616222
 10
492.9835
 20
-1.616222
 10
492.981025
 20
-1.617247
 10
492.98
 20
-1.619722
 10
492.980646
 20
-1.83786
 10
492.9835
 20
-1.839333
  0
LWPOLYLINE
  5
89
330
17
100
AcDbEntity
  8
VISTA
100
AcDbPolyline
 90
4
 70
1
 10
492.981746
 20
-1.837587
 10
492.981746
 20
-1.838303
 10
492.98103
 20
-1.837587
 10
492.981746
 20
-1.837587
  0
LWPOLYLINE
  5
8A
330
17
100
AcDbEntity
  8
VISTA
100
AcDbPolyline
 90
4
 70
1
 10
492.98102734473605
 20
-1.837969889059458
 10
492.981288
 20
-1.838045
 10
492.98102734473605
 20
-1.8379698890594582
 10
492.98102734473605
 20
-1.837969889059458
  0
LWPOLYLINE
  5
8B
330
17
100
AcDbEntity
  8
VISTA
100
AcDbPolyline
 90
4
 70
1
 10
492.981746
 20
-1.617252
 10
492.981746
 20
-1.617969
 10
492.98103
 20
-1.617969
 10
492.981746
 20
-1.617252
  0
LWPOLYLINE
  5
8C
330
17
100
AcDbEntity
  8
VISTA
100
AcDbPolyline
 90
4
 70
1
 10
493.97897
 20
-1.837587
 10
493.978253
 20
-1.838303
 10
493.978253
 20
-1.837587
 10
493.97897
 20
-1.837587
  0
LWPOLYLINE
  5
8D
330
17
100
AcDbEntity
  8
VISTA
100
AcDbPolyline
 90
4
 70
1
 10
493.978253
 20
-1.617252
 10
493.97897
 20
-1.617969
 10
493.978253
 20
-1.617969
 10
493.978253
 20
-1.617252
  0
LWPOLYLINE
  5
8E
330
17
100
AcDbEntity
  8
VISTA
100
AcDbPolyline
 90
12
 70
1
 10
492.9835
 20
-1.628222
 10
493.9765
 20
-1.628222
 10
493.978974
 20
-1.627197
 10
493.98
 20
-1.624722
 10
493.98
 20
-1.408611
 10
493.978974
 20
-1.406136
 10
493.9765
 20
-1.405111
 10
492.9835
 20
-1.405111
 10
492.981025
 20
-1.406136
 10
492.98
 20
-1.408611
 10
492.980646
 20
-1.626748
 10
492.9835
 20
-1.628222
  0
LWPOLYLINE
  5
8F
330
17
100
AcDbEntity
  8
VISTA
100
AcDbPolyline
 90
4
 70
1
 10
492.981746
 20
-1.626476
 10
492.981746
 20
-1.627192
 10
492.98103
 20
-1.626476
 10
492.981746
 20
-1.626476
  0
LWPOLYLINE
  5
90
330
17
100
AcDbEntity
  8
VISTA
100
AcDbPolyline
 90
4
 70
1
 10
492.981746
 20
-1.406141
 10
492.981746
 20
-1.406857
 10
492.98103
 20
-1.406857
 10
492.981746
 20
-1.406141
  0
LWPOLYLINE
  5
91
330
17
100
AcDbEntity
  8
VISTA
100
AcDbPolyline
 90
4
 70
1
 10
493.97897
 20
-1.626476
 10
493.978253
 20
-1.627192
 10
493.978253
 20
-1.626476
 10
493.97897
 20
-1.626476
  0
LWPOLYLINE
  5
92
330
17
100
AcDbEntity
  8
VISTA
100
AcDbPolyline
 90
4
 70
1
 10
493.978253
 20
-1.406141
 10
493.97897
 20
-1.406857
 10
493.978253
 20
-1.406857
 10
493.978253
 20
-1.406141
  0
LWPOLYLINE
  5
93
330
17
100
AcDbEntity
  8
VISTA
100
AcDbPolyline
 90
12
 70
1
 10
492.9835
 20
-1.417111
 10
493.9765
 20
-1.417111
 10
493.978974
 20
-1.416086
 10
493.98
 20
-1.413611
 10
493.98
 20
-1.1975
 10
493.978974
 20
-1.195025
 10
493.9765
 20
-1.194
 10
492.9835
 20
-1.194
 10
492.981025
 20
-1.195025
 10
492.98
 20
-1.1975
 10
492.980646
 20
-1.415637
 10
492.9835
 20
-1.417111
  0
LWPOLYLINE
  5
94
330
17
100
AcDbEntity
  8
VISTA
100
AcDbPolyline
 90
4
 70
1
 10
492.981746
 20
-1.415365
 10
492.981746
 20
-1.416081
 10
492.98103
 20
-1.415365
 10
492.981746
 20
-1.415365
  0
LWPOLYLINE
  5
95
330
17
100
AcDbEntity
  8
VISTA
100
AcDbPolyline
 90
4
 70
1
 10
492.981746
 20
-1.19503
 10
492.981746
 20
-1.195746
 10
492.98103
 20
-1.195746
 10
492.981746
 20
-1.19503
  0
LWPOLYLINE
  5
96
330
17
100
AcDbEntity
  8
VISTA
100
AcDbPolyline
 90
4
 70
1
 10
493.97897
 20
-1.415365
 10
493.978253
 20
-1.416081
 10
493.978253
 20
-1.415365
 10
493.97897
 20
-1.415365
  0
LWPOLYLINE
  5
97
330
17
100
AcDbEntity
  8
VISTA
100
AcDbPolyline
 90
4
 70
1
 10
493.978253
 20
-1.19503
 10
493.97897
 20
-1.195746
 10
493.978253
 20
-1.195746
 10
493.978253
 20
-1.19503
  0
LWPOLYLINE
  5
98
330
17
100
AcDbEntity
  8
VISTA
100
AcDbPolyline
 90
5
 70
1
 10
493.0
 20
-4.9945
 10
493.0
 20
-5.0195
 10
493.959999
 20
-5.0195
 10
493.959999
 20
-4.9945
 10
493.0
 20
-4.9945
  0
LWPOLYLINE
  5
99
330
17
100
AcDbEntity
  8
VISTA
100
AcDbPolyline
 90
5
 70
1
 10
493.0307
 20
-4.819889
 10
493.929999
 20
-4.819189
 10
493.929299
 20
-4.797889
 10
493.0307
 20
-4.798094
 10
493.0307
 20
-4.819889
  0
LWPOLYLINE
  5
9A
330
17
100
AcDbEntity
  8
VISTA
100
AcDbPolyline
 90
5
 70
1
 10
493.0307
 20
-4.608778
 10
493.929999
 20
-4.608078
 10
493.929299
 20
-4.586778
 10
493.0307
 20
-4.586983
 10
493.0307
 20
-4.608778
  0
LWPOLYLINE
  5
9B
330
17
100
AcDbEntity
  8
VISTA
100
AcDbPolyline
 90
5
 70
1
 10
493.0307
 20
-4.397667
 10
493.929999
 20
-4.396967
 10
493.929299
 20
-4.375667
 10
493.0307
 20
-4.375872
 10
493.0307
 20
-4.397667
  0
LWPOLYLINE
  5
9C
330
17
100
AcDbEntity
  8
VISTA
100
AcDbPolyline
 90
5
 70
1
 10
493.0307
 20
-4.186556
 10
493.929999
 20
-4.185856
 10
493.929299
 20
-4.164556
 10
493.0307
 20
-4.164761
 10
493.0307
 20
-4.186556
  0
LWPOLYLINE
  5
9D
330
17
100
AcDbEntity
  8
VISTA
100
AcDbPolyline
 90
5
 70
1
 10
493.0307
 20
-3.975445
 10
493.929999
 20
-3.974745
 10
493.929299
 20
-3.953445
 10
493.0307
 20
-3.95365
 10
493.0307
 20
-3.975445
  0
LWPOLYLINE
  5
9E
330
17
100
AcDbEntity
  8
VISTA
100
AcDbPolyline
 90
5
 70
1
 10
493.0307
 20
-3.764333
 10
493.929999
 20
-3.763633
 10
493.929299
 20
-3.742333
 10
493.0307
 20
-3.742538
 10
493.0307
 20
-3.764333
  0
LWPOLYLINE
  5
9F
330
17
100
AcDbEntity
  8
VISTA
100
AcDbPolyline
 90
5
 70
1
 10
493.0307
 20
-3.553222
 10
493.929999
 20
-3.552522
 10
493.929299
 20
-3.531222
 10
493.0307
 20
-3.531427
 10
493.0307
 20
-3.553222
  0
LWPOLYLINE
  5
A0
330
17
100
AcDbEntity
  8
VISTA
100
AcDbPolyline
 90
5
 70
1
 10
493.0307
 20
-3.342111
 10
493.929999
 20
-3.341411
 10
493.929299
 20
-3.320111
 10
493.0307
 20
-3.320316
 10
493.0307
 20
-3.342111
  0
LWPOLYLINE
  5
A1
330
17
100
AcDbEntity
  8
VISTA
100
AcDbPolyline
 90
5
 70
1
 10
493.0307
 20
-3.131
 10
493.929999
 20
-3.1303
 10
493.929299
 20
-3.109
 10
493.0307
 20
-3.109205
 10
493.0307
 20
-3.131
  0
LWPOLYLINE
  5
A2
330
17
100
AcDbEntity
  8
VISTA
100
AcDbPolyline
 90
5
 70
1
 10
493.0307
 20
-2.919889
 10
493.929999
 20
-2.919189
 10
493.929299
 20
-2.897889
 10
493.0307
 20
-2.898094
 10
493.0307
 20
-2.919889
  0
LWPOLYLINE
  5
A3
330
17
100
AcDbEntity
  8
VISTA
100
AcDbPolyline
 90
5
 70
1
 10
493.0307
 20
-2.708778
 10
493.929999
 20
-2.708078
 10
493.929299
 20
-2.686778
 10
493.0307
 20
-2.686983
 10
493.0307
 20
-2.708778
  0
LWPOLYLINE
  5
A4
330
17
100
AcDbEntity
  8
VISTA
100
AcDbPolyline
 90
5
 70
1
 10
493.0307
 20
-2.497667
 10
493.929999
 20
-2.496967
 10
493.929299
 20
-2.475667
 10
493.0307
 20
-2.475872
 10
493.0307
 20
-2.497667
  0
LWPOLYLINE
  5
A5
330
17
100
AcDbEntity
  8
VISTA
100
AcDbPolyline
 90
5
 70
1
 10
493.0307
 20
-2.286556
 10
493.929999
 20
-2.285856
 10
493.929299
 20
-2.264556
 10
493.0307
 20
-2.264761
 10
493.0307
 20
-2.286556
  0
LWPOLYLINE
  5
A6
330
17
100
AcDbEntity
  8
VISTA
100
AcDbPolyline
 90
5
 70
1
 10
493.0307
 20
-2.075444
 10
493.929999
 20
-2.074744
 10
493.929299
 20
-2.053445
 10
493.0307
 20
-2.05365
 10
493.0307
 20
-2.075444
  0
LWPOLYLINE
  5
A7
330
17
100
AcDbEntity
  8
VISTA
100
AcDbPolyline
 90
5
 70
1
 10
493.0307
 20
-1.864333
 10
493.929999
 20
-1.863633
 10
493.929299
 20
-1.842333
 10
493.0307
 20
-1.842538
 10
493.0307
 20
-1.864333
  0
LWPOLYLINE
  5
A8
330
17
100
AcDbEntity
  8
VISTA
100
AcDbPolyline
 90
5
 70
1
 10
493.0307
 20
-1.653222
 10
493.929999
 20
-1.652522
 10
493.929299
 20
-1.631222
 10
493.0307
 20
-1.631427
 10
493.0307
 20
-1.653222
  0
LWPOLYLINE
  5
A9
330
17
100
AcDbEntity
  8
VISTA
100
AcDbPolyline
 90
5
 70
1
 10
493.0307
 20
-1.442111
 10
493.929999
 20
-1.441411
 10
493.929299
 20
-1.420111
 10
493.0307
 20
-1.420316
 10
493.0307
 20
-1.442111
  0
LWPOLYLINE
  5
AA
330
17
100
AcDbEntity
  8
VISTA
100
AcDbPolyline
 90
5
 70
1
 10
493.0307
 20
-1.231
 10
493.929999
 20
-1.2303
 10
493.929299
 20
-1.209
 10
493.0307
 20
-1.209205
 10
493.0307
 20
-1.231
  0
LWPOLYLINE
  5
AB
330
17
100
AcDbEntity
  8
VISTA
100
AcDbPolyline
 90
9
 70
1
 10
493.891171
 20
-5.758829
 10
493.894
 20
-5.76
 10
494.206
 20
-5.76
 10
494.209262
 20
-5.758316
 10
494.21
 20
-4.844
 10
494.208316
 20
-4.840739
 10
493.894
 20
-4.84
 10
493.890738
 20
-4.841684
 10
493.891171
 20
-5.758829
  0
LWPOLYLINE
  5
AC
330
17
100
AcDbEntity
  8
VISTA
100
AcDbPolyline
 90
4
 70
1
 10
493.891691
 20
-5.758309
 10
493.892205
 20
-5.758528
 10
493.891473
 20
-5.758528
 10
493.891691
 20
-5.758309
  0
LWPOLYLINE
  5
AD
330
17
100
AcDbEntity
  8
VISTA
100
AcDbPolyline
 90
4
 70
1
 10
493.891691
 20
-4.841691
 10
493.891473
 20
-4.842206
 10
493.891473
 20
-4.841473
 10
493.891691
 20
-4.841691
  0
LWPOLYLINE
  5
AE
330
17
100
AcDbEntity
  8
VISTA
100
AcDbPolyline
 90
4
 70
1
 10
494.208309
 20
-4.841691
 10
494.207795
 20
-4.841473
 10
494.208528
 20
-4.841473
 10
494.208309
 20
-4.841691
  0
LWPOLYLINE
  5
AF
330
17
100
AcDbEntity
  8
VISTA
100
AcDbPolyline
 90
4
 70
1
 10
494.208528
 20
-5.758528
 10
494.207795
 20
-5.758528
 10
494.208309
 20
-5.758309
 10
494.208528
 20
-5.758528
  0
DIMENSION
  5
B0
330
17
100
AcDbEntity
  8
COTAS
100
AcDbDimension
280
0
  2
*D1
  3
Standard
 10
492.98
 20
-0.95
 30
0.0
 11
493.48
 21
-0.95
 31
0.0
 70
32
 71
5
  1
<>
100
AcDbAlignedDimension
 13
492.98
 23
-1.194
 33
0.0
 14
493.98
 24
-1.194
 34
0.0
 50
0.0
100
AcDbRotatedDimension
1001
ACAD
1000
DSTYLE
1002
{
1070
140
1040
0.13
1070
41
1040
0.09
1002
}
  0
DIMENSION
  5
C4
330
17
100
AcDbEntity
  8
COTAS
100
AcDbDimension
280
0
  2
*D2
  3
Standard
 10
494.4
 20
-5.0
 30
0.0
 11
494.4
 21
-5.5
 31
0.0
 70
32
 71
5
  1
<>
100
AcDbAlignedDimension
 13
494.0
 23
-5.0
 33
0.0
 14
494.0
 24
-6.0
 34
0.0
 50
90.0
100
AcDbRotatedDimension
1001
ACAD
1000
DSTYLE
1002
{
1070
140
1040
0.13
1070
41
1040
0.09
1002
}
  0
TEXT
  5
D4
330
17
100
AcDbEntity
  8
TEXTOS
100
AcDbText
 10
493.48
 20
-5.5
 30
0.0
 40
0.055999999999999994
  1
DESCANSO
100
AcDbText
  0
LINE
  5
D5
330
17
100
AcDbEntity
  8
VISTA
100
AcDbLine
 10
493.48
 20
-1.55
 30
0.0
 11
493.48
 21
-4.75
 31
0.0
  0
TEXT
  5
D6
330
17
100
AcDbEntity
  8
TEXTOS
100
AcDbText
 10
493.48
 20
-3.3
 30
0.0
 40
0.055999999999999994
  1
SUBE 18
100
AcDbText
  0
LWPOLYLINE
  5
D7
330
17
100
AcDbEntity
  8
VISTA
100
AcDbPolyline
 90
13
 70
1
 10
525.0287
 20
3.047314
 10
525.027
 20
3.0487
 10
525.027314
 20
3.072284
 10
525.027716
 20
3.0713
 10
525.0287
 20
3.073
 10
525.052284
 20
3.072686
 10
525.0513
 20
3.072284
 10
525.053
 20
3.0713
 10
525.052686
 20
3.047716
 10
525.052284
 20
3.0487
 10
525.0513
 20
3.047
 10
525.0287
 20
3.047
 10
525.0287
 20
3.047314
  0
LWPOLYLINE
  5
D8
330
17
100
AcDbEntity
  8
VISTA
100
AcDbPolyline
 90
13
 70
1
 10
525.0287
 20
3.137314
 10
525.027
 20
3.1387
 10
525.027314
 20
3.162284
 10
525.027716
 20
3.1613
 10
525.0287
 20
3.163
 10
525.052284
 20
3.162686
 10
525.0513
 20
3.162284
 10
525.053
 20
3.1613
 10
525.052686
 20
3.137716
 10
525.052284
 20
3.1387
 10
525.0513
 20
3.137
 10
525.0287
 20
3.137
 10
525.0287
 20
3.137314
  0
LWPOLYLINE
  5
D9
330
17
100
AcDbEntity
  8
VISTA
100
AcDbPolyline
 90
5
 70
1
 10
521.306
 20
1.183026
 10
521.306
 20
0.245026
 10
521.295
 20
0.243882
 10
521.294293
 20
1.183579
 10
521.306
 20
1.183026
  0
LWPOLYLINE
  5
DA
330
17
100
AcDbEntity
  8
VISTA
100
AcDbPolyline
 90
5
 70
1
 10
521.406
 20
1.266974
 10
521.406
 20
0.328974
 10
521.395
 20
0.327829
 10
521.394293
 20
1.267527
 10
521.406
 20
1.266974
  0
LWPOLYLINE
  5
DB
330
17
100
AcDbEntity
  8
VISTA
100
AcDbPolyline
 90
5
 70
1
 10
521.506
 20
1.350921
 10
521.506
 20
0.412921
 10
521.495
 20
0.411776
 10
521.494293
 20
1.351474
 10
521.506
 20
1.350921
  0
LWPOLYLINE
  5
DC
330
17
100
AcDbEntity
  8
VISTA
100
AcDbPolyline
 90
5
 70
1
 10
521.606
 20
1.434868
 10
521.606
 20
0.496868
 10
521.595
 20
0.495724
 10
521.594293
 20
1.435421
 10
521.606
 20
1.434868
  0
LWPOLYLINE
  5
DD
330
17
100
AcDbEntity
  8
VISTA
100
AcDbPolyline
 90
5
 70
1
 10
521.706
 20
1.518816
 10
521.706
 20
0.580816
 10
521.695
 20
0.579671
 10
521.694293
 20
1.519369
 10
521.706
 20
1.518816
  0
LWPOLYLINE
  5
DE
330
17
100
AcDbEntity
  8
VISTA
100
AcDbPolyline
 90
5
 70
1
 10
521.806
 20
1.602763
 10
521.806
 20
0.664763
 10
521.795
 20
0.663618
 10
521.794293
 20
1.603316
 10
521.806
 20
1.602763
  0
LWPOLYLINE
  5
DF
330
17
100
AcDbEntity
  8
VISTA
100
AcDbPolyline
 90
5
 70
1
 10
521.906
 20
1.686711
 10
521.906
 20
0.748711
 10
521.895
 20
0.747566
 10
521.894293
 20
1.687264
 10
521.906
 20
1.686711
  0
LWPOLYLINE
  5
E0
330
17
100
AcDbEntity
  8
VISTA
100
AcDbPolyline
 90
5
 70
1
 10
522.006
 20
1.770658
 10
522.006
 20
0.832658
 10
521.995
 20
0.831513
 10
521.994293
 20
1.771211
 10
522.006
 20
1.770658
  0
LWPOLYLINE
  5
E1
330
17
100
AcDbEntity
  8
VISTA
100
AcDbPolyline
 90
5
 70
1
 10
522.106
 20
1.854605
 10
522.106
 20
0.916605
 10
522.095
 20
0.91546
 10
522.094293
 20
1.855158
 10
522.106
 20
1.854605
  0
LWPOLYLINE
  5
E2
330
17
100
AcDbEntity
  8
VISTA
100
AcDbPolyline
 90
5
 70
1
 10
522.206
 20
1.938553
 10
522.206
 20
1.000553
 10
522.195
 20
0.999408
 10
522.194293
 20
1.939106
 10
522.206
 20
1.938553
  0
LWPOLYLINE
  5
E3
330
17
100
AcDbEntity
  8
VISTA
100
AcDbPolyline
 90
5
 70
1
 10
522.306
 20
2.0225
 10
522.306
 20
1.0845
 10
522.295
 20
1.083355
 10
522.294293
 20
2.023053
 10
522.306
 20
2.0225
  0
LWPOLYLINE
  5
E4
330
17
100
AcDbEntity
  8
VISTA
100
AcDbPolyline
 90
5
 70
1
 10
522.406
 20
2.106447
 10
522.406
 20
1.168447
 10
522.395
 20
1.167303
 10
522.394293
 20
2.107001
 10
522.406
 20
2.106447
  0
LWPOLYLINE
  5
E5
330
17
100
AcDbEntity
  8
VISTA
100
AcDbPolyline
 90
5
 70
1
 10
522.506
 20
2.190395
 10
522.506
 20
1.252395
 10
522.495
 20
1.25125
 10
522.494293
 20
2.190948
 10
522.506
 20
2.190395
  0
LWPOLYLINE
  5
E6
330
17
100
AcDbEntity
  8
VISTA
100
AcDbPolyline
 90
5
 70
1
 10
522.606
 20
2.274342
 10
522.606
 20
1.336342
 10
522.595
 20
1.335197
 10
522.594293
 20
2.274895
 10
522.606
 20
2.274342
  0
LWPOLYLINE
  5
E7
330
17
100
AcDbEntity
  8
VISTA
100
AcDbPolyline
 90
5
 70
1
 10
522.706
 20
2.358289
 10
522.706
 20
1.42029
 10
522.695
 20
1.419145
 10
522.694293
 20
2.358843
 10
522.706
 20
2.358289
  0
LWPOLYLINE
  5
E8
330
17
100
AcDbEntity
  8
VISTA
100
AcDbPolyline
 90
5
 70
1
 10
522.806
 20
2.442237
 10
522.806
 20
1.504237
 10
522.795
 20
1.503092
 10
522.794293
 20
2.44279
 10
522.806
 20
2.442237
  0
LWPOLYLINE
  5
E9
330
17
100
AcDbEntity
  8
VISTA
100
AcDbPolyline
 90
5
 70
1
 10
522.906
 20
2.526184
 10
522.906
 20
1.588184
 10
522.895
 20
1.587039
 10
522.894293
 20
2.526737
 10
522.906
 20
2.526184
  0
LWPOLYLINE
  5
EA
330
17
100
AcDbEntity
  8
VISTA
100
AcDbPolyline
 90
5
 70
1
 10
523.006
 20
2.610132
 10
523.006
 20
1.672132
 10
522.995
 20
1.670987
 10
522.994293
 20
2.610685
 10
523.006
 20
2.610132
  0
LWPOLYLINE
  5
EB
330
17
100
AcDbEntity
  8
VISTA
100
AcDbPolyline
 90
5
 70
1
 10
523.106
 20
2.694079
 10
523.106
 20
1.756079
 10
523.095
 20
1.754934
 10
523.094293
 20
2.694632
 10
523.106
 20
2.694079
  0
LWPOLYLINE
  5
EC
330
17
100
AcDbEntity
  8
VISTA
100
AcDbPolyline
 90
5
 70
1
 10
523.206
 20
2.778027
 10
523.206
 20
1.840026
 10
523.195
 20
1.838882
 10
523.194293
 20
2.778579
 10
523.206
 20
2.778027
  0
LWPOLYLINE
  5
ED
330
17
100
AcDbEntity
  8
VISTA
100
AcDbPolyline
 90
5
 70
1
 10
523.306
 20
2.861974
 10
523.306
 20
1.923974
 10
523.295
 20
1.922829
 10
523.294293
 20
2.862527
 10
523.306
 20
2.861974
  0
LWPOLYLINE
  5
EE
330
17
100
AcDbEntity
  8
VISTA
100
AcDbPolyline
 90
5
 70
1
 10
523.406
 20
2.945921
 10
523.406
 20
2.007921
 10
523.395
 20
2.006776
 10
523.394293
 20
2.946474
 10
523.406
 20
2.945921
  0
LWPOLYLINE
  5
EF
330
17
100
AcDbEntity
  8
VISTA
100
AcDbPolyline
 90
5
 70
1
 10
523.506
 20
3.029869
 10
523.506
 20
2.091868
 10
523.495
 20
2.090724
 10
523.494293
 20
3.030422
 10
523.506
 20
3.029869
  0
LWPOLYLINE
  5
F0
330
17
100
AcDbEntity
  8
VISTA
100
AcDbPolyline
 90
5
 70
1
 10
523.606
 20
3.113816
 10
523.606
 20
2.175816
 10
523.595
 20
2.174671
 10
523.594293
 20
3.114369
 10
523.606
 20
3.113816
  0
LWPOLYLINE
  5
F1
330
17
100
AcDbEntity
  8
VISTA
100
AcDbPolyline
 90
5
 70
1
 10
523.706
 20
3.197763
 10
523.706
 20
2.259763
 10
523.695
 20
2.258618
 10
523.694293
 20
3.198316
 10
523.706
 20
3.197763
  0
LWPOLYLINE
  5
F2
330
17
100
AcDbEntity
  8
VISTA
100
AcDbPolyline
 90
5
 70
1
 10
523.806
 20
3.281711
 10
523.806
 20
2.34371
 10
523.795
 20
2.342566
 10
523.794293
 20
3.282264
 10
523.806
 20
3.281711
  0
LWPOLYLINE
  5
F3
330
17
100
AcDbEntity
  8
VISTA
100
AcDbPolyline
 90
5
 70
1
 10
523.906
 20
3.365658
 10
523.906
 20
2.427658
 10
523.895
 20
2.426513
 10
523.894293
 20
3.366211
 10
523.906
 20
3.365658
  0
LWPOLYLINE
  5
F4
330
17
100
AcDbEntity
  8
VISTA
100
AcDbPolyline
 90
5
 70
1
 10
524.006
 20
3.449605
 10
524.006
 20
2.511605
 10
523.995
 20
2.51046
 10
523.994293
 20
3.450158
 10
524.006
 20
3.449605
  0
LWPOLYLINE
  5
F5
330
17
100
AcDbEntity
  8
VISTA
100
AcDbPolyline
 90
5
 70
1
 10
524.106
 20
3.533553
 10
524.106
 20
2.595552
 10
524.095
 20
2.594408
 10
524.094293
 20
3.534106
 10
524.106
 20
3.533553
  0
LWPOLYLINE
  5
F6
330
17
100
AcDbEntity
  8
VISTA
100
AcDbPolyline
 90
5
 70
1
 10
524.206
 20
3.6175
 10
524.206
 20
2.6795
 10
524.195
 20
2.678355
 10
524.194293
 20
3.618053
 10
524.206
 20
3.6175
  0
LWPOLYLINE
  5
F7
330
17
100
AcDbEntity
  8
VISTA
100
AcDbPolyline
 90
5
 70
1
 10
524.306
 20
3.701447
 10
524.306
 20
2.763447
 10
524.295
 20
2.762302
 10
524.294293
 20
3.702
 10
524.306
 20
3.701447
  0
LWPOLYLINE
  5
F8
330
17
100
AcDbEntity
  8
VISTA
100
AcDbPolyline
 90
5
 70
1
 10
524.406
 20
3.785395
 10
524.406
 20
2.847394
 10
524.395
 20
2.84625
 10
524.394293
 20
3.785948
 10
524.406
 20
3.785395
  0
LWPOLYLINE
  5
F9
330
17
100
AcDbEntity
  8
VISTA
100
AcDbPolyline
 90
5
 70
1
 10
524.506
 20
3.869342
 10
524.506
 20
2.931342
 10
524.495
 20
2.930197
 10
524.494293
 20
3.869895
 10
524.506
 20
3.869342
  0
LWPOLYLINE
  5
FA
330
17
100
AcDbEntity
  8
VISTA
100
AcDbPolyline
 90
5
 70
1
 10
524.606
 20
3.95329
 10
524.606
 20
3.015289
 10
524.595
 20
3.014145
 10
524.594293
 20
3.953843
 10
524.606
 20
3.95329
  0
LWPOLYLINE
  5
FB
330
17
100
AcDbEntity
  8
VISTA
100
AcDbPolyline
 90
5
 70
1
 10
524.706
 20
4.037237
 10
524.706
 20
3.099237
 10
524.695
 20
3.098092
 10
524.694293
 20
4.03779
 10
524.706
 20
4.037237
  0
LWPOLYLINE
  5
FC
330
17
100
AcDbEntity
  8
VISTA
100
AcDbPolyline
 90
5
 70
1
 10
524.806
 20
4.121184
 10
524.806
 20
3.183184
 10
524.795
 20
3.182039
 10
524.794293
 20
4.121737
 10
524.806
 20
4.121184
  0
LWPOLYLINE
  5
FD
330
17
100
AcDbEntity
  8
VISTA
100
AcDbPolyline
 90
5
 70
1
 10
524.906
 20
4.205132
 10
524.906
 20
3.267132
 10
524.895
 20
3.265987
 10
524.894293
 20
4.205685
 10
524.906
 20
4.205132
  0
LWPOLYLINE
  5
FE
330
17
100
AcDbEntity
  8
VISTA
100
AcDbPolyline
 90
8
 70
1
 10
524.984357
 20
4.316056
 10
524.986751
 20
4.31586
 10
525.013249
 20
4.283966
 10
525.013021
 20
4.281573
 10
521.215643
 20
1.093944
 10
521.213249
 20
1.09414
 10
521.186862
 20
1.127231
 10
524.984357
 20
4.316056
  0
LWPOLYLINE
  5
FF
330
17
100
AcDbEntity
  8
VISTA
100
AcDbPolyline
 90
8
 70
1
 10
521.1825
 20
1.1083
 10
521.1842
 20
1.11
 10
521.2158
 20
1.110208
 10
521.2175
 20
1.10853
 10
521.2175
 20
0.06193
 10
521.2158
 20
0.060208
 10
521.183348
 20
0.0605
 10
521.1825
 20
1.1083
  0
LWPOLYLINE
  5
100
330
17
100
AcDbEntity
  8
VISTA
100
AcDbPolyline
 90
8
 70
1
 10
521.815833
 20
1.639736
 10
521.817533
 20
1.641459
 10
521.849133
 20
1.641875
 10
521.850833
 20
1.640197
 10
521.850833
 20
0.593597
 10
521.849133
 20
0.591875
 10
521.816682
 20
0.591948
 10
521.815833
 20
1.639736
  0
LWPOLYLINE
  5
101
330
17
100
AcDbEntity
  8
VISTA
100
AcDbPolyline
 90
8
 70
1
 10
522.449167
 20
2.171403
 10
522.450867
 20
2.173126
 10
522.482467
 20
2.173541
 10
522.484167
 20
2.171864
 10
522.484167
 20
1.125264
 10
522.482467
 20
1.123541
 10
522.450015
 20
1.123615
 10
522.449167
 20
2.171403
  0
LWPOLYLINE
  5
102
330
17
100
AcDbEntity
  8
VISTA
100
AcDbPolyline
 90
8
 70
1
 10
523.0825
 20
2.70307
 10
523.0842
 20
2.704792
 10
523.1158
 20
2.705208
 10
523.1175
 20
2.70353
 10
523.1175
 20
1.65693
 10
523.1158
 20
1.655208
 10
523.083348
 20
1.655281
 10
523.0825
 20
2.70307
  0
LWPOLYLINE
  5
103
330
17
100
AcDbEntity
  8
VISTA
100
AcDbPolyline
 90
8
 70
1
 10
523.715833
 20
3.234736
 10
523.717533
 20
3.236459
 10
523.749133
 20
3.236875
 10
523.7508330000001
 20
3.235197
 10
523.7508330000001
 20
2.188597
 10
523.749133
 20
2.186874
 10
523.716682
 20
2.186948
 10
523.715833
 20
3.234736
  0
LWPOLYLINE
  5
104
330
17
100
AcDbEntity
  8
VISTA
100
AcDbPolyline
 90
8
 70
1
 10
524.349167
 20
3.766403
 10
524.350867
 20
3.768125
 10
524.382467
 20
3.768541
 10
524.384167
 20
3.766863
 10
524.384167
 20
2.720263
 10
524.382467
 20
2.718541
 10
524.350015
 20
2.718615
 10
524.349167
 20
3.766403
  0
LWPOLYLINE
  5
105
330
17
100
AcDbEntity
  8
VISTA
100
AcDbPolyline
 90
8
 70
1
 10
524.9825
 20
4.29807
 10
524.9842
 20
4.299792
 10
525.0158
 20
4.3
 10
525.0175
 20
4.2983
 10
525.0175
 20
3.2517
 10
525.0158
 20
3.25
 10
524.983348
 20
3.250281
 10
524.9825
 20
4.29807
  0
LWPOLYLINE
  5
106
330
17
100
AcDbEntity
  8
VISTA
100
AcDbPolyline
 90
12
 70
1
 10
524.94773
 20
3.2099
 10
524.950124
 20
3.209703
 10
525.049876
 20
3.08964
 10
525.049648
 20
3.087247
 10
521.252269
 20
-0.0999
 10
521.251311
 20
-0.100297
 10
521.251294
 20
-0.100069
 10
521.252069
 20
-0.09966
 10
521.251813
 20
-0.099354
 10
521.249876
 20
-0.099703
 10
521.150235
 20
0.021556
 10
524.94773
 20
3.2099
  0
LWPOLYLINE
  5
107
330
17
100
AcDbEntity
  8
VISTA
100
AcDbPolyline
 90
4
 70
1
 10
521.2516572281586
 20
-0.10000604045251969
 10
521.2516572281586
 20
-0.10000604045251968
 10
521.251294
 20
-0.100069
 10
521.2516572281586
 20
-0.10000604045251969
  0
LWPOLYLINE
  5
108
330
17
100
AcDbEntity
  8
VISTA
100
AcDbPolyline
 90
7
 70
1
 10
524.905879
 20
3.237883
 10
524.908
 20
3.23879
 10
525.114121
 20
3.239121
 10
525.114121
 20
3.010879
 10
524.908
 20
3.00879
 10
524.905879
 20
3.00964
 10
524.905879
 20
3.237883
  0
LWPOLYLINE
  5
109
330
17
100
AcDbEntity
  8
VISTA
100
AcDbPolyline
 90
4
 70
1
 10
524.906497
 20
3.237273
 10
524.906497
 20
3.237887
 10
524.905879
 20
3.237883
 10
524.906497
 20
3.237273
  0
LWPOLYLINE
  5
10A
330
17
100
AcDbEntity
  8
VISTA
100
AcDbPolyline
 90
4
 70
1
 10
525.113503
 20
3.238503
 10
525.114117
 20
3.238503
 10
525.114121
 20
3.239121
 10
525.113503
 20
3.238503
  0
LWPOLYLINE
  5
10B
330
17
100
AcDbEntity
  8
VISTA
100
AcDbPolyline
 90
4
 70
1
 10
525.113503
 20
3.011497
 10
525.113503
 20
3.010883
 10
525.114121
 20
3.010879
 10
525.113503
 20
3.011497
  0
LWPOLYLINE
  5
10C
330
17
100
AcDbEntity
  8
VISTA
100
AcDbPolyline
 90
4
 70
1
 10
524.906497
 20
3.010267
 10
524.905883
 20
3.010259
 10
524.905879
 20
3.00964
 10
524.906497
 20
3.010267
  0
LWPOLYLINE
  5
10D
330
17
100
AcDbEntity
  8
VISTA
100
AcDbPolyline
 90
13
 70
1
 10
520.188
 20
0.06
 10
521.172
 20
0.06
 10
521.177657
 20
0.057657
 10
521.18
 20
0.052
 10
521.18
 20
-0.052
 10
521.177657
 20
-0.057657
 10
521.172
 20
-0.06
 10
520.188
 20
-0.06
 10
520.182343
 20
-0.057657
 10
520.18
 20
-0.052
 10
520.18
 20
0.052
 10
520.182343
 20
0.057657
 10
520.188
 20
0.06
  0
LWPOLYLINE
  5
10E
330
17
100
AcDbEntity
  8
VISTA
100
AcDbPolyline
 90
8
 70
1
 10
525.004526
 20
3.249354
 10
525.006
 20
3.2465
 10
525.005354
 20
3.176474
 10
525.0025
 20
3.175
 10
524.784363
 20
3.175646
 10
524.782889
 20
3.1785
 10
524.783914
 20
3.248975
 10
525.004526
 20
3.249354
  0
LWPOLYLINE
  5
10F
330
17
100
AcDbEntity
  8
VISTA
100
AcDbPolyline
 90
4
 70
1
 10
524.784636
 20
3.248253
 10
524.784636
 20
3.24897
 10
524.783919
 20
3.248253
 10
524.784636
 20
3.248253
  0
LWPOLYLINE
  5
110
330
17
100
AcDbEntity
  8
VISTA
100
AcDbPolyline
 90
4
 70
1
 10
524.784636
 20
3.17603
 10
524.784636
 20
3.176746
 10
524.783919
 20
3.176746
 10
524.784636
 20
3.17603
  0
LWPOLYLINE
  5
111
330
17
100
AcDbEntity
  8
VISTA
100
AcDbPolyline
 90
4
 70
1
 10
525.00497
 20
3.176746
 10
525.004253
 20
3.176746
 10
525.004253
 20
3.17603
 10
525.00497
 20
3.176746
  0
LWPOLYLINE
  5
112
330
17
100
AcDbEntity
  8
VISTA
100
AcDbPolyline
 90
4
 70
1
 10
525.00497
 20
3.248253
 10
525.004253
 20
3.24897
 10
525.004253
 20
3.248253
 10
525.00497
 20
3.248253
  0
LWPOLYLINE
  5
113
330
17
100
AcDbEntity
  8
VISTA
100
AcDbPolyline
 90
5
 70
1
 10
524.806333
 20
3.205
 10
524.806333
 20
3.199
 10
524.788333
 20
3.199
 10
524.788333
 20
3.205
 10
524.806333
 20
3.205
  0
LWPOLYLINE
  5
114
330
17
100
AcDbEntity
  8
VISTA
100
AcDbPolyline
 90
5
 70
1
 10
524.911944
 20
3.1355
 10
524.911944
 20
3.1005
 10
524.876945
 20
3.1005
 10
524.876945
 20
3.1355
 10
524.911944
 20
3.1355
  0
LWPOLYLINE
  5
115
330
17
100
AcDbEntity
  8
VISTA
100
AcDbPolyline
 90
8
 70
1
 10
524.793415
 20
3.072131
 10
524.794889
 20
3.069278
 10
524.794243
 20
2.999251
 10
524.791389
 20
2.997778
 10
524.573252
 20
2.998424
 10
524.571778
 20
3.001278
 10
524.572803
 20
3.071753
 10
524.793415
 20
3.072131
  0
LWPOLYLINE
  5
116
330
17
100
AcDbEntity
  8
VISTA
100
AcDbPolyline
 90
4
 70
1
 10
524.573524
 20
3.071031
 10
524.573524
 20
3.071747
 10
524.572808
 20
3.071031
 10
524.573524
 20
3.071031
  0
LWPOLYLINE
  5
117
330
17
100
AcDbEntity
  8
VISTA
100
AcDbPolyline
 90
4
 70
1
 10
524.573524
 20
2.998808
 10
524.573524
 20
2.999524
 10
524.572808
 20
2.999524
 10
524.573524
 20
2.998808
  0
LWPOLYLINE
  5
118
330
17
100
AcDbEntity
  8
VISTA
100
AcDbPolyline
 90
4
 70
1
 10
524.793859
 20
2.999524
 10
524.793142
 20
2.999524
 10
524.793142
 20
2.998808
 10
524.793859
 20
2.999524
  0
LWPOLYLINE
  5
119
330
17
100
AcDbEntity
  8
VISTA
100
AcDbPolyline
 90
4
 70
1
 10
524.793859
 20
3.071031
 10
524.793142
 20
3.071747
 10
524.793142
 20
3.071031
 10
524.793859
 20
3.071031
  0
LWPOLYLINE
  5
11A
330
17
100
AcDbEntity
  8
VISTA
100
AcDbPolyline
 90
5
 70
1
 10
524.595222
 20
3.030555
 10
524.595222
 20
3.024555
 10
524.577222
 20
3.024555
 10
524.577222
 20
3.030555
 10
524.595222
 20
3.030555
  0
LWPOLYLINE
  5
11B
330
17
100
AcDbEntity
  8
VISTA
100
AcDbPolyline
 90
5
 70
1
 10
524.700833
 20
2.961056
 10
524.700833
 20
2.926056
 10
524.665833
 20
2.926056
 10
524.665833
 20
2.961056
 10
524.700833
 20
2.961056
  0
LWPOLYLINE
  5
11C
330
17
100
AcDbEntity
  8
VISTA
100
AcDbPolyline
 90
9
 70
1
 10
524.582304
 20
2.894909
 10
524.583778
 20
2.892056
 10
524.583132
 20
2.822029
 10
524.580278
 20
2.820556
 10
524.362141
 20
2.821202
 10
524.361313
 20
2.822029
 10
524.360667
 20
2.824056
 10
524.361692
 20
2.894531
 10
524.582304
 20
2.894909
  0
LWPOLYLINE
  5
11D
330
17
100
AcDbEntity
  8
VISTA
100
AcDbPolyline
 90
4
 70
1
 10
524.362413
 20
2.893809
 10
524.362413
 20
2.894526
 10
524.361697
 20
2.893809
 10
524.362413
 20
2.893809
  0
LWPOLYLINE
  5
11E
330
17
100
AcDbEntity
  8
VISTA
100
AcDbPolyline
 90
4
 70
1
 10
524.362413
 20
2.821586
 10
524.362413
 20
2.822302
 10
524.361697
 20
2.822302
 10
524.362413
 20
2.821586
  0
LWPOLYLINE
  5
11F
330
17
100
AcDbEntity
  8
VISTA
100
AcDbPolyline
 90
4
 70
1
 10
524.3616943447361
 20
2.821919110940542
 10
524.361955
 20
2.821844
 10
524.3616943447361
 20
2.8219191109405424
 10
524.3616943447361
 20
2.821919110940542
  0
LWPOLYLINE
  5
120
330
17
100
AcDbEntity
  8
VISTA
100
AcDbPolyline
 90
4
 70
1
 10
524.582747
 20
2.822302
 10
524.582031
 20
2.822302
 10
524.582031
 20
2.821586
 10
524.582747
 20
2.822302
  0
LWPOLYLINE
  5
121
330
17
100
AcDbEntity
  8
VISTA
100
AcDbPolyline
 90
4
 70
1
 10
524.582747
 20
2.893809
 10
524.582031
 20
2.894526
 10
524.582031
 20
2.893809
 10
524.582747
 20
2.893809
  0
LWPOLYLINE
  5
122
330
17
100
AcDbEntity
  8
VISTA
100
AcDbPolyline
 90
5
 70
1
 10
524.384111
 20
2.856111
 10
524.384111
 20
2.850111
 10
524.366111
 20
2.850111
 10
524.366111
 20
2.856111
 10
524.384111
 20
2.856111
  0
LWPOLYLINE
  5
123
330
17
100
AcDbEntity
  8
VISTA
100
AcDbPolyline
 90
5
 70
1
 10
524.489722
 20
2.786611
 10
524.489722
 20
2.751611
 10
524.454722
 20
2.751611
 10
524.454722
 20
2.786611
 10
524.489722
 20
2.786611
  0
LWPOLYLINE
  5
124
330
17
100
AcDbEntity
  8
VISTA
100
AcDbPolyline
 90
8
 70
1
 10
524.371193
 20
2.717687
 10
524.372667
 20
2.714833
 10
524.372021
 20
2.644807
 10
524.369167
 20
2.643333
 10
524.15103
 20
2.64398
 10
524.149556
 20
2.646833
 10
524.150581
 20
2.717308
 10
524.371193
 20
2.717687
  0
LWPOLYLINE
  5
125
330
17
100
AcDbEntity
  8
VISTA
100
AcDbPolyline
 90
4
 70
1
 10
524.151302
 20
2.716587
 10
524.151302
 20
2.717303
 10
524.150586
 20
2.716587
 10
524.151302
 20
2.716587
  0
LWPOLYLINE
  5
126
330
17
100
AcDbEntity
  8
VISTA
100
AcDbPolyline
 90
4
 70
1
 10
524.151302
 20
2.644363
 10
524.151302
 20
2.64508
 10
524.150586
 20
2.64508
 10
524.151302
 20
2.644363
  0
LWPOLYLINE
  5
127
330
17
100
AcDbEntity
  8
VISTA
100
AcDbPolyline
 90
4
 70
1
 10
524.371636
 20
2.64508
 10
524.37092
 20
2.64508
 10
524.37092
 20
2.644363
 10
524.371636
 20
2.64508
  0
LWPOLYLINE
  5
128
330
17
100
AcDbEntity
  8
VISTA
100
AcDbPolyline
 90
4
 70
1
 10
524.371636
 20
2.716587
 10
524.37092
 20
2.717303
 10
524.37092
 20
2.716587
 10
524.371636
 20
2.716587
  0
LWPOLYLINE
  5
129
330
17
100
AcDbEntity
  8
VISTA
100
AcDbPolyline
 90
5
 70
1
 10
524.173
 20
2.681667
 10
524.173
 20
2.675667
 10
524.155
 20
2.675667
 10
524.155
 20
2.681667
 10
524.173
 20
2.681667
  0
LWPOLYLINE
  5
12A
330
17
100
AcDbEntity
  8
VISTA
100
AcDbPolyline
 90
5
 70
1
 10
524.278611
 20
2.612167
 10
524.278611
 20
2.577167
 10
524.243611
 20
2.577167
 10
524.243611
 20
2.612167
 10
524.278611
 20
2.612167
  0
LWPOLYLINE
  5
12B
330
17
100
AcDbEntity
  8
VISTA
100
AcDbPolyline
 90
9
 70
1
 10
524.160082
 20
2.540465
 10
524.161556
 20
2.537611
 10
524.16091
 20
2.467585
 10
524.158056
 20
2.466111
 10
523.939919
 20
2.466757
 10
523.939091
 20
2.467585
 10
523.938445
 20
2.469611
 10
523.93947
 20
2.540086
 10
524.160082
 20
2.540465
  0
LWPOLYLINE
  5
12C
330
17
100
AcDbEntity
  8
VISTA
100
AcDbPolyline
 90
4
 70
1
 10
523.940191
 20
2.539365
 10
523.940191
 20
2.540081
 10
523.939475
 20
2.539365
 10
523.940191
 20
2.539365
  0
LWPOLYLINE
  5
12D
330
17
100
AcDbEntity
  8
VISTA
100
AcDbPolyline
 90
4
 70
1
 10
523.940191
 20
2.467141
 10
523.940191
 20
2.467858
 10
523.939475
 20
2.467858
 10
523.940191
 20
2.467141
  0
LWPOLYLINE
  5
12E
330
17
100
AcDbEntity
  8
VISTA
100
AcDbPolyline
 90
4
 70
1
 10
523.9394723443011
 20
2.467474517071658
 10
523.939733
 20
2.467399
 10
523.9394723443011
 20
2.4674745170716585
 10
523.9394723443011
 20
2.467474517071658
  0
LWPOLYLINE
  5
12F
330
17
100
AcDbEntity
  8
VISTA
100
AcDbPolyline
 90
4
 70
1
 10
524.160525
 20
2.467858
 10
524.159809
 20
2.467858
 10
524.159809
 20
2.467141
 10
524.160525
 20
2.467858
  0
LWPOLYLINE
  5
130
330
17
100
AcDbEntity
  8
VISTA
100
AcDbPolyline
 90
4
 70
1
 10
524.160525
 20
2.539365
 10
524.159809
 20
2.540081
 10
524.159809
 20
2.539365
 10
524.160525
 20
2.539365
  0
LWPOLYLINE
  5
131
330
17
100
AcDbEntity
  8
VISTA
100
AcDbPolyline
 90
5
 70
1
 10
523.961889
 20
2.507222
 10
523.961889
 20
2.501222
 10
523.943889
 20
2.501222
 10
523.943889
 20
2.507222
 10
523.961889
 20
2.507222
  0
LWPOLYLINE
  5
132
330
17
100
AcDbEntity
  8
VISTA
100
AcDbPolyline
 90
5
 70
1
 10
524.0675
 20
2.437722
 10
524.0675
 20
2.402722
 10
524.0325
 20
2.402722
 10
524.0325
 20
2.437722
 10
524.0675
 20
2.437722
  0
LWPOLYLINE
  5
133
330
17
100
AcDbEntity
  8
VISTA
100
AcDbPolyline
 90
8
 70
1
 10
523.948971
 20
2.363243
 10
523.950444
 20
2.360389
 10
523.949798
 20
2.290363
 10
523.946944
 20
2.288889
 10
523.728807
 20
2.289535
 10
523.727333
 20
2.292389
 10
523.728359
 20
2.362864
 10
523.948971
 20
2.363243
  0
LWPOLYLINE
  5
134
330
17
100
AcDbEntity
  8
VISTA
100
AcDbPolyline
 90
4
 70
1
 10
523.72908
 20
2.362142
 10
523.72908
 20
2.362859
 10
523.728364
 20
2.362142
 10
523.72908
 20
2.362142
  0
LWPOLYLINE
  5
135
330
17
100
AcDbEntity
  8
VISTA
100
AcDbPolyline
 90
4
 70
1
 10
523.72908
 20
2.289919
 10
523.72908
 20
2.290635
 10
523.728364
 20
2.290635
 10
523.72908
 20
2.289919
  0
LWPOLYLINE
  5
136
330
17
100
AcDbEntity
  8
VISTA
100
AcDbPolyline
 90
4
 70
1
 10
523.949414
 20
2.290635
 10
523.948698
 20
2.290635
 10
523.948698
 20
2.289919
 10
523.949414
 20
2.290635
  0
LWPOLYLINE
  5
137
330
17
100
AcDbEntity
  8
VISTA
100
AcDbPolyline
 90
4
 70
1
 10
523.949414
 20
2.362142
 10
523.948698
 20
2.362859
 10
523.948698
 20
2.362142
 10
523.949414
 20
2.362142
  0
LWPOLYLINE
  5
138
330
17
100
AcDbEntity
  8
VISTA
100
AcDbPolyline
 90
5
 70
1
 10
523.750778
 20
2.332778
 10
523.750778
 20
2.326778
 10
523.732778
 20
2.326778
 10
523.732778
 20
2.332778
 10
523.750778
 20
2.332778
  0
LWPOLYLINE
  5
139
330
17
100
AcDbEntity
  8
VISTA
100
AcDbPolyline
 90
5
 70
1
 10
523.856389
 20
2.263278
 10
523.856389
 20
2.228278
 10
523.821389
 20
2.228278
 10
523.821389
 20
2.263278
 10
523.856389
 20
2.263278
  0
LWPOLYLINE
  5
13A
330
17
100
AcDbEntity
  8
VISTA
100
AcDbPolyline
 90
8
 70
1
 10
523.737859
 20
2.18602
 10
523.739333
 20
2.183167
 10
523.738687
 20
2.11314
 10
523.735833
 20
2.111667
 10
523.517696
 20
2.112313
 10
523.516222
 20
2.115167
 10
523.517247
 20
2.185642
 10
523.737859
 20
2.18602
  0
LWPOLYLINE
  5
13B
330
17
100
AcDbEntity
  8
VISTA
100
AcDbPolyline
 90
4
 70
1
 10
523.517969
 20
2.18492
 10
523.517969
 20
2.185637
 10
523.517252
 20
2.18492
 10
523.517969
 20
2.18492
  0
LWPOLYLINE
  5
13C
330
17
100
AcDbEntity
  8
VISTA
100
AcDbPolyline
 90
4
 70
1
 10
523.517969
 20
2.112697
 10
523.517969
 20
2.113413
 10
523.517252
 20
2.113413
 10
523.517969
 20
2.112697
  0
LWPOLYLINE
  5
13D
330
17
100
AcDbEntity
  8
VISTA
100
AcDbPolyline
 90
4
 70
1
 10
523.738303
 20
2.113413
 10
523.737587
 20
2.113413
 10
523.737587
 20
2.112697
 10
523.738303
 20
2.113413
  0
LWPOLYLINE
  5
13E
330
17
100
AcDbEntity
  8
VISTA
100
AcDbPolyline
 90
4
 70
1
 10
523.738303
 20
2.18492
 10
523.737587
 20
2.185637
 10
523.737587
 20
2.18492
 10
523.738303
 20
2.18492
  0
LWPOLYLINE
  5
13F
330
17
100
AcDbEntity
  8
VISTA
100
AcDbPolyline
 90
5
 70
1
 10
523.539667
 20
2.158333
 10
523.539667
 20
2.152333
 10
523.521667
 20
2.152333
 10
523.521667
 20
2.158333
 10
523.539667
 20
2.158333
  0
LWPOLYLINE
  5
140
330
17
100
AcDbEntity
  8
VISTA
100
AcDbPolyline
 90
5
 70
1
 10
523.645278
 20
2.088833
 10
523.645278
 20
2.053833
 10
523.610278
 20
2.053833
 10
523.610278
 20
2.088833
 10
523.645278
 20
2.088833
  0
LWPOLYLINE
  5
141
330
17
100
AcDbEntity
  8
VISTA
100
AcDbPolyline
 90
8
 70
1
 10
523.526748
 20
2.008798
 10
523.528222
 20
2.005944
 10
523.527576
 20
1.935918
 10
523.524722
 20
1.934444
 10
523.306585
 20
1.935091
 10
523.305111
 20
1.937944
 10
523.306136
 20
2.008419
 10
523.526748
 20
2.008798
  0
LWPOLYLINE
  5
142
330
17
100
AcDbEntity
  8
VISTA
100
AcDbPolyline
 90
4
 70
1
 10
523.306858
 20
2.007698
 10
523.306858
 20
2.008414
 10
523.306141
 20
2.007698
 10
523.306858
 20
2.007698
  0
LWPOLYLINE
  5
143
330
17
100
AcDbEntity
  8
VISTA
100
AcDbPolyline
 90
4
 70
1
 10
523.306858
 20
1.935475
 10
523.306858
 20
1.936191
 10
523.306141
 20
1.936191
 10
523.306858
 20
1.935475
  0
LWPOLYLINE
  5
144
330
17
100
AcDbEntity
  8
VISTA
100
AcDbPolyline
 90
4
 70
1
 10
523.527192
 20
1.936191
 10
523.526476
 20
1.936191
 10
523.526476
 20
1.935475
 10
523.527192
 20
1.936191
  0
LWPOLYLINE
  5
145
330
17
100
AcDbEntity
  8
VISTA
100
AcDbPolyline
 90
4
 70
1
 10
523.527192
 20
2.007698
 10
523.526476
 20
2.008414
 10
523.526476
 20
2.007698
 10
523.527192
 20
2.007698
  0
LWPOLYLINE
  5
146
330
17
100
AcDbEntity
  8
VISTA
100
AcDbPolyline
 90
5
 70
1
 10
523.328556
 20
1.983889
 10
523.328556
 20
1.977889
 10
523.310555
 20
1.977889
 10
523.310555
 20
1.983889
 10
523.328556
 20
1.983889
  0
LWPOLYLINE
  5
147
330
17
100
AcDbEntity
  8
VISTA
100
AcDbPolyline
 90
5
 70
1
 10
523.434167
 20
1.914389
 10
523.434167
 20
1.879389
 10
523.399167
 20
1.879389
 10
523.399167
 20
1.914389
 10
523.434167
 20
1.914389
  0
LWPOLYLINE
  5
148
330
17
100
AcDbEntity
  8
VISTA
100
AcDbPolyline
 90
8
 70
1
 10
523.315637
 20
1.831576
 10
523.317111
 20
1.828722
 10
523.316465
 20
1.758696
 10
523.313611
 20
1.757222
 10
523.095474
 20
1.757868
 10
523.094
 20
1.760722
 10
523.095025
 20
1.831197
 10
523.315637
 20
1.831576
  0
LWPOLYLINE
  5
149
330
17
100
AcDbEntity
  8
VISTA
100
AcDbPolyline
 90
4
 70
1
 10
523.095746
 20
1.830476
 10
523.095746
 20
1.831192
 10
523.09503
 20
1.830476
 10
523.095746
 20
1.830476
  0
LWPOLYLINE
  5
14A
330
17
100
AcDbEntity
  8
VISTA
100
AcDbPolyline
 90
4
 70
1
 10
523.095746
 20
1.758252
 10
523.095746
 20
1.758969
 10
523.09503
 20
1.758969
 10
523.095746
 20
1.758252
  0
LWPOLYLINE
  5
14B
330
17
100
AcDbEntity
  8
VISTA
100
AcDbPolyline
 90
4
 70
1
 10
523.316081
 20
1.758969
 10
523.315365
 20
1.758969
 10
523.315365
 20
1.758252
 10
523.316081
 20
1.758969
  0
LWPOLYLINE
  5
14C
330
17
100
AcDbEntity
  8
VISTA
100
AcDbPolyline
 90
4
 70
1
 10
523.316081
 20
1.830476
 10
523.315365
 20
1.831192
 10
523.315365
 20
1.830476
 10
523.316081
 20
1.830476
  0
LWPOLYLINE
  5
14D
330
17
100
AcDbEntity
  8
VISTA
100
AcDbPolyline
 90
5
 70
1
 10
523.117445
 20
1.809444
 10
523.117445
 20
1.803444
 10
523.099444
 20
1.803444
 10
523.099444
 20
1.809444
 10
523.117445
 20
1.809444
  0
LWPOLYLINE
  5
14E
330
17
100
AcDbEntity
  8
VISTA
100
AcDbPolyline
 90
5
 70
1
 10
523.223055
 20
1.739944
 10
523.223055
 20
1.704944
 10
523.188056
 20
1.704944
 10
523.188056
 20
1.739944
 10
523.223055
 20
1.739944
  0
LWPOLYLINE
  5
14F
330
17
100
AcDbEntity
  8
VISTA
100
AcDbPolyline
 90
8
 70
1
 10
523.104526
 20
1.654354
 10
523.106
 20
1.6515
 10
523.105354
 20
1.581474
 10
523.1025
 20
1.58
 10
522.884363
 20
1.580646
 10
522.882889
 20
1.5835
 10
522.883914
 20
1.653975
 10
523.104526
 20
1.654354
  0
LWPOLYLINE
  5
150
330
17
100
AcDbEntity
  8
VISTA
100
AcDbPolyline
 90
4
 70
1
 10
522.884635
 20
1.653254
 10
522.884635
 20
1.65397
 10
522.883919
 20
1.653254
 10
522.884635
 20
1.653254
  0
LWPOLYLINE
  5
151
330
17
100
AcDbEntity
  8
VISTA
100
AcDbPolyline
 90
4
 70
1
 10
522.884635
 20
1.58103
 10
522.884635
 20
1.581746
 10
522.883919
 20
1.581746
 10
522.884635
 20
1.58103
  0
LWPOLYLINE
  5
152
330
17
100
AcDbEntity
  8
VISTA
100
AcDbPolyline
 90
4
 70
1
 10
523.10497
 20
1.581746
 10
523.104254
 20
1.581746
 10
523.104254
 20
1.58103
 10
523.10497
 20
1.581746
  0
LWPOLYLINE
  5
153
330
17
100
AcDbEntity
  8
VISTA
100
AcDbPolyline
 90
4
 70
1
 10
523.10497
 20
1.653254
 10
523.104254
 20
1.65397
 10
523.104254
 20
1.653254
 10
523.10497
 20
1.653254
  0
LWPOLYLINE
  5
154
330
17
100
AcDbEntity
  8
VISTA
100
AcDbPolyline
 90
5
 70
1
 10
522.906333
 20
1.635
 10
522.906333
 20
1.629
 10
522.888333
 20
1.629
 10
522.888333
 20
1.635
 10
522.906333
 20
1.635
  0
LWPOLYLINE
  5
155
330
17
100
AcDbEntity
  8
VISTA
100
AcDbPolyline
 90
5
 70
1
 10
523.011944
 20
1.5655
 10
523.011944
 20
1.5305
 10
522.976944
 20
1.5305
 10
522.976944
 20
1.5655
 10
523.011944
 20
1.5655
  0
LWPOLYLINE
  5
156
330
17
100
AcDbEntity
  8
VISTA
100
AcDbPolyline
 90
8
 70
1
 10
522.893415
 20
1.477132
 10
522.894889
 20
1.474278
 10
522.894243
 20
1.404252
 10
522.891389
 20
1.402778
 10
522.673252
 20
1.403424
 10
522.671778
 20
1.406278
 10
522.672803
 20
1.476753
 10
522.893415
 20
1.477132
  0
LWPOLYLINE
  5
157
330
17
100
AcDbEntity
  8
VISTA
100
AcDbPolyline
 90
4
 70
1
 10
522.673524
 20
1.476031
 10
522.673524
 20
1.476748
 10
522.672808
 20
1.476031
 10
522.673524
 20
1.476031
  0
LWPOLYLINE
  5
158
330
17
100
AcDbEntity
  8
VISTA
100
AcDbPolyline
 90
4
 70
1
 10
522.673524
 20
1.403808
 10
522.673524
 20
1.404524
 10
522.672808
 20
1.404524
 10
522.673524
 20
1.403808
  0
LWPOLYLINE
  5
159
330
17
100
AcDbEntity
  8
VISTA
100
AcDbPolyline
 90
4
 70
1
 10
522.893859
 20
1.404524
 10
522.893142
 20
1.404524
 10
522.893142
 20
1.403808
 10
522.893859
 20
1.404524
  0
LWPOLYLINE
  5
15A
330
17
100
AcDbEntity
  8
VISTA
100
AcDbPolyline
 90
4
 70
1
 10
522.893861652454
 20
1.4041415161315363
 10
522.893601
 20
1.404066
 10
522.893861652454
 20
1.404141516131536
 10
522.893861652454
 20
1.4041415161315363
  0
LWPOLYLINE
  5
15B
330
17
100
AcDbEntity
  8
VISTA
100
AcDbPolyline
 90
4
 70
1
 10
522.893859
 20
1.476031
 10
522.893142
 20
1.476748
 10
522.893142
 20
1.476031
 10
522.893859
 20
1.476031
  0
LWPOLYLINE
  5
15C
330
17
100
AcDbEntity
  8
VISTA
100
AcDbPolyline
 90
5
 70
1
 10
522.695222
 20
1.460556
 10
522.695222
 20
1.454556
 10
522.677222
 20
1.454556
 10
522.677222
 20
1.460556
 10
522.695222
 20
1.460556
  0
LWPOLYLINE
  5
15D
330
17
100
AcDbEntity
  8
VISTA
100
AcDbPolyline
 90
5
 70
1
 10
522.800833
 20
1.391056
 10
522.800833
 20
1.356055
 10
522.765833
 20
1.356055
 10
522.765833
 20
1.391056
 10
522.800833
 20
1.391056
  0
LWPOLYLINE
  5
15E
330
17
100
AcDbEntity
  8
VISTA
100
AcDbPolyline
 90
9
 70
1
 10
522.682304
 20
1.299909
 10
522.683132
 20
1.299082
 10
522.683778
 20
1.297056
 10
522.683132
 20
1.227029
 10
522.680278
 20
1.225556
 10
522.462141
 20
1.226202
 10
522.460667
 20
1.229056
 10
522.461692
 20
1.29953
 10
522.682304
 20
1.299909
  0
LWPOLYLINE
  5
15F
330
17
100
AcDbEntity
  8
VISTA
100
AcDbPolyline
 90
4
 70
1
 10
522.462413
 20
1.298809
 10
522.462413
 20
1.299525
 10
522.461697
 20
1.298809
 10
522.462413
 20
1.298809
  0
LWPOLYLINE
  5
160
330
17
100
AcDbEntity
  8
VISTA
100
AcDbPolyline
 90
4
 70
1
 10
522.462413
 20
1.226586
 10
522.462413
 20
1.227302
 10
522.461697
 20
1.227302
 10
522.462413
 20
1.226586
  0
LWPOLYLINE
  5
161
330
17
100
AcDbEntity
  8
VISTA
100
AcDbPolyline
 90
4
 70
1
 10
522.682748
 20
1.227302
 10
522.682031
 20
1.227302
 10
522.682031
 20
1.226586
 10
522.682748
 20
1.227302
  0
LWPOLYLINE
  5
162
330
17
100
AcDbEntity
  8
VISTA
100
AcDbPolyline
 90
4
 70
1
 10
522.6827506552639
 20
1.2269191109405422
 10
522.68249
 20
1.226844
 10
522.6827506552639
 20
1.226919110940542
 10
522.6827506552639
 20
1.2269191109405422
  0
LWPOLYLINE
  5
163
330
17
100
AcDbEntity
  8
VISTA
100
AcDbPolyline
 90
4
 70
1
 10
522.682748
 20
1.298809
 10
522.682031
 20
1.299525
 10
522.682031
 20
1.298809
 10
522.682748
 20
1.298809
  0
LWPOLYLINE
  5
164
330
17
100
AcDbEntity
  8
VISTA
100
AcDbPolyline
 90
4
 70
1
 10
522.6827506552639
 20
1.299191889059458
 10
522.68249
 20
1.299267
 10
522.6827506552639
 20
1.2991918890594578
 10
522.6827506552639
 20
1.299191889059458
  0
LWPOLYLINE
  5
165
330
17
100
AcDbEntity
  8
VISTA
100
AcDbPolyline
 90
5
 70
1
 10
522.484111
 20
1.286111
 10
522.484111
 20
1.280111
 10
522.466111
 20
1.280111
 10
522.466111
 20
1.286111
 10
522.484111
 20
1.286111
  0
LWPOLYLINE
  5
166
330
17
100
AcDbEntity
  8
VISTA
100
AcDbPolyline
 90
5
 70
1
 10
522.589722
 20
1.216611
 10
522.589722
 20
1.181611
 10
522.554722
 20
1.181611
 10
522.554722
 20
1.216611
 10
522.589722
 20
1.216611
  0
LWPOLYLINE
  5
167
330
17
100
AcDbEntity
  8
VISTA
100
AcDbPolyline
 90
9
 70
1
 10
522.471193
 20
1.122687
 10
522.472667
 20
1.119833
 10
522.472021
 20
1.049807
 10
522.469167
 20
1.048333
 10
522.251029
 20
1.04898
 10
522.250202
 20
1.049807
 10
522.249556
 20
1.051833
 10
522.250581
 20
1.122308
 10
522.471193
 20
1.122687
  0
LWPOLYLINE
  5
168
330
17
100
AcDbEntity
  8
VISTA
100
AcDbPolyline
 90
4
 70
1
 10
522.2509191109406
 20
1.1223056552639352
 10
522.250844
 20
1.122045
 10
522.2509191109406
 20
1.1223056552639352
 10
522.2509191109406
 20
1.1223056552639352
  0
LWPOLYLINE
  5
169
330
17
100
AcDbEntity
  8
VISTA
100
AcDbPolyline
 90
4
 70
1
 10
522.251302
 20
1.121587
 10
522.251302
 20
1.122303
 10
522.250844
 20
1.122045
 10
522.251302
 20
1.121587
  0
LWPOLYLINE
  5
16A
330
17
100
AcDbEntity
  8
VISTA
100
AcDbPolyline
 90
4
 70
1
 10
522.251302
 20
1.049363
 10
522.251302
 20
1.05008
 10
522.250586
 20
1.05008
 10
522.251302
 20
1.049363
  0
LWPOLYLINE
  5
16B
330
17
100
AcDbEntity
  8
VISTA
100
AcDbPolyline
 90
4
 70
1
 10
522.2505833484064
 20
1.0496971098828933
 10
522.250844
 20
1.049622
 10
522.2505833484064
 20
1.0496971098828936
 10
522.2505833484064
 20
1.0496971098828933
  0
LWPOLYLINE
  5
16C
330
17
100
AcDbEntity
  8
VISTA
100
AcDbPolyline
 90
4
 70
1
 10
522.471637
 20
1.05008
 10
522.47092
 20
1.05008
 10
522.47092
 20
1.049363
 10
522.471637
 20
1.05008
  0
LWPOLYLINE
  5
16D
330
17
100
AcDbEntity
  8
VISTA
100
AcDbPolyline
 90
4
 70
1
 10
522.471637
 20
1.121587
 10
522.47092
 20
1.122303
 10
522.47092
 20
1.121587
 10
522.471637
 20
1.121587
  0
LWPOLYLINE
  5
16E
330
17
100
AcDbEntity
  8
VISTA
100
AcDbPolyline
 90
5
 70
1
 10
522.273
 20
1.111667
 10
522.273
 20
1.105667
 10
522.255
 20
1.105667
 10
522.255
 20
1.111667
 10
522.273
 20
1.111667
  0
LWPOLYLINE
  5
16F
330
17
100
AcDbEntity
  8
VISTA
100
AcDbPolyline
 90
5
 70
1
 10
522.378611
 20
1.042167
 10
522.378611
 20
1.007167
 10
522.343611
 20
1.007167
 10
522.343611
 20
1.042167
 10
522.378611
 20
1.042167
  0
LWPOLYLINE
  5
170
330
17
100
AcDbEntity
  8
VISTA
100
AcDbPolyline
 90
8
 70
1
 10
522.260082
 20
0.945465
 10
522.261556
 20
0.942611
 10
522.26091
 20
0.872585
 10
522.258056
 20
0.871111
 10
522.039918
 20
0.871757
 10
522.038445
 20
0.874611
 10
522.03947
 20
0.945086
 10
522.260082
 20
0.945465
  0
LWPOLYLINE
  5
171
330
17
100
AcDbEntity
  8
VISTA
100
AcDbPolyline
 90
4
 70
1
 10
522.040191
 20
0.944365
 10
522.040191
 20
0.945081
 10
522.039475
 20
0.944365
 10
522.040191
 20
0.944365
  0
LWPOLYLINE
  5
172
330
17
100
AcDbEntity
  8
VISTA
100
AcDbPolyline
 90
4
 70
1
 10
522.0394723475459
 20
0.9447474838684639
 10
522.039733
 20
0.944823
 10
522.0394723475459
 20
0.944747483868464
 10
522.0394723475459
 20
0.9447474838684639
  0
LWPOLYLINE
  5
173
330
17
100
AcDbEntity
  8
VISTA
100
AcDbPolyline
 90
4
 70
1
 10
522.040191
 20
0.872141
 10
522.040191
 20
0.872858
 10
522.039475
 20
0.872858
 10
522.040191
 20
0.872141
  0
LWPOLYLINE
  5
174
330
17
100
AcDbEntity
  8
VISTA
100
AcDbPolyline
 90
4
 70
1
 10
522.260525
 20
0.872858
 10
522.259809
 20
0.872858
 10
522.259809
 20
0.872141
 10
522.260525
 20
0.872858
  0
LWPOLYLINE
  5
175
330
17
100
AcDbEntity
  8
VISTA
100
AcDbPolyline
 90
4
 70
1
 10
522.260525
 20
0.944365
 10
522.259809
 20
0.945081
 10
522.259809
 20
0.944365
 10
522.260525
 20
0.944365
  0
LWPOLYLINE
  5
176
330
17
100
AcDbEntity
  8
VISTA
100
AcDbPolyline
 90
5
 70
1
 10
522.061889
 20
0.937222
 10
522.061889
 20
0.931222
 10
522.043889
 20
0.931222
 10
522.043889
 20
0.937222
 10
522.061889
 20
0.937222
  0
LWPOLYLINE
  5
177
330
17
100
AcDbEntity
  8
VISTA
100
AcDbPolyline
 90
5
 70
1
 10
522.1675
 20
0.867722
 10
522.1675
 20
0.832722
 10
522.1325
 20
0.832722
 10
522.1325
 20
0.867722
 10
522.1675
 20
0.867722
  0
LWPOLYLINE
  5
178
330
17
100
AcDbEntity
  8
VISTA
100
AcDbPolyline
 90
8
 70
1
 10
522.048971
 20
0.768243
 10
522.050444
 20
0.765389
 10
522.049798
 20
0.695363
 10
522.046944
 20
0.693889
 10
521.828807
 20
0.694535
 10
521.827333
 20
0.697389
 10
521.828359
 20
0.767864
 10
522.048971
 20
0.768243
  0
LWPOLYLINE
  5
179
330
17
100
AcDbEntity
  8
VISTA
100
AcDbPolyline
 90
4
 70
1
 10
521.82908
 20
0.767142
 10
521.82908
 20
0.767859
 10
521.828364
 20
0.767142
 10
521.82908
 20
0.767142
  0
LWPOLYLINE
  5
17A
330
17
100
AcDbEntity
  8
VISTA
100
AcDbPolyline
 90
4
 70
1
 10
521.82908
 20
0.694919
 10
521.82908
 20
0.695635
 10
521.828364
 20
0.695635
 10
521.82908
 20
0.694919
  0
LWPOLYLINE
  5
17B
330
17
100
AcDbEntity
  8
VISTA
100
AcDbPolyline
 90
4
 70
1
 10
522.049414
 20
0.695635
 10
522.048698
 20
0.695635
 10
522.048698
 20
0.694919
 10
522.049414
 20
0.695635
  0
LWPOLYLINE
  5
17C
330
17
100
AcDbEntity
  8
VISTA
100
AcDbPolyline
 90
4
 70
1
 10
522.049414
 20
0.767142
 10
522.048698
 20
0.767859
 10
522.048698
 20
0.767142
 10
522.049414
 20
0.767142
  0
LWPOLYLINE
  5
17D
330
17
100
AcDbEntity
  8
VISTA
100
AcDbPolyline
 90
5
 70
1
 10
521.850778
 20
0.762778
 10
521.850778
 20
0.756778
 10
521.832778
 20
0.756778
 10
521.832778
 20
0.762778
 10
521.850778
 20
0.762778
  0
LWPOLYLINE
  5
17E
330
17
100
AcDbEntity
  8
VISTA
100
AcDbPolyline
 90
5
 70
1
 10
521.956389
 20
0.693278
 10
521.956389
 20
0.658278
 10
521.921389
 20
0.658278
 10
521.921389
 20
0.693278
 10
521.956389
 20
0.693278
  0
LWPOLYLINE
  5
17F
330
17
100
AcDbEntity
  8
VISTA
100
AcDbPolyline
 90
9
 70
1
 10
521.83786
 20
0.591021
 10
521.839333
 20
0.588167
 10
521.838687
 20
0.51814
 10
521.835833
 20
0.516667
 10
521.617696
 20
0.517313
 10
521.616868
 20
0.51814
 10
521.616222
 20
0.520167
 10
521.617247
 20
0.590642
 10
521.83786
 20
0.591021
  0
LWPOLYLINE
  5
180
330
17
100
AcDbEntity
  8
VISTA
100
AcDbPolyline
 90
4
 70
1
 10
521.617969
 20
0.58992
 10
521.617969
 20
0.590636
 10
521.617252
 20
0.58992
 10
521.617969
 20
0.58992
  0
LWPOLYLINE
  5
181
330
17
100
AcDbEntity
  8
VISTA
100
AcDbPolyline
 90
4
 70
1
 10
521.617969
 20
0.517697
 10
521.617969
 20
0.518413
 10
521.617252
 20
0.518413
 10
521.617969
 20
0.517697
  0
LWPOLYLINE
  5
182
330
17
100
AcDbEntity
  8
VISTA
100
AcDbPolyline
 90
4
 70
1
 10
521.617249344736
 20
0.5180301109405421
 10
521.61751
 20
0.517955
 10
521.617249344736
 20
0.5180301109405422
 10
521.617249344736
 20
0.5180301109405421
  0
LWPOLYLINE
  5
183
330
17
100
AcDbEntity
  8
VISTA
100
AcDbPolyline
 90
4
 70
1
 10
521.838303
 20
0.518413
 10
521.837587
 20
0.518413
 10
521.837587
 20
0.517697
 10
521.838303
 20
0.518413
  0
LWPOLYLINE
  5
184
330
17
100
AcDbEntity
  8
VISTA
100
AcDbPolyline
 90
4
 70
1
 10
521.838303
 20
0.58992
 10
521.837587
 20
0.590636
 10
521.837587
 20
0.58992
 10
521.838303
 20
0.58992
  0
LWPOLYLINE
  5
185
330
17
100
AcDbEntity
  8
VISTA
100
AcDbPolyline
 90
5
 70
1
 10
521.639667
 20
0.588333
 10
521.639667
 20
0.582333
 10
521.621667
 20
0.582333
 10
521.621667
 20
0.588333
 10
521.639667
 20
0.588333
  0
LWPOLYLINE
  5
186
330
17
100
AcDbEntity
  8
VISTA
100
AcDbPolyline
 90
5
 70
1
 10
521.745278
 20
0.518833
 10
521.745278
 20
0.483833
 10
521.710278
 20
0.483833
 10
521.710278
 20
0.518833
 10
521.745278
 20
0.518833
  0
LWPOLYLINE
  5
187
330
17
100
AcDbEntity
  8
VISTA
100
AcDbPolyline
 90
8
 70
1
 10
521.626748
 20
0.413798
 10
521.628222
 20
0.410944
 10
521.627576
 20
0.340918
 10
521.624722
 20
0.339444
 10
521.406585
 20
0.340091
 10
521.405111
 20
0.342944
 10
521.406136
 20
0.413419
 10
521.626748
 20
0.413798
  0
LWPOLYLINE
  5
188
330
17
100
AcDbEntity
  8
VISTA
100
AcDbPolyline
 90
4
 70
1
 10
521.406857
 20
0.412698
 10
521.406857
 20
0.413414
 10
521.406141
 20
0.412698
 10
521.406857
 20
0.412698
  0
LWPOLYLINE
  5
189
330
17
100
AcDbEntity
  8
VISTA
100
AcDbPolyline
 90
4
 70
1
 10
521.406857
 20
0.340475
 10
521.406857
 20
0.341191
 10
521.406141
 20
0.341191
 10
521.406857
 20
0.340475
  0
LWPOLYLINE
  5
18A
330
17
100
AcDbEntity
  8
VISTA
100
AcDbPolyline
 90
4
 70
1
 10
521.627192
 20
0.341191
 10
521.626476
 20
0.341191
 10
521.626476
 20
0.340475
 10
521.627192
 20
0.341191
  0
LWPOLYLINE
  5
18B
330
17
100
AcDbEntity
  8
VISTA
100
AcDbPolyline
 90
4
 70
1
 10
521.6271946552639
 20
0.3408081109405421
 10
521.626934
 20
0.340733
 10
521.6271946552639
 20
0.34080811094054203
 10
521.6271946552639
 20
0.3408081109405421
  0
LWPOLYLINE
  5
18C
330
17
100
AcDbEntity
  8
VISTA
100
AcDbPolyline
 90
4
 70
1
 10
521.627192
 20
0.412698
 10
521.626476
 20
0.413414
 10
521.626476
 20
0.412698
 10
521.627192
 20
0.412698
  0
LWPOLYLINE
  5
18D
330
17
100
AcDbEntity
  8
VISTA
100
AcDbPolyline
 90
5
 70
1
 10
521.428555
 20
0.413889
 10
521.428555
 20
0.407889
 10
521.410556
 20
0.407889
 10
521.410556
 20
0.413889
 10
521.428555
 20
0.413889
  0
LWPOLYLINE
  5
18E
330
17
100
AcDbEntity
  8
VISTA
100
AcDbPolyline
 90
5
 70
1
 10
521.534167
 20
0.344389
 10
521.534167
 20
0.309389
 10
521.4991669999999
 20
0.309389
 10
521.4991669999999
 20
0.344389
 10
521.534167
 20
0.344389
  0
LWPOLYLINE
  5
18F
330
17
100
AcDbEntity
  8
VISTA
100
AcDbPolyline
 90
9
 70
1
 10
521.415637
 20
0.236576
 10
521.417111
 20
0.233722
 10
521.416465
 20
0.163696
 10
521.413611
 20
0.162222
 10
521.195474
 20
0.162868
 10
521.194646
 20
0.163696
 10
521.194
 20
0.165722
 10
521.195025
 20
0.236197
 10
521.415637
 20
0.236576
  0
LWPOLYLINE
  5
190
330
17
100
AcDbEntity
  8
VISTA
100
AcDbPolyline
 90
4
 70
1
 10
521.195746
 20
0.235476
 10
521.195746
 20
0.236192
 10
521.19503
 20
0.235476
 10
521.195746
 20
0.235476
  0
LWPOLYLINE
  5
191
330
17
100
AcDbEntity
  8
VISTA
100
AcDbPolyline
 90
4
 70
1
 10
521.195746
 20
0.163252
 10
521.195746
 20
0.163969
 10
521.19503
 20
0.163969
 10
521.195746
 20
0.163252
  0
LWPOLYLINE
  5
192
330
17
100
AcDbEntity
  8
VISTA
100
AcDbPolyline
 90
4
 70
1
 10
521.195027344301
 20
0.16358551707165833
 10
521.195288
 20
0.16351
 10
521.195027344301
 20
0.16358551707165836
 10
521.195027344301
 20
0.16358551707165833
  0
LWPOLYLINE
  5
193
330
17
100
AcDbEntity
  8
VISTA
100
AcDbPolyline
 90
4
 70
1
 10
521.416081
 20
0.163969
 10
521.415365
 20
0.163969
 10
521.415365
 20
0.163252
 10
521.416081
 20
0.163969
  0
LWPOLYLINE
  5
194
330
17
100
AcDbEntity
  8
VISTA
100
AcDbPolyline
 90
4
 70
1
 10
521.416081
 20
0.235476
 10
521.415365
 20
0.236192
 10
521.415365
 20
0.235476
 10
521.416081
 20
0.235476
  0
LWPOLYLINE
  5
195
330
17
100
AcDbEntity
  8
VISTA
100
AcDbPolyline
 90
5
 70
1
 10
521.217444
 20
0.239444
 10
521.217444
 20
0.233444
 10
521.199445
 20
0.233444
 10
521.199445
 20
0.239444
 10
521.217444
 20
0.239444
  0
LWPOLYLINE
  5
196
330
17
100
AcDbEntity
  8
VISTA
100
AcDbPolyline
 90
5
 70
1
 10
521.323056
 20
0.169944
 10
521.323056
 20
0.134944
 10
521.288056
 20
0.134944
 10
521.288056
 20
0.169944
 10
521.323056
 20
0.169944
  0
LWPOLYLINE
  5
197
330
17
100
AcDbEntity
  8
VISTA
100
AcDbPolyline
 90
5
 70
1
 10
525.0195
 20
3.25
 10
525.0195
 20
3.23
 10
524.9945
 20
3.229928
 10
524.9945
 20
3.249928
 10
525.0195
 20
3.25
  0
LWPOLYLINE
  5
198
330
17
100
AcDbEntity
  8
VISTA
100
AcDbPolyline
 90
5
 70
1
 10
524.798589
 20
3.255
 10
524.819889
 20
3.2543
 10
524.819189
 20
3.25
 10
524.798094
 20
3.2507
 10
524.798589
 20
3.255
  0
LWPOLYLINE
  5
199
330
17
100
AcDbEntity
  8
VISTA
100
AcDbPolyline
 90
5
 70
1
 10
524.587478
 20
3.077778
 10
524.608778
 20
3.077078
 10
524.608078
 20
3.072778
 10
524.586983
 20
3.073478
 10
524.587478
 20
3.077778
  0
LWPOLYLINE
  5
19A
330
17
100
AcDbEntity
  8
VISTA
100
AcDbPolyline
 90
5
 70
1
 10
524.376367
 20
2.900556
 10
524.397667
 20
2.899856
 10
524.396967
 20
2.895555
 10
524.375872
 20
2.896255
 10
524.376367
 20
2.900556
  0
LWPOLYLINE
  5
19B
330
17
100
AcDbEntity
  8
VISTA
100
AcDbPolyline
 90
5
 70
1
 10
524.165256
 20
2.723333
 10
524.186556
 20
2.722633
 10
524.185856
 20
2.718333
 10
524.164761
 20
2.719033
 10
524.165256
 20
2.723333
  0
LWPOLYLINE
  5
19C
330
17
100
AcDbEntity
  8
VISTA
100
AcDbPolyline
 90
5
 70
1
 10
523.954145
 20
2.546111
 10
523.975445
 20
2.545411
 10
523.974745
 20
2.541111
 10
523.95365
 20
2.541811
 10
523.954145
 20
2.546111
  0
LWPOLYLINE
  5
19D
330
17
100
AcDbEntity
  8
VISTA
100
AcDbPolyline
 90
5
 70
1
 10
523.743033
 20
2.368889
 10
523.764333
 20
2.368189
 10
523.763633
 20
2.363889
 10
523.742538
 20
2.364589
 10
523.743033
 20
2.368889
  0
LWPOLYLINE
  5
19E
330
17
100
AcDbEntity
  8
VISTA
100
AcDbPolyline
 90
5
 70
1
 10
523.531922
 20
2.191667
 10
523.553222
 20
2.190967
 10
523.552522
 20
2.186666
 10
523.531427
 20
2.187366
 10
523.531922
 20
2.191667
  0
LWPOLYLINE
  5
19F
330
17
100
AcDbEntity
  8
VISTA
100
AcDbPolyline
 90
5
 70
1
 10
523.320811
 20
2.014445
 10
523.342111
 20
2.013745
 10
523.341411
 20
2.009444
 10
523.320316
 20
2.010144
 10
523.320811
 20
2.014445
  0
LWPOLYLINE
  5
1A0
330
17
100
AcDbEntity
  8
VISTA
100
AcDbPolyline
 90
5
 70
1
 10
523.1097
 20
1.837222
 10
523.131
 20
1.836522
 10
523.1303
 20
1.832222
 10
523.109205
 20
1.832922
 10
523.1097
 20
1.837222
  0
LWPOLYLINE
  5
1A1
330
17
100
AcDbEntity
  8
VISTA
100
AcDbPolyline
 90
5
 70
1
 10
522.898589
 20
1.66
 10
522.919889
 20
1.6593
 10
522.919189
 20
1.655
 10
522.898094
 20
1.6557
 10
522.898589
 20
1.66
  0
LWPOLYLINE
  5
1A2
330
17
100
AcDbEntity
  8
VISTA
100
AcDbPolyline
 90
5
 70
1
 10
522.687478
 20
1.482778
 10
522.708778
 20
1.482078
 10
522.708078
 20
1.477778
 10
522.686983
 20
1.478478
 10
522.687478
 20
1.482778
  0
LWPOLYLINE
  5
1A3
330
17
100
AcDbEntity
  8
VISTA
100
AcDbPolyline
 90
5
 70
1
 10
522.476367
 20
1.305556
 10
522.497667
 20
1.304856
 10
522.496967
 20
1.300556
 10
522.475872
 20
1.301256
 10
522.476367
 20
1.305556
  0
LWPOLYLINE
  5
1A4
330
17
100
AcDbEntity
  8
VISTA
100
AcDbPolyline
 90
5
 70
1
 10
522.265256
 20
1.128333
 10
522.286556
 20
1.127633
 10
522.285856
 20
1.123333
 10
522.264761
 20
1.124033
 10
522.265256
 20
1.128333
  0
LWPOLYLINE
  5
1A5
330
17
100
AcDbEntity
  8
VISTA
100
AcDbPolyline
 90
5
 70
1
 10
522.054145
 20
0.951111
 10
522.075444
 20
0.950411
 10
522.074744
 20
0.946111
 10
522.05365
 20
0.946811
 10
522.054145
 20
0.951111
  0
LWPOLYLINE
  5
1A6
330
17
100
AcDbEntity
  8
VISTA
100
AcDbPolyline
 90
5
 70
1
 10
521.843033
 20
0.773889
 10
521.864333
 20
0.773189
 10
521.863633
 20
0.768889
 10
521.842538
 20
0.769589
 10
521.843033
 20
0.773889
  0
LWPOLYLINE
  5
1A7
330
17
100
AcDbEntity
  8
VISTA
100
AcDbPolyline
 90
5
 70
1
 10
521.631922
 20
0.596667
 10
521.653222
 20
0.595967
 10
521.652522
 20
0.591667
 10
521.631427
 20
0.592367
 10
521.631922
 20
0.596667
  0
LWPOLYLINE
  5
1A8
330
17
100
AcDbEntity
  8
VISTA
100
AcDbPolyline
 90
5
 70
1
 10
521.420811
 20
0.419444
 10
521.442111
 20
0.418744
 10
521.441411
 20
0.414444
 10
521.420316
 20
0.415144
 10
521.420811
 20
0.419444
  0
LWPOLYLINE
  5
1A9
330
17
100
AcDbEntity
  8
VISTA
100
AcDbPolyline
 90
5
 70
1
 10
521.2097
 20
0.242222
 10
521.231
 20
0.241522
 10
521.2303
 20
0.237222
 10
521.209205
 20
0.237922
 10
521.2097
 20
0.242222
  0
LWPOLYLINE
  5
1AA
330
17
100
AcDbEntity
  8
VISTA
100
AcDbPolyline
 90
12
 70
1
 10
524.94773
 20
3.2099
 10
524.950124
 20
3.209703
 10
525.049876
 20
3.08964
 10
525.049648
 20
3.087247
 10
521.252269
 20
-0.0999
 10
521.251311
 20
-0.100297
 10
521.251294
 20
-0.100069
 10
521.252069
 20
-0.09966
 10
521.251813
 20
-0.099354
 10
521.249876
 20
-0.099703
 10
521.150235
 20
0.021556
 10
524.94773
 20
3.2099
  0
LWPOLYLINE
  5
1AB
330
17
100
AcDbEntity
  8
VISTA
100
AcDbPolyline
 90
4
 70
1
 10
521.2516572281586
 20
-0.10000604045251969
 10
521.2516572281586
 20
-0.10000604045251968
 10
521.251294
 20
-0.100069
 10
521.2516572281586
 20
-0.10000604045251969
  0
LWPOLYLINE
  5
1AC
330
17
100
AcDbEntity
  8
VISTA
100
AcDbPolyline
 90
7
 70
1
 10
524.905879
 20
3.237883
 10
524.908
 20
3.23879
 10
525.114121
 20
3.239121
 10
525.114121
 20
3.010879
 10
524.908
 20
3.00879
 10
524.905879
 20
3.00964
 10
524.905879
 20
3.237883
  0
LWPOLYLINE
  5
1AD
330
17
100
AcDbEntity
  8
VISTA
100
AcDbPolyline
 90
4
 70
1
 10
524.906497
 20
3.237273
 10
524.906497
 20
3.237887
 10
524.905879
 20
3.237883
 10
524.906497
 20
3.237273
  0
LWPOLYLINE
  5
1AE
330
17
100
AcDbEntity
  8
VISTA
100
AcDbPolyline
 90
4
 70
1
 10
525.113503
 20
3.238503
 10
525.114117
 20
3.238503
 10
525.114121
 20
3.239121
 10
525.113503
 20
3.238503
  0
LWPOLYLINE
  5
1AF
330
17
100
AcDbEntity
  8
VISTA
100
AcDbPolyline
 90
4
 70
1
 10
525.113503
 20
3.011497
 10
525.113503
 20
3.010883
 10
525.114121
 20
3.010879
 10
525.113503
 20
3.011497
  0
LWPOLYLINE
  5
1B0
330
17
100
AcDbEntity
  8
VISTA
100
AcDbPolyline
 90
4
 70
1
 10
524.906497
 20
3.010267
 10
524.905883
 20
3.010259
 10
524.905879
 20
3.00964
 10
524.906497
 20
3.010267
  0
LWPOLYLINE
  5
1B1
330
17
100
AcDbEntity
  8
VISTA
100
AcDbPolyline
 90
5
 70
1
 10
521.306
 20
1.183026
 10
521.306
 20
0.245026
 10
521.295
 20
0.243882
 10
521.294293
 20
1.183579
 10
521.306
 20
1.183026
  0
LWPOLYLINE
  5
1B2
330
17
100
AcDbEntity
  8
VISTA
100
AcDbPolyline
 90
5
 70
1
 10
521.406
 20
1.266974
 10
521.406
 20
0.328974
 10
521.395
 20
0.327829
 10
521.394293
 20
1.267527
 10
521.406
 20
1.266974
  0
LWPOLYLINE
  5
1B3
330
17
100
AcDbEntity
  8
VISTA
100
AcDbPolyline
 90
5
 70
1
 10
521.506
 20
1.350921
 10
521.506
 20
0.412921
 10
521.495
 20
0.411776
 10
521.494293
 20
1.351474
 10
521.506
 20
1.350921
  0
LWPOLYLINE
  5
1B4
330
17
100
AcDbEntity
  8
VISTA
100
AcDbPolyline
 90
5
 70
1
 10
521.606
 20
1.434868
 10
521.606
 20
0.496868
 10
521.595
 20
0.495724
 10
521.594293
 20
1.435421
 10
521.606
 20
1.434868
  0
LWPOLYLINE
  5
1B5
330
17
100
AcDbEntity
  8
VISTA
100
AcDbPolyline
 90
5
 70
1
 10
521.706
 20
1.518816
 10
521.706
 20
0.580816
 10
521.695
 20
0.579671
 10
521.694293
 20
1.519369
 10
521.706
 20
1.518816
  0
LWPOLYLINE
  5
1B6
330
17
100
AcDbEntity
  8
VISTA
100
AcDbPolyline
 90
5
 70
1
 10
521.806
 20
1.602763
 10
521.806
 20
0.664763
 10
521.795
 20
0.663618
 10
521.794293
 20
1.603316
 10
521.806
 20
1.602763
  0
LWPOLYLINE
  5
1B7
330
17
100
AcDbEntity
  8
VISTA
100
AcDbPolyline
 90
5
 70
1
 10
521.906
 20
1.686711
 10
521.906
 20
0.748711
 10
521.895
 20
0.747566
 10
521.894293
 20
1.687264
 10
521.906
 20
1.686711
  0
LWPOLYLINE
  5
1B8
330
17
100
AcDbEntity
  8
VISTA
100
AcDbPolyline
 90
5
 70
1
 10
522.006
 20
1.770658
 10
522.006
 20
0.832658
 10
521.995
 20
0.831513
 10
521.994293
 20
1.771211
 10
522.006
 20
1.770658
  0
LWPOLYLINE
  5
1B9
330
17
100
AcDbEntity
  8
VISTA
100
AcDbPolyline
 90
5
 70
1
 10
522.106
 20
1.854605
 10
522.106
 20
0.916605
 10
522.095
 20
0.91546
 10
522.094293
 20
1.855158
 10
522.106
 20
1.854605
  0
LWPOLYLINE
  5
1BA
330
17
100
AcDbEntity
  8
VISTA
100
AcDbPolyline
 90
5
 70
1
 10
522.206
 20
1.938553
 10
522.206
 20
1.000553
 10
522.195
 20
0.999408
 10
522.194293
 20
1.939106
 10
522.206
 20
1.938553
  0
LWPOLYLINE
  5
1BB
330
17
100
AcDbEntity
  8
VISTA
100
AcDbPolyline
 90
5
 70
1
 10
522.306
 20
2.0225
 10
522.306
 20
1.0845
 10
522.295
 20
1.083355
 10
522.294293
 20
2.023053
 10
522.306
 20
2.0225
  0
LWPOLYLINE
  5
1BC
330
17
100
AcDbEntity
  8
VISTA
100
AcDbPolyline
 90
5
 70
1
 10
522.406
 20
2.106447
 10
522.406
 20
1.168447
 10
522.395
 20
1.167303
 10
522.394293
 20
2.107001
 10
522.406
 20
2.106447
  0
LWPOLYLINE
  5
1BD
330
17
100
AcDbEntity
  8
VISTA
100
AcDbPolyline
 90
5
 70
1
 10
522.506
 20
2.190395
 10
522.506
 20
1.252395
 10
522.495
 20
1.25125
 10
522.494293
 20
2.190948
 10
522.506
 20
2.190395
  0
LWPOLYLINE
  5
1BE
330
17
100
AcDbEntity
  8
VISTA
100
AcDbPolyline
 90
5
 70
1
 10
522.606
 20
2.274342
 10
522.606
 20
1.336342
 10
522.595
 20
1.335197
 10
522.594293
 20
2.274895
 10
522.606
 20
2.274342
  0
LWPOLYLINE
  5
1BF
330
17
100
AcDbEntity
  8
VISTA
100
AcDbPolyline
 90
5
 70
1
 10
522.706
 20
2.358289
 10
522.706
 20
1.42029
 10
522.695
 20
1.419145
 10
522.694293
 20
2.358843
 10
522.706
 20
2.358289
  0
LWPOLYLINE
  5
1C0
330
17
100
AcDbEntity
  8
VISTA
100
AcDbPolyline
 90
5
 70
1
 10
522.806
 20
2.442237
 10
522.806
 20
1.504237
 10
522.795
 20
1.503092
 10
522.794293
 20
2.44279
 10
522.806
 20
2.442237
  0
LWPOLYLINE
  5
1C1
330
17
100
AcDbEntity
  8
VISTA
100
AcDbPolyline
 90
5
 70
1
 10
522.906
 20
2.526184
 10
522.906
 20
1.588184
 10
522.895
 20
1.587039
 10
522.894293
 20
2.526737
 10
522.906
 20
2.526184
  0
LWPOLYLINE
  5
1C2
330
17
100
AcDbEntity
  8
VISTA
100
AcDbPolyline
 90
5
 70
1
 10
523.006
 20
2.610132
 10
523.006
 20
1.672132
 10
522.995
 20
1.670987
 10
522.994293
 20
2.610685
 10
523.006
 20
2.610132
  0
LWPOLYLINE
  5
1C3
330
17
100
AcDbEntity
  8
VISTA
100
AcDbPolyline
 90
5
 70
1
 10
523.106
 20
2.694079
 10
523.106
 20
1.756079
 10
523.095
 20
1.754934
 10
523.094293
 20
2.694632
 10
523.106
 20
2.694079
  0
LWPOLYLINE
  5
1C4
330
17
100
AcDbEntity
  8
VISTA
100
AcDbPolyline
 90
5
 70
1
 10
523.206
 20
2.778027
 10
523.206
 20
1.840026
 10
523.195
 20
1.838882
 10
523.194293
 20
2.778579
 10
523.206
 20
2.778027
  0
LWPOLYLINE
  5
1C5
330
17
100
AcDbEntity
  8
VISTA
100
AcDbPolyline
 90
5
 70
1
 10
523.306
 20
2.861974
 10
523.306
 20
1.923974
 10
523.295
 20
1.922829
 10
523.294293
 20
2.862527
 10
523.306
 20
2.861974
  0
LWPOLYLINE
  5
1C6
330
17
100
AcDbEntity
  8
VISTA
100
AcDbPolyline
 90
5
 70
1
 10
523.406
 20
2.945921
 10
523.406
 20
2.007921
 10
523.395
 20
2.006776
 10
523.394293
 20
2.946474
 10
523.406
 20
2.945921
  0
LWPOLYLINE
  5
1C7
330
17
100
AcDbEntity
  8
VISTA
100
AcDbPolyline
 90
5
 70
1
 10
523.506
 20
3.029869
 10
523.506
 20
2.091868
 10
523.495
 20
2.090724
 10
523.494293
 20
3.030422
 10
523.506
 20
3.029869
  0
LWPOLYLINE
  5
1C8
330
17
100
AcDbEntity
  8
VISTA
100
AcDbPolyline
 90
5
 70
1
 10
523.606
 20
3.113816
 10
523.606
 20
2.175816
 10
523.595
 20
2.174671
 10
523.594293
 20
3.114369
 10
523.606
 20
3.113816
  0
LWPOLYLINE
  5
1C9
330
17
100
AcDbEntity
  8
VISTA
100
AcDbPolyline
 90
5
 70
1
 10
523.706
 20
3.197763
 10
523.706
 20
2.259763
 10
523.695
 20
2.258618
 10
523.694293
 20
3.198316
 10
523.706
 20
3.197763
  0
LWPOLYLINE
  5
1CA
330
17
100
AcDbEntity
  8
VISTA
100
AcDbPolyline
 90
5
 70
1
 10
523.806
 20
3.281711
 10
523.806
 20
2.34371
 10
523.795
 20
2.342566
 10
523.794293
 20
3.282264
 10
523.806
 20
3.281711
  0
LWPOLYLINE
  5
1CB
330
17
100
AcDbEntity
  8
VISTA
100
AcDbPolyline
 90
5
 70
1
 10
523.906
 20
3.365658
 10
523.906
 20
2.427658
 10
523.895
 20
2.426513
 10
523.894293
 20
3.366211
 10
523.906
 20
3.365658
  0
LWPOLYLINE
  5
1CC
330
17
100
AcDbEntity
  8
VISTA
100
AcDbPolyline
 90
5
 70
1
 10
524.006
 20
3.449605
 10
524.006
 20
2.511605
 10
523.995
 20
2.51046
 10
523.994293
 20
3.450158
 10
524.006
 20
3.449605
  0
LWPOLYLINE
  5
1CD
330
17
100
AcDbEntity
  8
VISTA
100
AcDbPolyline
 90
5
 70
1
 10
524.106
 20
3.533553
 10
524.106
 20
2.595552
 10
524.095
 20
2.594408
 10
524.094293
 20
3.534106
 10
524.106
 20
3.533553
  0
LWPOLYLINE
  5
1CE
330
17
100
AcDbEntity
  8
VISTA
100
AcDbPolyline
 90
5
 70
1
 10
524.206
 20
3.6175
 10
524.206
 20
2.6795
 10
524.195
 20
2.678355
 10
524.194293
 20
3.618053
 10
524.206
 20
3.6175
  0
LWPOLYLINE
  5
1CF
330
17
100
AcDbEntity
  8
VISTA
100
AcDbPolyline
 90
5
 70
1
 10
524.306
 20
3.701447
 10
524.306
 20
2.763447
 10
524.295
 20
2.762302
 10
524.294293
 20
3.702
 10
524.306
 20
3.701447
  0
LWPOLYLINE
  5
1D0
330
17
100
AcDbEntity
  8
VISTA
100
AcDbPolyline
 90
5
 70
1
 10
524.406
 20
3.785395
 10
524.406
 20
2.847394
 10
524.395
 20
2.84625
 10
524.394293
 20
3.785948
 10
524.406
 20
3.785395
  0
LWPOLYLINE
  5
1D1
330
17
100
AcDbEntity
  8
VISTA
100
AcDbPolyline
 90
5
 70
1
 10
524.506
 20
3.869342
 10
524.506
 20
2.931342
 10
524.495
 20
2.930197
 10
524.494293
 20
3.869895
 10
524.506
 20
3.869342
  0
LWPOLYLINE
  5
1D2
330
17
100
AcDbEntity
  8
VISTA
100
AcDbPolyline
 90
5
 70
1
 10
524.606
 20
3.95329
 10
524.606
 20
3.015289
 10
524.595
 20
3.014145
 10
524.594293
 20
3.953843
 10
524.606
 20
3.95329
  0
LWPOLYLINE
  5
1D3
330
17
100
AcDbEntity
  8
VISTA
100
AcDbPolyline
 90
5
 70
1
 10
524.706
 20
4.037237
 10
524.706
 20
3.099237
 10
524.695
 20
3.098092
 10
524.694293
 20
4.03779
 10
524.706
 20
4.037237
  0
LWPOLYLINE
  5
1D4
330
17
100
AcDbEntity
  8
VISTA
100
AcDbPolyline
 90
5
 70
1
 10
524.806
 20
4.121184
 10
524.806
 20
3.183184
 10
524.795
 20
3.182039
 10
524.794293
 20
4.121737
 10
524.806
 20
4.121184
  0
LWPOLYLINE
  5
1D5
330
17
100
AcDbEntity
  8
VISTA
100
AcDbPolyline
 90
5
 70
1
 10
524.906
 20
4.205132
 10
524.906
 20
3.267132
 10
524.895
 20
3.265987
 10
524.894293
 20
4.205685
 10
524.906
 20
4.205132
  0
LWPOLYLINE
  5
1D6
330
17
100
AcDbEntity
  8
VISTA
100
AcDbPolyline
 90
8
 70
1
 10
524.984357
 20
4.316056
 10
524.986751
 20
4.31586
 10
525.013249
 20
4.283966
 10
525.013021
 20
4.281573
 10
521.215643
 20
1.093944
 10
521.213249
 20
1.09414
 10
521.186862
 20
1.127231
 10
524.984357
 20
4.316056
  0
LWPOLYLINE
  5
1D7
330
17
100
AcDbEntity
  8
VISTA
100
AcDbPolyline
 90
8
 70
1
 10
521.1825
 20
1.1083
 10
521.1842
 20
1.11
 10
521.2158
 20
1.110208
 10
521.2175
 20
1.10853
 10
521.2175
 20
0.06193
 10
521.2158
 20
0.060208
 10
521.183348
 20
0.0605
 10
521.1825
 20
1.1083
  0
LWPOLYLINE
  5
1D8
330
17
100
AcDbEntity
  8
VISTA
100
AcDbPolyline
 90
8
 70
1
 10
521.815833
 20
1.639736
 10
521.817533
 20
1.641459
 10
521.849133
 20
1.641875
 10
521.850833
 20
1.640197
 10
521.850833
 20
0.593597
 10
521.849133
 20
0.591875
 10
521.816682
 20
0.591948
 10
521.815833
 20
1.639736
  0
LWPOLYLINE
  5
1D9
330
17
100
AcDbEntity
  8
VISTA
100
AcDbPolyline
 90
8
 70
1
 10
522.449167
 20
2.171403
 10
522.450867
 20
2.173126
 10
522.482467
 20
2.173541
 10
522.484167
 20
2.171864
 10
522.484167
 20
1.125264
 10
522.482467
 20
1.123541
 10
522.450015
 20
1.123615
 10
522.449167
 20
2.171403
  0
LWPOLYLINE
  5
1DA
330
17
100
AcDbEntity
  8
VISTA
100
AcDbPolyline
 90
8
 70
1
 10
523.0825
 20
2.70307
 10
523.0842
 20
2.704792
 10
523.1158
 20
2.705208
 10
523.1175
 20
2.70353
 10
523.1175
 20
1.65693
 10
523.1158
 20
1.655208
 10
523.083348
 20
1.655281
 10
523.0825
 20
2.70307
  0
LWPOLYLINE
  5
1DB
330
17
100
AcDbEntity
  8
VISTA
100
AcDbPolyline
 90
8
 70
1
 10
523.715833
 20
3.234736
 10
523.717533
 20
3.236459
 10
523.749133
 20
3.236875
 10
523.7508330000001
 20
3.235197
 10
523.7508330000001
 20
2.188597
 10
523.749133
 20
2.186874
 10
523.716682
 20
2.186948
 10
523.715833
 20
3.234736
  0
LWPOLYLINE
  5
1DC
330
17
100
AcDbEntity
  8
VISTA
100
AcDbPolyline
 90
8
 70
1
 10
524.349167
 20
3.766403
 10
524.350867
 20
3.768125
 10
524.382467
 20
3.768541
 10
524.384167
 20
3.766863
 10
524.384167
 20
2.720263
 10
524.382467
 20
2.718541
 10
524.350015
 20
2.718615
 10
524.349167
 20
3.766403
  0
LWPOLYLINE
  5
1DD
330
17
100
AcDbEntity
  8
VISTA
100
AcDbPolyline
 90
8
 70
1
 10
524.9825
 20
4.29807
 10
524.9842
 20
4.299792
 10
525.0158
 20
4.3
 10
525.0175
 20
4.2983
 10
525.0175
 20
3.2517
 10
525.0158
 20
3.25
 10
524.983348
 20
3.250281
 10
524.9825
 20
4.29807
  0
LWPOLYLINE
  5
1DE
330
17
100
AcDbEntity
  8
VISTA
100
AcDbPolyline
 90
13
 70
1
 10
525.0287
 20
3.047314
 10
525.027
 20
3.0487
 10
525.027314
 20
3.072284
 10
525.027716
 20
3.0713
 10
525.0287
 20
3.073
 10
525.052284
 20
3.072686
 10
525.0513
 20
3.072284
 10
525.053
 20
3.0713
 10
525.052686
 20
3.047716
 10
525.052284
 20
3.0487
 10
525.0513
 20
3.047
 10
525.0287
 20
3.047
 10
525.0287
 20
3.047314
  0
LWPOLYLINE
  5
1DF
330
17
100
AcDbEntity
  8
VISTA
100
AcDbPolyline
 90
13
 70
1
 10
525.0287
 20
3.137314
 10
525.027
 20
3.1387
 10
525.027314
 20
3.162284
 10
525.027716
 20
3.1613
 10
525.0287
 20
3.163
 10
525.052284
 20
3.162686
 10
525.0513
 20
3.162284
 10
525.053
 20
3.1613
 10
525.052686
 20
3.137716
 10
525.052284
 20
3.1387
 10
525.0513
 20
3.137
 10
525.0287
 20
3.137
 10
525.0287
 20
3.137314
  0
LWPOLYLINE
  5
1E0
330
17
100
AcDbEntity
  8
VISTA
100
AcDbPolyline
 90
41
 70
1
 10
525.000879
 20
3.040879
 10
525.0007099607645
 20
3.041078726358149
 10
525.000554
 20
3.041263
 10
525.0002658531187
 20
3.0421664496981893
 10
525.0
 20
3.043
 10
525.0
 20
3.123098591549296
 10
525.0
 20
3.197
 10
525.0002881468813
 20
3.197903449698189
 10
525.000554
 20
3.198737
 10
525.0007230392354
 20
3.198936726358149
 10
525.000879
 20
3.199121
 10
525.0010787263582
 20
3.199290039235412
 10
525.001263
 20
3.199446
 10
525.0021664496982
 20
3.199734146881288
 10
525.003
 20
3.2
 10
525.52
 20
3.2
 10
525.997
 20
3.2
 10
525.9979034496982
 20
3.1997118531187123
 10
525.998737
 20
3.199446
 10
525.9989367263581
 20
3.1992769607645877
 10
525.999121
 20
3.199121
 10
525.9992769607646
 20
3.198936726358149
 10
525.999446
 20
3.198737
 10
525.9997118531187
 20
3.197903449698189
 10
526.0
 20
3.197
 10
526.0
 20
3.123098591549296
 10
526.0
 20
3.043
 10
525.9997341468813
 20
3.0421664496981893
 10
525.999446
 20
3.041263
 10
525.9992900392355
 20
3.041078726358149
 10
525.999121
 20
3.040879
 10
525.9989367263581
 20
3.0407230392354125
 10
525.998737
 20
3.040554
 10
525.9979034496982
 20
3.040288146881288
 10
525.997
 20
3.04
 10
525.52
 20
3.04
 10
525.003
 20
3.04
 10
525.0021664496982
 20
3.0402658531187123
 10
525.001263
 20
3.040554
 10
525.0010787263582
 20
3.0407099607645875
 10
525.000879
 20
3.040879
  0
LWPOLYLINE
  5
1E1
330
17
100
AcDbEntity
  8
VISTA
100
AcDbPolyline
 90
22
 70
1
 10
526.000879
 20
3.040879
 10
526.0007099607645
 20
3.041078726358149
 10
526.000554
 20
3.041263
 10
526.0002658531187
 20
3.0421664496981893
 10
526.0
 20
3.043
 10
526.0
 20
3.123098591549296
 10
526.0
 20
3.197
 10
526.0002881468813
 20
3.197903449698189
 10
526.000554
 20
3.198737
 10
526.0007230392354
 20
3.198936726358149
 10
526.000879
 20
3.199121
 10
526.0010792464789
 20
3.199290039235412
 10
526.001264
 20
3.199446
 10
526.0021669295775
 20
3.199734146881288
 10
526.003
 20
3.2
 10
526.5
 20
3.2
 10
526.5
 20
3.04
 10
526.003
 20
3.04
 10
526.0021669295775
 20
3.0402658531187123
 10
526.001264
 20
3.040554
 10
526.0010792464789
 20
3.0407099607645875
 10
526.000879
 20
3.040879
  0
LWPOLYLINE
  5
1E2
330
17
100
AcDbEntity
  8
VISTA
100
AcDbPolyline
 90
14
 70
1
 10
525.999708
 20
3.200293
 10
525.999
 20
3.2
 10
525.001
 20
3.2
 10
525.00029247996
 20
3.200293
 10
525.0
 20
3.201
 10
525.0
 20
3.249
 10
525.00029252004
 20
3.24970156012012
 10
525.001
 20
3.249985
 10
525.5200004799594
 20
3.2421999928006087
 10
525.999
 20
3.2421999928006087
 10
525.999708
 20
3.2419054404810814
 10
526.0
 20
3.2411999999999996
 10
526.0
 20
3.201
 10
525.999708
 20
3.200293
  0
LWPOLYLINE
  5
1E3
330
17
100
AcDbEntity
  8
VISTA
100
AcDbPolyline
 90
9
 70
1
 10
526.001
 20
3.21
 10
526.000292
 20
3.210293
 10
526.0
 20
3.211
 10
526.0
 20
3.2411999999999996
 10
526.0003294799715
 20
3.241905452807557
 10
526.0011323998815
 20
3.2421997647968017
 10
526.5
 20
3.2421998034739894
 10
526.5
 20
3.21
 10
526.001
 20
3.21
  0
LWPOLYLINE
  5
1E4
330
17
100
AcDbEntity
  8
VISTA
100
AcDbPolyline
 90
41
 70
1
 10
524.783914
 20
3.176025
 10
524.7837245
 20
3.1762495
 10
524.783535
 20
3.176474
 10
524.783212
 20
3.1774869999999997
 10
524.782889
 20
3.1785
 10
524.782889
 20
3.2125
 10
524.782889
 20
3.2465
 10
524.783212
 20
3.247513
 10
524.783535
 20
3.248526
 10
524.7837245
 20
3.2487505
 10
524.783914
 20
3.248975
 10
524.7841385
 20
3.2491645
 10
524.784363
 20
3.249354
 10
524.785376
 20
3.2496769999999997
 10
524.786389
 20
3.25
 10
524.8944445
 20
3.25
 10
525.0025
 20
3.25
 10
525.003513
 20
3.249677
 10
525.004526
 20
3.249354
 10
525.0047505
 20
3.2491645
 10
525.004975
 20
3.248975
 10
525.0051645
 20
3.2487505
 10
525.005354
 20
3.248526
 10
525.005677
 20
3.247513
 10
525.006
 20
3.2465
 10
525.006
 20
3.2125
 10
525.006
 20
3.1785
 10
525.005677
 20
3.1774869999999997
 10
525.005354
 20
3.176474
 10
525.0051645
 20
3.1762495
 10
525.004975
 20
3.176025
 10
525.0047505
 20
3.1758355
 10
525.004526
 20
3.175646
 10
525.003513
 20
3.1753229999999997
 10
525.0025
 20
3.175
 10
524.8944445
 20
3.175
 10
524.786389
 20
3.175
 10
524.785376
 20
3.175323
 10
524.784363
 20
3.175646
 10
524.7841385
 20
3.1758355000000003
 10
524.783914
 20
3.176025
  0
LWPOLYLINE
  5
1E5
330
17
100
AcDbEntity
  8
VISTA
100
AcDbPolyline
 90
9
 70
1
 10
524.806333
 20
3.199
 10
524.7973330098902
 20
3.199
 10
524.788333
 20
3.199
 10
524.788333
 20
3.201999996703293
 10
524.788333
 20
3.205
 10
524.7973329901099
 20
3.205
 10
524.806333
 20
3.205
 10
524.806333
 20
3.202000003296707
 10
524.806333
 20
3.199
  0
LWPOLYLINE
  5
1E6
330
17
100
AcDbEntity
  8
VISTA
100
AcDbPolyline
 90
9
 70
1
 10
524.911944
 20
3.1005
 10
524.8944445196623
 20
3.1005
 10
524.876945
 20
3.1005
 10
524.876945
 20
3.1179999803370566
 10
524.876945
 20
3.1355
 10
524.8944444803376
 20
3.1355
 10
524.911944
 20
3.1355
 10
524.911944
 20
3.118000019662943
 10
524.911944
 20
3.1005
  0
LWPOLYLINE
  5
1E7
330
17
100
AcDbEntity
  8
VISTA
100
AcDbPolyline
 90
41
 70
1
 10
524.572803
 20
2.998803
 10
524.5726135
 20
2.999027
 10
524.572424
 20
2.999251
 10
524.572101
 20
3.0002645
 10
524.571778
 20
3.001278
 10
524.571778
 20
3.035278
 10
524.571778
 20
3.069278
 10
524.572101
 20
3.070291
 10
524.572424
 20
3.071304
 10
524.5726135
 20
3.0715285
 10
524.572803
 20
3.071753
 10
524.5730275
 20
3.071942
 10
524.573252
 20
3.072131
 10
524.574265
 20
3.0724545
 10
524.575278
 20
3.072778
 10
524.6833335
 20
3.072778
 10
524.791389
 20
3.072778
 10
524.792402
 20
3.0724545
 10
524.793415
 20
3.072131
 10
524.7936395
 20
3.0719420000000004
 10
524.793864
 20
3.071753
 10
524.7940535
 20
3.0715285
 10
524.794243
 20
3.071304
 10
524.794566
 20
3.070291
 10
524.794889
 20
3.069278
 10
524.794889
 20
3.035278
 10
524.794889
 20
3.001278
 10
524.794566
 20
3.0002645
 10
524.794243
 20
2.999251
 10
524.7940535
 20
2.999027
 10
524.793864
 20
2.998803
 10
524.7936395
 20
2.9986135
 10
524.793415
 20
2.998424
 10
524.792402
 20
2.9981009999999997
 10
524.791389
 20
2.997778
 10
524.6833335
 20
2.997778
 10
524.575278
 20
2.997778
 10
524.574265
 20
2.998101
 10
524.573252
 20
2.998424
 10
524.5730275
 20
2.9986135000000003
 10
524.572803
 20
2.998803
  0
LWPOLYLINE
  5
1E8
330
17
100
AcDbEntity
  8
VISTA
100
AcDbPolyline
 90
9
 70
1
 10
524.595222
 20
3.024555
 10
524.5862220098901
 20
3.024555
 10
524.577222
 20
3.024555
 10
524.577222
 20
3.027554996703293
 10
524.577222
 20
3.030555
 10
524.5862219901098
 20
3.030555
 10
524.595222
 20
3.030555
 10
524.595222
 20
3.027555003296707
 10
524.595222
 20
3.024555
  0
LWPOLYLINE
  5
1E9
330
17
100
AcDbEntity
  8
VISTA
100
AcDbPolyline
 90
9
 70
1
 10
524.700833
 20
2.926056
 10
524.683333019663
 20
2.926056
 10
524.665833
 20
2.926056
 10
524.665833
 20
2.943555980337057
 10
524.665833
 20
2.961056
 10
524.683332980337
 20
2.961056
 10
524.700833
 20
2.961056
 10
524.700833
 20
2.9435560196629433
 10
524.700833
 20
2.926056
  0
LWPOLYLINE
  5
1EA
330
17
100
AcDbEntity
  8
VISTA
100
AcDbPolyline
 90
41
 70
1
 10
524.361692
 20
2.821581
 10
524.3615025
 20
2.821805
 10
524.361313
 20
2.822029
 10
524.36099
 20
2.8230425
 10
524.360667
 20
2.824056
 10
524.360667
 20
2.858056
 10
524.360667
 20
2.892056
 10
524.36099
 20
2.893069
 10
524.361313
 20
2.894082
 10
524.3615025
 20
2.8943065
 10
524.361692
 20
2.894531
 10
524.3619165
 20
2.89472
 10
524.362141
 20
2.894909
 10
524.363154
 20
2.895232
 10
524.364167
 20
2.895555
 10
524.4722225
 20
2.895555
 10
524.580278
 20
2.895555
 10
524.581291
 20
2.895232
 10
524.582304
 20
2.894909
 10
524.5825285
 20
2.8947200000000004
 10
524.582753
 20
2.894531
 10
524.5829425
 20
2.8943065
 10
524.583132
 20
2.894082
 10
524.583455
 20
2.893069
 10
524.583778
 20
2.892056
 10
524.583778
 20
2.858056
 10
524.583778
 20
2.824056
 10
524.583455
 20
2.8230425
 10
524.583132
 20
2.822029
 10
524.5829425
 20
2.821805
 10
524.582753
 20
2.821581
 10
524.5825285
 20
2.8213915
 10
524.582304
 20
2.821202
 10
524.581291
 20
2.8208789999999997
 10
524.580278
 20
2.820556
 10
524.4722225
 20
2.820556
 10
524.364167
 20
2.820556
 10
524.363154
 20
2.820879
 10
524.362141
 20
2.821202
 10
524.3619165
 20
2.8213915000000003
 10
524.361692
 20
2.821581
  0
LWPOLYLINE
  5
1EB
330
17
100
AcDbEntity
  8
VISTA
100
AcDbPolyline
 90
9
 70
1
 10
524.384111
 20
2.850111
 10
524.3751110098901
 20
2.850111
 10
524.366111
 20
2.850111
 10
524.366111
 20
2.853110996703293
 10
524.366111
 20
2.856111
 10
524.3751109901099
 20
2.856111
 10
524.384111
 20
2.856111
 10
524.384111
 20
2.853111003296707
 10
524.384111
 20
2.850111
  0
LWPOLYLINE
  5
1EC
330
17
100
AcDbEntity
  8
VISTA
100
AcDbPolyline
 90
9
 70
1
 10
524.489722
 20
2.751611
 10
524.4722220196629
 20
2.751611
 10
524.454722
 20
2.751611
 10
524.454722
 20
2.769110980337057
 10
524.454722
 20
2.786611
 10
524.472221980337
 20
2.786611
 10
524.489722
 20
2.786611
 10
524.489722
 20
2.7691110196629434
 10
524.489722
 20
2.751611
  0
LWPOLYLINE
  5
1ED
330
17
100
AcDbEntity
  8
VISTA
100
AcDbPolyline
 90
41
 70
1
 10
524.150581
 20
2.644358
 10
524.1503915
 20
2.6445825
 10
524.150202
 20
2.644807
 10
524.149879
 20
2.64582
 10
524.149556
 20
2.646833
 10
524.149556
 20
2.680833
 10
524.149556
 20
2.714833
 10
524.149879
 20
2.7158465
 10
524.150202
 20
2.71686
 10
524.1503915
 20
2.717084
 10
524.150581
 20
2.717308
 10
524.1508055
 20
2.7174975
 10
524.15103
 20
2.717687
 10
524.152043
 20
2.71801
 10
524.153056
 20
2.718333
 10
524.2611115
 20
2.718333
 10
524.369167
 20
2.718333
 10
524.37018
 20
2.71801
 10
524.371193
 20
2.717687
 10
524.3714175
 20
2.7174975000000003
 10
524.371642
 20
2.717308
 10
524.3718315
 20
2.717084
 10
524.372021
 20
2.71686
 10
524.372344
 20
2.7158465
 10
524.372667
 20
2.714833
 10
524.372667
 20
2.680833
 10
524.372667
 20
2.646833
 10
524.372344
 20
2.64582
 10
524.372021
 20
2.644807
 10
524.3718315
 20
2.6445825
 10
524.371642
 20
2.644358
 10
524.3714175
 20
2.6441689999999998
 10
524.371193
 20
2.64398
 10
524.37018
 20
2.6436565
 10
524.369167
 20
2.643333
 10
524.2611115
 20
2.643333
 10
524.153056
 20
2.643333
 10
524.152043
 20
2.6436565
 10
524.15103
 20
2.64398
 10
524.1508055
 20
2.644169
 10
524.150581
 20
2.644358
  0
LWPOLYLINE
  5
1EE
330
17
100
AcDbEntity
  8
VISTA
100
AcDbPolyline
 90
9
 70
1
 10
524.173
 20
2.675667
 10
524.1640000098902
 20
2.675667
 10
524.155
 20
2.675667
 10
524.155
 20
2.678666996703293
 10
524.155
 20
2.681667
 10
524.1639999901099
 20
2.681667
 10
524.173
 20
2.681667
 10
524.173
 20
2.678667003296707
 10
524.173
 20
2.675667
  0
LWPOLYLINE
  5
1EF
330
17
100
AcDbEntity
  8
VISTA
100
AcDbPolyline
 90
9
 70
1
 10
524.278611
 20
2.577167
 10
524.261111019663
 20
2.577167
 10
524.243611
 20
2.577167
 10
524.243611
 20
2.5946669803370566
 10
524.243611
 20
2.612167
 10
524.2611109803371
 20
2.612167
 10
524.278611
 20
2.612167
 10
524.278611
 20
2.5946670196629436
 10
524.278611
 20
2.577167
  0
LWPOLYLINE
  5
1F0
330
17
100
AcDbEntity
  8
VISTA
100
AcDbPolyline
 90
41
 70
1
 10
523.93947
 20
2.467136
 10
523.9392805
 20
2.4673605
 10
523.939091
 20
2.467585
 10
523.938768
 20
2.468598
 10
523.938445
 20
2.469611
 10
523.938445
 20
2.503611
 10
523.938445
 20
2.537611
 10
523.938768
 20
2.538624
 10
523.939091
 20
2.539637
 10
523.9392805
 20
2.5398614999999998
 10
523.93947
 20
2.540086
 10
523.9396945
 20
2.5402755
 10
523.939919
 20
2.540465
 10
523.940932
 20
2.540788
 10
523.941945
 20
2.541111
 10
524.0500005
 20
2.541111
 10
524.158056
 20
2.541111
 10
524.159069
 20
2.540788
 10
524.160082
 20
2.540465
 10
524.1603065
 20
2.5402755000000004
 10
524.160531
 20
2.540086
 10
524.1607205
 20
2.5398614999999998
 10
524.16091
 20
2.539637
 10
524.161233
 20
2.538624
 10
524.161556
 20
2.537611
 10
524.161556
 20
2.503611
 10
524.161556
 20
2.469611
 10
524.161233
 20
2.468598
 10
524.16091
 20
2.467585
 10
524.1607205
 20
2.4673605
 10
524.160531
 20
2.467136
 10
524.1603065
 20
2.4669464999999997
 10
524.160082
 20
2.466757
 10
524.159069
 20
2.466434
 10
524.158056
 20
2.466111
 10
524.0500005
 20
2.466111
 10
523.941945
 20
2.466111
 10
523.940932
 20
2.466434
 10
523.939919
 20
2.466757
 10
523.9396945
 20
2.4669465
 10
523.93947
 20
2.467136
  0
LWPOLYLINE
  5
1F1
330
17
100
AcDbEntity
  8
VISTA
100
AcDbPolyline
 90
9
 70
1
 10
523.961889
 20
2.501222
 10
523.9528890098901
 20
2.501222
 10
523.943889
 20
2.501222
 10
523.943889
 20
2.504221996703293
 10
523.943889
 20
2.507222
 10
523.9528889901098
 20
2.507222
 10
523.961889
 20
2.507222
 10
523.961889
 20
2.504222003296707
 10
523.961889
 20
2.501222
  0
LWPOLYLINE
  5
1F2
330
17
100
AcDbEntity
  8
VISTA
100
AcDbPolyline
 90
9
 70
1
 10
524.0675
 20
2.402722
 10
524.0500000196629
 20
2.402722
 10
524.0325
 20
2.402722
 10
524.0325
 20
2.4202219803370566
 10
524.0325
 20
2.437722
 10
524.049999980337
 20
2.437722
 10
524.0675
 20
2.437722
 10
524.0675
 20
2.420222019662943
 10
524.0675
 20
2.402722
  0
LWPOLYLINE
  5
1F3
330
17
100
AcDbEntity
  8
VISTA
100
AcDbPolyline
 90
41
 70
1
 10
523.728359
 20
2.289914
 10
523.728169
 20
2.2901385
 10
523.727979
 20
2.290363
 10
523.727656
 20
2.291376
 10
523.727333
 20
2.292389
 10
523.727333
 20
2.326389
 10
523.727333
 20
2.360389
 10
523.727656
 20
2.361402
 10
523.727979
 20
2.362415
 10
523.728169
 20
2.3626395
 10
523.728359
 20
2.362864
 10
523.728583
 20
2.3630535
 10
523.728807
 20
2.363243
 10
523.72982
 20
2.363566
 10
523.730833
 20
2.363889
 10
523.8388885
 20
2.363889
 10
523.946944
 20
2.363889
 10
523.9479575
 20
2.363566
 10
523.948971
 20
2.363243
 10
523.949195
 20
2.3630535000000004
 10
523.949419
 20
2.362864
 10
523.9496085
 20
2.3626395
 10
523.949798
 20
2.362415
 10
523.950121
 20
2.361402
 10
523.950444
 20
2.360389
 10
523.950444
 20
2.326389
 10
523.950444
 20
2.292389
 10
523.950121
 20
2.291376
 10
523.949798
 20
2.290363
 10
523.9496085
 20
2.2901385
 10
523.949419
 20
2.289914
 10
523.949195
 20
2.2897244999999997
 10
523.948971
 20
2.289535
 10
523.9479575
 20
2.289212
 10
523.946944
 20
2.288889
 10
523.8388885
 20
2.288889
 10
523.730833
 20
2.288889
 10
523.72982
 20
2.289212
 10
523.728807
 20
2.289535
 10
523.728583
 20
2.2897245
 10
523.728359
 20
2.289914
  0
LWPOLYLINE
  5
1F4
330
17
100
AcDbEntity
  8
VISTA
100
AcDbPolyline
 90
9
 70
1
 10
523.750778
 20
2.326778
 10
523.7417780098901
 20
2.326778
 10
523.732778
 20
2.326778
 10
523.732778
 20
2.3297779967032928
 10
523.732778
 20
2.332778
 10
523.7417779901099
 20
2.332778
 10
523.750778
 20
2.332778
 10
523.750778
 20
2.329778003296707
 10
523.750778
 20
2.326778
  0
LWPOLYLINE
  5
1F5
330
17
100
AcDbEntity
  8
VISTA
100
AcDbPolyline
 90
9
 70
1
 10
523.856389
 20
2.228278
 10
523.8388890196629
 20
2.228278
 10
523.821389
 20
2.228278
 10
523.821389
 20
2.245777980337057
 10
523.821389
 20
2.263278
 10
523.8388889803371
 20
2.263278
 10
523.856389
 20
2.263278
 10
523.856389
 20
2.2457780196629433
 10
523.856389
 20
2.228278
  0
LWPOLYLINE
  5
1F6
330
17
100
AcDbEntity
  8
VISTA
100
AcDbPolyline
 90
41
 70
1
 10
523.517247
 20
2.112692
 10
523.5170575
 20
2.112916
 10
523.516868
 20
2.11314
 10
523.516545
 20
2.1141535
 10
523.516222
 20
2.115167
 10
523.516222
 20
2.149167
 10
523.516222
 20
2.183167
 10
523.516545
 20
2.18418
 10
523.516868
 20
2.185193
 10
523.5170575
 20
2.1854175
 10
523.517247
 20
2.185642
 10
523.5174715
 20
2.185831
 10
523.517696
 20
2.18602
 10
523.518709
 20
2.186343
 10
523.519722
 20
2.186666
 10
523.6277775
 20
2.186666
 10
523.735833
 20
2.186666
 10
523.736846
 20
2.1863430000000004
 10
523.737859
 20
2.18602
 10
523.7380835
 20
2.1858310000000003
 10
523.738308
 20
2.185642
 10
523.7384975
 20
2.1854175
 10
523.738687
 20
2.185193
 10
523.73901
 20
2.18418
 10
523.739333
 20
2.183167
 10
523.739333
 20
2.149167
 10
523.739333
 20
2.115167
 10
523.73901
 20
2.1141535
 10
523.738687
 20
2.11314
 10
523.7384975
 20
2.112916
 10
523.738308
 20
2.112692
 10
523.7380835
 20
2.1125024999999997
 10
523.737859
 20
2.112313
 10
523.736846
 20
2.11199
 10
523.735833
 20
2.111667
 10
523.6277775
 20
2.111667
 10
523.519722
 20
2.111667
 10
523.518709
 20
2.11199
 10
523.517696
 20
2.112313
 10
523.5174715
 20
2.1125025
 10
523.517247
 20
2.112692
  0
LWPOLYLINE
  5
1F7
330
17
100
AcDbEntity
  8
VISTA
100
AcDbPolyline
 90
9
 70
1
 10
523.539667
 20
2.152333
 10
523.5306670098901
 20
2.152333
 10
523.521667
 20
2.152333
 10
523.521667
 20
2.155332996703293
 10
523.521667
 20
2.158333
 10
523.5306669901099
 20
2.158333
 10
523.539667
 20
2.158333
 10
523.539667
 20
2.155333003296707
 10
523.539667
 20
2.152333
  0
LWPOLYLINE
  5
1F8
330
17
100
AcDbEntity
  8
VISTA
100
AcDbPolyline
 90
9
 70
1
 10
523.645278
 20
2.053833
 10
523.627778019663
 20
2.053833
 10
523.610278
 20
2.053833
 10
523.610278
 20
2.071332980337057
 10
523.610278
 20
2.088833
 10
523.6277779803371
 20
2.088833
 10
523.645278
 20
2.088833
 10
523.645278
 20
2.0713330196629434
 10
523.645278
 20
2.053833
  0
LWPOLYLINE
  5
1F9
330
17
100
AcDbEntity
  8
VISTA
100
AcDbPolyline
 90
41
 70
1
 10
523.306136
 20
1.93547
 10
523.3059465
 20
1.935694
 10
523.305757
 20
1.935918
 10
523.305434
 20
1.936931
 10
523.305111
 20
1.937944
 10
523.305111
 20
1.971944
 10
523.305111
 20
2.005944
 10
523.305434
 20
2.0069575
 10
523.305757
 20
2.007971
 10
523.3059465
 20
2.0081949999999997
 10
523.306136
 20
2.008419
 10
523.3063605
 20
2.0086085
 10
523.306585
 20
2.008798
 10
523.307598
 20
2.009121
 10
523.308611
 20
2.009444
 10
523.4166665
 20
2.009444
 10
523.524722
 20
2.009444
 10
523.525735
 20
2.009121
 10
523.526748
 20
2.008798
 10
523.5269725
 20
2.0086085000000002
 10
523.527197
 20
2.008419
 10
523.5273865
 20
2.0081949999999997
 10
523.527576
 20
2.007971
 10
523.527899
 20
2.0069575
 10
523.528222
 20
2.005944
 10
523.528222
 20
1.971944
 10
523.528222
 20
1.937944
 10
523.527899
 20
1.936931
 10
523.527576
 20
1.935918
 10
523.5273865
 20
1.935694
 10
523.527197
 20
1.93547
 10
523.5269725
 20
1.9352805
 10
523.526748
 20
1.935091
 10
523.525735
 20
1.9347675
 10
523.524722
 20
1.934444
 10
523.4166665
 20
1.934444
 10
523.308611
 20
1.934444
 10
523.307598
 20
1.9347675
 10
523.306585
 20
1.935091
 10
523.3063605
 20
1.9352805
 10
523.306136
 20
1.93547
  0
LWPOLYLINE
  5
1FA
330
17
100
AcDbEntity
  8
VISTA
100
AcDbPolyline
 90
9
 70
1
 10
523.328556
 20
1.977889
 10
523.3195555098906
 20
1.977889
 10
523.310555
 20
1.977889
 10
523.310555
 20
1.980888996703293
 10
523.310555
 20
1.983889
 10
523.3195554901093
 20
1.983889
 10
523.328556
 20
1.983889
 10
523.328556
 20
1.980889003296707
 10
523.328556
 20
1.977889
  0
LWPOLYLINE
  5
1FB
330
17
100
AcDbEntity
  8
VISTA
100
AcDbPolyline
 90
9
 70
1
 10
523.434167
 20
1.879389
 10
523.4166670196629
 20
1.879389
 10
523.399167
 20
1.879389
 10
523.399167
 20
1.8968889803370566
 10
523.399167
 20
1.914389
 10
523.416666980337
 20
1.914389
 10
523.434167
 20
1.914389
 10
523.434167
 20
1.8968890196629433
 10
523.434167
 20
1.879389
  0
LWPOLYLINE
  5
1FC
330
17
100
AcDbEntity
  8
VISTA
100
AcDbPolyline
 90
41
 70
1
 10
523.095025
 20
1.758247
 10
523.0948355
 20
1.7584715
 10
523.094646
 20
1.758696
 10
523.094323
 20
1.759709
 10
523.094
 20
1.760722
 10
523.094
 20
1.794722
 10
523.094
 20
1.828722
 10
523.094323
 20
1.829735
 10
523.094646
 20
1.830748
 10
523.0948355
 20
1.8309725
 10
523.095025
 20
1.831197
 10
523.0952495
 20
1.8313865
 10
523.095474
 20
1.831576
 10
523.096487
 20
1.831899
 10
523.0975
 20
1.832222
 10
523.2055555
 20
1.832222
 10
523.313611
 20
1.832222
 10
523.314624
 20
1.8318990000000002
 10
523.315637
 20
1.831576
 10
523.3158615
 20
1.8313865
 10
523.316086
 20
1.831197
 10
523.3162755
 20
1.8309725
 10
523.316465
 20
1.830748
 10
523.316788
 20
1.829735
 10
523.317111
 20
1.828722
 10
523.317111
 20
1.794722
 10
523.317111
 20
1.760722
 10
523.316788
 20
1.759709
 10
523.316465
 20
1.758696
 10
523.3162755
 20
1.7584715
 10
523.316086
 20
1.758247
 10
523.3158615
 20
1.7580574999999998
 10
523.315637
 20
1.757868
 10
523.314624
 20
1.757545
 10
523.313611
 20
1.757222
 10
523.2055555
 20
1.757222
 10
523.0975
 20
1.757222
 10
523.096487
 20
1.7575450000000001
 10
523.095474
 20
1.757868
 10
523.0952495
 20
1.7580575
 10
523.095025
 20
1.758247
  0
LWPOLYLINE
  5
1FD
330
17
100
AcDbEntity
  8
VISTA
100
AcDbPolyline
 90
9
 70
1
 10
523.117445
 20
1.803444
 10
523.1084445098907
 20
1.803444
 10
523.099444
 20
1.803444
 10
523.099444
 20
1.806443996703293
 10
523.099444
 20
1.809444
 10
523.1084444901094
 20
1.809444
 10
523.117445
 20
1.809444
 10
523.117445
 20
1.806444003296707
 10
523.117445
 20
1.803444
  0
LWPOLYLINE
  5
1FE
330
17
100
AcDbEntity
  8
VISTA
100
AcDbPolyline
 90
9
 70
1
 10
523.223055
 20
1.704944
 10
523.2055555196624
 20
1.704944
 10
523.188056
 20
1.704944
 10
523.188056
 20
1.7224439803370566
 10
523.188056
 20
1.739944
 10
523.2055554803376
 20
1.739944
 10
523.223055
 20
1.739944
 10
523.223055
 20
1.7224440196629434
 10
523.223055
 20
1.704944
  0
LWPOLYLINE
  5
1FF
330
17
100
AcDbEntity
  8
VISTA
100
AcDbPolyline
 90
41
 70
1
 10
522.883914
 20
1.581025
 10
522.8837245
 20
1.5812495
 10
522.883535
 20
1.581474
 10
522.883212
 20
1.582487
 10
522.882889
 20
1.5835
 10
522.882889
 20
1.6175
 10
522.882889
 20
1.6515
 10
522.883212
 20
1.652513
 10
522.883535
 20
1.653526
 10
522.8837245
 20
1.6537505
 10
522.883914
 20
1.653975
 10
522.8841385
 20
1.6541645
 10
522.884363
 20
1.654354
 10
522.885376
 20
1.654677
 10
522.886389
 20
1.655
 10
522.9944445
 20
1.655
 10
523.1025
 20
1.655
 10
523.103513
 20
1.6546770000000002
 10
523.104526
 20
1.654354
 10
523.1047505
 20
1.6541645
 10
523.104975
 20
1.653975
 10
523.1051645
 20
1.6537505
 10
523.105354
 20
1.653526
 10
523.105677
 20
1.652513
 10
523.106
 20
1.6515
 10
523.106
 20
1.6175
 10
523.106
 20
1.5835
 10
523.105677
 20
1.582487
 10
523.105354
 20
1.581474
 10
523.1051645
 20
1.5812495
 10
523.104975
 20
1.581025
 10
523.1047505
 20
1.5808354999999998
 10
523.104526
 20
1.580646
 10
523.103513
 20
1.580323
 10
523.1025
 20
1.58
 10
522.9944445
 20
1.58
 10
522.886389
 20
1.58
 10
522.885376
 20
1.5803230000000001
 10
522.884363
 20
1.580646
 10
522.8841385
 20
1.5808355
 10
522.883914
 20
1.581025
  0
LWPOLYLINE
  5
200
330
17
100
AcDbEntity
  8
VISTA
100
AcDbPolyline
 90
9
 70
1
 10
522.906333
 20
1.629
 10
522.8973330098901
 20
1.629
 10
522.888333
 20
1.629
 10
522.888333
 20
1.631999996703293
 10
522.888333
 20
1.635
 10
522.8973329901099
 20
1.635
 10
522.906333
 20
1.635
 10
522.906333
 20
1.632000003296707
 10
522.906333
 20
1.629
  0
LWPOLYLINE
  5
201
330
17
100
AcDbEntity
  8
VISTA
100
AcDbPolyline
 90
9
 70
1
 10
523.011944
 20
1.5305
 10
522.994444019663
 20
1.5305
 10
522.976944
 20
1.5305
 10
522.976944
 20
1.5479999803370565
 10
522.976944
 20
1.5655
 10
522.9944439803371
 20
1.5655
 10
523.011944
 20
1.5655
 10
523.011944
 20
1.5480000196629433
 10
523.011944
 20
1.5305
  0
LWPOLYLINE
  5
202
330
17
100
AcDbEntity
  8
VISTA
100
AcDbPolyline
 90
41
 70
1
 10
522.672803
 20
1.403803
 10
522.6726135
 20
1.4040275
 10
522.672424
 20
1.404252
 10
522.672101
 20
1.405265
 10
522.671778
 20
1.406278
 10
522.671778
 20
1.440278
 10
522.671778
 20
1.474278
 10
522.672101
 20
1.475291
 10
522.672424
 20
1.476304
 10
522.6726135
 20
1.4765285
 10
522.672803
 20
1.476753
 10
522.6730275
 20
1.4769424999999998
 10
522.673252
 20
1.477132
 10
522.674265
 20
1.477455
 10
522.675278
 20
1.477778
 10
522.7833335
 20
1.477778
 10
522.891389
 20
1.477778
 10
522.892402
 20
1.477455
 10
522.893415
 20
1.477132
 10
522.8936395
 20
1.4769425
 10
522.893864
 20
1.476753
 10
522.8940535
 20
1.4765285
 10
522.894243
 20
1.476304
 10
522.894566
 20
1.475291
 10
522.894889
 20
1.474278
 10
522.894889
 20
1.440278
 10
522.894889
 20
1.406278
 10
522.894566
 20
1.405265
 10
522.894243
 20
1.404252
 10
522.8940535
 20
1.4040275
 10
522.893864
 20
1.403803
 10
522.8936395
 20
1.4036134999999998
 10
522.893415
 20
1.403424
 10
522.892402
 20
1.403101
 10
522.891389
 20
1.402778
 10
522.7833335
 20
1.402778
 10
522.675278
 20
1.402778
 10
522.674265
 20
1.4031010000000002
 10
522.673252
 20
1.403424
 10
522.6730275
 20
1.4036135
 10
522.672803
 20
1.403803
  0
LWPOLYLINE
  5
203
330
17
100
AcDbEntity
  8
VISTA
100
AcDbPolyline
 90
9
 70
1
 10
522.695222
 20
1.454556
 10
522.6862220098901
 20
1.454556
 10
522.677222
 20
1.454556
 10
522.677222
 20
1.457555996703293
 10
522.677222
 20
1.460556
 10
522.6862219901099
 20
1.460556
 10
522.695222
 20
1.460556
 10
522.695222
 20
1.457556003296707
 10
522.695222
 20
1.454556
  0
LWPOLYLINE
  5
204
330
17
100
AcDbEntity
  8
VISTA
100
AcDbPolyline
 90
9
 70
1
 10
522.800833
 20
1.356055
 10
522.7833330196629
 20
1.356055
 10
522.765833
 20
1.356055
 10
522.765833
 20
1.3735554803364949
 10
522.765833
 20
1.391056
 10
522.783332980337
 20
1.391056
 10
522.800833
 20
1.391056
 10
522.800833
 20
1.3735555196635052
 10
522.800833
 20
1.356055
  0
LWPOLYLINE
  5
205
330
17
100
AcDbEntity
  8
VISTA
100
AcDbPolyline
 90
41
 70
1
 10
522.461692
 20
1.226581
 10
522.4615025
 20
1.226805
 10
522.461313
 20
1.227029
 10
522.46099
 20
1.2280425
 10
522.460667
 20
1.229056
 10
522.460667
 20
1.263056
 10
522.460667
 20
1.297056
 10
522.46099
 20
1.298069
 10
522.461313
 20
1.299082
 10
522.4615025
 20
1.299306
 10
522.461692
 20
1.29953
 10
522.4619165
 20
1.2997195
 10
522.462141
 20
1.299909
 10
522.463154
 20
1.3002325
 10
522.464167
 20
1.300556
 10
522.5722225
 20
1.300556
 10
522.680278
 20
1.300556
 10
522.681291
 20
1.3002325000000001
 10
522.682304
 20
1.299909
 10
522.6825285
 20
1.2997195000000001
 10
522.682753
 20
1.29953
 10
522.6829425
 20
1.299306
 10
522.683132
 20
1.299082
 10
522.683455
 20
1.298069
 10
522.683778
 20
1.297056
 10
522.683778
 20
1.263056
 10
522.683778
 20
1.229056
 10
522.683455
 20
1.2280425
 10
522.683132
 20
1.227029
 10
522.6829425
 20
1.226805
 10
522.682753
 20
1.226581
 10
522.6825285
 20
1.2263914999999999
 10
522.682304
 20
1.226202
 10
522.681291
 20
1.225879
 10
522.680278
 20
1.225556
 10
522.5722225
 20
1.225556
 10
522.464167
 20
1.225556
 10
522.463154
 20
1.2258790000000002
 10
522.462141
 20
1.226202
 10
522.4619165
 20
1.2263915
 10
522.461692
 20
1.226581
  0
LWPOLYLINE
  5
206
330
17
100
AcDbEntity
  8
VISTA
100
AcDbPolyline
 90
9
 70
1
 10
522.484111
 20
1.280111
 10
522.4751110098902
 20
1.280111
 10
522.466111
 20
1.280111
 10
522.466111
 20
1.283110996703293
 10
522.466111
 20
1.286111
 10
522.4751109901099
 20
1.286111
 10
522.484111
 20
1.286111
 10
522.484111
 20
1.283111003296707
 10
522.484111
 20
1.280111
  0
LWPOLYLINE
  5
207
330
17
100
AcDbEntity
  8
VISTA
100
AcDbPolyline
 90
9
 70
1
 10
522.589722
 20
1.181611
 10
522.572222019663
 20
1.181611
 10
522.554722
 20
1.181611
 10
522.554722
 20
1.1991109803370565
 10
522.554722
 20
1.216611
 10
522.5722219803371
 20
1.216611
 10
522.589722
 20
1.216611
 10
522.589722
 20
1.1991110196629435
 10
522.589722
 20
1.181611
  0
LWPOLYLINE
  5
208
330
17
100
AcDbEntity
  8
VISTA
100
AcDbPolyline
 90
41
 70
1
 10
522.250581
 20
1.049358
 10
522.2503915
 20
1.0495824999999999
 10
522.250202
 20
1.049807
 10
522.249879
 20
1.0508199999999999
 10
522.249556
 20
1.051833
 10
522.249556
 20
1.085833
 10
522.249556
 20
1.119833
 10
522.249879
 20
1.1208465
 10
522.250202
 20
1.12186
 10
522.2503915
 20
1.122084
 10
522.250581
 20
1.122308
 10
522.250805
 20
1.1224975
 10
522.251029
 20
1.122687
 10
522.2520425
 20
1.1230099999999998
 10
522.253056
 20
1.123333
 10
522.3611115
 20
1.123333
 10
522.469167
 20
1.123333
 10
522.47018
 20
1.12301
 10
522.471193
 20
1.122687
 10
522.4714175
 20
1.1224975000000001
 10
522.471642
 20
1.122308
 10
522.4718315
 20
1.122084
 10
522.472021
 20
1.12186
 10
522.472344
 20
1.1208465
 10
522.472667
 20
1.119833
 10
522.472667
 20
1.085833
 10
522.472667
 20
1.051833
 10
522.472344
 20
1.0508199999999999
 10
522.472021
 20
1.049807
 10
522.4718315
 20
1.0495824999999999
 10
522.471642
 20
1.049358
 10
522.4714175
 20
1.049169
 10
522.471193
 20
1.04898
 10
522.47018
 20
1.0486564999999999
 10
522.469167
 20
1.048333
 10
522.3611115
 20
1.048333
 10
522.253056
 20
1.048333
 10
522.2520425
 20
1.0486565
 10
522.251029
 20
1.04898
 10
522.250805
 20
1.049169
 10
522.250581
 20
1.049358
  0
LWPOLYLINE
  5
209
330
17
100
AcDbEntity
  8
VISTA
100
AcDbPolyline
 90
9
 70
1
 10
522.273
 20
1.105667
 10
522.2640000098901
 20
1.105667
 10
522.255
 20
1.105667
 10
522.255
 20
1.108666996703293
 10
522.255
 20
1.111667
 10
522.2639999901098
 20
1.111667
 10
522.273
 20
1.111667
 10
522.273
 20
1.108667003296707
 10
522.273
 20
1.105667
  0
LWPOLYLINE
  5
20A
330
17
100
AcDbEntity
  8
VISTA
100
AcDbPolyline
 90
9
 70
1
 10
522.378611
 20
1.007167
 10
522.361111019663
 20
1.007167
 10
522.343611
 20
1.007167
 10
522.343611
 20
1.0246669803370565
 10
522.343611
 20
1.042167
 10
522.361110980337
 20
1.042167
 10
522.378611
 20
1.042167
 10
522.378611
 20
1.0246670196629435
 10
522.378611
 20
1.007167
  0
LWPOLYLINE
  5
20B
330
17
100
AcDbEntity
  8
VISTA
100
AcDbPolyline
 90
41
 70
1
 10
522.03947
 20
0.872136
 10
522.0392805
 20
0.8723605
 10
522.039091
 20
0.872585
 10
522.038768
 20
0.873598
 10
522.038445
 20
0.874611
 10
522.038445
 20
0.908611
 10
522.038445
 20
0.942611
 10
522.038768
 20
0.9436239999999999
 10
522.039091
 20
0.944637
 10
522.0392805
 20
0.9448614999999999
 10
522.03947
 20
0.945086
 10
522.039694
 20
0.9452754999999999
 10
522.039918
 20
0.945465
 10
522.0409315
 20
0.945788
 10
522.041945
 20
0.946111
 10
522.1500005
 20
0.946111
 10
522.258056
 20
0.946111
 10
522.259069
 20
0.9457880000000001
 10
522.260082
 20
0.945465
 10
522.260306
 20
0.9452755
 10
522.26053
 20
0.945086
 10
522.26072
 20
0.9448614999999999
 10
522.26091
 20
0.944637
 10
522.261233
 20
0.9436239999999999
 10
522.261556
 20
0.942611
 10
522.261556
 20
0.908611
 10
522.261556
 20
0.874611
 10
522.261233
 20
0.873598
 10
522.26091
 20
0.872585
 10
522.26072
 20
0.8723605
 10
522.26053
 20
0.872136
 10
522.260306
 20
0.8719465
 10
522.260082
 20
0.871757
 10
522.259069
 20
0.8714339999999999
 10
522.258056
 20
0.871111
 10
522.1500005
 20
0.871111
 10
522.041945
 20
0.871111
 10
522.0409315
 20
0.871434
 10
522.039918
 20
0.871757
 10
522.039694
 20
0.8719465000000001
 10
522.03947
 20
0.872136
  0
LWPOLYLINE
  5
20C
330
17
100
AcDbEntity
  8
VISTA
100
AcDbPolyline
 90
9
 70
1
 10
522.061889
 20
0.931222
 10
522.0528890098901
 20
0.931222
 10
522.043889
 20
0.931222
 10
522.043889
 20
0.9342219967032931
 10
522.043889
 20
0.937222
 10
522.0528889901099
 20
0.937222
 10
522.061889
 20
0.937222
 10
522.061889
 20
0.9342220032967069
 10
522.061889
 20
0.931222
  0
LWPOLYLINE
  5
20D
330
17
100
AcDbEntity
  8
VISTA
100
AcDbPolyline
 90
9
 70
1
 10
522.1675
 20
0.832722
 10
522.1500000196629
 20
0.832722
 10
522.1325
 20
0.832722
 10
522.1325
 20
0.8502219803370565
 10
522.1325
 20
0.867722
 10
522.149999980337
 20
0.867722
 10
522.1675
 20
0.867722
 10
522.1675
 20
0.8502220196629434
 10
522.1675
 20
0.832722
  0
LWPOLYLINE
  5
20E
330
17
100
AcDbEntity
  8
VISTA
100
AcDbPolyline
 90
41
 70
1
 10
521.828359
 20
0.694914
 10
521.8281695
 20
0.6951385
 10
521.82798
 20
0.695363
 10
521.8276565
 20
0.696376
 10
521.827333
 20
0.697389
 10
521.827333
 20
0.731389
 10
521.827333
 20
0.765389
 10
521.8276565
 20
0.7664019999999999
 10
521.82798
 20
0.767415
 10
521.8281695
 20
0.7676394999999999
 10
521.828359
 20
0.767864
 10
521.828583
 20
0.7680535
 10
521.828807
 20
0.768243
 10
521.82982
 20
0.768566
 10
521.830833
 20
0.768889
 10
521.9388885
 20
0.768889
 10
522.046944
 20
0.768889
 10
522.0479575
 20
0.7685660000000001
 10
522.048971
 20
0.768243
 10
522.049195
 20
0.7680535000000001
 10
522.049419
 20
0.767864
 10
522.0496085
 20
0.7676394999999999
 10
522.049798
 20
0.767415
 10
522.050121
 20
0.7664019999999999
 10
522.050444
 20
0.765389
 10
522.050444
 20
0.731389
 10
522.050444
 20
0.697389
 10
522.050121
 20
0.696376
 10
522.049798
 20
0.695363
 10
522.0496085
 20
0.6951385
 10
522.049419
 20
0.694914
 10
522.049195
 20
0.6947245
 10
522.048971
 20
0.694535
 10
522.0479575
 20
0.6942119999999999
 10
522.046944
 20
0.693889
 10
521.9388885
 20
0.693889
 10
521.830833
 20
0.693889
 10
521.82982
 20
0.694212
 10
521.828807
 20
0.694535
 10
521.828583
 20
0.6947245000000001
 10
521.828359
 20
0.694914
  0
LWPOLYLINE
  5
20F
330
17
100
AcDbEntity
  8
VISTA
100
AcDbPolyline
 90
9
 70
1
 10
521.850778
 20
0.756778
 10
521.8417780098902
 20
0.756778
 10
521.832778
 20
0.756778
 10
521.832778
 20
0.759777996703293
 10
521.832778
 20
0.762778
 10
521.8417779901099
 20
0.762778
 10
521.850778
 20
0.762778
 10
521.850778
 20
0.7597780032967069
 10
521.850778
 20
0.756778
  0
LWPOLYLINE
  5
210
330
17
100
AcDbEntity
  8
VISTA
100
AcDbPolyline
 90
9
 70
1
 10
521.956389
 20
0.658278
 10
521.938889019663
 20
0.658278
 10
521.921389
 20
0.658278
 10
521.921389
 20
0.6757779803370565
 10
521.921389
 20
0.693278
 10
521.9388889803371
 20
0.693278
 10
521.956389
 20
0.693278
 10
521.956389
 20
0.6757780196629435
 10
521.956389
 20
0.658278
  0
LWPOLYLINE
  5
211
330
17
100
AcDbEntity
  8
VISTA
100
AcDbPolyline
 90
41
 70
1
 10
521.617247
 20
0.517692
 10
521.6170575
 20
0.517916
 10
521.616868
 20
0.51814
 10
521.616545
 20
0.5191535
 10
521.616222
 20
0.520167
 10
521.616222
 20
0.554167
 10
521.616222
 20
0.588167
 10
521.616545
 20
0.5891799999999999
 10
521.616868
 20
0.590193
 10
521.6170575
 20
0.5904174999999999
 10
521.617247
 20
0.590642
 10
521.6174715
 20
0.5908315
 10
521.617696
 20
0.591021
 10
521.618709
 20
0.591344
 10
521.619722
 20
0.591667
 10
521.7277775
 20
0.591667
 10
521.835833
 20
0.591667
 10
521.8368465
 20
0.5913440000000001
 10
521.83786
 20
0.591021
 10
521.838084
 20
0.5908315000000001
 10
521.838308
 20
0.590642
 10
521.8384975
 20
0.5904174999999999
 10
521.838687
 20
0.590193
 10
521.83901
 20
0.5891799999999999
 10
521.839333
 20
0.588167
 10
521.839333
 20
0.554167
 10
521.839333
 20
0.520167
 10
521.83901
 20
0.5191535
 10
521.838687
 20
0.51814
 10
521.8384975
 20
0.517916
 10
521.838308
 20
0.517692
 10
521.838084
 20
0.5175025
 10
521.83786
 20
0.517313
 10
521.8368465
 20
0.51699
 10
521.835833
 20
0.516667
 10
521.7277775
 20
0.516667
 10
521.619722
 20
0.516667
 10
521.618709
 20
0.5169900000000001
 10
521.617696
 20
0.517313
 10
521.6174715
 20
0.5175025000000001
 10
521.617247
 20
0.517692
  0
LWPOLYLINE
  5
212
330
17
100
AcDbEntity
  8
VISTA
100
AcDbPolyline
 90
9
 70
1
 10
521.639667
 20
0.582333
 10
521.6306670098901
 20
0.582333
 10
521.621667
 20
0.582333
 10
521.621667
 20
0.5853329967032931
 10
521.621667
 20
0.588333
 10
521.6306669901098
 20
0.588333
 10
521.639667
 20
0.588333
 10
521.639667
 20
0.5853330032967069
 10
521.639667
 20
0.582333
  0
LWPOLYLINE
  5
213
330
17
100
AcDbEntity
  8
VISTA
100
AcDbPolyline
 90
9
 70
1
 10
521.745278
 20
0.483833
 10
521.727778019663
 20
0.483833
 10
521.710278
 20
0.483833
 10
521.710278
 20
0.5013329803370565
 10
521.710278
 20
0.518833
 10
521.727777980337
 20
0.518833
 10
521.745278
 20
0.518833
 10
521.745278
 20
0.5013330196629434
 10
521.745278
 20
0.483833
  0
LWPOLYLINE
  5
214
330
17
100
AcDbEntity
  8
VISTA
100
AcDbPolyline
 90
41
 70
1
 10
521.406136
 20
0.34047
 10
521.4059465
 20
0.340694
 10
521.405757
 20
0.340918
 10
521.405434
 20
0.341931
 10
521.405111
 20
0.342944
 10
521.405111
 20
0.37694399999999995
 10
521.405111
 20
0.410944
 10
521.405434
 20
0.4119575
 10
521.405757
 20
0.412971
 10
521.4059465
 20
0.413195
 10
521.406136
 20
0.413419
 10
521.4063605
 20
0.4136085
 10
521.406585
 20
0.413798
 10
521.407598
 20
0.41412099999999996
 10
521.408611
 20
0.414444
 10
521.5166665
 20
0.414444
 10
521.624722
 20
0.414444
 10
521.625735
 20
0.414121
 10
521.626748
 20
0.413798
 10
521.6269725
 20
0.4136085
 10
521.627197
 20
0.413419
 10
521.6273865000001
 20
0.413195
 10
521.627576
 20
0.412971
 10
521.627899
 20
0.4119575
 10
521.628222
 20
0.410944
 10
521.628222
 20
0.37694399999999995
 10
521.628222
 20
0.342944
 10
521.627899
 20
0.341931
 10
521.627576
 20
0.340918
 10
521.6273865
 20
0.340694
 10
521.627197
 20
0.34047
 10
521.6269725
 20
0.3402805
 10
521.626748
 20
0.340091
 10
521.625735
 20
0.3397675
 10
521.624722
 20
0.339444
 10
521.5166665
 20
0.339444
 10
521.408611
 20
0.339444
 10
521.407598
 20
0.3397675
 10
521.406585
 20
0.340091
 10
521.4063605
 20
0.3402805
 10
521.406136
 20
0.34047
  0
LWPOLYLINE
  5
215
330
17
100
AcDbEntity
  8
VISTA
100
AcDbPolyline
 90
9
 70
1
 10
521.428555
 20
0.407889
 10
521.4195555098896
 20
0.407889
 10
521.410556
 20
0.407889
 10
521.410556
 20
0.4108889967032931
 10
521.410556
 20
0.413889
 10
521.4195554901104
 20
0.413889
 10
521.428555
 20
0.413889
 10
521.428555
 20
0.4108890032967069
 10
521.428555
 20
0.407889
  0
LWPOLYLINE
  5
216
330
17
100
AcDbEntity
  8
VISTA
100
AcDbPolyline
 90
9
 70
1
 10
521.534167
 20
0.309389
 10
521.5166670196629
 20
0.309389
 10
521.4991669999999
 20
0.309389
 10
521.4991669999999
 20
0.32688898033705655
 10
521.4991669999999
 20
0.344389
 10
521.516666980337
 20
0.344389
 10
521.534167
 20
0.344389
 10
521.534167
 20
0.3268890196629435
 10
521.534167
 20
0.309389
  0
LWPOLYLINE
  5
217
330
17
100
AcDbEntity
  8
VISTA
100
AcDbPolyline
 90
41
 70
1
 10
521.195025
 20
0.163247
 10
521.1948355
 20
0.1634715
 10
521.194646
 20
0.163696
 10
521.194323
 20
0.164709
 10
521.194
 20
0.165722
 10
521.194
 20
0.19972199999999996
 10
521.194
 20
0.233722
 10
521.194323
 20
0.234735
 10
521.194646
 20
0.235748
 10
521.1948355
 20
0.2359725
 10
521.195025
 20
0.236197
 10
521.1952495
 20
0.2363865
 10
521.195474
 20
0.236576
 10
521.196487
 20
0.236899
 10
521.1975
 20
0.237222
 10
521.3055555
 20
0.237222
 10
521.413611
 20
0.237222
 10
521.414624
 20
0.236899
 10
521.415637
 20
0.236576
 10
521.4158615
 20
0.2363865
 10
521.416086
 20
0.236197
 10
521.4162755
 20
0.2359725
 10
521.416465
 20
0.235748
 10
521.416788
 20
0.234735
 10
521.417111
 20
0.233722
 10
521.417111
 20
0.19972199999999996
 10
521.417111
 20
0.165722
 10
521.416788
 20
0.164709
 10
521.416465
 20
0.163696
 10
521.4162755
 20
0.1634715
 10
521.416086
 20
0.163247
 10
521.4158615
 20
0.1630575
 10
521.415637
 20
0.162868
 10
521.414624
 20
0.162545
 10
521.413611
 20
0.162222
 10
521.3055555
 20
0.162222
 10
521.1975
 20
0.162222
 10
521.196487
 20
0.16254500000000002
 10
521.195474
 20
0.162868
 10
521.1952495
 20
0.16305750000000002
 10
521.195025
 20
0.163247
  0
LWPOLYLINE
  5
218
330
17
100
AcDbEntity
  8
VISTA
100
AcDbPolyline
 90
9
 70
1
 10
521.217444
 20
0.233444
 10
521.2084445098895
 20
0.233444
 10
521.199445
 20
0.233444
 10
521.199445
 20
0.23644399670329308
 10
521.199445
 20
0.239444
 10
521.2084444901104
 20
0.239444
 10
521.217444
 20
0.239444
 10
521.217444
 20
0.23644400329670692
 10
521.217444
 20
0.233444
  0
LWPOLYLINE
  5
219
330
17
100
AcDbEntity
  8
VISTA
100
AcDbPolyline
 90
9
 70
1
 10
521.323056
 20
0.134944
 10
521.305556019663
 20
0.134944
 10
521.288056
 20
0.134944
 10
521.288056
 20
0.15244398033705656
 10
521.288056
 20
0.169944
 10
521.3055559803371
 20
0.169944
 10
521.323056
 20
0.169944
 10
521.323056
 20
0.15244401966294346
 10
521.323056
 20
0.134944
  0
LWPOLYLINE
  5
21A
330
17
100
AcDbEntity
  8
VISTA
100
AcDbPolyline
 90
9
 70
1
 10
525.0195
 20
3.23
 10
525.0070000130208
 20
3.2299640000375
 10
524.9945
 20
3.229928
 10
524.9945
 20
3.2399279895833226
 10
524.9945
 20
3.249928
 10
525.0069999869792
 20
3.2499639999625
 10
525.0195
 20
3.25
 10
525.0195
 20
3.2400000104166775
 10
525.0195
 20
3.23
  0
LWPOLYLINE
  5
21B
330
17
100
AcDbEntity
  8
VISTA
100
AcDbPolyline
 90
13
 70
1
 10
524.798094
 20
3.250205
 10
524.797889
 20
3.2507
 10
524.797889
 20
3.2543
 10
524.798094
 20
3.254795
 10
524.798589
 20
3.255
 10
524.819189
 20
3.255
 10
524.819684
 20
3.254795
 10
524.819889
 20
3.2543
 10
524.819889
 20
3.2507
 10
524.819684
 20
3.250205
 10
524.819189
 20
3.25
 10
524.798589
 20
3.25
 10
524.798094
 20
3.250205
  0
LWPOLYLINE
  5
21C
330
17
100
AcDbEntity
  8
VISTA
100
AcDbPolyline
 90
13
 70
1
 10
524.586983
 20
3.072983
 10
524.586778
 20
3.073478
 10
524.586778
 20
3.077078
 10
524.586983
 20
3.077573
 10
524.587478
 20
3.077778
 10
524.608078
 20
3.077778
 10
524.608573
 20
3.077573
 10
524.608778
 20
3.077078
 10
524.608778
 20
3.073478
 10
524.608573
 20
3.072983
 10
524.608078
 20
3.072778
 10
524.587478
 20
3.072778
 10
524.586983
 20
3.072983
  0
LWPOLYLINE
  5
21D
330
17
100
AcDbEntity
  8
VISTA
100
AcDbPolyline
 90
13
 70
1
 10
524.375872
 20
2.895761
 10
524.375667
 20
2.896255
 10
524.375667
 20
2.899856
 10
524.375872
 20
2.900351
 10
524.376367
 20
2.900556
 10
524.396967
 20
2.900556
 10
524.397462
 20
2.900351
 10
524.397667
 20
2.899856
 10
524.397667
 20
2.896255
 10
524.397462
 20
2.895761
 10
524.396967
 20
2.895555
 10
524.376367
 20
2.895555
 10
524.375872
 20
2.895761
  0
LWPOLYLINE
  5
21E
330
17
100
AcDbEntity
  8
VISTA
100
AcDbPolyline
 90
13
 70
1
 10
524.164761
 20
2.718538
 10
524.164556
 20
2.719033
 10
524.164556
 20
2.722633
 10
524.164761
 20
2.723128
 10
524.165256
 20
2.723333
 10
524.185856
 20
2.723333
 10
524.186351
 20
2.723128
 10
524.186556
 20
2.722633
 10
524.186556
 20
2.719033
 10
524.186351
 20
2.718538
 10
524.185856
 20
2.718333
 10
524.165256
 20
2.718333
 10
524.164761
 20
2.718538
  0
LWPOLYLINE
  5
21F
330
17
100
AcDbEntity
  8
VISTA
100
AcDbPolyline
 90
13
 70
1
 10
523.95365
 20
2.541316
 10
523.953445
 20
2.541811
 10
523.953445
 20
2.545411
 10
523.95365
 20
2.545906
 10
523.954145
 20
2.546111
 10
523.974745
 20
2.546111
 10
523.97524
 20
2.545906
 10
523.975445
 20
2.545411
 10
523.975445
 20
2.541811
 10
523.97524
 20
2.541316
 10
523.974745
 20
2.541111
 10
523.954145
 20
2.541111
 10
523.95365
 20
2.541316
  0
LWPOLYLINE
  5
220
330
17
100
AcDbEntity
  8
VISTA
100
AcDbPolyline
 90
13
 70
1
 10
523.742538
 20
2.364094
 10
523.742333
 20
2.364589
 10
523.742333
 20
2.368189
 10
523.742538
 20
2.368684
 10
523.743033
 20
2.368889
 10
523.763633
 20
2.368889
 10
523.764128
 20
2.368684
 10
523.764333
 20
2.368189
 10
523.764333
 20
2.364589
 10
523.764128
 20
2.364094
 10
523.763633
 20
2.363889
 10
523.743033
 20
2.363889
 10
523.742538
 20
2.364094
  0
LWPOLYLINE
  5
221
330
17
100
AcDbEntity
  8
VISTA
100
AcDbPolyline
 90
13
 70
1
 10
523.531427
 20
2.186872
 10
523.531222
 20
2.187366
 10
523.531222
 20
2.190967
 10
523.531427
 20
2.191462
 10
523.531922
 20
2.191667
 10
523.552522
 20
2.191667
 10
523.553017
 20
2.191462
 10
523.553222
 20
2.190967
 10
523.553222
 20
2.187366
 10
523.553017
 20
2.186872
 10
523.552522
 20
2.186666
 10
523.531922
 20
2.186666
 10
523.531427
 20
2.186872
  0
LWPOLYLINE
  5
222
330
17
100
AcDbEntity
  8
VISTA
100
AcDbPolyline
 90
13
 70
1
 10
523.320316
 20
2.00965
 10
523.320111
 20
2.010144
 10
523.320111
 20
2.013745
 10
523.320316
 20
2.01424
 10
523.320811
 20
2.014445
 10
523.341411
 20
2.014445
 10
523.341906
 20
2.01424
 10
523.342111
 20
2.013745
 10
523.342111
 20
2.010144
 10
523.341906
 20
2.00965
 10
523.341411
 20
2.009444
 10
523.320811
 20
2.009444
 10
523.320316
 20
2.00965
  0
LWPOLYLINE
  5
223
330
17
100
AcDbEntity
  8
VISTA
100
AcDbPolyline
 90
13
 70
1
 10
523.109205
 20
1.832427
 10
523.109
 20
1.832922
 10
523.109
 20
1.836522
 10
523.109205
 20
1.837017
 10
523.1097
 20
1.837222
 10
523.1303
 20
1.837222
 10
523.130795
 20
1.837017
 10
523.131
 20
1.836522
 10
523.131
 20
1.832922
 10
523.130795
 20
1.832427
 10
523.1303
 20
1.832222
 10
523.1097
 20
1.832222
 10
523.109205
 20
1.832427
  0
LWPOLYLINE
  5
224
330
17
100
AcDbEntity
  8
VISTA
100
AcDbPolyline
 90
13
 70
1
 10
522.898094
 20
1.655205
 10
522.897889
 20
1.6557
 10
522.897889
 20
1.6593
 10
522.898094
 20
1.659795
 10
522.898589
 20
1.66
 10
522.919189
 20
1.66
 10
522.919684
 20
1.659795
 10
522.919889
 20
1.6593
 10
522.919889
 20
1.6557
 10
522.919684
 20
1.655205
 10
522.919189
 20
1.655
 10
522.898589
 20
1.655
 10
522.898094
 20
1.655205
  0
LWPOLYLINE
  5
225
330
17
100
AcDbEntity
  8
VISTA
100
AcDbPolyline
 90
13
 70
1
 10
522.686983
 20
1.477983
 10
522.686778
 20
1.478478
 10
522.686778
 20
1.482078
 10
522.686983
 20
1.482573
 10
522.687478
 20
1.482778
 10
522.708078
 20
1.482778
 10
522.708573
 20
1.482573
 10
522.708778
 20
1.482078
 10
522.708778
 20
1.478478
 10
522.708573
 20
1.477983
 10
522.708078
 20
1.477778
 10
522.687478
 20
1.477778
 10
522.686983
 20
1.477983
  0
LWPOLYLINE
  5
226
330
17
100
AcDbEntity
  8
VISTA
100
AcDbPolyline
 90
13
 70
1
 10
522.475872
 20
1.300761
 10
522.475667
 20
1.301256
 10
522.475667
 20
1.304856
 10
522.475872
 20
1.305351
 10
522.476367
 20
1.305556
 10
522.496967
 20
1.305556
 10
522.497462
 20
1.305351
 10
522.497667
 20
1.304856
 10
522.497667
 20
1.301256
 10
522.497462
 20
1.300761
 10
522.496967
 20
1.300556
 10
522.476367
 20
1.300556
 10
522.475872
 20
1.300761
  0
LWPOLYLINE
  5
227
330
17
100
AcDbEntity
  8
VISTA
100
AcDbPolyline
 90
13
 70
1
 10
522.264761
 20
1.123538
 10
522.264556
 20
1.124033
 10
522.264556
 20
1.127633
 10
522.264761
 20
1.128128
 10
522.265256
 20
1.128333
 10
522.285856
 20
1.128333
 10
522.28635
 20
1.128128
 10
522.286556
 20
1.127633
 10
522.286556
 20
1.124033
 10
522.28635
 20
1.123538
 10
522.285856
 20
1.123333
 10
522.265256
 20
1.123333
 10
522.264761
 20
1.123538
  0
LWPOLYLINE
  5
228
330
17
100
AcDbEntity
  8
VISTA
100
AcDbPolyline
 90
13
 70
1
 10
522.05365
 20
0.946316
 10
522.053445
 20
0.946811
 10
522.053445
 20
0.950411
 10
522.05365
 20
0.950906
 10
522.054145
 20
0.951111
 10
522.074744
 20
0.951111
 10
522.075239
 20
0.950906
 10
522.075444
 20
0.950411
 10
522.075444
 20
0.946811
 10
522.075239
 20
0.946316
 10
522.074744
 20
0.946111
 10
522.054145
 20
0.946111
 10
522.05365
 20
0.946316
  0
LWPOLYLINE
  5
229
330
17
100
AcDbEntity
  8
VISTA
100
AcDbPolyline
 90
13
 70
1
 10
521.842538
 20
0.769094
 10
521.842333
 20
0.769589
 10
521.842333
 20
0.773189
 10
521.842538
 20
0.773684
 10
521.843033
 20
0.773889
 10
521.863633
 20
0.773889
 10
521.864128
 20
0.773684
 10
521.864333
 20
0.773189
 10
521.864333
 20
0.769589
 10
521.864128
 20
0.769094
 10
521.863633
 20
0.768889
 10
521.843033
 20
0.768889
 10
521.842538
 20
0.769094
  0
LWPOLYLINE
  5
22A
330
17
100
AcDbEntity
  8
VISTA
100
AcDbPolyline
 90
13
 70
1
 10
521.631427
 20
0.591872
 10
521.631222
 20
0.592367
 10
521.631222
 20
0.595967
 10
521.631427
 20
0.596462
 10
521.631922
 20
0.596667
 10
521.652522
 20
0.596667
 10
521.653017
 20
0.596462
 10
521.653222
 20
0.595967
 10
521.653222
 20
0.592367
 10
521.653017
 20
0.591872
 10
521.652522
 20
0.591667
 10
521.631922
 20
0.591667
 10
521.631427
 20
0.591872
  0
LWPOLYLINE
  5
22B
330
17
100
AcDbEntity
  8
VISTA
100
AcDbPolyline
 90
13
 70
1
 10
521.420316
 20
0.414649
 10
521.420111
 20
0.415144
 10
521.420111
 20
0.418744
 10
521.420316
 20
0.419239
 10
521.420811
 20
0.419444
 10
521.441411
 20
0.419444
 10
521.441906
 20
0.419239
 10
521.442111
 20
0.418744
 10
521.442111
 20
0.415144
 10
521.441906
 20
0.414649
 10
521.441411
 20
0.414444
 10
521.420811
 20
0.414444
 10
521.420316
 20
0.414649
  0
LWPOLYLINE
  5
22C
330
17
100
AcDbEntity
  8
VISTA
100
AcDbPolyline
 90
13
 70
1
 10
521.209205
 20
0.237427
 10
521.209
 20
0.237922
 10
521.209
 20
0.241522
 10
521.209205
 20
0.242017
 10
521.2097
 20
0.242222
 10
521.2303
 20
0.242222
 10
521.230795
 20
0.242017
 10
521.231
 20
0.241522
 10
521.231
 20
0.237922
 10
521.230795
 20
0.237427
 10
521.2303
 20
0.237222
 10
521.2097
 20
0.237222
 10
521.209205
 20
0.237427
  0
LWPOLYLINE
  5
22D
330
17
100
AcDbEntity
  8
VISTA
100
AcDbPolyline
 90
9
 70
1
 10
520.46
 20
0.058
 10
520.460586
 20
0.059414
 10
520.462
 20
0.06
 10
520.493
 20
0.06
 10
520.494414
 20
0.059414
 10
520.495
 20
0.058
 10
520.495
 20
-0.3
 10
520.46
 20
-0.3
 10
520.46
 20
0.058
  0
LWPOLYLINE
  5
22E
330
17
100
AcDbEntity
  8
VISTA
100
AcDbPolyline
 90
9
 70
1
 10
520.905
 20
0.058
 10
520.905586
 20
0.059414
 10
520.907
 20
0.06
 10
520.938
 20
0.06
 10
520.939414
 20
0.059414
 10
520.94
 20
0.058
 10
520.94
 20
-0.3
 10
520.905
 20
-0.3
 10
520.905
 20
0.058
  0
LWPOLYLINE
  5
22F
330
17
100
AcDbEntity
  8
VISTA
100
AcDbPolyline
 90
13
 70
1
 10
520.467793
 20
0.036293
 10
520.4675
 20
0.037
 10
520.4675
 20
0.059
 10
520.467793
 20
0.059707
 10
520.4685
 20
0.06
 10
520.4915
 20
0.06
 10
520.492207
 20
0.059707
 10
520.4925
 20
0.059
 10
520.4925
 20
0.037
 10
520.492207
 20
0.036293
 10
520.4915
 20
0.036
 10
520.4685
 20
0.036
 10
520.467793
 20
0.036293
  0
LWPOLYLINE
  5
230
330
17
100
AcDbEntity
  8
VISTA
100
AcDbPolyline
 90
13
 70
1
 10
520.907793
 20
0.036293
 10
520.9075
 20
0.037
 10
520.9075
 20
0.059
 10
520.907793
 20
0.059707
 10
520.9085
 20
0.06
 10
520.9315
 20
0.06
 10
520.932207
 20
0.059707
 10
520.9325
 20
0.059
 10
520.9325
 20
0.037
 10
520.932207
 20
0.036293
 10
520.9315
 20
0.036
 10
520.9085
 20
0.036
 10
520.907793
 20
0.036293
  0
LWPOLYLINE
  5
231
330
17
100
AcDbEntity
  8
VISTA
100
AcDbPolyline
 90
13
 70
1
 10
520.500293
 20
0.052293
 10
520.5
 20
0.053
 10
520.5
 20
0.059
 10
520.500293
 20
0.059707
 10
520.501
 20
0.06
 10
520.899
 20
0.06
 10
520.899707
 20
0.059707
 10
520.9
 20
0.059
 10
520.9
 20
0.053
 10
520.899707
 20
0.052293
 10
520.899
 20
0.052
 10
520.501
 20
0.052
 10
520.500293
 20
0.052293
  0
LWPOLYLINE
  5
232
330
17
100
AcDbEntity
  8
VISTA
100
AcDbPolyline
 90
13
 70
1
 10
520.182343
 20
-0.057657
 10
520.18
 20
-0.052
 10
520.18
 20
0.052
 10
520.182343
 20
0.057657
 10
520.188
 20
0.06
 10
521.172
 20
0.06
 10
521.177657
 20
0.057657
 10
521.18
 20
0.052
 10
521.18
 20
-0.052
 10
521.177657
 20
-0.057657
 10
521.172
 20
-0.06
 10
520.188
 20
-0.06
 10
520.182343
 20
-0.057657
  0
TEXT
  5
233
330
17
100
AcDbEntity
  8
TEXTOS
100
AcDbText
 10
521.2940000057221
 20
0.3272222244739532
 30
0.0
 40
0.05
  1
1
100
AcDbText
  0
TEXT
  5
234
330
17
100
AcDbEntity
  8
TEXTOS
100
AcDbText
 10
521.5051110744477
 20
0.5044444465637207
 30
0.0
 40
0.05
  1
2
100
AcDbText
  0
TEXT
  5
235
330
17
100
AcDbEntity
  8
TEXTOS
100
AcDbText
 10
521.7162221431732
 20
0.6816666984558105
 30
0.0
 40
0.05
  1
3
100
AcDbText
  0
TEXT
  5
236
330
17
100
AcDbEntity
  8
TEXTOS
100
AcDbText
 10
521.9273333311081
 20
0.8588889503479004
 30
0.0
 40
0.05
  1
4
100
AcDbText
  0
TEXT
  5
237
330
17
100
AcDbEntity
  8
TEXTOS
100
AcDbText
 10
522.138444519043
 20
1.0361111426353455
 30
0.0
 40
0.05
  1
5
100
AcDbText
  0
TEXT
  5
238
330
17
100
AcDbEntity
  8
TEXTOS
100
AcDbText
 10
522.3495555877686
 20
1.2133333349227906
 30
0.0
 40
0.05
  1
6
100
AcDbText
  0
TEXT
  5
239
330
17
100
AcDbEntity
  8
TEXTOS
100
AcDbText
 10
522.5606666564942
 20
1.3905555868148805
 30
0.0
 40
0.05
  1
7
100
AcDbText
  0
TEXT
  5
23A
330
17
100
AcDbEntity
  8
TEXTOS
100
AcDbText
 10
522.7717777252197
 20
1.5677778387069703
 30
0.0
 40
0.05
  1
8
100
AcDbText
  0
TEXT
  5
23B
330
17
100
AcDbEntity
  8
TEXTOS
100
AcDbText
 10
522.9828887939453
 20
1.7449999713897706
 30
0.0
 40
0.05
  1
9
100
AcDbText
  0
TEXT
  5
23C
330
17
100
AcDbEntity
  8
TEXTOS
100
AcDbText
 10
523.1939998626709
 20
1.9222222232818604
 30
0.0
 40
0.05
  1
10
100
AcDbText
  0
TEXT
  5
23D
330
17
100
AcDbEntity
  8
TEXTOS
100
AcDbText
 10
523.4051111698151
 20
2.09944447517395
 30
0.0
 40
0.05
  1
11
100
AcDbText
  0
TEXT
  5
23E
330
17
100
AcDbEntity
  8
TEXTOS
100
AcDbText
 10
523.6162222385407
 20
2.276666488647461
 30
0.0
 40
0.05
  1
12
100
AcDbText
  0
TEXT
  5
23F
330
17
100
AcDbEntity
  8
TEXTOS
100
AcDbText
 10
523.8273333072663
 20
2.4538887405395506
 30
0.0
 40
0.05
  1
13
100
AcDbText
  0
TEXT
  5
240
330
17
100
AcDbEntity
  8
TEXTOS
100
AcDbText
 10
524.0384446144104
 20
2.6311109924316405
 30
0.0
 40
0.05
  1
14
100
AcDbText
  0
TEXT
  5
241
330
17
100
AcDbEntity
  8
TEXTOS
100
AcDbText
 10
524.249555683136
 20
2.8083332443237303
 30
0.0
 40
0.05
  1
15
100
AcDbText
  0
TEXT
  5
242
330
17
100
AcDbEntity
  8
TEXTOS
100
AcDbText
 10
524.4606667518616
 20
2.98555549621582
 30
0.0
 40
0.05
  1
16
100
AcDbText
  0
TEXT
  5
243
330
17
100
AcDbEntity
  8
TEXTOS
100
AcDbText
 10
524.6717778205872
 20
3.162777509689331
 30
0.0
 40
0.05
  1
17
100
AcDbText
  0
TEXT
  5
244
330
17
100
AcDbEntity
  8
TEXTOS
100
AcDbText
 10
524.8828888893128
 20
3.3399997615814208
 30
0.0
 40
0.05
  1
18
100
AcDbText
  0
DIMENSION
  5
245
330
17
100
AcDbEntity
  8
COTAS
100
AcDbDimension
280
0
  2
*D3
  3
Standard
 10
525.8
 20
0.23722222447395325
 30
0.0
 11
525.8
 21
1.743610993027687
 31
0.0
 70
32
 71
5
  1
<>
100
AcDbAlignedDimension
 13
525.8
 23
0.23722222447395325
 33
0.0
 14
525.8
 24
3.249999761581421
 34
0.0
 50
90.0
100
AcDbRotatedDimension
1001
ACAD
1000
DSTYLE
1002
{
1070
140
1040
0.13
1070
41
1040
0.09
1002
}
  0
DIMENSION
  5
255
330
17
100
AcDbEntity
  8
COTAS
100
AcDbDimension
280
0
  2
*D4
  3
Standard
 10
521.194000005722
 20
-0.1
 30
0.0
 11
522.9884444475174
 21
-0.1
 31
0.0
 70
32
 71
5
  1
<>
100
AcDbAlignedDimension
 13
521.194000005722
 23
-0.1
 33
0.0
 14
524.7828888893127
 24
-0.1
 34
0.0
 50
0.0
100
AcDbRotatedDimension
1001
ACAD
1000
DSTYLE
1002
{
1070
140
1040
0.13
1070
41
1040
0.09
1002
}
  0
TEXT
  5
265
330
17
100
AcDbEntity
  8
TEXTOS
100
AcDbText
 10
520.95
 20
0.3372222244739532
 30
0.0
 40
0.052000000000000005
  1
Primera tabla +0.237
100
AcDbText
  0
TEXT
  5
266
330
17
100
AcDbEntity
  8
TEXTOS
100
AcDbText
 10
525.4
 20
3.35
 30
0.0
 40
0.052000000000000005
  1
Descanso +3.25
100
AcDbText
  0
TEXT
  5
267
330
17
100
AcDbEntity
  8
TEXTOS
100
AcDbText
 10
520.45
 20
0.16
 30
0.0
 40
0.052000000000000005
  1
Arranque +0,06
100
AcDbText
  0
LWPOLYLINE
  5
268
330
17
100
AcDbEntity
  8
VISTA
100
AcDbPolyline
 90
14
 70
1
 10
573.997
 20
3.2
 10
573.9982172957747
 20
3.1996115311871227
 10
573.998736
 20
3.199446
 10
573.9990066659959
 20
3.199218107645875
 10
573.9991219999999
 20
3.199121
 10
573.9992188088531
 20
3.199006263581489
 10
573.999446
 20
3.198737
 10
573.9996115311872
 20
3.1982179969818914
 10
574.0
 20
3.197
 10
574.0
 20
3.150985915492958
 10
574.0
 20
3.12
 10
573.72
 20
3.12
 10
573.72
 20
3.2
 10
573.997
 20
3.2
  0
LWPOLYLINE
  5
269
330
17
100
AcDbEntity
  8
VISTA
100
AcDbPolyline
 90
9
 70
1
 10
573.999001
 20
3.249985
 10
573.999708
 20
3.2497008987987996
 10
574.0
 20
3.249
 10
574.0
 20
3.201
 10
573.999708
 20
3.200293
 10
573.999
 20
3.2
 10
573.72
 20
3.2
 10
573.72
 20
3.2457999891933977
 10
573.999001
 20
3.249985
  0
LWPOLYLINE
  5
26A
330
17
100
AcDbEntity
  8
VISTA
100
AcDbPolyline
 90
5
 70
1
 10
574.3
 20
3.25
 10
574.3
 20
3.2
 10
574.225
 20
3.2
 10
574.225
 20
3.25
 10
574.3
 20
3.25
  0
LWPOLYLINE
  5
26B
330
17
100
AcDbEntity
  8
VISTA
100
AcDbPolyline
 90
41
 70
1
 10
573.8909545
 20
3.2014275000000003
 10
573.890738
 20
3.201684
 10
573.890369
 20
3.2028420000000004
 10
573.89
 20
3.204
 10
573.89
 20
3.225
 10
573.89
 20
3.246
 10
573.890369
 20
3.247158
 10
573.890738
 20
3.248316
 10
573.8909545
 20
3.2485720000000002
 10
573.891171
 20
3.248828
 10
573.891428
 20
3.2490445
 10
573.891685
 20
3.249261
 10
573.8928425
 20
3.2496305000000003
 10
573.894
 20
3.25
 10
574.05
 20
3.25
 10
574.206
 20
3.25
 10
574.207158
 20
3.2496305
 10
574.208316
 20
3.249261
 10
574.2085725
 20
3.2490445
 10
574.208829
 20
3.248828
 10
574.2090455
 20
3.2485720000000002
 10
574.209262
 20
3.248316
 10
574.209631
 20
3.247158
 10
574.21
 20
3.246
 10
574.21
 20
3.225
 10
574.21
 20
3.204
 10
574.209631
 20
3.2028420000000004
 10
574.209262
 20
3.201684
 10
574.2090455
 20
3.2014275000000003
 10
574.208829
 20
3.201171
 10
574.2085725
 20
3.2009545
 10
574.208316
 20
3.200738
 10
574.207158
 20
3.2003690000000002
 10
574.206
 20
3.2
 10
574.05
 20
3.2
 10
573.894
 20
3.2
 10
573.8928425
 20
3.200369
 10
573.891685
 20
3.200738
 10
573.891428
 20
3.2009545
 10
573.891171
 20
3.201171
 10
573.8909545
 20
3.2014275000000003
  0
LWPOLYLINE
  5
26C
330
17
100
AcDbEntity
  8
VISTA
100
AcDbPolyline
 90
5
 70
1
 10
573.835
 20
3.204
 10
574.185
 20
3.204
 10
574.185
 20
3.202
 10
573.835
 20
3.202
 10
573.835
 20
3.204
  0
TEXT
  5
26D
330
17
100
AcDbEntity
  8
TEXTOS
100
AcDbText
 10
574.03
 20
3.3000000000000003
 30
0.0
 40
0.013000000000000001
  1
Losa +3,20
100
AcDbText
  0
TEXT
  5
26E
330
17
100
AcDbEntity
  8
TEXTOS
100
AcDbText
 10
574.03
 20
3.35
 30
0.0
 40
0.013000000000000001
  1
NPT +3,25
100
AcDbText
  0
DIMENSION
  5
26F
330
17
100
AcDbEntity
  8
COTAS
100
AcDbDimension
280
0
  2
*D5
  3
Standard
 10
574.25
 20
3.2
 30
0.0
 11
573.56
 21
3.225
 31
0.0
 70
32
 71
5
  1
<>
100
AcDbAlignedDimension
 13
574.25
 23
3.2
 33
0.0
 14
574.25
 24
3.25
 34
0.0
 50
90.0
100
AcDbRotatedDimension
1001
ACAD
1000
DSTYLE
1002
{
1070
140
1040
0.13
1070
41
1040
0.09
1002
}
  0
ENDSEC
  0
SECTION
  2
OBJECTS
  0
DICTIONARY
  5
A
330
0
100
AcDbDictionary
281
1
  3
ACAD_COLOR
350
B
  3
ACAD_GROUP
350
C
  3
ACAD_LAYOUT
350
D
  3
ACAD_MATERIAL
350
E
  3
ACAD_MLEADERSTYLE
350
F
  3
ACAD_MLINESTYLE
350
10
  3
ACAD_PLOTSETTINGS
350
11
  3
ACAD_PLOTSTYLENAME
350
12
  3
ACAD_SCALELIST
350
14
  3
ACAD_TABLESTYLE
350
15
  3
ACAD_VISUALSTYLE
350
16
  3
EZDXF_META
350
2D
  0
DICTIONARY
  5
B
330
A
100
AcDbDictionary
281
1
  0
DICTIONARY
  5
C
330
A
100
AcDbDictionary
281
1
  0
DICTIONARY
  5
D
330
A
100
AcDbDictionary
281
1
  3
Model
350
1A
  3
Layout1
350
1E
  0
DICTIONARY
  5
E
330
A
100
AcDbDictionary
281
1
  3
ByBlock
350
1F
  3
ByLayer
350
20
  3
Global
350
21
  0
DICTIONARY
  5
F
330
A
100
AcDbDictionary
281
1
  3
Standard
350
2C
  0
DICTIONARY
  5
10
330
A
100
AcDbDictionary
281
1
  3
Standard
350
22
  0
DICTIONARY
  5
11
330
A
100
AcDbDictionary
281
1
  0
ACDBDICTIONARYWDFLT
  5
12
330
A
100
AcDbDictionary
281
1
  3
Normal
350
13
100
AcDbDictionaryWithDefault
340
13
  0
ACDBPLACEHOLDER
  5
13
330
12
  0
DICTIONARY
  5
14
330
A
100
AcDbDictionary
281
1
  0
DICTIONARY
  5
15
330
A
100
AcDbDictionary
281
1
  0
DICTIONARY
  5
16
330
A
100
AcDbDictionary
281
1
  0
LAYOUT
  5
1A
330
D
100
AcDbPlotSettings
  1

  4
A3
  6

 40
7.5
 41
20.0
 42
7.5
 43
20.0
 44
420.0
 45
297.0
 46
0.0
 47
0.0
 48
0.0
 49
0.0
140
0.0
141
0.0
142
1.0
143
1.0
 70
1024
 72
1
 73
0
 74
5
  7

 75
16
 76
0
 77
2
 78
300
147
1.0
148
0.0
149
0.0
100
AcDbLayout
  1
Model
 70
1
 71
0
 10
0.0
 20
0.0
 11
420.0
 21
297.0
 12
0.0
 22
0.0
 32
0.0
 14
1e+20
 24
1e+20
 34
1e+20
 15
-1e+20
 25
-1e+20
 35
-1e+20
146
0.0
 13
0.0
 23
0.0
 33
0.0
 16
1.0
 26
0.0
 36
0.0
 17
0.0
 27
1.0
 37
0.0
 76
1
330
17
  0
LAYOUT
  5
1E
330
D
100
AcDbPlotSettings
  1

  4
A3
  6

 40
7.5
 41
20.0
 42
7.5
 43
20.0
 44
420.0
 45
297.0
 46
0.0
 47
0.0
 48
0.0
 49
0.0
140
0.0
141
0.0
142
1.0
143
1.0
 70
0
 72
1
 73
0
 74
5
  7

 75
16
 76
0
 77
2
 78
300
147
1.0
148
0.0
149
0.0
100
AcDbLayout
  1
Layout1
 70
1
 71
1
 10
0.0
 20
0.0
 11
420.0
 21
297.0
 12
0.0
 22
0.0
 32
0.0
 14
1e+20
 24
1e+20
 34
1e+20
 15
-1e+20
 25
-1e+20
 35
-1e+20
146
0.0
 13
0.0
 23
0.0
 33
0.0
 16
1.0
 26
0.0
 36
0.0
 17
0.0
 27
1.0
 37
0.0
 76
1
330
1B
  0
MATERIAL
  5
1F
102
{ACAD_REACTORS
330
E
102
}
330
E
100
AcDbMaterial
  1
ByBlock
  2

 70
0
 40
1.0
 71
1
 41
1.0
 91
-1023410177
 42
1.0
 72
1
  3

 73
1
 74
1
 75
1
 44
0.5
 73
0
 45
1.0
 46
1.0
 77
1
  4

 78
1
 79
1
170
1
 48
1.0
171
1
  6

172
1
173
1
174
1
140
1.0
141
1.0
175
1
  7

176
1
177
1
178
1
143
1.0
179
1
  8

270
1
271
1
272
1
145
1.0
146
1.0
273
1
  9

274
1
275
1
276
1
 42
1.0
 72
1
  3

 73
1
 74
1
 75
1
 94
63
  0
MATERIAL
  5
20
102
{ACAD_REACTORS
330
E
102
}
330
E
100
AcDbMaterial
  1
ByLayer
  2

 70
0
 40
1.0
 71
1
 41
1.0
 91
-1023410177
 42
1.0
 72
1
  3

 73
1
 74
1
 75
1
 44
0.5
 73
0
 45
1.0
 46
1.0
 77
1
  4

 78
1
 79
1
170
1
 48
1.0
171
1
  6

172
1
173
1
174
1
140
1.0
141
1.0
175
1
  7

176
1
177
1
178
1
143
1.0
179
1
  8

270
1
271
1
272
1
145
1.0
146
1.0
273
1
  9

274
1
275
1
276
1
 42
1.0
 72
1
  3

 73
1
 74
1
 75
1
 94
63
  0
MATERIAL
  5
21
102
{ACAD_REACTORS
330
E
102
}
330
E
100
AcDbMaterial
  1
Global
  2

 70
0
 40
1.0
 71
1
 41
1.0
 91
-1023410177
 42
1.0
 72
1
  3

 73
1
 74
1
 75
1
 44
0.5
 73
0
 45
1.0
 46
1.0
 77
1
  4

 78
1
 79
1
170
1
 48
1.0
171
1
  6

172
1
173
1
174
1
140
1.0
141
1.0
175
1
  7

176
1
177
1
178
1
143
1.0
179
1
  8

270
1
271
1
272
1
145
1.0
146
1.0
273
1
  9

274
1
275
1
276
1
 42
1.0
 72
1
  3

 73
1
 74
1
 75
1
 94
63
  0
MLINESTYLE
  5
22
102
{ACAD_REACTORS
330
10
102
}
330
10
100
AcDbMlineStyle
  2
Standard
 70
0
  3

 62
256
 51
90.0
 52
90.0
 71
2
 49
0.5
 62
256
  6
BYLAYER
 49
-0.5
 62
256
  6
BYLAYER
  0
MLEADERSTYLE
  5
2C
102
{ACAD_REACTORS
330
F
102
}
330
F
100
AcDbMLeaderStyle
179
2
170
2
171
1
172
0
 90
2
 40
0.0
 41
0.0
173
1
 91
-1056964608
 92
-2
290
1
 42
2.0
291
1
 43
8.0
  3
Standard
 44
4.0
300

342
29
174
1
175
1
176
0
178
1
 93
-1056964608
 45
4.0
292
0
297
0
 46
4.0
 94
-1056964608
 47
1.0
 49
1.0
140
1.0
294
1
141
0.0
177
0
142
1.0
295
0
296
0
143
3.75
271
0
272
9
273
9
  0
DICTIONARY
  5
2D
330
A
100
AcDbDictionary
280
1
281
1
  3
CREATED_BY_EZDXF
350
2E
  3
WRITTEN_BY_EZDXF
350
282
  0
DICTIONARYVAR
  5
2E
330
2D
100
DictionaryVariables
280
0
  1
1.4.4 @ 2026-09-10T18:24:42.211478+00:00
  0
DICTIONARYVAR
  5
282
330
2D
100
DictionaryVariables
280
0
  1
1.4.4 @ 2026-09-10T18:24:42.700351+00:00
  0
ENDSEC
  0
EOF
