  0
SECTION
  2
HEADER
  9
$ACADVER
  1
AC1024
  9
$ACADMAINTVER
 70
6
  9
$DWGCODEPAGE
  3
ANSI_1252
  9
$LASTSAVEDBY
  1
ezdxf
  9
$INSBASE
 10
0.0
 20
0.0
 30
0.0
  9
$EXTMIN
 10
1e+20
 20
1e+20
 30
1e+20
  9
$EXTMAX
 10
-1e+20
 20
-1e+20
 30
-1e+20
  9
$LIMMIN
 10
0.0
 20
0.0
  9
$LIMMAX
 10
420.0
 20
297.0
  9
$ORTHOMODE
 70
0
  9
$REGENMODE
 70
1
  9
$FILLMODE
 70
1
  9
$QTEXTMODE
 70
0
  9
$MIRRTEXT
 70
1
  9
$LTSCALE
 40
1.0
  9
$ATTMODE
 70
1
  9
$TEXTSIZE
 40
2.5
  9
$TRACEWID
 40
1.0
  9
$TEXTSTYLE
  7
Standard
  9
$CLAYER
  8
0
  9
$CELTYPE
  6
ByLayer
  9
$CECOLOR
 62
256
  9
$CELTSCALE
 40
1.0
  9
$DISPSILH
 70
0
  9
$DIMSCALE
 40
1.0
  9
$DIMASZ
 40
2.5
  9
$DIMEXO
 40
0.625
  9
$DIMDLI
 40
3.75
  9
$DIMRND
 40
0.0
  9
$DIMDLE
 40
0.0
  9
$DIMEXE
 40
1.25
  9
$DIMTP
 40
0.0
  9
$DIMTM
 40
0.0
  9
$DIMTXT
 40
2.5
  9
$DIMCEN
 40
2.5
  9
$DIMTSZ
 40
0.0
  9
$DIMTOL
 70
0
  9
$DIMLIM
 70
0
  9
$DIMTIH
 70
0
  9
$DIMTOH
 70
0
  9
$DIMSE1
 70
0
  9
$DIMSE2
 70
0
  9
$DIMTAD
 70
1
  9
$DIMZIN
 70
8
  9
$DIMBLK
  1

  9
$DIMASO
 70
1
  9
$DIMSHO
 70
1
  9
$DIMPOST
  1

  9
$DIMAPOST
  1

  9
$DIMALT
 70
0
  9
$DIMALTD
 70
3
  9
$DIMALTF
 40
0.03937007874
  9
$DIMLFAC
 40
1.0
  9
$DIMTOFL
 70
1
  9
$DIMTVP
 40
0.0
  9
$DIMTIX
 70
0
  9
$DIMSOXD
 70
0
  9
$DIMSAH
 70
0
  9
$DIMBLK1
  1

  9
$DIMBLK2
  1

  9
$DIMSTYLE
  2
ISO-25
  9
$DIMCLRD
 70
0
  9
$DIMCLRE
 70
0
  9
$DIMCLRT
 70
0
  9
$DIMTFAC
 40
1.0
  9
$DIMGAP
 40
0.625
  9
$DIMJUST
 70
0
  9
$DIMSD1
 70
0
  9
$DIMSD2
 70
0
  9
$DIMTOLJ
 70
0
  9
$DIMTZIN
 70
8
  9
$DIMALTZ
 70
0
  9
$DIMALTTZ
 70
0
  9
$DIMUPT
 70
0
  9
$DIMDEC
 70
2
  9
$DIMTDEC
 70
2
  9
$DIMALTU
 70
2
  9
$DIMALTTD
 70
3
  9
$DIMTXSTY
  7
Standard
  9
$DIMAUNIT
 70
0
  9
$DIMADEC
 70
0
  9
$DIMALTRND
 40
0.0
  9
$DIMAZIN
 70
0
  9
$DIMDSEP
 70
44
  9
$DIMATFIT
 70
3
  9
$DIMFRAC
 70
0
  9
$DIMLDRBLK
  1

  9
$DIMLUNIT
 70
2
  9
$DIMLWD
 70
-2
  9
$DIMLWE
 70
-2
  9
$DIMTMOVE
 70
0
  9
$DIMFXL
 40
1.0
  9
$DIMFXLON
 70
0
  9
$DIMJOGANG
 40
0.785398163397
  9
$DIMTFILL
 70
0
  9
$DIMTFILLCLR
 70
0
  9
$DIMARCSYM
 70
0
  9
$DIMLTYPE
  6

  9
$DIMLTEX1
  6

  9
$DIMLTEX2
  6

  9
$DIMTXTDIRECTION
 70
0
  9
$LUNITS
 70
2
  9
$LUPREC
 70
4
  9
$SKETCHINC
 40
1.0
  9
$FILLETRAD
 40
10.0
  9
$AUNITS
 70
0
  9
$AUPREC
 70
2
  9
$MENU
  1
.
  9
$ELEVATION
 40
0.0
  9
$PELEVATION
 40
0.0
  9
$THICKNESS
 40
0.0
  9
$LIMCHECK
 70
0
  9
$CHAMFERA
 40
0.0
  9
$CHAMFERB
 40
0.0
  9
$CHAMFERC
 40
0.0
  9
$CHAMFERD
 40
0.0
  9
$SKPOLY
 70
0
  9
$TDCREATE
 40
2461294.642175926
  9
$TDUCREATE
 40
2458532.153996898
  9
$TDUPDATE
 40
2461294.642175926
  9
$TDUUPDATE
 40
2458532.1544311
  9
$TDINDWG
 40
0.0
  9
$TDUSRTIMER
 40
0.0
  9
$USRTIMER
 70
1
  9
$ANGBASE
 50
0.0
  9
$ANGDIR
 70
0
  9
$PDMODE
 70
0
  9
$PDSIZE
 40
0.0
  9
$PLINEWID
 40
0.0
  9
$SPLFRAME
 70
0
  9
$SPLINETYPE
 70
6
  9
$SPLINESEGS
 70
8
  9
$HANDSEED
  5
BB
  9
$SURFTAB1
 70
6
  9
$SURFTAB2
 70
6
  9
$SURFTYPE
 70
6
  9
$SURFU
 70
6
  9
$SURFV
 70
6
  9
$UCSBASE
  2

  9
$UCSNAME
  2

  9
$UCSORG
 10
0.0
 20
0.0
 30
0.0
  9
$UCSXDIR
 10
1.0
 20
0.0
 30
0.0
  9
$UCSYDIR
 10
0.0
 20
1.0
 30
0.0
  9
$UCSORTHOREF
  2

  9
$UCSORTHOVIEW
 70
0
  9
$UCSORGTOP
 10
0.0
 20
0.0
 30
0.0
  9
$UCSORGBOTTOM
 10
0.0
 20
0.0
 30
0.0
  9
$UCSORGLEFT
 10
0.0
 20
0.0
 30
0.0
  9
$UCSORGRIGHT
 10
0.0
 20
0.0
 30
0.0
  9
$UCSORGFRONT
 10
0.0
 20
0.0
 30
0.0
  9
$UCSORGBACK
 10
0.0
 20
0.0
 30
0.0
  9
$PUCSBASE
  2

  9
$PUCSNAME
  2

  9
$PUCSORG
 10
0.0
 20
0.0
 30
0.0
  9
$PUCSXDIR
 10
1.0
 20
0.0
 30
0.0
  9
$PUCSYDIR
 10
0.0
 20
1.0
 30
0.0
  9
$PUCSORTHOREF
  2

  9
$PUCSORTHOVIEW
 70
0
  9
$PUCSORGTOP
 10
0.0
 20
0.0
 30
0.0
  9
$PUCSORGBOTTOM
 10
0.0
 20
0.0
 30
0.0
  9
$PUCSORGLEFT
 10
0.0
 20
0.0
 30
0.0
  9
$PUCSORGRIGHT
 10
0.0
 20
0.0
 30
0.0
  9
$PUCSORGFRONT
 10
0.0
 20
0.0
 30
0.0
  9
$PUCSORGBACK
 10
0.0
 20
0.0
 30
0.0
  9
$USERI1
 70
0
  9
$USERI2
 70
0
  9
$USERI3
 70
0
  9
$USERI4
 70
0
  9
$USERI5
 70
0
  9
$USERR1
 40
0.0
  9
$USERR2
 40
0.0
  9
$USERR3
 40
0.0
  9
$USERR4
 40
0.0
  9
$USERR5
 40
0.0
  9
$WORLDVIEW
 70
1
  9
$SHADEDGE
 70
3
  9
$SHADEDIF
 70
70
  9
$TILEMODE
 70
1
  9
$MAXACTVP
 70
64
  9
$PINSBASE
 10
0.0
 20
0.0
 30
0.0
  9
$PLIMCHECK
 70
0
  9
$PEXTMIN
 10
1e+20
 20
1e+20
 30
1e+20
  9
$PEXTMAX
 10
-1e+20
 20
-1e+20
 30
-1e+20
  9
$PLIMMIN
 10
0.0
 20
0.0
  9
$PLIMMAX
 10
420.0
 20
297.0
  9
$UNITMODE
 70
0
  9
$VISRETAIN
 70
1
  9
$PLINEGEN
 70
0
  9
$PSLTSCALE
 70
1
  9
$TREEDEPTH
 70
3020
  9
$CMLSTYLE
  2
Standard
  9
$CMLJUST
 70
0
  9
$CMLSCALE
 40
20.0
  9
$PROXYGRAPHICS
 70
1
  9
$MEASUREMENT
 70
1
  9
$CELWEIGHT
370
-1
  9
$ENDCAPS
280
0
  9
$JOINSTYLE
280
0
  9
$LWDISPLAY
290
0
  9
$INSUNITS
 70
6
  9
$HYPERLINKBASE
  1

  9
$STYLESHEET
  1

  9
$XEDIT
290
1
  9
$CEPSNTYPE
380
0
  9
$PSTYLEMODE
290
1
  9
$FINGERPRINTGUID
  2
{F71A3089-B55E-4FC0-B096-23BA677577B2}
  9
$VERSIONGUID
  2
{60650084-002A-42D3-8721-EE57AC57CBC6}
  9
$EXTNAMES
290
1
  9
$PSVPSCALE
 40
0.0
  9
$OLESTARTUP
290
0
  9
$SORTENTS
280
127
  9
$INDEXCTL
280
0
  9
$HIDETEXT
280
1
  9
$XCLIPFRAME
280
1
  9
$HALOGAP
280
0
  9
$OBSCOLOR
 70
257
  9
$OBSLTYPE
280
0
  9
$INTERSECTIONDISPLAY
280
0
  9
$INTERSECTIONCOLOR
 70
257
  9
$DIMASSOC
280
2
  9
$PROJECTNAME
  1

  9
$CAMERADISPLAY
290
0
  9
$LENSLENGTH
 40
50.0
  9
$CAMERAHEIGHT
 40
0.0
  9
$STEPSPERSEC
 40
24.0
  9
$STEPSIZE
 40
100.0
  9
$3DDWFPREC
 40
2.0
  9
$PSOLWIDTH
 40
0.005
  9
$PSOLHEIGHT
 40
0.08
  9
$LOFTANG1
 40
1.570796326795
  9
$LOFTANG2
 40
1.570796326795
  9
$LOFTMAG1
 40
0.0
  9
$LOFTMAG2
 40
0.0
  9
$LOFTPARAM
 70
7
  9
$LOFTNORMALS
280
1
  9
$LATITUDE
 40
37.795
  9
$LONGITUDE
 40
-122.394
  9
$NORTHDIRECTION
 40
0.0
  9
$TIMEZONE
 70
-8000
  9
$LIGHTGLYPHDISPLAY
280
1
  9
$TILEMODELIGHTSYNCH
280
1
  9
$CMATERIAL
347
20
  9
$SOLIDHIST
280
0
  9
$SHOWHIST
280
1
  9
$DWFFRAME
280
2
  9
$DGNFRAME
280
2
  9
$REALWORLDSCALE
290
1
  9
$INTERFERECOLOR
 62
256
  9
$CSHADOW
280
0
  9
$SHADOWPLANELOCATION
 40
0.0
  0
ENDSEC
  0
SECTION
  2
CLASSES
  0
CLASS
  1
ACDBDICTIONARYWDFLT
  2
AcDbDictionaryWithDefault
  3
ObjectDBX Classes
 90
0
 91
0
280
0
281
0
  0
CLASS
  1
SUN
  2
AcDbSun
  3
SCENEOE
 90
1153
 91
0
280
0
281
0
  0
CLASS
  1
VISUALSTYLE
  2
AcDbVisualStyle
  3
ObjectDBX Classes
 90
4095
 91
0
280
0
281
0
  0
CLASS
  1
MATERIAL
  2
AcDbMaterial
  3
ObjectDBX Classes
 90
1153
 91
0
280
0
281
0
  0
CLASS
  1
SCALE
  2
AcDbScale
  3
ObjectDBX Classes
 90
1153
 91
0
280
0
281
0
  0
CLASS
  1
TABLESTYLE
  2
AcDbTableStyle
  3
ObjectDBX Classes
 90
4095
 91
0
280
0
281
0
  0
CLASS
  1
MLEADERSTYLE
  2
AcDbMLeaderStyle
  3
ACDB_MLEADERSTYLE_CLASS
 90
4095
 91
0
280
0
281
0
  0
CLASS
  1
DICTIONARYVAR
  2
AcDbDictionaryVar
  3
ObjectDBX Classes
 90
0
 91
0
280
0
281
0
  0
CLASS
  1
CELLSTYLEMAP
  2
AcDbCellStyleMap
  3
ObjectDBX Classes
 90
1152
 91
0
280
0
281
0
  0
CLASS
  1
MENTALRAYRENDERSETTINGS
  2
AcDbMentalRayRenderSettings
  3
SCENEOE
 90
1024
 91
0
280
0
281
0
  0
CLASS
  1
ACDBDETAILVIEWSTYLE
  2
AcDbDetailViewStyle
  3
ObjectDBX Classes
 90
1025
 91
0
280
0
281
0
  0
CLASS
  1
ACDBSECTIONVIEWSTYLE
  2
AcDbSectionViewStyle
  3
ObjectDBX Classes
 90
1025
 91
0
280
0
281
0
  0
CLASS
  1
RASTERVARIABLES
  2
AcDbRasterVariables
  3
ISM
 90
0
 91
0
280
0
281
0
  0
CLASS
  1
ACDBPLACEHOLDER
  2
AcDbPlaceHolder
  3
ObjectDBX Classes
 90
0
 91
0
280
0
281
0
  0
CLASS
  1
LAYOUT
  2
AcDbLayout
  3
ObjectDBX Classes
 90
0
 91
0
280
0
281
0
  0
ENDSEC
  0
SECTION
  2
TABLES
  0
TABLE
  2
VPORT
  5
8
330
0
100
AcDbSymbolTable
 70
1
  0
VPORT
  5
23
330
8
100
AcDbSymbolTableRecord
100
AcDbViewportTableRecord
  2
*Active
 70
0
 10
0.0
 20
0.0
 11
1.0
 21
1.0
 12
0.0
 22
0.0
 13
0.0
 23
0.0
 14
0.5
 24
0.5
 15
0.5
 25
0.5
 16
0.0
 26
0.0
 36
1.0
 17
0.0
 27
0.0
 37
0.0
 40
1000.0
 41
1.34
 42
50.0
 43
0.0
 44
0.0
 50
0.0
 51
0.0
 71
0
 72
1000
 73
1
 74
3
 75
0
 76
0
 77
0
 78
0
281
0
 65
0
146
0.0
  0
ENDTAB
  0
TABLE
  2
LTYPE
  5
2
330
0
100
AcDbSymbolTable
 70
3
  0
LTYPE
  5
24
330
2
100
AcDbSymbolTableRecord
100
AcDbLinetypeTableRecord
  2
ByBlock
 70
0
  3

 72
65
 73
0
 40
0.0
  0
LTYPE
  5
25
330
2
100
AcDbSymbolTableRecord
100
AcDbLinetypeTableRecord
  2
ByLayer
 70
0
  3

 72
65
 73
0
 40
0.0
  0
LTYPE
  5
26
330
2
100
AcDbSymbolTableRecord
100
AcDbLinetypeTableRecord
  2
Continuous
 70
0
  3

 72
65
 73
0
 40
0.0
  0
ENDTAB
  0
TABLE
  2
LAYER
  5
1
330
0
100
AcDbSymbolTable
 70
8
  0
LAYER
  5
27
330
1
100
AcDbSymbolTableRecord
100
AcDbLayerTableRecord
  2
0
 70
0
 62
7
  6
Continuous
370
-3
390
13
347
21
  0
LAYER
  5
28
330
1
100
AcDbSymbolTableRecord
100
AcDbLayerTableRecord
  2
Defpoints
 70
0
 62
7
  6
Continuous
290
0
370
-3
390
13
347
21
  0
LAYER
  5
2F
330
1
100
AcDbSymbolTableRecord
100
AcDbLayerTableRecord
  2
CORTE
 70
0
 62
7
  6
Continuous
370
-3
390
13
347
21
  0
LAYER
  5
30
330
1
100
AcDbSymbolTableRecord
100
AcDbLayerTableRecord
  2
VISTA
 70
0
 62
8
  6
Continuous
370
-3
390
13
347
21
  0
LAYER
  5
31
330
1
100
AcDbSymbolTableRecord
100
AcDbLayerTableRecord
  2
COTAS
 70
0
 62
4
  6
Continuous
370
-3
390
13
347
21
  0
LAYER
  5
32
330
1
100
AcDbSymbolTableRecord
100
AcDbLayerTableRecord
  2
TEXTOS
 70
0
 62
7
  6
Continuous
370
-3
390
13
347
21
  0
LAYER
  5
33
330
1
100
AcDbSymbolTableRecord
100
AcDbLayerTableRecord
  2
EJES
 70
0
 62
3
  6
Continuous
370
-3
390
13
347
21
  0
LAYER
  5
34
330
1
100
AcDbSymbolTableRecord
100
AcDbLayerTableRecord
  2
SISTEMAS
 70
0
 62
5
  6
Continuous
370
-3
390
13
347
21
  0
ENDTAB
  0
TABLE
  2
STYLE
  5
5
330
0
100
AcDbSymbolTable
 70
1
  0
STYLE
  5
29
330
5
100
AcDbSymbolTableRecord
100
AcDbTextStyleTableRecord
  2
Standard
 70
0
 40
0.0
 41
1.0
 50
0.0
 71
0
 42
2.5
  3
txt
  4

  0
ENDTAB
  0
TABLE
  2
VIEW
  5
7
330
0
100
AcDbSymbolTable
 70
0
  0
ENDTAB
  0
TABLE
  2
UCS
  5
6
330
0
100
AcDbSymbolTable
 70
0
  0
ENDTAB
  0
TABLE
  2
APPID
  5
3
330
0
100
AcDbSymbolTable
 70
3
  0
APPID
  5
2A
330
3
100
AcDbSymbolTableRecord
100
AcDbRegAppTableRecord
  2
ACAD
 70
0
  0
APPID
  5
B8
330
3
100
AcDbSymbolTableRecord
100
AcDbRegAppTableRecord
  2
HATCHBACKGROUNDCOLOR
 70
0
  0
APPID
  5
B9
330
3
100
AcDbSymbolTableRecord
100
AcDbRegAppTableRecord
  2
EZDXF
 70
0
  0
ENDTAB
  0
TABLE
  2
DIMSTYLE
  5
4
330
0
100
AcDbSymbolTable
 70
1
100
AcDbDimStyleTable
  0
DIMSTYLE
105
2B
330
4
100
AcDbSymbolTableRecord
100
AcDbDimStyleTableRecord
  2
Standard
 70
0
 40
1.0
 41
2.5
 42
0.625
 43
3.75
 44
1.25
 45
0.0
 46
0.0
 47
0.0
 48
0.0
 49
2.5
140
2.5
141
2.5
142
0.0
143
0.03937007874
144
1.0
145
0.0
146
1.0
147
0.625
148
0.0
 69
0
 70
0
 71
0
 72
0
 73
0
 74
0
 75
0
 76
0
 77
1
 78
8
 79
3
170
0
171
3
172
1
173
0
174
0
175
0
176
0
177
0
178
0
179
2
271
2
272
2
273
2
274
3
275
0
276
0
277
2
278
44
279
0
280
0
281
0
282
0
283
0
284
8
285
0
286
0
288
0
289
3
290
0
371
-2
372
-2
  0
ENDTAB
  0
TABLE
  2
BLOCK_RECORD
  5
9
330
0
100
AcDbSymbolTable
 70
5
  0
BLOCK_RECORD
  5
17
330
9
100
AcDbSymbolTableRecord
100
AcDbBlockTableRecord
  2
*Model_Space
340
1A
 70
0
280
1
281
0
  0
BLOCK_RECORD
  5
1B
330
9
100
AcDbSymbolTableRecord
100
AcDbBlockTableRecord
  2
*Paper_Space
340
1E
 70
0
280
1
281
0
  0
BLOCK_RECORD
  5
38
330
9
100
AcDbSymbolTableRecord
100
AcDbBlockTableRecord
  2
*D1
340
0
 70
0
280
1
281
0
  0
BLOCK_RECORD
  5
3D
330
9
100
AcDbSymbolTableRecord
100
AcDbBlockTableRecord
  2
_CLOSEDFILLED
340
0
 70
0
280
1
281
0
  0
BLOCK_RECORD
  5
8E
330
9
100
AcDbSymbolTableRecord
100
AcDbBlockTableRecord
  2
*D2
340
0
 70
0
280
1
281
0
  0
ENDTAB
  0
ENDSEC
  0
SECTION
  2
BLOCKS
  0
BLOCK
  5
18
330
17
100
AcDbEntity
  8
0
100
AcDbBlockBegin
  2
*Model_Space
 70
0
 10
0.0
 20
0.0
 30
0.0
  3
*Model_Space
  1

  0
ENDBLK
  5
19
330
17
100
AcDbEntity
  8
0
100
AcDbBlockEnd
  0
BLOCK
  5
1C
330
1B
100
AcDbEntity
  8
0
100
AcDbBlockBegin
  2
*Paper_Space
 70
0
 10
0.0
 20
0.0
 30
0.0
  3
*Paper_Space
  1

  0
ENDBLK
  5
1D
330
1B
100
AcDbEntity
  8
0
100
AcDbBlockEnd
  0
BLOCK
  5
39
330
38
100
AcDbEntity
  8
0
100
AcDbBlockBegin
  2
*D1
 70
1
 10
0.0
 20
0.0
 30
0.0
  3
*D1
  1

  0
LINE
  5
3B
330
38
100
AcDbEntity
  8
0
100
AcDbLine
 10
1159.84
 20
6.84
 30
0.0
 11
1159.84
 21
6.84
 31
0.0
  0
LINE
  5
3C
330
38
100
AcDbEntity
  8
0
100
AcDbLine
 10
1160.0
 20
6.84
 30
0.0
 11
1160.0
 21
6.84
 31
0.0
  0
INSERT
  5
41
330
38
100
AcDbEntity
  8
COTAS
100
AcDbBlockReference
  2
_CLOSEDFILLED
 10
1159.84
 20
6.84
 30
0.0
 41
0.09
 42
0.09
  0
INSERT
  5
43
330
38
100
AcDbEntity
  8
COTAS
100
AcDbBlockReference
  2
_CLOSEDFILLED
 10
1160.0
 20
6.84
 30
0.0
 41
0.09
 42
0.09
 50
180.0
  0
LINE
  5
45
330
38
100
AcDbEntity
  8
0
100
AcDbLine
 10
1159.75
 20
6.84
 30
0.0
 11
1159.6599999999999
 21
6.84
 31
0.0
  0
LINE
  5
46
330
38
100
AcDbEntity
  8
0
100
AcDbLine
 10
1160.09
 20
6.84
 30
0.0
 11
1160.18
 21
6.84
 31
0.0
  0
LINE
  5
47
330
38
100
AcDbEntity
  8
0
100
AcDbLine
 10
1159.84
 20
6.84
 30
0.0
 11
1160.0
 21
6.84
 31
0.0
  0
MTEXT
  5
48
330
38
100
AcDbEntity
  8
COTAS
100
AcDbMText
 10
1159.92
 20
7.529999999999999
 30
0.0
 40
0.13
 71
5
  1
0,16
  0
POINT
  5
49
330
38
100
AcDbEntity
  8
Defpoints
100
AcDbPoint
 10
1159.84
 20
6.84
 30
0.0
  0
POINT
  5
4A
330
38
100
AcDbEntity
  8
Defpoints
100
AcDbPoint
 10
1159.84
 20
6.84
 30
0.0
  0
POINT
  5
4B
330
38
100
AcDbEntity
  8
Defpoints
100
AcDbPoint
 10
1160.0
 20
6.84
 30
0.0
  0
ENDBLK
  5
3A
330
38
100
AcDbEntity
  8
0
100
AcDbBlockEnd
  0
BLOCK
  5
3E
330
3D
100
AcDbEntity
  8
0
100
AcDbBlockBegin
  2
_CLOSEDFILLED
 70
0
 10
0.0
 20
0.0
 30
0.0
  3
_CLOSEDFILLED
  1

  0
SOLID
  5
40
330
3D
100
AcDbEntity
  8
0
  6
BYBLOCK
 62
0
100
AcDbTrace
 10
-1.0
 20
0.16439898372402537
 30
0.0
 11
0.0
 21
0.0
 31
0.0
 12
-1.0
 22
-0.16439898372402537
 32
0.0
 13
-1.0
 23
-0.16439898372402537
 33
0.0
  0
ENDBLK
  5
3F
330
3D
100
AcDbEntity
  8
0
100
AcDbBlockEnd
  0
BLOCK
  5
8F
330
8E
100
AcDbEntity
  8
0
100
AcDbBlockBegin
  2
*D2
 70
1
 10
0.0
 20
0.0
 30
0.0
  3
*D2
  1

  0
LINE
  5
91
330
8E
100
AcDbEntity
  8
0
100
AcDbLine
 10
1214.0
 20
3.88
 30
0.0
 11
1214.0
 21
3.88
 31
0.0
  0
LINE
  5
92
330
8E
100
AcDbEntity
  8
0
100
AcDbLine
 10
1214.2
 20
3.88
 30
0.0
 11
1214.2
 21
3.88
 31
0.0
  0
INSERT
  5
93
330
8E
100
AcDbEntity
  8
COTAS
100
AcDbBlockReference
  2
_CLOSEDFILLED
 10
1214.0
 20
3.88
 30
0.0
 41
0.09
 42
0.09
  0
INSERT
  5
95
330
8E
100
AcDbEntity
  8
COTAS
100
AcDbBlockReference
  2
_CLOSEDFILLED
 10
1214.2
 20
3.88
 30
0.0
 41
0.09
 42
0.09
 50
180.0
  0
LINE
  5
97
330
8E
100
AcDbEntity
  8
0
100
AcDbLine
 10
1213.91
 20
3.88
 30
0.0
 11
1213.82
 21
3.88
 31
0.0
  0
LINE
  5
98
330
8E
100
AcDbEntity
  8
0
100
AcDbLine
 10
1214.29
 20
3.88
 30
0.0
 11
1214.38
 21
3.88
 31
0.0
  0
LINE
  5
99
330
8E
100
AcDbEntity
  8
0
100
AcDbLine
 10
1214.0
 20
3.88
 30
0.0
 11
1214.2
 21
3.88
 31
0.0
  0
MTEXT
  5
9A
330
8E
100
AcDbEntity
  8
COTAS
100
AcDbMText
 10
1214.1
 20
4.57
 30
0.0
 40
0.13
 71
5
  1
0,2
  0
POINT
  5
9B
330
8E
100
AcDbEntity
  8
Defpoints
100
AcDbPoint
 10
1214.0
 20
3.88
 30
0.0
  0
POINT
  5
9C
330
8E
100
AcDbEntity
  8
Defpoints
100
AcDbPoint
 10
1214.0
 20
3.88
 30
0.0
  0
POINT
  5
9D
330
8E
100
AcDbEntity
  8
Defpoints
100
AcDbPoint
 10
1214.2
 20
3.88
 30
0.0
  0
ENDBLK
  5
90
330
8E
100
AcDbEntity
  8
0
100
AcDbBlockEnd
  0
ENDSEC
  0
SECTION
  2
ENTITIES
  0
LWPOLYLINE
  5
35
330
17
100
AcDbEntity
  8
VISTA
100
AcDbPolyline
 90
9
 70
1
 10
1159.84
 20
6.895999999882697
 10
1159.84
 20
7.035999999882698
 10
1159.8412
 20
7.035999999882698
 10
1159.8412
 20
6.897199999882698
 10
1159.9988
 20
6.897199999882698
 10
1159.9988
 20
7.035999999882698
 10
1160.0
 20
7.035999999882698
 10
1160.0
 20
6.895999999882697
 10
1159.84
 20
6.895999999882697
  0
LWPOLYLINE
  5
36
330
17
100
AcDbEntity
  8
VISTA
100
AcDbPolyline
 90
13
 70
1
 10
1159.830293
 20
6.884293
 10
1159.83
 20
6.885
 10
1159.83
 20
6.891
 10
1159.830293
 20
6.891707
 10
1159.831
 20
6.892
 10
1160.009
 20
6.892
 10
1160.009707
 20
6.891707
 10
1160.01
 20
6.891
 10
1160.01
 20
6.885
 10
1160.009707
 20
6.884293
 10
1160.009
 20
6.884
 10
1159.831
 20
6.884
 10
1159.830293
 20
6.884293
  0
DIMENSION
  5
37
330
17
100
AcDbEntity
  8
COTAS
100
AcDbDimension
280
0
  2
*D1
  3
Standard
 10
1159.84
 20
6.84
 30
0.0
 11
1159.92
 21
7.529999999999999
 31
0.0
 70
32
 71
5
  1
<>
100
AcDbAlignedDimension
 13
1159.84
 23
6.84
 33
0.0
 14
1160.0
 24
6.84
 34
0.0
 50
0.0
100
AcDbRotatedDimension
1001
ACAD
1000
DSTYLE
1002
{
1070
140
1040
0.13
1070
41
1040
0.09
1002
}
  0
TEXT
  5
4C
330
17
100
AcDbEntity
  8
TEXTOS
100
AcDbText
 10
1159.93
 20
7.12
 30
0.0
 40
0.0054
  1
BOCA RECEPTORA
100
AcDbText
  0
LINE
  5
4D
330
17
100
AcDbEntity
  8
CORTE
100
AcDbLine
 10
1214.0
 20
3.86
 30
0.0
 11
1214.0
 21
4.0355
 31
0.0
  0
LINE
  5
4E
330
17
100
AcDbEntity
  8
CORTE
100
AcDbLine
 10
1214.0
 20
4.0355
 30
0.0
 11
1214.000416
 21
4.0368025
 31
0.0
  0
LINE
  5
4F
330
17
100
AcDbEntity
  8
CORTE
100
AcDbLine
 10
1214.000416
 20
4.036802499999999
 30
0.0
 11
1214.000832
 21
4.038105
 31
0.0
  0
LINE
  5
50
330
17
100
AcDbEntity
  8
CORTE
100
AcDbLine
 10
1214.000832
 20
4.038105
 30
0.0
 11
1214.001075
 21
4.0383935
 31
0.0
  0
LINE
  5
51
330
17
100
AcDbEntity
  8
CORTE
100
AcDbLine
 10
1214.001075
 20
4.0383935
 30
0.0
 11
1214.001318
 21
4.038682
 31
0.0
  0
LINE
  5
52
330
17
100
AcDbEntity
  8
CORTE
100
AcDbLine
 10
1214.200001
 20
4.0355
 30
0.0
 11
1214.200001
 21
3.86
 31
0.0
  0
LINE
  5
53
330
17
100
AcDbEntity
  8
CORTE
100
AcDbLine
 10
1214.199585
 20
4.036802499999999
 30
0.0
 11
1214.200001
 21
4.0355
 31
0.0
  0
LINE
  5
54
330
17
100
AcDbEntity
  8
CORTE
100
AcDbLine
 10
1214.199169
 20
4.038105
 30
0.0
 11
1214.199585
 21
4.0368025
 31
0.0
  0
LINE
  5
55
330
17
100
AcDbEntity
  8
CORTE
100
AcDbLine
 10
1214.198926
 20
4.0383935
 30
0.0
 11
1214.199169
 21
4.038105
 31
0.0
  0
LINE
  5
56
330
17
100
AcDbEntity
  8
CORTE
100
AcDbLine
 10
1214.198683
 20
4.038682
 30
0.0
 11
1214.198926
 21
4.0383935
 31
0.0
  0
LINE
  5
57
330
17
100
AcDbEntity
  8
CORTE
100
AcDbLine
 10
1214.001318
 20
4.038682
 30
0.0
 11
1214.0016065
 21
4.0389254999999995
 31
0.0
  0
LINE
  5
58
330
17
100
AcDbEntity
  8
CORTE
100
AcDbLine
 10
1214.001895
 20
4.039169
 30
0.0
 11
1214.0016065
 21
4.0389254999999995
 31
0.0
  0
LINE
  5
59
330
17
100
AcDbEntity
  8
CORTE
100
AcDbLine
 10
1214.001895
 20
4.039169
 30
0.0
 11
1214.0031975
 21
4.0395845
 31
0.0
  0
LINE
  5
5A
330
17
100
AcDbEntity
  8
CORTE
100
AcDbLine
 10
1214.0045
 20
4.04
 30
0.0
 11
1214.0031975
 21
4.0395845
 31
0.0
  0
LINE
  5
5B
330
17
100
AcDbEntity
  8
CORTE
100
AcDbLine
 10
1214.0045
 20
4.04
 30
0.0
 11
1214.1
 21
4.04
 31
0.0
  0
LINE
  5
5C
330
17
100
AcDbEntity
  8
CORTE
100
AcDbLine
 10
1214.1955
 20
4.04
 30
0.0
 11
1214.1
 21
4.04
 31
0.0
  0
LINE
  5
5D
330
17
100
AcDbEntity
  8
CORTE
100
AcDbLine
 10
1214.1955
 20
4.04
 30
0.0
 11
1214.196803
 21
4.0395845
 31
0.0
  0
LINE
  5
5E
330
17
100
AcDbEntity
  8
CORTE
100
AcDbLine
 10
1214.198106
 20
4.039169
 30
0.0
 11
1214.196803
 21
4.0395845
 31
0.0
  0
LINE
  5
5F
330
17
100
AcDbEntity
  8
CORTE
100
AcDbLine
 10
1214.198106
 20
4.039169
 30
0.0
 11
1214.1983945
 21
4.0389254999999995
 31
0.0
  0
LINE
  5
60
330
17
100
AcDbEntity
  8
CORTE
100
AcDbLine
 10
1214.198683
 20
4.038682
 30
0.0
 11
1214.1983945
 21
4.0389255
 31
0.0
  0
LWPOLYLINE
  5
61
330
17
100
AcDbEntity
  8
VISTA
100
AcDbPolyline
 90
6
 70
1
 10
1213.976501
 20
4.06
 10
1213.9720005
 20
4.06
 10
1213.9675
 20
4.06
 10
1213.9675
 20
4.46
 10
1213.976501
 20
4.46
 10
1213.976501
 20
4.06
  0
LWPOLYLINE
  5
62
330
17
100
AcDbEntity
  8
VISTA
100
AcDbPolyline
 90
6
 70
1
 10
1214.002501
 20
4.06258
 10
1213.9980005
 20
4.06258
 10
1213.9935
 20
4.06258
 10
1213.9935
 20
4.46
 10
1214.002501
 20
4.46
 10
1214.002501
 20
4.06258
  0
LINE
  5
63
330
17
100
AcDbEntity
  8
VISTA
100
AcDbLine
 10
1213.923671
 20
4.020172
 30
0.0
 11
1213.9234545
 21
4.020428
 31
0.0
  0
LINE
  5
64
330
17
100
AcDbEntity
  8
VISTA
100
AcDbLine
 10
1213.9234545
 20
4.020428
 30
0.0
 11
1213.923238
 21
4.020684
 31
0.0
  0
LINE
  5
65
330
17
100
AcDbEntity
  8
VISTA
100
AcDbLine
 10
1213.923238
 20
4.020684
 30
0.0
 11
1213.922869
 21
4.0218419999999995
 31
0.0
  0
LINE
  5
66
330
17
100
AcDbEntity
  8
VISTA
100
AcDbLine
 10
1213.922869
 20
4.021842
 30
0.0
 11
1213.9225
 21
4.023
 31
0.0
  0
LINE
  5
67
330
17
100
AcDbEntity
  8
VISTA
100
AcDbLine
 10
1213.9225
 20
4.023
 30
0.0
 11
1213.9225
 21
4.0600000000000005
 31
0.0
  0
LINE
  5
68
330
17
100
AcDbEntity
  8
VISTA
100
AcDbLine
 10
1213.9225
 20
4.0600000000000005
 30
0.0
 11
1213.9225
 21
4.097
 31
0.0
  0
LINE
  5
69
330
17
100
AcDbEntity
  8
VISTA
100
AcDbLine
 10
1213.9225
 20
4.097
 30
0.0
 11
1213.922869
 21
4.098158
 31
0.0
  0
LINE
  5
6A
330
17
100
AcDbEntity
  8
VISTA
100
AcDbLine
 10
1213.922869
 20
4.098158000000001
 30
0.0
 11
1213.923238
 21
4.099316
 31
0.0
  0
LINE
  5
6B
330
17
100
AcDbEntity
  8
VISTA
100
AcDbLine
 10
1213.923238
 20
4.099316
 30
0.0
 11
1213.9234545
 21
4.099572
 31
0.0
  0
LINE
  5
6C
330
17
100
AcDbEntity
  8
VISTA
100
AcDbLine
 10
1213.9234545
 20
4.099572
 30
0.0
 11
1213.923671
 21
4.099828
 31
0.0
  0
LINE
  5
6D
330
17
100
AcDbEntity
  8
VISTA
100
AcDbLine
 10
1214.0465455
 20
4.020428
 30
0.0
 11
1214.046329
 21
4.020172
 31
0.0
  0
LINE
  5
6E
330
17
100
AcDbEntity
  8
VISTA
100
AcDbLine
 10
1214.046762
 20
4.020684
 30
0.0
 11
1214.0465455
 21
4.020428
 31
0.0
  0
LINE
  5
6F
330
17
100
AcDbEntity
  8
VISTA
100
AcDbLine
 10
1214.047131
 20
4.021842
 30
0.0
 11
1214.046762
 21
4.020684
 31
0.0
  0
LINE
  5
70
330
17
100
AcDbEntity
  8
VISTA
100
AcDbLine
 10
1214.0475
 20
4.023
 30
0.0
 11
1214.047131
 21
4.0218419999999995
 31
0.0
  0
LINE
  5
71
330
17
100
AcDbEntity
  8
VISTA
100
AcDbLine
 10
1214.0475
 20
4.0600000000000005
 30
0.0
 11
1214.0475
 21
4.023
 31
0.0
  0
LINE
  5
72
330
17
100
AcDbEntity
  8
VISTA
100
AcDbLine
 10
1214.0475
 20
4.097
 30
0.0
 11
1214.0475
 21
4.0600000000000005
 31
0.0
  0
LINE
  5
73
330
17
100
AcDbEntity
  8
VISTA
100
AcDbLine
 10
1214.047131
 20
4.098158000000001
 30
0.0
 11
1214.0475
 21
4.097
 31
0.0
  0
LINE
  5
74
330
17
100
AcDbEntity
  8
VISTA
100
AcDbLine
 10
1214.046762
 20
4.099316
 30
0.0
 11
1214.047131
 21
4.098158
 31
0.0
  0
LINE
  5
75
330
17
100
AcDbEntity
  8
VISTA
100
AcDbLine
 10
1214.0465455
 20
4.099572
 30
0.0
 11
1214.046762
 21
4.099316
 31
0.0
  0
LINE
  5
76
330
17
100
AcDbEntity
  8
VISTA
100
AcDbLine
 10
1214.046329
 20
4.099828
 30
0.0
 11
1214.0465455
 21
4.099572
 31
0.0
  0
LINE
  5
77
330
17
100
AcDbEntity
  8
VISTA
100
AcDbLine
 10
1213.9239275
 20
4.0199549999999995
 30
0.0
 11
1213.923671
 21
4.020172
 31
0.0
  0
LINE
  5
78
330
17
100
AcDbEntity
  8
VISTA
100
AcDbLine
 10
1213.9239275
 20
4.0199549999999995
 30
0.0
 11
1213.924184
 21
4.019738
 31
0.0
  0
LINE
  5
79
330
17
100
AcDbEntity
  8
VISTA
100
AcDbLine
 10
1213.9253415
 20
4.019369
 30
0.0
 11
1213.924184
 21
4.019738
 31
0.0
  0
LINE
  5
7A
330
17
100
AcDbEntity
  8
VISTA
100
AcDbLine
 10
1213.9253415
 20
4.019369
 30
0.0
 11
1213.926499
 21
4.019
 31
0.0
  0
LINE
  5
7B
330
17
100
AcDbEntity
  8
VISTA
100
AcDbLine
 10
1213.9849995
 20
4.019
 30
0.0
 11
1213.926499
 21
4.019
 31
0.0
  0
LINE
  5
7C
330
17
100
AcDbEntity
  8
VISTA
100
AcDbLine
 10
1213.9849995
 20
4.019
 30
0.0
 11
1214.0435
 21
4.019
 31
0.0
  0
LINE
  5
7D
330
17
100
AcDbEntity
  8
VISTA
100
AcDbLine
 10
1214.0446575
 20
4.019369
 30
0.0
 11
1214.0435
 21
4.019
 31
0.0
  0
LINE
  5
7E
330
17
100
AcDbEntity
  8
VISTA
100
AcDbLine
 10
1214.0446575
 20
4.019369
 30
0.0
 11
1214.045815
 21
4.019738
 31
0.0
  0
LINE
  5
7F
330
17
100
AcDbEntity
  8
VISTA
100
AcDbLine
 10
1214.046072
 20
4.019955
 30
0.0
 11
1214.045815
 21
4.019738
 31
0.0
  0
LINE
  5
80
330
17
100
AcDbEntity
  8
VISTA
100
AcDbLine
 10
1214.046072
 20
4.0199549999999995
 30
0.0
 11
1214.046329
 21
4.020172
 31
0.0
  0
LINE
  5
81
330
17
100
AcDbEntity
  8
VISTA
100
AcDbLine
 10
1213.923671
 20
4.099828
 30
0.0
 11
1213.9239275
 21
4.100045
 31
0.0
  0
LINE
  5
82
330
17
100
AcDbEntity
  8
VISTA
100
AcDbLine
 10
1213.924184
 20
4.100262
 30
0.0
 11
1213.9239275
 21
4.100045
 31
0.0
  0
LINE
  5
83
330
17
100
AcDbEntity
  8
VISTA
100
AcDbLine
 10
1213.924184
 20
4.100262
 30
0.0
 11
1213.9253415
 21
4.100631
 31
0.0
  0
LINE
  5
84
330
17
100
AcDbEntity
  8
VISTA
100
AcDbLine
 10
1213.926499
 20
4.101
 30
0.0
 11
1213.9253415
 21
4.100631
 31
0.0
  0
LINE
  5
85
330
17
100
AcDbEntity
  8
VISTA
100
AcDbLine
 10
1213.926499
 20
4.101
 30
0.0
 11
1213.9849995
 21
4.101
 31
0.0
  0
LINE
  5
86
330
17
100
AcDbEntity
  8
VISTA
100
AcDbLine
 10
1214.0435
 20
4.101
 30
0.0
 11
1213.9849995
 21
4.101
 31
0.0
  0
LINE
  5
87
330
17
100
AcDbEntity
  8
VISTA
100
AcDbLine
 10
1214.0435
 20
4.101
 30
0.0
 11
1214.0446575
 21
4.100631
 31
0.0
  0
LINE
  5
88
330
17
100
AcDbEntity
  8
VISTA
100
AcDbLine
 10
1214.045815
 20
4.100262
 30
0.0
 11
1214.0446575
 21
4.100631
 31
0.0
  0
LINE
  5
89
330
17
100
AcDbEntity
  8
VISTA
100
AcDbLine
 10
1214.045815
 20
4.100262
 30
0.0
 11
1214.046072
 21
4.100045
 31
0.0
  0
LINE
  5
8A
330
17
100
AcDbEntity
  8
VISTA
100
AcDbLine
 10
1214.046329
 20
4.099828
 30
0.0
 11
1214.046072
 21
4.100045
 31
0.0
  0
LWPOLYLINE
  5
8B
330
17
100
AcDbEntity
  8
VISTA
100
AcDbPolyline
 90
9
 70
1
 10
1214.0025
 20
4.10744
 10
1214.0025
 20
4.0944400000000005
 10
1214.0025
 20
4.08144
 10
1213.985
 20
4.08144
 10
1213.9675
 20
4.08144
 10
1213.9675
 20
4.0944400000000005
 10
1213.9675
 20
4.10744
 10
1213.985
 20
4.10744
 10
1214.0025
 20
4.10744
  0
LWPOLYLINE
  5
8C
330
17
100
AcDbEntity
  8
VISTA
100
AcDbPolyline
 90
41
 70
1
 10
1213.914433
 20
3.984642
 10
1213.914108
 20
3.985027
 10
1213.913554
 20
3.9867635000000003
 10
1213.913
 20
3.9885
 10
1213.913
 20
4.005
 10
1213.913
 20
4.0215
 10
1213.913554
 20
4.023237
 10
1213.914108
 20
4.024974
 10
1213.914433
 20
4.0253585
 10
1213.914758
 20
4.025743
 10
1213.915142
 20
4.0260675
 10
1213.915526
 20
4.026392
 10
1213.9172635
 20
4.026946000000001
 10
1213.919001
 20
4.0275
 10
1214.0030005
 20
4.0275
 10
1214.087
 20
4.0275
 10
1214.088737
 20
4.026946000000001
 10
1214.090474
 20
4.026392
 10
1214.0908585
 20
4.0260675
 10
1214.091243
 20
4.025743
 10
1214.0915675
 20
4.0253585
 10
1214.091892
 20
4.024974
 10
1214.092446
 20
4.023237
 10
1214.093
 20
4.0215
 10
1214.093
 20
4.005
 10
1214.093
 20
3.9885
 10
1214.092446
 20
3.9867635000000003
 10
1214.091892
 20
3.985027
 10
1214.0915675
 20
3.984642
 10
1214.091243
 20
3.984257
 10
1214.0908585
 20
3.9839325
 10
1214.090474
 20
3.983608
 10
1214.088737
 20
3.983054
 10
1214.087
 20
3.9825
 10
1214.0030005
 20
3.9825
 10
1213.919001
 20
3.9825
 10
1213.9172635
 20
3.983054
 10
1213.915526
 20
3.983608
 10
1213.915142
 20
3.9839325
 10
1213.914758
 20
3.984257
 10
1213.914433
 20
3.984642
  0
DIMENSION
  5
8D
330
17
100
AcDbEntity
  8
COTAS
100
AcDbDimension
280
0
  2
*D2
  3
Standard
 10
1214.0
 20
3.88
 30
0.0
 11
1214.1
 21
4.57
 31
0.0
 70
32
 71
5
  1
<>
100
AcDbAlignedDimension
 13
1214.0
 23
3.88
 33
0.0
 14
1214.2
 24
3.88
 34
0.0
 50
0.0
100
AcDbRotatedDimension
1001
ACAD
1000
DSTYLE
1002
{
1070
140
1040
0.13
1070
41
1040
0.09
1002
}
  0
LINE
  5
9E
330
17
100
AcDbEntity
  8
CORTE
100
AcDbLine
 10
1245.332
 20
8.032637
 30
0.0
 11
1245.3721384975206
 21
8.039995215284879
 31
0.0
  0
LINE
  5
9F
330
17
100
AcDbEntity
  8
CORTE
100
AcDbLine
 10
1245.332
 20
8.032637
 30
0.0
 11
1245.332
 21
8.03345
 31
0.0
  0
LINE
  5
A0
330
17
100
AcDbEntity
  8
CORTE
100
AcDbLine
 10
1245.068
 20
7.984236
 30
0.0
 11
1245.068
 21
7.98505
 31
0.0
  0
LINE
  5
A1
330
17
100
AcDbEntity
  8
CORTE
100
AcDbLine
 10
1245.757
 20
8.110553
 30
0.0
 11
1245.757
 21
8.111366
 31
0.0
  0
LINE
  5
A2
330
17
100
AcDbEntity
  8
CORTE
100
AcDbLine
 10
1245.383
 20
8.041986
 30
0.0
 11
1245.383
 21
8.0428
 31
0.0
  0
LWPOLYLINE
  5
A3
330
17
100
AcDbEntity
  8
CORTE
100
AcDbPolyline
 90
13
 70
1
 10
1245.0138
 20
7.8293
 10
1245.013214
 20
7.830715
 10
1245.013214
 20
7.881714
 10
1245.0138
 20
7.883129
 10
1245.015214
 20
7.883715
 10
1245.056214
 20
7.883715
 10
1245.057628
 20
7.883129
 10
1245.058214
 20
7.881714
 10
1245.058214
 20
7.830715
 10
1245.057628
 20
7.8293
 10
1245.056214
 20
7.828714
 10
1245.015214
 20
7.828714
 10
1245.0138
 20
7.8293
  0
LWPOLYLINE
  5
A4
330
17
100
AcDbEntity
  8
CORTE
100
AcDbPolyline
 90
13
 70
1
 10
1245.828086
 20
7.978586
 10
1245.8275
 20
7.98
 10
1245.8275
 20
8.031
 10
1245.828086
 20
8.032414
 10
1245.8295
 20
8.033
 10
1245.8705
 20
8.033
 10
1245.871914
 20
8.032414
 10
1245.8725
 20
8.031
 10
1245.8725
 20
7.98
 10
1245.871914
 20
7.978586
 10
1245.8705
 20
7.978
 10
1245.8295
 20
7.978
 10
1245.828086
 20
7.978586
  0
LWPOLYLINE
  5
A5
330
17
100
AcDbEntity
  8
CORTE
100
AcDbPolyline
 90
9
 70
1
 10
1245.830586
 20
7.762252
 10
1245.83
 20
7.763667
 10
1245.83
 20
7.979666
 10
1245.830586
 20
7.981081
 10
1245.832
 20
7.981667
 10
1245.89
 20
7.981667
 10
1245.89
 20
7.761666
 10
1245.832
 20
7.761666
 10
1245.830586
 20
7.762252
  0
LINE
  5
A6
330
17
100
AcDbEntity
  8
CORTE
100
AcDbLine
 10
1245.332
 20
7.944117
 30
0.0
 11
1245.3737133084096
 21
7.951763833854669
 31
0.0
  0
LINE
  5
A7
330
17
100
AcDbEntity
  8
CORTE
100
AcDbLine
 10
1245.332
 20
7.944117
 30
0.0
 11
1245.332
 21
8.02545
 31
0.0
  0
LINE
  5
A8
330
17
100
AcDbEntity
  8
CORTE
100
AcDbLine
 10
1245.068
 20
7.895717
 30
0.0
 11
1245.068
 21
7.97705
 31
0.0
  0
LINE
  5
A9
330
17
100
AcDbEntity
  8
CORTE
100
AcDbLine
 10
1245.757
 20
8.022033
 30
0.0
 11
1245.757
 21
8.103367
 31
0.0
  0
LINE
  5
AA
330
17
100
AcDbEntity
  8
CORTE
100
AcDbLine
 10
1245.383
 20
7.953466
 30
0.0
 11
1245.383
 21
8.0348
 31
0.0
  0
LWPOLYLINE
  5
AB
330
17
100
AcDbEntity
  8
VISTA
100
AcDbPolyline
 90
5
 70
1
 10
1245.109
 20
7.7
 10
1245.095
 20
7.7
 10
1245.095
 20
8.4
 10
1245.109
 20
8.4
 10
1245.109
 20
7.7
  0
LWPOLYLINE
  5
AC
330
17
100
AcDbEntity
  8
VISTA
100
AcDbPolyline
 90
5
 70
1
 10
1245.291
 20
8.4
 10
1245.305
 20
8.4
 10
1245.305
 20
7.7
 10
1245.291
 20
7.7
 10
1245.291
 20
8.4
  0
LWPOLYLINE
  5
AD
330
17
100
AcDbEntity
  8
VISTA
100
AcDbPolyline
 90
13
 70
1
 10
1245.026607
 20
7.970661
 10
1245.026767
 20
7.971409
 10
1245.02741
 20
7.971825
 10
1245.0860033167783
 20
7.982567058065615
 10
1245.0867083167575
 20
7.982401058096027
 10
1245.0869993167812
 20
7.981742058075601
 10
1245.0869993167812
 20
7.967487058075601
 10
1245.0867083167575
 20
7.966723058153152
 10
1245.0860033167783
 20
7.966300058122375
 10
1245.030291
 20
7.956087
 10
1245.0295454999914
 20
7.956248
 10
1245.029131
 20
7.956891
 10
1245.026607
 20
7.970661
  0
LWPOLYLINE
  5
AE
330
17
100
AcDbEntity
  8
VISTA
100
AcDbPolyline
 90
13
 70
1
 10
1245.3139956832217
 20
8.008099941877626
 10
1245.3132916831853
 20
8.008264941961098
 10
1245.3129996832188
 20
8.008923941981672
 10
1245.3129996832188
 20
8.0231789419244
 10
1245.3132916831853
 20
8.023942941903972
 10
1245.3139956832217
 20
8.024364941991145
 10
1245.3697350004827
 20
8.0345845001207
 10
1245.3704615000631
 20
8.034420500063222
 10
1245.370869
 20
8.033776
 10
1245.373393
 20
8.020005
 10
1245.373233
 20
8.019257
 10
1245.37259
 20
8.018842
 10
1245.3139956832217
 20
8.008099941877626
  0
LWPOLYLINE
  5
AF
330
17
100
AcDbEntity
  8
VISTA
100
AcDbPolyline
 90
5
 70
1
 10
1245.41
 20
8.4
 10
1245.424
 20
8.4
 10
1245.424
 20
7.7
 10
1245.41
 20
7.7
 10
1245.41
 20
8.4
  0
LWPOLYLINE
  5
B0
330
17
100
AcDbEntity
  8
VISTA
100
AcDbPolyline
 90
5
 70
1
 10
1245.716
 20
8.4
 10
1245.73
 20
8.4
 10
1245.73
 20
7.7
 10
1245.716
 20
7.7
 10
1245.716
 20
8.4
  0
LWPOLYLINE
  5
B1
330
17
100
AcDbEntity
  8
VISTA
100
AcDbPolyline
 90
13
 70
1
 10
1245.342508
 20
8.028577
 10
1245.342669
 20
8.029325
 10
1245.343312
 20
8.02974
 10
1245.401004316773
 20
8.040318058047594
 10
1245.401709316759
 20
8.040152058029534
 10
1245.4020003167932
 20
8.039493058019032
 10
1245.4020003167932
 20
8.025237058096083
 10
1245.401709316759
 20
8.02447405806799
 10
1245.401004316773
 20
8.024051058047595
 10
1245.3461914999814
 20
8.014002
 10
1245.345447
 20
8.014163
 10
1245.345033
 20
8.014806
 10
1245.342508
 20
8.028577
  0
LWPOLYLINE
  5
B2
330
17
100
AcDbEntity
  8
VISTA
100
AcDbPolyline
 90
13
 70
1
 10
1245.738996683227
 20
8.086015941914116
 10
1245.738291683241
 20
8.086181941932011
 10
1245.7379996832453
 20
8.086840941942443
 10
1245.7379996832453
 20
8.101095941903917
 10
1245.738291683241
 20
8.10185894193201
 10
1245.738996683227
 20
8.102282941914115
 10
1245.7938435005897
 20
8.112337500117912
 10
1245.79456250006
 20
8.112172500060046
 10
1245.794967
 20
8.111527
 10
1245.797492
 20
8.097756
 10
1245.797331
 20
8.097009
 10
1245.796689
 20
8.096593
 10
1245.738996683227
 20
8.086015941914116
  0
LWPOLYLINE
  5
B3
330
17
100
AcDbEntity
  8
VISTA
100
AcDbPolyline
 90
9
 70
1
 10
1245.0125
 20
8.228
 10
1245.013086
 20
8.229414
 10
1245.0145
 20
8.23
 10
1245.0355
 20
8.23
 10
1245.036914
 20
8.229414
 10
1245.0375
 20
8.228
 10
1245.0375
 20
7.7
 10
1245.0125
 20
7.7
 10
1245.0125
 20
8.228
  0
LWPOLYLINE
  5
B4
330
17
100
AcDbEntity
  8
VISTA
100
AcDbPolyline
 90
9
 70
1
 10
1245.7925
 20
8.228
 10
1245.793086
 20
8.229414
 10
1245.7945
 20
8.23
 10
1245.8155
 20
8.23
 10
1245.816914
 20
8.229414
 10
1245.8175
 20
8.228
 10
1245.8175
 20
7.7
 10
1245.7925
 20
7.7
 10
1245.7925
 20
8.228
  0
LWPOLYLINE
  5
B5
330
17
100
AcDbEntity
  8
VISTA
100
AcDbPolyline
 90
13
 70
1
 10
1245.001293
 20
7.930293
 10
1245.001
 20
7.931
 10
1245.001
 20
8.249001
 10
1245.001293
 20
8.249707
 10
1245.002
 20
8.25
 10
1245.012
 20
8.25
 10
1245.012707
 20
8.249707
 10
1245.013
 20
8.249001
 10
1245.013
 20
7.931
 10
1245.012707
 20
7.930293
 10
1245.012
 20
7.93
 10
1245.002
 20
7.93
 10
1245.001293
 20
7.930293
  0
LWPOLYLINE
  5
B6
330
17
100
AcDbEntity
  8
VISTA
100
AcDbPolyline
 90
13
 70
1
 10
1245.817293
 20
7.930293
 10
1245.817
 20
7.931
 10
1245.817
 20
8.249001
 10
1245.817293
 20
8.249707
 10
1245.818
 20
8.25
 10
1245.828
 20
8.25
 10
1245.828707
 20
8.249707
 10
1245.829
 20
8.249001
 10
1245.829
 20
7.931
 10
1245.828707
 20
7.930293
 10
1245.828
 20
7.93
 10
1245.818
 20
7.93
 10
1245.817293
 20
7.930293
  0
TEXT
  5
B7
330
17
100
AcDbEntity
  8
TEXTOS
100
AcDbText
 10
1245.35
 20
8.3
 30
0.0
 40
0.013500000000000002
  1
CONDUCTOS INDEPENDIENTES
100
AcDbText
  0
ENDSEC
  0
SECTION
  2
OBJECTS
  0
DICTIONARY
  5
A
330
0
100
AcDbDictionary
281
1
  3
ACAD_COLOR
350
B
  3
ACAD_GROUP
350
C
  3
ACAD_LAYOUT
350
D
  3
ACAD_MATERIAL
350
E
  3
ACAD_MLEADERSTYLE
350
F
  3
ACAD_MLINESTYLE
350
10
  3
ACAD_PLOTSETTINGS
350
11
  3
ACAD_PLOTSTYLENAME
350
12
  3
ACAD_SCALELIST
350
14
  3
ACAD_TABLESTYLE
350
15
  3
ACAD_VISUALSTYLE
350
16
  3
EZDXF_META
350
2D
  0
DICTIONARY
  5
B
330
A
100
AcDbDictionary
281
1
  0
DICTIONARY
  5
C
330
A
100
AcDbDictionary
281
1
  0
DICTIONARY
  5
D
330
A
100
AcDbDictionary
281
1
  3
Model
350
1A
  3
Layout1
350
1E
  0
DICTIONARY
  5
E
330
A
100
AcDbDictionary
281
1
  3
ByBlock
350
1F
  3
ByLayer
350
20
  3
Global
350
21
  0
DICTIONARY
  5
F
330
A
100
AcDbDictionary
281
1
  3
Standard
350
2C
  0
DICTIONARY
  5
10
330
A
100
AcDbDictionary
281
1
  3
Standard
350
22
  0
DICTIONARY
  5
11
330
A
100
AcDbDictionary
281
1
  0
ACDBDICTIONARYWDFLT
  5
12
330
A
100
AcDbDictionary
281
1
  3
Normal
350
13
100
AcDbDictionaryWithDefault
340
13
  0
ACDBPLACEHOLDER
  5
13
330
12
  0
DICTIONARY
  5
14
330
A
100
AcDbDictionary
281
1
  0
DICTIONARY
  5
15
330
A
100
AcDbDictionary
281
1
  0
DICTIONARY
  5
16
330
A
100
AcDbDictionary
281
1
  0
LAYOUT
  5
1A
330
D
100
AcDbPlotSettings
  1

  4
A3
  6

 40
7.5
 41
20.0
 42
7.5
 43
20.0
 44
420.0
 45
297.0
 46
0.0
 47
0.0
 48
0.0
 49
0.0
140
0.0
141
0.0
142
1.0
143
1.0
 70
1024
 72
1
 73
0
 74
5
  7

 75
16
 76
0
 77
2
 78
300
147
1.0
148
0.0
149
0.0
100
AcDbLayout
  1
Model
 70
1
 71
0
 10
0.0
 20
0.0
 11
420.0
 21
297.0
 12
0.0
 22
0.0
 32
0.0
 14
1e+20
 24
1e+20
 34
1e+20
 15
-1e+20
 25
-1e+20
 35
-1e+20
146
0.0
 13
0.0
 23
0.0
 33
0.0
 16
1.0
 26
0.0
 36
0.0
 17
0.0
 27
1.0
 37
0.0
 76
1
330
17
  0
LAYOUT
  5
1E
330
D
100
AcDbPlotSettings
  1

  4
A3
  6

 40
7.5
 41
20.0
 42
7.5
 43
20.0
 44
420.0
 45
297.0
 46
0.0
 47
0.0
 48
0.0
 49
0.0
140
0.0
141
0.0
142
1.0
143
1.0
 70
0
 72
1
 73
0
 74
5
  7

 75
16
 76
0
 77
2
 78
300
147
1.0
148
0.0
149
0.0
100
AcDbLayout
  1
Layout1
 70
1
 71
1
 10
0.0
 20
0.0
 11
420.0
 21
297.0
 12
0.0
 22
0.0
 32
0.0
 14
1e+20
 24
1e+20
 34
1e+20
 15
-1e+20
 25
-1e+20
 35
-1e+20
146
0.0
 13
0.0
 23
0.0
 33
0.0
 16
1.0
 26
0.0
 36
0.0
 17
0.0
 27
1.0
 37
0.0
 76
1
330
1B
  0
MATERIAL
  5
1F
102
{ACAD_REACTORS
330
E
102
}
330
E
100
AcDbMaterial
  1
ByBlock
  2

 70
0
 40
1.0
 71
1
 41
1.0
 91
-1023410177
 42
1.0
 72
1
  3

 73
1
 74
1
 75
1
 44
0.5
 73
0
 45
1.0
 46
1.0
 77
1
  4

 78
1
 79
1
170
1
 48
1.0
171
1
  6

172
1
173
1
174
1
140
1.0
141
1.0
175
1
  7

176
1
177
1
178
1
143
1.0
179
1
  8

270
1
271
1
272
1
145
1.0
146
1.0
273
1
  9

274
1
275
1
276
1
 42
1.0
 72
1
  3

 73
1
 74
1
 75
1
 94
63
  0
MATERIAL
  5
20
102
{ACAD_REACTORS
330
E
102
}
330
E
100
AcDbMaterial
  1
ByLayer
  2

 70
0
 40
1.0
 71
1
 41
1.0
 91
-1023410177
 42
1.0
 72
1
  3

 73
1
 74
1
 75
1
 44
0.5
 73
0
 45
1.0
 46
1.0
 77
1
  4

 78
1
 79
1
170
1
 48
1.0
171
1
  6

172
1
173
1
174
1
140
1.0
141
1.0
175
1
  7

176
1
177
1
178
1
143
1.0
179
1
  8

270
1
271
1
272
1
145
1.0
146
1.0
273
1
  9

274
1
275
1
276
1
 42
1.0
 72
1
  3

 73
1
 74
1
 75
1
 94
63
  0
MATERIAL
  5
21
102
{ACAD_REACTORS
330
E
102
}
330
E
100
AcDbMaterial
  1
Global
  2

 70
0
 40
1.0
 71
1
 41
1.0
 91
-1023410177
 42
1.0
 72
1
  3

 73
1
 74
1
 75
1
 44
0.5
 73
0
 45
1.0
 46
1.0
 77
1
  4

 78
1
 79
1
170
1
 48
1.0
171
1
  6

172
1
173
1
174
1
140
1.0
141
1.0
175
1
  7

176
1
177
1
178
1
143
1.0
179
1
  8

270
1
271
1
272
1
145
1.0
146
1.0
273
1
  9

274
1
275
1
276
1
 42
1.0
 72
1
  3

 73
1
 74
1
 75
1
 94
63
  0
MLINESTYLE
  5
22
102
{ACAD_REACTORS
330
10
102
}
330
10
100
AcDbMlineStyle
  2
Standard
 70
0
  3

 62
256
 51
90.0
 52
90.0
 71
2
 49
0.5
 62
256
  6
BYLAYER
 49
-0.5
 62
256
  6
BYLAYER
  0
MLEADERSTYLE
  5
2C
102
{ACAD_REACTORS
330
F
102
}
330
F
100
AcDbMLeaderStyle
179
2
170
2
171
1
172
0
 90
2
 40
0.0
 41
0.0
173
1
 91
-1056964608
 92
-2
290
1
 42
2.0
291
1
 43
8.0
  3
Standard
 44
4.0
300

342
29
174
1
175
1
176
0
178
1
 93
-1056964608
 45
4.0
292
0
297
0
 46
4.0
 94
-1056964608
 47
1.0
 49
1.0
140
1.0
294
1
141
0.0
177
0
142
1.0
295
0
296
0
143
3.75
271
0
272
9
273
9
  0
DICTIONARY
  5
2D
330
A
100
AcDbDictionary
280
1
281
1
  3
CREATED_BY_EZDXF
350
2E
  3
WRITTEN_BY_EZDXF
350
BA
  0
DICTIONARYVAR
  5
2E
330
2D
100
DictionaryVariables
280
0
  1
1.4.4 @ 2026-09-10T18:24:44.680048+00:00
  0
DICTIONARYVAR
  5
BA
330
2D
100
DictionaryVariables
280
0
  1
1.4.4 @ 2026-09-10T18:24:44.741063+00:00
  0
ENDSEC
  0
EOF
