  0
SECTION
  2
HEADER
  9
$ACADVER
  1
AC1024
  9
$ACADMAINTVER
 70
6
  9
$DWGCODEPAGE
  3
ANSI_1252
  9
$LASTSAVEDBY
  1
ezdxf
  9
$INSBASE
 10
0.0
 20
0.0
 30
0.0
  9
$EXTMIN
 10
1e+20
 20
1e+20
 30
1e+20
  9
$EXTMAX
 10
-1e+20
 20
-1e+20
 30
-1e+20
  9
$LIMMIN
 10
0.0
 20
0.0
  9
$LIMMAX
 10
420.0
 20
297.0
  9
$ORTHOMODE
 70
0
  9
$REGENMODE
 70
1
  9
$FILLMODE
 70
1
  9
$QTEXTMODE
 70
0
  9
$MIRRTEXT
 70
1
  9
$LTSCALE
 40
1.0
  9
$ATTMODE
 70
1
  9
$TEXTSIZE
 40
2.5
  9
$TRACEWID
 40
1.0
  9
$TEXTSTYLE
  7
Standard
  9
$CLAYER
  8
0
  9
$CELTYPE
  6
ByLayer
  9
$CECOLOR
 62
256
  9
$CELTSCALE
 40
1.0
  9
$DISPSILH
 70
0
  9
$DIMSCALE
 40
1.0
  9
$DIMASZ
 40
2.5
  9
$DIMEXO
 40
0.625
  9
$DIMDLI
 40
3.75
  9
$DIMRND
 40
0.0
  9
$DIMDLE
 40
0.0
  9
$DIMEXE
 40
1.25
  9
$DIMTP
 40
0.0
  9
$DIMTM
 40
0.0
  9
$DIMTXT
 40
2.5
  9
$DIMCEN
 40
2.5
  9
$DIMTSZ
 40
0.0
  9
$DIMTOL
 70
0
  9
$DIMLIM
 70
0
  9
$DIMTIH
 70
0
  9
$DIMTOH
 70
0
  9
$DIMSE1
 70
0
  9
$DIMSE2
 70
0
  9
$DIMTAD
 70
1
  9
$DIMZIN
 70
8
  9
$DIMBLK
  1

  9
$DIMASO
 70
1
  9
$DIMSHO
 70
1
  9
$DIMPOST
  1

  9
$DIMAPOST
  1

  9
$DIMALT
 70
0
  9
$DIMALTD
 70
3
  9
$DIMALTF
 40
0.03937007874
  9
$DIMLFAC
 40
1.0
  9
$DIMTOFL
 70
1
  9
$DIMTVP
 40
0.0
  9
$DIMTIX
 70
0
  9
$DIMSOXD
 70
0
  9
$DIMSAH
 70
0
  9
$DIMBLK1
  1

  9
$DIMBLK2
  1

  9
$DIMSTYLE
  2
ISO-25
  9
$DIMCLRD
 70
0
  9
$DIMCLRE
 70
0
  9
$DIMCLRT
 70
0
  9
$DIMTFAC
 40
1.0
  9
$DIMGAP
 40
0.625
  9
$DIMJUST
 70
0
  9
$DIMSD1
 70
0
  9
$DIMSD2
 70
0
  9
$DIMTOLJ
 70
0
  9
$DIMTZIN
 70
8
  9
$DIMALTZ
 70
0
  9
$DIMALTTZ
 70
0
  9
$DIMUPT
 70
0
  9
$DIMDEC
 70
2
  9
$DIMTDEC
 70
2
  9
$DIMALTU
 70
2
  9
$DIMALTTD
 70
3
  9
$DIMTXSTY
  7
Standard
  9
$DIMAUNIT
 70
0
  9
$DIMADEC
 70
0
  9
$DIMALTRND
 40
0.0
  9
$DIMAZIN
 70
0
  9
$DIMDSEP
 70
44
  9
$DIMATFIT
 70
3
  9
$DIMFRAC
 70
0
  9
$DIMLDRBLK
  1

  9
$DIMLUNIT
 70
2
  9
$DIMLWD
 70
-2
  9
$DIMLWE
 70
-2
  9
$DIMTMOVE
 70
0
  9
$DIMFXL
 40
1.0
  9
$DIMFXLON
 70
0
  9
$DIMJOGANG
 40
0.785398163397
  9
$DIMTFILL
 70
0
  9
$DIMTFILLCLR
 70
0
  9
$DIMARCSYM
 70
0
  9
$DIMLTYPE
  6

  9
$DIMLTEX1
  6

  9
$DIMLTEX2
  6

  9
$DIMTXTDIRECTION
 70
0
  9
$LUNITS
 70
2
  9
$LUPREC
 70
4
  9
$SKETCHINC
 40
1.0
  9
$FILLETRAD
 40
10.0
  9
$AUNITS
 70
0
  9
$AUPREC
 70
2
  9
$MENU
  1
.
  9
$ELEVATION
 40
0.0
  9
$PELEVATION
 40
0.0
  9
$THICKNESS
 40
0.0
  9
$LIMCHECK
 70
0
  9
$CHAMFERA
 40
0.0
  9
$CHAMFERB
 40
0.0
  9
$CHAMFERC
 40
0.0
  9
$CHAMFERD
 40
0.0
  9
$SKPOLY
 70
0
  9
$TDCREATE
 40
2461294.642175926
  9
$TDUCREATE
 40
2458532.153996898
  9
$TDUPDATE
 40
2461294.6421875
  9
$TDUUPDATE
 40
2458532.1544311
  9
$TDINDWG
 40
0.0
  9
$TDUSRTIMER
 40
0.0
  9
$USRTIMER
 70
1
  9
$ANGBASE
 50
0.0
  9
$ANGDIR
 70
0
  9
$PDMODE
 70
0
  9
$PDSIZE
 40
0.0
  9
$PLINEWID
 40
0.0
  9
$SPLFRAME
 70
0
  9
$SPLINETYPE
 70
6
  9
$SPLINESEGS
 70
8
  9
$HANDSEED
  5
1F6
  9
$SURFTAB1
 70
6
  9
$SURFTAB2
 70
6
  9
$SURFTYPE
 70
6
  9
$SURFU
 70
6
  9
$SURFV
 70
6
  9
$UCSBASE
  2

  9
$UCSNAME
  2

  9
$UCSORG
 10
0.0
 20
0.0
 30
0.0
  9
$UCSXDIR
 10
1.0
 20
0.0
 30
0.0
  9
$UCSYDIR
 10
0.0
 20
1.0
 30
0.0
  9
$UCSORTHOREF
  2

  9
$UCSORTHOVIEW
 70
0
  9
$UCSORGTOP
 10
0.0
 20
0.0
 30
0.0
  9
$UCSORGBOTTOM
 10
0.0
 20
0.0
 30
0.0
  9
$UCSORGLEFT
 10
0.0
 20
0.0
 30
0.0
  9
$UCSORGRIGHT
 10
0.0
 20
0.0
 30
0.0
  9
$UCSORGFRONT
 10
0.0
 20
0.0
 30
0.0
  9
$UCSORGBACK
 10
0.0
 20
0.0
 30
0.0
  9
$PUCSBASE
  2

  9
$PUCSNAME
  2

  9
$PUCSORG
 10
0.0
 20
0.0
 30
0.0
  9
$PUCSXDIR
 10
1.0
 20
0.0
 30
0.0
  9
$PUCSYDIR
 10
0.0
 20
1.0
 30
0.0
  9
$PUCSORTHOREF
  2

  9
$PUCSORTHOVIEW
 70
0
  9
$PUCSORGTOP
 10
0.0
 20
0.0
 30
0.0
  9
$PUCSORGBOTTOM
 10
0.0
 20
0.0
 30
0.0
  9
$PUCSORGLEFT
 10
0.0
 20
0.0
 30
0.0
  9
$PUCSORGRIGHT
 10
0.0
 20
0.0
 30
0.0
  9
$PUCSORGFRONT
 10
0.0
 20
0.0
 30
0.0
  9
$PUCSORGBACK
 10
0.0
 20
0.0
 30
0.0
  9
$USERI1
 70
0
  9
$USERI2
 70
0
  9
$USERI3
 70
0
  9
$USERI4
 70
0
  9
$USERI5
 70
0
  9
$USERR1
 40
0.0
  9
$USERR2
 40
0.0
  9
$USERR3
 40
0.0
  9
$USERR4
 40
0.0
  9
$USERR5
 40
0.0
  9
$WORLDVIEW
 70
1
  9
$SHADEDGE
 70
3
  9
$SHADEDIF
 70
70
  9
$TILEMODE
 70
1
  9
$MAXACTVP
 70
64
  9
$PINSBASE
 10
0.0
 20
0.0
 30
0.0
  9
$PLIMCHECK
 70
0
  9
$PEXTMIN
 10
1e+20
 20
1e+20
 30
1e+20
  9
$PEXTMAX
 10
-1e+20
 20
-1e+20
 30
-1e+20
  9
$PLIMMIN
 10
0.0
 20
0.0
  9
$PLIMMAX
 10
420.0
 20
297.0
  9
$UNITMODE
 70
0
  9
$VISRETAIN
 70
1
  9
$PLINEGEN
 70
0
  9
$PSLTSCALE
 70
1
  9
$TREEDEPTH
 70
3020
  9
$CMLSTYLE
  2
Standard
  9
$CMLJUST
 70
0
  9
$CMLSCALE
 40
20.0
  9
$PROXYGRAPHICS
 70
1
  9
$MEASUREMENT
 70
1
  9
$CELWEIGHT
370
-1
  9
$ENDCAPS
280
0
  9
$JOINSTYLE
280
0
  9
$LWDISPLAY
290
0
  9
$INSUNITS
 70
6
  9
$HYPERLINKBASE
  1

  9
$STYLESHEET
  1

  9
$XEDIT
290
1
  9
$CEPSNTYPE
380
0
  9
$PSTYLEMODE
290
1
  9
$FINGERPRINTGUID
  2
{F186C605-10B7-405C-9DF7-523A5AB7219A}
  9
$VERSIONGUID
  2
{3F6646C7-8E9A-4BEC-AE7D-6141BBF70D4A}
  9
$EXTNAMES
290
1
  9
$PSVPSCALE
 40
0.0
  9
$OLESTARTUP
290
0
  9
$SORTENTS
280
127
  9
$INDEXCTL
280
0
  9
$HIDETEXT
280
1
  9
$XCLIPFRAME
280
1
  9
$HALOGAP
280
0
  9
$OBSCOLOR
 70
257
  9
$OBSLTYPE
280
0
  9
$INTERSECTIONDISPLAY
280
0
  9
$INTERSECTIONCOLOR
 70
257
  9
$DIMASSOC
280
2
  9
$PROJECTNAME
  1

  9
$CAMERADISPLAY
290
0
  9
$LENSLENGTH
 40
50.0
  9
$CAMERAHEIGHT
 40
0.0
  9
$STEPSPERSEC
 40
24.0
  9
$STEPSIZE
 40
100.0
  9
$3DDWFPREC
 40
2.0
  9
$PSOLWIDTH
 40
0.005
  9
$PSOLHEIGHT
 40
0.08
  9
$LOFTANG1
 40
1.570796326795
  9
$LOFTANG2
 40
1.570796326795
  9
$LOFTMAG1
 40
0.0
  9
$LOFTMAG2
 40
0.0
  9
$LOFTPARAM
 70
7
  9
$LOFTNORMALS
280
1
  9
$LATITUDE
 40
37.795
  9
$LONGITUDE
 40
-122.394
  9
$NORTHDIRECTION
 40
0.0
  9
$TIMEZONE
 70
-8000
  9
$LIGHTGLYPHDISPLAY
280
1
  9
$TILEMODELIGHTSYNCH
280
1
  9
$CMATERIAL
347
20
  9
$SOLIDHIST
280
0
  9
$SHOWHIST
280
1
  9
$DWFFRAME
280
2
  9
$DGNFRAME
280
2
  9
$REALWORLDSCALE
290
1
  9
$INTERFERECOLOR
 62
256
  9
$CSHADOW
280
0
  9
$SHADOWPLANELOCATION
 40
0.0
  0
ENDSEC
  0
SECTION
  2
CLASSES
  0
CLASS
  1
ACDBDICTIONARYWDFLT
  2
AcDbDictionaryWithDefault
  3
ObjectDBX Classes
 90
0
 91
0
280
0
281
0
  0
CLASS
  1
SUN
  2
AcDbSun
  3
SCENEOE
 90
1153
 91
0
280
0
281
0
  0
CLASS
  1
VISUALSTYLE
  2
AcDbVisualStyle
  3
ObjectDBX Classes
 90
4095
 91
0
280
0
281
0
  0
CLASS
  1
MATERIAL
  2
AcDbMaterial
  3
ObjectDBX Classes
 90
1153
 91
0
280
0
281
0
  0
CLASS
  1
SCALE
  2
AcDbScale
  3
ObjectDBX Classes
 90
1153
 91
0
280
0
281
0
  0
CLASS
  1
TABLESTYLE
  2
AcDbTableStyle
  3
ObjectDBX Classes
 90
4095
 91
0
280
0
281
0
  0
CLASS
  1
MLEADERSTYLE
  2
AcDbMLeaderStyle
  3
ACDB_MLEADERSTYLE_CLASS
 90
4095
 91
0
280
0
281
0
  0
CLASS
  1
DICTIONARYVAR
  2
AcDbDictionaryVar
  3
ObjectDBX Classes
 90
0
 91
0
280
0
281
0
  0
CLASS
  1
CELLSTYLEMAP
  2
AcDbCellStyleMap
  3
ObjectDBX Classes
 90
1152
 91
0
280
0
281
0
  0
CLASS
  1
MENTALRAYRENDERSETTINGS
  2
AcDbMentalRayRenderSettings
  3
SCENEOE
 90
1024
 91
0
280
0
281
0
  0
CLASS
  1
ACDBDETAILVIEWSTYLE
  2
AcDbDetailViewStyle
  3
ObjectDBX Classes
 90
1025
 91
0
280
0
281
0
  0
CLASS
  1
ACDBSECTIONVIEWSTYLE
  2
AcDbSectionViewStyle
  3
ObjectDBX Classes
 90
1025
 91
0
280
0
281
0
  0
CLASS
  1
RASTERVARIABLES
  2
AcDbRasterVariables
  3
ISM
 90
0
 91
0
280
0
281
0
  0
CLASS
  1
ACDBPLACEHOLDER
  2
AcDbPlaceHolder
  3
ObjectDBX Classes
 90
0
 91
0
280
0
281
0
  0
CLASS
  1
LAYOUT
  2
AcDbLayout
  3
ObjectDBX Classes
 90
0
 91
0
280
0
281
0
  0
ENDSEC
  0
SECTION
  2
TABLES
  0
TABLE
  2
VPORT
  5
8
330
0
100
AcDbSymbolTable
 70
1
  0
VPORT
  5
23
330
8
100
AcDbSymbolTableRecord
100
AcDbViewportTableRecord
  2
*Active
 70
0
 10
0.0
 20
0.0
 11
1.0
 21
1.0
 12
0.0
 22
0.0
 13
0.0
 23
0.0
 14
0.5
 24
0.5
 15
0.5
 25
0.5
 16
0.0
 26
0.0
 36
1.0
 17
0.0
 27
0.0
 37
0.0
 40
1000.0
 41
1.34
 42
50.0
 43
0.0
 44
0.0
 50
0.0
 51
0.0
 71
0
 72
1000
 73
1
 74
3
 75
0
 76
0
 77
0
 78
0
281
0
 65
0
146
0.0
  0
ENDTAB
  0
TABLE
  2
LTYPE
  5
2
330
0
100
AcDbSymbolTable
 70
3
  0
LTYPE
  5
24
330
2
100
AcDbSymbolTableRecord
100
AcDbLinetypeTableRecord
  2
ByBlock
 70
0
  3

 72
65
 73
0
 40
0.0
  0
LTYPE
  5
25
330
2
100
AcDbSymbolTableRecord
100
AcDbLinetypeTableRecord
  2
ByLayer
 70
0
  3

 72
65
 73
0
 40
0.0
  0
LTYPE
  5
26
330
2
100
AcDbSymbolTableRecord
100
AcDbLinetypeTableRecord
  2
Continuous
 70
0
  3

 72
65
 73
0
 40
0.0
  0
ENDTAB
  0
TABLE
  2
LAYER
  5
1
330
0
100
AcDbSymbolTable
 70
8
  0
LAYER
  5
27
330
1
100
AcDbSymbolTableRecord
100
AcDbLayerTableRecord
  2
0
 70
0
 62
7
  6
Continuous
370
-3
390
13
347
21
  0
LAYER
  5
28
330
1
100
AcDbSymbolTableRecord
100
AcDbLayerTableRecord
  2
Defpoints
 70
0
 62
7
  6
Continuous
290
0
370
-3
390
13
347
21
  0
LAYER
  5
2F
330
1
100
AcDbSymbolTableRecord
100
AcDbLayerTableRecord
  2
CORTE
 70
0
 62
7
  6
Continuous
370
-3
390
13
347
21
  0
LAYER
  5
30
330
1
100
AcDbSymbolTableRecord
100
AcDbLayerTableRecord
  2
VISTA
 70
0
 62
8
  6
Continuous
370
-3
390
13
347
21
  0
LAYER
  5
31
330
1
100
AcDbSymbolTableRecord
100
AcDbLayerTableRecord
  2
COTAS
 70
0
 62
4
  6
Continuous
370
-3
390
13
347
21
  0
LAYER
  5
32
330
1
100
AcDbSymbolTableRecord
100
AcDbLayerTableRecord
  2
TEXTOS
 70
0
 62
7
  6
Continuous
370
-3
390
13
347
21
  0
LAYER
  5
33
330
1
100
AcDbSymbolTableRecord
100
AcDbLayerTableRecord
  2
EJES
 70
0
 62
3
  6
Continuous
370
-3
390
13
347
21
  0
LAYER
  5
34
330
1
100
AcDbSymbolTableRecord
100
AcDbLayerTableRecord
  2
SISTEMAS
 70
0
 62
5
  6
Continuous
370
-3
390
13
347
21
  0
ENDTAB
  0
TABLE
  2
STYLE
  5
5
330
0
100
AcDbSymbolTable
 70
1
  0
STYLE
  5
29
330
5
100
AcDbSymbolTableRecord
100
AcDbTextStyleTableRecord
  2
Standard
 70
0
 40
0.0
 41
1.0
 50
0.0
 71
0
 42
2.5
  3
txt
  4

  0
ENDTAB
  0
TABLE
  2
VIEW
  5
7
330
0
100
AcDbSymbolTable
 70
0
  0
ENDTAB
  0
TABLE
  2
UCS
  5
6
330
0
100
AcDbSymbolTable
 70
0
  0
ENDTAB
  0
TABLE
  2
APPID
  5
3
330
0
100
AcDbSymbolTable
 70
3
  0
APPID
  5
2A
330
3
100
AcDbSymbolTableRecord
100
AcDbRegAppTableRecord
  2
ACAD
 70
0
  0
APPID
  5
1F3
330
3
100
AcDbSymbolTableRecord
100
AcDbRegAppTableRecord
  2
HATCHBACKGROUNDCOLOR
 70
0
  0
APPID
  5
1F4
330
3
100
AcDbSymbolTableRecord
100
AcDbRegAppTableRecord
  2
EZDXF
 70
0
  0
ENDTAB
  0
TABLE
  2
DIMSTYLE
  5
4
330
0
100
AcDbSymbolTable
 70
1
100
AcDbDimStyleTable
  0
DIMSTYLE
105
2B
330
4
100
AcDbSymbolTableRecord
100
AcDbDimStyleTableRecord
  2
Standard
 70
0
 40
1.0
 41
2.5
 42
0.625
 43
3.75
 44
1.25
 45
0.0
 46
0.0
 47
0.0
 48
0.0
 49
2.5
140
2.5
141
2.5
142
0.0
143
0.03937007874
144
1.0
145
0.0
146
1.0
147
0.625
148
0.0
 69
0
 70
0
 71
0
 72
0
 73
0
 74
0
 75
0
 76
0
 77
1
 78
8
 79
3
170
0
171
3
172
1
173
0
174
0
175
0
176
0
177
0
178
0
179
2
271
2
272
2
273
2
274
3
275
0
276
0
277
2
278
44
279
0
280
0
281
0
282
0
283
0
284
8
285
0
286
0
288
0
289
3
290
0
371
-2
372
-2
  0
ENDTAB
  0
TABLE
  2
BLOCK_RECORD
  5
9
330
0
100
AcDbSymbolTable
 70
7
  0
BLOCK_RECORD
  5
17
330
9
100
AcDbSymbolTableRecord
100
AcDbBlockTableRecord
  2
*Model_Space
340
1A
 70
0
280
1
281
0
  0
BLOCK_RECORD
  5
1B
330
9
100
AcDbSymbolTableRecord
100
AcDbBlockTableRecord
  2
*Paper_Space
340
1E
 70
0
280
1
281
0
  0
BLOCK_RECORD
  5
1A3
330
9
100
AcDbSymbolTableRecord
100
AcDbBlockTableRecord
  2
*D1
340
0
 70
0
280
1
281
0
  0
BLOCK_RECORD
  5
1A8
330
9
100
AcDbSymbolTableRecord
100
AcDbBlockTableRecord
  2
_CLOSEDFILLED
340
0
 70
0
280
1
281
0
  0
BLOCK_RECORD
  5
1B7
330
9
100
AcDbSymbolTableRecord
100
AcDbBlockTableRecord
  2
*D2
340
0
 70
0
280
1
281
0
  0
BLOCK_RECORD
  5
1C7
330
9
100
AcDbSymbolTableRecord
100
AcDbBlockTableRecord
  2
*D3
340
0
 70
0
280
1
281
0
  0
BLOCK_RECORD
  5
1E4
330
9
100
AcDbSymbolTableRecord
100
AcDbBlockTableRecord
  2
*D4
340
0
 70
0
280
1
281
0
  0
ENDTAB
  0
ENDSEC
  0
SECTION
  2
BLOCKS
  0
BLOCK
  5
18
330
17
100
AcDbEntity
  8
0
100
AcDbBlockBegin
  2
*Model_Space
 70
0
 10
0.0
 20
0.0
 30
0.0
  3
*Model_Space
  1

  0
ENDBLK
  5
19
330
17
100
AcDbEntity
  8
0
100
AcDbBlockEnd
  0
BLOCK
  5
1C
330
1B
100
AcDbEntity
  8
0
100
AcDbBlockBegin
  2
*Paper_Space
 70
0
 10
0.0
 20
0.0
 30
0.0
  3
*Paper_Space
  1

  0
ENDBLK
  5
1D
330
1B
100
AcDbEntity
  8
0
100
AcDbBlockEnd
  0
BLOCK
  5
1A4
330
1A3
100
AcDbEntity
  8
0
100
AcDbBlockBegin
  2
*D1
 70
1
 10
0.0
 20
0.0
 30
0.0
  3
*D1
  1

  0
LINE
  5
1A6
330
1A3
100
AcDbEntity
  8
0
100
AcDbLine
 10
1294.15
 20
0.25
 30
0.0
 11
1294.15
 21
0.25
 31
0.0
  0
LINE
  5
1A7
330
1A3
100
AcDbEntity
  8
0
100
AcDbLine
 10
1301.9
 20
0.25
 30
0.0
 11
1301.9
 21
0.25
 31
0.0
  0
INSERT
  5
1AC
330
1A3
100
AcDbEntity
  8
COTAS
100
AcDbBlockReference
  2
_CLOSEDFILLED
 10
1294.15
 20
0.25
 30
0.0
 41
0.09
 42
0.09
 50
180.0
  0
INSERT
  5
1AE
330
1A3
100
AcDbEntity
  8
COTAS
100
AcDbBlockReference
  2
_CLOSEDFILLED
 10
1301.9
 20
0.25
 30
0.0
 41
0.09
 42
0.09
  0
LINE
  5
1B0
330
1A3
100
AcDbEntity
  8
0
100
AcDbLine
 10
1294.24
 20
0.25
 30
0.0
 11
1297.765
 21
0.25
 31
0.0
  0
LINE
  5
1B1
330
1A3
100
AcDbEntity
  8
0
100
AcDbLine
 10
1298.285
 20
0.25
 30
0.0
 11
1301.8100000000002
 21
0.25
 31
0.0
  0
MTEXT
  5
1B2
330
1A3
100
AcDbEntity
  8
COTAS
100
AcDbMText
 10
1298.025
 20
0.25
 30
0.0
 40
0.13
 71
5
  1
7,75
  0
POINT
  5
1B3
330
1A3
100
AcDbEntity
  8
Defpoints
100
AcDbPoint
 10
1294.15
 20
0.25
 30
0.0
  0
POINT
  5
1B4
330
1A3
100
AcDbEntity
  8
Defpoints
100
AcDbPoint
 10
1294.15
 20
0.25
 30
0.0
  0
POINT
  5
1B5
330
1A3
100
AcDbEntity
  8
Defpoints
100
AcDbPoint
 10
1301.9
 20
0.25
 30
0.0
  0
ENDBLK
  5
1A5
330
1A3
100
AcDbEntity
  8
0
100
AcDbBlockEnd
  0
BLOCK
  5
1A9
330
1A8
100
AcDbEntity
  8
0
100
AcDbBlockBegin
  2
_CLOSEDFILLED
 70
0
 10
0.0
 20
0.0
 30
0.0
  3
_CLOSEDFILLED
  1

  0
SOLID
  5
1AB
330
1A8
100
AcDbEntity
  8
0
  6
BYBLOCK
 62
0
100
AcDbTrace
 10
-1.0
 20
0.16439898372402537
 30
0.0
 11
0.0
 21
0.0
 31
0.0
 12
-1.0
 22
-0.16439898372402537
 32
0.0
 13
-1.0
 23
-0.16439898372402537
 33
0.0
  0
ENDBLK
  5
1AA
330
1A8
100
AcDbEntity
  8
0
100
AcDbBlockEnd
  0
BLOCK
  5
1B8
330
1B7
100
AcDbEntity
  8
0
100
AcDbBlockBegin
  2
*D2
 70
1
 10
0.0
 20
0.0
 30
0.0
  3
*D2
  1

  0
LINE
  5
1BA
330
1B7
100
AcDbEntity
  8
0
100
AcDbLine
 10
1302.6
 20
-6.1
 30
0.0
 11
1302.6
 21
-6.1
 31
0.0
  0
LINE
  5
1BB
330
1B7
100
AcDbEntity
  8
0
100
AcDbLine
 10
1302.6
 20
-9.0
 30
0.0
 11
1302.6
 21
-9.0
 31
0.0
  0
INSERT
  5
1BC
330
1B7
100
AcDbEntity
  8
COTAS
100
AcDbBlockReference
  2
_CLOSEDFILLED
 10
1302.6
 20
-6.1
 30
0.0
 41
0.09
 42
0.09
 50
270.0
  0
INSERT
  5
1BE
330
1B7
100
AcDbEntity
  8
COTAS
100
AcDbBlockReference
  2
_CLOSEDFILLED
 10
1302.6
 20
-9.0
 30
0.0
 41
0.09
 42
0.09
 50
90.0
  0
LINE
  5
1C0
330
1B7
100
AcDbEntity
  8
0
100
AcDbLine
 10
1302.6
 20
-6.01
 30
0.0
 11
1302.6
 21
-7.3549999999999995
 31
0.0
  0
LINE
  5
1C1
330
1B7
100
AcDbEntity
  8
0
100
AcDbLine
 10
1302.6
 20
-7.745
 30
0.0
 11
1302.6
 21
-9.09
 31
0.0
  0
MTEXT
  5
1C2
330
1B7
100
AcDbEntity
  8
COTAS
100
AcDbMText
 10
1302.6
 20
-7.55
 30
0.0
 40
0.13
 71
5
  1
2,9
 50
90.0
  0
POINT
  5
1C3
330
1B7
100
AcDbEntity
  8
Defpoints
100
AcDbPoint
 10
1302.6
 20
-6.1
 30
0.0
  0
POINT
  5
1C4
330
1B7
100
AcDbEntity
  8
Defpoints
100
AcDbPoint
 10
1302.6
 20
-6.1
 30
0.0
  0
POINT
  5
1C5
330
1B7
100
AcDbEntity
  8
Defpoints
100
AcDbPoint
 10
1302.6
 20
-9.0
 30
0.0
  0
ENDBLK
  5
1B9
330
1B7
100
AcDbEntity
  8
0
100
AcDbBlockEnd
  0
BLOCK
  5
1C8
330
1C7
100
AcDbEntity
  8
0
100
AcDbBlockBegin
  2
*D3
 70
1
 10
0.0
 20
0.0
 30
0.0
  3
*D3
  1

  0
LINE
  5
1CA
330
1C7
100
AcDbEntity
  8
0
100
AcDbLine
 10
1302.6
 20
-9.0
 30
0.0
 11
1302.6
 21
-9.0
 31
0.0
  0
LINE
  5
1CB
330
1C7
100
AcDbEntity
  8
0
100
AcDbLine
 10
1302.6
 20
-11.85
 30
0.0
 11
1302.6
 21
-11.85
 31
0.0
  0
INSERT
  5
1CC
330
1C7
100
AcDbEntity
  8
COTAS
100
AcDbBlockReference
  2
_CLOSEDFILLED
 10
1302.6
 20
-9.0
 30
0.0
 41
0.09
 42
0.09
 50
270.0
  0
INSERT
  5
1CE
330
1C7
100
AcDbEntity
  8
COTAS
100
AcDbBlockReference
  2
_CLOSEDFILLED
 10
1302.6
 20
-11.85
 30
0.0
 41
0.09
 42
0.09
 50
90.0
  0
LINE
  5
1D0
330
1C7
100
AcDbEntity
  8
0
100
AcDbLine
 10
1302.6
 20
-8.91
 30
0.0
 11
1302.6
 21
-10.165000000000001
 31
0.0
  0
LINE
  5
1D1
330
1C7
100
AcDbEntity
  8
0
100
AcDbLine
 10
1302.6
 20
-10.685
 30
0.0
 11
1302.6
 21
-11.94
 31
0.0
  0
MTEXT
  5
1D2
330
1C7
100
AcDbEntity
  8
COTAS
100
AcDbMText
 10
1302.6
 20
-10.425
 30
0.0
 40
0.13
 71
5
  1
2,85
 50
90.0
  0
POINT
  5
1D3
330
1C7
100
AcDbEntity
  8
Defpoints
100
AcDbPoint
 10
1302.6
 20
-9.0
 30
0.0
  0
POINT
  5
1D4
330
1C7
100
AcDbEntity
  8
Defpoints
100
AcDbPoint
 10
1302.6
 20
-9.0
 30
0.0
  0
POINT
  5
1D5
330
1C7
100
AcDbEntity
  8
Defpoints
100
AcDbPoint
 10
1302.6
 20
-11.85
 30
0.0
  0
ENDBLK
  5
1C9
330
1C7
100
AcDbEntity
  8
0
100
AcDbBlockEnd
  0
BLOCK
  5
1E5
330
1E4
100
AcDbEntity
  8
0
100
AcDbBlockBegin
  2
*D4
 70
1
 10
0.0
 20
0.0
 30
0.0
  3
*D4
  1

  0
LINE
  5
1E7
330
1E4
100
AcDbEntity
  8
0
100
AcDbLine
 10
1334.32
 20
3.25
 30
0.0
 11
1334.32
 21
3.25
 31
0.0
  0
LINE
  5
1E8
330
1E4
100
AcDbEntity
  8
0
100
AcDbLine
 10
1334.32
 20
4.300000190734863
 30
0.0
 11
1334.32
 21
4.300000190734863
 31
0.0
  0
INSERT
  5
1E9
330
1E4
100
AcDbEntity
  8
COTAS
100
AcDbBlockReference
  2
_CLOSEDFILLED
 10
1334.32
 20
3.25
 30
0.0
 41
0.09
 42
0.09
 50
270.0
  0
INSERT
  5
1EB
330
1E4
100
AcDbEntity
  8
COTAS
100
AcDbBlockReference
  2
_CLOSEDFILLED
 10
1334.32
 20
4.300000190734863
 30
0.0
 41
0.09
 42
0.09
 50
90.0
  0
LINE
  5
1ED
330
1E4
100
AcDbEntity
  8
0
100
AcDbLine
 10
1334.32
 20
3.34
 30
0.0
 11
1334.32
 21
3.515000095367432
 31
0.0
  0
LINE
  5
1EE
330
1E4
100
AcDbEntity
  8
0
100
AcDbLine
 10
1334.32
 20
4.035000095367431
 30
0.0
 11
1334.32
 21
4.210000190734863
 31
0.0
  0
MTEXT
  5
1EF
330
1E4
100
AcDbEntity
  8
COTAS
100
AcDbMText
 10
1334.32
 20
3.7750000953674316
 30
0.0
 40
0.13
 71
5
  1
1,05
 50
90.0
  0
POINT
  5
1F0
330
1E4
100
AcDbEntity
  8
Defpoints
100
AcDbPoint
 10
1334.32
 20
3.25
 30
0.0
  0
POINT
  5
1F1
330
1E4
100
AcDbEntity
  8
Defpoints
100
AcDbPoint
 10
1334.32
 20
3.25
 30
0.0
  0
POINT
  5
1F2
330
1E4
100
AcDbEntity
  8
Defpoints
100
AcDbPoint
 10
1334.32
 20
4.300000190734863
 30
0.0
  0
ENDBLK
  5
1E6
330
1E4
100
AcDbEntity
  8
0
100
AcDbBlockEnd
  0
ENDSEC
  0
SECTION
  2
ENTITIES
  0
LWPOLYLINE
  5
35
330
17
100
AcDbEntity
  8
VISTA
100
AcDbPolyline
 90
7
 70
1
 10
1301.9
 20
-13.4
 10
1302.059999
 20
-13.4
 10
1302.059999
 20
-12.004499
 10
1302.0555
 20
-12.0
 10
1301.904499
 20
-12.0
 10
1301.9
 20
-12.004499
 10
1301.9
 20
-13.4
  0
LWPOLYLINE
  5
36
330
17
100
AcDbEntity
  8
VISTA
100
AcDbPolyline
 90
6
 70
1
 10
1293.876318
 20
-0.143682
 10
1294.123682
 20
-0.143682
 10
1294.123682
 20
0.103682
 10
1293.8795
 20
0.105
 10
1293.875
 20
0.1005
 10
1293.876318
 20
-0.143682
  0
LWPOLYLINE
  5
37
330
17
100
AcDbEntity
  8
VISTA
100
AcDbPolyline
 90
9
 70
1
 10
1299.25
 20
-5.7955
 10
1299.254499
 20
-5.8
 10
1299.3855
 20
-5.8
 10
1299.389999
 20
-5.7955
 10
1299.389999
 20
-4.2045
 10
1299.3855
 20
-4.2
 10
1299.254499
 20
-4.2
 10
1299.25
 20
-4.2045
 10
1299.25
 20
-5.7955
  0
LWPOLYLINE
  5
38
330
17
100
AcDbEntity
  8
VISTA
100
AcDbPolyline
 90
9
 70
1
 10
1299.442999
 20
-4.35
 10
1300.197001
 20
-4.35
 10
1300.199999
 20
-4.347
 10
1300.199999
 20
-4.213
 10
1300.197001
 20
-4.21
 10
1299.442999
 20
-4.21
 10
1299.440001
 20
-4.213
 10
1299.440001
 20
-4.347
 10
1299.442999
 20
-4.35
  0
LWPOLYLINE
  5
39
330
17
100
AcDbEntity
  8
VISTA
100
AcDbPolyline
 90
9
 70
1
 10
1300.5
 20
-11.9955
 10
1300.504499
 20
-12.0
 10
1300.695501
 20
-12.0
 10
1300.700001
 20
-11.9955
 10
1300.700001
 20
-10.0045
 10
1300.695501
 20
-10.0
 10
1300.504499
 20
-10.0
 10
1300.5
 20
-10.0045
 10
1300.5
 20
-11.9955
  0
LWPOLYLINE
  5
3A
330
17
100
AcDbEntity
  8
VISTA
100
AcDbPolyline
 90
9
 70
1
 10
1300.5
 20
-11.9655
 10
1300.501896
 20
-11.969169
 10
1300.765501
 20
-11.969999
 10
1300.769169
 20
-11.968104
 10
1300.77
 20
-11.834499
 10
1300.768105
 20
-11.830831
 10
1300.504499
 20
-11.83
 10
1300.5
 20
-11.834499
 10
1300.5
 20
-11.9655
  0
LWPOLYLINE
  5
3B
330
17
100
AcDbEntity
  8
VISTA
100
AcDbPolyline
 90
9
 70
1
 10
1301.669998
 20
-11.9655
 10
1301.671894
 20
-11.969169
 10
1301.995499
 20
-11.969999
 10
1301.999168
 20
-11.968104
 10
1302.0
 20
-11.834499
 10
1301.998104
 20
-11.830831
 10
1301.6745
 20
-11.83
 10
1301.669998
 20
-11.834499
 10
1301.669998
 20
-11.9655
  0
LWPOLYLINE
  5
3C
330
17
100
AcDbEntity
  8
VISTA
100
AcDbPolyline
 90
9
 70
1
 10
1300.769999
 20
-11.9655
 10
1300.7745
 20
-11.969999
 10
1301.665499
 20
-11.969999
 10
1301.67
 20
-11.9655
 10
1301.67
 20
-11.834499
 10
1301.665499
 20
-11.83
 10
1300.7745
 20
-11.83
 10
1300.769999
 20
-11.834499
 10
1300.769999
 20
-11.9655
  0
LINE
  5
3D
330
17
100
AcDbEntity
  8
CORTE
100
AcDbLine
 10
1294.0012861683383
 20
-0.001355714309595453
 30
0.0
 11
1294.000831
 21
-0.001895
 31
0.0
  0
LINE
  5
3E
330
17
100
AcDbEntity
  8
CORTE
100
AcDbLine
 10
1294.0007766835506
 20
-0.002065269976596456
 30
0.0
 11
1294.000831
 21
-0.001895
 31
0.0
  0
LINE
  5
3F
330
17
100
AcDbEntity
  8
CORTE
100
AcDbLine
 10
1294.0007766835506
 20
-0.002065269976596456
 30
0.0
 11
1294.0
 21
-0.0045
 31
0.0
  0
LINE
  5
40
330
17
100
AcDbEntity
  8
CORTE
100
AcDbLine
 10
1294.0
 20
-0.01698428619190906
 30
0.0
 11
1294.0
 21
-0.0045
 31
0.0
  0
LINE
  5
41
330
17
100
AcDbEntity
  8
CORTE
100
AcDbLine
 10
1294.0
 20
-0.016984286191909063
 30
0.0
 11
1294.0
 21
-0.1955
 31
0.0
  0
LINE
  5
42
330
17
100
AcDbEntity
  8
CORTE
100
AcDbLine
 10
1294.0000543164495
 20
-0.19567026997659645
 30
0.0
 11
1294.0
 21
-0.1955
 31
0.0
  0
LINE
  5
43
330
17
100
AcDbEntity
  8
CORTE
100
AcDbLine
 10
1294.0000543164495
 20
-0.19567026997659645
 30
0.0
 11
1294.000831
 21
-0.198105
 31
0.0
  0
LINE
  5
44
330
17
100
AcDbEntity
  8
CORTE
100
AcDbLine
 10
1294.0008628316616
 20
-0.19814271430959546
 30
0.0
 11
1294.001318
 21
-0.198682
 31
0.0
  0
LINE
  5
45
330
17
100
AcDbEntity
  8
CORTE
100
AcDbLine
 10
1301.999168
 20
-0.001895
 30
0.0
 11
1301.9987137662988
 21
-0.001355714309595453
 31
0.0
  0
LINE
  5
46
330
17
100
AcDbEntity
  8
CORTE
100
AcDbLine
 10
1301.999168
 20
-0.001895
 30
0.0
 11
1301.9992223818122
 21
-0.002065269976596456
 31
0.0
  0
LINE
  5
47
330
17
100
AcDbEntity
  8
CORTE
100
AcDbLine
 10
1302.0
 20
-0.0045
 30
0.0
 11
1301.9992223818122
 21
-0.002065269976596456
 31
0.0
  0
LINE
  5
48
330
17
100
AcDbEntity
  8
CORTE
100
AcDbLine
 10
1302.0
 20
-0.0045
 30
0.0
 11
1302.0
 21
-0.01698428619190906
 31
0.0
  0
LINE
  5
49
330
17
100
AcDbEntity
  8
CORTE
100
AcDbLine
 10
1302.0
 20
-0.01698428619190906
 30
0.0
 11
1302.0
 21
-0.016984286191909063
 31
0.0
  0
LINE
  5
4A
330
17
100
AcDbEntity
  8
CORTE
100
AcDbLine
 10
1302.0
 20
-0.1955
 30
0.0
 11
1302.0
 21
-0.016984286191909063
 31
0.0
  0
LINE
  5
4B
330
17
100
AcDbEntity
  8
CORTE
100
AcDbLine
 10
1302.0
 20
-0.1955
 30
0.0
 11
1301.999945618188
 21
-0.19567026997659645
 31
0.0
  0
LINE
  5
4C
330
17
100
AcDbEntity
  8
CORTE
100
AcDbLine
 10
1301.999168
 20
-0.198105
 30
0.0
 11
1301.999945618188
 21
-0.19567026997659645
 31
0.0
  0
LINE
  5
4D
330
17
100
AcDbEntity
  8
CORTE
100
AcDbLine
 10
1301.998682
 20
-0.198682
 30
0.0
 11
1301.9991362337012
 21
-0.19814271430959546
 31
0.0
  0
LINE
  5
4E
330
17
100
AcDbEntity
  8
CORTE
100
AcDbLine
 10
1294.0013557143095
 20
-0.0012861683383483785
 30
0.0
 11
1294.001895
 21
-0.000831
 31
0.0
  0
LINE
  5
4F
330
17
100
AcDbEntity
  8
CORTE
100
AcDbLine
 10
1294.001895
 20
-0.000831
 30
0.0
 11
1294.002065204614
 21
-0.0007766835506519559
 31
0.0
  0
LINE
  5
50
330
17
100
AcDbEntity
  8
CORTE
100
AcDbLine
 10
1294.002065204614
 20
-0.0007766835506519559
 30
0.0
 11
1294.004499
 21
-0.0
 31
0.0
  0
LINE
  5
51
330
17
100
AcDbEntity
  8
CORTE
100
AcDbLine
 10
1294.004499
 20
-0.0
 30
0.0
 11
1294.5268129053827
 21
-0.0
 31
0.0
  0
LINE
  5
52
330
17
100
AcDbEntity
  8
CORTE
100
AcDbLine
 10
1294.5268129053827
 20
-0.0
 30
0.0
 11
1301.995501
 21
-0.0
 31
0.0
  0
LINE
  5
53
330
17
100
AcDbEntity
  8
CORTE
100
AcDbLine
 10
1301.995501
 20
-0.0
 30
0.0
 11
1301.995671139251
 21
-5.431644934804414e-05
 31
0.0
  0
LINE
  5
54
330
17
100
AcDbEntity
  8
CORTE
100
AcDbLine
 10
1301.995671139251
 20
-5.4316449348044125e-05
 30
0.0
 11
1301.998104
 21
-0.000831
 31
0.0
  0
LINE
  5
55
330
17
100
AcDbEntity
  8
CORTE
100
AcDbLine
 10
1301.9981417796723
 20
-0.0008628316616516216
 30
0.0
 11
1301.998682
 21
-0.001318
 31
0.0
  0
LINE
  5
56
330
17
100
AcDbEntity
  8
CORTE
100
AcDbLine
 10
1294.001895
 20
-0.199169
 30
0.0
 11
1294.0013557143095
 21
-0.19871383166165163
 31
0.0
  0
LINE
  5
57
330
17
100
AcDbEntity
  8
CORTE
100
AcDbLine
 10
1294.002065204614
 20
-0.19922331644934807
 30
0.0
 11
1294.001895
 21
-0.199169
 31
0.0
  0
LINE
  5
58
330
17
100
AcDbEntity
  8
CORTE
100
AcDbLine
 10
1294.004499
 20
-0.2
 30
0.0
 11
1294.002065204614
 21
-0.19922331644934807
 31
0.0
  0
LINE
  5
59
330
17
100
AcDbEntity
  8
CORTE
100
AcDbLine
 10
1294.5268129053827
 20
-0.2
 30
0.0
 11
1294.5268129053827
 21
-0.2
 31
0.0
  0
LINE
  5
5A
330
17
100
AcDbEntity
  8
CORTE
100
AcDbLine
 10
1294.5268129053827
 20
-0.2
 30
0.0
 11
1294.004499
 21
-0.2
 31
0.0
  0
LINE
  5
5B
330
17
100
AcDbEntity
  8
CORTE
100
AcDbLine
 10
1301.995501
 20
-0.2
 30
0.0
 11
1294.5268129053827
 21
-0.2
 31
0.0
  0
LINE
  5
5C
330
17
100
AcDbEntity
  8
CORTE
100
AcDbLine
 10
1301.995671139251
 20
-0.19994568355065195
 30
0.0
 11
1301.995501
 21
-0.2
 31
0.0
  0
LINE
  5
5D
330
17
100
AcDbEntity
  8
CORTE
100
AcDbLine
 10
1301.998104
 20
-0.199169
 30
0.0
 11
1301.995671139251
 21
-0.19994568355065195
 31
0.0
  0
LINE
  5
5E
330
17
100
AcDbEntity
  8
CORTE
100
AcDbLine
 10
1301.998682
 20
-0.198682
 30
0.0
 11
1301.9981417796723
 21
-0.19913716833834838
 31
0.0
  0
LINE
  5
5F
330
17
100
AcDbEntity
  8
CORTE
100
AcDbLine
 10
1293.9409662343173
 20
0.15826575092250922
 30
0.0
 11
1293.941319
 21
0.158682
 31
0.0
  0
LINE
  5
60
330
17
100
AcDbEntity
  8
CORTE
100
AcDbLine
 10
1293.9409662343173
 20
0.15826575092250922
 30
0.0
 11
1293.94083
 21
0.158105
 31
0.0
  0
LINE
  5
61
330
17
100
AcDbEntity
  8
CORTE
100
AcDbLine
 10
1293.9402319575645
 20
0.15622574723247232
 30
0.0
 11
1293.94083
 21
0.158105
 31
0.0
  0
LINE
  5
62
330
17
100
AcDbEntity
  8
CORTE
100
AcDbLine
 10
1293.9402319575645
 20
0.15622574723247232
 30
0.0
 11
1293.940001
 21
0.1555
 31
0.0
  0
LINE
  5
63
330
17
100
AcDbEntity
  8
CORTE
100
AcDbLine
 10
1293.940001
 20
-0.04000000000000008
 30
0.0
 11
1293.940001
 21
-0.04000000000000006
 31
0.0
  0
LINE
  5
64
330
17
100
AcDbEntity
  8
CORTE
100
AcDbLine
 10
1293.940001
 20
-0.04000000000000006
 30
0.0
 11
1293.940001
 21
0.1555
 31
0.0
  0
LINE
  5
65
330
17
100
AcDbEntity
  8
CORTE
100
AcDbLine
 10
1293.940001
 20
-0.04000000000000008
 30
0.0
 11
1293.940001
 21
-0.1155
 31
0.0
  0
LINE
  5
66
330
17
100
AcDbEntity
  8
CORTE
100
AcDbLine
 10
1293.9405990424355
 20
-0.11737925276752768
 30
0.0
 11
1293.940001
 21
-0.1155
 31
0.0
  0
LINE
  5
67
330
17
100
AcDbEntity
  8
CORTE
100
AcDbLine
 10
1293.9405990424355
 20
-0.11737925276752768
 30
0.0
 11
1293.94083
 21
-0.118105
 31
0.0
  0
LINE
  5
68
330
17
100
AcDbEntity
  8
CORTE
100
AcDbLine
 10
1293.9411827656827
 20
-0.11852124907749077
 30
0.0
 11
1293.94083
 21
-0.118105
 31
0.0
  0
LINE
  5
69
330
17
100
AcDbEntity
  8
CORTE
100
AcDbLine
 10
1293.9411827656827
 20
-0.11852124907749077
 30
0.0
 11
1293.941319
 21
-0.118682
 31
0.0
  0
LINE
  5
6A
330
17
100
AcDbEntity
  8
CORTE
100
AcDbLine
 10
1302.058681
 20
0.158682
 30
0.0
 11
1302.0590337656827
 21
0.15826575092250922
 31
0.0
  0
LINE
  5
6B
330
17
100
AcDbEntity
  8
CORTE
100
AcDbLine
 10
1302.05917
 20
0.158105
 30
0.0
 11
1302.0590337656827
 21
0.15826575092250922
 31
0.0
  0
LINE
  5
6C
330
17
100
AcDbEntity
  8
CORTE
100
AcDbLine
 10
1302.05917
 20
0.158105
 30
0.0
 11
1302.0597680424355
 21
0.15622574723247232
 31
0.0
  0
LINE
  5
6D
330
17
100
AcDbEntity
  8
CORTE
100
AcDbLine
 10
1302.059999
 20
0.1555
 30
0.0
 11
1302.0597680424355
 21
0.15622574723247232
 31
0.0
  0
LINE
  5
6E
330
17
100
AcDbEntity
  8
CORTE
100
AcDbLine
 10
1302.059999
 20
0.1555
 30
0.0
 11
1302.059999
 21
-0.04000000000000006
 31
0.0
  0
LINE
  5
6F
330
17
100
AcDbEntity
  8
CORTE
100
AcDbLine
 10
1302.059999
 20
-0.1155
 30
0.0
 11
1302.059999
 21
-0.04000000000000008
 31
0.0
  0
LINE
  5
70
330
17
100
AcDbEntity
  8
CORTE
100
AcDbLine
 10
1302.059999
 20
-0.1155
 30
0.0
 11
1302.0594009575645
 21
-0.11737925276752768
 31
0.0
  0
LINE
  5
71
330
17
100
AcDbEntity
  8
CORTE
100
AcDbLine
 10
1302.05917
 20
-0.118105
 30
0.0
 11
1302.0594009575645
 21
-0.11737925276752768
 31
0.0
  0
LINE
  5
72
330
17
100
AcDbEntity
  8
CORTE
100
AcDbLine
 10
1302.05917
 20
-0.118105
 30
0.0
 11
1302.0588172343173
 21
-0.11852124907749077
 31
0.0
  0
LINE
  5
73
330
17
100
AcDbEntity
  8
CORTE
100
AcDbLine
 10
1302.058681
 20
-0.118682
 30
0.0
 11
1302.0588172343173
 21
-0.11852124907749077
 31
0.0
  0
LINE
  5
74
330
17
100
AcDbEntity
  8
CORTE
100
AcDbLine
 10
1293.941319
 20
0.158682
 30
0.0
 11
1293.9417345276752
 21
0.15903332287822877
 31
0.0
  0
LINE
  5
75
330
17
100
AcDbEntity
  8
CORTE
100
AcDbLine
 10
1293.9417345276752
 20
0.15903332287822877
 30
0.0
 11
1293.941895
 21
0.159169
 31
0.0
  0
LINE
  5
76
330
17
100
AcDbEntity
  8
CORTE
100
AcDbLine
 10
1293.941895
 20
0.159169
 30
0.0
 11
1293.9437742527675
 21
0.1597684852398524
 31
0.0
  0
LINE
  5
77
330
17
100
AcDbEntity
  8
CORTE
100
AcDbLine
 10
1293.9437742527675
 20
0.1597684852398524
 30
0.0
 11
1293.9445
 21
0.16
 31
0.0
  0
LINE
  5
78
330
17
100
AcDbEntity
  8
CORTE
100
AcDbLine
 10
1293.9445
 20
0.16
 30
0.0
 11
1299.7957933579337
 21
0.16
 31
0.0
  0
LINE
  5
79
330
17
100
AcDbEntity
  8
CORTE
100
AcDbLine
 10
1299.7957933579337
 20
0.16
 30
0.0
 11
1302.0555
 21
0.16
 31
0.0
  0
LINE
  5
7A
330
17
100
AcDbEntity
  8
CORTE
100
AcDbLine
 10
1302.0555
 20
0.16
 30
0.0
 11
1302.0573792527675
 21
0.1594005147601476
 31
0.0
  0
LINE
  5
7B
330
17
100
AcDbEntity
  8
CORTE
100
AcDbLine
 10
1302.0573792527675
 20
0.1594005147601476
 30
0.0
 11
1302.058105
 21
0.159169
 31
0.0
  0
LINE
  5
7C
330
17
100
AcDbEntity
  8
CORTE
100
AcDbLine
 10
1302.058105
 20
0.159169
 30
0.0
 11
1302.0585205276752
 21
0.15881767712177122
 31
0.0
  0
LINE
  5
7D
330
17
100
AcDbEntity
  8
CORTE
100
AcDbLine
 10
1302.0585205276752
 20
0.15881767712177122
 30
0.0
 11
1302.058681
 21
0.158682
 31
0.0
  0
LINE
  5
7E
330
17
100
AcDbEntity
  8
CORTE
100
AcDbLine
 10
1293.9417345276752
 20
-0.11903332287822878
 30
0.0
 11
1293.941319
 21
-0.118682
 31
0.0
  0
LINE
  5
7F
330
17
100
AcDbEntity
  8
CORTE
100
AcDbLine
 10
1293.941895
 20
-0.119169
 30
0.0
 11
1293.9417345276752
 21
-0.11903332287822878
 31
0.0
  0
LINE
  5
80
330
17
100
AcDbEntity
  8
CORTE
100
AcDbLine
 10
1293.9437742527675
 20
-0.1197684852398524
 30
0.0
 11
1293.941895
 21
-0.119169
 31
0.0
  0
LINE
  5
81
330
17
100
AcDbEntity
  8
CORTE
100
AcDbLine
 10
1293.9445
 20
-0.12
 30
0.0
 11
1293.9437742527675
 21
-0.1197684852398524
 31
0.0
  0
LINE
  5
82
330
17
100
AcDbEntity
  8
CORTE
100
AcDbLine
 10
1299.7957933579337
 20
-0.12
 30
0.0
 11
1293.9445
 21
-0.12
 31
0.0
  0
LINE
  5
83
330
17
100
AcDbEntity
  8
CORTE
100
AcDbLine
 10
1302.0555
 20
-0.12
 30
0.0
 11
1299.7957933579337
 21
-0.12
 31
0.0
  0
LINE
  5
84
330
17
100
AcDbEntity
  8
CORTE
100
AcDbLine
 10
1302.0573792527675
 20
-0.1194005147601476
 30
0.0
 11
1302.0555
 21
-0.12
 31
0.0
  0
LINE
  5
85
330
17
100
AcDbEntity
  8
CORTE
100
AcDbLine
 10
1302.058105
 20
-0.119169
 30
0.0
 11
1302.0573792527675
 21
-0.1194005147601476
 31
0.0
  0
LINE
  5
86
330
17
100
AcDbEntity
  8
CORTE
100
AcDbLine
 10
1302.0585205276752
 20
-0.11881767712177121
 30
0.0
 11
1302.058105
 21
-0.119169
 31
0.0
  0
LINE
  5
87
330
17
100
AcDbEntity
  8
CORTE
100
AcDbLine
 10
1302.058681
 20
-0.118682
 30
0.0
 11
1302.0585205276752
 21
-0.11881767712177121
 31
0.0
  0
LINE
  5
88
330
17
100
AcDbEntity
  8
CORTE
100
AcDbLine
 10
1294.0012861683383
 20
-0.001355714309595453
 30
0.0
 11
1294.000831
 21
-0.001895
 31
0.0
  0
LINE
  5
89
330
17
100
AcDbEntity
  8
CORTE
100
AcDbLine
 10
1294.0007766835506
 20
-0.002065269976596456
 30
0.0
 11
1294.000831
 21
-0.001895
 31
0.0
  0
LINE
  5
8A
330
17
100
AcDbEntity
  8
CORTE
100
AcDbLine
 10
1294.0007766835506
 20
-0.002065269976596456
 30
0.0
 11
1294.0
 21
-0.0045
 31
0.0
  0
LINE
  5
8B
330
17
100
AcDbEntity
  8
CORTE
100
AcDbLine
 10
1294.0
 20
-0.02090605148779673
 30
0.0
 11
1294.0
 21
-0.020906051487796725
 31
0.0
  0
LINE
  5
8C
330
17
100
AcDbEntity
  8
CORTE
100
AcDbLine
 10
1294.0
 20
-0.020906051487796725
 30
0.0
 11
1294.0
 21
-0.0045
 31
0.0
  0
LINE
  5
8D
330
17
100
AcDbEntity
  8
CORTE
100
AcDbLine
 10
1294.0
 20
-0.02090605148779673
 30
0.0
 11
1294.0
 21
-0.2555
 31
0.0
  0
LINE
  5
8E
330
17
100
AcDbEntity
  8
CORTE
100
AcDbLine
 10
1294.0000543164495
 20
-0.2556702699765965
 30
0.0
 11
1294.0
 21
-0.2555
 31
0.0
  0
LINE
  5
8F
330
17
100
AcDbEntity
  8
CORTE
100
AcDbLine
 10
1294.0000543164495
 20
-0.2556702699765965
 30
0.0
 11
1294.000831
 21
-0.258105
 31
0.0
  0
LINE
  5
90
330
17
100
AcDbEntity
  8
CORTE
100
AcDbLine
 10
1294.0008628316616
 20
-0.25814271430959546
 30
0.0
 11
1294.001318
 21
-0.258682
 31
0.0
  0
LINE
  5
91
330
17
100
AcDbEntity
  8
CORTE
100
AcDbLine
 10
1294.25917
 20
-0.001895
 30
0.0
 11
1294.2587138970243
 21
-0.001355714309595453
 31
0.0
  0
LINE
  5
92
330
17
100
AcDbEntity
  8
CORTE
100
AcDbLine
 10
1294.25917
 20
-0.001895
 30
0.0
 11
1294.2592242510866
 21
-0.002065269976596456
 31
0.0
  0
LINE
  5
93
330
17
100
AcDbEntity
  8
CORTE
100
AcDbLine
 10
1294.26
 20
-0.0045
 30
0.0
 11
1294.2592242510866
 21
-0.002065269976596456
 31
0.0
  0
LINE
  5
94
330
17
100
AcDbEntity
  8
CORTE
100
AcDbLine
 10
1294.26
 20
-0.0045
 30
0.0
 11
1294.26
 21
-0.020906051487796725
 31
0.0
  0
LINE
  5
95
330
17
100
AcDbEntity
  8
CORTE
100
AcDbLine
 10
1294.26
 20
-0.2555
 30
0.0
 11
1294.26
 21
-0.02090605148779673
 31
0.0
  0
LINE
  5
96
330
17
100
AcDbEntity
  8
CORTE
100
AcDbLine
 10
1294.26
 20
-0.2555
 30
0.0
 11
1294.2599457489134
 21
-0.2556702699765965
 31
0.0
  0
LINE
  5
97
330
17
100
AcDbEntity
  8
CORTE
100
AcDbLine
 10
1294.25917
 20
-0.258105
 30
0.0
 11
1294.2599457489134
 21
-0.2556702699765965
 31
0.0
  0
LINE
  5
98
330
17
100
AcDbEntity
  8
CORTE
100
AcDbLine
 10
1294.258682
 20
-0.258682
 30
0.0
 11
1294.2591381029756
 21
-0.25814271430959546
 31
0.0
  0
LINE
  5
99
330
17
100
AcDbEntity
  8
CORTE
100
AcDbLine
 10
1294.0013557143095
 20
-0.0012861683383483785
 30
0.0
 11
1294.001895
 21
-0.000831
 31
0.0
  0
LINE
  5
9A
330
17
100
AcDbEntity
  8
CORTE
100
AcDbLine
 10
1294.001895
 20
-0.000831
 30
0.0
 11
1294.0020652699766
 21
-0.0007766835506519559
 31
0.0
  0
LINE
  5
9B
330
17
100
AcDbEntity
  8
CORTE
100
AcDbLine
 10
1294.0020652699766
 20
-0.0007766835506519559
 30
0.0
 11
1294.0045
 21
-0.0
 31
0.0
  0
LINE
  5
9C
330
17
100
AcDbEntity
  8
CORTE
100
AcDbLine
 10
1294.0045
 20
-0.0
 30
0.0
 11
1294.0209060514878
 21
-0.0
 31
0.0
  0
LINE
  5
9D
330
17
100
AcDbEntity
  8
CORTE
100
AcDbLine
 10
1294.0209060514878
 20
-0.0
 30
0.0
 11
1294.2555
 21
-0.0
 31
0.0
  0
LINE
  5
9E
330
17
100
AcDbEntity
  8
CORTE
100
AcDbLine
 10
1294.2555
 20
-0.0
 30
0.0
 11
1294.2556702699767
 21
-5.431644934804414e-05
 31
0.0
  0
LINE
  5
9F
330
17
100
AcDbEntity
  8
CORTE
100
AcDbLine
 10
1294.2556702699767
 20
-5.4316449348044125e-05
 30
0.0
 11
1294.258105
 21
-0.000831
 31
0.0
  0
LINE
  5
A0
330
17
100
AcDbEntity
  8
CORTE
100
AcDbLine
 10
1294.2581427143095
 20
-0.0008628316616516216
 30
0.0
 11
1294.258682
 21
-0.001318
 31
0.0
  0
LINE
  5
A1
330
17
100
AcDbEntity
  8
CORTE
100
AcDbLine
 10
1294.001895
 20
-0.259169
 30
0.0
 11
1294.0013557143095
 21
-0.2587138316616516
 31
0.0
  0
LINE
  5
A2
330
17
100
AcDbEntity
  8
CORTE
100
AcDbLine
 10
1294.0020652699766
 20
-0.25922331644934804
 30
0.0
 11
1294.001895
 21
-0.259169
 31
0.0
  0
LINE
  5
A3
330
17
100
AcDbEntity
  8
CORTE
100
AcDbLine
 10
1294.0045
 20
-0.26
 30
0.0
 11
1294.0020652699766
 21
-0.25922331644934804
 31
0.0
  0
LINE
  5
A4
330
17
100
AcDbEntity
  8
CORTE
100
AcDbLine
 10
1294.0209060514878
 20
-0.26
 30
0.0
 11
1294.0045
 21
-0.26
 31
0.0
  0
LINE
  5
A5
330
17
100
AcDbEntity
  8
CORTE
100
AcDbLine
 10
1294.2555
 20
-0.26
 30
0.0
 11
1294.0209060514878
 21
-0.26
 31
0.0
  0
LINE
  5
A6
330
17
100
AcDbEntity
  8
CORTE
100
AcDbLine
 10
1294.2556702699767
 20
-0.25994568355065195
 30
0.0
 11
1294.2555
 21
-0.26
 31
0.0
  0
LINE
  5
A7
330
17
100
AcDbEntity
  8
CORTE
100
AcDbLine
 10
1294.258105
 20
-0.259169
 30
0.0
 11
1294.2556702699767
 21
-0.25994568355065195
 31
0.0
  0
LINE
  5
A8
330
17
100
AcDbEntity
  8
CORTE
100
AcDbLine
 10
1294.258682
 20
-0.258682
 30
0.0
 11
1294.2581427143095
 21
-0.2591371683383484
 31
0.0
  0
LINE
  5
A9
330
17
100
AcDbEntity
  8
CORTE
100
AcDbLine
 10
1301.7412880376128
 20
-0.001355714309595453
 30
0.0
 11
1301.740831
 21
-0.001895
 31
0.0
  0
LINE
  5
AA
330
17
100
AcDbEntity
  8
CORTE
100
AcDbLine
 10
1301.7407768142762
 20
-0.002065269976596456
 30
0.0
 11
1301.740831
 21
-0.001895
 31
0.0
  0
LINE
  5
AB
330
17
100
AcDbEntity
  8
CORTE
100
AcDbLine
 10
1301.7407768142762
 20
-0.002065269976596456
 30
0.0
 11
1301.740002
 21
-0.0045
 31
0.0
  0
LINE
  5
AC
330
17
100
AcDbEntity
  8
CORTE
100
AcDbLine
 10
1301.740002
 20
-0.02090605148779673
 30
0.0
 11
1301.740002
 21
-0.020906051487796725
 31
0.0
  0
LINE
  5
AD
330
17
100
AcDbEntity
  8
CORTE
100
AcDbLine
 10
1301.740002
 20
-0.020906051487796725
 30
0.0
 11
1301.740002
 21
-0.0045
 31
0.0
  0
LINE
  5
AE
330
17
100
AcDbEntity
  8
CORTE
100
AcDbLine
 10
1301.740002
 20
-0.02090605148779673
 30
0.0
 11
1301.740002
 21
-0.2555
 31
0.0
  0
LINE
  5
AF
330
17
100
AcDbEntity
  8
CORTE
100
AcDbLine
 10
1301.740056185724
 20
-0.2556702699765965
 30
0.0
 11
1301.740002
 21
-0.2555
 31
0.0
  0
LINE
  5
B0
330
17
100
AcDbEntity
  8
CORTE
100
AcDbLine
 10
1301.740056185724
 20
-0.2556702699765965
 30
0.0
 11
1301.740831
 21
-0.258105
 31
0.0
  0
LINE
  5
B1
330
17
100
AcDbEntity
  8
CORTE
100
AcDbLine
 10
1301.7408629623872
 20
-0.25814271430959546
 30
0.0
 11
1301.74132
 21
-0.258682
 31
0.0
  0
LINE
  5
B2
330
17
100
AcDbEntity
  8
CORTE
100
AcDbLine
 10
1301.99917
 20
-0.001895
 30
0.0
 11
1301.9987138970243
 21
-0.001355714309595453
 31
0.0
  0
LINE
  5
B3
330
17
100
AcDbEntity
  8
CORTE
100
AcDbLine
 10
1301.99917
 20
-0.001895
 30
0.0
 11
1301.9992242510866
 21
-0.002065269976596456
 31
0.0
  0
LINE
  5
B4
330
17
100
AcDbEntity
  8
CORTE
100
AcDbLine
 10
1302.0
 20
-0.0045
 30
0.0
 11
1301.9992242510866
 21
-0.002065269976596456
 31
0.0
  0
LINE
  5
B5
330
17
100
AcDbEntity
  8
CORTE
100
AcDbLine
 10
1302.0
 20
-0.0045
 30
0.0
 11
1302.0
 21
-0.020906051487796725
 31
0.0
  0
LINE
  5
B6
330
17
100
AcDbEntity
  8
CORTE
100
AcDbLine
 10
1302.0
 20
-0.2555
 30
0.0
 11
1302.0
 21
-0.02090605148779673
 31
0.0
  0
LINE
  5
B7
330
17
100
AcDbEntity
  8
CORTE
100
AcDbLine
 10
1302.0
 20
-0.2555
 30
0.0
 11
1301.9999457489134
 21
-0.2556702699765965
 31
0.0
  0
LINE
  5
B8
330
17
100
AcDbEntity
  8
CORTE
100
AcDbLine
 10
1301.99917
 20
-0.258105
 30
0.0
 11
1301.9999457489134
 21
-0.2556702699765965
 31
0.0
  0
LINE
  5
B9
330
17
100
AcDbEntity
  8
CORTE
100
AcDbLine
 10
1301.998682
 20
-0.258682
 30
0.0
 11
1301.9991381029756
 21
-0.25814271430959546
 31
0.0
  0
LINE
  5
BA
330
17
100
AcDbEntity
  8
CORTE
100
AcDbLine
 10
1301.7413576489469
 20
-0.0012861683383483785
 30
0.0
 11
1301.741896
 21
-0.000831
 31
0.0
  0
LINE
  5
BB
330
17
100
AcDbEntity
  8
CORTE
100
AcDbLine
 10
1301.741896
 20
-0.000831
 30
0.0
 11
1301.7420662699767
 21
-0.0007766835506519559
 31
0.0
  0
LINE
  5
BC
330
17
100
AcDbEntity
  8
CORTE
100
AcDbLine
 10
1301.7420662699767
 20
-0.0007766835506519559
 30
0.0
 11
1301.744501
 21
-0.0
 31
0.0
  0
LINE
  5
BD
330
17
100
AcDbEntity
  8
CORTE
100
AcDbLine
 10
1301.744501
 20
-0.0
 30
0.0
 11
1301.7609070514877
 21
-0.0
 31
0.0
  0
LINE
  5
BE
330
17
100
AcDbEntity
  8
CORTE
100
AcDbLine
 10
1301.7609070514877
 20
-0.0
 30
0.0
 11
1301.995501
 21
-0.0
 31
0.0
  0
LINE
  5
BF
330
17
100
AcDbEntity
  8
CORTE
100
AcDbLine
 10
1301.995501
 20
-0.0
 30
0.0
 11
1301.9956712699766
 21
-5.431644934804414e-05
 31
0.0
  0
LINE
  5
C0
330
17
100
AcDbEntity
  8
CORTE
100
AcDbLine
 10
1301.9956712699766
 20
-5.4316449348044125e-05
 30
0.0
 11
1301.998106
 21
-0.000831
 31
0.0
  0
LINE
  5
C1
330
17
100
AcDbEntity
  8
CORTE
100
AcDbLine
 10
1301.9981436489468
 20
-0.0008628316616516216
 30
0.0
 11
1301.998682
 21
-0.001318
 31
0.0
  0
LINE
  5
C2
330
17
100
AcDbEntity
  8
CORTE
100
AcDbLine
 10
1301.741896
 20
-0.259169
 30
0.0
 11
1301.7413576489469
 21
-0.2587138316616516
 31
0.0
  0
LINE
  5
C3
330
17
100
AcDbEntity
  8
CORTE
100
AcDbLine
 10
1301.7420662699767
 20
-0.25922331644934804
 30
0.0
 11
1301.741896
 21
-0.259169
 31
0.0
  0
LINE
  5
C4
330
17
100
AcDbEntity
  8
CORTE
100
AcDbLine
 10
1301.744501
 20
-0.26
 30
0.0
 11
1301.7420662699767
 21
-0.25922331644934804
 31
0.0
  0
LINE
  5
C5
330
17
100
AcDbEntity
  8
CORTE
100
AcDbLine
 10
1301.7609070514877
 20
-0.26
 30
0.0
 11
1301.744501
 21
-0.26
 31
0.0
  0
LINE
  5
C6
330
17
100
AcDbEntity
  8
CORTE
100
AcDbLine
 10
1301.995501
 20
-0.26
 30
0.0
 11
1301.7609070514877
 21
-0.26
 31
0.0
  0
LINE
  5
C7
330
17
100
AcDbEntity
  8
CORTE
100
AcDbLine
 10
1301.9956712699766
 20
-0.25994568355065195
 30
0.0
 11
1301.995501
 21
-0.26
 31
0.0
  0
LINE
  5
C8
330
17
100
AcDbEntity
  8
CORTE
100
AcDbLine
 10
1301.998106
 20
-0.259169
 30
0.0
 11
1301.9956712699766
 21
-0.25994568355065195
 31
0.0
  0
LINE
  5
C9
330
17
100
AcDbEntity
  8
CORTE
100
AcDbLine
 10
1301.998682
 20
-0.258682
 30
0.0
 11
1301.9981436489468
 21
-0.2591371683383484
 31
0.0
  0
LINE
  5
CA
330
17
100
AcDbEntity
  8
CORTE
100
AcDbLine
 10
1294.0012862337012
 20
-0.001355714309595453
 30
0.0
 11
1294.000832
 21
-0.001895
 31
0.0
  0
LINE
  5
CB
330
17
100
AcDbEntity
  8
CORTE
100
AcDbLine
 10
1294.0007776181878
 20
-0.002065269976596456
 30
0.0
 11
1294.000832
 21
-0.001895
 31
0.0
  0
LINE
  5
CC
330
17
100
AcDbEntity
  8
CORTE
100
AcDbLine
 10
1294.0007776181878
 20
-0.002065269976596456
 30
0.0
 11
1294.0
 21
-0.0045
 31
0.0
  0
LINE
  5
CD
330
17
100
AcDbEntity
  8
CORTE
100
AcDbLine
 10
1294.0
 20
-0.3960882647943835
 30
0.0
 11
1294.0
 21
-0.3960882647943832
 31
0.0
  0
LINE
  5
CE
330
17
100
AcDbEntity
  8
CORTE
100
AcDbLine
 10
1294.0
 20
-0.3960882647943832
 30
0.0
 11
1294.0
 21
-0.0045
 31
0.0
  0
LINE
  5
CF
330
17
100
AcDbEntity
  8
CORTE
100
AcDbLine
 10
1294.0
 20
-0.3960882647943835
 30
0.0
 11
1294.0
 21
-5.9955
 31
0.0
  0
LINE
  5
D0
330
17
100
AcDbEntity
  8
CORTE
100
AcDbLine
 10
1294.000054381812
 20
-5.995670269976596
 30
0.0
 11
1294.0
 21
-5.9955
 31
0.0
  0
LINE
  5
D1
330
17
100
AcDbEntity
  8
CORTE
100
AcDbLine
 10
1294.000054381812
 20
-5.995670269976596
 30
0.0
 11
1294.000832
 21
-5.998105
 31
0.0
  0
LINE
  5
D2
330
17
100
AcDbEntity
  8
CORTE
100
AcDbLine
 10
1294.0008637662988
 20
-5.998142714309595
 30
0.0
 11
1294.001318
 21
-5.998682
 31
0.0
  0
LINE
  5
D3
330
17
100
AcDbEntity
  8
CORTE
100
AcDbLine
 10
1294.199169
 20
-0.001895
 30
0.0
 11
1294.198714766299
 21
-0.001355714309595453
 31
0.0
  0
LINE
  5
D4
330
17
100
AcDbEntity
  8
CORTE
100
AcDbLine
 10
1294.199169
 20
-0.001895
 30
0.0
 11
1294.199223381812
 21
-0.002065269976596456
 31
0.0
  0
LINE
  5
D5
330
17
100
AcDbEntity
  8
CORTE
100
AcDbLine
 10
1294.200001
 20
-0.0045
 30
0.0
 11
1294.199223381812
 21
-0.002065269976596456
 31
0.0
  0
LINE
  5
D6
330
17
100
AcDbEntity
  8
CORTE
100
AcDbLine
 10
1294.200001
 20
-0.0045
 30
0.0
 11
1294.200001
 21
-0.3960882647943832
 31
0.0
  0
LINE
  5
D7
330
17
100
AcDbEntity
  8
CORTE
100
AcDbLine
 10
1294.200001
 20
-5.9955
 30
0.0
 11
1294.200001
 21
-0.3960882647943835
 31
0.0
  0
LINE
  5
D8
330
17
100
AcDbEntity
  8
CORTE
100
AcDbLine
 10
1294.200001
 20
-5.9955
 30
0.0
 11
1294.1999466181878
 21
-5.995670269976596
 31
0.0
  0
LINE
  5
D9
330
17
100
AcDbEntity
  8
CORTE
100
AcDbLine
 10
1294.199169
 20
-5.998105
 30
0.0
 11
1294.1999466181878
 21
-5.995670269976596
 31
0.0
  0
LINE
  5
DA
330
17
100
AcDbEntity
  8
CORTE
100
AcDbLine
 10
1294.198683
 20
-5.998682
 30
0.0
 11
1294.199137233701
 21
-5.998142714309595
 31
0.0
  0
LINE
  5
DB
330
17
100
AcDbEntity
  8
CORTE
100
AcDbLine
 10
1294.0013557143095
 20
-0.0012861683383483785
 30
0.0
 11
1294.001895
 21
-0.000831
 31
0.0
  0
LINE
  5
DC
330
17
100
AcDbEntity
  8
CORTE
100
AcDbLine
 10
1294.001895
 20
-0.000831
 30
0.0
 11
1294.0020652699766
 21
-0.0007766835506519559
 31
0.0
  0
LINE
  5
DD
330
17
100
AcDbEntity
  8
CORTE
100
AcDbLine
 10
1294.0020652699766
 20
-0.0007766835506519559
 30
0.0
 11
1294.0045
 21
-0.0
 31
0.0
  0
LINE
  5
DE
330
17
100
AcDbEntity
  8
CORTE
100
AcDbLine
 10
1294.0045
 20
-0.0
 30
0.0
 11
1294.016984286192
 21
-0.0
 31
0.0
  0
LINE
  5
DF
330
17
100
AcDbEntity
  8
CORTE
100
AcDbLine
 10
1294.016984286192
 20
-0.0
 30
0.0
 11
1294.1955
 21
-0.0
 31
0.0
  0
LINE
  5
E0
330
17
100
AcDbEntity
  8
CORTE
100
AcDbLine
 10
1294.1955
 20
-0.0
 30
0.0
 11
1294.1956703353394
 21
-5.431644934804414e-05
 31
0.0
  0
LINE
  5
E1
330
17
100
AcDbEntity
  8
CORTE
100
AcDbLine
 10
1294.1956703353394
 20
-5.4316449348044125e-05
 30
0.0
 11
1294.198106
 21
-0.000831
 31
0.0
  0
LINE
  5
E2
330
17
100
AcDbEntity
  8
CORTE
100
AcDbLine
 10
1294.1981437143095
 20
-0.0008628316616516216
 30
0.0
 11
1294.198683
 21
-0.001318
 31
0.0
  0
LINE
  5
E3
330
17
100
AcDbEntity
  8
CORTE
100
AcDbLine
 10
1294.001895
 20
-5.999169
 30
0.0
 11
1294.0013557143095
 21
-5.998713831661651
 31
0.0
  0
LINE
  5
E4
330
17
100
AcDbEntity
  8
CORTE
100
AcDbLine
 10
1294.0020652699766
 20
-5.999223316449348
 30
0.0
 11
1294.001895
 21
-5.999169
 31
0.0
  0
LINE
  5
E5
330
17
100
AcDbEntity
  8
CORTE
100
AcDbLine
 10
1294.0045
 20
-6.0
 30
0.0
 11
1294.0020652699766
 21
-5.999223316449348
 31
0.0
  0
LINE
  5
E6
330
17
100
AcDbEntity
  8
CORTE
100
AcDbLine
 10
1294.016984286192
 20
-6.0
 30
0.0
 11
1294.016984286192
 21
-6.0
 31
0.0
  0
LINE
  5
E7
330
17
100
AcDbEntity
  8
CORTE
100
AcDbLine
 10
1294.016984286192
 20
-6.0
 30
0.0
 11
1294.0045
 21
-6.0
 31
0.0
  0
LINE
  5
E8
330
17
100
AcDbEntity
  8
CORTE
100
AcDbLine
 10
1294.1955
 20
-6.0
 30
0.0
 11
1294.016984286192
 21
-6.0
 31
0.0
  0
LINE
  5
E9
330
17
100
AcDbEntity
  8
CORTE
100
AcDbLine
 10
1294.1956703353394
 20
-5.999945683550652
 30
0.0
 11
1294.1955
 21
-6.0
 31
0.0
  0
LINE
  5
EA
330
17
100
AcDbEntity
  8
CORTE
100
AcDbLine
 10
1294.198106
 20
-5.999169
 30
0.0
 11
1294.1956703353394
 21
-5.999945683550652
 31
0.0
  0
LINE
  5
EB
330
17
100
AcDbEntity
  8
CORTE
100
AcDbLine
 10
1294.198683
 20
-5.998682
 30
0.0
 11
1294.1981437143095
 21
-5.999137168338349
 31
0.0
  0
LINE
  5
EC
330
17
100
AcDbEntity
  8
CORTE
100
AcDbLine
 10
1301.801285233701
 20
-0.001355714309595453
 30
0.0
 11
1301.800831
 21
-0.001895
 31
0.0
  0
LINE
  5
ED
330
17
100
AcDbEntity
  8
CORTE
100
AcDbLine
 10
1301.800776618188
 20
-0.002065269976596456
 30
0.0
 11
1301.800831
 21
-0.001895
 31
0.0
  0
LINE
  5
EE
330
17
100
AcDbEntity
  8
CORTE
100
AcDbLine
 10
1301.800776618188
 20
-0.002065269976596456
 30
0.0
 11
1301.799999
 21
-0.0045
 31
0.0
  0
LINE
  5
EF
330
17
100
AcDbEntity
  8
CORTE
100
AcDbLine
 10
1301.799999
 20
-0.7882648597459045
 30
0.0
 11
1301.799999
 21
-0.7882648597459044
 31
0.0
  0
LINE
  5
F0
330
17
100
AcDbEntity
  8
CORTE
100
AcDbLine
 10
1301.799999
 20
-0.7882648597459044
 30
0.0
 11
1301.799999
 21
-0.0045
 31
0.0
  0
LINE
  5
F1
330
17
100
AcDbEntity
  8
CORTE
100
AcDbLine
 10
1301.799999
 20
-0.7882648597459045
 30
0.0
 11
1301.799999
 21
-11.995501
 31
0.0
  0
LINE
  5
F2
330
17
100
AcDbEntity
  8
CORTE
100
AcDbLine
 10
1301.8000533818122
 20
-11.995671204613842
 30
0.0
 11
1301.799999
 21
-11.995501
 31
0.0
  0
LINE
  5
F3
330
17
100
AcDbEntity
  8
CORTE
100
AcDbLine
 10
1301.8000533818122
 20
-11.995671204613842
 30
0.0
 11
1301.800831
 21
-11.998105
 31
0.0
  0
LINE
  5
F4
330
17
100
AcDbEntity
  8
CORTE
100
AcDbLine
 10
1301.800862766299
 20
-11.998142714309596
 30
0.0
 11
1301.801317
 21
-11.998682
 31
0.0
  0
LINE
  5
F5
330
17
100
AcDbEntity
  8
CORTE
100
AcDbLine
 10
1301.999168
 20
-0.001895
 30
0.0
 11
1301.9987137662988
 21
-0.001355714309595453
 31
0.0
  0
LINE
  5
F6
330
17
100
AcDbEntity
  8
CORTE
100
AcDbLine
 10
1301.999168
 20
-0.001895
 30
0.0
 11
1301.9992223818122
 21
-0.002065269976596456
 31
0.0
  0
LINE
  5
F7
330
17
100
AcDbEntity
  8
CORTE
100
AcDbLine
 10
1302.0
 20
-0.0045
 30
0.0
 11
1301.9992223818122
 21
-0.002065269976596456
 31
0.0
  0
LINE
  5
F8
330
17
100
AcDbEntity
  8
CORTE
100
AcDbLine
 10
1302.0
 20
-0.0045
 30
0.0
 11
1302.0
 21
-0.7882648597459044
 31
0.0
  0
LINE
  5
F9
330
17
100
AcDbEntity
  8
CORTE
100
AcDbLine
 10
1302.0
 20
-11.995501
 30
0.0
 11
1302.0
 21
-0.7882648597459045
 31
0.0
  0
LINE
  5
FA
330
17
100
AcDbEntity
  8
CORTE
100
AcDbLine
 10
1302.0
 20
-11.995501
 30
0.0
 11
1301.999945618188
 21
-11.995671204613842
 31
0.0
  0
LINE
  5
FB
330
17
100
AcDbEntity
  8
CORTE
100
AcDbLine
 10
1301.999168
 20
-11.998105
 30
0.0
 11
1301.999945618188
 21
-11.995671204613842
 31
0.0
  0
LINE
  5
FC
330
17
100
AcDbEntity
  8
CORTE
100
AcDbLine
 10
1301.998682
 20
-11.998682
 30
0.0
 11
1301.9991362337012
 21
-11.998142714309596
 31
0.0
  0
LINE
  5
FD
330
17
100
AcDbEntity
  8
CORTE
100
AcDbLine
 10
1301.8013547796722
 20
-0.0012861683383483785
 30
0.0
 11
1301.801895
 21
-0.000831
 31
0.0
  0
LINE
  5
FE
330
17
100
AcDbEntity
  8
CORTE
100
AcDbLine
 10
1301.801895
 20
-0.000831
 30
0.0
 11
1301.8020652046139
 21
-0.0007766835506519559
 31
0.0
  0
LINE
  5
FF
330
17
100
AcDbEntity
  8
CORTE
100
AcDbLine
 10
1301.8020652046139
 20
-0.0007766835506519559
 30
0.0
 11
1301.804499
 21
-0.0
 31
0.0
  0
LINE
  5
100
330
17
100
AcDbEntity
  8
CORTE
100
AcDbLine
 10
1301.804499
 20
-0.0
 30
0.0
 11
1301.8169834169173
 21
-0.0
 31
0.0
  0
LINE
  5
101
330
17
100
AcDbEntity
  8
CORTE
100
AcDbLine
 10
1301.8169834169173
 20
-0.0
 30
0.0
 11
1301.995501
 21
-0.0
 31
0.0
  0
LINE
  5
102
330
17
100
AcDbEntity
  8
CORTE
100
AcDbLine
 10
1301.995501
 20
-0.0
 30
0.0
 11
1301.995671139251
 21
-5.431644934804414e-05
 31
0.0
  0
LINE
  5
103
330
17
100
AcDbEntity
  8
CORTE
100
AcDbLine
 10
1301.995671139251
 20
-5.4316449348044125e-05
 30
0.0
 11
1301.998104
 21
-0.000831
 31
0.0
  0
LINE
  5
104
330
17
100
AcDbEntity
  8
CORTE
100
AcDbLine
 10
1301.9981417796723
 20
-0.0008628316616516216
 30
0.0
 11
1301.998682
 21
-0.001318
 31
0.0
  0
LINE
  5
105
330
17
100
AcDbEntity
  8
CORTE
100
AcDbLine
 10
1301.801895
 20
-11.999169
 30
0.0
 11
1301.8013547796722
 21
-11.998713831661652
 31
0.0
  0
LINE
  5
106
330
17
100
AcDbEntity
  8
CORTE
100
AcDbLine
 10
1301.8020652046139
 20
-11.999223316449347
 30
0.0
 11
1301.801895
 21
-11.999169
 31
0.0
  0
LINE
  5
107
330
17
100
AcDbEntity
  8
CORTE
100
AcDbLine
 10
1301.804499
 20
-12.0
 30
0.0
 11
1301.8020652046139
 21
-11.999223316449347
 31
0.0
  0
LINE
  5
108
330
17
100
AcDbEntity
  8
CORTE
100
AcDbLine
 10
1301.8169834169173
 20
-12.0
 30
0.0
 11
1301.804499
 21
-12.0
 31
0.0
  0
LINE
  5
109
330
17
100
AcDbEntity
  8
CORTE
100
AcDbLine
 10
1301.995501
 20
-12.0
 30
0.0
 11
1301.8169834169173
 21
-12.0
 31
0.0
  0
LINE
  5
10A
330
17
100
AcDbEntity
  8
CORTE
100
AcDbLine
 10
1301.995671139251
 20
-11.999945683550653
 30
0.0
 11
1301.995501
 21
-12.0
 31
0.0
  0
LINE
  5
10B
330
17
100
AcDbEntity
  8
CORTE
100
AcDbLine
 10
1301.998104
 20
-11.999169
 30
0.0
 11
1301.995671139251
 21
-11.999945683550653
 31
0.0
  0
LINE
  5
10C
330
17
100
AcDbEntity
  8
CORTE
100
AcDbLine
 10
1301.998682
 20
-11.998682
 30
0.0
 11
1301.9981417796723
 21
-11.999137168338349
 31
0.0
  0
LWPOLYLINE
  5
10D
330
17
100
AcDbEntity
  8
CORTE
100
AcDbPolyline
 90
41
 70
1
 10
1296.7511674247226
 20
-5.901496769413629
 10
1296.750832
 20
-5.901895
 10
1296.7505742250396
 20
-5.9027020958795555
 10
1296.75
 20
-5.9045
 10
1296.75
 20
-5.963676703645008
 10
1296.75
 20
-6.0955
 10
1296.7502577749603
 20
-6.096307095879556
 10
1296.750832
 20
-6.098105
 10
1296.7509825752772
 20
-6.098283769413629
 10
1296.751318
 20
-6.098682
 10
1296.751496459588
 20
-6.098832885103011
 10
1296.751894
 20
-6.099169
 10
1296.7527010958795
 20
-6.099426465134707
 10
1296.754499
 20
-6.1
 10
1297.5262753724248
 20
-6.1
 10
1299.245501
 20
-6.1
 10
1299.2463080958796
 20
-6.0997425348652925
 10
1299.248106
 20
-6.099169
 10
1299.248284459588
 20
-6.099018114896989
 10
1299.248682
 20
-6.098682
 10
1299.2490174247228
 20
-6.098283769413629
 10
1299.249168
 20
-6.098105
 10
1299.2497422250397
 20
-6.096307095879556
 10
1299.25
 20
-6.0955
 10
1299.25
 20
-5.963676703645008
 10
1299.25
 20
-5.9045
 10
1299.2494257749604
 20
-5.9027020958795555
 10
1299.249168
 20
-5.901895
 10
1299.2488325752774
 20
-5.901496769413629
 10
1299.248682
 20
-5.901318
 10
1299.248284459588
 20
-5.900981885103011
 10
1299.248106
 20
-5.900831
 10
1299.2463080958796
 20
-5.9002574651347075
 10
1299.245501
 20
-5.9
 10
1297.5262753724248
 20
-5.9
 10
1296.754499
 20
-5.9
 10
1296.7527010958795
 20
-5.900573534865293
 10
1296.751894
 20
-5.900831
 10
1296.751496459588
 20
-5.901167114896989
 10
1296.751318
 20
-5.901318
 10
1296.7511674247226
 20
-5.901496769413629
  0
LINE
  5
10E
330
17
100
AcDbEntity
  8
CORTE
100
AcDbLine
 10
1294.0012861683383
 20
-5.901355714309595
 30
0.0
 11
1294.000831
 21
-5.901895
 31
0.0
  0
LINE
  5
10F
330
17
100
AcDbEntity
  8
CORTE
100
AcDbLine
 10
1294.0007766835506
 20
-5.902065269976596
 30
0.0
 11
1294.000831
 21
-5.901895
 31
0.0
  0
LINE
  5
110
330
17
100
AcDbEntity
  8
CORTE
100
AcDbLine
 10
1294.0007766835506
 20
-5.902065269976596
 30
0.0
 11
1294.0
 21
-5.9045
 31
0.0
  0
LINE
  5
111
330
17
100
AcDbEntity
  8
CORTE
100
AcDbLine
 10
1294.0
 20
-5.916984286191909
 30
0.0
 11
1294.0
 21
-5.9045
 31
0.0
  0
LINE
  5
112
330
17
100
AcDbEntity
  8
CORTE
100
AcDbLine
 10
1294.0
 20
-5.916984286191909
 30
0.0
 11
1294.0
 21
-6.0955
 31
0.0
  0
LINE
  5
113
330
17
100
AcDbEntity
  8
CORTE
100
AcDbLine
 10
1294.0000543164495
 20
-6.095670269976597
 30
0.0
 11
1294.0
 21
-6.0955
 31
0.0
  0
LINE
  5
114
330
17
100
AcDbEntity
  8
CORTE
100
AcDbLine
 10
1294.0000543164495
 20
-6.095670269976597
 30
0.0
 11
1294.000831
 21
-6.098105
 31
0.0
  0
LINE
  5
115
330
17
100
AcDbEntity
  8
CORTE
100
AcDbLine
 10
1294.0008628316616
 20
-6.098142714309596
 30
0.0
 11
1294.001318
 21
-6.098682
 31
0.0
  0
LINE
  5
116
330
17
100
AcDbEntity
  8
CORTE
100
AcDbLine
 10
1296.749168
 20
-5.901895
 30
0.0
 11
1296.7487137662988
 21
-5.901355714309595
 31
0.0
  0
LINE
  5
117
330
17
100
AcDbEntity
  8
CORTE
100
AcDbLine
 10
1296.749168
 20
-5.901895
 30
0.0
 11
1296.7492223818122
 21
-5.902065269976596
 31
0.0
  0
LINE
  5
118
330
17
100
AcDbEntity
  8
CORTE
100
AcDbLine
 10
1296.75
 20
-5.9045
 30
0.0
 11
1296.7492223818122
 21
-5.902065269976596
 31
0.0
  0
LINE
  5
119
330
17
100
AcDbEntity
  8
CORTE
100
AcDbLine
 10
1296.75
 20
-5.9045
 30
0.0
 11
1296.75
 21
-5.916984286191909
 31
0.0
  0
LINE
  5
11A
330
17
100
AcDbEntity
  8
CORTE
100
AcDbLine
 10
1296.75
 20
-6.0955
 30
0.0
 11
1296.75
 21
-5.916984286191909
 31
0.0
  0
LINE
  5
11B
330
17
100
AcDbEntity
  8
CORTE
100
AcDbLine
 10
1296.75
 20
-6.0955
 30
0.0
 11
1296.749945618188
 21
-6.095670269976597
 31
0.0
  0
LINE
  5
11C
330
17
100
AcDbEntity
  8
CORTE
100
AcDbLine
 10
1296.749168
 20
-6.098105
 30
0.0
 11
1296.749945618188
 21
-6.095670269976597
 31
0.0
  0
LINE
  5
11D
330
17
100
AcDbEntity
  8
CORTE
100
AcDbLine
 10
1296.748682
 20
-6.098682
 30
0.0
 11
1296.7491362337012
 21
-6.098142714309596
 31
0.0
  0
LINE
  5
11E
330
17
100
AcDbEntity
  8
CORTE
100
AcDbLine
 10
1294.0013557143095
 20
-5.901286168338348
 30
0.0
 11
1294.001895
 21
-5.900831
 31
0.0
  0
LINE
  5
11F
330
17
100
AcDbEntity
  8
CORTE
100
AcDbLine
 10
1294.001895
 20
-5.900831
 30
0.0
 11
1294.0020652699766
 21
-5.900776683550652
 31
0.0
  0
LINE
  5
120
330
17
100
AcDbEntity
  8
CORTE
100
AcDbLine
 10
1294.0020652699766
 20
-5.900776683550652
 30
0.0
 11
1294.0045
 21
-5.9
 31
0.0
  0
LINE
  5
121
330
17
100
AcDbEntity
  8
CORTE
100
AcDbLine
 10
1294.0045
 20
-5.9
 30
0.0
 11
1294.18365937663
 21
-5.9
 31
0.0
  0
LINE
  5
122
330
17
100
AcDbEntity
  8
CORTE
100
AcDbLine
 10
1294.18365937663
 20
-5.9
 30
0.0
 11
1296.745501
 21
-5.9
 31
0.0
  0
LINE
  5
123
330
17
100
AcDbEntity
  8
CORTE
100
AcDbLine
 10
1296.745501
 20
-5.9
 30
0.0
 11
1296.7456712699766
 21
-5.900054316449348
 31
0.0
  0
LINE
  5
124
330
17
100
AcDbEntity
  8
CORTE
100
AcDbLine
 10
1296.7456712699766
 20
-5.900054316449348
 30
0.0
 11
1296.748106
 21
-5.900831
 31
0.0
  0
LINE
  5
125
330
17
100
AcDbEntity
  8
CORTE
100
AcDbLine
 10
1296.7481436489468
 20
-5.900862831661652
 30
0.0
 11
1296.748682
 21
-5.901318
 31
0.0
  0
LINE
  5
126
330
17
100
AcDbEntity
  8
CORTE
100
AcDbLine
 10
1294.001895
 20
-6.099169
 30
0.0
 11
1294.0013557143095
 21
-6.098713831661652
 31
0.0
  0
LINE
  5
127
330
17
100
AcDbEntity
  8
CORTE
100
AcDbLine
 10
1294.0020652699766
 20
-6.099223316449348
 30
0.0
 11
1294.001895
 21
-6.099169
 31
0.0
  0
LINE
  5
128
330
17
100
AcDbEntity
  8
CORTE
100
AcDbLine
 10
1294.0045
 20
-6.1
 30
0.0
 11
1294.0020652699766
 21
-6.099223316449348
 31
0.0
  0
LINE
  5
129
330
17
100
AcDbEntity
  8
CORTE
100
AcDbLine
 10
1294.18365937663
 20
-6.1
 30
0.0
 11
1294.0045
 21
-6.1
 31
0.0
  0
LINE
  5
12A
330
17
100
AcDbEntity
  8
CORTE
100
AcDbLine
 10
1296.745501
 20
-6.1
 30
0.0
 11
1294.18365937663
 21
-6.1
 31
0.0
  0
LINE
  5
12B
330
17
100
AcDbEntity
  8
CORTE
100
AcDbLine
 10
1296.7456712699766
 20
-6.099945683550652
 30
0.0
 11
1296.745501
 21
-6.1
 31
0.0
  0
LINE
  5
12C
330
17
100
AcDbEntity
  8
CORTE
100
AcDbLine
 10
1296.748106
 20
-6.099169
 30
0.0
 11
1296.7456712699766
 21
-6.099945683550652
 31
0.0
  0
LINE
  5
12D
330
17
100
AcDbEntity
  8
CORTE
100
AcDbLine
 10
1296.748682
 20
-6.098682
 30
0.0
 11
1296.7481436489468
 21
-6.099137168338348
 31
0.0
  0
LINE
  5
12E
330
17
100
AcDbEntity
  8
CORTE
100
AcDbLine
 10
1299.25
 20
-6.1
 30
0.0
 11
1299.25
 21
-5.9
 31
0.0
  0
LINE
  5
12F
330
17
100
AcDbEntity
  8
CORTE
100
AcDbLine
 10
1302.0
 20
-5.9
 30
0.0
 11
1302.0
 21
-6.1
 31
0.0
  0
LINE
  5
130
330
17
100
AcDbEntity
  8
CORTE
100
AcDbLine
 10
1301.2774246766337
 20
-6.1
 30
0.0
 11
1301.2774246766337
 21
-5.9
 31
0.0
  0
LINE
  5
131
330
17
100
AcDbEntity
  8
CORTE
100
AcDbLine
 10
1301.042575324551
 20
-6.1
 30
0.0
 11
1301.042575324551
 21
-5.9
 31
0.0
  0
LINE
  5
132
330
17
100
AcDbEntity
  8
CORTE
100
AcDbLine
 10
1301.6658439638054
 20
-5.9
 30
0.0
 11
1301.6658439638054
 21
-6.1
 31
0.0
  0
LINE
  5
133
330
17
100
AcDbEntity
  8
CORTE
100
AcDbLine
 10
1301.3141555419343
 20
-6.1
 30
0.0
 11
1301.3141555419343
 21
-5.9
 31
0.0
  0
LINE
  5
134
330
17
100
AcDbEntity
  8
CORTE
100
AcDbLine
 10
1294.0012861683383
 20
-6.001355714309596
 30
0.0
 11
1294.000831
 21
-6.001895
 31
0.0
  0
LINE
  5
135
330
17
100
AcDbEntity
  8
CORTE
100
AcDbLine
 10
1294.0007766835506
 20
-6.002065269976597
 30
0.0
 11
1294.000831
 21
-6.001895
 31
0.0
  0
LINE
  5
136
330
17
100
AcDbEntity
  8
CORTE
100
AcDbLine
 10
1294.0007766835506
 20
-6.002065269976597
 30
0.0
 11
1294.0
 21
-6.0045
 31
0.0
  0
LINE
  5
137
330
17
100
AcDbEntity
  8
CORTE
100
AcDbLine
 10
1294.0
 20
-6.023520561685055
 30
0.0
 11
1294.0
 21
-6.0045
 31
0.0
  0
LINE
  5
138
330
17
100
AcDbEntity
  8
CORTE
100
AcDbLine
 10
1294.0
 20
-6.023520561685055
 30
0.0
 11
1294.0
 21
-6.2955
 31
0.0
  0
LINE
  5
139
330
17
100
AcDbEntity
  8
CORTE
100
AcDbLine
 10
1294.0000543164495
 20
-6.295670269976596
 30
0.0
 11
1294.0
 21
-6.2955
 31
0.0
  0
LINE
  5
13A
330
17
100
AcDbEntity
  8
CORTE
100
AcDbLine
 10
1294.0000543164495
 20
-6.295670269976596
 30
0.0
 11
1294.000831
 21
-6.298105
 31
0.0
  0
LINE
  5
13B
330
17
100
AcDbEntity
  8
CORTE
100
AcDbLine
 10
1294.0008628316616
 20
-6.298142714309595
 30
0.0
 11
1294.001318
 21
-6.298682
 31
0.0
  0
LINE
  5
13C
330
17
100
AcDbEntity
  8
CORTE
100
AcDbLine
 10
1294.299169
 20
-6.001895
 30
0.0
 11
1294.2987128970244
 21
-6.001355714309596
 31
0.0
  0
LINE
  5
13D
330
17
100
AcDbEntity
  8
CORTE
100
AcDbLine
 10
1294.299169
 20
-6.001895
 30
0.0
 11
1294.2992232510867
 21
-6.002065269976597
 31
0.0
  0
LINE
  5
13E
330
17
100
AcDbEntity
  8
CORTE
100
AcDbLine
 10
1294.299999
 20
-6.0045
 30
0.0
 11
1294.2992232510867
 21
-6.002065269976597
 31
0.0
  0
LINE
  5
13F
330
17
100
AcDbEntity
  8
CORTE
100
AcDbLine
 10
1294.299999
 20
-6.0045
 30
0.0
 11
1294.299999
 21
-6.023520561685055
 31
0.0
  0
LINE
  5
140
330
17
100
AcDbEntity
  8
CORTE
100
AcDbLine
 10
1294.299999
 20
-6.2955
 30
0.0
 11
1294.299999
 21
-6.023520561685055
 31
0.0
  0
LINE
  5
141
330
17
100
AcDbEntity
  8
CORTE
100
AcDbLine
 10
1294.299999
 20
-6.2955
 30
0.0
 11
1294.2999447489135
 21
-6.295670269976596
 31
0.0
  0
LINE
  5
142
330
17
100
AcDbEntity
  8
CORTE
100
AcDbLine
 10
1294.299169
 20
-6.298105
 30
0.0
 11
1294.2999447489135
 21
-6.295670269976596
 31
0.0
  0
LINE
  5
143
330
17
100
AcDbEntity
  8
CORTE
100
AcDbLine
 10
1294.298681
 20
-6.298682
 30
0.0
 11
1294.2991371029757
 21
-6.298142714309595
 31
0.0
  0
LINE
  5
144
330
17
100
AcDbEntity
  8
CORTE
100
AcDbLine
 10
1294.0013556489469
 20
-6.001286168338349
 30
0.0
 11
1294.001894
 21
-6.000831
 31
0.0
  0
LINE
  5
145
330
17
100
AcDbEntity
  8
CORTE
100
AcDbLine
 10
1294.001894
 20
-6.000831
 30
0.0
 11
1294.0020642699767
 21
-6.000776683550652
 31
0.0
  0
LINE
  5
146
330
17
100
AcDbEntity
  8
CORTE
100
AcDbLine
 10
1294.0020642699767
 20
-6.000776683550652
 30
0.0
 11
1294.004499
 21
-6.0
 31
0.0
  0
LINE
  5
147
330
17
100
AcDbEntity
  8
CORTE
100
AcDbLine
 10
1294.004499
 20
-6.0
 30
0.0
 11
1294.0235196270478
 21
-6.0
 31
0.0
  0
LINE
  5
148
330
17
100
AcDbEntity
  8
CORTE
100
AcDbLine
 10
1294.0235196270478
 20
-6.0
 30
0.0
 11
1294.2955
 21
-6.0
 31
0.0
  0
LINE
  5
149
330
17
100
AcDbEntity
  8
CORTE
100
AcDbLine
 10
1294.2955
 20
-6.0
 30
0.0
 11
1294.2956702699767
 21
-6.000054316449348
 31
0.0
  0
LINE
  5
14A
330
17
100
AcDbEntity
  8
CORTE
100
AcDbLine
 10
1294.2956702699767
 20
-6.000054316449348
 30
0.0
 11
1294.298105
 21
-6.000831
 31
0.0
  0
LINE
  5
14B
330
17
100
AcDbEntity
  8
CORTE
100
AcDbLine
 10
1294.2981426489469
 20
-6.000862831661651
 30
0.0
 11
1294.298681
 21
-6.001318
 31
0.0
  0
LINE
  5
14C
330
17
100
AcDbEntity
  8
CORTE
100
AcDbLine
 10
1294.001894
 20
-6.29917
 30
0.0
 11
1294.0013556489469
 21
-6.298713897024407
 31
0.0
  0
LINE
  5
14D
330
17
100
AcDbEntity
  8
CORTE
100
AcDbLine
 10
1294.0020642699767
 20
-6.299224251086593
 30
0.0
 11
1294.001894
 21
-6.29917
 31
0.0
  0
LINE
  5
14E
330
17
100
AcDbEntity
  8
CORTE
100
AcDbLine
 10
1294.004499
 20
-6.3
 30
0.0
 11
1294.0020642699767
 21
-6.299224251086593
 31
0.0
  0
LINE
  5
14F
330
17
100
AcDbEntity
  8
CORTE
100
AcDbLine
 10
1294.0235196270478
 20
-6.3
 30
0.0
 11
1294.004499
 21
-6.3
 31
0.0
  0
LINE
  5
150
330
17
100
AcDbEntity
  8
CORTE
100
AcDbLine
 10
1294.2955
 20
-6.3
 30
0.0
 11
1294.0235196270478
 21
-6.3
 31
0.0
  0
LINE
  5
151
330
17
100
AcDbEntity
  8
CORTE
100
AcDbLine
 10
1294.2956702699767
 20
-6.299945748913407
 30
0.0
 11
1294.2955
 21
-6.3
 31
0.0
  0
LINE
  5
152
330
17
100
AcDbEntity
  8
CORTE
100
AcDbLine
 10
1294.298105
 20
-6.29917
 30
0.0
 11
1294.2956702699767
 21
-6.299945748913407
 31
0.0
  0
LINE
  5
153
330
17
100
AcDbEntity
  8
CORTE
100
AcDbLine
 10
1294.298681
 20
-6.298682
 30
0.0
 11
1294.2981426489469
 21
-6.2991381029755935
 31
0.0
  0
LINE
  5
154
330
17
100
AcDbEntity
  8
CORTE
100
AcDbLine
 10
1294.0004858238003
 20
-8.850512426149637
 30
0.0
 11
1294.000314
 21
-8.850716
 31
0.0
  0
LINE
  5
155
330
17
100
AcDbEntity
  8
CORTE
100
AcDbLine
 10
1294.0002932210505
 20
-8.850781116198359
 30
0.0
 11
1294.000314
 21
-8.850716
 31
0.0
  0
LINE
  5
156
330
17
100
AcDbEntity
  8
CORTE
100
AcDbLine
 10
1294.0002932210505
 20
-8.850781116198359
 30
0.0
 11
1294.0
 21
-8.8517
 31
0.0
  0
LINE
  5
157
330
17
100
AcDbEntity
  8
CORTE
100
AcDbLine
 10
1294.0
 20
-8.871327504505105
 30
0.0
 11
1294.0
 21
-8.8517
 31
0.0
  0
LINE
  5
158
330
17
100
AcDbEntity
  8
CORTE
100
AcDbLine
 10
1294.0
 20
-8.871327504505105
 30
0.0
 11
1294.0
 21
-9.1483
 31
0.0
  0
LINE
  5
159
330
17
100
AcDbEntity
  8
CORTE
100
AcDbLine
 10
1294.0000207789494
 20
-9.14836511619836
 30
0.0
 11
1294.0
 21
-9.1483
 31
0.0
  0
LINE
  5
15A
330
17
100
AcDbEntity
  8
CORTE
100
AcDbLine
 10
1294.0000207789494
 20
-9.14836511619836
 30
0.0
 11
1294.000314
 21
-9.149284
 31
0.0
  0
LINE
  5
15B
330
17
100
AcDbEntity
  8
CORTE
100
AcDbLine
 10
1294.0003261761997
 20
-9.149298426149636
 30
0.0
 11
1294.000498
 21
-9.149502
 31
0.0
  0
LINE
  5
15C
330
17
100
AcDbEntity
  8
CORTE
100
AcDbLine
 10
1294.299685
 20
-8.850716
 30
0.0
 11
1294.2995131761998
 21
-8.850512426149637
 31
0.0
  0
LINE
  5
15D
330
17
100
AcDbEntity
  8
CORTE
100
AcDbLine
 10
1294.299685
 20
-8.850716
 30
0.0
 11
1294.2997057789494
 21
-8.850781116198359
 31
0.0
  0
LINE
  5
15E
330
17
100
AcDbEntity
  8
CORTE
100
AcDbLine
 10
1294.299999
 20
-8.8517
 30
0.0
 11
1294.2997057789494
 21
-8.850781116198359
 31
0.0
  0
LINE
  5
15F
330
17
100
AcDbEntity
  8
CORTE
100
AcDbLine
 10
1294.299999
 20
-8.8517
 30
0.0
 11
1294.299999
 21
-8.871327504505105
 31
0.0
  0
LINE
  5
160
330
17
100
AcDbEntity
  8
CORTE
100
AcDbLine
 10
1294.299999
 20
-9.1483
 30
0.0
 11
1294.299999
 21
-8.871327504505105
 31
0.0
  0
LINE
  5
161
330
17
100
AcDbEntity
  8
CORTE
100
AcDbLine
 10
1294.299999
 20
-9.1483
 30
0.0
 11
1294.2999782210504
 21
-9.14836511619836
 31
0.0
  0
LINE
  5
162
330
17
100
AcDbEntity
  8
CORTE
100
AcDbLine
 10
1294.299685
 20
-9.149284
 30
0.0
 11
1294.2999782210504
 21
-9.14836511619836
 31
0.0
  0
LINE
  5
163
330
17
100
AcDbEntity
  8
CORTE
100
AcDbLine
 10
1294.299501
 20
-9.149502
 30
0.0
 11
1294.2996728238004
 21
-9.149298426149636
 31
0.0
  0
LINE
  5
164
330
17
100
AcDbEntity
  8
CORTE
100
AcDbLine
 10
1294.0005123599747
 20
-8.850485823800307
 30
0.0
 11
1294.000715
 21
-8.850314
 31
0.0
  0
LINE
  5
165
330
17
100
AcDbEntity
  8
CORTE
100
AcDbLine
 10
1294.000715
 20
-8.850314
 30
0.0
 11
1294.0007801161983
 21
-8.850293221050523
 31
0.0
  0
LINE
  5
166
330
17
100
AcDbEntity
  8
CORTE
100
AcDbLine
 10
1294.0007801161983
 20
-8.850293221050523
 30
0.0
 11
1294.001699
 21
-8.85
 31
0.0
  0
LINE
  5
167
330
17
100
AcDbEntity
  8
CORTE
100
AcDbLine
 10
1294.001699
 20
-8.85
 30
0.0
 11
1294.02132657068
 21
-8.85
 31
0.0
  0
LINE
  5
168
330
17
100
AcDbEntity
  8
CORTE
100
AcDbLine
 10
1294.02132657068
 20
-8.85
 30
0.0
 11
1294.2983
 21
-8.85
 31
0.0
  0
LINE
  5
169
330
17
100
AcDbEntity
  8
CORTE
100
AcDbLine
 10
1294.2983
 20
-8.85
 30
0.0
 11
1294.2983651161983
 21
-8.850020778949476
 31
0.0
  0
LINE
  5
16A
330
17
100
AcDbEntity
  8
CORTE
100
AcDbLine
 10
1294.2983651161983
 20
-8.850020778949476
 30
0.0
 11
1294.299284
 21
-8.850314
 31
0.0
  0
LINE
  5
16B
330
17
100
AcDbEntity
  8
CORTE
100
AcDbLine
 10
1294.2992983599747
 20
-8.850326176199692
 30
0.0
 11
1294.299501
 21
-8.850498
 31
0.0
  0
LINE
  5
16C
330
17
100
AcDbEntity
  8
CORTE
100
AcDbLine
 10
1294.000715
 20
-9.149686
 30
0.0
 11
1294.0005123599747
 21
-9.149514176199693
 31
0.0
  0
LINE
  5
16D
330
17
100
AcDbEntity
  8
CORTE
100
AcDbLine
 10
1294.0007801161983
 20
-9.149706778949477
 30
0.0
 11
1294.000715
 21
-9.149686
 31
0.0
  0
LINE
  5
16E
330
17
100
AcDbEntity
  8
CORTE
100
AcDbLine
 10
1294.001699
 20
-9.15
 30
0.0
 11
1294.0007801161983
 21
-9.149706778949477
 31
0.0
  0
LINE
  5
16F
330
17
100
AcDbEntity
  8
CORTE
100
AcDbLine
 10
1294.02132657068
 20
-9.15
 30
0.0
 11
1294.001699
 21
-9.15
 31
0.0
  0
LINE
  5
170
330
17
100
AcDbEntity
  8
CORTE
100
AcDbLine
 10
1294.2983
 20
-9.15
 30
0.0
 11
1294.02132657068
 21
-9.15
 31
0.0
  0
LINE
  5
171
330
17
100
AcDbEntity
  8
CORTE
100
AcDbLine
 10
1294.2983651161983
 20
-9.149979221050524
 30
0.0
 11
1294.2983
 21
-9.15
 31
0.0
  0
LINE
  5
172
330
17
100
AcDbEntity
  8
CORTE
100
AcDbLine
 10
1294.299284
 20
-9.149686
 30
0.0
 11
1294.2983651161983
 21
-9.149979221050524
 31
0.0
  0
LINE
  5
173
330
17
100
AcDbEntity
  8
CORTE
100
AcDbLine
 10
1294.299501
 20
-9.149502
 30
0.0
 11
1294.2992983599747
 21
-9.149673823800308
 31
0.0
  0
LINE
  5
174
330
17
100
AcDbEntity
  8
CORTE
100
AcDbLine
 10
1294.0012861683383
 20
-11.67135564894684
 30
0.0
 11
1294.000831
 21
-11.671894
 31
0.0
  0
LINE
  5
175
330
17
100
AcDbEntity
  8
CORTE
100
AcDbLine
 10
1294.0007766835506
 20
-11.672064335339352
 30
0.0
 11
1294.000831
 21
-11.671894
 31
0.0
  0
LINE
  5
176
330
17
100
AcDbEntity
  8
CORTE
100
AcDbLine
 10
1294.0007766835506
 20
-11.672064335339352
 30
0.0
 11
1294.0
 21
-11.6745
 31
0.0
  0
LINE
  5
177
330
17
100
AcDbEntity
  8
CORTE
100
AcDbLine
 10
1294.0
 20
-11.693520561685055
 30
0.0
 11
1294.0
 21
-11.6745
 31
0.0
  0
LINE
  5
178
330
17
100
AcDbEntity
  8
CORTE
100
AcDbLine
 10
1294.0
 20
-11.693520561685055
 30
0.0
 11
1294.0
 21
-11.9655
 31
0.0
  0
LINE
  5
179
330
17
100
AcDbEntity
  8
CORTE
100
AcDbLine
 10
1294.0000543164495
 20
-11.965670269976597
 30
0.0
 11
1294.0
 21
-11.9655
 31
0.0
  0
LINE
  5
17A
330
17
100
AcDbEntity
  8
CORTE
100
AcDbLine
 10
1294.0000543164495
 20
-11.965670269976597
 30
0.0
 11
1294.000831
 21
-11.968105
 31
0.0
  0
LINE
  5
17B
330
17
100
AcDbEntity
  8
CORTE
100
AcDbLine
 10
1294.0008628316616
 20
-11.96814264894684
 30
0.0
 11
1294.001318
 21
-11.968681
 31
0.0
  0
LINE
  5
17C
330
17
100
AcDbEntity
  8
CORTE
100
AcDbLine
 10
1294.299169
 20
-11.671894
 30
0.0
 11
1294.2987128970244
 21
-11.67135564894684
 31
0.0
  0
LINE
  5
17D
330
17
100
AcDbEntity
  8
CORTE
100
AcDbLine
 10
1294.299169
 20
-11.671894
 30
0.0
 11
1294.2992232510867
 21
-11.672064335339352
 31
0.0
  0
LINE
  5
17E
330
17
100
AcDbEntity
  8
CORTE
100
AcDbLine
 10
1294.299999
 20
-11.6745
 30
0.0
 11
1294.2992232510867
 21
-11.672064335339352
 31
0.0
  0
LINE
  5
17F
330
17
100
AcDbEntity
  8
CORTE
100
AcDbLine
 10
1294.299999
 20
-11.6745
 30
0.0
 11
1294.299999
 21
-11.693520561685055
 31
0.0
  0
LINE
  5
180
330
17
100
AcDbEntity
  8
CORTE
100
AcDbLine
 10
1294.299999
 20
-11.9655
 30
0.0
 11
1294.299999
 21
-11.693520561685055
 31
0.0
  0
LINE
  5
181
330
17
100
AcDbEntity
  8
CORTE
100
AcDbLine
 10
1294.299999
 20
-11.9655
 30
0.0
 11
1294.2999447489135
 21
-11.965670269976597
 31
0.0
  0
LINE
  5
182
330
17
100
AcDbEntity
  8
CORTE
100
AcDbLine
 10
1294.299169
 20
-11.968105
 30
0.0
 11
1294.2999447489135
 21
-11.965670269976597
 31
0.0
  0
LINE
  5
183
330
17
100
AcDbEntity
  8
CORTE
100
AcDbLine
 10
1294.298681
 20
-11.968681
 30
0.0
 11
1294.2991371029757
 21
-11.96814264894684
 31
0.0
  0
LINE
  5
184
330
17
100
AcDbEntity
  8
CORTE
100
AcDbLine
 10
1294.0013556489469
 20
-11.671286168338348
 30
0.0
 11
1294.001894
 21
-11.670831
 31
0.0
  0
LINE
  5
185
330
17
100
AcDbEntity
  8
CORTE
100
AcDbLine
 10
1294.001894
 20
-11.670831
 30
0.0
 11
1294.0020642699767
 21
-11.670776683550653
 31
0.0
  0
LINE
  5
186
330
17
100
AcDbEntity
  8
CORTE
100
AcDbLine
 10
1294.0020642699767
 20
-11.670776683550653
 30
0.0
 11
1294.004499
 21
-11.67
 31
0.0
  0
LINE
  5
187
330
17
100
AcDbEntity
  8
CORTE
100
AcDbLine
 10
1294.004499
 20
-11.67
 30
0.0
 11
1294.0235196270478
 21
-11.67
 31
0.0
  0
LINE
  5
188
330
17
100
AcDbEntity
  8
CORTE
100
AcDbLine
 10
1294.0235196270478
 20
-11.67
 30
0.0
 11
1294.2955
 21
-11.67
 31
0.0
  0
LINE
  5
189
330
17
100
AcDbEntity
  8
CORTE
100
AcDbLine
 10
1294.2955
 20
-11.67
 30
0.0
 11
1294.2956702699767
 21
-11.670054316449347
 31
0.0
  0
LINE
  5
18A
330
17
100
AcDbEntity
  8
CORTE
100
AcDbLine
 10
1294.2956702699767
 20
-11.670054316449347
 30
0.0
 11
1294.298105
 21
-11.670831
 31
0.0
  0
LINE
  5
18B
330
17
100
AcDbEntity
  8
CORTE
100
AcDbLine
 10
1294.2981426489469
 20
-11.670862831661651
 30
0.0
 11
1294.298681
 21
-11.671318
 31
0.0
  0
LINE
  5
18C
330
17
100
AcDbEntity
  8
CORTE
100
AcDbLine
 10
1294.001894
 20
-11.969169
 30
0.0
 11
1294.0013556489469
 21
-11.968712897024407
 31
0.0
  0
LINE
  5
18D
330
17
100
AcDbEntity
  8
CORTE
100
AcDbLine
 10
1294.0020642699767
 20
-11.969223251086595
 30
0.0
 11
1294.001894
 21
-11.969169
 31
0.0
  0
LINE
  5
18E
330
17
100
AcDbEntity
  8
CORTE
100
AcDbLine
 10
1294.004499
 20
-11.969999
 30
0.0
 11
1294.0020642699767
 21
-11.969223251086595
 31
0.0
  0
LINE
  5
18F
330
17
100
AcDbEntity
  8
CORTE
100
AcDbLine
 10
1294.0235196270478
 20
-11.969999
 30
0.0
 11
1294.004499
 21
-11.969999
 31
0.0
  0
LINE
  5
190
330
17
100
AcDbEntity
  8
CORTE
100
AcDbLine
 10
1294.2955
 20
-11.969999
 30
0.0
 11
1294.0235196270478
 21
-11.969999
 31
0.0
  0
LINE
  5
191
330
17
100
AcDbEntity
  8
CORTE
100
AcDbLine
 10
1294.2956702699767
 20
-11.969944748913406
 30
0.0
 11
1294.2955
 21
-11.969999
 31
0.0
  0
LINE
  5
192
330
17
100
AcDbEntity
  8
CORTE
100
AcDbLine
 10
1294.298105
 20
-11.969169
 30
0.0
 11
1294.2956702699767
 21
-11.969944748913406
 31
0.0
  0
LINE
  5
193
330
17
100
AcDbEntity
  8
CORTE
100
AcDbLine
 10
1294.298681
 20
-11.968681
 30
0.0
 11
1294.2981426489469
 21
-11.969137102975594
 31
0.0
  0
LWPOLYLINE
  5
194
330
17
100
AcDbEntity
  8
CORTE
100
AcDbPolyline
 90
41
 70
1
 10
1294.0010467507122
 20
-6.001639377492878
 10
1294.000831
 20
-6.001895
 10
1294.0003681495728
 20
-6.003345933048434
 10
1294.0
 20
-6.0045
 10
1294.0
 20
-9.341368078347578
 10
1294.0
 20
-11.995501
 10
1294.0004628504273
 20
-11.996951376068377
 10
1294.000831
 20
-11.998105
 10
1294.0011022492877
 20
-11.998426377492878
 10
1294.001318
 20
-11.998682
 10
1294.0016388205129
 20
-11.99895324928775
 10
1294.001894
 20
-11.999169
 10
1294.0033449330485
 20
-11.99963185042735
 10
1294.004499
 20
-12.0
 10
1294.1665807535612
 20
-12.0
 10
1294.2955
 20
-12.0
 10
1294.2969509330485
 20
-11.99953714957265
 10
1294.298105
 20
-11.999169
 10
1294.2984258205129
 20
-11.998897750712251
 10
1294.298681
 20
-11.998682
 10
1294.2988971937323
 20
-11.998426377492878
 10
1294.299169
 20
-11.998105
 10
1294.2995367065528
 20
-11.996951376068377
 10
1294.299999
 20
-11.995501
 10
1294.299999
 20
-9.341368078347578
 10
1294.299999
 20
-6.0045
 10
1294.2996312934472
 20
-6.003345933048434
 10
1294.299169
 20
-6.001895
 10
1294.2989528062678
 20
-6.001639377492878
 10
1294.298681
 20
-6.001318
 10
1294.2984258205129
 20
-6.001102249287749
 10
1294.298105
 20
-6.000831
 10
1294.2969509330485
 20
-6.0004628504273505
 10
1294.2955
 20
-6.0
 10
1294.1665807535612
 20
-6.0
 10
1294.004499
 20
-6.0
 10
1294.0033449330485
 20
-6.000368149572649
 10
1294.001894
 20
-6.000831
 10
1294.0016388205129
 20
-6.001046750712251
 10
1294.001318
 20
-6.001318
 10
1294.0010467507122
 20
-6.001639377492878
  0
LWPOLYLINE
  5
195
330
17
100
AcDbEntity
  8
CORTE
100
AcDbPolyline
 90
41
 70
1
 10
1294.0010467507122
 20
-11.70163982051282
 10
1294.000831
 20
-11.701895
 10
1294.0003681495728
 20
-11.703345933048434
 10
1294.0
 20
-11.7045
 10
1294.0
 20
-11.866581753561254
 10
1294.0
 20
-11.995501
 10
1294.0004628504273
 20
-11.996951933048434
 10
1294.000831
 20
-11.998106
 10
1294.0011022492877
 20
-11.99842682051282
 10
1294.001318
 20
-11.998682
 10
1294.001639377493
 20
-11.99895324928775
 10
1294.001895
 20
-11.999169
 10
1294.0033453760684
 20
-11.99963185042735
 10
1294.004499
 20
-12.0
 10
1298.4553277492878
 20
-12.0
 10
1301.995501
 20
-12.0
 10
1301.9969508190884
 20
-11.99953714957265
 10
1301.998104
 20
-11.999169
 10
1301.9984259344728
 20
-11.998897750712251
 10
1301.998682
 20
-11.998682
 10
1301.9988973076922
 20
-11.99842682051282
 10
1301.999168
 20
-11.998106
 10
1301.9995365925927
 20
-11.996951933048434
 10
1302.0
 20
-11.995501
 10
1302.0
 20
-11.866581753561254
 10
1302.0
 20
-11.7045
 10
1301.9996314074074
 20
-11.703345933048434
 10
1301.999168
 20
-11.701895
 10
1301.9989526923077
 20
-11.70163982051282
 10
1301.998682
 20
-11.701319
 10
1301.9984259344728
 20
-11.701102806267807
 10
1301.998104
 20
-11.700831
 10
1301.9969508190884
 20
-11.700463293447294
 10
1301.995501
 20
-11.700001
 10
1298.4553277492878
 20
-11.700001
 10
1294.004499
 20
-11.700001
 10
1294.0033453760684
 20
-11.700368706552707
 10
1294.001895
 20
-11.700831
 10
1294.001639377493
 20
-11.701047193732194
 10
1294.001318
 20
-11.701319
 10
1294.0010467507122
 20
-11.70163982051282
  0
LINE
  5
196
330
17
100
AcDbEntity
  8
EJES
100
AcDbLine
 10
1294.15
 20
0.5
 30
0.0
 11
1294.15
 21
-12.6
 31
0.0
  0
TEXT
  5
197
330
17
100
AcDbEntity
  8
TEXTOS
100
AcDbText
 10
1294.15
 20
0.55
 30
0.0
 40
0.15
  1
1
100
AcDbText
  0
LINE
  5
198
330
17
100
AcDbEntity
  8
EJES
100
AcDbLine
 10
1301.9
 20
0.5
 30
0.0
 11
1301.9
 21
-12.6
 31
0.0
  0
TEXT
  5
199
330
17
100
AcDbEntity
  8
TEXTOS
100
AcDbText
 10
1301.9
 20
0.55
 30
0.0
 40
0.15
  1
2
100
AcDbText
  0
LINE
  5
19A
330
17
100
AcDbEntity
  8
EJES
100
AcDbLine
 10
1293.2
 20
-0.13
 30
0.0
 11
1302.5
 21
-0.13
 31
0.0
  0
TEXT
  5
19B
330
17
100
AcDbEntity
  8
TEXTOS
100
AcDbText
 10
1293.1
 20
-0.13
 30
0.0
 40
0.15
  1
A
100
AcDbText
  0
LINE
  5
19C
330
17
100
AcDbEntity
  8
EJES
100
AcDbLine
 10
1293.2
 20
-6.1
 30
0.0
 11
1302.5
 21
-6.1
 31
0.0
  0
TEXT
  5
19D
330
17
100
AcDbEntity
  8
TEXTOS
100
AcDbText
 10
1293.1
 20
-6.1
 30
0.0
 40
0.15
  1
B
100
AcDbText
  0
LINE
  5
19E
330
17
100
AcDbEntity
  8
EJES
100
AcDbLine
 10
1293.2
 20
-9.0
 30
0.0
 11
1302.5
 21
-9.0
 31
0.0
  0
TEXT
  5
19F
330
17
100
AcDbEntity
  8
TEXTOS
100
AcDbText
 10
1293.1
 20
-9.0
 30
0.0
 40
0.15
  1
C
100
AcDbText
  0
LINE
  5
1A0
330
17
100
AcDbEntity
  8
EJES
100
AcDbLine
 10
1293.2
 20
-11.85
 30
0.0
 11
1302.5
 21
-11.85
 31
0.0
  0
TEXT
  5
1A1
330
17
100
AcDbEntity
  8
TEXTOS
100
AcDbText
 10
1293.1
 20
-11.85
 30
0.0
 40
0.15
  1
D
100
AcDbText
  0
DIMENSION
  5
1A2
330
17
100
AcDbEntity
  8
COTAS
100
AcDbDimension
280
0
  2
*D1
  3
Standard
 10
1294.15
 20
0.25
 30
0.0
 11
1298.025
 21
0.25
 31
0.0
 70
32
 71
5
  1
<>
100
AcDbAlignedDimension
 13
1294.15
 23
0.25
 33
0.0
 14
1301.9
 24
0.25
 34
0.0
 50
0.0
100
AcDbRotatedDimension
1001
ACAD
1000
DSTYLE
1002
{
1070
140
1040
0.13
1070
41
1040
0.09
1002
}
  0
DIMENSION
  5
1B6
330
17
100
AcDbEntity
  8
COTAS
100
AcDbDimension
280
0
  2
*D2
  3
Standard
 10
1302.6
 20
-6.1
 30
0.0
 11
1302.6
 21
-7.55
 31
0.0
 70
32
 71
5
  1
<>
100
AcDbAlignedDimension
 13
1302.6
 23
-6.1
 33
0.0
 14
1302.6
 24
-9.0
 34
0.0
 50
90.0
100
AcDbRotatedDimension
1001
ACAD
1000
DSTYLE
1002
{
1070
140
1040
0.13
1070
41
1040
0.09
1002
}
  0
DIMENSION
  5
1C6
330
17
100
AcDbEntity
  8
COTAS
100
AcDbDimension
280
0
  2
*D3
  3
Standard
 10
1302.6
 20
-9.0
 30
0.0
 11
1302.6
 21
-10.425
 31
0.0
 70
32
 71
5
  1
<>
100
AcDbAlignedDimension
 13
1302.6
 23
-9.0
 33
0.0
 14
1302.6
 24
-11.85
 34
0.0
 50
90.0
100
AcDbRotatedDimension
1001
ACAD
1000
DSTYLE
1002
{
1070
140
1040
0.13
1070
41
1040
0.09
1002
}
  0
LWPOLYLINE
  5
1D6
330
17
100
AcDbEntity
  8
CORTE
100
AcDbPolyline
 90
5
 70
1
 10
1334.0
 20
3.2
 10
1334.25
 20
3.2
 10
1334.25
 20
3.0
 10
1334.0
 20
3.0
 10
1334.0
 20
3.2
  0
LWPOLYLINE
  5
1D7
330
17
100
AcDbEntity
  8
VISTA
100
AcDbPolyline
 90
41
 70
1
 10
1332.9979062306863
 20
4.278106726686969
 10
1332.997814
 20
4.278216
 10
1332.997657393671
 20
4.27870676633017
 10
1332.9975
 20
4.2792
 10
1332.9975
 20
4.2999478448527135
 10
1332.9975
 20
4.3208
 10
1332.997656606329
 20
4.32129076633017
 10
1332.997814
 20
4.321784
 10
1332.9979057693138
 20
4.3218927266869684
 10
1332.997998
 20
4.322002
 10
1332.9981072254332
 20
4.3220937693137715
 10
1332.998217
 20
4.322186
 10
1332.9987077663302
 20
4.322342606328936
 10
1332.999201
 20
4.3225
 10
1333.0199483461065
 20
4.3225
 10
1333.0408
 20
4.3225
 10
1333.0412907663301
 20
4.322343393671064
 10
1333.041784
 20
4.322186
 10
1333.0418932254333
 20
4.322094230686229
 10
1333.042003
 20
4.322002
 10
1333.0420952306863
 20
4.3218927266869684
 10
1333.042187
 20
4.321784
 10
1333.0423438924174
 20
4.32129076633017
 10
1333.0425
 20
4.3208
 10
1333.0425
 20
4.2999478448527135
 10
1333.0425
 20
4.2792
 10
1333.0423431075826
 20
4.27870676633017
 10
1333.042187
 20
4.278216
 10
1333.0420947693137
 20
4.278106726686969
 10
1333.042003
 20
4.277998
 10
1333.0418932254333
 20
4.277905769313771
 10
1333.041784
 20
4.277814
 10
1333.0412907663301
 20
4.277656606328937
 10
1333.0408
 20
4.2775
 10
1333.0199483461065
 20
4.2775
 10
1332.999201
 20
4.2775
 10
1332.9987077663302
 20
4.277657393671063
 10
1332.998217
 20
4.277814
 10
1332.9981072254332
 20
4.277906230686229
 10
1332.997998
 20
4.277998
 10
1332.9979062306863
 20
4.278106726686969
  0
LWPOLYLINE
  5
1D8
330
17
100
AcDbEntity
  8
VISTA
100
AcDbPolyline
 90
41
 70
1
 10
1333.0064062306863
 20
3.7931067266869687
 10
1333.006314
 20
3.793216
 10
1333.0061578924174
 20
3.7937067663301702
 10
1333.006001
 20
3.7942
 10
1333.006001
 20
3.8064691582542487
 10
1333.006001
 20
3.8188
 10
1333.0061571075826
 20
3.81929076633017
 10
1333.006314
 20
3.819784
 10
1333.0064057693137
 20
3.8198927266869687
 10
1333.006498
 20
3.820002
 10
1333.0066072254333
 20
3.8200937693137718
 10
1333.006717
 20
3.820186
 10
1333.00720776633
 20
3.8203426063289365
 10
1333.007701
 20
3.8205
 10
1333.019969659508
 20
3.8205
 10
1333.0323
 20
3.8205
 10
1333.0327907663302
 20
3.8203433936710636
 10
1333.033284
 20
3.820186
 10
1333.0333932254332
 20
3.8200942306862284
 10
1333.033503
 20
3.820002
 10
1333.0335952306862
 20
3.8198927266869687
 10
1333.033687
 20
3.819784
 10
1333.0338438924173
 20
3.81929076633017
 10
1333.034
 20
3.8188
 10
1333.034
 20
3.8064691582542487
 10
1333.034
 20
3.7942
 10
1333.0338431075827
 20
3.7937067663301702
 10
1333.033687
 20
3.793216
 10
1333.0335947693138
 20
3.7931067266869687
 10
1333.033503
 20
3.792998
 10
1333.0333932254332
 20
3.7929057693137715
 10
1333.033284
 20
3.792814
 10
1333.0327907663302
 20
3.7926566063289364
 10
1333.0323
 20
3.7925
 10
1333.019969659508
 20
3.7925
 10
1333.007701
 20
3.7925
 10
1333.00720776633
 20
3.7926573936710635
 10
1333.006717
 20
3.792814
 10
1333.0066072254333
 20
3.7929062306862282
 10
1333.006498
 20
3.792998
 10
1333.0064062306863
 20
3.7931067266869687
  0
LWPOLYLINE
  5
1D9
330
17
100
AcDbEntity
  8
VISTA
100
AcDbPolyline
 90
41
 70
1
 10
1333.0029642289169
 20
3.2505380113920443
 10
1333.002814
 20
3.250716
 10
1333.0027565524508
 20
3.2508966018796874
 10
1333.002501
 20
3.2517
 10
1333.002501
 20
3.4437913895130117
 10
1333.002501
 20
4.2983
 10
1333.002558447549
 20
4.298480601879688
 10
1333.002814
 20
4.299284
 10
1333.0028477710832
 20
4.299324011392045
 10
1333.002998
 20
4.299502
 10
1333.0030381949305
 20
4.299535771083194
 10
1333.003217
 20
4.299686
 10
1333.0033974183411
 20
4.299743631087624
 10
1333.0042
 20
4.3
 10
1333.01
 20
4.3
 10
1333.035801
 20
4.3
 10
1333.0359814183412
 20
4.299942368912376
 10
1333.036784
 20
4.299686
 10
1333.0368241949304
 20
4.299652228916806
 10
1333.037003
 20
4.299502
 10
1333.0371532289168
 20
4.299324011392045
 10
1333.037187
 20
4.299284
 10
1333.0374425524508
 20
4.298480601879688
 10
1333.0375
 20
4.2983
 10
1333.0375
 20
3.4437913895130117
 10
1333.0375
 20
3.2517
 10
1333.037244447549
 20
3.2508966018796874
 10
1333.037187
 20
3.250716
 10
1333.0370367710832
 20
3.2505380113920443
 10
1333.037003
 20
3.250498
 10
1333.0368241949304
 20
3.2503477710831934
 10
1333.036784
 20
3.250314
 10
1333.0359814183412
 20
3.250057631087624
 10
1333.035801
 20
3.25
 10
1333.01
 20
3.25
 10
1333.0042
 20
3.25
 10
1333.0033974183411
 20
3.250256368912376
 10
1333.003217
 20
3.250314
 10
1333.0030381949305
 20
3.2504642289168064
 10
1333.002998
 20
3.250498
 10
1333.0029642289169
 20
3.2505380113920443
  0
LWPOLYLINE
  5
1DA
330
17
100
AcDbEntity
  8
VISTA
100
AcDbPolyline
 90
9
 70
1
 10
1332.999
 20
3.0875
 10
1332.999
 20
3.056099290780142
 10
1332.999
 20
3.0325
 10
1332.9869858156028
 20
3.0325
 10
1332.971
 20
3.0325
 10
1332.971
 20
3.0639007092198582
 10
1332.971
 20
3.0875
 10
1332.9830141843972
 20
3.0875
 10
1332.999
 20
3.0875
  0
LWPOLYLINE
  5
1DB
330
17
100
AcDbEntity
  8
VISTA
100
AcDbPolyline
 90
41
 70
1
 10
1333.000716
 20
3.0410709999999996
 10
1333.000554
 20
3.041263
 10
1333.000277
 20
3.0421315
 10
1333.0
 20
3.043
 10
1333.0
 20
3.12
 10
1333.0
 20
3.197
 10
1333.000277
 20
3.1978685000000002
 10
1333.000554
 20
3.198737
 10
1333.000716
 20
3.1989289999999997
 10
1333.000878
 20
3.199121
 10
1333.001071
 20
3.1992835
 10
1333.001264
 20
3.199446
 10
1333.002132
 20
3.199723
 10
1333.003
 20
3.2
 10
1333.5
 20
3.2
 10
1333.997
 20
3.2
 10
1333.997868
 20
3.199723
 10
1333.998736
 20
3.199446
 10
1333.998929
 20
3.1992835
 10
1333.999122
 20
3.199121
 10
1333.999284
 20
3.1989289999999997
 10
1333.999446
 20
3.198737
 10
1333.999723
 20
3.1978685000000002
 10
1334.0
 20
3.197
 10
1334.0
 20
3.12
 10
1334.0
 20
3.043
 10
1333.999723
 20
3.0421315
 10
1333.999446
 20
3.041263
 10
1333.999284
 20
3.0410709999999996
 10
1333.999122
 20
3.040879
 10
1333.998929
 20
3.0407165000000003
 10
1333.998736
 20
3.040554
 10
1333.997868
 20
3.040277
 10
1333.997
 20
3.04
 10
1333.5
 20
3.04
 10
1333.003
 20
3.04
 10
1333.002132
 20
3.040277
 10
1333.001264
 20
3.040554
 10
1333.001071
 20
3.0407165000000003
 10
1333.000878
 20
3.040879
 10
1333.000716
 20
3.0410709999999996
  0
LWPOLYLINE
  5
1DC
330
17
100
AcDbEntity
  8
CORTE
100
AcDbPolyline
 90
13
 70
1
 10
1334.151075
 20
3.2016065
 10
1334.150831
 20
3.201895
 10
1334.150416
 20
3.2031975
 10
1334.150001
 20
3.2045
 10
1334.150001
 20
4.45
 10
1334.25
 20
4.45
 10
1334.25
 20
3.2
 10
1334.1545
 20
3.2
 10
1334.153198
 20
3.200415
 10
1334.151896
 20
3.20083
 10
1334.1516075
 20
3.201074
 10
1334.151319
 20
3.201318
 10
1334.151075
 20
3.2016065
  0
LWPOLYLINE
  5
1DD
330
17
100
AcDbEntity
  8
VISTA
100
AcDbPolyline
 90
9
 70
1
 10
1334.080001
 20
3.189
 10
1334.080001
 20
3.18
 10
1334.080001
 20
3.171
 10
1334.0600005
 20
3.171
 10
1334.04
 20
3.171
 10
1334.04
 20
3.1799999999999997
 10
1334.04
 20
3.189
 10
1334.0600005
 20
3.189
 10
1334.080001
 20
3.189
  0
LWPOLYLINE
  5
1DE
330
17
100
AcDbEntity
  8
VISTA
100
AcDbPolyline
 90
13
 70
1
 10
1332.968086
 20
3.254586
 10
1332.967501
 20
3.256
 10
1332.967501
 20
3.264
 10
1332.968086
 20
3.265414
 10
1332.969501
 20
3.266
 10
1333.0705
 20
3.266
 10
1333.071915
 20
3.265414
 10
1333.0725
 20
3.264
 10
1333.0725
 20
3.256
 10
1333.071915
 20
3.254586
 10
1333.0705
 20
3.254
 10
1332.969501
 20
3.254
 10
1332.968086
 20
3.254586
  0
LWPOLYLINE
  5
1DF
330
17
100
AcDbEntity
  8
VISTA
100
AcDbPolyline
 90
14
 70
1
 10
1333.000292
 20
3.210293
 10
1333.0
 20
3.211
 10
1333.0
 20
3.234
 10
1333.0000624999964
 20
3.2347134999996667
 10
1333.0002044999871
 20
3.235003
 10
1333.5
 20
3.2424999999999997
 10
1333.9997802968987
 20
3.249997
 10
1334.0000955346804
 20
3.2497090287317567
 10
1334.0
 20
3.249
 10
1334.0
 20
3.211
 10
1333.999708
 20
3.210293
 10
1333.999
 20
3.21
 10
1333.001
 20
3.21
 10
1333.000292
 20
3.210293
  0
LWPOLYLINE
  5
1E0
330
17
100
AcDbEntity
  8
CORTE
100
AcDbPolyline
 90
14
 70
1
 10
1334.0
 20
2.9983
 10
1334.000157
 20
2.998792
 10
1334.000314
 20
2.999284
 10
1334.000406
 20
2.999393
 10
1334.000498
 20
2.999502
 10
1334.0006065
 20
2.999594
 10
1334.000715
 20
2.999686
 10
1334.001207
 20
2.9998430000000003
 10
1334.001699
 20
3.0
 10
1334.1499995
 20
3.0
 10
1334.25
 20
3.0
 10
1334.25
 20
2.85
 10
1334.0
 20
2.85
 10
1334.0
 20
2.9983
  0
LWPOLYLINE
  5
1E1
330
17
100
AcDbEntity
  8
CORTE
100
AcDbPolyline
 90
14
 70
1
 10
1334.0
 20
2.9955
 10
1334.0004155000693
 20
2.996802500217409
 10
1334.000831
 20
2.998105
 10
1334.0010745000407
 20
2.9983935000481554
 10
1334.001318
 20
2.998682
 10
1334.001606000048
 20
2.9989255000406443
 10
1334.001894
 20
2.999169
 10
1334.0031965002174
 20
2.999584500069354
 10
1334.004499
 20
3.0
 10
1334.1499995242866
 20
3.0
 10
1334.25
 20
3.0
 10
1334.25
 20
2.85
 10
1334.0
 20
2.85
 10
1334.0
 20
2.9955
  0
LWPOLYLINE
  5
1E2
330
17
100
AcDbEntity
  8
VISTA
100
AcDbPolyline
 90
7
 70
1
 10
1333.06
 20
3.234
 10
1333.06
 20
3.232
 10
1332.967
 20
3.229
 10
1332.967
 20
3.199
 10
1332.965
 20
3.199
 10
1332.965
 20
3.231
 10
1333.06
 20
3.234
  0
DIMENSION
  5
1E3
330
17
100
AcDbEntity
  8
COTAS
100
AcDbDimension
280
0
  2
*D4
  3
Standard
 10
1334.32
 20
3.25
 30
0.0
 11
1334.32
 21
3.7750000953674316
 31
0.0
 70
32
 71
5
  1
<>
100
AcDbAlignedDimension
 13
1334.32
 23
3.25
 33
0.0
 14
1334.32
 24
4.300000190734863
 34
0.0
 50
90.0
100
AcDbRotatedDimension
1001
ACAD
1000
DSTYLE
1002
{
1070
140
1040
0.13
1070
41
1040
0.09
1002
}
  0
ENDSEC
  0
SECTION
  2
OBJECTS
  0
DICTIONARY
  5
A
330
0
100
AcDbDictionary
281
1
  3
ACAD_COLOR
350
B
  3
ACAD_GROUP
350
C
  3
ACAD_LAYOUT
350
D
  3
ACAD_MATERIAL
350
E
  3
ACAD_MLEADERSTYLE
350
F
  3
ACAD_MLINESTYLE
350
10
  3
ACAD_PLOTSETTINGS
350
11
  3
ACAD_PLOTSTYLENAME
350
12
  3
ACAD_SCALELIST
350
14
  3
ACAD_TABLESTYLE
350
15
  3
ACAD_VISUALSTYLE
350
16
  3
EZDXF_META
350
2D
  0
DICTIONARY
  5
B
330
A
100
AcDbDictionary
281
1
  0
DICTIONARY
  5
C
330
A
100
AcDbDictionary
281
1
  0
DICTIONARY
  5
D
330
A
100
AcDbDictionary
281
1
  3
Model
350
1A
  3
Layout1
350
1E
  0
DICTIONARY
  5
E
330
A
100
AcDbDictionary
281
1
  3
ByBlock
350
1F
  3
ByLayer
350
20
  3
Global
350
21
  0
DICTIONARY
  5
F
330
A
100
AcDbDictionary
281
1
  3
Standard
350
2C
  0
DICTIONARY
  5
10
330
A
100
AcDbDictionary
281
1
  3
Standard
350
22
  0
DICTIONARY
  5
11
330
A
100
AcDbDictionary
281
1
  0
ACDBDICTIONARYWDFLT
  5
12
330
A
100
AcDbDictionary
281
1
  3
Normal
350
13
100
AcDbDictionaryWithDefault
340
13
  0
ACDBPLACEHOLDER
  5
13
330
12
  0
DICTIONARY
  5
14
330
A
100
AcDbDictionary
281
1
  0
DICTIONARY
  5
15
330
A
100
AcDbDictionary
281
1
  0
DICTIONARY
  5
16
330
A
100
AcDbDictionary
281
1
  0
LAYOUT
  5
1A
330
D
100
AcDbPlotSettings
  1

  4
A3
  6

 40
7.5
 41
20.0
 42
7.5
 43
20.0
 44
420.0
 45
297.0
 46
0.0
 47
0.0
 48
0.0
 49
0.0
140
0.0
141
0.0
142
1.0
143
1.0
 70
1024
 72
1
 73
0
 74
5
  7

 75
16
 76
0
 77
2
 78
300
147
1.0
148
0.0
149
0.0
100
AcDbLayout
  1
Model
 70
1
 71
0
 10
0.0
 20
0.0
 11
420.0
 21
297.0
 12
0.0
 22
0.0
 32
0.0
 14
1e+20
 24
1e+20
 34
1e+20
 15
-1e+20
 25
-1e+20
 35
-1e+20
146
0.0
 13
0.0
 23
0.0
 33
0.0
 16
1.0
 26
0.0
 36
0.0
 17
0.0
 27
1.0
 37
0.0
 76
1
330
17
  0
LAYOUT
  5
1E
330
D
100
AcDbPlotSettings
  1

  4
A3
  6

 40
7.5
 41
20.0
 42
7.5
 43
20.0
 44
420.0
 45
297.0
 46
0.0
 47
0.0
 48
0.0
 49
0.0
140
0.0
141
0.0
142
1.0
143
1.0
 70
0
 72
1
 73
0
 74
5
  7

 75
16
 76
0
 77
2
 78
300
147
1.0
148
0.0
149
0.0
100
AcDbLayout
  1
Layout1
 70
1
 71
1
 10
0.0
 20
0.0
 11
420.0
 21
297.0
 12
0.0
 22
0.0
 32
0.0
 14
1e+20
 24
1e+20
 34
1e+20
 15
-1e+20
 25
-1e+20
 35
-1e+20
146
0.0
 13
0.0
 23
0.0
 33
0.0
 16
1.0
 26
0.0
 36
0.0
 17
0.0
 27
1.0
 37
0.0
 76
1
330
1B
  0
MATERIAL
  5
1F
102
{ACAD_REACTORS
330
E
102
}
330
E
100
AcDbMaterial
  1
ByBlock
  2

 70
0
 40
1.0
 71
1
 41
1.0
 91
-1023410177
 42
1.0
 72
1
  3

 73
1
 74
1
 75
1
 44
0.5
 73
0
 45
1.0
 46
1.0
 77
1
  4

 78
1
 79
1
170
1
 48
1.0
171
1
  6

172
1
173
1
174
1
140
1.0
141
1.0
175
1
  7

176
1
177
1
178
1
143
1.0
179
1
  8

270
1
271
1
272
1
145
1.0
146
1.0
273
1
  9

274
1
275
1
276
1
 42
1.0
 72
1
  3

 73
1
 74
1
 75
1
 94
63
  0
MATERIAL
  5
20
102
{ACAD_REACTORS
330
E
102
}
330
E
100
AcDbMaterial
  1
ByLayer
  2

 70
0
 40
1.0
 71
1
 41
1.0
 91
-1023410177
 42
1.0
 72
1
  3

 73
1
 74
1
 75
1
 44
0.5
 73
0
 45
1.0
 46
1.0
 77
1
  4

 78
1
 79
1
170
1
 48
1.0
171
1
  6

172
1
173
1
174
1
140
1.0
141
1.0
175
1
  7

176
1
177
1
178
1
143
1.0
179
1
  8

270
1
271
1
272
1
145
1.0
146
1.0
273
1
  9

274
1
275
1
276
1
 42
1.0
 72
1
  3

 73
1
 74
1
 75
1
 94
63
  0
MATERIAL
  5
21
102
{ACAD_REACTORS
330
E
102
}
330
E
100
AcDbMaterial
  1
Global
  2

 70
0
 40
1.0
 71
1
 41
1.0
 91
-1023410177
 42
1.0
 72
1
  3

 73
1
 74
1
 75
1
 44
0.5
 73
0
 45
1.0
 46
1.0
 77
1
  4

 78
1
 79
1
170
1
 48
1.0
171
1
  6

172
1
173
1
174
1
140
1.0
141
1.0
175
1
  7

176
1
177
1
178
1
143
1.0
179
1
  8

270
1
271
1
272
1
145
1.0
146
1.0
273
1
  9

274
1
275
1
276
1
 42
1.0
 72
1
  3

 73
1
 74
1
 75
1
 94
63
  0
MLINESTYLE
  5
22
102
{ACAD_REACTORS
330
10
102
}
330
10
100
AcDbMlineStyle
  2
Standard
 70
0
  3

 62
256
 51
90.0
 52
90.0
 71
2
 49
0.5
 62
256
  6
BYLAYER
 49
-0.5
 62
256
  6
BYLAYER
  0
MLEADERSTYLE
  5
2C
102
{ACAD_REACTORS
330
F
102
}
330
F
100
AcDbMLeaderStyle
179
2
170
2
171
1
172
0
 90
2
 40
0.0
 41
0.0
173
1
 91
-1056964608
 92
-2
290
1
 42
2.0
291
1
 43
8.0
  3
Standard
 44
4.0
300

342
29
174
1
175
1
176
0
178
1
 93
-1056964608
 45
4.0
292
0
297
0
 46
4.0
 94
-1056964608
 47
1.0
 49
1.0
140
1.0
294
1
141
0.0
177
0
142
1.0
295
0
296
0
143
3.75
271
0
272
9
273
9
  0
DICTIONARY
  5
2D
330
A
100
AcDbDictionary
280
1
281
1
  3
CREATED_BY_EZDXF
350
2E
  3
WRITTEN_BY_EZDXF
350
1F5
  0
DICTIONARYVAR
  5
2E
330
2D
100
DictionaryVariables
280
0
  1
1.4.4 @ 2026-09-10T18:24:44.752033+00:00
  0
DICTIONARYVAR
  5
1F5
330
2D
100
DictionaryVariables
280
0
  1
1.4.4 @ 2026-09-10T18:24:45.062435+00:00
  0
ENDSEC
  0
EOF
