<svg xmlns="http://www.w3.org/2000/svg" width="1650" height="1940"><rect width="100%" height="100%" fill="#fcfbf7"/>
<text x="825.0" y="51.3" font-family="Segoe UI,sans-serif" font-size="31" text-anchor="middle" fill="#28372f">Carpinterías | poses reales y barridos</text>
<text x="825.0" y="91.7" font-family="Segoe UI,sans-serif" font-size="19" text-anchor="middle" fill="#64716a">Gris: cerrado · Verde: abierto · Pivote y posición extraídos del Blender · Metros</text>
<text x="275" y="162.2" font-family="Segoe UI,sans-serif" font-size="24" text-anchor="middle" fill="#28372f">studio</text>
<polygon points="99.39,266.40 112.25,247.39 126.28,247.39 139.13,266.40 139.13,280.22 126.28,437.45 112.25,437.45 99.39,280.22" fill="#bdc5bd"/>
<polygon points="123.13,449.04 124.02,435.03 281.74,432.08 295.53,432.95 313.69,446.97 312.81,460.98 293.04,472.61 279.24,471.74" fill="#3f7866"/>
<polyline points="113.26,441.77 125.26,441.77" fill="none" stroke="#a75335" stroke-width="2"/>
<polyline points="119.26,435.77 119.26,447.77" fill="none" stroke="#a75335" stroke-width="2"/>
<polyline points="112.25,247.39 122.17,247.29" fill="none" stroke="#a75335" stroke-width="2"/>
<polyline points="132.09,247.69 141.98,248.60" fill="none" stroke="#a75335" stroke-width="2"/>
<polyline points="151.81,250.01 161.55,251.92" fill="none" stroke="#a75335" stroke-width="2"/>
<polyline points="171.18,254.33 180.68,257.22" fill="none" stroke="#a75335" stroke-width="2"/>
<polyline points="190.02,260.59 199.17,264.44" fill="none" stroke="#a75335" stroke-width="2"/>
<polyline points="208.11,268.75 216.83,273.51" fill="none" stroke="#a75335" stroke-width="2"/>
<polyline points="225.29,278.71 233.47,284.33" fill="none" stroke="#a75335" stroke-width="2"/>
<polyline points="241.35,290.36 248.92,296.79" fill="none" stroke="#a75335" stroke-width="2"/>
<polyline points="256.15,303.59 263.02,310.76" fill="none" stroke="#a75335" stroke-width="2"/>
<polyline points="269.52,318.26 275.63,326.09" fill="none" stroke="#a75335" stroke-width="2"/>
<polyline points="281.32,334.22 286.60,342.63" fill="none" stroke="#a75335" stroke-width="2"/>
<polyline points="291.44,351.30 295.83,360.20" fill="none" stroke="#a75335" stroke-width="2"/>
<polyline points="299.77,369.32 303.23,378.63" fill="none" stroke="#a75335" stroke-width="2"/>
<polyline points="306.21,388.10 308.70,397.71" fill="none" stroke="#a75335" stroke-width="2"/>
<polyline points="310.71,407.43 312.21,417.24" fill="none" stroke="#a75335" stroke-width="2"/>
<polyline points="313.21,427.12 313.70,437.04" fill="none" stroke="#a75335" stroke-width="2"/>
<text x="275" y="525.7" font-family="Segoe UI,sans-serif" font-size="19" text-anchor="middle" fill="#64716a">Giro sobre bisagra</text>
<text x="825" y="162.2" font-family="Segoe UI,sans-serif" font-size="24" text-anchor="middle" fill="#28372f">suiteEntry</text>
<polygon points="665.79,450.33 869.72,450.33 869.72,461.39 859.89,468.14 825.49,468.14 665.79,461.39" fill="#bdc5bd"/>
<polygon points="653.86,252.20 664.91,251.86 671.97,261.47 673.05,295.85 671.31,455.69 660.26,456.03" fill="#3f7866"/>
<polyline points="659.79,455.86 671.79,455.86" fill="none" stroke="#a75335" stroke-width="2"/>
<polyline points="665.79,449.86 665.79,461.86" fill="none" stroke="#a75335" stroke-width="2"/>
<polyline points="869.72,450.33 869.19,440.13" fill="none" stroke="#a75335" stroke-width="2"/>
<polyline points="868.14,429.97 866.59,419.88" fill="none" stroke="#a75335" stroke-width="2"/>
<polyline points="864.54,409.87 861.99,399.98" fill="none" stroke="#a75335" stroke-width="2"/>
<polyline points="858.95,390.23 855.42,380.65" fill="none" stroke="#a75335" stroke-width="2"/>
<polyline points="851.42,371.25 846.95,362.07" fill="none" stroke="#a75335" stroke-width="2"/>
<polyline points="842.03,353.12 836.67,344.42" fill="none" stroke="#a75335" stroke-width="2"/>
<polyline points="830.88,336.01 824.67,327.90" fill="none" stroke="#a75335" stroke-width="2"/>
<polyline points="818.07,320.11 811.08,312.66" fill="none" stroke="#a75335" stroke-width="2"/>
<polyline points="803.73,305.56 796.04,298.85" fill="none" stroke="#a75335" stroke-width="2"/>
<polyline points="788.02,292.53 779.69,286.61" fill="none" stroke="#a75335" stroke-width="2"/>
<polyline points="771.08,281.13 762.20,276.07" fill="none" stroke="#a75335" stroke-width="2"/>
<polyline points="753.08,271.47 743.74,267.34" fill="none" stroke="#a75335" stroke-width="2"/>
<polyline points="734.21,263.67 724.51,260.49" fill="none" stroke="#a75335" stroke-width="2"/>
<polyline points="714.65,257.79 704.68,255.60" fill="none" stroke="#a75335" stroke-width="2"/>
<polyline points="694.61,253.90 684.47,252.71" fill="none" stroke="#a75335" stroke-width="2"/>
<polyline points="674.27,252.03 664.06,251.86" fill="none" stroke="#a75335" stroke-width="2"/>
<text x="825" y="525.7" font-family="Segoe UI,sans-serif" font-size="19" text-anchor="middle" fill="#64716a">Giro sobre bisagra</text>
<text x="1375" y="162.2" font-family="Segoe UI,sans-serif" font-size="24" text-anchor="middle" fill="#28372f">bedroomLink</text>
<polygon points="1402.28,252.24 1413.45,252.24 1420.27,262.16 1420.27,296.92 1413.45,455.79 1402.28,455.79" fill="#bdc5bd"/>
<polygon points="1204.24,456.60 1213.94,449.46 1248.68,448.37 1407.69,450.20 1408.04,461.37 1204.59,467.76" fill="#3f7866"/>
<polyline points="1401.86,455.79 1413.86,455.79" fill="none" stroke="#a75335" stroke-width="2"/>
<polyline points="1407.86,449.79 1407.86,461.79" fill="none" stroke="#a75335" stroke-width="2"/>
<polyline points="1402.28,252.24 1392.10,252.77" fill="none" stroke="#a75335" stroke-width="2"/>
<polyline points="1381.96,253.81 1371.88,255.36" fill="none" stroke="#a75335" stroke-width="2"/>
<polyline points="1361.89,257.42 1352.02,259.96" fill="none" stroke="#a75335" stroke-width="2"/>
<polyline points="1342.29,263.00 1332.73,266.53" fill="none" stroke="#a75335" stroke-width="2"/>
<polyline points="1323.35,270.53 1314.18,274.99" fill="none" stroke="#a75335" stroke-width="2"/>
<polyline points="1305.25,279.90 1296.58,285.26" fill="none" stroke="#a75335" stroke-width="2"/>
<polyline points="1288.18,291.04 1280.09,297.24" fill="none" stroke="#a75335" stroke-width="2"/>
<polyline points="1272.31,303.83 1264.88,310.81" fill="none" stroke="#a75335" stroke-width="2"/>
<polyline points="1257.80,318.14 1251.10,325.83" fill="none" stroke="#a75335" stroke-width="2"/>
<polyline points="1244.79,333.84 1238.89,342.15" fill="none" stroke="#a75335" stroke-width="2"/>
<polyline points="1233.42,350.75 1228.38,359.61" fill="none" stroke="#a75335" stroke-width="2"/>
<polyline points="1223.79,368.72 1219.66,378.04" fill="none" stroke="#a75335" stroke-width="2"/>
<polyline points="1216.01,387.55 1212.83,397.24" fill="none" stroke="#a75335" stroke-width="2"/>
<polyline points="1210.15,407.08 1207.96,417.03" fill="none" stroke="#a75335" stroke-width="2"/>
<polyline points="1206.27,427.09 1205.08,437.21" fill="none" stroke="#a75335" stroke-width="2"/>
<polyline points="1204.41,447.38 1204.24,457.58" fill="none" stroke="#a75335" stroke-width="2"/>
<text x="1375" y="525.7" font-family="Segoe UI,sans-serif" font-size="19" text-anchor="middle" fill="#64716a">Giro sobre bisagra</text>
<text x="275" y="597.2" font-family="Segoe UI,sans-serif" font-size="24" text-anchor="middle" fill="#28372f">bathLink</text>
<polygon points="302.28,687.24 313.45,687.24 320.28,697.16 320.28,731.92 313.45,890.79 302.28,890.79" fill="#bdc5bd"/>
<polygon points="104.24,891.60 113.94,884.46 148.68,883.37 307.69,885.21 308.04,896.37 104.59,902.76" fill="#3f7866"/>
<polyline points="301.86,890.79 313.86,890.79" fill="none" stroke="#a75335" stroke-width="2"/>
<polyline points="307.86,884.79 307.86,896.79" fill="none" stroke="#a75335" stroke-width="2"/>
<polyline points="302.28,687.24 292.10,687.77" fill="none" stroke="#a75335" stroke-width="2"/>
<polyline points="281.96,688.81 271.88,690.36" fill="none" stroke="#a75335" stroke-width="2"/>
<polyline points="261.90,692.42 252.02,694.96" fill="none" stroke="#a75335" stroke-width="2"/>
<polyline points="242.29,698.00 232.73,701.53" fill="none" stroke="#a75335" stroke-width="2"/>
<polyline points="223.35,705.53 214.18,709.99" fill="none" stroke="#a75335" stroke-width="2"/>
<polyline points="205.25,714.90 196.58,720.26" fill="none" stroke="#a75335" stroke-width="2"/>
<polyline points="188.18,726.04 180.09,732.24" fill="none" stroke="#a75335" stroke-width="2"/>
<polyline points="172.31,738.83 164.88,745.81" fill="none" stroke="#a75335" stroke-width="2"/>
<polyline points="157.80,753.14 151.10,760.83" fill="none" stroke="#a75335" stroke-width="2"/>
<polyline points="144.79,768.84 138.89,777.15" fill="none" stroke="#a75335" stroke-width="2"/>
<polyline points="133.42,785.75 128.38,794.61" fill="none" stroke="#a75335" stroke-width="2"/>
<polyline points="123.79,803.71 119.66,813.04" fill="none" stroke="#a75335" stroke-width="2"/>
<polyline points="116.01,822.55 112.83,832.24" fill="none" stroke="#a75335" stroke-width="2"/>
<polyline points="110.15,842.08 107.96,852.03" fill="none" stroke="#a75335" stroke-width="2"/>
<polyline points="106.27,862.09 105.08,872.21" fill="none" stroke="#a75335" stroke-width="2"/>
<polyline points="104.41,882.38 104.24,892.58" fill="none" stroke="#a75335" stroke-width="2"/>
<text x="275" y="960.7" font-family="Segoe UI,sans-serif" font-size="19" text-anchor="middle" fill="#64716a">Giro sobre bisagra</text>
<text x="825" y="597.2" font-family="Segoe UI,sans-serif" font-size="24" text-anchor="middle" fill="#28372f">poolBath</text>
<polygon points="655.06,688.06 863.15,688.06 863.15,699.48 700.74,706.46 665.21,706.46 655.06,699.48" fill="#bdc5bd"/>
<polygon points="857.44,693.95 868.86,693.59 880.93,855.70 882.05,891.21 875.39,901.58 863.98,901.94" fill="#3f7866"/>
<polyline points="857.15,693.77 869.15,693.77" fill="none" stroke="#a75335" stroke-width="2"/>
<polyline points="863.15,687.77 863.15,699.77" fill="none" stroke="#a75335" stroke-width="2"/>
<polyline points="655.06,688.06 655.05,698.84" fill="none" stroke="#a75335" stroke-width="2"/>
<polyline points="655.59,709.61 656.69,720.33" fill="none" stroke="#a75335" stroke-width="2"/>
<polyline points="658.34,730.98 660.54,741.53" fill="none" stroke="#a75335" stroke-width="2"/>
<polyline points="663.28,751.96 666.56,762.22" fill="none" stroke="#a75335" stroke-width="2"/>
<polyline points="670.37,772.31 674.69,782.18" fill="none" stroke="#a75335" stroke-width="2"/>
<polyline points="679.52,791.82 684.84,801.19" fill="none" stroke="#a75335" stroke-width="2"/>
<polyline points="690.64,810.27 696.90,819.05" fill="none" stroke="#a75335" stroke-width="2"/>
<polyline points="703.61,827.48 710.74,835.56" fill="none" stroke="#a75335" stroke-width="2"/>
<polyline points="718.29,843.26 726.22,850.56" fill="none" stroke="#a75335" stroke-width="2"/>
<polyline points="734.52,857.44 743.16,863.88" fill="none" stroke="#a75335" stroke-width="2"/>
<polyline points="752.13,869.86 761.39,875.37" fill="none" stroke="#a75335" stroke-width="2"/>
<polyline points="770.93,880.39 780.71,884.92" fill="none" stroke="#a75335" stroke-width="2"/>
<polyline points="790.71,888.93 800.91,892.42" fill="none" stroke="#a75335" stroke-width="2"/>
<polyline points="811.28,895.37 821.78,897.79" fill="none" stroke="#a75335" stroke-width="2"/>
<polyline points="832.40,899.65 843.09,900.97" fill="none" stroke="#a75335" stroke-width="2"/>
<polyline points="853.84,901.73 864.62,901.93" fill="none" stroke="#a75335" stroke-width="2"/>
<text x="825" y="960.7" font-family="Segoe UI,sans-serif" font-size="19" text-anchor="middle" fill="#64716a">Giro sobre bisagra</text>
<text x="1375" y="597.2" font-family="Segoe UI,sans-serif" font-size="24" text-anchor="middle" fill="#28372f">mono_L</text>
<polygon points="1334.74,677.06 1569.94,677.06 1569.94,699.60 1334.74,699.60" fill="#bdc5bd"/>
<polygon points="1194.06,677.06 1429.26,677.06 1429.26,699.60 1194.06,699.60" fill="#3f7866"/>
<polyline points="1452.34,688.33 1311.66,688.33" fill="none" stroke="#a75335" stroke-width="2"/>
<text x="1375" y="960.7" font-family="Segoe UI,sans-serif" font-size="19" text-anchor="middle" fill="#64716a">Traslación sobre riel</text>
<text x="275" y="1032.2" font-family="Segoe UI,sans-serif" font-size="24" text-anchor="middle" fill="#28372f">mono_R</text>
<polygon points="94.06,1112.06 329.26,1112.06 329.26,1134.60 94.06,1134.60" fill="#bdc5bd"/>
<polygon points="234.74,1112.06 469.94,1112.06 469.94,1134.60 234.74,1134.60" fill="#3f7866"/>
<polyline points="211.66,1123.33 352.34,1123.33" fill="none" stroke="#a75335" stroke-width="2"/>
<text x="275" y="1395.7" font-family="Segoe UI,sans-serif" font-size="19" text-anchor="middle" fill="#64716a">Traslación sobre riel</text>
<text x="825" y="1032.2" font-family="Segoe UI,sans-serif" font-size="24" text-anchor="middle" fill="#28372f">balconySide</text>
<polygon points="632.46,1100.46 645.34,1100.46 645.34,1235.87 632.46,1235.87" fill="#bdc5bd"/>
<polygon points="632.46,1224.13 645.34,1224.13 645.34,1359.54 632.46,1359.54" fill="#3f7866"/>
<polyline points="638.90,1168.17 638.90,1291.83" fill="none" stroke="#a75335" stroke-width="2"/>
<text x="825" y="1395.7" font-family="Segoe UI,sans-serif" font-size="19" text-anchor="middle" fill="#64716a">Traslación sobre riel</text>
<text x="1375" y="1032.2" font-family="Segoe UI,sans-serif" font-size="24" text-anchor="middle" fill="#28372f">balconyRear_A</text>
<polygon points="1186.01,1108.44 1335.84,1104.01 1339.01,1104.01 1352.63,1108.44 1416.43,1129.79 1416.43,1135.37 1413.65,1135.37 1188.78,1119.59 1186.01,1114.14" fill="#bdc5bd"/>
<polygon points="1347.57,1108.44 1497.40,1104.01 1500.57,1104.01 1514.19,1108.44 1577.99,1129.79 1577.99,1135.37 1575.21,1135.37 1350.34,1119.59 1347.57,1114.14" fill="#3f7866"/>
<polyline points="1314.98,1117.68 1476.54,1117.68" fill="none" stroke="#a75335" stroke-width="2"/>
<text x="1375" y="1395.7" font-family="Segoe UI,sans-serif" font-size="19" text-anchor="middle" fill="#64716a">Traslación sobre riel</text>
<text x="275" y="1467.2" font-family="Segoe UI,sans-serif" font-size="24" text-anchor="middle" fill="#28372f">balconyRear_B</text>
<polygon points="81.71,1554.68 149.74,1538.15 304.98,1534.71 307.43,1534.71 317.98,1538.15 317.98,1542.56 315.77,1546.78 83.87,1558.99 81.71,1558.99" fill="#bdc5bd"/>
<polygon points="246.02,1554.68 314.05,1538.15 469.29,1534.71 471.74,1534.71 482.29,1538.15 482.29,1542.56 480.08,1546.78 248.18,1558.99 246.02,1558.99" fill="#3f7866"/>
<polyline points="217.91,1545.30 382.22,1545.30" fill="none" stroke="#a75335" stroke-width="2"/>
<text x="275" y="1830.7" font-family="Segoe UI,sans-serif" font-size="19" text-anchor="middle" fill="#64716a">Traslación sobre riel</text>
<text x="825" y="1467.2" font-family="Segoe UI,sans-serif" font-size="24" text-anchor="middle" fill="#28372f">bathroomMono</text>
<polygon points="662.16,1756.19 806.54,1748.71 838.04,1748.71 851.17,1756.19 851.17,1770.62 662.16,1770.62" fill="#bdc5bd"/>
<polygon points="656.38,1573.18 663.44,1559.83 677.87,1559.38 683.81,1748.29 669.38,1748.74 657.37,1604.67" fill="#3f7866"/>
<polyline points="656.16,1748.97 668.16,1748.97" fill="none" stroke="#a75335" stroke-width="2"/>
<polyline points="662.16,1742.97 662.16,1754.97" fill="none" stroke="#a75335" stroke-width="2"/>
<polyline points="851.17,1770.62 852.01,1761.14" fill="none" stroke="#a75335" stroke-width="2"/>
<polyline points="852.39,1751.62 852.28,1742.10" fill="none" stroke="#a75335" stroke-width="2"/>
<polyline points="851.70,1732.59 850.64,1723.13" fill="none" stroke="#a75335" stroke-width="2"/>
<polyline points="849.11,1713.72 847.11,1704.41" fill="none" stroke="#a75335" stroke-width="2"/>
<polyline points="844.65,1695.21 841.73,1686.15" fill="none" stroke="#a75335" stroke-width="2"/>
<polyline points="838.36,1677.24 834.55,1668.51" fill="none" stroke="#a75335" stroke-width="2"/>
<polyline points="830.31,1659.98 825.65,1651.68" fill="none" stroke="#a75335" stroke-width="2"/>
<polyline points="820.57,1643.62 815.10,1635.82" fill="none" stroke="#a75335" stroke-width="2"/>
<polyline points="809.25,1628.31 803.02,1621.10" fill="none" stroke="#a75335" stroke-width="2"/>
<polyline points="796.45,1614.21 789.53,1607.66" fill="none" stroke="#a75335" stroke-width="2"/>
<polyline points="782.30,1601.46 774.77,1595.63" fill="none" stroke="#a75335" stroke-width="2"/>
<polyline points="766.95,1590.19 758.88,1585.14" fill="none" stroke="#a75335" stroke-width="2"/>
<polyline points="750.56,1580.51 742.01,1576.30" fill="none" stroke="#a75335" stroke-width="2"/>
<polyline points="733.27,1572.52 724.35,1569.18" fill="none" stroke="#a75335" stroke-width="2"/>
<polyline points="715.28,1566.29 706.07,1563.86" fill="none" stroke="#a75335" stroke-width="2"/>
<polyline points="696.75,1561.90 687.34,1560.40" fill="none" stroke="#a75335" stroke-width="2"/>
<text x="825" y="1830.7" font-family="Segoe UI,sans-serif" font-size="19" text-anchor="middle" fill="#64716a">Giro sobre bisagra</text>
<text x="1375" y="1467.2" font-family="Segoe UI,sans-serif" font-size="24" text-anchor="middle" fill="#28372f">gate</text>
<polygon points="1383.69,1532.87 1399.44,1530.16 1575.16,1530.16 1586.84,1532.87 1586.84,1539.64 1383.69,1539.64" fill="#bdc5bd"/>
<polygon points="1177.16,1532.87 1192.90,1530.16 1368.63,1530.16 1380.31,1532.87 1380.31,1539.64 1177.16,1539.64" fill="#3f7866"/>
<polyline points="1485.94,1534.22 1279.41,1534.22" fill="none" stroke="#a75335" stroke-width="2"/>
<text x="1375" y="1830.7" font-family="Segoe UI,sans-serif" font-size="19" text-anchor="middle" fill="#64716a">Traslación sobre riel</text>
<text x="825" y="1906.3" font-family="Segoe UI,sans-serif" font-size="21" text-anchor="middle" fill="#28372f">27 poses verificadas contra muros · Hoja del portón 3,00 m; luz entre pilares fuente 2,75 m</text>
</svg>